<svg xmlns="http://www.w3.org/2000/svg" width="182" height="56" fill="none"><rect width="164" height="48" x="9" y="4" fill="#E1F5FE" rx="4"/><g clip-path="url(#a)"><path fill="#00005B" d="M46.891 17.33H33.109c-2.09 0-3.779 1.733-3.779 3.876v13.588c0 2.143 1.69 3.876 3.78 3.876H46.89c2.09 0 3.779-1.733 3.779-3.876V21.206c0-2.143-1.69-3.876-3.779-3.876Z"/><path fill="#9A9AFF" d="M37.124 27.172c-.089-.276-.169-.542-.258-.818a19.205 19.205 0 0 1-.24-.791c-.07-.25-.133-.48-.195-.694h-.018a10.9 10.9 0 0 1-.302 1.147c-.134.427-.267.872-.41 1.316-.115.453-.257.871-.39 1.245h2.258a12.588 12.588 0 0 0-.205-.64c-.08-.24-.16-.498-.24-.765Zm7.629-.258a1.252 1.252 0 0 0-1.183.676 1.843 1.843 0 0 0-.195.64h1.875c.231 0 .4 0 .507-.009a.436.436 0 0 0 .204-.07v-.09a1.174 1.174 0 0 0-1.208-1.147Zm-3.921 5.665h-1.858c-.063.009-.125-.037-.143-.098l-.729-2.134h-3.307l-.676 2.099a.155.155 0 0 1-.17.124h-1.67c-.099 0-.125-.053-.099-.16l2.864-8.208c.026-.089.053-.169.089-.275a3.11 3.11 0 0 0 .053-.578c-.01-.045.026-.09.07-.098h2.304c.062 0 .106.027.115.071l3.246 9.114c.026.097 0 .143-.09.143Zm6.98-3.549c-.018.168-.027.294-.036.374-.009.062-.061.115-.124.115-.054 0-.152.01-.294.019a4.211 4.211 0 0 1-.515.026c-.204 0-.418-.036-.649-.036h-2.818c.034.276.124.552.275.792.158.239.384.425.648.534a2.77 2.77 0 0 0 1.14.222c.31-.01.621-.035.923-.098a3.27 3.27 0 0 0 .792-.204c.045-.035.072-.018.072.071v1.361a.406.406 0 0 1-.019.106.218.218 0 0 1-.061.062 3.8 3.8 0 0 1-.89.267c-.418.08-.835.116-1.262.107-.677 0-1.245-.107-1.707-.311a3.016 3.016 0 0 1-1.121-.845 3.276 3.276 0 0 1-.614-1.165 4.545 4.545 0 0 1-.186-1.299c0-.48.071-.951.223-1.414.142-.444.364-.853.666-1.218.294-.355.657-.64 1.075-.844.42-.205.916-.276 1.485-.276a3.21 3.21 0 0 1 1.378.276c.365.16.685.4.934.71.231.303.418.641.534 1.015.115.355.168.72.168 1.084 0 .214-.008.4-.017.57Z"/></g><path fill="#000" d="M78.14 34.5h-1.453L75.5 31.36h-4.75l-1.117 3.14h-1.461l4.297-11.203h1.36L78.14 34.5Zm-3.07-4.32-1.757-4.774a4.568 4.568 0 0 1-.172-.75h-.032a4.183 4.183 0 0 1-.18.75l-1.742 4.774h3.883Zm8.508-6.399c-.25-.14-.534-.21-.851-.21-.896 0-1.344.564-1.344 1.695V26.5h1.875v1.094h-1.875V34.5h-1.274v-6.906h-1.367V26.5h1.367v-1.297c0-.838.243-1.5.727-1.984.484-.49 1.088-.735 1.812-.735.391 0 .701.047.93.141v1.156Zm4.774 10.64c-.303.168-.701.25-1.196.25-1.4 0-2.101-.78-2.101-2.343v-4.734H83.68V26.5h1.375v-1.953l1.28-.414V26.5h2.017v1.094h-2.016v4.508c0 .536.091.919.273 1.148.183.23.485.344.907.344.322 0 .601-.089.836-.266v1.094Zm8.14-3.6h-5.648c.02.89.26 1.577.719 2.062.458.484 1.088.726 1.89.726.901 0 1.73-.297 2.484-.89v1.203c-.703.51-1.632.766-2.789.766-1.13 0-2.018-.363-2.664-1.086-.645-.73-.968-1.753-.968-3.07 0-1.245.351-2.259 1.054-3.04.709-.786 1.586-1.18 2.633-1.18s1.857.339 2.43 1.016c.573.677.86 1.617.86 2.82v.672Zm-1.312-1.087c-.006-.74-.185-1.315-.54-1.726-.348-.412-.835-.617-1.46-.617a2.07 2.07 0 0 0-1.54.648c-.421.432-.682.997-.78 1.695h4.32Zm7.429-1.937c-.224-.172-.547-.258-.968-.258-.547 0-1.006.258-1.375.773-.365.516-.547 1.22-.547 2.11V34.5h-1.281v-8h1.28v1.648h.032c.182-.562.461-1 .836-1.312a1.897 1.897 0 0 1 1.258-.477c.333 0 .588.037.765.11v1.328ZM114.5 34.5h-5.938V23.297h5.688v1.187h-4.375v3.727h4.047v1.18h-4.047v3.922h4.625V34.5Zm5.938-10.719c-.25-.14-.534-.21-.852-.21-.896 0-1.344.564-1.344 1.695V26.5h1.875v1.094h-1.875V34.5h-1.273v-6.906h-1.367V26.5h1.367v-1.297c0-.838.242-1.5.726-1.984.485-.49 1.089-.735 1.813-.735.39 0 .7.047.93.141v1.156Zm5.015 0c-.25-.14-.534-.21-.851-.21-.896 0-1.344.564-1.344 1.695V26.5h1.875v1.094h-1.875V34.5h-1.274v-6.906h-1.367V26.5h1.367v-1.297c0-.838.243-1.5.727-1.984.484-.49 1.088-.735 1.812-.735.391 0 .701.047.93.141v1.156Zm7.492 7.04h-5.648c.021.89.26 1.577.719 2.062.458.484 1.088.726 1.89.726.901 0 1.729-.297 2.485-.89v1.203c-.703.51-1.633.766-2.789.766-1.131 0-2.019-.363-2.664-1.086-.646-.73-.969-1.753-.969-3.07 0-1.245.351-2.259 1.054-3.04.709-.786 1.586-1.18 2.633-1.18s1.857.339 2.43 1.016c.573.677.859 1.617.859 2.82v.672Zm-1.312-1.087c-.005-.74-.185-1.315-.539-1.726-.349-.412-.836-.617-1.461-.617a2.07 2.07 0 0 0-1.539.648c-.422.432-.683.997-.782 1.695h4.321Zm8.711 4.399c-.615.37-1.344.554-2.188.554-1.14 0-2.062-.37-2.765-1.109-.698-.745-1.047-1.708-1.047-2.89 0-1.318.377-2.375 1.133-3.172.755-.802 1.763-1.203 3.023-1.203.703 0 1.323.13 1.859.39v1.313c-.593-.417-1.229-.625-1.906-.625-.818 0-1.489.294-2.015.882-.521.584-.782 1.352-.782 2.305 0 .938.245 1.677.735 2.219.494.542 1.156.812 1.984.812.698 0 1.354-.231 1.969-.695v1.219Zm5.648.289c-.302.167-.7.25-1.195.25-1.401 0-2.102-.781-2.102-2.344v-4.734h-1.375V26.5h1.375v-1.953l1.282-.414V26.5h2.015v1.094h-2.015v4.508c0 .536.091.919.273 1.148.182.23.484.344.906.344.323 0 .602-.089.836-.266v1.094Zm1.227-.211v-1.375a3.79 3.79 0 0 0 2.304.773c1.125 0 1.688-.375 1.688-1.125a.938.938 0 0 0-.149-.539 1.336 1.336 0 0 0-.39-.398 2.74 2.74 0 0 0-.578-.305c-.219-.094-.456-.19-.711-.289-.354-.14-.667-.281-.938-.422a3.127 3.127 0 0 1-.672-.484 1.93 1.93 0 0 1-.406-.617 2.239 2.239 0 0 1-.133-.805c0-.375.086-.706.258-.992.172-.292.401-.534.688-.727.286-.198.612-.346.976-.445.37-.099.75-.148 1.141-.148.693 0 1.312.12 1.859.359v1.297c-.588-.386-1.265-.578-2.031-.578-.24 0-.456.028-.648.086-.193.052-.36.127-.5.226a1.104 1.104 0 0 0-.321.36.94.94 0 0 0-.109.453c0 .208.036.382.109.523.078.14.19.266.336.375.146.11.323.208.531.297.209.088.446.185.711.289.355.135.672.276.954.422.281.14.52.302.718.484.198.177.349.383.453.617.11.235.164.513.164.836 0 .396-.088.74-.265 1.032a2.204 2.204 0 0 1-.696.726 3.195 3.195 0 0 1-1.007.43c-.381.094-.779.14-1.196.14-.823 0-1.536-.158-2.14-.476Z"/><rect width="164" height="48" x="9" y="4" stroke="#03A9F4" stroke-width="2" rx="4"/><defs><clipPath id="a"><path fill="#fff" d="M29.33 17.33h21.34v21.34H29.33z"/></clipPath></defs></svg>