<svg width="127" height="39" viewBox="0 0 127 39" fill="none" xmlns="http://www.w3.org/2000/svg">
<path d="M1 4C1 2.34315 2.34315 1 4 1H123C124.657 1 126 2.34315 126 4V35C126 36.6569 124.657 38 123 38H4C2.34314 38 1 36.6569 1 35V4Z" fill="#22272E"/>
<g clip-path="url(#clip0)">
<path d="M17.405 18.5475C17.33 18.315 17.2625 18.09 17.1875 17.8575C17.1125 17.625 17.045 17.4075 16.985 17.19C16.925 16.98 16.8725 16.785 16.82 16.605H16.805C16.7375 16.9275 16.655 17.25 16.55 17.5725C16.4375 17.9325 16.325 18.3075 16.205 18.6825C16.1075 19.065 15.9875 19.4175 15.875 19.7325H17.78C17.735 19.575 17.675 19.3875 17.6075 19.1925C17.54 18.99 17.4725 18.7725 17.405 18.5475V18.5475ZM23.84 18.33C23.4275 18.3075 23.0375 18.525 22.8425 18.9C22.7525 19.0725 22.7 19.2525 22.6775 19.44H24.2593C24.4543 19.44 24.5968 19.44 24.6868 19.4325C24.7468 19.425 24.8068 19.41 24.8593 19.3725V19.2975C24.8563 19.1669 24.8276 19.0382 24.7747 18.9187C24.7218 18.7993 24.6458 18.6915 24.5511 18.6015C24.4563 18.5116 24.3447 18.4413 24.2227 18.3947C24.1006 18.3481 23.9706 18.3261 23.84 18.33ZM25.8125 10.725H14.1875C12.425 10.725 11 12.15 11 13.9125V25.0875C11 26.85 12.425 28.275 14.1875 28.275H25.8125C27.575 28.275 29 26.85 29 25.0875V13.9125C29 12.15 27.575 10.725 25.8125 10.725ZM20.5325 23.1083H18.965C18.9125 23.1158 18.86 23.0775 18.845 23.0258L18.23 21.2258H15.44L14.87 22.9958C14.855 23.0633 14.795 23.1083 14.7275 23.1008H13.3175C13.235 23.1008 13.2125 23.0558 13.235 22.9658L15.65 16.0425C15.6725 15.9675 15.695 15.9 15.725 15.81C15.755 15.6525 15.77 15.4875 15.77 15.3225C15.7625 15.285 15.7925 15.2475 15.83 15.24H17.7725C17.825 15.24 17.8625 15.2625 17.87 15.3L20.6075 22.9875C20.63 23.07 20.6083 23.1083 20.5325 23.1083ZM26.4208 20.115C26.405 20.2568 26.3975 20.3625 26.39 20.43C26.3825 20.4825 26.3382 20.5275 26.285 20.5275C26.24 20.5275 26.1575 20.535 26.0375 20.5433C25.9182 20.5583 25.775 20.565 25.6033 20.565C25.4308 20.565 25.25 20.535 25.0557 20.535H22.6783C22.7075 20.7675 22.7832 21 22.9107 21.2025C23.0435 21.4044 23.234 21.5615 23.4575 21.6533C23.7575 21.7808 24.0883 21.8483 24.4183 21.8408C24.6808 21.8325 24.9425 21.8108 25.1975 21.7583C25.4266 21.729 25.6511 21.6711 25.8657 21.5858C25.9032 21.5565 25.9257 21.5708 25.9257 21.6458V22.794C25.9257 22.8233 25.9182 22.854 25.91 22.8833C25.8965 22.9041 25.8789 22.922 25.8583 22.9358C25.6183 23.0408 25.3708 23.1158 25.1083 23.1608C24.755 23.2283 24.4033 23.2583 24.0433 23.2508C23.4725 23.2508 22.9932 23.1608 22.6032 22.9883C22.2363 22.8285 21.9123 22.5844 21.6575 22.2758C21.4183 21.9833 21.245 21.6533 21.14 21.2933C21.0351 20.9375 20.9823 20.5684 20.9832 20.1975C20.9832 19.7933 21.0432 19.395 21.1707 19.005C21.2907 18.63 21.4782 18.285 21.7332 17.9775C21.9807 17.6775 22.2875 17.4375 22.64 17.265C22.9933 17.0925 23.4125 17.0325 23.8925 17.0325C24.2924 17.0232 24.6894 17.1026 25.055 17.265C25.3625 17.4 25.6325 17.6025 25.8425 17.865C26.0375 18.12 26.195 18.405 26.2933 18.72C26.39 19.02 26.435 19.3275 26.435 19.635C26.435 19.815 26.4275 19.9725 26.4208 20.115V20.115Z" fill="#ADBAC7"/>
</g>
<path d="M49.873 25H48.6016L47.5625 22.252H43.4062L42.4287 25H41.1504L44.9102 15.1973H46.0996L49.873 25ZM47.1865 21.2197L45.6484 17.043C45.5983 16.9062 45.5482 16.6875 45.498 16.3867H45.4707C45.4251 16.6647 45.3727 16.8835 45.3135 17.043L43.7891 21.2197H47.1865ZM54.6309 15.6211C54.4121 15.498 54.1637 15.4365 53.8857 15.4365C53.1019 15.4365 52.71 15.931 52.71 16.9199V18H54.3506V18.957H52.71V25H51.5957V18.957H50.3994V18H51.5957V16.8652C51.5957 16.1315 51.8076 15.5527 52.2314 15.1289C52.6553 14.7005 53.1839 14.4863 53.8174 14.4863C54.1592 14.4863 54.4303 14.5273 54.6309 14.6094V15.6211ZM59.0674 24.9316C58.8031 25.0775 58.4544 25.1504 58.0215 25.1504C56.7956 25.1504 56.1826 24.4668 56.1826 23.0996V18.957H54.9795V18H56.1826V16.291L57.3037 15.9287V18H59.0674V18.957H57.3037V22.9014C57.3037 23.3708 57.3835 23.7057 57.543 23.9062C57.7025 24.1068 57.9668 24.207 58.3359 24.207C58.6185 24.207 58.8623 24.1296 59.0674 23.9746V24.9316ZM66.0811 21.7803H61.1387C61.1569 22.5596 61.3665 23.1611 61.7676 23.585C62.1686 24.0088 62.7201 24.2207 63.4219 24.2207C64.2103 24.2207 64.9349 23.9609 65.5957 23.4414V24.4941C64.9805 24.9408 64.167 25.1641 63.1553 25.1641C62.1663 25.1641 61.3893 24.8473 60.8242 24.2139C60.2591 23.5758 59.9766 22.6803 59.9766 21.5273C59.9766 20.4382 60.2842 19.5518 60.8994 18.8682C61.5192 18.18 62.2871 17.8359 63.2031 17.8359C64.1191 17.8359 64.8278 18.1322 65.3291 18.7246C65.8304 19.3171 66.0811 20.1396 66.0811 21.1924V21.7803ZM64.9326 20.8301C64.9281 20.1829 64.7708 19.6794 64.4609 19.3193C64.1556 18.9593 63.7295 18.7793 63.1826 18.7793C62.654 18.7793 62.2051 18.9684 61.8359 19.3467C61.4668 19.7249 61.2389 20.2194 61.1523 20.8301H64.9326ZM71.4336 19.1348C71.2376 18.9844 70.9551 18.9092 70.5859 18.9092C70.1074 18.9092 69.7064 19.1348 69.3828 19.5859C69.0638 20.0371 68.9043 20.6523 68.9043 21.4316V25H67.7832V18H68.9043V19.4424H68.9316C69.0911 18.9502 69.335 18.5674 69.6631 18.2939C69.9912 18.016 70.3581 17.877 70.7637 17.877C71.0553 17.877 71.2786 17.9089 71.4336 17.9727V19.1348ZM81.8379 25H76.6426V15.1973H81.6191V16.2363H77.791V19.4971H81.332V20.5293H77.791V23.9609H81.8379V25ZM87.0332 15.6211C86.8145 15.498 86.5661 15.4365 86.2881 15.4365C85.5042 15.4365 85.1123 15.931 85.1123 16.9199V18H86.7529V18.957H85.1123V25H83.998V18.957H82.8018V18H83.998V16.8652C83.998 16.1315 84.21 15.5527 84.6338 15.1289C85.0576 14.7005 85.5863 14.4863 86.2197 14.4863C86.5615 14.4863 86.8327 14.5273 87.0332 14.6094V15.6211ZM91.4219 15.6211C91.2031 15.498 90.9548 15.4365 90.6768 15.4365C89.8929 15.4365 89.501 15.931 89.501 16.9199V18H91.1416V18.957H89.501V25H88.3867V18.957H87.1904V18H88.3867V16.8652C88.3867 16.1315 88.5986 15.5527 89.0225 15.1289C89.4463 14.7005 89.9749 14.4863 90.6084 14.4863C90.9502 14.4863 91.2214 14.5273 91.4219 14.6094V15.6211ZM97.9775 21.7803H93.0352C93.0534 22.5596 93.263 23.1611 93.6641 23.585C94.0651 24.0088 94.6165 24.2207 95.3184 24.2207C96.1068 24.2207 96.8314 23.9609 97.4922 23.4414V24.4941C96.877 24.9408 96.0635 25.1641 95.0518 25.1641C94.0628 25.1641 93.2858 24.8473 92.7207 24.2139C92.1556 23.5758 91.873 22.6803 91.873 21.5273C91.873 20.4382 92.1807 19.5518 92.7959 18.8682C93.4157 18.18 94.1836 17.8359 95.0996 17.8359C96.0156 17.8359 96.7243 18.1322 97.2256 18.7246C97.7269 19.3171 97.9775 20.1396 97.9775 21.1924V21.7803ZM96.8291 20.8301C96.8245 20.1829 96.6673 19.6794 96.3574 19.3193C96.0521 18.9593 95.626 18.7793 95.0791 18.7793C94.5505 18.7793 94.1016 18.9684 93.7324 19.3467C93.3633 19.7249 93.1354 20.2194 93.0488 20.8301H96.8291ZM104.451 24.6787C103.913 25.0023 103.275 25.1641 102.537 25.1641C101.539 25.1641 100.732 24.8405 100.117 24.1934C99.5065 23.5417 99.2012 22.6986 99.2012 21.6641C99.2012 20.5111 99.5316 19.5859 100.192 18.8887C100.853 18.1868 101.735 17.8359 102.838 17.8359C103.453 17.8359 103.995 17.9499 104.465 18.1777V19.3262C103.945 18.9616 103.389 18.7793 102.797 18.7793C102.081 18.7793 101.493 19.0368 101.033 19.5518C100.577 20.0622 100.35 20.7344 100.35 21.5684C100.35 22.3887 100.564 23.0358 100.992 23.5098C101.425 23.9837 102.004 24.2207 102.729 24.2207C103.339 24.2207 103.913 24.0179 104.451 23.6123V24.6787ZM109.394 24.9316C109.129 25.0775 108.781 25.1504 108.348 25.1504C107.122 25.1504 106.509 24.4668 106.509 23.0996V18.957H105.306V18H106.509V16.291L107.63 15.9287V18H109.394V18.957H107.63V22.9014C107.63 23.3708 107.71 23.7057 107.869 23.9062C108.029 24.1068 108.293 24.207 108.662 24.207C108.945 24.207 109.188 24.1296 109.394 23.9746V24.9316ZM110.467 24.7471V23.5439C111.077 23.9951 111.75 24.2207 112.483 24.2207C113.468 24.2207 113.96 23.8926 113.96 23.2363C113.96 23.0495 113.917 22.8923 113.83 22.7646C113.748 22.6325 113.634 22.5163 113.488 22.416C113.347 22.3158 113.178 22.2269 112.982 22.1494C112.791 22.0674 112.584 21.9831 112.36 21.8965C112.05 21.7734 111.777 21.6504 111.54 21.5273C111.308 21.3997 111.112 21.2585 110.952 21.1035C110.797 20.944 110.679 20.764 110.597 20.5635C110.519 20.363 110.48 20.1283 110.48 19.8594C110.48 19.5312 110.556 19.2419 110.706 18.9912C110.856 18.736 111.057 18.5241 111.308 18.3555C111.558 18.1823 111.843 18.0524 112.162 17.9658C112.486 17.8792 112.818 17.8359 113.16 17.8359C113.766 17.8359 114.309 17.9408 114.787 18.1504V19.2852C114.272 18.9479 113.68 18.7793 113.01 18.7793C112.8 18.7793 112.611 18.8044 112.442 18.8545C112.274 18.9001 112.128 18.9661 112.005 19.0527C111.886 19.1393 111.793 19.2441 111.725 19.3672C111.661 19.4857 111.629 19.6178 111.629 19.7637C111.629 19.946 111.661 20.0986 111.725 20.2217C111.793 20.3447 111.891 20.4541 112.019 20.5498C112.146 20.6455 112.301 20.7321 112.483 20.8096C112.666 20.887 112.873 20.9714 113.105 21.0625C113.415 21.181 113.693 21.304 113.939 21.4316C114.186 21.5547 114.395 21.696 114.568 21.8555C114.742 22.0104 114.874 22.1904 114.965 22.3955C115.061 22.6006 115.108 22.8444 115.108 23.127C115.108 23.4733 115.031 23.7741 114.876 24.0293C114.726 24.2845 114.523 24.4964 114.268 24.665C114.012 24.8337 113.718 24.959 113.386 25.041C113.053 25.123 112.704 25.1641 112.34 25.1641C111.62 25.1641 110.995 25.0251 110.467 24.7471Z" fill="#ADBAC7"/>
<path d="M4 2H123V0H4V2ZM125 4V35H127V4H125ZM123 37H4V39H123V37ZM2 35V4H0V35H2ZM4 37C2.89543 37 2 36.1046 2 35H0C0 37.2091 1.79086 39 4 39V37ZM125 35C125 36.1046 124.105 37 123 37V39C125.209 39 127 37.2091 127 35H125ZM123 2C124.105 2 125 2.89543 125 4H127C127 1.79086 125.209 0 123 0V2ZM4 0C1.79086 0 0 1.79086 0 4H2C2 2.89543 2.89543 2 4 2V0Z" fill="#444C56"/>
<defs>
<clipPath id="clip0">
<rect width="18" height="18" fill="white" transform="translate(11 10.5)"/>
</clipPath>
</defs>
</svg>
