<svg width="105" height="28" viewBox="0 0 105 28" fill="none" xmlns="http://www.w3.org/2000/svg">
<g filter="url(#filter0_d)">
<path d="M2 5C2 2.23858 4.23858 0 7 0H98C100.761 0 103 2.23858 103 5V19C103 21.7614 100.761 24 98 24H7C4.23857 24 2 21.7614 2 19V5Z" fill="white"/>
<g clip-path="url(#clip0)">
<path d="M21.8125 3H10.1875C8.42499 3 6.99998 4.46154 6.99998 6.26924V17.7308C6.99998 19.5385 8.42499 21 10.1875 21H21.8125C23.575 21 25 19.5385 25 17.7308V6.26924C25 4.46154 23.575 3 21.8125 3V3Z" fill="#00005B"/>
<path d="M13.5741 11.3015C13.4991 11.069 13.4316 10.844 13.3566 10.6115C13.2816 10.379 13.2141 10.1615 13.1541 9.94404C13.0941 9.73404 13.0416 9.53904 12.9891 9.35904H12.9741C12.9066 9.68154 12.8241 10.004 12.7191 10.3265C12.6066 10.6865 12.4941 11.0615 12.3741 11.4365C12.2766 11.819 12.1566 12.1715 12.0441 12.4865H13.9491C13.9041 12.329 13.8441 12.1415 13.7766 11.9465C13.7091 11.744 13.6416 11.5265 13.5741 11.3015V11.3015ZM20.0091 11.084C19.5966 11.0615 19.2066 11.279 19.0116 11.654C18.9216 11.8265 18.8691 12.0065 18.8466 12.194H20.4283C20.6233 12.194 20.7658 12.194 20.8558 12.1865C20.9158 12.179 20.9758 12.164 21.0283 12.1265V12.0515C21.0254 11.9209 20.9967 11.7922 20.9438 11.6728C20.8909 11.5533 20.8149 11.4455 20.7201 11.3556C20.6254 11.2656 20.5138 11.1953 20.3917 11.1487C20.2697 11.1021 20.1397 11.0801 20.0091 11.084V11.084ZM16.7016 15.8623H15.1341C15.0816 15.8698 15.0291 15.8315 15.0141 15.7798L14.3991 13.9798H11.6091L11.0391 15.7498C11.0241 15.8173 10.9641 15.8623 10.8966 15.8548H9.48659C9.40409 15.8548 9.38159 15.8098 9.40409 15.7198L11.8191 8.79654C11.8416 8.72154 11.8641 8.65404 11.8941 8.56404C11.9241 8.40654 11.9391 8.24154 11.9391 8.07654C11.9316 8.03904 11.9616 8.00154 11.9991 7.99404H13.9416C13.9941 7.99404 14.0316 8.01654 14.0391 8.05404L16.7766 15.7415C16.7991 15.824 16.7773 15.8623 16.7016 15.8623ZM22.5898 12.869C22.5741 13.0108 22.5666 13.1165 22.5591 13.184C22.5516 13.2365 22.5073 13.2815 22.4541 13.2815C22.4091 13.2815 22.3266 13.289 22.2066 13.2973C22.0873 13.3123 21.9441 13.319 21.7723 13.319C21.5998 13.319 21.4191 13.289 21.2248 13.289H18.8473C18.8766 13.5215 18.9523 13.754 19.0798 13.9565C19.2125 14.1584 19.4031 14.3155 19.6266 14.4073C19.9266 14.5348 20.2573 14.6023 20.5873 14.5948C20.8498 14.5865 21.1116 14.5648 21.3666 14.5123C21.5957 14.483 21.8202 14.4251 22.0348 14.3398C22.0723 14.3105 22.0948 14.3248 22.0948 14.3998V15.548C22.0948 15.5773 22.0873 15.608 22.0791 15.6373C22.0656 15.6581 22.048 15.676 22.0273 15.6898C21.7873 15.7948 21.5398 15.8698 21.2773 15.9148C20.9241 15.9823 20.5723 16.0123 20.2123 16.0048C19.6416 16.0048 19.1623 15.9148 18.7723 15.7423C18.4054 15.5825 18.0814 15.3384 17.8266 15.0298C17.5873 14.7373 17.4141 14.4073 17.3091 14.0473C17.2041 13.6915 17.1513 13.3224 17.1523 12.9515C17.1523 12.5473 17.2123 12.149 17.3398 11.759C17.4598 11.384 17.6473 11.039 17.9023 10.7315C18.1498 10.4315 18.4566 10.1915 18.8091 10.019C19.1623 9.84654 19.5816 9.78654 20.0616 9.78654C20.4615 9.77721 20.8585 9.85661 21.2241 10.019C21.5316 10.154 21.8016 10.3565 22.0116 10.619C22.2066 10.874 22.3641 11.159 22.4623 11.474C22.5591 11.774 22.6041 12.0815 22.6041 12.389C22.6041 12.569 22.5966 12.7265 22.5898 12.869V12.869Z" fill="#9A9AFF"/>
</g>
<path d="M35.7012 13.7734H32.127L31.3242 16H30.1641L33.4219 7.46875H34.4062L37.6699 16H36.5156L35.7012 13.7734ZM32.4668 12.8477H35.3672L33.9141 8.85742L32.4668 12.8477ZM39.1816 16V10.498H38.1797V9.66016H39.1816V9.00977C39.1816 8.33008 39.3633 7.80469 39.7266 7.43359C40.0898 7.0625 40.6035 6.87695 41.2676 6.87695C41.5176 6.87695 41.7656 6.91016 42.0117 6.97656L41.9531 7.85547C41.7695 7.82031 41.5742 7.80273 41.3672 7.80273C41.0156 7.80273 40.7441 7.90625 40.5527 8.11328C40.3613 8.31641 40.2656 8.60938 40.2656 8.99219V9.66016H41.6191V10.498H40.2656V16H39.1816ZM44.291 8.125V9.66016H45.4746V10.498H44.291V14.4297C44.291 14.6836 44.3438 14.875 44.4492 15.0039C44.5547 15.1289 44.7344 15.1914 44.9883 15.1914C45.1133 15.1914 45.2852 15.168 45.5039 15.1211V16C45.2188 16.0781 44.9414 16.1172 44.6719 16.1172C44.1875 16.1172 43.8223 15.9707 43.5762 15.6777C43.3301 15.3848 43.207 14.9688 43.207 14.4297V10.498H42.0527V9.66016H43.207V8.125H44.291ZM49.377 16.1172C48.5176 16.1172 47.8184 15.8359 47.2793 15.2734C46.7402 14.707 46.4707 13.9512 46.4707 13.0059V12.8066C46.4707 12.1777 46.5898 11.6172 46.8281 11.125C47.0703 10.6289 47.4062 10.2422 47.8359 9.96484C48.2695 9.68359 48.7383 9.54297 49.2422 9.54297C50.0664 9.54297 50.707 9.81445 51.1641 10.3574C51.6211 10.9004 51.8496 11.6777 51.8496 12.6895V13.1406H47.5547C47.5703 13.7656 47.752 14.2715 48.0996 14.6582C48.4512 15.041 48.8965 15.2324 49.4355 15.2324C49.8184 15.2324 50.1426 15.1543 50.4082 14.998C50.6738 14.8418 50.9062 14.6348 51.1055 14.377L51.7676 14.8926C51.2363 15.709 50.4395 16.1172 49.377 16.1172ZM49.2422 10.4336C48.8047 10.4336 48.4375 10.5938 48.1406 10.9141C47.8438 11.2305 47.6602 11.6758 47.5898 12.25H50.7656V12.168C50.7344 11.6172 50.5859 11.1914 50.3203 10.8906C50.0547 10.5859 49.6953 10.4336 49.2422 10.4336ZM56.1738 10.6328C56.0098 10.6055 55.832 10.5918 55.6406 10.5918C54.9297 10.5918 54.4473 10.8945 54.1934 11.5V16H53.1094V9.66016H54.1641L54.1816 10.3926C54.5371 9.82617 55.041 9.54297 55.6934 9.54297C55.9043 9.54297 56.0645 9.57031 56.1738 9.625V10.6328ZM65.1445 12.0566H61.4473V15.0801H65.7422V16H60.3223V7.46875H65.6836V8.39453H61.4473V11.1367H65.1445V12.0566ZM67.4004 16V10.498H66.3984V9.66016H67.4004V9.00977C67.4004 8.33008 67.582 7.80469 67.9453 7.43359C68.3086 7.0625 68.8223 6.87695 69.4863 6.87695C69.7363 6.87695 69.9844 6.91016 70.2305 6.97656L70.1719 7.85547C69.9883 7.82031 69.793 7.80273 69.5859 7.80273C69.2344 7.80273 68.9629 7.90625 68.7715 8.11328C68.5801 8.31641 68.4844 8.60938 68.4844 8.99219V9.66016H69.8379V10.498H68.4844V16H67.4004ZM71.5723 16V10.498H70.5703V9.66016H71.5723V9.00977C71.5723 8.33008 71.7539 7.80469 72.1172 7.43359C72.4805 7.0625 72.9941 6.87695 73.6582 6.87695C73.9082 6.87695 74.1562 6.91016 74.4023 6.97656L74.3438 7.85547C74.1602 7.82031 73.9648 7.80273 73.7578 7.80273C73.4062 7.80273 73.1348 7.90625 72.9434 8.11328C72.752 8.31641 72.6562 8.60938 72.6562 8.99219V9.66016H74.0098V10.498H72.6562V16H71.5723ZM77.7012 16.1172C76.8418 16.1172 76.1426 15.8359 75.6035 15.2734C75.0645 14.707 74.7949 13.9512 74.7949 13.0059V12.8066C74.7949 12.1777 74.9141 11.6172 75.1523 11.125C75.3945 10.6289 75.7305 10.2422 76.1602 9.96484C76.5938 9.68359 77.0625 9.54297 77.5664 9.54297C78.3906 9.54297 79.0312 9.81445 79.4883 10.3574C79.9453 10.9004 80.1738 11.6777 80.1738 12.6895V13.1406H75.8789C75.8945 13.7656 76.0762 14.2715 76.4238 14.6582C76.7754 15.041 77.2207 15.2324 77.7598 15.2324C78.1426 15.2324 78.4668 15.1543 78.7324 14.998C78.998 14.8418 79.2305 14.6348 79.4297 14.377L80.0918 14.8926C79.5605 15.709 78.7637 16.1172 77.7012 16.1172ZM77.5664 10.4336C77.1289 10.4336 76.7617 10.5938 76.4648 10.9141C76.168 11.2305 75.9844 11.6758 75.9141 12.25H79.0898V12.168C79.0586 11.6172 78.9102 11.1914 78.6445 10.8906C78.3789 10.5859 78.0195 10.4336 77.5664 10.4336ZM83.9766 15.2324C84.3633 15.2324 84.7012 15.1152 84.9902 14.8809C85.2793 14.6465 85.4395 14.3535 85.4707 14.002H86.4961C86.4766 14.3652 86.3516 14.7109 86.1211 15.0391C85.8906 15.3672 85.582 15.6289 85.1953 15.8242C84.8125 16.0195 84.4062 16.1172 83.9766 16.1172C83.1133 16.1172 82.4258 15.8301 81.9141 15.2559C81.4062 14.6777 81.1523 13.8887 81.1523 12.8887V12.707C81.1523 12.0898 81.2656 11.541 81.4922 11.0605C81.7188 10.5801 82.043 10.207 82.4648 9.94141C82.8906 9.67578 83.3926 9.54297 83.9707 9.54297C84.6816 9.54297 85.2715 9.75586 85.7402 10.1816C86.2129 10.6074 86.4648 11.1602 86.4961 11.8398H85.4707C85.4395 11.4297 85.2832 11.0938 85.002 10.832C84.7246 10.5664 84.3809 10.4336 83.9707 10.4336C83.4199 10.4336 82.9922 10.6328 82.6875 11.0312C82.3867 11.4258 82.2363 11.998 82.2363 12.748V12.9531C82.2363 13.6836 82.3867 14.2461 82.6875 14.6406C82.9883 15.0352 83.418 15.2324 83.9766 15.2324ZM89.1855 8.125V9.66016H90.3691V10.498H89.1855V14.4297C89.1855 14.6836 89.2383 14.875 89.3438 15.0039C89.4492 15.1289 89.6289 15.1914 89.8828 15.1914C90.0078 15.1914 90.1797 15.168 90.3984 15.1211V16C90.1133 16.0781 89.8359 16.1172 89.5664 16.1172C89.082 16.1172 88.7168 15.9707 88.4707 15.6777C88.2246 15.3848 88.1016 14.9688 88.1016 14.4297V10.498H86.9473V9.66016H88.1016V8.125H89.1855ZM95.332 14.3184C95.332 14.0254 95.2207 13.7988 94.998 13.6387C94.7793 13.4746 94.3945 13.334 93.8438 13.2168C93.2969 13.0996 92.8613 12.959 92.5371 12.7949C92.2168 12.6309 91.9785 12.4355 91.8223 12.209C91.6699 11.9824 91.5938 11.7129 91.5938 11.4004C91.5938 10.8809 91.8125 10.4414 92.25 10.082C92.6914 9.72266 93.2539 9.54297 93.9375 9.54297C94.6562 9.54297 95.2383 9.72852 95.6836 10.0996C96.1328 10.4707 96.3574 10.9453 96.3574 11.5234H95.2676C95.2676 11.2266 95.1406 10.9707 94.8867 10.7559C94.6367 10.541 94.3203 10.4336 93.9375 10.4336C93.543 10.4336 93.2344 10.5195 93.0117 10.6914C92.7891 10.8633 92.6777 11.0879 92.6777 11.3652C92.6777 11.627 92.7812 11.8242 92.9883 11.957C93.1953 12.0898 93.5684 12.2168 94.1074 12.3379C94.6504 12.459 95.0898 12.6035 95.4258 12.7715C95.7617 12.9395 96.0098 13.1426 96.1699 13.3809C96.334 13.6152 96.416 13.9023 96.416 14.2422C96.416 14.8086 96.1895 15.2637 95.7363 15.6074C95.2832 15.9473 94.6953 16.1172 93.9727 16.1172C93.4648 16.1172 93.0156 16.0273 92.625 15.8477C92.2344 15.668 91.9277 15.418 91.7051 15.0977C91.4863 14.7734 91.377 14.4238 91.377 14.0488H92.4609C92.4805 14.4121 92.625 14.7012 92.8945 14.916C93.168 15.127 93.5273 15.2324 93.9727 15.2324C94.3828 15.2324 94.7109 15.1504 94.957 14.9863C95.207 14.8184 95.332 14.5957 95.332 14.3184Z" fill="black"/>
</g>
<defs>
<filter id="filter0_d" x="0" y="0" width="105" height="28" filterUnits="userSpaceOnUse" color-interpolation-filters="sRGB">
<feFlood flood-opacity="0" result="BackgroundImageFix"/>
<feColorMatrix in="SourceAlpha" type="matrix" values="0 0 0 0 0 0 0 0 0 0 0 0 0 0 0 0 0 0 127 0" result="hardAlpha"/>
<feOffset dy="2"/>
<feGaussianBlur stdDeviation="1"/>
<feComposite in2="hardAlpha" operator="out"/>
<feColorMatrix type="matrix" values="0 0 0 0 0 0 0 0 0 0 0 0 0 0 0 0 0 0 0.25 0"/>
<feBlend mode="normal" in2="BackgroundImageFix" result="effect1_dropShadow"/>
<feBlend mode="normal" in="SourceGraphic" in2="effect1_dropShadow" result="shape"/>
</filter>
<clipPath id="clip0">
<rect width="18" height="18" fill="white" transform="translate(7 3)"/>
</clipPath>
</defs>
</svg>
