<svg width="19" height="18" viewBox="0 0 19 18" fill="none" xmlns="http://www.w3.org/2000/svg">
<g clip-path="url(#clip0)">
<path d="M15.808 0H4.18299C2.42049 0 0.995483 1.46154 0.995483 3.26924V14.7308C0.995483 16.5385 2.42049 18 4.18299 18H15.808C17.5705 18 18.9955 16.5385 18.9955 14.7308V3.26924C18.9955 1.46154 17.5705 0 15.808 0V0Z" fill="#00005B"/>
<path d="M7.56957 8.30155C7.49457 8.06905 7.42707 7.84405 7.35207 7.61155C7.27707 7.37905 7.20957 7.16155 7.14957 6.94405C7.08957 6.73405 7.03707 6.53905 6.98457 6.35905H6.96957C6.90207 6.68155 6.81957 7.00405 6.71457 7.32655C6.60207 7.68655 6.48957 8.06155 6.36957 8.43655C6.27207 8.81905 6.15207 9.17155 6.03957 9.48655H7.94457C7.89957 9.32905 7.83957 9.14155 7.77207 8.94655C7.70457 8.74405 7.63707 8.52655 7.56957 8.30155ZM14.0046 8.08405C13.5921 8.06155 13.2021 8.27905 13.0071 8.65405C12.9171 8.82655 12.8646 9.00655 12.8421 9.19405H14.4238C14.6188 9.19405 14.7613 9.19405 14.8513 9.18655C14.9113 9.17905 14.9713 9.16405 15.0238 9.12655V9.05155C15.0209 8.92094 14.9922 8.79221 14.9393 8.67276C14.8864 8.55331 14.8104 8.44552 14.7156 8.35558C14.6209 8.26564 14.5093 8.19535 14.3872 8.14875C14.2652 8.10214 14.1352 8.08015 14.0046 8.08405ZM10.6971 12.8623H9.12957C9.07707 12.8698 9.02457 12.8315 9.00957 12.7798L8.39457 10.9798H5.60457L5.03457 12.7498C5.01957 12.8173 4.95957 12.8623 4.89207 12.8548H3.48207C3.39957 12.8548 3.37707 12.8098 3.39957 12.7198L5.81457 5.79655C5.83707 5.72155 5.85957 5.65405 5.88957 5.56405C5.91957 5.40655 5.93457 5.24155 5.93457 5.07655C5.92707 5.03905 5.95707 5.00155 5.99457 4.99405H7.93707C7.98957 4.99405 8.02707 5.01655 8.03457 5.05405L10.7721 12.7415C10.7946 12.824 10.7728 12.8623 10.6971 12.8623ZM16.5853 9.86905C16.5696 10.0108 16.5621 10.1165 16.5546 10.184C16.5471 10.2365 16.5028 10.2815 16.4496 10.2815C16.4046 10.2815 16.3221 10.289 16.2021 10.2973C16.0828 10.3123 15.9396 10.319 15.7678 10.319C15.5953 10.319 15.4146 10.289 15.2203 10.289H12.8428C12.8721 10.5215 12.9478 10.754 13.0753 10.9565C13.208 11.1584 13.3986 11.3155 13.6221 11.4073C13.9221 11.5348 14.2528 11.6023 14.5828 11.5948C14.8453 11.5865 15.1071 11.5648 15.3621 11.5123C15.5912 11.483 15.8157 11.4251 16.0303 11.3398C16.0678 11.3105 16.0903 11.3248 16.0903 11.3998V12.548C16.0903 12.5773 16.0828 12.608 16.0746 12.6373C16.0611 12.6581 16.0435 12.676 16.0228 12.6898C15.7828 12.7948 15.5353 12.8698 15.2728 12.9148C14.9196 12.9823 14.5678 13.0123 14.2078 13.0048C13.6371 13.0048 13.1578 12.9148 12.7678 12.7423C12.4009 12.5825 12.0769 12.3384 11.8221 12.0298C11.5828 11.7373 11.4096 11.4073 11.3046 11.0473C11.1996 10.6915 11.1468 10.3224 11.1478 9.95155C11.1478 9.5473 11.2078 9.14905 11.3353 8.75905C11.4553 8.38405 11.6428 8.03905 11.8978 7.73155C12.1453 7.43155 12.4521 7.19155 12.8046 7.01905C13.1578 6.84655 13.5771 6.78655 14.0571 6.78655C14.457 6.77722 14.854 6.85662 15.2196 7.01905C15.5271 7.15405 15.7971 7.35655 16.0071 7.61905C16.2021 7.87405 16.3596 8.15905 16.4578 8.47405C16.5546 8.77405 16.5996 9.08155 16.5996 9.38905C16.5996 9.56905 16.5921 9.72655 16.5853 9.86905Z" fill="#9A9AFF"/>
</g>
<defs>
<clipPath id="clip0">
<rect width="18" height="18" fill="white" transform="translate(0.995483)"/>
</clipPath>
</defs>
</svg>
