<svg width="150" height="45" viewBox="0 0 150 45" fill="none" xmlns="http://www.w3.org/2000/svg">
<path d="M1 4C1 2.34314 2.34315 1 4 1H146C147.657 1 149 2.34315 149 4V41C149 42.6569 147.657 44 146 44H4C2.34315 44 1 42.6569 1 41V4Z" fill="#22272E"/>
<g clip-path="url(#clip0)">
<path d="M21.405 21.5475C21.33 21.315 21.2625 21.09 21.1875 20.8575C21.1125 20.625 21.045 20.4075 20.985 20.19C20.925 19.98 20.8725 19.785 20.82 19.605H20.805C20.7375 19.9275 20.655 20.25 20.55 20.5725C20.4375 20.9325 20.325 21.3075 20.205 21.6825C20.1075 22.065 19.9875 22.4175 19.875 22.7325H21.78C21.735 22.575 21.675 22.3875 21.6075 22.1925C21.54 21.99 21.4725 21.7725 21.405 21.5475V21.5475ZM27.84 21.33C27.4275 21.3075 27.0375 21.525 26.8425 21.9C26.7525 22.0725 26.7 22.2525 26.6775 22.44H28.2593C28.4543 22.44 28.5968 22.44 28.6868 22.4325C28.7468 22.425 28.8068 22.41 28.8593 22.3725V22.2975C28.8563 22.1669 28.8276 22.0382 28.7747 21.9187C28.7218 21.7993 28.6458 21.6915 28.5511 21.6015C28.4563 21.5116 28.3447 21.4413 28.2227 21.3947C28.1006 21.3481 27.9706 21.3261 27.84 21.33ZM29.8125 13.725H18.1875C16.425 13.725 15 15.15 15 16.9125V28.0875C15 29.85 16.425 31.275 18.1875 31.275H29.8125C31.575 31.275 33 29.85 33 28.0875V16.9125C33 15.15 31.575 13.725 29.8125 13.725ZM24.5325 26.1083H22.965C22.9125 26.1158 22.86 26.0775 22.845 26.0258L22.23 24.2258H19.44L18.87 25.9958C18.855 26.0633 18.795 26.1083 18.7275 26.1008H17.3175C17.235 26.1008 17.2125 26.0558 17.235 25.9658L19.65 19.0425C19.6725 18.9675 19.695 18.9 19.725 18.81C19.755 18.6525 19.77 18.4875 19.77 18.3225C19.7625 18.285 19.7925 18.2475 19.83 18.24H21.7725C21.825 18.24 21.8625 18.2625 21.87 18.3L24.6075 25.9875C24.63 26.07 24.6083 26.1083 24.5325 26.1083ZM30.4208 23.115C30.405 23.2568 30.3975 23.3625 30.39 23.43C30.3825 23.4825 30.3382 23.5275 30.285 23.5275C30.24 23.5275 30.1575 23.535 30.0375 23.5433C29.9182 23.5583 29.775 23.565 29.6033 23.565C29.4308 23.565 29.25 23.535 29.0557 23.535H26.6783C26.7075 23.7675 26.7832 24 26.9107 24.2025C27.0435 24.4044 27.234 24.5615 27.4575 24.6533C27.7575 24.7808 28.0883 24.8483 28.4183 24.8408C28.6808 24.8325 28.9425 24.8108 29.1975 24.7583C29.4266 24.729 29.6511 24.6711 29.8657 24.5858C29.9032 24.5565 29.9257 24.5708 29.9257 24.6458V25.794C29.9257 25.8233 29.9182 25.854 29.91 25.8833C29.8965 25.9041 29.8789 25.922 29.8583 25.9358C29.6183 26.0408 29.3708 26.1158 29.1083 26.1608C28.755 26.2283 28.4033 26.2583 28.0433 26.2508C27.4725 26.2508 26.9932 26.1608 26.6032 25.9883C26.2363 25.8285 25.9123 25.5844 25.6575 25.2758C25.4183 24.9833 25.245 24.6533 25.14 24.2933C25.0351 23.9375 24.9823 23.5684 24.9832 23.1975C24.9832 22.7933 25.0432 22.395 25.1707 22.005C25.2907 21.63 25.4782 21.285 25.7332 20.9775C25.9807 20.6775 26.2875 20.4375 26.64 20.265C26.9933 20.0925 27.4125 20.0325 27.8925 20.0325C28.2924 20.0232 28.6894 20.1026 29.055 20.265C29.3625 20.4 29.6325 20.6025 29.8425 20.865C30.0375 21.12 30.195 21.405 30.2933 21.72C30.39 22.02 30.435 22.3275 30.435 22.635C30.435 22.815 30.4275 22.9725 30.4208 23.115V23.115Z" fill="#ADBAC7"/>
</g>
<path d="M55.1406 29H53.6875L52.5 25.8594H47.75L46.6328 29H45.1719L49.4688 17.7969H50.8281L55.1406 29ZM52.0703 24.6797L50.3125 19.9062C50.2552 19.75 50.1979 19.5 50.1406 19.1562H50.1094C50.0573 19.474 49.9974 19.724 49.9297 19.9062L48.1875 24.6797H52.0703ZM60.5781 18.2812C60.3281 18.1406 60.0443 18.0703 59.7266 18.0703C58.8307 18.0703 58.3828 18.6354 58.3828 19.7656V21H60.2578V22.0938H58.3828V29H57.1094V22.0938H55.7422V21H57.1094V19.7031C57.1094 18.8646 57.3516 18.2031 57.8359 17.7188C58.3203 17.2292 58.9245 16.9844 59.6484 16.9844C60.0391 16.9844 60.349 17.0312 60.5781 17.125V18.2812ZM65.6484 28.9219C65.3464 29.0885 64.9479 29.1719 64.4531 29.1719C63.0521 29.1719 62.3516 28.3906 62.3516 26.8281V22.0938H60.9766V21H62.3516V19.0469L63.6328 18.6328V21H65.6484V22.0938H63.6328V26.6016C63.6328 27.138 63.724 27.5208 63.9062 27.75C64.0885 27.9792 64.3906 28.0938 64.8125 28.0938C65.1354 28.0938 65.4141 28.0052 65.6484 27.8281V28.9219ZM73.6641 25.3203H68.0156C68.0365 26.2109 68.276 26.8984 68.7344 27.3828C69.1927 27.8672 69.8229 28.1094 70.625 28.1094C71.526 28.1094 72.3542 27.8125 73.1094 27.2188V28.4219C72.4062 28.9323 71.4766 29.1875 70.3203 29.1875C69.1901 29.1875 68.3021 28.8255 67.6562 28.1016C67.0104 27.3724 66.6875 26.349 66.6875 25.0312C66.6875 23.7865 67.0391 22.7734 67.7422 21.9922C68.4505 21.2057 69.3281 20.8125 70.375 20.8125C71.4219 20.8125 72.2318 21.151 72.8047 21.8281C73.3776 22.5052 73.6641 23.4453 73.6641 24.6484V25.3203ZM72.3516 24.2344C72.3464 23.4948 72.1667 22.9193 71.8125 22.5078C71.4635 22.0964 70.9766 21.8906 70.3516 21.8906C69.7474 21.8906 69.2344 22.1068 68.8125 22.5391C68.3906 22.9714 68.1302 23.5365 68.0312 24.2344H72.3516ZM79.7812 22.2969C79.5573 22.125 79.2344 22.0391 78.8125 22.0391C78.2656 22.0391 77.8073 22.2969 77.4375 22.8125C77.0729 23.3281 76.8906 24.0312 76.8906 24.9219V29H75.6094V21H76.8906V22.6484H76.9219C77.1042 22.0859 77.3828 21.6484 77.7578 21.3359C78.1328 21.0182 78.5521 20.8594 79.0156 20.8594C79.349 20.8594 79.6042 20.8958 79.7812 20.9688V22.2969ZM91.6719 29H85.7344V17.7969H91.4219V18.9844H87.0469V22.7109H91.0938V23.8906H87.0469V27.8125H91.6719V29ZM97.6094 18.2812C97.3594 18.1406 97.0755 18.0703 96.7578 18.0703C95.862 18.0703 95.4141 18.6354 95.4141 19.7656V21H97.2891V22.0938H95.4141V29H94.1406V22.0938H92.7734V21H94.1406V19.7031C94.1406 18.8646 94.3828 18.2031 94.8672 17.7188C95.3516 17.2292 95.9557 16.9844 96.6797 16.9844C97.0703 16.9844 97.3802 17.0312 97.6094 17.125V18.2812ZM102.625 18.2812C102.375 18.1406 102.091 18.0703 101.773 18.0703C100.878 18.0703 100.43 18.6354 100.43 19.7656V21H102.305V22.0938H100.43V29H99.1562V22.0938H97.7891V21H99.1562V19.7031C99.1562 18.8646 99.3984 18.2031 99.8828 17.7188C100.367 17.2292 100.971 16.9844 101.695 16.9844C102.086 16.9844 102.396 17.0312 102.625 17.125V18.2812ZM110.117 25.3203H104.469C104.49 26.2109 104.729 26.8984 105.188 27.3828C105.646 27.8672 106.276 28.1094 107.078 28.1094C107.979 28.1094 108.807 27.8125 109.562 27.2188V28.4219C108.859 28.9323 107.93 29.1875 106.773 29.1875C105.643 29.1875 104.755 28.8255 104.109 28.1016C103.464 27.3724 103.141 26.349 103.141 25.0312C103.141 23.7865 103.492 22.7734 104.195 21.9922C104.904 21.2057 105.781 20.8125 106.828 20.8125C107.875 20.8125 108.685 21.151 109.258 21.8281C109.831 22.5052 110.117 23.4453 110.117 24.6484V25.3203ZM108.805 24.2344C108.799 23.4948 108.62 22.9193 108.266 22.5078C107.917 22.0964 107.43 21.8906 106.805 21.8906C106.201 21.8906 105.688 22.1068 105.266 22.5391C104.844 22.9714 104.583 23.5365 104.484 24.2344H108.805ZM117.516 28.6328C116.901 29.0026 116.172 29.1875 115.328 29.1875C114.188 29.1875 113.266 28.8177 112.562 28.0781C111.865 27.3333 111.516 26.3698 111.516 25.1875C111.516 23.8698 111.893 22.8125 112.648 22.0156C113.404 21.2135 114.411 20.8125 115.672 20.8125C116.375 20.8125 116.995 20.9427 117.531 21.2031V22.5156C116.938 22.099 116.302 21.8906 115.625 21.8906C114.807 21.8906 114.135 22.1849 113.609 22.7734C113.089 23.3568 112.828 24.125 112.828 25.0781C112.828 26.0156 113.073 26.7552 113.562 27.2969C114.057 27.8385 114.719 28.1094 115.547 28.1094C116.245 28.1094 116.901 27.8776 117.516 27.4141V28.6328ZM123.164 28.9219C122.862 29.0885 122.464 29.1719 121.969 29.1719C120.568 29.1719 119.867 28.3906 119.867 26.8281V22.0938H118.492V21H119.867V19.0469L121.148 18.6328V21H123.164V22.0938H121.148V26.6016C121.148 27.138 121.24 27.5208 121.422 27.75C121.604 27.9792 121.906 28.0938 122.328 28.0938C122.651 28.0938 122.93 28.0052 123.164 27.8281V28.9219ZM124.391 28.7109V27.3359C125.089 27.8516 125.857 28.1094 126.695 28.1094C127.82 28.1094 128.383 27.7344 128.383 26.9844C128.383 26.7708 128.333 26.5911 128.234 26.4453C128.141 26.2943 128.01 26.1615 127.844 26.0469C127.682 25.9323 127.49 25.8307 127.266 25.7422C127.047 25.6484 126.81 25.5521 126.555 25.4531C126.201 25.3125 125.888 25.1719 125.617 25.0312C125.352 24.8854 125.128 24.724 124.945 24.5469C124.768 24.3646 124.633 24.1589 124.539 23.9297C124.451 23.7005 124.406 23.4323 124.406 23.125C124.406 22.75 124.492 22.4193 124.664 22.1328C124.836 21.8411 125.065 21.599 125.352 21.4062C125.638 21.2083 125.964 21.0599 126.328 20.9609C126.698 20.862 127.078 20.8125 127.469 20.8125C128.161 20.8125 128.781 20.9323 129.328 21.1719V22.4688C128.74 22.0833 128.062 21.8906 127.297 21.8906C127.057 21.8906 126.841 21.9193 126.648 21.9766C126.456 22.0286 126.289 22.1042 126.148 22.2031C126.013 22.3021 125.906 22.4219 125.828 22.5625C125.755 22.6979 125.719 22.849 125.719 23.0156C125.719 23.224 125.755 23.3984 125.828 23.5391C125.906 23.6797 126.018 23.8047 126.164 23.9141C126.31 24.0234 126.487 24.1224 126.695 24.2109C126.904 24.2995 127.141 24.3958 127.406 24.5C127.76 24.6354 128.078 24.776 128.359 24.9219C128.641 25.0625 128.88 25.224 129.078 25.4062C129.276 25.5833 129.427 25.7891 129.531 26.0234C129.641 26.2578 129.695 26.5365 129.695 26.8594C129.695 27.2552 129.607 27.599 129.43 27.8906C129.258 28.1823 129.026 28.4245 128.734 28.6172C128.443 28.8099 128.107 28.9531 127.727 29.0469C127.346 29.1406 126.948 29.1875 126.531 29.1875C125.708 29.1875 124.995 29.0286 124.391 28.7109Z" fill="#ADBAC7"/>
<path d="M4 2H146V0H4V2ZM148 4V41H150V4H148ZM146 43H4V45H146V43ZM2 41V4H0V41H2ZM4 43C2.89543 43 2 42.1046 2 41H0C0 43.2091 1.79086 45 4 45V43ZM148 41C148 42.1046 147.105 43 146 43V45C148.209 45 150 43.2091 150 41H148ZM146 2C147.105 2 148 2.89543 148 4H150C150 1.79086 148.209 0 146 0V2ZM4 0C1.79086 0 0 1.79086 0 4H2C2 2.89543 2.89543 2 4 2V0Z" fill="#444C56"/>
<defs>
<clipPath id="clip0">
<rect width="18" height="18" fill="white" transform="translate(15 13.5)"/>
</clipPath>
</defs>
</svg>
