<svg width="152" height="47" viewBox="0 0 152 47" fill="none" xmlns="http://www.w3.org/2000/svg">
<rect x="1" y="1" width="150" height="45" rx="4" fill="#22272E"/>
<g clip-path="url(#clip0_28_5009)">
<path d="M22.405 22.5475C22.33 22.315 22.2625 22.09 22.1875 21.8575C22.1125 21.625 22.045 21.4075 21.985 21.19C21.925 20.98 21.8725 20.785 21.82 20.605H21.805C21.7375 20.9275 21.655 21.25 21.55 21.5725C21.4375 21.9325 21.325 22.3075 21.205 22.6825C21.1075 23.065 20.9875 23.4175 20.875 23.7325H22.78C22.735 23.575 22.675 23.3875 22.6075 23.1925C22.54 22.99 22.4725 22.7725 22.405 22.5475ZM28.84 22.33C28.4275 22.3075 28.0375 22.525 27.8425 22.9C27.7525 23.0725 27.7 23.2525 27.6775 23.44H29.2593C29.4543 23.44 29.5968 23.44 29.6868 23.4325C29.7468 23.425 29.8068 23.41 29.8593 23.3725V23.2975C29.8563 23.1669 29.8276 23.0382 29.7747 22.9187C29.7218 22.7993 29.6458 22.6915 29.5511 22.6015C29.4563 22.5116 29.3447 22.4413 29.2227 22.3947C29.1006 22.3481 28.9706 22.3261 28.84 22.33ZM30.8125 14.725H19.1875C17.425 14.725 16 16.15 16 17.9125V29.0875C16 30.85 17.425 32.275 19.1875 32.275H30.8125C32.575 32.275 34 30.85 34 29.0875V17.9125C34 16.15 32.575 14.725 30.8125 14.725ZM25.5325 27.1083H23.965C23.9125 27.1158 23.86 27.0775 23.845 27.0258L23.23 25.2258H20.44L19.87 26.9958C19.855 27.0633 19.795 27.1083 19.7275 27.1008H18.3175C18.235 27.1008 18.2125 27.0558 18.235 26.9658L20.65 20.0425C20.6725 19.9675 20.695 19.9 20.725 19.81C20.755 19.6525 20.77 19.4875 20.77 19.3225C20.7625 19.285 20.7925 19.2475 20.83 19.24H22.7725C22.825 19.24 22.8625 19.2625 22.87 19.3L25.6075 26.9875C25.63 27.07 25.6082 27.1083 25.5325 27.1083ZM31.4208 24.115C31.405 24.2568 31.3975 24.3625 31.39 24.43C31.3825 24.4825 31.3382 24.5275 31.285 24.5275C31.24 24.5275 31.1575 24.535 31.0375 24.5433C30.9182 24.5583 30.775 24.565 30.6033 24.565C30.4308 24.565 30.25 24.535 30.0557 24.535H27.6783C27.7075 24.7675 27.7832 25 27.9107 25.2025C28.0435 25.4044 28.234 25.5615 28.4575 25.6533C28.7575 25.7808 29.0883 25.8483 29.4183 25.8408C29.6808 25.8325 29.9425 25.8108 30.1975 25.7583C30.4266 25.729 30.6511 25.6711 30.8657 25.5858C30.9032 25.5565 30.9257 25.5708 30.9257 25.6458V26.794C30.9257 26.8233 30.9182 26.854 30.91 26.8833C30.8965 26.9041 30.8789 26.922 30.8583 26.9358C30.6183 27.0408 30.3708 27.1158 30.1083 27.1608C29.755 27.2283 29.4033 27.2583 29.0433 27.2508C28.4725 27.2508 27.9932 27.1608 27.6032 26.9883C27.2363 26.8285 26.9123 26.5844 26.6575 26.2758C26.4183 25.9833 26.245 25.6533 26.14 25.2933C26.0351 24.9375 25.9823 24.5684 25.9832 24.1975C25.9832 23.7933 26.0433 23.395 26.1707 23.005C26.2907 22.63 26.4782 22.285 26.7332 21.9775C26.9808 21.6775 27.2875 21.4375 27.64 21.265C27.9932 21.0925 28.4125 21.0325 28.8925 21.0325C29.2924 21.0232 29.6894 21.1026 30.055 21.265C30.3625 21.4 30.6325 21.6025 30.8425 21.865C31.0375 22.12 31.195 22.405 31.2933 22.72C31.39 23.02 31.435 23.3275 31.435 23.635C31.435 23.815 31.4275 23.9725 31.4208 24.115Z" fill="#ADBAC7"/>
</g>
<path d="M56.1406 30H54.6875L53.5 26.8594H48.75L47.6328 30H46.1719L50.4688 18.7969H51.8281L56.1406 30ZM53.0703 25.6797L51.3125 20.9062C51.2552 20.75 51.1979 20.5 51.1406 20.1562H51.1094C51.0573 20.474 50.9974 20.724 50.9297 20.9062L49.1875 25.6797H53.0703ZM61.5781 19.2812C61.3281 19.1406 61.0443 19.0703 60.7266 19.0703C59.8307 19.0703 59.3828 19.6354 59.3828 20.7656V22H61.2578V23.0938H59.3828V30H58.1094V23.0938H56.7422V22H58.1094V20.7031C58.1094 19.8646 58.3516 19.2031 58.8359 18.7188C59.3203 18.2292 59.9245 17.9844 60.6484 17.9844C61.0391 17.9844 61.349 18.0312 61.5781 18.125V19.2812ZM66.3516 29.9219C66.0495 30.0885 65.651 30.1719 65.1562 30.1719C63.7552 30.1719 63.0547 29.3906 63.0547 27.8281V23.0938H61.6797V22H63.0547V20.0469L64.3359 19.6328V22H66.3516V23.0938H64.3359V27.6016C64.3359 28.138 64.4271 28.5208 64.6094 28.75C64.7917 28.9792 65.0938 29.0938 65.5156 29.0938C65.8385 29.0938 66.1172 29.0052 66.3516 28.8281V29.9219ZM74.4922 26.3203H68.8438C68.8646 27.2109 69.1042 27.8984 69.5625 28.3828C70.0208 28.8672 70.651 29.1094 71.4531 29.1094C72.3542 29.1094 73.1823 28.8125 73.9375 28.2188V29.4219C73.2344 29.9323 72.3047 30.1875 71.1484 30.1875C70.0182 30.1875 69.1302 29.8255 68.4844 29.1016C67.8385 28.3724 67.5156 27.349 67.5156 26.0312C67.5156 24.7865 67.8672 23.7734 68.5703 22.9922C69.2786 22.2057 70.1562 21.8125 71.2031 21.8125C72.25 21.8125 73.0599 22.151 73.6328 22.8281C74.2057 23.5052 74.4922 24.4453 74.4922 25.6484V26.3203ZM73.1797 25.2344C73.1745 24.4948 72.9948 23.9193 72.6406 23.5078C72.2917 23.0964 71.8047 22.8906 71.1797 22.8906C70.5755 22.8906 70.0625 23.1068 69.6406 23.5391C69.2188 23.9714 68.9583 24.5365 68.8594 25.2344H73.1797ZM80.6094 23.2969C80.3854 23.125 80.0625 23.0391 79.6406 23.0391C79.0938 23.0391 78.6354 23.2969 78.2656 23.8125C77.901 24.3281 77.7188 25.0312 77.7188 25.9219V30H76.4375V22H77.7188V23.6484H77.75C77.9323 23.0859 78.2109 22.6484 78.5859 22.3359C78.9609 22.0182 79.3802 21.8594 79.8438 21.8594C80.1771 21.8594 80.4323 21.8958 80.6094 21.9688V23.2969ZM92.5 30H86.5625V18.7969H92.25V19.9844H87.875V23.7109H91.9219V24.8906H87.875V28.8125H92.5V30ZM98.4375 19.2812C98.1875 19.1406 97.9036 19.0703 97.5859 19.0703C96.6901 19.0703 96.2422 19.6354 96.2422 20.7656V22H98.1172V23.0938H96.2422V30H94.9688V23.0938H93.6016V22H94.9688V20.7031C94.9688 19.8646 95.2109 19.2031 95.6953 18.7188C96.1797 18.2292 96.7839 17.9844 97.5078 17.9844C97.8984 17.9844 98.2083 18.0312 98.4375 18.125V19.2812ZM103.453 19.2812C103.203 19.1406 102.919 19.0703 102.602 19.0703C101.706 19.0703 101.258 19.6354 101.258 20.7656V22H103.133V23.0938H101.258V30H99.9844V23.0938H98.6172V22H99.9844V20.7031C99.9844 19.8646 100.227 19.2031 100.711 18.7188C101.195 18.2292 101.799 17.9844 102.523 17.9844C102.914 17.9844 103.224 18.0312 103.453 18.125V19.2812ZM110.945 26.3203H105.297C105.318 27.2109 105.557 27.8984 106.016 28.3828C106.474 28.8672 107.104 29.1094 107.906 29.1094C108.807 29.1094 109.635 28.8125 110.391 28.2188V29.4219C109.688 29.9323 108.758 30.1875 107.602 30.1875C106.471 30.1875 105.583 29.8255 104.938 29.1016C104.292 28.3724 103.969 27.349 103.969 26.0312C103.969 24.7865 104.32 23.7734 105.023 22.9922C105.732 22.2057 106.609 21.8125 107.656 21.8125C108.703 21.8125 109.513 22.151 110.086 22.8281C110.659 23.5052 110.945 24.4453 110.945 25.6484V26.3203ZM109.633 25.2344C109.628 24.4948 109.448 23.9193 109.094 23.5078C108.745 23.0964 108.258 22.8906 107.633 22.8906C107.029 22.8906 106.516 23.1068 106.094 23.5391C105.672 23.9714 105.411 24.5365 105.312 25.2344H109.633ZM118.344 29.6328C117.729 30.0026 117 30.1875 116.156 30.1875C115.016 30.1875 114.094 29.8177 113.391 29.0781C112.693 28.3333 112.344 27.3698 112.344 26.1875C112.344 24.8698 112.721 23.8125 113.477 23.0156C114.232 22.2135 115.24 21.8125 116.5 21.8125C117.203 21.8125 117.823 21.9427 118.359 22.2031V23.5156C117.766 23.099 117.13 22.8906 116.453 22.8906C115.635 22.8906 114.964 23.1849 114.438 23.7734C113.917 24.3568 113.656 25.125 113.656 26.0781C113.656 27.0156 113.901 27.7552 114.391 28.2969C114.885 28.8385 115.547 29.1094 116.375 29.1094C117.073 29.1094 117.729 28.8776 118.344 28.4141V29.6328ZM123.992 29.9219C123.69 30.0885 123.292 30.1719 122.797 30.1719C121.396 30.1719 120.695 29.3906 120.695 27.8281V23.0938H119.32V22H120.695V20.0469L121.977 19.6328V22H123.992V23.0938H121.977V27.6016C121.977 28.138 122.068 28.5208 122.25 28.75C122.432 28.9792 122.734 29.0938 123.156 29.0938C123.479 29.0938 123.758 29.0052 123.992 28.8281V29.9219ZM125.219 29.7109V28.3359C125.917 28.8516 126.685 29.1094 127.523 29.1094C128.648 29.1094 129.211 28.7344 129.211 27.9844C129.211 27.7708 129.161 27.5911 129.062 27.4453C128.969 27.2943 128.839 27.1615 128.672 27.0469C128.51 26.9323 128.318 26.8307 128.094 26.7422C127.875 26.6484 127.638 26.5521 127.383 26.4531C127.029 26.3125 126.716 26.1719 126.445 26.0312C126.18 25.8854 125.956 25.724 125.773 25.5469C125.596 25.3646 125.461 25.1589 125.367 24.9297C125.279 24.7005 125.234 24.4323 125.234 24.125C125.234 23.75 125.32 23.4193 125.492 23.1328C125.664 22.8411 125.893 22.599 126.18 22.4062C126.466 22.2083 126.792 22.0599 127.156 21.9609C127.526 21.862 127.906 21.8125 128.297 21.8125C128.99 21.8125 129.609 21.9323 130.156 22.1719V23.4688C129.568 23.0833 128.891 22.8906 128.125 22.8906C127.885 22.8906 127.669 22.9193 127.477 22.9766C127.284 23.0286 127.117 23.1042 126.977 23.2031C126.841 23.3021 126.734 23.4219 126.656 23.5625C126.583 23.6979 126.547 23.849 126.547 24.0156C126.547 24.224 126.583 24.3984 126.656 24.5391C126.734 24.6797 126.846 24.8047 126.992 24.9141C127.138 25.0234 127.315 25.1224 127.523 25.2109C127.732 25.2995 127.969 25.3958 128.234 25.5C128.589 25.6354 128.906 25.776 129.188 25.9219C129.469 26.0625 129.708 26.224 129.906 26.4062C130.104 26.5833 130.255 26.7891 130.359 27.0234C130.469 27.2578 130.523 27.5365 130.523 27.8594C130.523 28.2552 130.435 28.599 130.258 28.8906C130.086 29.1823 129.854 29.4245 129.562 29.6172C129.271 29.8099 128.935 29.9531 128.555 30.0469C128.174 30.1406 127.776 30.1875 127.359 30.1875C126.536 30.1875 125.823 30.0286 125.219 29.7109Z" fill="#ADBAC7"/>
<rect x="1" y="1" width="150" height="45" rx="4" stroke="#444C56" stroke-width="2"/>
<defs>
<clipPath id="clip0_28_5009">
<rect width="18" height="18" fill="white" transform="translate(16 14.5)"/>
</clipPath>
</defs>
</svg>
