<svg width="112" height="34" viewBox="0 0 112 34" fill="none" xmlns="http://www.w3.org/2000/svg">
<path d="M1 4C1 2.34315 2.34315 1 4 1H108C109.657 1 111 2.34315 111 4V30C111 31.6569 109.657 33 108 33H4C2.34314 33 1 31.6569 1 30V4Z" fill="#C9D1D9"/>
<g clip-path="url(#clip0)">
<path d="M23.8125 8H12.1875C10.425 8 8.99998 9.46154 8.99998 11.2692V22.7308C8.99998 24.5385 10.425 26 12.1875 26H23.8125C25.575 26 27 24.5385 27 22.7308V11.2692C27 9.46154 25.575 8 23.8125 8V8Z" fill="#00005B"/>
<path d="M15.5741 16.3015C15.4991 16.069 15.4316 15.844 15.3566 15.6115C15.2816 15.379 15.2141 15.1615 15.1541 14.944C15.0941 14.734 15.0416 14.539 14.9891 14.359H14.9741C14.9066 14.6815 14.8241 15.004 14.7191 15.3265C14.6066 15.6865 14.4941 16.0615 14.3741 16.4365C14.2766 16.819 14.1566 17.1715 14.0441 17.4865H15.9491C15.9041 17.329 15.8441 17.1415 15.7766 16.9465C15.7091 16.744 15.6416 16.5265 15.5741 16.3015ZM22.0091 16.084C21.5966 16.0615 21.2066 16.279 21.0116 16.654C20.9216 16.8265 20.8691 17.0065 20.8466 17.194H22.4283C22.6233 17.194 22.7658 17.194 22.8558 17.1865C22.9158 17.179 22.9758 17.164 23.0283 17.1265V17.0515C23.0254 16.9209 22.9967 16.7922 22.9438 16.6728C22.8909 16.5533 22.8149 16.4455 22.7201 16.3556C22.6254 16.2656 22.5138 16.1953 22.3917 16.1487C22.2697 16.1021 22.1397 16.0801 22.0091 16.084ZM18.7016 20.8623H17.1341C17.0816 20.8698 17.0291 20.8315 17.0141 20.7798L16.3991 18.9798H13.6091L13.0391 20.7498C13.0241 20.8173 12.9641 20.8623 12.8966 20.8548H11.4866C11.4041 20.8548 11.3816 20.8098 11.4041 20.7198L13.8191 13.7965C13.8416 13.7215 13.8641 13.654 13.8941 13.564C13.9241 13.4065 13.9391 13.2415 13.9391 13.0765C13.9316 13.039 13.9616 13.0015 13.9991 12.994H15.9416C15.9941 12.994 16.0316 13.0165 16.0391 13.054L18.7766 20.7415C18.7991 20.824 18.7773 20.8623 18.7016 20.8623ZM24.5898 17.869C24.5741 18.0108 24.5666 18.1165 24.5591 18.184C24.5516 18.2365 24.5073 18.2815 24.4541 18.2815C24.4091 18.2815 24.3266 18.289 24.2066 18.2973C24.0873 18.3123 23.9441 18.319 23.7723 18.319C23.5998 18.319 23.4191 18.289 23.2248 18.289H20.8473C20.8766 18.5215 20.9523 18.754 21.0798 18.9565C21.2125 19.1584 21.4031 19.3155 21.6266 19.4073C21.9266 19.5348 22.2573 19.6023 22.5873 19.5948C22.8498 19.5865 23.1116 19.5648 23.3666 19.5123C23.5957 19.483 23.8202 19.4251 24.0348 19.3398C24.0723 19.3105 24.0948 19.3248 24.0948 19.3998V20.548C24.0948 20.5773 24.0873 20.608 24.0791 20.6373C24.0656 20.6581 24.048 20.676 24.0273 20.6898C23.7873 20.7948 23.5398 20.8698 23.2773 20.9148C22.9241 20.9823 22.5723 21.0123 22.2123 21.0048C21.6416 21.0048 21.1623 20.9148 20.7723 20.7423C20.4054 20.5825 20.0814 20.3384 19.8266 20.0298C19.5873 19.7373 19.4141 19.4073 19.3091 19.0473C19.2041 18.6915 19.1513 18.3224 19.1523 17.9515C19.1523 17.5473 19.2123 17.149 19.3398 16.759C19.4598 16.384 19.6473 16.039 19.9023 15.7315C20.1498 15.4315 20.4566 15.1915 20.8091 15.019C21.1623 14.8465 21.5816 14.7865 22.0616 14.7865C22.4615 14.7772 22.8585 14.8566 23.2241 15.019C23.5316 15.154 23.8016 15.3565 24.0116 15.619C24.2066 15.874 24.3641 16.159 24.4623 16.474C24.5591 16.774 24.6041 17.0815 24.6041 17.389C24.6041 17.569 24.5966 17.7265 24.5898 17.869Z" fill="#9A9AFF"/>
</g>
<path d="M40.7012 18.7734H37.127L36.3242 21H35.1641L38.4219 12.4688H39.4062L42.6699 21H41.5156L40.7012 18.7734ZM37.4668 17.8477H40.3672L38.9141 13.8574L37.4668 17.8477ZM44.1816 21V15.498H43.1797V14.6602H44.1816V14.0098C44.1816 13.3301 44.3633 12.8047 44.7266 12.4336C45.0898 12.0625 45.6035 11.877 46.2676 11.877C46.5176 11.877 46.7656 11.9102 47.0117 11.9766L46.9531 12.8555C46.7695 12.8203 46.5742 12.8027 46.3672 12.8027C46.0156 12.8027 45.7441 12.9062 45.5527 13.1133C45.3613 13.3164 45.2656 13.6094 45.2656 13.9922V14.6602H46.6191V15.498H45.2656V21H44.1816ZM49.291 13.125V14.6602H50.4746V15.498H49.291V19.4297C49.291 19.6836 49.3438 19.875 49.4492 20.0039C49.5547 20.1289 49.7344 20.1914 49.9883 20.1914C50.1133 20.1914 50.2852 20.168 50.5039 20.1211V21C50.2188 21.0781 49.9414 21.1172 49.6719 21.1172C49.1875 21.1172 48.8223 20.9707 48.5762 20.6777C48.3301 20.3848 48.207 19.9688 48.207 19.4297V15.498H47.0527V14.6602H48.207V13.125H49.291ZM54.377 21.1172C53.5176 21.1172 52.8184 20.8359 52.2793 20.2734C51.7402 19.707 51.4707 18.9512 51.4707 18.0059V17.8066C51.4707 17.1777 51.5898 16.6172 51.8281 16.125C52.0703 15.6289 52.4062 15.2422 52.8359 14.9648C53.2695 14.6836 53.7383 14.543 54.2422 14.543C55.0664 14.543 55.707 14.8145 56.1641 15.3574C56.6211 15.9004 56.8496 16.6777 56.8496 17.6895V18.1406H52.5547C52.5703 18.7656 52.752 19.2715 53.0996 19.6582C53.4512 20.041 53.8965 20.2324 54.4355 20.2324C54.8184 20.2324 55.1426 20.1543 55.4082 19.998C55.6738 19.8418 55.9062 19.6348 56.1055 19.377L56.7676 19.8926C56.2363 20.709 55.4395 21.1172 54.377 21.1172ZM54.2422 15.4336C53.8047 15.4336 53.4375 15.5938 53.1406 15.9141C52.8438 16.2305 52.6602 16.6758 52.5898 17.25H55.7656V17.168C55.7344 16.6172 55.5859 16.1914 55.3203 15.8906C55.0547 15.5859 54.6953 15.4336 54.2422 15.4336ZM61.1738 15.6328C61.0098 15.6055 60.832 15.5918 60.6406 15.5918C59.9297 15.5918 59.4473 15.8945 59.1934 16.5V21H58.1094V14.6602H59.1641L59.1816 15.3926C59.5371 14.8262 60.041 14.543 60.6934 14.543C60.9043 14.543 61.0645 14.5703 61.1738 14.625V15.6328ZM70.1445 17.0566H66.4473V20.0801H70.7422V21H65.3223V12.4688H70.6836V13.3945H66.4473V16.1367H70.1445V17.0566ZM72.4004 21V15.498H71.3984V14.6602H72.4004V14.0098C72.4004 13.3301 72.582 12.8047 72.9453 12.4336C73.3086 12.0625 73.8223 11.877 74.4863 11.877C74.7363 11.877 74.9844 11.9102 75.2305 11.9766L75.1719 12.8555C74.9883 12.8203 74.793 12.8027 74.5859 12.8027C74.2344 12.8027 73.9629 12.9062 73.7715 13.1133C73.5801 13.3164 73.4844 13.6094 73.4844 13.9922V14.6602H74.8379V15.498H73.4844V21H72.4004ZM76.5723 21V15.498H75.5703V14.6602H76.5723V14.0098C76.5723 13.3301 76.7539 12.8047 77.1172 12.4336C77.4805 12.0625 77.9941 11.877 78.6582 11.877C78.9082 11.877 79.1562 11.9102 79.4023 11.9766L79.3438 12.8555C79.1602 12.8203 78.9648 12.8027 78.7578 12.8027C78.4062 12.8027 78.1348 12.9062 77.9434 13.1133C77.752 13.3164 77.6562 13.6094 77.6562 13.9922V14.6602H79.0098V15.498H77.6562V21H76.5723ZM82.7012 21.1172C81.8418 21.1172 81.1426 20.8359 80.6035 20.2734C80.0645 19.707 79.7949 18.9512 79.7949 18.0059V17.8066C79.7949 17.1777 79.9141 16.6172 80.1523 16.125C80.3945 15.6289 80.7305 15.2422 81.1602 14.9648C81.5938 14.6836 82.0625 14.543 82.5664 14.543C83.3906 14.543 84.0312 14.8145 84.4883 15.3574C84.9453 15.9004 85.1738 16.6777 85.1738 17.6895V18.1406H80.8789C80.8945 18.7656 81.0762 19.2715 81.4238 19.6582C81.7754 20.041 82.2207 20.2324 82.7598 20.2324C83.1426 20.2324 83.4668 20.1543 83.7324 19.998C83.998 19.8418 84.2305 19.6348 84.4297 19.377L85.0918 19.8926C84.5605 20.709 83.7637 21.1172 82.7012 21.1172ZM82.5664 15.4336C82.1289 15.4336 81.7617 15.5938 81.4648 15.9141C81.168 16.2305 80.9844 16.6758 80.9141 17.25H84.0898V17.168C84.0586 16.6172 83.9102 16.1914 83.6445 15.8906C83.3789 15.5859 83.0195 15.4336 82.5664 15.4336ZM88.9766 20.2324C89.3633 20.2324 89.7012 20.1152 89.9902 19.8809C90.2793 19.6465 90.4395 19.3535 90.4707 19.002H91.4961C91.4766 19.3652 91.3516 19.7109 91.1211 20.0391C90.8906 20.3672 90.582 20.6289 90.1953 20.8242C89.8125 21.0195 89.4062 21.1172 88.9766 21.1172C88.1133 21.1172 87.4258 20.8301 86.9141 20.2559C86.4062 19.6777 86.1523 18.8887 86.1523 17.8887V17.707C86.1523 17.0898 86.2656 16.541 86.4922 16.0605C86.7188 15.5801 87.043 15.207 87.4648 14.9414C87.8906 14.6758 88.3926 14.543 88.9707 14.543C89.6816 14.543 90.2715 14.7559 90.7402 15.1816C91.2129 15.6074 91.4648 16.1602 91.4961 16.8398H90.4707C90.4395 16.4297 90.2832 16.0938 90.002 15.832C89.7246 15.5664 89.3809 15.4336 88.9707 15.4336C88.4199 15.4336 87.9922 15.6328 87.6875 16.0312C87.3867 16.4258 87.2363 16.998 87.2363 17.748V17.9531C87.2363 18.6836 87.3867 19.2461 87.6875 19.6406C87.9883 20.0352 88.418 20.2324 88.9766 20.2324ZM94.1855 13.125V14.6602H95.3691V15.498H94.1855V19.4297C94.1855 19.6836 94.2383 19.875 94.3438 20.0039C94.4492 20.1289 94.6289 20.1914 94.8828 20.1914C95.0078 20.1914 95.1797 20.168 95.3984 20.1211V21C95.1133 21.0781 94.8359 21.1172 94.5664 21.1172C94.082 21.1172 93.7168 20.9707 93.4707 20.6777C93.2246 20.3848 93.1016 19.9688 93.1016 19.4297V15.498H91.9473V14.6602H93.1016V13.125H94.1855ZM100.332 19.3184C100.332 19.0254 100.221 18.7988 99.998 18.6387C99.7793 18.4746 99.3945 18.334 98.8438 18.2168C98.2969 18.0996 97.8613 17.959 97.5371 17.7949C97.2168 17.6309 96.9785 17.4355 96.8223 17.209C96.6699 16.9824 96.5938 16.7129 96.5938 16.4004C96.5938 15.8809 96.8125 15.4414 97.25 15.082C97.6914 14.7227 98.2539 14.543 98.9375 14.543C99.6562 14.543 100.238 14.7285 100.684 15.0996C101.133 15.4707 101.357 15.9453 101.357 16.5234H100.268C100.268 16.2266 100.141 15.9707 99.8867 15.7559C99.6367 15.541 99.3203 15.4336 98.9375 15.4336C98.543 15.4336 98.2344 15.5195 98.0117 15.6914C97.7891 15.8633 97.6777 16.0879 97.6777 16.3652C97.6777 16.627 97.7812 16.8242 97.9883 16.957C98.1953 17.0898 98.5684 17.2168 99.1074 17.3379C99.6504 17.459 100.09 17.6035 100.426 17.7715C100.762 17.9395 101.01 18.1426 101.17 18.3809C101.334 18.6152 101.416 18.9023 101.416 19.2422C101.416 19.8086 101.189 20.2637 100.736 20.6074C100.283 20.9473 99.6953 21.1172 98.9727 21.1172C98.4648 21.1172 98.0156 21.0273 97.625 20.8477C97.2344 20.668 96.9277 20.418 96.7051 20.0977C96.4863 19.7734 96.377 19.4238 96.377 19.0488H97.4609C97.4805 19.4121 97.625 19.7012 97.8945 19.916C98.168 20.127 98.5273 20.2324 98.9727 20.2324C99.3828 20.2324 99.7109 20.1504 99.957 19.9863C100.207 19.8184 100.332 19.5957 100.332 19.3184Z" fill="#22272E"/>
<path d="M4 2H108V0H4V2ZM110 4V30H112V4H110ZM108 32H4V34H108V32ZM2 30V4H0V30H2ZM4 32C2.89543 32 2 31.1046 2 30H0C0 32.2091 1.79086 34 4 34V32ZM110 30C110 31.1046 109.105 32 108 32V34C110.209 34 112 32.2091 112 30H110ZM108 2C109.105 2 110 2.89543 110 4H112C112 1.79086 110.209 0 108 0V2ZM4 0C1.79086 0 0 1.79086 0 4H2C2 2.89543 2.89543 2 4 2V0Z" fill="#30363D"/>
<defs>
<clipPath id="clip0">
<rect width="18" height="18" fill="white" transform="translate(9 8)"/>
</clipPath>
</defs>
</svg>
