<svg width="114" height="36" viewBox="0 0 114 36" fill="none" xmlns="http://www.w3.org/2000/svg">
<g filter="url(#filter0_d)">
<path d="M2 3C2 1.34315 3.34315 0 5 0H109C110.657 0 112 1.34315 112 3V29C112 30.6569 110.657 32 109 32H5C3.34314 32 2 30.6569 2 29V3Z" fill="#C9D1D9"/>
<g clip-path="url(#clip0)">
<path d="M24.8125 7H13.1875C11.425 7 9.99998 8.46154 9.99998 10.2692V21.7308C9.99998 23.5385 11.425 25 13.1875 25H24.8125C26.575 25 28 23.5385 28 21.7308V10.2692C28 8.46154 26.575 7 24.8125 7V7Z" fill="#00005B"/>
<path d="M16.5741 15.3015C16.4991 15.069 16.4316 14.844 16.3566 14.6115C16.2816 14.379 16.2141 14.1615 16.1541 13.944C16.0941 13.734 16.0416 13.539 15.9891 13.359H15.9741C15.9066 13.6815 15.8241 14.004 15.7191 14.3265C15.6066 14.6865 15.4941 15.0615 15.3741 15.4365C15.2766 15.819 15.1566 16.1715 15.0441 16.4865H16.9491C16.9041 16.329 16.8441 16.1415 16.7766 15.9465C16.7091 15.744 16.6416 15.5265 16.5741 15.3015V15.3015ZM23.0091 15.084C22.5966 15.0615 22.2066 15.279 22.0116 15.654C21.9216 15.8265 21.8691 16.0065 21.8466 16.194H23.4283C23.6233 16.194 23.7658 16.194 23.8558 16.1865C23.9158 16.179 23.9758 16.164 24.0283 16.1265V16.0515C24.0254 15.9209 23.9967 15.7922 23.9438 15.6728C23.8909 15.5533 23.8149 15.4455 23.7201 15.3556C23.6254 15.2656 23.5138 15.1953 23.3917 15.1487C23.2697 15.1021 23.1397 15.0801 23.0091 15.084V15.084ZM19.7016 19.8623H18.1341C18.0816 19.8698 18.0291 19.8315 18.0141 19.7798L17.3991 17.9798H14.6091L14.0391 19.7498C14.0241 19.8173 13.9641 19.8623 13.8966 19.8548H12.4866C12.4041 19.8548 12.3816 19.8098 12.4041 19.7198L14.8191 12.7965C14.8416 12.7215 14.8641 12.654 14.8941 12.564C14.9241 12.4065 14.9391 12.2415 14.9391 12.0765C14.9316 12.039 14.9616 12.0015 14.9991 11.994H16.9416C16.9941 11.994 17.0316 12.0165 17.0391 12.054L19.7766 19.7415C19.7991 19.824 19.7773 19.8623 19.7016 19.8623ZM25.5898 16.869C25.5741 17.0108 25.5666 17.1165 25.5591 17.184C25.5516 17.2365 25.5073 17.2815 25.4541 17.2815C25.4091 17.2815 25.3266 17.289 25.2066 17.2973C25.0873 17.3123 24.9441 17.319 24.7723 17.319C24.5998 17.319 24.4191 17.289 24.2248 17.289H21.8473C21.8766 17.5215 21.9523 17.754 22.0798 17.9565C22.2125 18.1584 22.4031 18.3155 22.6266 18.4073C22.9266 18.5348 23.2573 18.6023 23.5873 18.5948C23.8498 18.5865 24.1116 18.5648 24.3666 18.5123C24.5957 18.483 24.8202 18.4251 25.0348 18.3398C25.0723 18.3105 25.0948 18.3248 25.0948 18.3998V19.548C25.0948 19.5773 25.0873 19.608 25.0791 19.6373C25.0656 19.6581 25.048 19.676 25.0273 19.6898C24.7873 19.7948 24.5398 19.8698 24.2773 19.9148C23.9241 19.9823 23.5723 20.0123 23.2123 20.0048C22.6416 20.0048 22.1623 19.9148 21.7723 19.7423C21.4054 19.5825 21.0814 19.3384 20.8266 19.0298C20.5873 18.7373 20.4141 18.4073 20.3091 18.0473C20.2041 17.6915 20.1513 17.3224 20.1523 16.9515C20.1523 16.5473 20.2123 16.149 20.3398 15.759C20.4598 15.384 20.6473 15.039 20.9023 14.7315C21.1498 14.4315 21.4566 14.1915 21.8091 14.019C22.1623 13.8465 22.5816 13.7865 23.0616 13.7865C23.4615 13.7772 23.8585 13.8566 24.2241 14.019C24.5316 14.154 24.8016 14.3565 25.0116 14.619C25.2066 14.874 25.3641 15.159 25.4623 15.474C25.5591 15.774 25.6041 16.0815 25.6041 16.389C25.6041 16.569 25.5966 16.7265 25.5898 16.869V16.869Z" fill="#9A9AFF"/>
</g>
<path d="M41.7012 17.7734H38.127L37.3242 20H36.1641L39.4219 11.4688H40.4062L43.6699 20H42.5156L41.7012 17.7734ZM38.4668 16.8477H41.3672L39.9141 12.8574L38.4668 16.8477ZM45.1816 20V14.498H44.1797V13.6602H45.1816V13.0098C45.1816 12.3301 45.3633 11.8047 45.7266 11.4336C46.0898 11.0625 46.6035 10.877 47.2676 10.877C47.5176 10.877 47.7656 10.9102 48.0117 10.9766L47.9531 11.8555C47.7695 11.8203 47.5742 11.8027 47.3672 11.8027C47.0156 11.8027 46.7441 11.9062 46.5527 12.1133C46.3613 12.3164 46.2656 12.6094 46.2656 12.9922V13.6602H47.6191V14.498H46.2656V20H45.1816ZM50.291 12.125V13.6602H51.4746V14.498H50.291V18.4297C50.291 18.6836 50.3438 18.875 50.4492 19.0039C50.5547 19.1289 50.7344 19.1914 50.9883 19.1914C51.1133 19.1914 51.2852 19.168 51.5039 19.1211V20C51.2188 20.0781 50.9414 20.1172 50.6719 20.1172C50.1875 20.1172 49.8223 19.9707 49.5762 19.6777C49.3301 19.3848 49.207 18.9688 49.207 18.4297V14.498H48.0527V13.6602H49.207V12.125H50.291ZM55.377 20.1172C54.5176 20.1172 53.8184 19.8359 53.2793 19.2734C52.7402 18.707 52.4707 17.9512 52.4707 17.0059V16.8066C52.4707 16.1777 52.5898 15.6172 52.8281 15.125C53.0703 14.6289 53.4062 14.2422 53.8359 13.9648C54.2695 13.6836 54.7383 13.543 55.2422 13.543C56.0664 13.543 56.707 13.8145 57.1641 14.3574C57.6211 14.9004 57.8496 15.6777 57.8496 16.6895V17.1406H53.5547C53.5703 17.7656 53.752 18.2715 54.0996 18.6582C54.4512 19.041 54.8965 19.2324 55.4355 19.2324C55.8184 19.2324 56.1426 19.1543 56.4082 18.998C56.6738 18.8418 56.9062 18.6348 57.1055 18.377L57.7676 18.8926C57.2363 19.709 56.4395 20.1172 55.377 20.1172ZM55.2422 14.4336C54.8047 14.4336 54.4375 14.5938 54.1406 14.9141C53.8438 15.2305 53.6602 15.6758 53.5898 16.25H56.7656V16.168C56.7344 15.6172 56.5859 15.1914 56.3203 14.8906C56.0547 14.5859 55.6953 14.4336 55.2422 14.4336ZM62.1738 14.6328C62.0098 14.6055 61.832 14.5918 61.6406 14.5918C60.9297 14.5918 60.4473 14.8945 60.1934 15.5V20H59.1094V13.6602H60.1641L60.1816 14.3926C60.5371 13.8262 61.041 13.543 61.6934 13.543C61.9043 13.543 62.0645 13.5703 62.1738 13.625V14.6328ZM71.1445 16.0566H67.4473V19.0801H71.7422V20H66.3223V11.4688H71.6836V12.3945H67.4473V15.1367H71.1445V16.0566ZM73.4004 20V14.498H72.3984V13.6602H73.4004V13.0098C73.4004 12.3301 73.582 11.8047 73.9453 11.4336C74.3086 11.0625 74.8223 10.877 75.4863 10.877C75.7363 10.877 75.9844 10.9102 76.2305 10.9766L76.1719 11.8555C75.9883 11.8203 75.793 11.8027 75.5859 11.8027C75.2344 11.8027 74.9629 11.9062 74.7715 12.1133C74.5801 12.3164 74.4844 12.6094 74.4844 12.9922V13.6602H75.8379V14.498H74.4844V20H73.4004ZM77.5723 20V14.498H76.5703V13.6602H77.5723V13.0098C77.5723 12.3301 77.7539 11.8047 78.1172 11.4336C78.4805 11.0625 78.9941 10.877 79.6582 10.877C79.9082 10.877 80.1562 10.9102 80.4023 10.9766L80.3438 11.8555C80.1602 11.8203 79.9648 11.8027 79.7578 11.8027C79.4062 11.8027 79.1348 11.9062 78.9434 12.1133C78.752 12.3164 78.6562 12.6094 78.6562 12.9922V13.6602H80.0098V14.498H78.6562V20H77.5723ZM83.7012 20.1172C82.8418 20.1172 82.1426 19.8359 81.6035 19.2734C81.0645 18.707 80.7949 17.9512 80.7949 17.0059V16.8066C80.7949 16.1777 80.9141 15.6172 81.1523 15.125C81.3945 14.6289 81.7305 14.2422 82.1602 13.9648C82.5938 13.6836 83.0625 13.543 83.5664 13.543C84.3906 13.543 85.0312 13.8145 85.4883 14.3574C85.9453 14.9004 86.1738 15.6777 86.1738 16.6895V17.1406H81.8789C81.8945 17.7656 82.0762 18.2715 82.4238 18.6582C82.7754 19.041 83.2207 19.2324 83.7598 19.2324C84.1426 19.2324 84.4668 19.1543 84.7324 18.998C84.998 18.8418 85.2305 18.6348 85.4297 18.377L86.0918 18.8926C85.5605 19.709 84.7637 20.1172 83.7012 20.1172ZM83.5664 14.4336C83.1289 14.4336 82.7617 14.5938 82.4648 14.9141C82.168 15.2305 81.9844 15.6758 81.9141 16.25H85.0898V16.168C85.0586 15.6172 84.9102 15.1914 84.6445 14.8906C84.3789 14.5859 84.0195 14.4336 83.5664 14.4336ZM89.9766 19.2324C90.3633 19.2324 90.7012 19.1152 90.9902 18.8809C91.2793 18.6465 91.4395 18.3535 91.4707 18.002H92.4961C92.4766 18.3652 92.3516 18.7109 92.1211 19.0391C91.8906 19.3672 91.582 19.6289 91.1953 19.8242C90.8125 20.0195 90.4062 20.1172 89.9766 20.1172C89.1133 20.1172 88.4258 19.8301 87.9141 19.2559C87.4062 18.6777 87.1523 17.8887 87.1523 16.8887V16.707C87.1523 16.0898 87.2656 15.541 87.4922 15.0605C87.7188 14.5801 88.043 14.207 88.4648 13.9414C88.8906 13.6758 89.3926 13.543 89.9707 13.543C90.6816 13.543 91.2715 13.7559 91.7402 14.1816C92.2129 14.6074 92.4648 15.1602 92.4961 15.8398H91.4707C91.4395 15.4297 91.2832 15.0938 91.002 14.832C90.7246 14.5664 90.3809 14.4336 89.9707 14.4336C89.4199 14.4336 88.9922 14.6328 88.6875 15.0312C88.3867 15.4258 88.2363 15.998 88.2363 16.748V16.9531C88.2363 17.6836 88.3867 18.2461 88.6875 18.6406C88.9883 19.0352 89.418 19.2324 89.9766 19.2324ZM95.1855 12.125V13.6602H96.3691V14.498H95.1855V18.4297C95.1855 18.6836 95.2383 18.875 95.3438 19.0039C95.4492 19.1289 95.6289 19.1914 95.8828 19.1914C96.0078 19.1914 96.1797 19.168 96.3984 19.1211V20C96.1133 20.0781 95.8359 20.1172 95.5664 20.1172C95.082 20.1172 94.7168 19.9707 94.4707 19.6777C94.2246 19.3848 94.1016 18.9688 94.1016 18.4297V14.498H92.9473V13.6602H94.1016V12.125H95.1855ZM101.332 18.3184C101.332 18.0254 101.221 17.7988 100.998 17.6387C100.779 17.4746 100.395 17.334 99.8438 17.2168C99.2969 17.0996 98.8613 16.959 98.5371 16.7949C98.2168 16.6309 97.9785 16.4355 97.8223 16.209C97.6699 15.9824 97.5938 15.7129 97.5938 15.4004C97.5938 14.8809 97.8125 14.4414 98.25 14.082C98.6914 13.7227 99.2539 13.543 99.9375 13.543C100.656 13.543 101.238 13.7285 101.684 14.0996C102.133 14.4707 102.357 14.9453 102.357 15.5234H101.268C101.268 15.2266 101.141 14.9707 100.887 14.7559C100.637 14.541 100.32 14.4336 99.9375 14.4336C99.543 14.4336 99.2344 14.5195 99.0117 14.6914C98.7891 14.8633 98.6777 15.0879 98.6777 15.3652C98.6777 15.627 98.7812 15.8242 98.9883 15.957C99.1953 16.0898 99.5684 16.2168 100.107 16.3379C100.65 16.459 101.09 16.6035 101.426 16.7715C101.762 16.9395 102.01 17.1426 102.17 17.3809C102.334 17.6152 102.416 17.9023 102.416 18.2422C102.416 18.8086 102.189 19.2637 101.736 19.6074C101.283 19.9473 100.695 20.1172 99.9727 20.1172C99.4648 20.1172 99.0156 20.0273 98.625 19.8477C98.2344 19.668 97.9277 19.418 97.7051 19.0977C97.4863 18.7734 97.377 18.4238 97.377 18.0488H98.4609C98.4805 18.4121 98.625 18.7012 98.8945 18.916C99.168 19.127 99.5273 19.2324 99.9727 19.2324C100.383 19.2324 100.711 19.1504 100.957 18.9863C101.207 18.8184 101.332 18.5957 101.332 18.3184Z" fill="#22272E"/>
</g>
<defs>
<filter id="filter0_d" x="0" y="0" width="114" height="36" filterUnits="userSpaceOnUse" color-interpolation-filters="sRGB">
<feFlood flood-opacity="0" result="BackgroundImageFix"/>
<feColorMatrix in="SourceAlpha" type="matrix" values="0 0 0 0 0 0 0 0 0 0 0 0 0 0 0 0 0 0 127 0" result="hardAlpha"/>
<feOffset dy="2"/>
<feGaussianBlur stdDeviation="1"/>
<feComposite in2="hardAlpha" operator="out"/>
<feColorMatrix type="matrix" values="0 0 0 0 0 0 0 0 0 0 0 0 0 0 0 0 0 0 0.25 0"/>
<feBlend mode="normal" in2="BackgroundImageFix" result="effect1_dropShadow"/>
<feBlend mode="normal" in="SourceGraphic" in2="effect1_dropShadow" result="shape"/>
</filter>
<clipPath id="clip0">
<rect width="18" height="18" fill="white" transform="translate(10 7)"/>
</clipPath>
</defs>
</svg>
