<svg width="137" height="47" viewBox="0 0 137 47" fill="none" xmlns="http://www.w3.org/2000/svg">
<rect x="1" y="1" width="135" height="45" rx="4" fill="#22272E"/>
<path d="M19.2782 28.2548C18.5991 28.1853 17.9268 28.0599 17.2684 27.8796L17.2071 27.8644L17.2223 27.8031C17.418 27.1676 17.6638 26.5486 17.9574 25.9519L17.9867 25.8929L18.0401 25.9221C18.4828 26.1691 18.9564 26.3941 19.4284 26.5904L19.4728 26.6056L19.4666 26.6489C19.3927 27.1586 19.3497 27.6724 19.3378 28.1873V28.2548H19.2782ZM20.7317 19.1727V19.1586C20.3419 19.1648 19.9526 19.1879 19.5713 19.2323C19.6146 19.6306 19.6911 20.0198 19.7732 20.404C20.0411 19.956 20.363 19.5427 20.7317 19.1732V19.1727ZM19.3457 28.7116V28.6592L19.2934 28.6531C18.7149 28.5996 18.141 28.5035 17.5766 28.3656L17.4236 28.3302L17.5091 28.4652C18.0238 29.2428 18.6563 29.9357 19.3839 30.5189L19.5038 30.6156L19.4807 30.4666C19.3992 29.8849 19.3541 29.2988 19.3457 28.7116V28.7116ZM22.1289 15.0242C21.4286 15.265 20.7694 15.5867 20.163 15.985C20.6198 16.0677 21.0771 16.1723 21.5192 16.3073C21.7014 15.8646 21.9034 15.4461 22.1289 15.0242V15.0242ZM25.0292 14.5444C24.6833 14.5444 24.3469 14.5675 24.0099 14.6057C24.4878 14.9346 24.9411 15.2978 25.3661 15.6925L25.7267 16.0232L25.3751 16.3602C25.0779 16.644 24.7972 16.9444 24.5342 17.2602L24.519 17.2742L24.3846 17.4323C24.5955 17.4092 24.8121 17.3941 25.0286 17.3941C28.3974 17.3941 31.1346 20.125 31.1346 23.5C31.1346 26.866 28.4036 29.6059 25.0286 29.6059C23.8592 29.6059 22.7646 29.2746 21.8409 28.7059C21.3842 28.7594 20.9269 28.7796 20.4611 28.7796C20.2446 28.7796 20.0336 28.7734 19.8171 28.7656C19.8311 29.4625 19.8986 30.1741 20.0134 30.9239C21.4929 31.9283 23.2404 32.4644 25.0286 32.4623C29.9803 32.4623 33.9842 28.4522 33.9842 23.5096C33.9842 18.5579 29.9798 14.545 25.0286 14.545L25.0292 14.5444ZM23.8457 16.6594C24.024 16.4519 24.2057 16.246 24.393 16.0446C23.9756 15.6877 23.5321 15.3626 23.0661 15.0721C22.7811 15.5498 22.5323 16.0483 22.3219 16.5632C22.7263 16.7123 23.1156 16.8856 23.5082 17.0734C23.6775 16.8417 23.8069 16.7067 23.8451 16.66L23.8457 16.6594ZM17.7639 21.7742L17.7983 21.8277L17.8517 21.7894C18.2668 21.4884 18.7002 21.2134 19.1494 20.9659L19.1966 20.9519L19.1786 20.8984C19.0428 20.385 18.94 19.8635 18.8709 19.3369L18.8648 19.2784L18.8034 19.2936C18.1409 19.415 17.4895 19.5904 16.8555 19.8179L16.7942 19.8409L16.8173 19.8994C17.0808 20.5493 17.3974 21.1764 17.7639 21.7742V21.7742ZM17.6582 22.6388L17.6059 22.6731C17.1212 23.0694 16.6667 23.5013 16.2463 23.9652L16.203 24.0096L16.2463 24.0473C16.7154 24.455 17.2149 24.8264 17.7403 25.1582L17.7938 25.1965L17.823 25.1431C18.0542 24.7217 18.327 24.3083 18.6105 23.9129L18.6403 23.8746L18.6105 23.8364C18.2797 23.4708 17.9717 23.0853 17.688 22.6821L17.6582 22.6388ZM21.1733 28.2841L21.3313 28.2779L21.2115 28.1783C20.7317 27.7892 20.3165 27.3265 19.9813 26.8075V26.7934L19.8846 26.7462L19.8694 26.8311C19.8068 27.2936 19.7717 27.7595 19.7642 28.2261V28.2846H19.8255C20.0331 28.2987 20.253 28.2987 20.4606 28.2987C20.6951 28.3077 20.9325 28.2987 21.1721 28.2846L21.1733 28.2841ZM20.8751 18.3931C20.9719 17.9515 21.0917 17.515 21.2351 17.0864C20.6726 16.9283 20.0961 16.8079 19.5184 16.7264C19.4655 17.3078 19.4578 17.8925 19.4953 18.4752C19.9536 18.4241 20.4141 18.3965 20.8751 18.3925V18.3931ZM21.7358 18.361C22.1304 18.1116 22.5508 17.9055 22.9896 17.7462C22.6739 17.6035 22.3535 17.4716 22.0288 17.3507C21.9183 17.6836 21.8205 18.0206 21.7358 18.361V18.361ZM17.5766 25.6392L17.5294 25.6071C17.0675 25.3157 16.6243 24.9955 16.2024 24.6486L16.0815 24.5491L16.1057 24.7071C16.218 25.567 16.4546 26.406 16.8083 27.1979L16.8696 27.3413L16.9219 27.1979C17.0951 26.6877 17.3117 26.1837 17.5519 25.7061L17.5766 25.6392ZM18.7219 17.1398C18.1914 17.6725 17.7167 18.2648 17.3359 18.9179C17.7988 18.7829 18.2651 18.6687 18.7359 18.5866C18.7065 18.1049 18.7018 17.622 18.7219 17.1398V17.1398ZM18.9908 23.4235L18.9998 23.2682C19.0228 22.7209 19.1106 22.1877 19.2782 21.6691L19.3226 21.5189L19.1876 21.5954C18.8361 21.7973 18.4901 22.0229 18.1594 22.2636L18.1071 22.2979L18.1448 22.3514C18.3793 22.6821 18.6257 23.0044 18.8895 23.3121L18.9908 23.4235ZM19.0526 24.3409L19.0296 24.1919L18.9418 24.3269C18.6923 24.6766 18.4615 25.0394 18.2505 25.4136L18.2213 25.4659L18.2736 25.4952C18.6488 25.7061 19.0448 25.8996 19.443 26.0729L19.5864 26.1342L19.5189 25.9902C19.2858 25.4655 19.1289 24.9101 19.0532 24.3409H19.0526ZM17.3033 22.2023L17.3505 22.1641L17.3213 22.1196C17.0417 21.6667 16.7884 21.1981 16.5624 20.7162L16.4949 20.5812L16.4516 20.7314C16.188 21.544 16.0438 22.3906 16.0236 23.2446L16.0151 23.4027L16.1293 23.2885C16.4932 22.8975 16.8858 22.5342 17.3038 22.2017L17.3033 22.2023Z" fill="#ADBAC7"/>
<path d="M56.1406 30H54.6875L53.5 26.8594H48.75L47.6328 30H46.1719L50.4688 18.7969H51.8281L56.1406 30ZM53.0703 25.6797L51.3125 20.9062C51.2552 20.75 51.1979 20.5 51.1406 20.1562H51.1094C51.0573 20.474 50.9974 20.724 50.9297 20.9062L49.1875 25.6797H53.0703ZM64.2656 30H62.9844V25.4375C62.9844 23.7396 62.3646 22.8906 61.125 22.8906C60.4844 22.8906 59.9531 23.1328 59.5312 23.6172C59.1146 24.0964 58.9062 24.7031 58.9062 25.4375V30H57.625V22H58.9062V23.3281H58.9375C59.5417 22.3177 60.4167 21.8125 61.5625 21.8125C62.4375 21.8125 63.1068 22.0964 63.5703 22.6641C64.0339 23.2266 64.2656 24.0417 64.2656 25.1094V30ZM72.4141 30H71.1328V28.75H71.1016C70.5443 29.7083 69.724 30.1875 68.6406 30.1875C67.8438 30.1875 67.2188 29.9766 66.7656 29.5547C66.3177 29.1328 66.0938 28.5729 66.0938 27.875C66.0938 26.3802 66.974 25.5104 68.7344 25.2656L71.1328 24.9297C71.1328 23.5703 70.5833 22.8906 69.4844 22.8906C68.5208 22.8906 67.651 23.2188 66.875 23.875V22.5625C67.6615 22.0625 68.5677 21.8125 69.5938 21.8125C71.474 21.8125 72.4141 22.8073 72.4141 24.7969V30ZM71.1328 25.9531L69.2031 26.2188C68.6094 26.3021 68.1615 26.4505 67.8594 26.6641C67.5573 26.8724 67.4062 27.2448 67.4062 27.7812C67.4062 28.1719 67.5443 28.4922 67.8203 28.7422C68.1016 28.987 68.474 29.1094 68.9375 29.1094C69.5729 29.1094 70.0964 28.888 70.5078 28.4453C70.9245 27.9974 71.1328 27.4323 71.1328 26.75V25.9531ZM80.2812 29.6328C79.6667 30.0026 78.9375 30.1875 78.0938 30.1875C76.9531 30.1875 76.0312 29.8177 75.3281 29.0781C74.6302 28.3333 74.2812 27.3698 74.2812 26.1875C74.2812 24.8698 74.6589 23.8125 75.4141 23.0156C76.1693 22.2135 77.1771 21.8125 78.4375 21.8125C79.1406 21.8125 79.7604 21.9427 80.2969 22.2031V23.5156C79.7031 23.099 79.0677 22.8906 78.3906 22.8906C77.5729 22.8906 76.901 23.1849 76.375 23.7734C75.8542 24.3568 75.5938 25.125 75.5938 26.0781C75.5938 27.0156 75.8385 27.7552 76.3281 28.2969C76.8229 28.8385 77.4844 29.1094 78.3125 29.1094C79.0104 29.1094 79.6667 28.8776 80.2812 28.4141V29.6328ZM85.5625 30.1875C84.3802 30.1875 83.4349 29.8151 82.7266 29.0703C82.0234 28.3203 81.6719 27.3281 81.6719 26.0938C81.6719 24.75 82.0391 23.7005 82.7734 22.9453C83.5078 22.1901 84.5 21.8125 85.75 21.8125C86.9427 21.8125 87.8724 22.1797 88.5391 22.9141C89.2109 23.6484 89.5469 24.6667 89.5469 25.9688C89.5469 27.2448 89.1849 28.2682 88.4609 29.0391C87.7422 29.8047 86.776 30.1875 85.5625 30.1875ZM85.6562 22.8906C84.8333 22.8906 84.1823 23.1719 83.7031 23.7344C83.224 24.2917 82.9844 25.0625 82.9844 26.0469C82.9844 26.9948 83.2266 27.7422 83.7109 28.2891C84.1953 28.8359 84.8438 29.1094 85.6562 29.1094C86.4844 29.1094 87.1198 28.8411 87.5625 28.3047C88.0104 27.7682 88.2344 27.0052 88.2344 26.0156C88.2344 25.0156 88.0104 24.2448 87.5625 23.7031C87.1198 23.1615 86.4844 22.8906 85.6562 22.8906ZM98.2344 30H96.9531V25.4375C96.9531 23.7396 96.3333 22.8906 95.0938 22.8906C94.4531 22.8906 93.9219 23.1328 93.5 23.6172C93.0833 24.0964 92.875 24.7031 92.875 25.4375V30H91.5938V22H92.875V23.3281H92.9062C93.5104 22.3177 94.3854 21.8125 95.5312 21.8125C96.4062 21.8125 97.0755 22.0964 97.5391 22.6641C98.0026 23.2266 98.2344 24.0417 98.2344 25.1094V30ZM107.484 30H106.203V28.6406H106.172C105.578 29.6719 104.661 30.1875 103.422 30.1875C102.417 30.1875 101.612 29.8307 101.008 29.1172C100.409 28.3984 100.109 27.4219 100.109 26.1875C100.109 24.8646 100.443 23.8047 101.109 23.0078C101.776 22.2109 102.664 21.8125 103.773 21.8125C104.872 21.8125 105.672 22.2448 106.172 23.1094H106.203V18.1562H107.484V30ZM106.203 26.3828V25.2031C106.203 24.5573 105.99 24.0104 105.562 23.5625C105.135 23.1146 104.594 22.8906 103.938 22.8906C103.156 22.8906 102.542 23.1771 102.094 23.75C101.646 24.3229 101.422 25.1146 101.422 26.125C101.422 27.0469 101.635 27.776 102.062 28.3125C102.495 28.8438 103.073 29.1094 103.797 29.1094C104.51 29.1094 105.089 28.8516 105.531 28.3359C105.979 27.8203 106.203 27.1693 106.203 26.3828ZM115.805 30H114.523V28.75H114.492C113.935 29.7083 113.115 30.1875 112.031 30.1875C111.234 30.1875 110.609 29.9766 110.156 29.5547C109.708 29.1328 109.484 28.5729 109.484 27.875C109.484 26.3802 110.365 25.5104 112.125 25.2656L114.523 24.9297C114.523 23.5703 113.974 22.8906 112.875 22.8906C111.911 22.8906 111.042 23.2188 110.266 23.875V22.5625C111.052 22.0625 111.958 21.8125 112.984 21.8125C114.865 21.8125 115.805 22.8073 115.805 24.7969V30ZM114.523 25.9531L112.594 26.2188C112 26.3021 111.552 26.4505 111.25 26.6641C110.948 26.8724 110.797 27.2448 110.797 27.7812C110.797 28.1719 110.935 28.4922 111.211 28.7422C111.492 28.987 111.865 29.1094 112.328 29.1094C112.964 29.1094 113.487 28.888 113.898 28.4453C114.315 27.9974 114.523 27.4323 114.523 26.75V25.9531Z" fill="#ADBAC7"/>
<rect x="1" y="1" width="135" height="45" rx="4" stroke="#444C56" stroke-width="2"/>
</svg>
