<svg width="19" height="18" viewBox="0 0 19 18" fill="none" xmlns="http://www.w3.org/2000/svg">
<g clip-path="url(#clip0)">
<path d="M18.9955 8.99994C18.9955 6.64321 17.0144 4.7305 14.5552 4.7305C14.3332 4.7305 14.0941 4.74759 13.8722 4.78176C11.9765 5.05499 10.6957 6.4212 9.99548 7.46295C9.27823 6.4212 8.01443 5.05499 6.1188 4.78176C5.89683 4.74759 5.65773 4.7305 5.43572 4.7305C2.99359 4.7305 0.995483 6.64321 0.995483 8.99994C0.995483 11.3567 2.97654 13.2694 5.41863 13.2694C5.64064 13.2694 5.87974 13.2523 6.10172 13.2182C7.99738 12.9449 9.27823 11.5787 9.9784 10.537C10.6957 11.5787 11.9595 12.9449 13.8551 13.2182C14.0771 13.2523 14.3162 13.2694 14.5382 13.2694C17.0145 13.2865 18.9955 11.3738 18.9955 8.99994ZM5.89683 11.7324C5.74312 11.7495 5.58942 11.7666 5.43572 11.7666C3.83041 11.7666 2.51539 10.5199 2.51539 8.99994C2.51539 7.48003 3.83041 6.23336 5.43572 6.23336C5.58942 6.23336 5.74312 6.25044 5.89683 6.2675C7.68997 6.52368 8.78294 8.28269 9.15866 8.99994C8.78294 9.71724 7.68997 11.4762 5.89683 11.7324ZM10.8323 8.99994C11.208 8.29977 12.301 6.52368 14.0941 6.2675C14.2478 6.25044 14.4015 6.23336 14.5552 6.23336C16.1606 6.23336 17.4756 7.48003 17.4756 8.99994C17.4756 10.5199 16.1606 11.7666 14.5552 11.7666C14.4015 11.7666 14.2478 11.7495 14.0941 11.7324C12.301 11.4762 11.208 9.71724 10.8323 8.99994ZM4.20609 9.44397H6.87023V8.59009H4.20609V9.44397ZM14.8627 9.44397H15.7507V8.59009H14.8627V7.68496H13.9917V8.59009H13.1036V9.44397H13.9917V10.3491H14.8627V9.44397Z" fill="#00979C"/>
</g>
<defs>
<clipPath id="clip0">
<rect width="18" height="18" fill="white" transform="translate(0.995483)"/>
</clipPath>
</defs>
</svg>
