<svg width="123" height="47" viewBox="0 0 123 47" fill="none" xmlns="http://www.w3.org/2000/svg">
<rect x="1" y="1" width="121" height="45" rx="4" fill="#22272E"/>
<path d="M34 23.4999C34 21.1432 32.0189 19.2305 29.5598 19.2305C29.3378 19.2305 29.0987 19.2476 28.8767 19.2817C26.9811 19.555 25.7002 20.9212 25 21.9629C24.2827 20.9212 23.0189 19.555 21.1233 19.2817C20.9013 19.2476 20.6622 19.2305 20.4402 19.2305C17.9981 19.2305 16 21.1432 16 23.4999C16 25.8567 17.9811 27.7694 20.4231 27.7694C20.6452 27.7694 20.8843 27.7523 21.1062 27.7182C23.0019 27.4449 24.2827 26.0787 24.9829 25.037C25.7002 26.0787 26.964 27.4449 28.8596 27.7182C29.0816 27.7523 29.3207 27.7694 29.5427 27.7694C32.019 27.7865 34 25.8737 34 23.4999ZM20.9013 26.2324C20.7476 26.2495 20.5939 26.2666 20.4402 26.2666C18.8349 26.2666 17.5199 25.0199 17.5199 23.4999C17.5199 21.98 18.8349 20.7333 20.4402 20.7333C20.5939 20.7333 20.7476 20.7504 20.9013 20.7675C22.6945 21.0237 23.7875 22.7827 24.1632 23.4999C23.7875 24.2172 22.6945 25.9762 20.9013 26.2324ZM25.8368 23.4999C26.2125 22.7998 27.3055 21.0237 29.0987 20.7675C29.2524 20.7504 29.4061 20.7333 29.5598 20.7333C31.1651 20.7333 32.4801 21.98 32.4801 23.4999C32.4801 25.0199 31.1651 26.2666 29.5598 26.2666C29.4061 26.2666 29.2524 26.2495 29.0987 26.2324C27.3055 25.9762 26.2125 24.2172 25.8368 23.4999ZM19.2106 23.944H21.8748V23.0901H19.2106V23.944ZM29.8672 23.944H30.7552V23.0901H29.8672V22.1849H28.9962V23.0901H28.1082V23.944H28.9962V24.8491H29.8672V23.944Z" fill="#ADBAC7"/>
<path d="M56.1406 30H54.6875L53.5 26.8594H48.75L47.6328 30H46.1719L50.4688 18.7969H51.8281L56.1406 30ZM53.0703 25.6797L51.3125 20.9062C51.2552 20.75 51.1979 20.5 51.1406 20.1562H51.1094C51.0573 20.474 50.9974 20.724 50.9297 20.9062L49.1875 25.6797H53.0703ZM61.7969 23.2969C61.5729 23.125 61.25 23.0391 60.8281 23.0391C60.2812 23.0391 59.8229 23.2969 59.4531 23.8125C59.0885 24.3281 58.9062 25.0312 58.9062 25.9219V30H57.625V22H58.9062V23.6484H58.9375C59.1198 23.0859 59.3984 22.6484 59.7734 22.3359C60.1484 22.0182 60.5677 21.8594 61.0312 21.8594C61.3646 21.8594 61.6198 21.8958 61.7969 21.9688V23.2969ZM70.0156 30H68.7344V28.6406H68.7031C68.1094 29.6719 67.1927 30.1875 65.9531 30.1875C64.9479 30.1875 64.1432 29.8307 63.5391 29.1172C62.9401 28.3984 62.6406 27.4219 62.6406 26.1875C62.6406 24.8646 62.974 23.8047 63.6406 23.0078C64.3073 22.2109 65.1953 21.8125 66.3047 21.8125C67.4036 21.8125 68.2031 22.2448 68.7031 23.1094H68.7344V18.1562H70.0156V30ZM68.7344 26.3828V25.2031C68.7344 24.5573 68.5208 24.0104 68.0938 23.5625C67.6667 23.1146 67.125 22.8906 66.4688 22.8906C65.6875 22.8906 65.0729 23.1771 64.625 23.75C64.1771 24.3229 63.9531 25.1146 63.9531 26.125C63.9531 27.0469 64.1667 27.776 64.5938 28.3125C65.026 28.8438 65.6042 29.1094 66.3281 29.1094C67.0417 29.1094 67.6198 28.8516 68.0625 28.3359C68.5104 27.8203 68.7344 27.1693 68.7344 26.3828ZM79.0781 30H77.7969V28.7344H77.7656C77.2344 29.7031 76.4115 30.1875 75.2969 30.1875C73.3906 30.1875 72.4375 29.0521 72.4375 26.7812V22H73.7109V26.5781C73.7109 28.2656 74.3568 29.1094 75.6484 29.1094C76.2734 29.1094 76.7865 28.8802 77.1875 28.4219C77.5938 27.9583 77.7969 27.3542 77.7969 26.6094V22H79.0781V30ZM82.3281 19.9688C82.099 19.9688 81.9036 19.8906 81.7422 19.7344C81.5807 19.5781 81.5 19.3802 81.5 19.1406C81.5 18.901 81.5807 18.7031 81.7422 18.5469C81.9036 18.3854 82.099 18.3047 82.3281 18.3047C82.5625 18.3047 82.7604 18.3854 82.9219 18.5469C83.0885 18.7031 83.1719 18.901 83.1719 19.1406C83.1719 19.3698 83.0885 19.5651 82.9219 19.7266C82.7604 19.888 82.5625 19.9688 82.3281 19.9688ZM82.9531 30H81.6719V22H82.9531V30ZM92.1875 30H90.9062V25.4375C90.9062 23.7396 90.2865 22.8906 89.0469 22.8906C88.4062 22.8906 87.875 23.1328 87.4531 23.6172C87.0365 24.0964 86.8281 24.7031 86.8281 25.4375V30H85.5469V22H86.8281V23.3281H86.8594C87.4635 22.3177 88.3385 21.8125 89.4844 21.8125C90.3594 21.8125 91.0286 22.0964 91.4922 22.6641C91.9557 23.2266 92.1875 24.0417 92.1875 25.1094V30ZM97.9531 30.1875C96.7708 30.1875 95.8255 29.8151 95.1172 29.0703C94.4141 28.3203 94.0625 27.3281 94.0625 26.0938C94.0625 24.75 94.4297 23.7005 95.1641 22.9453C95.8984 22.1901 96.8906 21.8125 98.1406 21.8125C99.3333 21.8125 100.263 22.1797 100.93 22.9141C101.602 23.6484 101.938 24.6667 101.938 25.9688C101.938 27.2448 101.576 28.2682 100.852 29.0391C100.133 29.8047 99.1667 30.1875 97.9531 30.1875ZM98.0469 22.8906C97.224 22.8906 96.5729 23.1719 96.0938 23.7344C95.6146 24.2917 95.375 25.0625 95.375 26.0469C95.375 26.9948 95.6172 27.7422 96.1016 28.2891C96.5859 28.8359 97.2344 29.1094 98.0469 29.1094C98.875 29.1094 99.5104 28.8411 99.9531 28.3047C100.401 27.7682 100.625 27.0052 100.625 26.0156C100.625 25.0156 100.401 24.2448 99.9531 23.7031C99.5104 23.1615 98.875 22.8906 98.0469 22.8906Z" fill="#ADBAC7"/>
<rect x="1" y="1" width="121" height="45" rx="4" stroke="#444C56" stroke-width="2"/>
</svg>
