<svg width="88" height="36" viewBox="0 0 88 36" fill="none" xmlns="http://www.w3.org/2000/svg">
<g filter="url(#filter0_d)">
<path d="M2 3C2 1.34315 3.34315 0 5 0H83C84.6569 0 86 1.34315 86 3V29C86 30.6569 84.6569 32 83 32H5C3.34314 32 2 30.6569 2 29V3Z" fill="#C9D1D9"/>
<path d="M28 15.9999C28 13.6432 26.0189 11.7305 23.5598 11.7305C23.3378 11.7305 23.0987 11.7476 22.8767 11.7817C20.9811 12.055 19.7002 13.4212 19 14.4629C18.2827 13.4212 17.0189 12.055 15.1233 11.7817C14.9013 11.7476 14.6622 11.7305 14.4402 11.7305C11.9981 11.7305 10 13.6432 10 15.9999C10 18.3567 11.9811 20.2694 14.4231 20.2694C14.6452 20.2694 14.8843 20.2523 15.1062 20.2182C17.0019 19.9449 18.2827 18.5787 18.9829 17.537C19.7002 18.5787 20.964 19.9449 22.8596 20.2182C23.0816 20.2523 23.3207 20.2694 23.5427 20.2694C26.019 20.2865 28 18.3737 28 15.9999ZM14.9013 18.7324C14.7476 18.7495 14.5939 18.7666 14.4402 18.7666C12.8349 18.7666 11.5199 17.5199 11.5199 15.9999C11.5199 14.48 12.8349 13.2333 14.4402 13.2333C14.5939 13.2333 14.7476 13.2504 14.9013 13.2675C16.6945 13.5237 17.7875 15.2827 18.1632 15.9999C17.7875 16.7172 16.6945 18.4762 14.9013 18.7324ZM19.8368 15.9999C20.2125 15.2998 21.3055 13.5237 23.0987 13.2675C23.2524 13.2504 23.4061 13.2333 23.5598 13.2333C25.1651 13.2333 26.4801 14.48 26.4801 15.9999C26.4801 17.5199 25.1651 18.7666 23.5598 18.7666C23.4061 18.7666 23.2524 18.7495 23.0987 18.7324C21.3055 18.4762 20.2125 16.7172 19.8368 15.9999ZM13.2106 16.444H15.8748V15.5901H13.2106V16.444ZM23.8672 16.444H24.7552V15.5901H23.8672V14.6849H22.9962V15.5901H22.1082V16.444H22.9962V17.3491H23.8672V16.444V16.444Z" fill="#00979C"/>
<path d="M41.7012 17.7734H38.127L37.3242 20H36.1641L39.4219 11.4688H40.4062L43.6699 20H42.5156L41.7012 17.7734ZM38.4668 16.8477H41.3672L39.9141 12.8574L38.4668 16.8477ZM47.7129 14.6328C47.5488 14.6055 47.3711 14.5918 47.1797 14.5918C46.4688 14.5918 45.9863 14.8945 45.7324 15.5V20H44.6484V13.6602H45.7031L45.7207 14.3926C46.0762 13.8262 46.5801 13.543 47.2324 13.543C47.4434 13.543 47.6035 13.5703 47.7129 13.625V14.6328ZM48.334 16.7773C48.334 15.8047 48.5645 15.0234 49.0254 14.4336C49.4863 13.8398 50.0898 13.543 50.8359 13.543C51.5781 13.543 52.166 13.7969 52.5996 14.3047V11H53.6836V20H52.6875L52.6348 19.3203C52.2012 19.8516 51.5977 20.1172 50.8242 20.1172C50.0898 20.1172 49.4902 19.8164 49.0254 19.2148C48.5645 18.6133 48.334 17.8281 48.334 16.8594V16.7773ZM49.418 16.9004C49.418 17.6191 49.5664 18.1816 49.8633 18.5879C50.1602 18.9941 50.5703 19.1973 51.0938 19.1973C51.7812 19.1973 52.2832 18.8887 52.5996 18.2715V15.3594C52.2754 14.7617 51.7773 14.4629 51.1055 14.4629C50.5742 14.4629 50.1602 14.668 49.8633 15.0781C49.5664 15.4883 49.418 16.0957 49.418 16.9004ZM59.2852 19.373C58.8633 19.8691 58.2441 20.1172 57.4277 20.1172C56.752 20.1172 56.2363 19.9219 55.8809 19.5312C55.5293 19.1367 55.3516 18.5547 55.3477 17.7852V13.6602H56.4316V17.7559C56.4316 18.7168 56.8223 19.1973 57.6035 19.1973C58.4316 19.1973 58.9824 18.8887 59.2559 18.2715V13.6602H60.3398V20H59.3086L59.2852 19.373ZM63.1699 20H62.0859V13.6602H63.1699V20ZM61.998 11.9785C61.998 11.8027 62.0508 11.6543 62.1562 11.5332C62.2656 11.4121 62.4258 11.3516 62.6367 11.3516C62.8477 11.3516 63.0078 11.4121 63.1172 11.5332C63.2266 11.6543 63.2812 11.8027 63.2812 11.9785C63.2812 12.1543 63.2266 12.3008 63.1172 12.418C63.0078 12.5352 62.8477 12.5938 62.6367 12.5938C62.4258 12.5938 62.2656 12.5352 62.1562 12.418C62.0508 12.3008 61.998 12.1543 61.998 11.9785ZM65.9355 13.6602L65.9707 14.457C66.4551 13.8477 67.0879 13.543 67.8691 13.543C69.209 13.543 69.8848 14.2988 69.8965 15.8105V20H68.8125V15.8047C68.8086 15.3477 68.7031 15.0098 68.4961 14.791C68.293 14.5723 67.9746 14.4629 67.541 14.4629C67.1895 14.4629 66.8809 14.5566 66.6152 14.7441C66.3496 14.9316 66.1426 15.1777 65.9941 15.4824V20H64.9102V13.6602H65.9355ZM71.2441 16.7715C71.2441 16.1504 71.3652 15.5918 71.6074 15.0957C71.8535 14.5996 72.1934 14.2168 72.627 13.9473C73.0645 13.6777 73.5625 13.543 74.1211 13.543C74.9844 13.543 75.6816 13.8418 76.2129 14.4395C76.748 15.0371 77.0156 15.832 77.0156 16.8242V16.9004C77.0156 17.5176 76.8965 18.0723 76.6582 18.5645C76.4238 19.0527 76.0859 19.4336 75.6445 19.707C75.207 19.9805 74.7031 20.1172 74.1328 20.1172C73.2734 20.1172 72.5762 19.8184 72.041 19.2207C71.5098 18.623 71.2441 17.832 71.2441 16.8477V16.7715ZM72.334 16.9004C72.334 17.6035 72.4961 18.168 72.8203 18.5938C73.1484 19.0195 73.5859 19.2324 74.1328 19.2324C74.6836 19.2324 75.1211 19.0176 75.4453 18.5879C75.7695 18.1543 75.9316 17.5488 75.9316 16.7715C75.9316 16.0762 75.7656 15.5137 75.4336 15.084C75.1055 14.6504 74.668 14.4336 74.1211 14.4336C73.5859 14.4336 73.1543 14.6465 72.8262 15.0723C72.498 15.498 72.334 16.1074 72.334 16.9004Z" fill="#22272E"/>
</g>
<defs>
<filter id="filter0_d" x="0" y="0" width="88" height="36" filterUnits="userSpaceOnUse" color-interpolation-filters="sRGB">
<feFlood flood-opacity="0" result="BackgroundImageFix"/>
<feColorMatrix in="SourceAlpha" type="matrix" values="0 0 0 0 0 0 0 0 0 0 0 0 0 0 0 0 0 0 127 0" result="hardAlpha"/>
<feOffset dy="2"/>
<feGaussianBlur stdDeviation="1"/>
<feComposite in2="hardAlpha" operator="out"/>
<feColorMatrix type="matrix" values="0 0 0 0 0 0 0 0 0 0 0 0 0 0 0 0 0 0 0.25 0"/>
<feBlend mode="normal" in2="BackgroundImageFix" result="effect1_dropShadow"/>
<feBlend mode="normal" in="SourceGraphic" in2="effect1_dropShadow" result="shape"/>
</filter>
</defs>
</svg>
