<svg xmlns="http://www.w3.org/2000/svg" width="153" height="56" fill="none"><rect width="135" height="48" x="9" y="4" fill="#E8EAF6" rx="4"/><path fill="#00979C" d="M56 28c0-4.19-3.522-7.59-7.894-7.59-.394 0-.82.03-1.214.09-3.37.487-5.647 2.915-6.892 4.767-1.275-1.852-3.522-4.28-6.892-4.766a8.164 8.164 0 0 0-1.214-.091C27.552 20.41 24 23.81 24 28c0 4.19 3.522 7.59 7.863 7.59.395 0 .82-.03 1.215-.091 3.37-.486 5.647-2.915 6.892-4.767 1.275 1.852 3.522 4.281 6.892 4.767.394.06.82.091 1.214.091C52.478 35.62 56 32.22 56 28Zm-23.286 4.858c-.274.03-.547.06-.82.06-2.854 0-5.192-2.216-5.192-4.918s2.338-4.919 5.192-4.919c.273 0 .546.03.82.061 3.187.456 5.13 3.583 5.798 4.858-.668 1.275-2.61 4.402-5.798 4.858ZM41.488 28c.668-1.245 2.61-4.402 5.798-4.858.274-.03.547-.06.82-.06 2.854 0 5.192 2.216 5.192 4.918s-2.338 4.918-5.192 4.918c-.273 0-.546-.03-.82-.06-3.187-.456-5.13-3.583-5.798-4.858Zm-11.78.79h4.736V27.27h-4.736v1.518Zm18.945 0h1.578V27.27h-1.578v-1.609h-1.549v1.61h-1.578v1.517h1.578v1.61h1.549v-1.61Z"/><path fill="#000" d="M78.14 34.5h-1.453L75.5 31.36h-4.75l-1.117 3.14h-1.461l4.297-11.203h1.36L78.14 34.5Zm-3.07-4.32-1.757-4.774a4.568 4.568 0 0 1-.172-.75h-.032a4.183 4.183 0 0 1-.18.75l-1.742 4.774h3.883Zm8.727-2.383c-.224-.172-.547-.258-.969-.258-.547 0-1.005.258-1.375.773-.365.516-.547 1.22-.547 2.11V34.5h-1.281v-8h1.281v1.648h.031c.183-.562.461-1 .836-1.312a1.897 1.897 0 0 1 1.258-.477c.334 0 .589.037.766.11v1.328Zm8.219 6.703h-1.282v-1.36h-.03c-.595 1.032-1.511 1.547-2.75 1.547-1.006 0-1.81-.356-2.415-1.07-.599-.719-.898-1.695-.898-2.93 0-1.322.333-2.382 1-3.18.666-.796 1.554-1.195 2.664-1.195 1.099 0 1.898.433 2.398 1.297h.031v-4.953h1.282V34.5Zm-1.282-3.617v-1.18c0-.646-.213-1.193-.64-1.64-.427-.448-.969-.672-1.625-.672-.781 0-1.396.286-1.844.859-.448.573-.672 1.365-.672 2.375 0 .922.214 1.651.64 2.188.433.53 1.011.796 1.735.796.714 0 1.292-.257 1.734-.773.448-.516.672-1.167.672-1.953Zm10.344 3.617h-1.281v-1.266h-.031c-.532.97-1.355 1.453-2.47 1.453-1.905 0-2.859-1.135-2.859-3.406V26.5h1.274v4.578c0 1.688.646 2.531 1.937 2.531.625 0 1.139-.229 1.54-.687.406-.464.609-1.068.609-1.813V26.5h1.281v8Zm3.25-10.031a.813.813 0 0 1-.828-.828c0-.24.081-.438.242-.594a.8.8 0 0 1 .586-.242.81.81 0 0 1 .594.242c.167.156.25.354.25.594 0 .229-.083.424-.25.586a.81.81 0 0 1-.594.242Zm.625 10.031h-1.281v-8h1.281v8Zm9.235 0h-1.282v-4.563c0-1.697-.62-2.546-1.859-2.546-.641 0-1.172.242-1.594.726-.417.48-.625 1.086-.625 1.82V34.5h-1.281v-8h1.281v1.328h.031c.605-1.01 1.48-1.515 2.625-1.515.875 0 1.545.283 2.008.851.464.563.696 1.378.696 2.445V34.5Zm5.765.188c-1.182 0-2.127-.373-2.836-1.118-.703-.75-1.055-1.742-1.055-2.976 0-1.344.368-2.393 1.102-3.149.734-.755 1.727-1.133 2.977-1.133 1.192 0 2.122.368 2.789 1.102.672.734 1.008 1.753 1.008 3.055 0 1.276-.362 2.3-1.086 3.07-.719.766-1.685 1.148-2.899 1.148Zm.094-7.297c-.823 0-1.474.28-1.953.843-.479.558-.719 1.328-.719 2.313 0 .948.242 1.695.727 2.242.484.547 1.132.82 1.945.82.828 0 1.463-.268 1.906-.804.448-.537.672-1.3.672-2.29 0-1-.224-1.77-.672-2.312-.443-.541-1.078-.812-1.906-.812Z"/><rect width="135" height="48" x="9" y="4" stroke="#3F51B5" stroke-width="2" rx="4"/></svg>