<svg width="102" height="39" viewBox="0 0 102 39" fill="none" xmlns="http://www.w3.org/2000/svg">
<path d="M1 4C1 2.34315 2.34315 1 4 1H98C99.6569 1 101 2.34315 101 4V35C101 36.6569 99.6569 38 98 38H4C2.34314 38 1 36.6569 1 35V4Z" fill="#22272E"/>
<path d="M29 19.4999C29 17.1432 27.0189 15.2305 24.5598 15.2305C24.3378 15.2305 24.0987 15.2476 23.8767 15.2817C21.9811 15.555 20.7002 16.9212 20 17.9629C19.2827 16.9212 18.0189 15.555 16.1233 15.2817C15.9013 15.2476 15.6622 15.2305 15.4402 15.2305C12.9981 15.2305 11 17.1432 11 19.4999C11 21.8567 12.9811 23.7694 15.4231 23.7694C15.6452 23.7694 15.8843 23.7523 16.1062 23.7182C18.0019 23.4449 19.2827 22.0787 19.9829 21.037C20.7002 22.0787 21.964 23.4449 23.8596 23.7182C24.0816 23.7523 24.3207 23.7694 24.5427 23.7694C27.019 23.7865 29 21.8737 29 19.4999ZM15.9013 22.2324C15.7476 22.2495 15.5939 22.2666 15.4402 22.2666C13.8349 22.2666 12.5199 21.0199 12.5199 19.4999C12.5199 17.98 13.8349 16.7333 15.4402 16.7333C15.5939 16.7333 15.7476 16.7504 15.9013 16.7675C17.6945 17.0237 18.7875 18.7827 19.1632 19.4999C18.7875 20.2172 17.6945 21.9762 15.9013 22.2324ZM20.8368 19.4999C21.2125 18.7998 22.3055 17.0237 24.0987 16.7675C24.2524 16.7504 24.4061 16.7333 24.5598 16.7333C26.1651 16.7333 27.4801 17.98 27.4801 19.4999C27.4801 21.0199 26.1651 22.2666 24.5598 22.2666C24.4061 22.2666 24.2524 22.2495 24.0987 22.2324C22.3055 21.9762 21.2125 20.2172 20.8368 19.4999ZM14.2106 19.944H16.8748V19.0901H14.2106V19.944ZM24.8672 19.944H25.7552V19.0901H24.8672V18.1849H23.9962V19.0901H23.1082V19.944H23.9962V20.8491H24.8672V19.944V19.944Z" fill="#ADBAC7"/>
<path d="M49.873 25H48.6016L47.5625 22.252H43.4062L42.4287 25H41.1504L44.9102 15.1973H46.0996L49.873 25ZM47.1865 21.2197L45.6484 17.043C45.5983 16.9062 45.5482 16.6875 45.498 16.3867H45.4707C45.4251 16.6647 45.3727 16.8835 45.3135 17.043L43.7891 21.2197H47.1865ZM54.8223 19.1348C54.6263 18.9844 54.3438 18.9092 53.9746 18.9092C53.4961 18.9092 53.0951 19.1348 52.7715 19.5859C52.4525 20.0371 52.293 20.6523 52.293 21.4316V25H51.1719V18H52.293V19.4424H52.3203C52.4798 18.9502 52.7236 18.5674 53.0518 18.2939C53.3799 18.016 53.7467 17.877 54.1523 17.877C54.444 17.877 54.6673 17.9089 54.8223 17.9727V19.1348ZM61.8223 25H60.7012V23.8105H60.6738C60.1543 24.7129 59.3522 25.1641 58.2676 25.1641C57.388 25.1641 56.6839 24.8519 56.1553 24.2275C55.6312 23.5986 55.3691 22.7441 55.3691 21.6641C55.3691 20.5065 55.6608 19.5791 56.2441 18.8818C56.8275 18.1846 57.6045 17.8359 58.5752 17.8359C59.5368 17.8359 60.2363 18.2142 60.6738 18.9707H60.7012V14.6367H61.8223V25ZM60.7012 21.835V20.8027C60.7012 20.2376 60.5143 19.7591 60.1406 19.3672C59.7669 18.9753 59.293 18.7793 58.7188 18.7793C58.0352 18.7793 57.4974 19.0299 57.1055 19.5312C56.7135 20.0326 56.5176 20.7253 56.5176 21.6094C56.5176 22.416 56.7044 23.054 57.0781 23.5234C57.4564 23.9883 57.9622 24.2207 58.5957 24.2207C59.2201 24.2207 59.7259 23.9951 60.1133 23.5439C60.5052 23.0928 60.7012 22.5231 60.7012 21.835ZM69.752 25H68.6309V23.8926H68.6035C68.1387 24.7402 67.4186 25.1641 66.4434 25.1641C64.7754 25.1641 63.9414 24.1706 63.9414 22.1836V18H65.0557V22.0059C65.0557 23.4824 65.6208 24.2207 66.751 24.2207C67.2979 24.2207 67.7467 24.0202 68.0977 23.6191C68.4531 23.2135 68.6309 22.6849 68.6309 22.0332V18H69.752V25ZM72.5957 16.2227C72.3952 16.2227 72.2243 16.1543 72.083 16.0176C71.9417 15.8809 71.8711 15.7077 71.8711 15.498C71.8711 15.2884 71.9417 15.1152 72.083 14.9785C72.2243 14.8372 72.3952 14.7666 72.5957 14.7666C72.8008 14.7666 72.974 14.8372 73.1152 14.9785C73.2611 15.1152 73.334 15.2884 73.334 15.498C73.334 15.6986 73.2611 15.8695 73.1152 16.0107C72.974 16.152 72.8008 16.2227 72.5957 16.2227ZM73.1426 25H72.0215V18H73.1426V25ZM81.2227 25H80.1016V21.0078C80.1016 19.5221 79.5592 18.7793 78.4746 18.7793C77.9141 18.7793 77.4492 18.9912 77.0801 19.415C76.7155 19.8343 76.5332 20.3652 76.5332 21.0078V25H75.4121V18H76.5332V19.1621H76.5605C77.0892 18.278 77.8548 17.8359 78.8574 17.8359C79.623 17.8359 80.2087 18.0843 80.6143 18.5811C81.0199 19.0732 81.2227 19.7865 81.2227 20.7207V25ZM86.2676 25.1641C85.2331 25.1641 84.4059 24.8382 83.7861 24.1865C83.1709 23.5303 82.8633 22.6621 82.8633 21.582C82.8633 20.4062 83.1846 19.488 83.8271 18.8271C84.4697 18.1663 85.3379 17.8359 86.4316 17.8359C87.4753 17.8359 88.2887 18.1572 88.8721 18.7998C89.46 19.4424 89.7539 20.3333 89.7539 21.4727C89.7539 22.5892 89.4372 23.4847 88.8037 24.1592C88.1748 24.8291 87.3294 25.1641 86.2676 25.1641ZM86.3496 18.7793C85.6296 18.7793 85.0599 19.0254 84.6406 19.5176C84.2214 20.0052 84.0117 20.6797 84.0117 21.541C84.0117 22.3704 84.2236 23.0244 84.6475 23.5029C85.0713 23.9814 85.6387 24.2207 86.3496 24.2207C87.0742 24.2207 87.6302 23.986 88.0176 23.5166C88.4095 23.0472 88.6055 22.3796 88.6055 21.5137C88.6055 20.6387 88.4095 19.9642 88.0176 19.4902C87.6302 19.0163 87.0742 18.7793 86.3496 18.7793Z" fill="#ADBAC7"/>
<path d="M4 2H98V0H4V2ZM100 4V35H102V4H100ZM98 37H4V39H98V37ZM2 35V4H0V35H2ZM4 37C2.89543 37 2 36.1046 2 35H0C0 37.2091 1.79086 39 4 39V37ZM100 35C100 36.1046 99.1046 37 98 37V39C100.209 39 102 37.2091 102 35H100ZM98 2C99.1046 2 100 2.89543 100 4H102C102 1.79086 100.209 0 98 0V2ZM4 0C1.79086 0 0 1.79086 0 4H2C2 2.89543 2.89543 2 4 2V0Z" fill="#444C56"/>
</svg>
