<svg width="86" height="34" viewBox="0 0 86 34" fill="none" xmlns="http://www.w3.org/2000/svg">
<path d="M1 4C1 2.34315 2.34315 1 4 1H82C83.6569 1 85 2.34315 85 4V30C85 31.6569 83.6569 33 82 33H4C2.34314 33 1 31.6569 1 30V4Z" fill="#C9D1D9"/>
<path d="M27 16.9999C27 14.6432 25.0189 12.7305 22.5598 12.7305C22.3378 12.7305 22.0987 12.7476 21.8767 12.7817C19.9811 13.055 18.7002 14.4212 18 15.4629C17.2827 14.4212 16.0189 13.055 14.1233 12.7817C13.9013 12.7476 13.6622 12.7305 13.4402 12.7305C10.9981 12.7305 9 14.6432 9 16.9999C9 19.3567 10.9811 21.2694 13.4231 21.2694C13.6452 21.2694 13.8843 21.2523 14.1062 21.2182C16.0019 20.9449 17.2827 19.5787 17.9829 18.537C18.7002 19.5787 19.964 20.9449 21.8596 21.2182C22.0816 21.2523 22.3207 21.2694 22.5427 21.2694C25.019 21.2865 27 19.3737 27 16.9999ZM13.9013 19.7324C13.7476 19.7495 13.5939 19.7666 13.4402 19.7666C11.8349 19.7666 10.5199 18.5199 10.5199 16.9999C10.5199 15.48 11.8349 14.2333 13.4402 14.2333C13.5939 14.2333 13.7476 14.2504 13.9013 14.2675C15.6945 14.5237 16.7875 16.2827 17.1632 16.9999C16.7875 17.7172 15.6945 19.4762 13.9013 19.7324ZM18.8368 16.9999C19.2125 16.2998 20.3055 14.5237 22.0987 14.2675C22.2524 14.2504 22.4061 14.2333 22.5598 14.2333C24.1651 14.2333 25.4801 15.48 25.4801 16.9999C25.4801 18.5199 24.1651 19.7666 22.5598 19.7666C22.4061 19.7666 22.2524 19.7495 22.0987 19.7324C20.3055 19.4762 19.2125 17.7172 18.8368 16.9999ZM12.2106 17.444H14.8748V16.5901H12.2106V17.444ZM22.8672 17.444H23.7552V16.5901H22.8672V15.6849H21.9962V16.5901H21.1082V17.444H21.9962V18.3491H22.8672V17.444Z" fill="#00979C"/>
<path d="M40.7012 18.7734H37.127L36.3242 21H35.1641L38.4219 12.4688H39.4062L42.6699 21H41.5156L40.7012 18.7734ZM37.4668 17.8477H40.3672L38.9141 13.8574L37.4668 17.8477ZM46.7129 15.6328C46.5488 15.6055 46.3711 15.5918 46.1797 15.5918C45.4688 15.5918 44.9863 15.8945 44.7324 16.5V21H43.6484V14.6602H44.7031L44.7207 15.3926C45.0762 14.8262 45.5801 14.543 46.2324 14.543C46.4434 14.543 46.6035 14.5703 46.7129 14.625V15.6328ZM47.334 17.7773C47.334 16.8047 47.5645 16.0234 48.0254 15.4336C48.4863 14.8398 49.0898 14.543 49.8359 14.543C50.5781 14.543 51.166 14.7969 51.5996 15.3047V12H52.6836V21H51.6875L51.6348 20.3203C51.2012 20.8516 50.5977 21.1172 49.8242 21.1172C49.0898 21.1172 48.4902 20.8164 48.0254 20.2148C47.5645 19.6133 47.334 18.8281 47.334 17.8594V17.7773ZM48.418 17.9004C48.418 18.6191 48.5664 19.1816 48.8633 19.5879C49.1602 19.9941 49.5703 20.1973 50.0938 20.1973C50.7812 20.1973 51.2832 19.8887 51.5996 19.2715V16.3594C51.2754 15.7617 50.7773 15.4629 50.1055 15.4629C49.5742 15.4629 49.1602 15.668 48.8633 16.0781C48.5664 16.4883 48.418 17.0957 48.418 17.9004ZM58.2852 20.373C57.8633 20.8691 57.2441 21.1172 56.4277 21.1172C55.752 21.1172 55.2363 20.9219 54.8809 20.5312C54.5293 20.1367 54.3516 19.5547 54.3477 18.7852V14.6602H55.4316V18.7559C55.4316 19.7168 55.8223 20.1973 56.6035 20.1973C57.4316 20.1973 57.9824 19.8887 58.2559 19.2715V14.6602H59.3398V21H58.3086L58.2852 20.373ZM62.1699 21H61.0859V14.6602H62.1699V21ZM60.998 12.9785C60.998 12.8027 61.0508 12.6543 61.1562 12.5332C61.2656 12.4121 61.4258 12.3516 61.6367 12.3516C61.8477 12.3516 62.0078 12.4121 62.1172 12.5332C62.2266 12.6543 62.2812 12.8027 62.2812 12.9785C62.2812 13.1543 62.2266 13.3008 62.1172 13.418C62.0078 13.5352 61.8477 13.5938 61.6367 13.5938C61.4258 13.5938 61.2656 13.5352 61.1562 13.418C61.0508 13.3008 60.998 13.1543 60.998 12.9785ZM64.9355 14.6602L64.9707 15.457C65.4551 14.8477 66.0879 14.543 66.8691 14.543C68.209 14.543 68.8848 15.2988 68.8965 16.8105V21H67.8125V16.8047C67.8086 16.3477 67.7031 16.0098 67.4961 15.791C67.293 15.5723 66.9746 15.4629 66.541 15.4629C66.1895 15.4629 65.8809 15.5566 65.6152 15.7441C65.3496 15.9316 65.1426 16.1777 64.9941 16.4824V21H63.9102V14.6602H64.9355ZM70.2441 17.7715C70.2441 17.1504 70.3652 16.5918 70.6074 16.0957C70.8535 15.5996 71.1934 15.2168 71.627 14.9473C72.0645 14.6777 72.5625 14.543 73.1211 14.543C73.9844 14.543 74.6816 14.8418 75.2129 15.4395C75.748 16.0371 76.0156 16.832 76.0156 17.8242V17.9004C76.0156 18.5176 75.8965 19.0723 75.6582 19.5645C75.4238 20.0527 75.0859 20.4336 74.6445 20.707C74.207 20.9805 73.7031 21.1172 73.1328 21.1172C72.2734 21.1172 71.5762 20.8184 71.041 20.2207C70.5098 19.623 70.2441 18.832 70.2441 17.8477V17.7715ZM71.334 17.9004C71.334 18.6035 71.4961 19.168 71.8203 19.5938C72.1484 20.0195 72.5859 20.2324 73.1328 20.2324C73.6836 20.2324 74.1211 20.0176 74.4453 19.5879C74.7695 19.1543 74.9316 18.5488 74.9316 17.7715C74.9316 17.0762 74.7656 16.5137 74.4336 16.084C74.1055 15.6504 73.668 15.4336 73.1211 15.4336C72.5859 15.4336 72.1543 15.6465 71.8262 16.0723C71.498 16.498 71.334 17.1074 71.334 17.9004Z" fill="#22272E"/>
<path d="M4 2H82V0H4V2ZM84 4V30H86V4H84ZM82 32H4V34H82V32ZM2 30V4H0V30H2ZM4 32C2.89543 32 2 31.1046 2 30H0C0 32.2091 1.79086 34 4 34V32ZM84 30C84 31.1046 83.1046 32 82 32V34C84.2091 34 86 32.2091 86 30H84ZM82 2C83.1046 2 84 2.89543 84 4H86C86 1.79086 84.2091 0 82 0V2ZM4 0C1.79086 0 0 1.79086 0 4H2C2 2.89543 2.89543 2 4 2V0Z" fill="#30363D"/>
</svg>
