<svg width="79" height="28" viewBox="0 0 79 28" fill="none" xmlns="http://www.w3.org/2000/svg">
<g filter="url(#filter0_d)">
<path d="M2 5C2 2.23858 4.23858 0 7 0H72C74.7614 0 77 2.23858 77 5V19C77 21.7614 74.7614 24 72 24H7C4.23858 24 2 21.7614 2 19V5Z" fill="white"/>
<path d="M25 11.9999C25 9.64319 23.0189 7.73048 20.5598 7.73048C20.3378 7.73048 20.0987 7.74757 19.8767 7.78174C17.9811 8.05498 16.7002 9.42118 16 10.4629C15.2827 9.42118 14.0189 8.05498 12.1233 7.78174C11.9013 7.74757 11.6622 7.73048 11.4402 7.73048C8.99811 7.73048 7 9.64319 7 11.9999C7 14.3567 8.98105 16.2694 11.4231 16.2694C11.6452 16.2694 11.8843 16.2523 12.1062 16.2182C14.0019 15.9449 15.2827 14.5787 15.9829 13.537C16.7002 14.5787 17.964 15.9449 19.8596 16.2182C20.0816 16.2523 20.3207 16.2694 20.5427 16.2694C23.019 16.2865 25 14.3737 25 11.9999ZM11.9013 14.7324C11.7476 14.7495 11.5939 14.7666 11.4402 14.7666C9.83493 14.7666 8.51991 13.5199 8.51991 11.9999C8.51991 10.48 9.83493 9.23334 11.4402 9.23334C11.5939 9.23334 11.7476 9.25043 11.9013 9.26748C13.6945 9.52366 14.7875 11.2827 15.1632 11.9999C14.7875 12.7172 13.6945 14.4762 11.9013 14.7324ZM16.8368 11.9999C17.2125 11.2998 18.3055 9.52366 20.0987 9.26748C20.2524 9.25043 20.4061 9.23334 20.5598 9.23334C22.1651 9.23334 23.4801 10.48 23.4801 11.9999C23.4801 13.5199 22.1651 14.7666 20.5598 14.7666C20.4061 14.7666 20.2524 14.7495 20.0987 14.7324C18.3055 14.4762 17.2125 12.7172 16.8368 11.9999ZM10.2106 12.444H12.8748V11.5901H10.2106V12.444ZM20.8672 12.444H21.7552V11.5901H20.8672V10.6849H19.9962V11.5901H19.1082V12.444H19.9962V13.3491H20.8672V12.444V12.444Z" fill="#00979C"/>
<path d="M35.7012 13.7734H32.127L31.3242 16H30.1641L33.4219 7.46875H34.4062L37.6699 16H36.5156L35.7012 13.7734ZM32.4668 12.8477H35.3672L33.9141 8.85742L32.4668 12.8477ZM41.7129 10.6328C41.5488 10.6055 41.3711 10.5918 41.1797 10.5918C40.4688 10.5918 39.9863 10.8945 39.7324 11.5V16H38.6484V9.66016H39.7031L39.7207 10.3926C40.0762 9.82617 40.5801 9.54297 41.2324 9.54297C41.4434 9.54297 41.6035 9.57031 41.7129 9.625V10.6328ZM42.334 12.7773C42.334 11.8047 42.5645 11.0234 43.0254 10.4336C43.4863 9.83984 44.0898 9.54297 44.8359 9.54297C45.5781 9.54297 46.166 9.79688 46.5996 10.3047V7H47.6836V16H46.6875L46.6348 15.3203C46.2012 15.8516 45.5977 16.1172 44.8242 16.1172C44.0898 16.1172 43.4902 15.8164 43.0254 15.2148C42.5645 14.6133 42.334 13.8281 42.334 12.8594V12.7773ZM43.418 12.9004C43.418 13.6191 43.5664 14.1816 43.8633 14.5879C44.1602 14.9941 44.5703 15.1973 45.0938 15.1973C45.7812 15.1973 46.2832 14.8887 46.5996 14.2715V11.3594C46.2754 10.7617 45.7773 10.4629 45.1055 10.4629C44.5742 10.4629 44.1602 10.668 43.8633 11.0781C43.5664 11.4883 43.418 12.0957 43.418 12.9004ZM53.2852 15.373C52.8633 15.8691 52.2441 16.1172 51.4277 16.1172C50.752 16.1172 50.2363 15.9219 49.8809 15.5312C49.5293 15.1367 49.3516 14.5547 49.3477 13.7852V9.66016H50.4316V13.7559C50.4316 14.7168 50.8223 15.1973 51.6035 15.1973C52.4316 15.1973 52.9824 14.8887 53.2559 14.2715V9.66016H54.3398V16H53.3086L53.2852 15.373ZM57.1699 16H56.0859V9.66016H57.1699V16ZM55.998 7.97852C55.998 7.80273 56.0508 7.6543 56.1562 7.5332C56.2656 7.41211 56.4258 7.35156 56.6367 7.35156C56.8477 7.35156 57.0078 7.41211 57.1172 7.5332C57.2266 7.6543 57.2812 7.80273 57.2812 7.97852C57.2812 8.1543 57.2266 8.30078 57.1172 8.41797C57.0078 8.53516 56.8477 8.59375 56.6367 8.59375C56.4258 8.59375 56.2656 8.53516 56.1562 8.41797C56.0508 8.30078 55.998 8.1543 55.998 7.97852ZM59.9355 9.66016L59.9707 10.457C60.4551 9.84766 61.0879 9.54297 61.8691 9.54297C63.209 9.54297 63.8848 10.2988 63.8965 11.8105V16H62.8125V11.8047C62.8086 11.3477 62.7031 11.0098 62.4961 10.791C62.293 10.5723 61.9746 10.4629 61.541 10.4629C61.1895 10.4629 60.8809 10.5566 60.6152 10.7441C60.3496 10.9316 60.1426 11.1777 59.9941 11.4824V16H58.9102V9.66016H59.9355ZM65.2441 12.7715C65.2441 12.1504 65.3652 11.5918 65.6074 11.0957C65.8535 10.5996 66.1934 10.2168 66.627 9.94727C67.0645 9.67773 67.5625 9.54297 68.1211 9.54297C68.9844 9.54297 69.6816 9.8418 70.2129 10.4395C70.748 11.0371 71.0156 11.832 71.0156 12.8242V12.9004C71.0156 13.5176 70.8965 14.0723 70.6582 14.5645C70.4238 15.0527 70.0859 15.4336 69.6445 15.707C69.207 15.9805 68.7031 16.1172 68.1328 16.1172C67.2734 16.1172 66.5762 15.8184 66.041 15.2207C65.5098 14.623 65.2441 13.832 65.2441 12.8477V12.7715ZM66.334 12.9004C66.334 13.6035 66.4961 14.168 66.8203 14.5938C67.1484 15.0195 67.5859 15.2324 68.1328 15.2324C68.6836 15.2324 69.1211 15.0176 69.4453 14.5879C69.7695 14.1543 69.9316 13.5488 69.9316 12.7715C69.9316 12.0762 69.7656 11.5137 69.4336 11.084C69.1055 10.6504 68.668 10.4336 68.1211 10.4336C67.5859 10.4336 67.1543 10.6465 66.8262 11.0723C66.498 11.498 66.334 12.1074 66.334 12.9004Z" fill="black"/>
</g>
<defs>
<filter id="filter0_d" x="0" y="0" width="79" height="28" filterUnits="userSpaceOnUse" color-interpolation-filters="sRGB">
<feFlood flood-opacity="0" result="BackgroundImageFix"/>
<feColorMatrix in="SourceAlpha" type="matrix" values="0 0 0 0 0 0 0 0 0 0 0 0 0 0 0 0 0 0 127 0" result="hardAlpha"/>
<feOffset dy="2"/>
<feGaussianBlur stdDeviation="1"/>
<feComposite in2="hardAlpha" operator="out"/>
<feColorMatrix type="matrix" values="0 0 0 0 0 0 0 0 0 0 0 0 0 0 0 0 0 0 0.25 0"/>
<feBlend mode="normal" in2="BackgroundImageFix" result="effect1_dropShadow"/>
<feBlend mode="normal" in="SourceGraphic" in2="effect1_dropShadow" result="shape"/>
</filter>
</defs>
</svg>
