<svg width="121" height="45" viewBox="0 0 121 45" fill="none" xmlns="http://www.w3.org/2000/svg">
<path d="M1 4C1 2.34314 2.34315 1 4 1H117C118.657 1 120 2.34315 120 4V41C120 42.6569 118.657 44 117 44H4C2.34315 44 1 42.6569 1 41V4Z" fill="#22272E"/>
<path d="M33 22.4999C33 20.1432 31.0189 18.2305 28.5598 18.2305C28.3378 18.2305 28.0987 18.2476 27.8767 18.2817C25.9811 18.555 24.7002 19.9212 24 20.9629C23.2827 19.9212 22.0189 18.555 20.1233 18.2817C19.9013 18.2476 19.6622 18.2305 19.4402 18.2305C16.9981 18.2305 15 20.1432 15 22.4999C15 24.8567 16.9811 26.7694 19.4231 26.7694C19.6452 26.7694 19.8843 26.7523 20.1062 26.7182C22.0019 26.4449 23.2827 25.0787 23.9829 24.037C24.7002 25.0787 25.964 26.4449 27.8596 26.7182C28.0816 26.7523 28.3207 26.7694 28.5427 26.7694C31.019 26.7865 33 24.8737 33 22.4999ZM19.9013 25.2324C19.7476 25.2495 19.5939 25.2666 19.4402 25.2666C17.8349 25.2666 16.5199 24.0199 16.5199 22.4999C16.5199 20.98 17.8349 19.7333 19.4402 19.7333C19.5939 19.7333 19.7476 19.7504 19.9013 19.7675C21.6945 20.0237 22.7875 21.7827 23.1632 22.4999C22.7875 23.2172 21.6945 24.9762 19.9013 25.2324ZM24.8368 22.4999C25.2125 21.7998 26.3055 20.0237 28.0987 19.7675C28.2524 19.7504 28.4061 19.7333 28.5598 19.7333C30.1651 19.7333 31.4801 20.98 31.4801 22.4999C31.4801 24.0199 30.1651 25.2666 28.5598 25.2666C28.4061 25.2666 28.2524 25.2495 28.0987 25.2324C26.3055 24.9762 25.2125 23.2172 24.8368 22.4999ZM18.2106 22.944H20.8748V22.0901H18.2106V22.944ZM28.8672 22.944H29.7552V22.0901H28.8672V21.1849H27.9962V22.0901H27.1082V22.944H27.9962V23.8491H28.8672V22.944V22.944Z" fill="#ADBAC7"/>
<path d="M55.1406 29H53.6875L52.5 25.8594H47.75L46.6328 29H45.1719L49.4688 17.7969H50.8281L55.1406 29ZM52.0703 24.6797L50.3125 19.9062C50.2552 19.75 50.1979 19.5 50.1406 19.1562H50.1094C50.0573 19.474 49.9974 19.724 49.9297 19.9062L48.1875 24.6797H52.0703ZM60.7969 22.2969C60.5729 22.125 60.25 22.0391 59.8281 22.0391C59.2812 22.0391 58.8229 22.2969 58.4531 22.8125C58.0885 23.3281 57.9062 24.0312 57.9062 24.9219V29H56.625V21H57.9062V22.6484H57.9375C58.1198 22.0859 58.3984 21.6484 58.7734 21.3359C59.1484 21.0182 59.5677 20.8594 60.0312 20.8594C60.3646 20.8594 60.6198 20.8958 60.7969 20.9688V22.2969ZM68.7969 29H67.5156V27.6406H67.4844C66.8906 28.6719 65.974 29.1875 64.7344 29.1875C63.7292 29.1875 62.9245 28.8307 62.3203 28.1172C61.7214 27.3984 61.4219 26.4219 61.4219 25.1875C61.4219 23.8646 61.7552 22.8047 62.4219 22.0078C63.0885 21.2109 63.9766 20.8125 65.0859 20.8125C66.1849 20.8125 66.9844 21.2448 67.4844 22.1094H67.5156V17.1562H68.7969V29ZM67.5156 25.3828V24.2031C67.5156 23.5573 67.3021 23.0104 66.875 22.5625C66.4479 22.1146 65.9062 21.8906 65.25 21.8906C64.4688 21.8906 63.8542 22.1771 63.4062 22.75C62.9583 23.3229 62.7344 24.1146 62.7344 25.125C62.7344 26.0469 62.9479 26.776 63.375 27.3125C63.8073 27.8438 64.3854 28.1094 65.1094 28.1094C65.8229 28.1094 66.401 27.8516 66.8438 27.3359C67.2917 26.8203 67.5156 26.1693 67.5156 25.3828ZM77.8594 29H76.5781V27.7344H76.5469C76.0156 28.7031 75.1927 29.1875 74.0781 29.1875C72.1719 29.1875 71.2188 28.0521 71.2188 25.7812V21H72.4922V25.5781C72.4922 27.2656 73.138 28.1094 74.4297 28.1094C75.0547 28.1094 75.5677 27.8802 75.9688 27.4219C76.375 26.9583 76.5781 26.3542 76.5781 25.6094V21H77.8594V29ZM81.1094 18.9688C80.8802 18.9688 80.6849 18.8906 80.5234 18.7344C80.362 18.5781 80.2812 18.3802 80.2812 18.1406C80.2812 17.901 80.362 17.7031 80.5234 17.5469C80.6849 17.3854 80.8802 17.3047 81.1094 17.3047C81.3438 17.3047 81.5417 17.3854 81.7031 17.5469C81.8698 17.7031 81.9531 17.901 81.9531 18.1406C81.9531 18.3698 81.8698 18.5651 81.7031 18.7266C81.5417 18.888 81.3438 18.9688 81.1094 18.9688ZM81.7344 29H80.4531V21H81.7344V29ZM90.9688 29H89.6875V24.4375C89.6875 22.7396 89.0677 21.8906 87.8281 21.8906C87.1875 21.8906 86.6562 22.1328 86.2344 22.6172C85.8177 23.0964 85.6094 23.7031 85.6094 24.4375V29H84.3281V21H85.6094V22.3281H85.6406C86.2448 21.3177 87.1198 20.8125 88.2656 20.8125C89.1406 20.8125 89.8099 21.0964 90.2734 21.6641C90.737 22.2266 90.9688 23.0417 90.9688 24.1094V29ZM96.7344 29.1875C95.5521 29.1875 94.6068 28.8151 93.8984 28.0703C93.1953 27.3203 92.8438 26.3281 92.8438 25.0938C92.8438 23.75 93.2109 22.7005 93.9453 21.9453C94.6797 21.1901 95.6719 20.8125 96.9219 20.8125C98.1146 20.8125 99.0443 21.1797 99.7109 21.9141C100.383 22.6484 100.719 23.6667 100.719 24.9688C100.719 26.2448 100.357 27.2682 99.6328 28.0391C98.9141 28.8047 97.9479 29.1875 96.7344 29.1875ZM96.8281 21.8906C96.0052 21.8906 95.3542 22.1719 94.875 22.7344C94.3958 23.2917 94.1562 24.0625 94.1562 25.0469C94.1562 25.9948 94.3984 26.7422 94.8828 27.2891C95.3672 27.8359 96.0156 28.1094 96.8281 28.1094C97.6562 28.1094 98.2917 27.8411 98.7344 27.3047C99.1823 26.7682 99.4062 26.0052 99.4062 25.0156C99.4062 24.0156 99.1823 23.2448 98.7344 22.7031C98.2917 22.1615 97.6562 21.8906 96.8281 21.8906Z" fill="#ADBAC7"/>
<path d="M4 2H117V0H4V2ZM119 4V41H121V4H119ZM117 43H4V45H117V43ZM2 41V4H0V41H2ZM4 43C2.89543 43 2 42.1046 2 41H0C0 43.2091 1.79086 45 4 45V43ZM119 41C119 42.1046 118.105 43 117 43V45C119.209 45 121 43.2091 121 41H119ZM117 2C118.105 2 119 2.89543 119 4H121C121 1.79086 119.209 0 117 0V2ZM4 0C1.79086 0 0 1.79086 0 4H2C2 2.89543 2.89543 2 4 2V0Z" fill="#444C56"/>
</svg>
