<svg width="100" height="47" viewBox="0 0 100 47" fill="none" xmlns="http://www.w3.org/2000/svg">
<rect x="1" y="1" width="98" height="45" rx="4" fill="#22272E"/>
<path d="M31.3618 18.505L26.0327 15.3438C25.7228 15.1601 25.3692 15.0632 25.009 15.0632C24.6487 15.0632 24.2951 15.1601 23.9852 15.3438L18.6583 18.505C18.3415 18.6941 18.0794 18.9624 17.8977 19.2835C17.716 19.6046 17.6211 19.9675 17.6222 20.3365V26.6635C17.6203 27.0314 17.714 27.3935 17.894 27.7143C18.0741 28.0352 18.3343 28.3038 18.6493 28.4939L23.9773 31.6574C24.2873 31.841 24.6409 31.9379 25.0011 31.9379C25.3613 31.9379 25.7149 31.841 26.0248 31.6574L31.3528 28.4939C31.6679 28.3039 31.9282 28.0353 32.1083 27.7144C32.2883 27.3936 32.382 27.0314 32.38 26.6635V20.3365C32.3829 19.9696 32.2908 19.6081 32.1126 19.2874C31.9343 18.9666 31.6761 18.6975 31.363 18.5061L31.3618 18.505ZM27.2342 28.3836V28.8381C27.2338 28.8661 27.2263 28.8935 27.2126 28.9179C27.1988 28.9423 27.1792 28.9628 27.1555 28.9776L26.8866 29.1318C26.8438 29.1543 26.8078 29.1318 26.8078 29.0721V28.6266C26.6174 28.7199 26.3996 28.7411 26.1947 28.6863C26.1785 28.6757 26.1666 28.6597 26.1611 28.6412C26.1555 28.6226 26.1567 28.6028 26.1643 28.585L26.2611 28.1744C26.2665 28.1519 26.2763 28.1308 26.2901 28.1123C26.3038 28.0937 26.3211 28.0781 26.341 28.0664C26.3477 28.0635 26.355 28.062 26.3623 28.062C26.3697 28.062 26.377 28.0635 26.3837 28.0664C26.5722 28.1169 26.773 28.0915 26.9428 27.9955C27.0632 27.9365 27.1654 27.8461 27.2387 27.7338C27.3119 27.6215 27.3535 27.4916 27.3591 27.3576C27.3591 27.1259 27.2331 27.0291 26.9271 27.028C26.5401 27.028 26.1835 26.9538 26.1733 26.3823C26.1779 26.1381 26.2364 25.898 26.3448 25.6792C26.4531 25.4604 26.6086 25.2682 26.8 25.1166V24.6588C26.7998 24.6304 26.807 24.6024 26.8208 24.5776C26.8346 24.5527 26.8545 24.5319 26.8787 24.517L27.1386 24.3516C27.1813 24.3291 27.2173 24.3516 27.2173 24.4124V24.8725C27.3768 24.7997 27.5548 24.7781 27.727 24.8106C27.7451 24.8209 27.7586 24.8376 27.7649 24.8574C27.7712 24.8773 27.7697 24.8987 27.7607 24.9175L27.6696 25.3248C27.6585 25.3663 27.6324 25.4024 27.5965 25.426C27.5837 25.4303 27.5699 25.4303 27.5571 25.426C27.3892 25.3896 27.2138 25.4186 27.0666 25.507C26.9591 25.5535 26.867 25.6295 26.801 25.7263C26.7351 25.8231 26.6981 25.9367 26.6942 26.0538C26.6942 26.2619 26.8045 26.326 27.1723 26.3328C27.6651 26.3328 27.8777 26.5566 27.8833 27.0516C27.8785 27.3075 27.8181 27.5594 27.7062 27.7896C27.5943 28.0198 27.4336 28.2229 27.2353 28.3848L27.2342 28.3836ZM30.0253 27.6186C30.0289 27.6379 30.0269 27.6579 30.0198 27.6761C30.0126 27.6944 30.0005 27.7103 29.9848 27.7221L28.6371 28.54C28.6309 28.5453 28.6232 28.5484 28.6151 28.549C28.6071 28.5496 28.599 28.5477 28.5921 28.5434C28.5852 28.5391 28.5797 28.5329 28.5765 28.5254C28.5733 28.518 28.5724 28.5097 28.5741 28.5018V28.153C28.575 28.1343 28.5814 28.1163 28.5923 28.1011C28.6033 28.0859 28.6185 28.0742 28.636 28.0675L29.9623 27.2733C29.9687 27.2682 29.9765 27.2652 29.9847 27.2647C29.9928 27.2642 30.0009 27.2663 30.0078 27.2706C30.0147 27.2749 30.0201 27.2813 30.0233 27.2888C30.0264 27.2964 30.0271 27.3047 30.0253 27.3126V27.6198V27.6186ZM30.9557 19.8404L25.9135 22.9544C25.2846 23.3268 24.8222 23.734 24.8222 24.4923V30.7023C24.8222 31.1568 25.0078 31.447 25.2868 31.5359C25.1948 31.5532 25.1015 31.5626 25.0078 31.564C24.7108 31.564 24.4206 31.483 24.1663 31.3311L18.8372 28.1688C18.5787 28.0119 18.3651 27.7909 18.2173 27.5272C18.0694 27.2634 17.9923 26.9659 17.9935 26.6635V20.3365C17.9919 20.0338 18.0689 19.7358 18.2167 19.4716C18.3646 19.2074 18.5784 18.986 18.8372 18.829L24.1675 15.6678C24.421 15.5175 24.7103 15.4382 25.005 15.4382C25.2998 15.4382 25.5891 15.5175 25.8426 15.6678L31.1706 18.8313C31.3876 18.9625 31.5733 19.1395 31.7148 19.3499C31.8562 19.5604 31.95 19.7992 31.9896 20.0496C31.8163 19.6739 31.4181 19.5693 30.9546 19.8415H30.9568L30.9557 19.8404Z" fill="#ADBAC7"/>
<path d="M47.4688 30V18.7969H50.6562C51.625 18.7969 52.3932 19.0339 52.9609 19.5078C53.5286 19.9818 53.8125 20.599 53.8125 21.3594C53.8125 21.9948 53.6406 22.5469 53.2969 23.0156C52.9531 23.4844 52.4792 23.8177 51.875 24.0156V24.0469C52.6302 24.1354 53.2344 24.4219 53.6875 24.9062C54.1406 25.3854 54.3672 26.0104 54.3672 26.7812C54.3672 27.7396 54.0234 28.5156 53.3359 29.1094C52.6484 29.7031 51.7812 30 50.7344 30H47.4688ZM48.7812 19.9844V23.6016H50.125C50.8438 23.6016 51.4089 23.4297 51.8203 23.0859C52.2318 22.737 52.4375 22.2474 52.4375 21.6172C52.4375 20.5286 51.7214 19.9844 50.2891 19.9844H48.7812ZM48.7812 24.7812V28.8125H50.5625C51.3333 28.8125 51.9297 28.6302 52.3516 28.2656C52.7786 27.901 52.9922 27.401 52.9922 26.7656C52.9922 25.4427 52.0911 24.7812 50.2891 24.7812H48.7812ZM62.1953 30H60.9141V28.75H60.8828C60.3255 29.7083 59.5052 30.1875 58.4219 30.1875C57.625 30.1875 57 29.9766 56.5469 29.5547C56.099 29.1328 55.875 28.5729 55.875 27.875C55.875 26.3802 56.7552 25.5104 58.5156 25.2656L60.9141 24.9297C60.9141 23.5703 60.3646 22.8906 59.2656 22.8906C58.3021 22.8906 57.4323 23.2188 56.6562 23.875V22.5625C57.4427 22.0625 58.349 21.8125 59.375 21.8125C61.2552 21.8125 62.1953 22.8073 62.1953 24.7969V30ZM60.9141 25.9531L58.9844 26.2188C58.3906 26.3021 57.9427 26.4505 57.6406 26.6641C57.3385 26.8724 57.1875 27.2448 57.1875 27.7812C57.1875 28.1719 57.3255 28.4922 57.6016 28.7422C57.8828 28.987 58.2552 29.1094 58.7188 29.1094C59.3542 29.1094 59.8776 28.888 60.2891 28.4453C60.7057 27.9974 60.9141 27.4323 60.9141 26.75V25.9531ZM64.125 29.7109V28.3359C64.8229 28.8516 65.5911 29.1094 66.4297 29.1094C67.5547 29.1094 68.1172 28.7344 68.1172 27.9844C68.1172 27.7708 68.0677 27.5911 67.9688 27.4453C67.875 27.2943 67.7448 27.1615 67.5781 27.0469C67.4167 26.9323 67.224 26.8307 67 26.7422C66.7812 26.6484 66.5443 26.5521 66.2891 26.4531C65.9349 26.3125 65.6224 26.1719 65.3516 26.0312C65.0859 25.8854 64.862 25.724 64.6797 25.5469C64.5026 25.3646 64.3672 25.1589 64.2734 24.9297C64.1849 24.7005 64.1406 24.4323 64.1406 24.125C64.1406 23.75 64.2266 23.4193 64.3984 23.1328C64.5703 22.8411 64.7995 22.599 65.0859 22.4062C65.3724 22.2083 65.6979 22.0599 66.0625 21.9609C66.4323 21.862 66.8125 21.8125 67.2031 21.8125C67.8958 21.8125 68.5156 21.9323 69.0625 22.1719V23.4688C68.474 23.0833 67.7969 22.8906 67.0312 22.8906C66.7917 22.8906 66.5755 22.9193 66.3828 22.9766C66.1901 23.0286 66.0234 23.1042 65.8828 23.2031C65.7474 23.3021 65.6406 23.4219 65.5625 23.5625C65.4896 23.6979 65.4531 23.849 65.4531 24.0156C65.4531 24.224 65.4896 24.3984 65.5625 24.5391C65.6406 24.6797 65.7526 24.8047 65.8984 24.9141C66.0443 25.0234 66.2214 25.1224 66.4297 25.2109C66.638 25.2995 66.875 25.3958 67.1406 25.5C67.4948 25.6354 67.8125 25.776 68.0938 25.9219C68.375 26.0625 68.6146 26.224 68.8125 26.4062C69.0104 26.5833 69.1615 26.7891 69.2656 27.0234C69.375 27.2578 69.4297 27.5365 69.4297 27.8594C69.4297 28.2552 69.3411 28.599 69.1641 28.8906C68.9922 29.1823 68.7604 29.4245 68.4688 29.6172C68.1771 29.8099 67.8411 29.9531 67.4609 30.0469C67.0807 30.1406 66.6823 30.1875 66.2656 30.1875C65.4427 30.1875 64.7292 30.0286 64.125 29.7109ZM78.0469 30H76.7656V25.3906C76.7656 23.724 76.1458 22.8906 74.9062 22.8906C74.2812 22.8906 73.7552 23.1328 73.3281 23.6172C72.901 24.0964 72.6875 24.7135 72.6875 25.4688V30H71.4062V18.1562H72.6875V23.3281H72.7188C73.3333 22.3177 74.2083 21.8125 75.3438 21.8125C77.1458 21.8125 78.0469 22.8984 78.0469 25.0703V30Z" fill="#ADBAC7"/>
<rect x="1" y="1" width="98" height="45" rx="4" stroke="#444C56" stroke-width="2"/>
</svg>
