<svg xmlns="http://www.w3.org/2000/svg" width="130" height="56" fill="none"><rect width="112" height="48" x="9" y="4" fill="#E3F2FD" rx="4"/><path fill="#293138" d="m48.44 21.37-7.075-4.2a2.667 2.667 0 0 0-2.73.002l-7.076 4.2a2.822 2.822 0 0 0-1.365 2.43v8.4c0 1.003.52 1.93 1.365 2.43l7.074 4.2a2.66 2.66 0 0 0 1.365.375c.47 0 .943-.126 1.365-.375l7.076-4.2a2.824 2.824 0 0 0 1.365-2.43V23.8a2.82 2.82 0 0 0-1.365-2.43Zm-5.48 13.116.012.603a.227.227 0 0 1-.103.186l-.358.206c-.057.028-.105-.005-.105-.078l-.006-.595c-.306.128-.617.158-.814.079-.037-.015-.054-.07-.04-.133l.13-.546a.231.231 0 0 1 .064-.112.127.127 0 0 1 .034-.025c.02-.011.041-.013.058-.005.214.07.486.037.748-.094.334-.169.557-.51.553-.848-.004-.307-.169-.433-.572-.437-.514.002-.993-.099-1.001-.856-.006-.623.317-1.272.83-1.68l-.005-.61c0-.075.045-.157.103-.187l.347-.221c.056-.029.105.007.105.08l.006.61c.255-.102.476-.13.677-.083.043.011.063.071.044.14l-.135.54a.241.241 0 0 1-.061.11.145.145 0 0 1-.036.026.09.09 0 0 1-.053.009c-.091-.02-.309-.068-.652.105-.36.182-.486.495-.484.727.004.278.145.362.636.37.654.011.936.296.943.954.01.645-.336 1.34-.864 1.765Zm4.94-11.344-6.694 4.134c-.835.488-1.45 1.035-1.452 2.042v8.248c0 .602.244.992.617 1.106-.122.021-.247.036-.371.036-.392 0-.778-.107-1.117-.307l-7.075-4.2a2.328 2.328 0 0 1-1.121-2.001v-8.4c0-.823.43-1.59 1.121-2l7.076-4.2c.34-.201.726-.308 1.118-.308.392 0 .778.107 1.117.307l7.077 4.2c.583.347.977.945 1.087 1.619-.238-.501-.767-.636-1.384-.276Z"/><path fill="#4FA847" d="m46.585 33.012-1.763 1.054c-.046.028-.08.058-.08.114v.461c0 .056.037.08.084.053l1.789-1.088c.047-.028.054-.078.054-.135v-.407c0-.056-.037-.078-.084-.052Z"/><path fill="#000" d="M69.469 34.5V23.297h3.187c.969 0 1.737.237 2.305.71.568.475.852 1.092.852 1.852 0 .636-.172 1.188-.516 1.657-.344.468-.818.802-1.422 1v.03c.755.09 1.36.376 1.813.86.453.48.68 1.104.68 1.875 0 .959-.345 1.735-1.032 2.328-.688.594-1.555.891-2.602.891H69.47Zm1.312-10.016v3.618h1.344c.719 0 1.284-.172 1.695-.516.412-.349.618-.839.618-1.469 0-1.088-.717-1.633-2.149-1.633h-1.508Zm0 4.797v4.032h1.781c.771 0 1.368-.183 1.79-.547.427-.365.64-.865.64-1.5 0-1.323-.9-1.985-2.703-1.985h-1.508ZM84.195 34.5h-1.28v-1.25h-.032c-.557.958-1.378 1.438-2.461 1.438-.797 0-1.422-.211-1.875-.633-.448-.422-.672-.982-.672-1.68 0-1.495.88-2.365 2.64-2.61l2.4-.335c0-1.36-.55-2.04-1.65-2.04-.963 0-1.833.329-2.609.985v-1.313c.787-.5 1.693-.75 2.719-.75 1.88 0 2.82.995 2.82 2.985V34.5Zm-1.28-4.047-1.93.266c-.594.083-1.042.232-1.344.445-.303.208-.454.58-.454 1.117 0 .39.139.711.415.961.28.245.653.367 1.117.367.635 0 1.159-.221 1.57-.664.417-.448.625-1.013.625-1.695v-.797Zm3.21 3.758v-1.375a3.791 3.791 0 0 0 2.305.773c1.125 0 1.687-.375 1.687-1.125a.938.938 0 0 0-.148-.539 1.352 1.352 0 0 0-.39-.398 2.726 2.726 0 0 0-.579-.305c-.219-.094-.456-.19-.71-.289a10.24 10.24 0 0 1-.938-.422 3.091 3.091 0 0 1-.672-.484 1.926 1.926 0 0 1-.407-.617 2.228 2.228 0 0 1-.132-.805c0-.375.086-.706.257-.992.172-.292.401-.534.688-.727a3.16 3.16 0 0 1 .977-.445c.37-.099.75-.148 1.14-.148.693 0 1.313.12 1.86.359v1.297c-.589-.386-1.266-.578-2.032-.578-.24 0-.456.028-.648.086-.193.052-.36.127-.5.226a1.11 1.11 0 0 0-.32.36.94.94 0 0 0-.11.453c0 .208.037.382.11.523.078.14.19.266.335.375.146.11.323.208.532.297.208.088.445.185.71.289.355.135.672.276.954.422.281.14.52.302.719.484.197.177.349.383.453.617.109.235.164.513.164.836 0 .396-.089.74-.266 1.032a2.205 2.205 0 0 1-.695.726 3.205 3.205 0 0 1-1.008.43c-.38.094-.779.14-1.195.14-.823 0-1.537-.158-2.141-.476Zm13.922.289h-1.281v-4.61c0-1.666-.62-2.5-1.86-2.5-.625 0-1.15.243-1.578.727-.427.48-.64 1.096-.64 1.852V34.5h-1.282V22.656h1.281v5.172h.032c.614-1.01 1.49-1.515 2.625-1.515 1.802 0 2.703 1.085 2.703 3.257v4.93Z"/><rect width="112" height="48" x="9" y="4" stroke="#2196F3" stroke-width="2" rx="4"/></svg>