<svg width="120" height="47" viewBox="0 0 120 47" fill="none" xmlns="http://www.w3.org/2000/svg">
<rect x="1" y="1" width="118" height="45" rx="4" fill="#22272E"/>
<path d="M25.3202 24.2582C25.348 23.758 25.5925 23.3177 25.9622 23.005C26.3505 22.6821 26.8403 22.5068 27.3452 22.51C27.8777 22.51 28.3652 22.6975 28.729 23.005C29.098 23.3177 29.3432 23.7587 29.371 24.2582C29.3995 24.7727 29.1932 25.2505 28.8302 25.6045C28.4307 25.9857 27.8982 26.1961 27.346 26.191C26.7933 26.1964 26.2602 25.986 25.8602 25.6045C25.498 25.2505 25.291 24.7727 25.3202 24.2582Z" fill="#ADBAC7"/>
<path d="M22.093 25.2708C22.0968 25.4658 22.1598 25.846 22.2528 26.1438C22.4554 26.7841 22.7953 27.3725 23.2488 27.868C23.7349 28.403 24.3286 28.829 24.991 29.1183C25.7116 29.4361 26.491 29.5984 27.2785 29.5945C28.0668 29.5955 28.8464 29.4307 29.5668 29.1108C30.2283 28.818 30.8213 28.3901 31.3075 27.8545C31.7601 27.3575 32.0994 26.7682 32.302 26.1273C32.401 25.8142 32.4639 25.4908 32.4895 25.1635C32.5602 24.217 32.3269 23.2727 31.8235 22.468C31.5163 21.9767 31.1239 21.5442 30.6648 21.1908L30.6655 21.19L25.9788 17.5908L25.9668 17.5803C25.6585 17.3448 25.141 17.3455 24.8035 17.5818C24.4608 17.821 24.4225 18.2163 24.7255 18.4668L24.7248 18.4675L26.6793 20.0583L20.722 20.065H20.713C20.221 20.065 19.7478 20.389 19.654 20.797C19.558 21.2133 19.8925 21.5583 20.4048 21.5598L20.404 21.562L23.4243 21.556L18.0333 25.693L18.013 25.7088C17.5053 26.098 17.341 26.7453 17.6605 27.1555C17.986 27.5725 18.676 27.5725 19.1905 27.157L22.132 24.7503C22.1328 24.7503 22.09 25.075 22.093 25.2708ZM29.6515 26.3583C29.0455 26.9763 28.198 27.3265 27.2793 27.328C26.3598 27.3295 25.5123 26.9823 24.9055 26.3658C24.6187 26.0786 24.3976 25.7327 24.2575 25.3518C24.1252 24.9895 24.0743 24.6026 24.1083 24.2185C24.1413 23.8398 24.253 23.4783 24.4338 23.152C24.6108 22.8303 24.8553 22.5408 25.1553 22.294C25.757 21.8101 26.5072 21.5484 27.2793 21.553C28.0507 21.5468 28.8007 21.8063 29.4033 22.288C29.7025 22.5325 29.947 22.8213 30.124 23.1423C30.304 23.4693 30.4165 23.8293 30.4495 24.208C30.4834 24.5921 30.4327 24.9789 30.301 25.3413C30.1595 25.7227 29.9381 26.0694 29.6515 26.3583Z" fill="#ADBAC7"/>
<path d="M47.4688 30V18.7969H50.6562C51.625 18.7969 52.3932 19.0339 52.9609 19.5078C53.5286 19.9818 53.8125 20.599 53.8125 21.3594C53.8125 21.9948 53.6406 22.5469 53.2969 23.0156C52.9531 23.4844 52.4792 23.8177 51.875 24.0156V24.0469C52.6302 24.1354 53.2344 24.4219 53.6875 24.9062C54.1406 25.3854 54.3672 26.0104 54.3672 26.7812C54.3672 27.7396 54.0234 28.5156 53.3359 29.1094C52.6484 29.7031 51.7812 30 50.7344 30H47.4688ZM48.7812 19.9844V23.6016H50.125C50.8438 23.6016 51.4089 23.4297 51.8203 23.0859C52.2318 22.737 52.4375 22.2474 52.4375 21.6172C52.4375 20.5286 51.7214 19.9844 50.2891 19.9844H48.7812ZM48.7812 24.7812V28.8125H50.5625C51.3333 28.8125 51.9297 28.6302 52.3516 28.2656C52.7786 27.901 52.9922 27.401 52.9922 26.7656C52.9922 25.4427 52.0911 24.7812 50.2891 24.7812H48.7812ZM57.75 30H56.4688V18.1562H57.75V30ZM66.7734 26.3203H61.125C61.1458 27.2109 61.3854 27.8984 61.8438 28.3828C62.3021 28.8672 62.9323 29.1094 63.7344 29.1094C64.6354 29.1094 65.4635 28.8125 66.2188 28.2188V29.4219C65.5156 29.9323 64.5859 30.1875 63.4297 30.1875C62.2995 30.1875 61.4115 29.8255 60.7656 29.1016C60.1198 28.3724 59.7969 27.349 59.7969 26.0312C59.7969 24.7865 60.1484 23.7734 60.8516 22.9922C61.5599 22.2057 62.4375 21.8125 63.4844 21.8125C64.5312 21.8125 65.3411 22.151 65.9141 22.8281C66.487 23.5052 66.7734 24.4453 66.7734 25.6484V26.3203ZM65.4609 25.2344C65.4557 24.4948 65.276 23.9193 64.9219 23.5078C64.5729 23.0964 64.0859 22.8906 63.4609 22.8906C62.8568 22.8906 62.3438 23.1068 61.9219 23.5391C61.5 23.9714 61.2396 24.5365 61.1406 25.2344H65.4609ZM75.3594 30H74.0781V25.4375C74.0781 23.7396 73.4583 22.8906 72.2188 22.8906C71.5781 22.8906 71.0469 23.1328 70.625 23.6172C70.2083 24.0964 70 24.7031 70 25.4375V30H68.7188V22H70V23.3281H70.0312C70.6354 22.3177 71.5104 21.8125 72.6562 21.8125C73.5312 21.8125 74.2005 22.0964 74.6641 22.6641C75.1276 23.2266 75.3594 24.0417 75.3594 25.1094V30ZM84.6094 30H83.3281V28.6406H83.2969C82.7031 29.6719 81.7865 30.1875 80.5469 30.1875C79.5417 30.1875 78.737 29.8307 78.1328 29.1172C77.5339 28.3984 77.2344 27.4219 77.2344 26.1875C77.2344 24.8646 77.5677 23.8047 78.2344 23.0078C78.901 22.2109 79.7891 21.8125 80.8984 21.8125C81.9974 21.8125 82.7969 22.2448 83.2969 23.1094H83.3281V18.1562H84.6094V30ZM83.3281 26.3828V25.2031C83.3281 24.5573 83.1146 24.0104 82.6875 23.5625C82.2604 23.1146 81.7188 22.8906 81.0625 22.8906C80.2812 22.8906 79.6667 23.1771 79.2188 23.75C78.7708 24.3229 78.5469 25.1146 78.5469 26.125C78.5469 27.0469 78.7604 27.776 79.1875 28.3125C79.6198 28.8438 80.1979 29.1094 80.9219 29.1094C81.6354 29.1094 82.2135 28.8516 82.6562 28.3359C83.1042 27.8203 83.3281 27.1693 83.3281 26.3828ZM93.6328 26.3203H87.9844C88.0052 27.2109 88.2448 27.8984 88.7031 28.3828C89.1615 28.8672 89.7917 29.1094 90.5938 29.1094C91.4948 29.1094 92.3229 28.8125 93.0781 28.2188V29.4219C92.375 29.9323 91.4453 30.1875 90.2891 30.1875C89.1589 30.1875 88.2708 29.8255 87.625 29.1016C86.9792 28.3724 86.6562 27.349 86.6562 26.0312C86.6562 24.7865 87.0078 23.7734 87.7109 22.9922C88.4193 22.2057 89.2969 21.8125 90.3438 21.8125C91.3906 21.8125 92.2005 22.151 92.7734 22.8281C93.3464 23.5052 93.6328 24.4453 93.6328 25.6484V26.3203ZM92.3203 25.2344C92.3151 24.4948 92.1354 23.9193 91.7812 23.5078C91.4323 23.0964 90.9453 22.8906 90.3203 22.8906C89.7161 22.8906 89.2031 23.1068 88.7812 23.5391C88.3594 23.9714 88.099 24.5365 88 25.2344H92.3203ZM99.75 23.2969C99.526 23.125 99.2031 23.0391 98.7812 23.0391C98.2344 23.0391 97.776 23.2969 97.4062 23.8125C97.0417 24.3281 96.8594 25.0312 96.8594 25.9219V30H95.5781V22H96.8594V23.6484H96.8906C97.0729 23.0859 97.3516 22.6484 97.7266 22.3359C98.1016 22.0182 98.5208 21.8594 98.9844 21.8594C99.3177 21.8594 99.5729 21.8958 99.75 21.9688V23.2969Z" fill="#ADBAC7"/>
<rect x="1" y="1" width="118" height="45" rx="4" stroke="#444C56" stroke-width="2"/>
</svg>
