<svg width="118" height="45" viewBox="0 0 118 45" fill="none" xmlns="http://www.w3.org/2000/svg">
<path d="M1 4C1 2.34314 2.34315 1 4 1H114C115.657 1 117 2.34315 117 4V41C117 42.6569 115.657 44 114 44H4C2.34315 44 1 42.6569 1 41V4Z" fill="#22272E"/>
<path d="M24.3202 23.2582C24.348 22.758 24.5925 22.3178 24.9622 22.005C25.3505 21.6821 25.8403 21.5068 26.3452 21.51C26.8777 21.51 27.3652 21.6975 27.729 22.005C28.098 22.3178 28.3432 22.7587 28.371 23.2582C28.3995 23.7727 28.1932 24.2505 27.8302 24.6045C27.4307 24.9857 26.8982 25.1961 26.346 25.191C25.7933 25.1964 25.2602 24.986 24.8602 24.6045C24.498 24.2505 24.291 23.7727 24.3202 23.2582Z" fill="#ADBAC7"/>
<path d="M21.093 24.2707C21.0968 24.4657 21.1598 24.846 21.2528 25.1437C21.4554 25.7841 21.7953 26.3725 22.2488 26.868C22.7349 27.4029 23.3286 27.829 23.991 28.1182C24.7116 28.4361 25.491 28.5984 26.2785 28.5945C27.0668 28.5955 27.8464 28.4306 28.5668 28.1107C29.2283 27.818 29.8213 27.3901 30.3075 26.8545C30.7601 26.3575 31.0994 25.7681 31.302 25.1272C31.401 24.8142 31.4639 24.4908 31.4895 24.1635C31.5602 23.217 31.3269 22.2727 30.8235 21.468C30.5163 20.9767 30.1239 20.5442 29.6648 20.1907L29.6655 20.19L24.9788 16.5907L24.9668 16.5802C24.6585 16.3447 24.141 16.3455 23.8035 16.5817C23.4608 16.821 23.4225 17.2162 23.7255 17.4667L23.7248 17.4675L25.6793 19.0582L19.722 19.065H19.713C19.221 19.065 18.7478 19.389 18.654 19.797C18.558 20.2132 18.8925 20.5582 19.4048 20.5597L19.404 20.562L22.4243 20.556L17.0333 24.693L17.013 24.7087C16.5053 25.098 16.341 25.7452 16.6605 26.1555C16.986 26.5725 17.676 26.5725 18.1905 26.157L21.132 23.7502C21.1328 23.7502 21.09 24.075 21.093 24.2707V24.2707ZM28.6515 25.3582C28.0455 25.9762 27.198 26.3265 26.2793 26.328C25.3598 26.3295 24.5123 25.9822 23.9055 25.3657C23.6187 25.0786 23.3976 24.7327 23.2575 24.3517C23.1252 23.9895 23.0743 23.6026 23.1083 23.2185C23.1413 22.8397 23.253 22.4782 23.4338 22.152C23.6108 21.8302 23.8553 21.5407 24.1553 21.294C24.757 20.8101 25.5072 20.5484 26.2793 20.553C27.0507 20.5468 27.8007 20.8063 28.4033 21.288C28.7025 21.5325 28.947 21.8212 29.124 22.1422C29.304 22.4692 29.4165 22.8292 29.4495 23.208C29.4834 23.5921 29.4327 23.9789 29.301 24.3412C29.1595 24.7227 28.9381 25.0694 28.6515 25.3582V25.3582Z" fill="#ADBAC7"/>
<path d="M46.4688 29V17.7969H49.6562C50.625 17.7969 51.3932 18.0339 51.9609 18.5078C52.5286 18.9818 52.8125 19.599 52.8125 20.3594C52.8125 20.9948 52.6406 21.5469 52.2969 22.0156C51.9531 22.4844 51.4792 22.8177 50.875 23.0156V23.0469C51.6302 23.1354 52.2344 23.4219 52.6875 23.9062C53.1406 24.3854 53.3672 25.0104 53.3672 25.7812C53.3672 26.7396 53.0234 27.5156 52.3359 28.1094C51.6484 28.7031 50.7812 29 49.7344 29H46.4688ZM47.7812 18.9844V22.6016H49.125C49.8438 22.6016 50.4089 22.4297 50.8203 22.0859C51.2318 21.737 51.4375 21.2474 51.4375 20.6172C51.4375 19.5286 50.7214 18.9844 49.2891 18.9844H47.7812ZM47.7812 23.7812V27.8125H49.5625C50.3333 27.8125 50.9297 27.6302 51.3516 27.2656C51.7786 26.901 51.9922 26.401 51.9922 25.7656C51.9922 24.4427 51.0911 23.7812 49.2891 23.7812H47.7812ZM56.75 29H55.4688V17.1562H56.75V29ZM65.7734 25.3203H60.125C60.1458 26.2109 60.3854 26.8984 60.8438 27.3828C61.3021 27.8672 61.9323 28.1094 62.7344 28.1094C63.6354 28.1094 64.4635 27.8125 65.2188 27.2188V28.4219C64.5156 28.9323 63.5859 29.1875 62.4297 29.1875C61.2995 29.1875 60.4115 28.8255 59.7656 28.1016C59.1198 27.3724 58.7969 26.349 58.7969 25.0312C58.7969 23.7865 59.1484 22.7734 59.8516 21.9922C60.5599 21.2057 61.4375 20.8125 62.4844 20.8125C63.5312 20.8125 64.3411 21.151 64.9141 21.8281C65.487 22.5052 65.7734 23.4453 65.7734 24.6484V25.3203ZM64.4609 24.2344C64.4557 23.4948 64.276 22.9193 63.9219 22.5078C63.5729 22.0964 63.0859 21.8906 62.4609 21.8906C61.8568 21.8906 61.3438 22.1068 60.9219 22.5391C60.5 22.9714 60.2396 23.5365 60.1406 24.2344H64.4609ZM74.3594 29H73.0781V24.4375C73.0781 22.7396 72.4583 21.8906 71.2188 21.8906C70.5781 21.8906 70.0469 22.1328 69.625 22.6172C69.2083 23.0964 69 23.7031 69 24.4375V29H67.7188V21H69V22.3281H69.0312C69.6354 21.3177 70.5104 20.8125 71.6562 20.8125C72.5312 20.8125 73.2005 21.0964 73.6641 21.6641C74.1276 22.2266 74.3594 23.0417 74.3594 24.1094V29ZM83.6094 29H82.3281V27.6406H82.2969C81.7031 28.6719 80.7865 29.1875 79.5469 29.1875C78.5417 29.1875 77.737 28.8307 77.1328 28.1172C76.5339 27.3984 76.2344 26.4219 76.2344 25.1875C76.2344 23.8646 76.5677 22.8047 77.2344 22.0078C77.901 21.2109 78.7891 20.8125 79.8984 20.8125C80.9974 20.8125 81.7969 21.2448 82.2969 22.1094H82.3281V17.1562H83.6094V29ZM82.3281 25.3828V24.2031C82.3281 23.5573 82.1146 23.0104 81.6875 22.5625C81.2604 22.1146 80.7188 21.8906 80.0625 21.8906C79.2812 21.8906 78.6667 22.1771 78.2188 22.75C77.7708 23.3229 77.5469 24.1146 77.5469 25.125C77.5469 26.0469 77.7604 26.776 78.1875 27.3125C78.6198 27.8438 79.1979 28.1094 79.9219 28.1094C80.6354 28.1094 81.2135 27.8516 81.6562 27.3359C82.1042 26.8203 82.3281 26.1693 82.3281 25.3828ZM92.6328 25.3203H86.9844C87.0052 26.2109 87.2448 26.8984 87.7031 27.3828C88.1615 27.8672 88.7917 28.1094 89.5938 28.1094C90.4948 28.1094 91.3229 27.8125 92.0781 27.2188V28.4219C91.375 28.9323 90.4453 29.1875 89.2891 29.1875C88.1589 29.1875 87.2708 28.8255 86.625 28.1016C85.9792 27.3724 85.6562 26.349 85.6562 25.0312C85.6562 23.7865 86.0078 22.7734 86.7109 21.9922C87.4193 21.2057 88.2969 20.8125 89.3438 20.8125C90.3906 20.8125 91.2005 21.151 91.7734 21.8281C92.3464 22.5052 92.6328 23.4453 92.6328 24.6484V25.3203ZM91.3203 24.2344C91.3151 23.4948 91.1354 22.9193 90.7812 22.5078C90.4323 22.0964 89.9453 21.8906 89.3203 21.8906C88.7161 21.8906 88.2031 22.1068 87.7812 22.5391C87.3594 22.9714 87.099 23.5365 87 24.2344H91.3203ZM98.75 22.2969C98.526 22.125 98.2031 22.0391 97.7812 22.0391C97.2344 22.0391 96.776 22.2969 96.4062 22.8125C96.0417 23.3281 95.8594 24.0312 95.8594 24.9219V29H94.5781V21H95.8594V22.6484H95.8906C96.0729 22.0859 96.3516 21.6484 96.7266 21.3359C97.1016 21.0182 97.5208 20.8594 97.9844 20.8594C98.3177 20.8594 98.5729 20.8958 98.75 20.9688V22.2969Z" fill="#ADBAC7"/>
<path d="M4 2H114V0H4V2ZM116 4V41H118V4H116ZM114 43H4V45H114V43ZM2 41V4H0V41H2ZM4 43C2.89543 43 2 42.1046 2 41H0C0 43.2091 1.79087 45 4 45V43ZM116 41C116 42.1046 115.105 43 114 43V45C116.209 45 118 43.2091 118 41H116ZM114 2C115.105 2 116 2.89543 116 4H118C118 1.79086 116.209 0 114 0V2ZM4 0C1.79086 0 0 1.79086 0 4H2C2 2.89543 2.89543 2 4 2V0Z" fill="#444C56"/>
</svg>
