<svg width="87" height="36" viewBox="0 0 87 36" fill="none" xmlns="http://www.w3.org/2000/svg">
<g filter="url(#filter0_d)">
<path d="M2 3C2 1.34315 3.34315 0 5 0H82C83.6569 0 85 1.34315 85 3V29C85 30.6569 83.6569 32 82 32H5C3.34314 32 2 30.6569 2 29V3Z" fill="#C9D1D9"/>
<g clip-path="url(#clip0)">
<path d="M17.062 16.7869C17.1275 15.6196 17.699 14.5913 18.5614 13.8623C19.407 13.1463 20.5452 12.7087 21.7871 12.7087C23.0278 12.7087 24.166 13.1463 25.0123 13.8623C25.874 14.5913 26.4456 15.6196 26.5117 16.7857C26.577 17.985 26.095 19.0992 25.2493 19.925C24.387 20.7651 23.1605 21.2922 21.7871 21.2922C20.4137 21.2922 19.1848 20.7651 18.3231 19.925C17.4768 19.0991 16.996 17.9849 17.062 16.7869Z" fill="white"/>
<path d="M19.3633 16.891C19.3968 16.2921 19.6901 15.7644 20.1326 15.3904C20.5665 15.0231 21.1505 14.7985 21.7877 14.7985C22.4243 14.7985 23.0084 15.0231 23.4426 15.3904C23.8847 15.7644 24.178 16.2921 24.2119 16.8905C24.2455 17.5058 23.9982 18.0775 23.5642 18.5012C23.1218 18.9323 22.4924 19.2028 21.7877 19.2028C21.0831 19.2028 20.4525 18.9323 20.0103 18.5012C19.5761 18.0775 19.3294 17.5058 19.3633 16.891Z" fill="#265787"/>
<path d="M15.5147 18.1214C15.519 18.3562 15.5938 18.8127 15.7062 19.1691C15.9423 19.9235 16.3429 20.6216 16.9002 21.2366C17.4722 21.8689 18.1765 22.3768 18.99 22.7373C19.8451 23.116 20.7715 23.3089 21.7338 23.3074C22.6946 23.306 23.6211 23.1093 24.4762 22.7277C25.2897 22.3637 25.9933 21.8536 26.5644 21.2211C27.1214 20.6034 27.5213 19.9042 27.7581 19.1498C27.8771 18.7686 27.9523 18.3817 27.9825 17.9934C28.012 17.6105 27.9995 17.2254 27.9454 16.8451C27.8393 16.0993 27.5812 15.3994 27.1839 14.7614C26.8205 14.1752 26.352 13.662 25.7949 13.23L25.7962 13.2291L20.1749 8.91271C20.1698 8.90891 20.1656 8.90484 20.1602 8.90132C19.7914 8.61818 19.1712 8.61917 18.7656 8.90287C18.3555 9.18981 18.3085 9.66435 18.6735 9.96359L18.672 9.96521L21.0166 11.8718L13.8704 11.8794H13.8608C13.2701 11.8801 12.7024 12.2677 12.5899 12.7574C12.4744 13.2563 12.8757 13.6702 13.4898 13.6725L13.4888 13.6746L17.111 13.6676L10.6474 18.629C10.6392 18.635 10.6303 18.6413 10.6227 18.6474C10.013 19.1143 9.81588 19.8906 10.1999 20.3819C10.5897 20.8816 11.4184 20.8825 12.0345 20.3848L15.562 17.4978C15.562 17.4978 15.5106 17.8875 15.5147 18.1214ZM24.5794 19.4265C23.8525 20.167 22.8349 20.5869 21.7339 20.5891C20.6312 20.591 19.6137 20.1749 18.8868 19.4357C18.5316 19.0755 18.2708 18.6609 18.1098 18.2194C17.9516 17.7849 17.8907 17.321 17.9315 16.8604C17.9699 16.4062 18.1051 15.9729 18.3209 15.5809C18.5329 15.1956 18.8249 14.8474 19.1855 14.5529C19.892 13.9772 20.7915 13.6654 21.7322 13.6642C22.674 13.6629 23.5728 13.9718 24.2801 14.5456C24.64 14.8388 24.9317 15.1858 25.1437 15.5705C25.3623 15.9646 25.4956 16.4003 25.5347 16.8493C25.5749 17.3096 25.5138 17.7731 25.3557 18.2073C25.1944 18.6502 24.9345 19.0647 24.5794 19.4265Z" fill="#EA7600"/>
</g>
<path d="M36.9902 20V11.4688H39.7793C40.7051 11.4688 41.4004 11.6602 41.8652 12.043C42.334 12.4258 42.5684 12.9922 42.5684 13.7422C42.5684 14.1406 42.4551 14.4941 42.2285 14.8027C42.002 15.1074 41.6934 15.3438 41.3027 15.5117C41.7637 15.6406 42.127 15.8867 42.3926 16.25C42.6621 16.6094 42.7969 17.0391 42.7969 17.5391C42.7969 18.3047 42.5488 18.9062 42.0527 19.3438C41.5566 19.7812 40.8555 20 39.9492 20H36.9902ZM38.1152 16.0098V19.0801H39.9727C40.4961 19.0801 40.9082 18.9453 41.209 18.6758C41.5137 18.4023 41.666 18.0273 41.666 17.5508C41.666 16.5234 41.1074 16.0098 39.9902 16.0098H38.1152ZM38.1152 15.1074H39.8145C40.3066 15.1074 40.6992 14.9844 40.9922 14.7383C41.2891 14.4922 41.4375 14.1582 41.4375 13.7363C41.4375 13.2676 41.3008 12.9277 41.0273 12.7168C40.7539 12.502 40.3379 12.3945 39.7793 12.3945H38.1152V15.1074ZM45.4746 20H44.3906V11H45.4746V20ZM49.8457 20.1172C48.9863 20.1172 48.2871 19.8359 47.748 19.2734C47.209 18.707 46.9395 17.9512 46.9395 17.0059V16.8066C46.9395 16.1777 47.0586 15.6172 47.2969 15.125C47.5391 14.6289 47.875 14.2422 48.3047 13.9648C48.7383 13.6836 49.207 13.543 49.7109 13.543C50.5352 13.543 51.1758 13.8145 51.6328 14.3574C52.0898 14.9004 52.3184 15.6777 52.3184 16.6895V17.1406H48.0234C48.0391 17.7656 48.2207 18.2715 48.5684 18.6582C48.9199 19.041 49.3652 19.2324 49.9043 19.2324C50.2871 19.2324 50.6113 19.1543 50.877 18.998C51.1426 18.8418 51.375 18.6348 51.5742 18.377L52.2363 18.8926C51.7051 19.709 50.9082 20.1172 49.8457 20.1172ZM49.7109 14.4336C49.2734 14.4336 48.9062 14.5938 48.6094 14.9141C48.3125 15.2305 48.1289 15.6758 48.0586 16.25H51.2344V16.168C51.2031 15.6172 51.0547 15.1914 50.7891 14.8906C50.5234 14.5859 50.1641 14.4336 49.7109 14.4336ZM54.6035 13.6602L54.6387 14.457C55.123 13.8477 55.7559 13.543 56.5371 13.543C57.877 13.543 58.5527 14.2988 58.5645 15.8105V20H57.4805V15.8047C57.4766 15.3477 57.3711 15.0098 57.1641 14.791C56.9609 14.5723 56.6426 14.4629 56.209 14.4629C55.8574 14.4629 55.5488 14.5566 55.2832 14.7441C55.0176 14.9316 54.8105 15.1777 54.6621 15.4824V20H53.5781V13.6602H54.6035ZM59.9355 16.7773C59.9355 15.8047 60.166 15.0234 60.627 14.4336C61.0879 13.8398 61.6914 13.543 62.4375 13.543C63.1797 13.543 63.7676 13.7969 64.2012 14.3047V11H65.2852V20H64.2891L64.2363 19.3203C63.8027 19.8516 63.1992 20.1172 62.4258 20.1172C61.6914 20.1172 61.0918 19.8164 60.627 19.2148C60.166 18.6133 59.9355 17.8281 59.9355 16.8594V16.7773ZM61.0195 16.9004C61.0195 17.6191 61.168 18.1816 61.4648 18.5879C61.7617 18.9941 62.1719 19.1973 62.6953 19.1973C63.3828 19.1973 63.8848 18.8887 64.2012 18.2715V15.3594C63.877 14.7617 63.3789 14.4629 62.707 14.4629C62.1758 14.4629 61.7617 14.668 61.4648 15.0781C61.168 15.4883 61.0195 16.0957 61.0195 16.9004ZM69.6035 20.1172C68.7441 20.1172 68.0449 19.8359 67.5059 19.2734C66.9668 18.707 66.6973 17.9512 66.6973 17.0059V16.8066C66.6973 16.1777 66.8164 15.6172 67.0547 15.125C67.2969 14.6289 67.6328 14.2422 68.0625 13.9648C68.4961 13.6836 68.9648 13.543 69.4688 13.543C70.293 13.543 70.9336 13.8145 71.3906 14.3574C71.8477 14.9004 72.0762 15.6777 72.0762 16.6895V17.1406H67.7812C67.7969 17.7656 67.9785 18.2715 68.3262 18.6582C68.6777 19.041 69.123 19.2324 69.6621 19.2324C70.0449 19.2324 70.3691 19.1543 70.6348 18.998C70.9004 18.8418 71.1328 18.6348 71.332 18.377L71.9941 18.8926C71.4629 19.709 70.666 20.1172 69.6035 20.1172ZM69.4688 14.4336C69.0312 14.4336 68.6641 14.5938 68.3672 14.9141C68.0703 15.2305 67.8867 15.6758 67.8164 16.25H70.9922V16.168C70.9609 15.6172 70.8125 15.1914 70.5469 14.8906C70.2812 14.5859 69.9219 14.4336 69.4688 14.4336ZM76.4004 14.6328C76.2363 14.6055 76.0586 14.5918 75.8672 14.5918C75.1562 14.5918 74.6738 14.8945 74.4199 15.5V20H73.3359V13.6602H74.3906L74.4082 14.3926C74.7637 13.8262 75.2676 13.543 75.9199 13.543C76.1309 13.543 76.291 13.5703 76.4004 13.625V14.6328Z" fill="#22272E"/>
</g>
<defs>
<filter id="filter0_d" x="0" y="0" width="87" height="36" filterUnits="userSpaceOnUse" color-interpolation-filters="sRGB">
<feFlood flood-opacity="0" result="BackgroundImageFix"/>
<feColorMatrix in="SourceAlpha" type="matrix" values="0 0 0 0 0 0 0 0 0 0 0 0 0 0 0 0 0 0 127 0" result="hardAlpha"/>
<feOffset dy="2"/>
<feGaussianBlur stdDeviation="1"/>
<feComposite in2="hardAlpha" operator="out"/>
<feColorMatrix type="matrix" values="0 0 0 0 0 0 0 0 0 0 0 0 0 0 0 0 0 0 0.25 0"/>
<feBlend mode="normal" in2="BackgroundImageFix" result="effect1_dropShadow"/>
<feBlend mode="normal" in="SourceGraphic" in2="effect1_dropShadow" result="shape"/>
</filter>
<clipPath id="clip0">
<rect width="18" height="14.6209" fill="white" transform="translate(10 8.68953)"/>
</clipPath>
</defs>
</svg>
