<svg width="85" height="34" viewBox="0 0 85 34" fill="none" xmlns="http://www.w3.org/2000/svg">
<path d="M1 4C1 2.34315 2.34315 1 4 1H81C82.6569 1 84 2.34315 84 4V30C84 31.6569 82.6569 33 81 33H4C2.34314 33 1 31.6569 1 30V4Z" fill="#C9D1D9"/>
<g clip-path="url(#clip0)">
<path d="M16.062 17.7869C16.1275 16.6196 16.699 15.5913 17.5614 14.8623C18.407 14.1463 19.5452 13.7087 20.7871 13.7087C22.0278 13.7087 23.166 14.1463 24.0123 14.8623C24.874 15.5913 25.4456 16.6196 25.5117 17.7857C25.577 18.985 25.095 20.0992 24.2493 20.925C23.387 21.7651 22.1605 22.2922 20.7871 22.2922C19.4137 22.2922 18.1848 21.7651 17.3231 20.925C16.4768 20.0991 15.996 18.9849 16.062 17.7869Z" fill="white"/>
<path d="M18.3633 17.891C18.3968 17.2921 18.6901 16.7644 19.1326 16.3904C19.5665 16.0231 20.1505 15.7985 20.7877 15.7985C21.4243 15.7985 22.0084 16.0231 22.4426 16.3904C22.8847 16.7644 23.178 17.2921 23.2119 17.8905C23.2455 18.5058 22.9982 19.0775 22.5642 19.5012C22.1218 19.9323 21.4924 20.2028 20.7877 20.2028C20.0831 20.2028 19.4525 19.9323 19.0103 19.5012C18.5761 19.0775 18.3294 18.5058 18.3633 17.891Z" fill="#265787"/>
<path d="M14.5147 19.1214C14.519 19.3562 14.5938 19.8127 14.7062 20.1691C14.9423 20.9235 15.3429 21.6216 15.9002 22.2366C16.4722 22.8689 17.1765 23.3768 17.99 23.7373C18.8451 24.116 19.7715 24.3089 20.7338 24.3074C21.6946 24.306 22.6211 24.1093 23.4762 23.7277C24.2897 23.3637 24.9933 22.8536 25.5644 22.2211C26.1214 21.6034 26.5213 20.9042 26.7581 20.1498C26.8771 19.7686 26.9523 19.3817 26.9825 18.9934C27.012 18.6105 26.9995 18.2254 26.9454 17.8451C26.8393 17.0993 26.5812 16.3994 26.1839 15.7614C25.8205 15.1752 25.352 14.662 24.7949 14.23L24.7962 14.2291L19.1749 9.91271C19.1698 9.90891 19.1656 9.90484 19.1602 9.90132C18.7914 9.61818 18.1712 9.61917 17.7656 9.90287C17.3555 10.1898 17.3085 10.6644 17.6735 10.9636L17.672 10.9652L20.0166 12.8718L12.8704 12.8794H12.8608C12.2701 12.8801 11.7024 13.2677 11.5899 13.7574C11.4744 14.2563 11.8757 14.6702 12.4898 14.6725L12.4888 14.6746L16.111 14.6676L9.64744 19.629C9.63922 19.635 9.63029 19.6413 9.6227 19.6474C9.01298 20.1143 8.81588 20.8906 9.19989 21.3819C9.58966 21.8816 10.4184 21.8825 11.0345 21.3848L14.562 18.4978C14.562 18.4978 14.5106 18.8875 14.5147 19.1214ZM23.5794 20.4265C22.8525 21.167 21.8349 21.5869 20.7339 21.5891C19.6312 21.591 18.6137 21.1749 17.8868 20.4357C17.5316 20.0755 17.2708 19.6609 17.1098 19.2194C16.9516 18.7849 16.8907 18.321 16.9315 17.8604C16.9699 17.4062 17.1051 16.9729 17.3209 16.5809C17.5329 16.1956 17.8249 15.8474 18.1855 15.5529C18.892 14.9772 19.7915 14.6654 20.7322 14.6642C21.674 14.6629 22.5728 14.9718 23.2801 15.5456C23.64 15.8388 23.9317 16.1858 24.1437 16.5705C24.3623 16.9646 24.4956 17.4003 24.5347 17.8493C24.5749 18.3096 24.5138 18.7731 24.3557 19.2073C24.1944 19.6502 23.9345 20.0647 23.5794 20.4265Z" fill="#EA7600"/>
</g>
<path d="M35.9902 21V12.4688H38.7793C39.7051 12.4688 40.4004 12.6602 40.8652 13.043C41.334 13.4258 41.5684 13.9922 41.5684 14.7422C41.5684 15.1406 41.4551 15.4941 41.2285 15.8027C41.002 16.1074 40.6934 16.3438 40.3027 16.5117C40.7637 16.6406 41.127 16.8867 41.3926 17.25C41.6621 17.6094 41.7969 18.0391 41.7969 18.5391C41.7969 19.3047 41.5488 19.9062 41.0527 20.3438C40.5566 20.7812 39.8555 21 38.9492 21H35.9902ZM37.1152 17.0098V20.0801H38.9727C39.4961 20.0801 39.9082 19.9453 40.209 19.6758C40.5137 19.4023 40.666 19.0273 40.666 18.5508C40.666 17.5234 40.1074 17.0098 38.9902 17.0098H37.1152ZM37.1152 16.1074H38.8145C39.3066 16.1074 39.6992 15.9844 39.9922 15.7383C40.2891 15.4922 40.4375 15.1582 40.4375 14.7363C40.4375 14.2676 40.3008 13.9277 40.0273 13.7168C39.7539 13.502 39.3379 13.3945 38.7793 13.3945H37.1152V16.1074ZM44.4746 21H43.3906V12H44.4746V21ZM48.8457 21.1172C47.9863 21.1172 47.2871 20.8359 46.748 20.2734C46.209 19.707 45.9395 18.9512 45.9395 18.0059V17.8066C45.9395 17.1777 46.0586 16.6172 46.2969 16.125C46.5391 15.6289 46.875 15.2422 47.3047 14.9648C47.7383 14.6836 48.207 14.543 48.7109 14.543C49.5352 14.543 50.1758 14.8145 50.6328 15.3574C51.0898 15.9004 51.3184 16.6777 51.3184 17.6895V18.1406H47.0234C47.0391 18.7656 47.2207 19.2715 47.5684 19.6582C47.9199 20.041 48.3652 20.2324 48.9043 20.2324C49.2871 20.2324 49.6113 20.1543 49.877 19.998C50.1426 19.8418 50.375 19.6348 50.5742 19.377L51.2363 19.8926C50.7051 20.709 49.9082 21.1172 48.8457 21.1172ZM48.7109 15.4336C48.2734 15.4336 47.9062 15.5938 47.6094 15.9141C47.3125 16.2305 47.1289 16.6758 47.0586 17.25H50.2344V17.168C50.2031 16.6172 50.0547 16.1914 49.7891 15.8906C49.5234 15.5859 49.1641 15.4336 48.7109 15.4336ZM53.6035 14.6602L53.6387 15.457C54.123 14.8477 54.7559 14.543 55.5371 14.543C56.877 14.543 57.5527 15.2988 57.5645 16.8105V21H56.4805V16.8047C56.4766 16.3477 56.3711 16.0098 56.1641 15.791C55.9609 15.5723 55.6426 15.4629 55.209 15.4629C54.8574 15.4629 54.5488 15.5566 54.2832 15.7441C54.0176 15.9316 53.8105 16.1777 53.6621 16.4824V21H52.5781V14.6602H53.6035ZM58.9355 17.7773C58.9355 16.8047 59.166 16.0234 59.627 15.4336C60.0879 14.8398 60.6914 14.543 61.4375 14.543C62.1797 14.543 62.7676 14.7969 63.2012 15.3047V12H64.2852V21H63.2891L63.2363 20.3203C62.8027 20.8516 62.1992 21.1172 61.4258 21.1172C60.6914 21.1172 60.0918 20.8164 59.627 20.2148C59.166 19.6133 58.9355 18.8281 58.9355 17.8594V17.7773ZM60.0195 17.9004C60.0195 18.6191 60.168 19.1816 60.4648 19.5879C60.7617 19.9941 61.1719 20.1973 61.6953 20.1973C62.3828 20.1973 62.8848 19.8887 63.2012 19.2715V16.3594C62.877 15.7617 62.3789 15.4629 61.707 15.4629C61.1758 15.4629 60.7617 15.668 60.4648 16.0781C60.168 16.4883 60.0195 17.0957 60.0195 17.9004ZM68.6035 21.1172C67.7441 21.1172 67.0449 20.8359 66.5059 20.2734C65.9668 19.707 65.6973 18.9512 65.6973 18.0059V17.8066C65.6973 17.1777 65.8164 16.6172 66.0547 16.125C66.2969 15.6289 66.6328 15.2422 67.0625 14.9648C67.4961 14.6836 67.9648 14.543 68.4688 14.543C69.293 14.543 69.9336 14.8145 70.3906 15.3574C70.8477 15.9004 71.0762 16.6777 71.0762 17.6895V18.1406H66.7812C66.7969 18.7656 66.9785 19.2715 67.3262 19.6582C67.6777 20.041 68.123 20.2324 68.6621 20.2324C69.0449 20.2324 69.3691 20.1543 69.6348 19.998C69.9004 19.8418 70.1328 19.6348 70.332 19.377L70.9941 19.8926C70.4629 20.709 69.666 21.1172 68.6035 21.1172ZM68.4688 15.4336C68.0312 15.4336 67.6641 15.5938 67.3672 15.9141C67.0703 16.2305 66.8867 16.6758 66.8164 17.25H69.9922V17.168C69.9609 16.6172 69.8125 16.1914 69.5469 15.8906C69.2812 15.5859 68.9219 15.4336 68.4688 15.4336ZM75.4004 15.6328C75.2363 15.6055 75.0586 15.5918 74.8672 15.5918C74.1562 15.5918 73.6738 15.8945 73.4199 16.5V21H72.3359V14.6602H73.3906L73.4082 15.3926C73.7637 14.8262 74.2676 14.543 74.9199 14.543C75.1309 14.543 75.291 14.5703 75.4004 14.625V15.6328Z" fill="#22272E"/>
<path d="M4 2H81V0H4V2ZM83 4V30H85V4H83ZM81 32H4V34H81V32ZM2 30V4H0V30H2ZM4 32C2.89543 32 2 31.1046 2 30H0C0 32.2091 1.79086 34 4 34V32ZM83 30C83 31.1046 82.1046 32 81 32V34C83.2091 34 85 32.2091 85 30H83ZM81 2C82.1046 2 83 2.89543 83 4H85C85 1.79086 83.2091 0 81 0V2ZM4 0C1.79086 0 0 1.79086 0 4H2C2 2.89543 2.89543 2 4 2V0Z" fill="#30363D"/>
<defs>
<clipPath id="clip0">
<rect width="18" height="14.6209" fill="white" transform="translate(9 9.68953)"/>
</clipPath>
</defs>
</svg>
