<svg width="78" height="28" viewBox="0 0 78 28" fill="none" xmlns="http://www.w3.org/2000/svg">
<g filter="url(#filter0_d)">
<path d="M2 5C2 2.23858 4.23858 0 7 0H71C73.7614 0 76 2.23858 76 5V19C76 21.7614 73.7614 24 71 24H7C4.23858 24 2 21.7614 2 19V5Z" fill="white"/>
<g clip-path="url(#clip0)">
<path d="M14.062 12.7869C14.1275 11.6196 14.699 10.5913 15.5614 9.86232C16.407 9.14632 17.5452 8.70868 18.7871 8.70868C20.0278 8.70868 21.166 9.14632 22.0123 9.86232C22.874 10.5913 23.4456 11.6196 23.5117 12.7857C23.577 13.985 23.095 15.0992 22.2493 15.925C21.387 16.7651 20.1605 17.2922 18.7871 17.2922C17.4137 17.2922 16.1848 16.7651 15.3231 15.925C14.4768 15.0991 13.996 13.9849 14.062 12.7869V12.7869Z" fill="white"/>
<path d="M16.3633 12.891C16.3968 12.2921 16.6901 11.7644 17.1326 11.3904C17.5665 11.0231 18.1505 10.7985 18.7877 10.7985C19.4243 10.7985 20.0084 11.0231 20.4426 11.3904C20.8847 11.7644 21.178 12.2921 21.2119 12.8905C21.2455 13.5058 20.9982 14.0775 20.5642 14.5012C20.1218 14.9323 19.4924 15.2028 18.7877 15.2028C18.0831 15.2028 17.4525 14.9323 17.0103 14.5012C16.5761 14.0775 16.3294 13.5058 16.3633 12.891V12.891Z" fill="#265787"/>
<path d="M12.5147 14.1214C12.519 14.3562 12.5938 14.8127 12.7062 15.1691C12.9423 15.9235 13.3429 16.6216 13.9002 17.2366C14.4722 17.8689 15.1765 18.3768 15.99 18.7373C16.8451 19.116 17.7715 19.3089 18.7338 19.3074C19.6946 19.306 20.6211 19.1093 21.4762 18.7277C22.2897 18.3637 22.9933 17.8536 23.5644 17.2211C24.1214 16.6034 24.5213 15.9042 24.7581 15.1498C24.8771 14.7686 24.9523 14.3817 24.9825 13.9934C25.012 13.6105 24.9995 13.2254 24.9454 12.8451C24.8393 12.0993 24.5812 11.3994 24.1839 10.7614C23.8205 10.1752 23.352 9.66199 22.7949 9.22997L22.7962 9.22905L17.1749 4.91271C17.1698 4.90891 17.1656 4.90484 17.1602 4.90132C16.7914 4.61818 16.1712 4.61917 15.7656 4.90287C15.3555 5.18981 15.3085 5.66435 15.6735 5.96359L15.672 5.96521L18.0166 7.87183L10.8704 7.87943H10.8608C10.2701 7.88013 9.70239 8.26765 9.58992 8.75739C9.47443 9.25632 9.87566 9.67021 10.4898 9.67246L10.4888 9.67464L14.111 9.66761L7.64744 14.629C7.63922 14.635 7.63029 14.6413 7.6227 14.6474C7.01298 15.1143 6.81588 15.8906 7.19989 16.3819C7.58966 16.8816 8.41842 16.8825 9.03447 16.3848L12.562 13.4978C12.562 13.4978 12.5106 13.8875 12.5147 14.1214ZM21.5794 15.4265C20.8525 16.167 19.8349 16.5869 18.7339 16.5891C17.6312 16.591 16.6137 16.1749 15.8868 15.4357C15.5316 15.0755 15.2708 14.6609 15.1098 14.2194C14.9516 13.7849 14.8907 13.321 14.9315 12.8604C14.9699 12.4062 15.1051 11.9729 15.3209 11.5809C15.5329 11.1956 15.8249 10.8474 16.1855 10.5529C16.892 9.97718 17.7915 9.66543 18.7322 9.66416C19.674 9.6629 20.5728 9.97177 21.2801 10.5456C21.64 10.8388 21.9317 11.1858 22.1437 11.5705C22.3623 11.9646 22.4956 12.4003 22.5347 12.8493C22.5749 13.3096 22.5138 13.7731 22.3557 14.2073C22.1944 14.6502 21.9345 15.0647 21.5794 15.4265V15.4265Z" fill="#EA7600"/>
</g>
<path d="M30.9902 16V7.46875H33.7793C34.7051 7.46875 35.4004 7.66016 35.8652 8.04297C36.334 8.42578 36.5684 8.99219 36.5684 9.74219C36.5684 10.1406 36.4551 10.4941 36.2285 10.8027C36.002 11.1074 35.6934 11.3438 35.3027 11.5117C35.7637 11.6406 36.127 11.8867 36.3926 12.25C36.6621 12.6094 36.7969 13.0391 36.7969 13.5391C36.7969 14.3047 36.5488 14.9062 36.0527 15.3438C35.5566 15.7812 34.8555 16 33.9492 16H30.9902ZM32.1152 12.0098V15.0801H33.9727C34.4961 15.0801 34.9082 14.9453 35.209 14.6758C35.5137 14.4023 35.666 14.0273 35.666 13.5508C35.666 12.5234 35.1074 12.0098 33.9902 12.0098H32.1152ZM32.1152 11.1074H33.8145C34.3066 11.1074 34.6992 10.9844 34.9922 10.7383C35.2891 10.4922 35.4375 10.1582 35.4375 9.73633C35.4375 9.26758 35.3008 8.92773 35.0273 8.7168C34.7539 8.50195 34.3379 8.39453 33.7793 8.39453H32.1152V11.1074ZM39.4746 16H38.3906V7H39.4746V16ZM43.8457 16.1172C42.9863 16.1172 42.2871 15.8359 41.748 15.2734C41.209 14.707 40.9395 13.9512 40.9395 13.0059V12.8066C40.9395 12.1777 41.0586 11.6172 41.2969 11.125C41.5391 10.6289 41.875 10.2422 42.3047 9.96484C42.7383 9.68359 43.207 9.54297 43.7109 9.54297C44.5352 9.54297 45.1758 9.81445 45.6328 10.3574C46.0898 10.9004 46.3184 11.6777 46.3184 12.6895V13.1406H42.0234C42.0391 13.7656 42.2207 14.2715 42.5684 14.6582C42.9199 15.041 43.3652 15.2324 43.9043 15.2324C44.2871 15.2324 44.6113 15.1543 44.877 14.998C45.1426 14.8418 45.375 14.6348 45.5742 14.377L46.2363 14.8926C45.7051 15.709 44.9082 16.1172 43.8457 16.1172ZM43.7109 10.4336C43.2734 10.4336 42.9062 10.5938 42.6094 10.9141C42.3125 11.2305 42.1289 11.6758 42.0586 12.25H45.2344V12.168C45.2031 11.6172 45.0547 11.1914 44.7891 10.8906C44.5234 10.5859 44.1641 10.4336 43.7109 10.4336ZM48.6035 9.66016L48.6387 10.457C49.123 9.84766 49.7559 9.54297 50.5371 9.54297C51.877 9.54297 52.5527 10.2988 52.5645 11.8105V16H51.4805V11.8047C51.4766 11.3477 51.3711 11.0098 51.1641 10.791C50.9609 10.5723 50.6426 10.4629 50.209 10.4629C49.8574 10.4629 49.5488 10.5566 49.2832 10.7441C49.0176 10.9316 48.8105 11.1777 48.6621 11.4824V16H47.5781V9.66016H48.6035ZM53.9355 12.7773C53.9355 11.8047 54.166 11.0234 54.627 10.4336C55.0879 9.83984 55.6914 9.54297 56.4375 9.54297C57.1797 9.54297 57.7676 9.79688 58.2012 10.3047V7H59.2852V16H58.2891L58.2363 15.3203C57.8027 15.8516 57.1992 16.1172 56.4258 16.1172C55.6914 16.1172 55.0918 15.8164 54.627 15.2148C54.166 14.6133 53.9355 13.8281 53.9355 12.8594V12.7773ZM55.0195 12.9004C55.0195 13.6191 55.168 14.1816 55.4648 14.5879C55.7617 14.9941 56.1719 15.1973 56.6953 15.1973C57.3828 15.1973 57.8848 14.8887 58.2012 14.2715V11.3594C57.877 10.7617 57.3789 10.4629 56.707 10.4629C56.1758 10.4629 55.7617 10.668 55.4648 11.0781C55.168 11.4883 55.0195 12.0957 55.0195 12.9004ZM63.6035 16.1172C62.7441 16.1172 62.0449 15.8359 61.5059 15.2734C60.9668 14.707 60.6973 13.9512 60.6973 13.0059V12.8066C60.6973 12.1777 60.8164 11.6172 61.0547 11.125C61.2969 10.6289 61.6328 10.2422 62.0625 9.96484C62.4961 9.68359 62.9648 9.54297 63.4688 9.54297C64.293 9.54297 64.9336 9.81445 65.3906 10.3574C65.8477 10.9004 66.0762 11.6777 66.0762 12.6895V13.1406H61.7812C61.7969 13.7656 61.9785 14.2715 62.3262 14.6582C62.6777 15.041 63.123 15.2324 63.6621 15.2324C64.0449 15.2324 64.3691 15.1543 64.6348 14.998C64.9004 14.8418 65.1328 14.6348 65.332 14.377L65.9941 14.8926C65.4629 15.709 64.666 16.1172 63.6035 16.1172ZM63.4688 10.4336C63.0312 10.4336 62.6641 10.5938 62.3672 10.9141C62.0703 11.2305 61.8867 11.6758 61.8164 12.25H64.9922V12.168C64.9609 11.6172 64.8125 11.1914 64.5469 10.8906C64.2812 10.5859 63.9219 10.4336 63.4688 10.4336ZM70.4004 10.6328C70.2363 10.6055 70.0586 10.5918 69.8672 10.5918C69.1562 10.5918 68.6738 10.8945 68.4199 11.5V16H67.3359V9.66016H68.3906L68.4082 10.3926C68.7637 9.82617 69.2676 9.54297 69.9199 9.54297C70.1309 9.54297 70.291 9.57031 70.4004 9.625V10.6328Z" fill="black"/>
</g>
<defs>
<filter id="filter0_d" x="0" y="0" width="78" height="28" filterUnits="userSpaceOnUse" color-interpolation-filters="sRGB">
<feFlood flood-opacity="0" result="BackgroundImageFix"/>
<feColorMatrix in="SourceAlpha" type="matrix" values="0 0 0 0 0 0 0 0 0 0 0 0 0 0 0 0 0 0 127 0" result="hardAlpha"/>
<feOffset dy="2"/>
<feGaussianBlur stdDeviation="1"/>
<feComposite in2="hardAlpha" operator="out"/>
<feColorMatrix type="matrix" values="0 0 0 0 0 0 0 0 0 0 0 0 0 0 0 0 0 0 0.25 0"/>
<feBlend mode="normal" in2="BackgroundImageFix" result="effect1_dropShadow"/>
<feBlend mode="normal" in="SourceGraphic" in2="effect1_dropShadow" result="shape"/>
</filter>
<clipPath id="clip0">
<rect width="18" height="14.6209" fill="white" transform="translate(7 4.68953)"/>
</clipPath>
</defs>
</svg>
