<svg width="100" height="39" viewBox="0 0 100 39" fill="none" xmlns="http://www.w3.org/2000/svg">
<path d="M1 4C1 2.34315 2.34315 1 4 1H96C97.6569 1 99 2.34315 99 4V35C99 36.6569 97.6569 38 96 38H4C2.34314 38 1 36.6569 1 35V4Z" fill="#22272E"/>
<path d="M20.3202 20.2582C20.348 19.758 20.5925 19.3178 20.9622 19.005C21.3505 18.6821 21.8403 18.5068 22.3452 18.51C22.8777 18.51 23.3652 18.6975 23.729 19.005C24.098 19.3178 24.3432 19.7587 24.371 20.2582C24.3995 20.7727 24.1932 21.2505 23.8302 21.6045C23.4307 21.9857 22.8982 22.1961 22.346 22.191C21.7933 22.1964 21.2602 21.986 20.8602 21.6045C20.498 21.2505 20.291 20.7727 20.3202 20.2582Z" fill="#ADBAC7"/>
<path d="M17.093 21.2707C17.0968 21.4657 17.1598 21.846 17.2528 22.1437C17.4554 22.7841 17.7953 23.3725 18.2488 23.868C18.7349 24.4029 19.3286 24.829 19.991 25.1182C20.7116 25.4361 21.491 25.5984 22.2785 25.5945C23.0668 25.5955 23.8464 25.4306 24.5668 25.1107C25.2283 24.818 25.8213 24.3901 26.3075 23.8545C26.7601 23.3575 27.0994 22.7681 27.302 22.1272C27.401 21.8142 27.4639 21.4908 27.4895 21.1635C27.5602 20.217 27.3269 19.2727 26.8235 18.468C26.5163 17.9767 26.1239 17.5442 25.6648 17.1907L25.6655 17.19L20.9788 13.5907L20.9668 13.5802C20.6585 13.3447 20.141 13.3455 19.8035 13.5817C19.4608 13.821 19.4225 14.2162 19.7255 14.4667L19.7248 14.4675L21.6793 16.0582L15.722 16.065H15.713C15.221 16.065 14.7478 16.389 14.654 16.797C14.558 17.2132 14.8925 17.5582 15.4048 17.5597L15.404 17.562L18.4243 17.556L13.0333 21.693L13.013 21.7087C12.5053 22.098 12.341 22.7452 12.6605 23.1555C12.986 23.5725 13.676 23.5725 14.1905 23.157L17.132 20.7502C17.1328 20.7502 17.09 21.075 17.093 21.2707V21.2707ZM24.6515 22.3582C24.0455 22.9762 23.198 23.3265 22.2793 23.328C21.3598 23.3295 20.5123 22.9822 19.9055 22.3657C19.6187 22.0786 19.3976 21.7327 19.2575 21.3517C19.1252 20.9895 19.0743 20.6026 19.1083 20.2185C19.1413 19.8397 19.253 19.4782 19.4338 19.152C19.6108 18.8302 19.8553 18.5407 20.1553 18.294C20.757 17.8101 21.5072 17.5484 22.2793 17.553C23.0507 17.5468 23.8007 17.8063 24.4033 18.288C24.7025 18.5325 24.947 18.8212 25.124 19.1422C25.304 19.4692 25.4165 19.8292 25.4495 20.208C25.4834 20.5921 25.4327 20.9789 25.301 21.3412C25.1595 21.7227 24.9381 22.0694 24.6515 22.3582V22.3582Z" fill="#ADBAC7"/>
<path d="M42.2852 25V15.1973H45.0742C45.9219 15.1973 46.5941 15.4046 47.0908 15.8193C47.5876 16.234 47.8359 16.7741 47.8359 17.4395C47.8359 17.9954 47.6855 18.4785 47.3848 18.8887C47.084 19.2988 46.6693 19.5905 46.1406 19.7637V19.791C46.8014 19.8685 47.3301 20.1191 47.7266 20.543C48.123 20.9622 48.3213 21.5091 48.3213 22.1836C48.3213 23.0221 48.0205 23.7012 47.4189 24.2207C46.8174 24.7402 46.0586 25 45.1426 25H42.2852ZM43.4336 16.2363V19.4014H44.6094C45.2383 19.4014 45.7327 19.251 46.0928 18.9502C46.4528 18.6449 46.6328 18.2165 46.6328 17.665C46.6328 16.7126 46.0062 16.2363 44.7529 16.2363H43.4336ZM43.4336 20.4336V23.9609H44.9922C45.6667 23.9609 46.1885 23.8014 46.5576 23.4824C46.9313 23.1634 47.1182 22.7259 47.1182 22.1699C47.1182 21.0124 46.3298 20.4336 44.7529 20.4336H43.4336ZM51.2812 25H50.1602V14.6367H51.2812V25ZM59.1768 21.7803H54.2344C54.2526 22.5596 54.4622 23.1611 54.8633 23.585C55.2643 24.0088 55.8158 24.2207 56.5176 24.2207C57.306 24.2207 58.0306 23.9609 58.6914 23.4414V24.4941C58.0762 24.9408 57.2627 25.1641 56.251 25.1641C55.262 25.1641 54.485 24.8473 53.9199 24.2139C53.3548 23.5758 53.0723 22.6803 53.0723 21.5273C53.0723 20.4382 53.3799 19.5518 53.9951 18.8682C54.6149 18.18 55.3828 17.8359 56.2988 17.8359C57.2148 17.8359 57.9235 18.1322 58.4248 18.7246C58.9261 19.3171 59.1768 20.1396 59.1768 21.1924V21.7803ZM58.0283 20.8301C58.0238 20.1829 57.8665 19.6794 57.5566 19.3193C57.2513 18.9593 56.8252 18.7793 56.2783 18.7793C55.7497 18.7793 55.3008 18.9684 54.9316 19.3467C54.5625 19.7249 54.3346 20.2194 54.248 20.8301H58.0283ZM66.6895 25H65.5684V21.0078C65.5684 19.5221 65.026 18.7793 63.9414 18.7793C63.3809 18.7793 62.916 18.9912 62.5469 19.415C62.1823 19.8343 62 20.3652 62 21.0078V25H60.8789V18H62V19.1621H62.0273C62.556 18.278 63.3216 17.8359 64.3242 17.8359C65.0898 17.8359 65.6755 18.0843 66.0811 18.5811C66.4867 19.0732 66.6895 19.7865 66.6895 20.7207V25ZM74.7832 25H73.6621V23.8105H73.6348C73.1152 24.7129 72.3132 25.1641 71.2285 25.1641C70.349 25.1641 69.6449 24.8519 69.1162 24.2275C68.5921 23.5986 68.3301 22.7441 68.3301 21.6641C68.3301 20.5065 68.6217 19.5791 69.2051 18.8818C69.7884 18.1846 70.5654 17.8359 71.5361 17.8359C72.4977 17.8359 73.1973 18.2142 73.6348 18.9707H73.6621V14.6367H74.7832V25ZM73.6621 21.835V20.8027C73.6621 20.2376 73.4753 19.7591 73.1016 19.3672C72.7279 18.9753 72.2539 18.7793 71.6797 18.7793C70.9961 18.7793 70.4583 19.0299 70.0664 19.5312C69.6745 20.0326 69.4785 20.7253 69.4785 21.6094C69.4785 22.416 69.6654 23.054 70.0391 23.5234C70.4173 23.9883 70.9232 24.2207 71.5566 24.2207C72.181 24.2207 72.6868 23.9951 73.0742 23.5439C73.4661 23.0928 73.6621 22.5231 73.6621 21.835ZM82.6787 21.7803H77.7363C77.7546 22.5596 77.9642 23.1611 78.3652 23.585C78.7663 24.0088 79.3177 24.2207 80.0195 24.2207C80.8079 24.2207 81.5326 23.9609 82.1934 23.4414V24.4941C81.5781 24.9408 80.7646 25.1641 79.7529 25.1641C78.764 25.1641 77.987 24.8473 77.4219 24.2139C76.8568 23.5758 76.5742 22.6803 76.5742 21.5273C76.5742 20.4382 76.8818 19.5518 77.4971 18.8682C78.1169 18.18 78.8848 17.8359 79.8008 17.8359C80.7168 17.8359 81.4255 18.1322 81.9268 18.7246C82.4281 19.3171 82.6787 20.1396 82.6787 21.1924V21.7803ZM81.5303 20.8301C81.5257 20.1829 81.3685 19.6794 81.0586 19.3193C80.7533 18.9593 80.3271 18.7793 79.7803 18.7793C79.2516 18.7793 78.8027 18.9684 78.4336 19.3467C78.0645 19.7249 77.8366 20.2194 77.75 20.8301H81.5303ZM88.0312 19.1348C87.8353 18.9844 87.5527 18.9092 87.1836 18.9092C86.7051 18.9092 86.304 19.1348 85.9805 19.5859C85.6615 20.0371 85.502 20.6523 85.502 21.4316V25H84.3809V18H85.502V19.4424H85.5293C85.6888 18.9502 85.9326 18.5674 86.2607 18.2939C86.5889 18.016 86.9557 17.877 87.3613 17.877C87.653 17.877 87.8763 17.9089 88.0312 17.9727V19.1348Z" fill="#ADBAC7"/>
<path d="M4 2H96V0H4V2ZM98 4V35H100V4H98ZM96 37H4V39H96V37ZM2 35V4H0V35H2ZM4 37C2.89543 37 2 36.1046 2 35H0C0 37.2091 1.79086 39 4 39V37ZM98 35C98 36.1046 97.1046 37 96 37V39C98.2091 39 100 37.2091 100 35H98ZM96 2C97.1046 2 98 2.89543 98 4H100C100 1.79086 98.2091 0 96 0V2ZM4 0C1.79086 0 0 1.79086 0 4H2C2 2.89543 2.89543 2 4 2V0Z" fill="#ADBCA7"/>
</svg>
