<svg xmlns="http://www.w3.org/2000/svg" width="150" height="56" fill="none"><rect width="132" height="48" x="9" y="4" fill="#E0F7FA" rx="4"/><g clip-path="url(#a)"><path fill="#fff" d="M37.416 29.05c.087-1.557.85-2.928 2-3.9 1.127-.955 2.644-1.538 4.3-1.538 1.654 0 3.172.583 4.3 1.538 1.15.972 1.912 2.343 2 3.898.087 1.599-.556 3.084-1.683 4.185-1.15 1.12-2.786 1.823-4.617 1.823-1.83 0-3.47-.703-4.619-1.823-1.128-1.1-1.769-2.586-1.68-4.184Z"/><path fill="#265787" d="M40.484 29.188c.045-.798.436-1.502 1.026-2a3.415 3.415 0 0 1 2.207-.79c.849 0 1.628.3 2.206.79.59.498.981 1.202 1.026 2 .045.82-.285 1.582-.863 2.147a3.381 3.381 0 0 1-2.369.935c-.94 0-1.78-.36-2.37-.935-.579-.565-.908-1.327-.863-2.147Z"/><path fill="#EA7600" d="M35.353 30.828c.005.314.105.922.255 1.397a7.368 7.368 0 0 0 1.592 2.757 8.222 8.222 0 0 0 2.787 2.001 8.954 8.954 0 0 0 3.658.76 8.965 8.965 0 0 0 3.656-.773 8.284 8.284 0 0 0 2.785-2.009 7.433 7.433 0 0 0 1.591-2.761 6.987 6.987 0 0 0 .25-3.073 7.118 7.118 0 0 0-1.015-2.778 7.75 7.75 0 0 0-1.852-2.042l.002-.002-7.496-5.755-.02-.015c-.49-.378-1.318-.376-1.859.002-.546.383-.61 1.015-.122 1.414l-.002.003 3.126 2.542-9.529.01h-.012c-.788 0-1.545.517-1.695 1.17-.154.666.381 1.218 1.2 1.22l-.001.003 4.83-.009-8.619 6.615-.033.025c-.813.622-1.076 1.657-.564 2.313.52.666 1.625.667 2.447.003l4.703-3.849s-.069.52-.063.831Zm12.086 1.74c-.969.988-2.326 1.548-3.794 1.55-1.47.003-2.827-.552-3.796-1.537a4.513 4.513 0 0 1-1.036-1.622 4.28 4.28 0 0 1 .281-3.518 4.701 4.701 0 0 1 1.153-1.37 5.374 5.374 0 0 1 3.396-1.186c1.256-.001 2.454.41 3.397 1.176.48.39.869.853 1.151 1.366.292.526.47 1.107.522 1.705a4.221 4.221 0 0 1-.239 1.811 4.534 4.534 0 0 1-1.035 1.626Z"/></g><path fill="#000" d="M69.469 34.5V23.297h3.187c.969 0 1.737.237 2.305.71.568.475.852 1.092.852 1.852 0 .636-.172 1.188-.516 1.657-.344.468-.818.802-1.422 1v.03c.755.09 1.36.376 1.813.86.453.48.68 1.104.68 1.875 0 .959-.345 1.735-1.032 2.328-.688.594-1.555.891-2.602.891H69.47Zm1.312-10.016v3.618h1.344c.719 0 1.284-.172 1.695-.516.412-.349.618-.839.618-1.469 0-1.088-.717-1.633-2.149-1.633h-1.508Zm0 4.797v4.032h1.781c.771 0 1.368-.183 1.79-.547.427-.365.64-.865.64-1.5 0-1.323-.9-1.985-2.703-1.985h-1.508ZM79.75 34.5h-1.281V22.656h1.281V34.5Zm9.023-3.68h-5.648c.02.89.26 1.578.719 2.063.458.484 1.088.726 1.89.726.901 0 1.73-.297 2.485-.89v1.203c-.703.51-1.633.766-2.79.766-1.13 0-2.017-.363-2.663-1.086-.646-.73-.97-1.753-.97-3.07 0-1.245.352-2.259 1.056-3.04.708-.786 1.585-1.18 2.632-1.18 1.047 0 1.857.339 2.43 1.016.573.677.86 1.617.86 2.82v.672Zm-1.312-1.086c-.005-.74-.185-1.315-.54-1.726-.348-.412-.835-.617-1.46-.617a2.07 2.07 0 0 0-1.54.648c-.421.432-.681.997-.78 1.695h4.32Zm9.898 4.766h-1.28v-4.563c0-1.697-.62-2.546-1.86-2.546-.64 0-1.172.242-1.594.726-.417.48-.625 1.086-.625 1.82V34.5h-1.281v-8H92v1.328h.031c.604-1.01 1.48-1.515 2.625-1.515.875 0 1.544.283 2.008.851.464.563.695 1.378.695 2.445V34.5Zm9.25 0h-1.281v-1.36h-.031c-.594 1.032-1.511 1.547-2.75 1.547-1.005 0-1.81-.356-2.414-1.07-.6-.719-.899-1.695-.899-2.93 0-1.322.334-2.382 1-3.18.667-.796 1.555-1.195 2.664-1.195 1.099 0 1.899.433 2.399 1.297h.031v-4.953h1.281V34.5Zm-1.281-3.617v-1.18c0-.646-.213-1.193-.64-1.64-.428-.448-.969-.672-1.626-.672-.781 0-1.395.286-1.843.859-.448.573-.672 1.365-.672 2.375 0 .922.213 1.651.641 2.188.432.53 1.01.796 1.734.796.713 0 1.292-.257 1.734-.773.448-.516.672-1.167.672-1.953Zm10.305-.063h-5.649c.021.89.261 1.578.719 2.063.458.484 1.089.726 1.891.726.901 0 1.729-.297 2.484-.89v1.203c-.703.51-1.633.766-2.789.766-1.13 0-2.018-.363-2.664-1.086-.646-.73-.969-1.753-.969-3.07 0-1.245.352-2.259 1.055-3.04.708-.786 1.586-1.18 2.633-1.18s1.857.339 2.429 1.016c.573.677.86 1.617.86 2.82v.672Zm-1.313-1.086c-.005-.74-.185-1.315-.539-1.726-.349-.412-.836-.617-1.461-.617a2.07 2.07 0 0 0-1.539.648c-.422.432-.682.997-.781 1.695h4.32Zm7.43-1.937c-.224-.172-.547-.258-.969-.258-.547 0-1.005.258-1.375.773-.364.516-.547 1.22-.547 2.11V34.5h-1.281v-8h1.281v1.648h.032c.182-.562.461-1 .836-1.312a1.896 1.896 0 0 1 1.257-.477c.334 0 .589.037.766.11v1.328Z"/><rect width="132" height="48" x="9" y="4" stroke="#00BCD4" stroke-width="2" rx="4"/><defs><clipPath id="a"><path fill="#fff" d="M28 18.253h24v19.495H28z"/></clipPath></defs></svg>