<svg width="133" height="45" viewBox="0 0 133 45" fill="none" xmlns="http://www.w3.org/2000/svg">
<path d="M1 4C1 2.34314 2.34315 1 4 1H129C130.657 1 132 2.34315 132 4V41C132 42.6569 130.657 44 129 44H4C2.34315 44 1 42.6569 1 41V4Z" fill="#22272E"/>
<path fill-rule="evenodd" clip-rule="evenodd" d="M18.7388 15C17.7113 15 16.9515 15.8993 16.986 16.8735C17.0183 17.811 16.9762 19.0238 16.671 20.013C16.3635 21.0045 15.846 21.633 15 21.714V22.6252C15.846 22.7055 16.3643 23.334 16.6702 24.3263C16.9762 25.3155 17.0183 26.5283 16.9853 27.465C16.9515 28.44 17.7113 29.3392 18.7388 29.3392H29.2628C30.2903 29.3392 31.05 28.44 31.0155 27.465C30.9833 26.5283 31.0253 25.3155 31.3305 24.3263C31.6373 23.334 32.154 22.7062 33 22.6252V21.714C32.154 21.633 31.6373 21.0045 31.3305 20.013C31.0253 19.023 30.9833 17.8103 31.0155 16.8735C31.05 15.8985 30.2895 15 29.2628 15H18.7388ZM27.2025 23.8268C27.2025 25.1693 26.2013 25.983 24.54 25.983H21.7118C21.6308 25.983 21.5532 25.9508 21.4959 25.8936C21.4387 25.8363 21.4065 25.7587 21.4065 25.6777V18.6608C21.4067 18.5799 21.4389 18.5025 21.4962 18.4454C21.5534 18.3883 21.6309 18.3562 21.7118 18.3562H24.5243C25.9095 18.3562 26.8192 19.1063 26.8192 20.259C26.8192 21.0675 26.2073 21.7913 25.428 21.9188V21.9608C26.4893 22.077 27.2032 22.812 27.2032 23.8268H27.2025ZM24.2325 19.323H22.62V21.6015H23.9782C25.0282 21.6015 25.6072 21.1785 25.6072 20.4225C25.6072 19.7145 25.1093 19.323 24.2325 19.323ZM22.62 22.5052V25.0155H24.2925C25.3853 25.0155 25.965 24.5768 25.965 23.7525C25.965 22.9275 25.3695 22.5052 24.222 22.5052H22.62Z" fill="#ADBAC7"/>
<path d="M46.4688 29V17.7969H49.6562C50.625 17.7969 51.3932 18.0339 51.9609 18.5078C52.5286 18.9818 52.8125 19.599 52.8125 20.3594C52.8125 20.9948 52.6406 21.5469 52.2969 22.0156C51.9531 22.4844 51.4792 22.8177 50.875 23.0156V23.0469C51.6302 23.1354 52.2344 23.4219 52.6875 23.9062C53.1406 24.3854 53.3672 25.0104 53.3672 25.7812C53.3672 26.7396 53.0234 27.5156 52.3359 28.1094C51.6484 28.7031 50.7812 29 49.7344 29H46.4688ZM47.7812 18.9844V22.6016H49.125C49.8438 22.6016 50.4089 22.4297 50.8203 22.0859C51.2318 21.737 51.4375 21.2474 51.4375 20.6172C51.4375 19.5286 50.7214 18.9844 49.2891 18.9844H47.7812ZM47.7812 23.7812V27.8125H49.5625C50.3333 27.8125 50.9297 27.6302 51.3516 27.2656C51.7786 26.901 51.9922 26.401 51.9922 25.7656C51.9922 24.4427 51.0911 23.7812 49.2891 23.7812H47.7812ZM58.8125 29.1875C57.6302 29.1875 56.6849 28.8151 55.9766 28.0703C55.2734 27.3203 54.9219 26.3281 54.9219 25.0938C54.9219 23.75 55.2891 22.7005 56.0234 21.9453C56.7578 21.1901 57.75 20.8125 59 20.8125C60.1927 20.8125 61.1224 21.1797 61.7891 21.9141C62.4609 22.6484 62.7969 23.6667 62.7969 24.9688C62.7969 26.2448 62.4349 27.2682 61.7109 28.0391C60.9922 28.8047 60.026 29.1875 58.8125 29.1875ZM58.9062 21.8906C58.0833 21.8906 57.4323 22.1719 56.9531 22.7344C56.474 23.2917 56.2344 24.0625 56.2344 25.0469C56.2344 25.9948 56.4766 26.7422 56.9609 27.2891C57.4453 27.8359 58.0938 28.1094 58.9062 28.1094C59.7344 28.1094 60.3698 27.8411 60.8125 27.3047C61.2604 26.7682 61.4844 26.0052 61.4844 25.0156C61.4844 24.0156 61.2604 23.2448 60.8125 22.7031C60.3698 22.1615 59.7344 21.8906 58.9062 21.8906ZM68.1875 29.1875C67.0052 29.1875 66.0599 28.8151 65.3516 28.0703C64.6484 27.3203 64.2969 26.3281 64.2969 25.0938C64.2969 23.75 64.6641 22.7005 65.3984 21.9453C66.1328 21.1901 67.125 20.8125 68.375 20.8125C69.5677 20.8125 70.4974 21.1797 71.1641 21.9141C71.8359 22.6484 72.1719 23.6667 72.1719 24.9688C72.1719 26.2448 71.8099 27.2682 71.0859 28.0391C70.3672 28.8047 69.401 29.1875 68.1875 29.1875ZM68.2812 21.8906C67.4583 21.8906 66.8073 22.1719 66.3281 22.7344C65.849 23.2917 65.6094 24.0625 65.6094 25.0469C65.6094 25.9948 65.8516 26.7422 66.3359 27.2891C66.8203 27.8359 67.4688 28.1094 68.2812 28.1094C69.1094 28.1094 69.7448 27.8411 70.1875 27.3047C70.6354 26.7682 70.8594 26.0052 70.8594 25.0156C70.8594 24.0156 70.6354 23.2448 70.1875 22.7031C69.7448 22.1615 69.1094 21.8906 68.2812 21.8906ZM77.9297 28.9219C77.6276 29.0885 77.2292 29.1719 76.7344 29.1719C75.3333 29.1719 74.6328 28.3906 74.6328 26.8281V22.0938H73.2578V21H74.6328V19.0469L75.9141 18.6328V21H77.9297V22.0938H75.9141V26.6016C75.9141 27.138 76.0052 27.5208 76.1875 27.75C76.3698 27.9792 76.6719 28.0938 77.0938 28.0938C77.4167 28.0938 77.6953 28.0052 77.9297 27.8281V28.9219ZM79.1562 28.7109V27.3359C79.8542 27.8516 80.6224 28.1094 81.4609 28.1094C82.5859 28.1094 83.1484 27.7344 83.1484 26.9844C83.1484 26.7708 83.099 26.5911 83 26.4453C82.9062 26.2943 82.776 26.1615 82.6094 26.0469C82.4479 25.9323 82.2552 25.8307 82.0312 25.7422C81.8125 25.6484 81.5755 25.5521 81.3203 25.4531C80.9661 25.3125 80.6536 25.1719 80.3828 25.0312C80.1172 24.8854 79.8932 24.724 79.7109 24.5469C79.5339 24.3646 79.3984 24.1589 79.3047 23.9297C79.2161 23.7005 79.1719 23.4323 79.1719 23.125C79.1719 22.75 79.2578 22.4193 79.4297 22.1328C79.6016 21.8411 79.8307 21.599 80.1172 21.4062C80.4036 21.2083 80.7292 21.0599 81.0938 20.9609C81.4635 20.862 81.8438 20.8125 82.2344 20.8125C82.9271 20.8125 83.5469 20.9323 84.0938 21.1719V22.4688C83.5052 22.0833 82.8281 21.8906 82.0625 21.8906C81.8229 21.8906 81.6068 21.9193 81.4141 21.9766C81.2214 22.0286 81.0547 22.1042 80.9141 22.2031C80.7786 22.3021 80.6719 22.4219 80.5938 22.5625C80.5208 22.6979 80.4844 22.849 80.4844 23.0156C80.4844 23.224 80.5208 23.3984 80.5938 23.5391C80.6719 23.6797 80.7839 23.8047 80.9297 23.9141C81.0755 24.0234 81.2526 24.1224 81.4609 24.2109C81.6693 24.2995 81.9062 24.3958 82.1719 24.5C82.526 24.6354 82.8438 24.776 83.125 24.9219C83.4062 25.0625 83.6458 25.224 83.8438 25.4062C84.0417 25.5833 84.1927 25.7891 84.2969 26.0234C84.4062 26.2578 84.4609 26.5365 84.4609 26.8594C84.4609 27.2552 84.3724 27.599 84.1953 27.8906C84.0234 28.1823 83.7917 28.4245 83.5 28.6172C83.2083 28.8099 82.8724 28.9531 82.4922 29.0469C82.112 29.1406 81.7135 29.1875 81.2969 29.1875C80.474 29.1875 79.7604 29.0286 79.1562 28.7109ZM90.1484 28.9219C89.8464 29.0885 89.4479 29.1719 88.9531 29.1719C87.5521 29.1719 86.8516 28.3906 86.8516 26.8281V22.0938H85.4766V21H86.8516V19.0469L88.1328 18.6328V21H90.1484V22.0938H88.1328V26.6016C88.1328 27.138 88.224 27.5208 88.4062 27.75C88.5885 27.9792 88.8906 28.0938 89.3125 28.0938C89.6354 28.0938 89.9141 28.0052 90.1484 27.8281V28.9219ZM96.0312 22.2969C95.8073 22.125 95.4844 22.0391 95.0625 22.0391C94.5156 22.0391 94.0573 22.2969 93.6875 22.8125C93.3229 23.3281 93.1406 24.0312 93.1406 24.9219V29H91.8594V21H93.1406V22.6484H93.1719C93.3542 22.0859 93.6328 21.6484 94.0078 21.3359C94.3828 21.0182 94.8021 20.8594 95.2656 20.8594C95.599 20.8594 95.8542 20.8958 96.0312 20.9688V22.2969ZM103.148 29H101.867V27.75H101.836C101.279 28.7083 100.458 29.1875 99.375 29.1875C98.5781 29.1875 97.9531 28.9766 97.5 28.5547C97.0521 28.1328 96.8281 27.5729 96.8281 26.875C96.8281 25.3802 97.7083 24.5104 99.4688 24.2656L101.867 23.9297C101.867 22.5703 101.318 21.8906 100.219 21.8906C99.2552 21.8906 98.3854 22.2188 97.6094 22.875V21.5625C98.3958 21.0625 99.3021 20.8125 100.328 20.8125C102.208 20.8125 103.148 21.8073 103.148 23.7969V29ZM101.867 24.9531L99.9375 25.2188C99.3438 25.3021 98.8958 25.4505 98.5938 25.6641C98.2917 25.8724 98.1406 26.2448 98.1406 26.7812C98.1406 27.1719 98.2786 27.4922 98.5547 27.7422C98.8359 27.987 99.2083 28.1094 99.6719 28.1094C100.307 28.1094 100.831 27.888 101.242 27.4453C101.659 26.9974 101.867 26.4323 101.867 25.75V24.9531ZM106.875 27.8438H106.844V32.6797H105.562V21H106.844V22.4062H106.875C107.505 21.3438 108.427 20.8125 109.641 20.8125C110.672 20.8125 111.477 21.1719 112.055 21.8906C112.633 22.6042 112.922 23.5625 112.922 24.7656C112.922 26.1042 112.596 27.1771 111.945 27.9844C111.294 28.7865 110.404 29.1875 109.273 29.1875C108.237 29.1875 107.438 28.7396 106.875 27.8438ZM106.844 24.6172V25.7344C106.844 26.3958 107.057 26.9583 107.484 27.4219C107.917 27.8802 108.464 28.1094 109.125 28.1094C109.901 28.1094 110.508 27.8125 110.945 27.2188C111.388 26.625 111.609 25.7995 111.609 24.7422C111.609 23.8516 111.404 23.1536 110.992 22.6484C110.581 22.1432 110.023 21.8906 109.32 21.8906C108.576 21.8906 107.977 22.151 107.523 22.6719C107.07 23.1875 106.844 23.8359 106.844 24.6172Z" fill="#ADBAC7"/>
<path d="M4 2H129V0H4V2ZM131 4V41H133V4H131ZM129 43H4V45H129V43ZM2 41V4H0V41H2ZM4 43C2.89543 43 2 42.1046 2 41H0C0 43.2091 1.79086 45 4 45V43ZM131 41C131 42.1046 130.105 43 129 43V45C131.209 45 133 43.2091 133 41H131ZM129 2C130.105 2 131 2.89543 131 4H133C133 1.79086 131.209 0 129 0V2ZM4 0C1.79086 0 0 1.79086 0 4H2C2 2.89543 2.89543 2 4 2V0Z" fill="#444C56"/>
</svg>
