<svg width="113" height="39" viewBox="0 0 113 39" fill="none" xmlns="http://www.w3.org/2000/svg">
<path d="M1 4C1 2.34315 2.34315 1 4 1H109C110.657 1 112 2.34315 112 4V35C112 36.6569 110.657 38 109 38H4C2.34314 38 1 36.6569 1 35V4Z" fill="#22272E"/>
<path fill-rule="evenodd" clip-rule="evenodd" d="M14.7388 12C13.7113 12 12.9515 12.8993 12.986 13.8735C13.0183 14.811 12.9762 16.0238 12.671 17.013C12.3635 18.0045 11.846 18.633 11 18.714V19.6252C11.846 19.7055 12.3643 20.334 12.6702 21.3263C12.9762 22.3155 13.0183 23.5283 12.9853 24.465C12.9515 25.44 13.7113 26.3392 14.7388 26.3392H25.2628C26.2903 26.3392 27.05 25.44 27.0155 24.465C26.9833 23.5283 27.0253 22.3155 27.3305 21.3263C27.6373 20.334 28.154 19.7062 29 19.6252V18.714C28.154 18.633 27.6373 18.0045 27.3305 17.013C27.0253 16.023 26.9833 14.8103 27.0155 13.8735C27.05 12.8985 26.2895 12 25.2628 12H14.7388ZM23.2025 20.8268C23.2025 22.1693 22.2013 22.983 20.54 22.983H17.7118C17.6308 22.983 17.5532 22.9508 17.4959 22.8936C17.4387 22.8363 17.4065 22.7587 17.4065 22.6777V15.6608C17.4067 15.5799 17.4389 15.5025 17.4962 15.4454C17.5534 15.3883 17.6309 15.3562 17.7118 15.3562H20.5243C21.9095 15.3562 22.8192 16.1063 22.8192 17.259C22.8192 18.0675 22.2073 18.7913 21.428 18.9188V18.9608C22.4893 19.077 23.2032 19.812 23.2032 20.8268H23.2025ZM20.2325 16.323H18.62V18.6015H19.9782C21.0282 18.6015 21.6072 18.1785 21.6072 17.4225C21.6072 16.7145 21.1093 16.323 20.2325 16.323ZM18.62 19.5052V22.0155H20.2925C21.3853 22.0155 21.965 21.5768 21.965 20.7525C21.965 19.9275 21.3695 19.5052 20.222 19.5052H18.62Z" fill="#C9D1D9"/>
<path d="M42.2852 25V15.1973H45.0742C45.9219 15.1973 46.5941 15.4046 47.0908 15.8193C47.5876 16.234 47.8359 16.7741 47.8359 17.4395C47.8359 17.9954 47.6855 18.4785 47.3848 18.8887C47.084 19.2988 46.6693 19.5905 46.1406 19.7637V19.791C46.8014 19.8685 47.3301 20.1191 47.7266 20.543C48.123 20.9622 48.3213 21.5091 48.3213 22.1836C48.3213 23.0221 48.0205 23.7012 47.4189 24.2207C46.8174 24.7402 46.0586 25 45.1426 25H42.2852ZM43.4336 16.2363V19.4014H44.6094C45.2383 19.4014 45.7327 19.251 46.0928 18.9502C46.4528 18.6449 46.6328 18.2165 46.6328 17.665C46.6328 16.7126 46.0062 16.2363 44.7529 16.2363H43.4336ZM43.4336 20.4336V23.9609H44.9922C45.6667 23.9609 46.1885 23.8014 46.5576 23.4824C46.9313 23.1634 47.1182 22.7259 47.1182 22.1699C47.1182 21.0124 46.3298 20.4336 44.7529 20.4336H43.4336ZM53.0859 25.1641C52.0514 25.1641 51.2243 24.8382 50.6045 24.1865C49.9893 23.5303 49.6816 22.6621 49.6816 21.582C49.6816 20.4062 50.0029 19.488 50.6455 18.8271C51.2881 18.1663 52.1562 17.8359 53.25 17.8359C54.2936 17.8359 55.1071 18.1572 55.6904 18.7998C56.2783 19.4424 56.5723 20.3333 56.5723 21.4727C56.5723 22.5892 56.2555 23.4847 55.6221 24.1592C54.9932 24.8291 54.1478 25.1641 53.0859 25.1641ZM53.168 18.7793C52.4479 18.7793 51.8783 19.0254 51.459 19.5176C51.0397 20.0052 50.8301 20.6797 50.8301 21.541C50.8301 22.3704 51.042 23.0244 51.4658 23.5029C51.8896 23.9814 52.457 24.2207 53.168 24.2207C53.8926 24.2207 54.4486 23.986 54.8359 23.5166C55.2279 23.0472 55.4238 22.3796 55.4238 21.5137C55.4238 20.6387 55.2279 19.9642 54.8359 19.4902C54.4486 19.0163 53.8926 18.7793 53.168 18.7793ZM61.2891 25.1641C60.2546 25.1641 59.4274 24.8382 58.8076 24.1865C58.1924 23.5303 57.8848 22.6621 57.8848 21.582C57.8848 20.4062 58.2061 19.488 58.8486 18.8271C59.4912 18.1663 60.3594 17.8359 61.4531 17.8359C62.4967 17.8359 63.3102 18.1572 63.8936 18.7998C64.4814 19.4424 64.7754 20.3333 64.7754 21.4727C64.7754 22.5892 64.4587 23.4847 63.8252 24.1592C63.1963 24.8291 62.3509 25.1641 61.2891 25.1641ZM61.3711 18.7793C60.651 18.7793 60.0814 19.0254 59.6621 19.5176C59.2428 20.0052 59.0332 20.6797 59.0332 21.541C59.0332 22.3704 59.2451 23.0244 59.6689 23.5029C60.0928 23.9814 60.6602 24.2207 61.3711 24.2207C62.0957 24.2207 62.6517 23.986 63.0391 23.5166C63.431 23.0472 63.627 22.3796 63.627 21.5137C63.627 20.6387 63.431 19.9642 63.0391 19.4902C62.6517 19.0163 62.0957 18.7793 61.3711 18.7793ZM69.8135 24.9316C69.5492 25.0775 69.2005 25.1504 68.7676 25.1504C67.5417 25.1504 66.9287 24.4668 66.9287 23.0996V18.957H65.7256V18H66.9287V16.291L68.0498 15.9287V18H69.8135V18.957H68.0498V22.9014C68.0498 23.3708 68.1296 23.7057 68.2891 23.9062C68.4486 24.1068 68.7129 24.207 69.082 24.207C69.3646 24.207 69.6084 24.1296 69.8135 23.9746V24.9316ZM70.8867 24.7471V23.5439C71.4974 23.9951 72.1696 24.2207 72.9033 24.2207C73.8877 24.2207 74.3799 23.8926 74.3799 23.2363C74.3799 23.0495 74.3366 22.8923 74.25 22.7646C74.168 22.6325 74.054 22.5163 73.9082 22.416C73.7669 22.3158 73.5983 22.2269 73.4023 22.1494C73.2109 22.0674 73.0036 21.9831 72.7803 21.8965C72.4704 21.7734 72.1969 21.6504 71.96 21.5273C71.7275 21.3997 71.5316 21.2585 71.3721 21.1035C71.2171 20.944 71.0986 20.764 71.0166 20.5635C70.9391 20.363 70.9004 20.1283 70.9004 19.8594C70.9004 19.5312 70.9756 19.2419 71.126 18.9912C71.2764 18.736 71.4769 18.5241 71.7275 18.3555C71.9782 18.1823 72.263 18.0524 72.582 17.9658C72.9056 17.8792 73.2383 17.8359 73.5801 17.8359C74.1862 17.8359 74.7285 17.9408 75.207 18.1504V19.2852C74.6921 18.9479 74.0996 18.7793 73.4297 18.7793C73.2201 18.7793 73.0309 18.8044 72.8623 18.8545C72.6937 18.9001 72.5479 18.9661 72.4248 19.0527C72.3063 19.1393 72.2129 19.2441 72.1445 19.3672C72.0807 19.4857 72.0488 19.6178 72.0488 19.7637C72.0488 19.946 72.0807 20.0986 72.1445 20.2217C72.2129 20.3447 72.3109 20.4541 72.4385 20.5498C72.5661 20.6455 72.721 20.7321 72.9033 20.8096C73.0856 20.887 73.293 20.9714 73.5254 21.0625C73.8353 21.181 74.1133 21.304 74.3594 21.4316C74.6055 21.5547 74.8151 21.696 74.9883 21.8555C75.1615 22.0104 75.2936 22.1904 75.3848 22.3955C75.4805 22.6006 75.5283 22.8444 75.5283 23.127C75.5283 23.4733 75.4508 23.7741 75.2959 24.0293C75.1455 24.2845 74.9427 24.4964 74.6875 24.665C74.4323 24.8337 74.1383 24.959 73.8057 25.041C73.473 25.123 73.1243 25.1641 72.7598 25.1641C72.0397 25.1641 71.4154 25.0251 70.8867 24.7471ZM80.5049 24.9316C80.2406 25.0775 79.8919 25.1504 79.459 25.1504C78.2331 25.1504 77.6201 24.4668 77.6201 23.0996V18.957H76.417V18H77.6201V16.291L78.7412 15.9287V18H80.5049V18.957H78.7412V22.9014C78.7412 23.3708 78.821 23.7057 78.9805 23.9062C79.14 24.1068 79.4043 24.207 79.7734 24.207C80.056 24.207 80.2998 24.1296 80.5049 23.9746V24.9316ZM85.6523 19.1348C85.4564 18.9844 85.1738 18.9092 84.8047 18.9092C84.3262 18.9092 83.9251 19.1348 83.6016 19.5859C83.2826 20.0371 83.123 20.6523 83.123 21.4316V25H82.002V18H83.123V19.4424H83.1504C83.3099 18.9502 83.5537 18.5674 83.8818 18.2939C84.21 18.016 84.5768 17.877 84.9824 17.877C85.2741 17.877 85.4974 17.9089 85.6523 17.9727V19.1348ZM91.8799 25H90.7588V23.9062H90.7314C90.2438 24.7448 89.526 25.1641 88.5781 25.1641C87.8809 25.1641 87.334 24.9795 86.9375 24.6104C86.5456 24.2412 86.3496 23.7513 86.3496 23.1406C86.3496 21.8327 87.1198 21.0716 88.6602 20.8574L90.7588 20.5635C90.7588 19.374 90.278 18.7793 89.3164 18.7793C88.4733 18.7793 87.7122 19.0664 87.0332 19.6406V18.4922C87.7214 18.0547 88.5143 17.8359 89.4121 17.8359C91.0573 17.8359 91.8799 18.7064 91.8799 20.4473V25ZM90.7588 21.459L89.0703 21.6914C88.5508 21.7643 88.1589 21.8942 87.8945 22.0811C87.6302 22.2633 87.498 22.5892 87.498 23.0586C87.498 23.4004 87.6188 23.6807 87.8604 23.8994C88.1064 24.1136 88.4323 24.2207 88.8379 24.2207C89.3939 24.2207 89.8519 24.027 90.2119 23.6396C90.5765 23.2477 90.7588 22.7533 90.7588 22.1562V21.459ZM95.1406 23.9883H95.1133V28.2197H93.9922V18H95.1133V19.2305H95.1406C95.6921 18.3008 96.4987 17.8359 97.5605 17.8359C98.4629 17.8359 99.167 18.1504 99.6729 18.7793C100.179 19.4036 100.432 20.2422 100.432 21.2949C100.432 22.4661 100.147 23.4049 99.5771 24.1113C99.0075 24.8132 98.2282 25.1641 97.2393 25.1641C96.3324 25.1641 95.6328 24.7721 95.1406 23.9883ZM95.1133 21.165V22.1426C95.1133 22.7214 95.3001 23.2135 95.6738 23.6191C96.0521 24.0202 96.5306 24.2207 97.1094 24.2207C97.7884 24.2207 98.3193 23.9609 98.7021 23.4414C99.0895 22.9219 99.2832 22.1995 99.2832 21.2744C99.2832 20.4951 99.1032 19.8844 98.7432 19.4424C98.3831 19.0003 97.8955 18.7793 97.2803 18.7793C96.6286 18.7793 96.1045 19.0072 95.708 19.4629C95.3115 19.9141 95.1133 20.4814 95.1133 21.165Z" fill="#C9D1D9"/>
<path d="M4 2H109V0H4V2ZM111 4V35H113V4H111ZM109 37H4V39H109V37ZM2 35V4H0V35H2ZM4 37C2.89543 37 2 36.1046 2 35H0C0 37.2091 1.79086 39 4 39V37ZM111 35C111 36.1046 110.105 37 109 37V39C111.209 39 113 37.2091 113 35H111ZM109 2C110.105 2 111 2.89543 111 4H113C113 1.79086 111.209 0 109 0V2ZM4 0C1.79086 0 0 1.79086 0 4H2C2 2.89543 2.89543 2 4 2V0Z" fill="#C9D1D9"/>
</svg>
