<svg xmlns="http://www.w3.org/2000/svg" width="165" height="56" fill="none"><rect width="147" height="48" x="9" y="4" fill="#FFEBEE" rx="4"/><g clip-path="url(#a)"><path fill="#563D7C" d="M29.33 35.918a2.752 2.752 0 0 0 2.752 2.752h15.836a2.752 2.752 0 0 0 2.752-2.752V20.082a2.751 2.751 0 0 0-2.752-2.752H32.082a2.752 2.752 0 0 0-2.752 2.752v15.836Z"/><path fill="#fff" d="M38.18 26.77v-3.022h2.66c.253 0 .497.02.732.063.235.042.444.117.625.226.18.109.325.26.434.452.108.194.163.44.163.742 0 .543-.163.935-.489 1.177-.325.24-.742.361-1.248.361h-2.878Zm-2.842-5.23v12.92H41.6c.58 0 1.144-.072 1.693-.217a4.525 4.525 0 0 0 1.465-.67c.428-.301.77-.69 1.023-1.167.253-.476.38-1.04.38-1.692 0-.808-.196-1.499-.588-2.072-.393-.573-.987-.974-1.783-1.203.58-.277 1.017-.633 1.312-1.068.296-.434.443-.977.443-1.628 0-.603-.1-1.11-.298-1.52-.2-.41-.48-.74-.842-.986a3.632 3.632 0 0 0-1.303-.534 8.044 8.044 0 0 0-1.682-.163h-6.08Zm2.841 10.712v-3.546h3.095c.615 0 1.11.141 1.484.425.374.284.56.757.56 1.42 0 .338-.057.616-.171.833-.115.217-.269.389-.462.516a1.954 1.954 0 0 1-.67.271 3.797 3.797 0 0 1-.796.081h-3.04Z"/></g><path fill="#000" d="M69.469 34.5V23.297h3.187c.969 0 1.737.237 2.305.71.568.475.852 1.092.852 1.852 0 .636-.172 1.188-.516 1.657-.344.468-.818.802-1.422 1v.03c.755.09 1.36.376 1.813.86.453.48.68 1.104.68 1.875 0 .959-.345 1.735-1.032 2.328-.688.594-1.555.891-2.602.891H69.47Zm1.312-10.016v3.618h1.344c.719 0 1.284-.172 1.695-.516.412-.349.618-.839.618-1.469 0-1.088-.717-1.633-2.149-1.633h-1.508Zm0 4.797v4.032h1.781c.771 0 1.368-.183 1.79-.547.427-.365.64-.865.64-1.5 0-1.323-.9-1.985-2.703-1.985h-1.508Zm11.031 5.407c-1.182 0-2.127-.373-2.835-1.118-.704-.75-1.055-1.742-1.055-2.976 0-1.344.367-2.393 1.101-3.149.735-.755 1.727-1.133 2.977-1.133 1.193 0 2.122.368 2.79 1.102.67.734 1.007 1.753 1.007 3.055 0 1.276-.362 2.3-1.086 3.07-.719.766-1.685 1.148-2.898 1.148Zm.094-7.297c-.823 0-1.474.28-1.953.843-.479.558-.719 1.328-.719 2.313 0 .948.243 1.695.727 2.242.484.547 1.133.82 1.945.82.828 0 1.464-.268 1.906-.804.448-.537.672-1.3.672-2.29 0-1-.224-1.77-.671-2.312-.443-.541-1.079-.812-1.907-.812Zm9.281 7.297c-1.182 0-2.127-.373-2.835-1.118-.704-.75-1.055-1.742-1.055-2.976 0-1.344.367-2.393 1.101-3.149.735-.755 1.727-1.133 2.977-1.133 1.193 0 2.122.368 2.79 1.102.67.734 1.007 1.753 1.007 3.055 0 1.276-.362 2.3-1.086 3.07-.719.766-1.685 1.148-2.898 1.148Zm.094-7.297c-.823 0-1.474.28-1.953.843-.479.558-.719 1.328-.719 2.313 0 .948.243 1.695.727 2.242.484.547 1.133.82 1.945.82.828 0 1.464-.268 1.906-.804.448-.537.672-1.3.672-2.29 0-1-.224-1.77-.671-2.312-.443-.541-1.079-.812-1.907-.812Zm9.649 7.03c-.302.168-.701.25-1.196.25-1.4 0-2.101-.78-2.101-2.343v-4.734h-1.375V26.5h1.375v-1.953l1.281-.414V26.5h2.016v1.094h-2.016v4.508c0 .536.091.919.273 1.148.183.23.485.344.907.344.323 0 .601-.089.836-.266v1.094Zm1.226-.21v-1.375a3.791 3.791 0 0 0 2.305.773c1.125 0 1.687-.375 1.687-1.125a.937.937 0 0 0-.148-.539 1.352 1.352 0 0 0-.391-.398 2.715 2.715 0 0 0-.578-.305c-.219-.094-.455-.19-.711-.289-.354-.14-.666-.281-.937-.422a3.077 3.077 0 0 1-.672-.484 1.914 1.914 0 0 1-.406-.617 2.217 2.217 0 0 1-.133-.805c0-.375.086-.706.258-.992.172-.292.401-.534.687-.727.287-.198.612-.346.977-.445.37-.099.75-.148 1.14-.148.693 0 1.313.12 1.86.359v1.297c-.589-.386-1.266-.578-2.032-.578-.239 0-.455.028-.648.086a1.575 1.575 0 0 0-.5.226 1.112 1.112 0 0 0-.32.36.94.94 0 0 0-.11.453c0 .208.037.382.11.523.078.14.19.266.336.375.146.11.323.208.531.297.208.088.445.185.711.289.354.135.672.276.953.422.281.14.521.302.719.484.198.177.349.383.453.617.109.235.164.513.164.836 0 .396-.089.74-.266 1.032a2.201 2.201 0 0 1-.695.726 3.21 3.21 0 0 1-1.008.43c-.38.094-.778.14-1.195.14-.823 0-1.537-.158-2.141-.476Zm10.992.21c-.302.168-.7.25-1.195.25-1.401 0-2.101-.78-2.101-2.343v-4.734h-1.375V26.5h1.375v-1.953l1.281-.414V26.5h2.015v1.094h-2.015v4.508c0 .536.091.919.273 1.148.183.23.485.344.906.344.323 0 .602-.089.836-.266v1.094Zm5.883-6.624c-.224-.172-.547-.258-.969-.258-.546 0-1.005.258-1.374.773-.365.516-.547 1.22-.547 2.11V34.5h-1.282v-8h1.282v1.648h.031c.182-.562.461-1 .836-1.312a1.897 1.897 0 0 1 1.258-.477c.333 0 .588.037.765.11v1.328Zm7.117 6.703h-1.281v-1.25h-.031c-.557.958-1.378 1.438-2.461 1.438-.797 0-1.422-.211-1.875-.633-.448-.422-.672-.982-.672-1.68 0-1.495.88-2.365 2.641-2.61l2.398-.335c0-1.36-.549-2.04-1.648-2.04-.964 0-1.834.329-2.61.985v-1.313c.787-.5 1.693-.75 2.719-.75 1.88 0 2.82.995 2.82 2.985V34.5Zm-1.281-4.047-1.929.266c-.594.083-1.042.232-1.344.445-.302.208-.453.58-.453 1.117 0 .39.138.711.414.961.281.245.653.367 1.117.367.635 0 1.159-.221 1.57-.664.417-.448.625-1.013.625-1.695v-.797Zm5.008 2.89h-.031v4.837h-1.282V26.5h1.282v1.406h.031c.63-1.062 1.552-1.593 2.766-1.593 1.031 0 1.836.359 2.414 1.078.578.713.867 1.672.867 2.875 0 1.338-.326 2.411-.977 3.218-.651.802-1.541 1.203-2.672 1.203-1.036 0-1.835-.447-2.398-1.343Zm-.031-3.226v1.117c0 .662.213 1.224.64 1.688.433.458.98.687 1.641.687.776 0 1.383-.297 1.82-.89.443-.594.664-1.42.664-2.477 0-.89-.205-1.588-.617-2.094-.411-.505-.969-.757-1.672-.757-.744 0-1.343.26-1.797.78-.453.517-.679 1.165-.679 1.946Z"/><rect width="147" height="48" x="9" y="4" stroke="#F44336" stroke-width="2" rx="4"/><defs><clipPath id="a"><path fill="#fff" d="M29.33 17.33h21.34v21.34H29.33z"/></clipPath></defs></svg>