<svg width="19" height="18" viewBox="0 0 19 18" fill="none" xmlns="http://www.w3.org/2000/svg">
<g clip-path="url(#clip0)">
<path d="M0.995476 15.6791C0.995476 16.961 2.03462 18 3.31642 18H16.6745C17.9565 18 18.9955 16.9609 18.9955 15.6791V2.32102C18.9955 1.03901 17.9563 0 16.6745 0H3.31649C2.03448 0 0.995476 1.03915 0.995476 2.32095V15.679V15.6791Z" fill="#563D7C"/>
<path d="M8.45971 7.96205V5.41301H10.7035C10.9172 5.41301 11.1232 5.4308 11.3216 5.46645C11.5201 5.50202 11.6956 5.56559 11.8483 5.6572C12.0009 5.74882 12.123 5.87602 12.2146 6.03879C12.3062 6.20163 12.352 6.41025 12.352 6.66457C12.352 7.12252 12.2146 7.45327 11.9398 7.65675C11.6651 7.8603 11.314 7.96205 10.8866 7.96205H8.45971ZM6.06325 3.55078V14.4492H11.3446C11.833 14.4492 12.3088 14.3882 12.7718 14.2661C13.2348 14.1439 13.6469 13.9557 14.0081 13.7013C14.3693 13.4469 14.6568 13.1187 14.8705 12.7168C15.0843 12.3148 15.1911 11.8391 15.1911 11.2896C15.1911 10.6078 15.0257 10.0252 14.695 9.5419C14.3643 9.0585 13.8631 8.72016 13.1915 8.5268C13.6799 8.2928 14.0489 7.99256 14.2982 7.62623C14.5474 7.25991 14.6721 6.80203 14.6721 6.25247C14.6721 5.74369 14.5881 5.31633 14.4202 4.97032C14.2523 4.62438 14.0157 4.34707 13.7104 4.13845C13.4052 3.92984 13.0389 3.77972 12.6115 3.68817C12.1841 3.59655 11.7109 3.55078 11.1919 3.55078H6.06325ZM8.45971 12.587V9.59527H11.0698C11.5888 9.59527 12.006 9.7148 12.3215 9.954C12.6369 10.1931 12.7947 10.5925 12.7947 11.1522C12.7947 11.4372 12.7463 11.6712 12.6496 11.8543C12.553 12.0375 12.4232 12.1826 12.2604 12.2894C12.0976 12.3962 11.9093 12.4725 11.6956 12.5184C11.4819 12.5641 11.2581 12.587 11.024 12.587H8.45971Z" fill="white"/>
</g>
<defs>
<clipPath id="clip0">
<rect width="18" height="18" fill="white" transform="translate(0.995476)"/>
</clipPath>
</defs>
</svg>
