<svg width="99" height="36" viewBox="0 0 99 36" fill="none" xmlns="http://www.w3.org/2000/svg">
<g filter="url(#filter0_d)">
<path d="M2 3C2 1.34315 3.34315 0 5 0H94C95.6569 0 97 1.34315 97 3V29C97 30.6569 95.6569 32 94 32H5C3.34315 32 2 30.6569 2 29V3Z" fill="#C9D1D9"/>
<path d="M10 22.6791C10 23.961 11.0391 25 12.3209 25H25.679C26.961 25 28 23.9609 28 22.6791V9.32102C28 8.03901 26.9609 7 25.6791 7H12.321C11.039 7 10 8.03915 10 9.32095V22.679V22.6791Z" fill="#563D7C"/>
<path d="M17.4642 14.962V12.413H19.708C19.9217 12.413 20.1277 12.4308 20.3262 12.4664C20.5246 12.502 20.7002 12.5656 20.8528 12.6572C21.0054 12.7488 21.1275 12.876 21.2191 13.0388C21.3107 13.2016 21.3565 13.4103 21.3565 13.6646C21.3565 14.1225 21.2191 14.4533 20.9444 14.6568C20.6696 14.8603 20.3186 14.962 19.8911 14.962H17.4642V14.962ZM15.0678 10.5508V21.4492H20.3491C20.8376 21.4492 21.3133 21.3882 21.7763 21.2661C22.2393 21.1439 22.6514 20.9557 23.0127 20.7013C23.3739 20.4469 23.6614 20.1187 23.8751 19.7168C24.0888 19.3148 24.1956 18.8391 24.1956 18.2896C24.1956 17.6078 24.0302 17.0252 23.6996 16.5419C23.3688 16.0585 22.8676 15.7202 22.196 15.5268C22.6845 15.2928 23.0534 14.9926 23.3027 14.6262C23.552 14.2599 23.6766 13.802 23.6766 13.2525C23.6766 12.7437 23.5927 12.3163 23.4248 11.9703C23.2569 11.6244 23.0203 11.3471 22.715 11.1385C22.4097 10.9298 22.0434 10.7797 21.616 10.6882C21.1886 10.5966 20.7154 10.5508 20.1964 10.5508H15.0678V10.5508ZM17.4642 19.587V16.5953H20.0743C20.5933 16.5953 21.0105 16.7148 21.326 16.954C21.6414 17.1931 21.7992 17.5925 21.7992 18.1522C21.7992 18.4372 21.7508 18.6712 21.6542 18.8543C21.5575 19.0375 21.4278 19.1826 21.2649 19.2894C21.1021 19.3962 20.9138 19.4725 20.7002 19.5184C20.4864 19.5641 20.2626 19.587 20.0285 19.587H17.4642V19.587Z" fill="white"/>
<path d="M36.9902 20V11.4688H39.7793C40.7051 11.4688 41.4004 11.6602 41.8652 12.043C42.334 12.4258 42.5684 12.9922 42.5684 13.7422C42.5684 14.1406 42.4551 14.4941 42.2285 14.8027C42.002 15.1074 41.6934 15.3438 41.3027 15.5117C41.7637 15.6406 42.127 15.8867 42.3926 16.25C42.6621 16.6094 42.7969 17.0391 42.7969 17.5391C42.7969 18.3047 42.5488 18.9062 42.0527 19.3438C41.5566 19.7812 40.8555 20 39.9492 20H36.9902ZM38.1152 16.0098V19.0801H39.9727C40.4961 19.0801 40.9082 18.9453 41.209 18.6758C41.5137 18.4023 41.666 18.0273 41.666 17.5508C41.666 16.5234 41.1074 16.0098 39.9902 16.0098H38.1152ZM38.1152 15.1074H39.8145C40.3066 15.1074 40.6992 14.9844 40.9922 14.7383C41.2891 14.4922 41.4375 14.1582 41.4375 13.7363C41.4375 13.2676 41.3008 12.9277 41.0273 12.7168C40.7539 12.502 40.3379 12.3945 39.7793 12.3945H38.1152V15.1074ZM44.0098 16.7715C44.0098 16.1504 44.1309 15.5918 44.373 15.0957C44.6191 14.5996 44.959 14.2168 45.3926 13.9473C45.8301 13.6777 46.3281 13.543 46.8867 13.543C47.75 13.543 48.4473 13.8418 48.9785 14.4395C49.5137 15.0371 49.7812 15.832 49.7812 16.8242V16.9004C49.7812 17.5176 49.6621 18.0723 49.4238 18.5645C49.1895 19.0527 48.8516 19.4336 48.4102 19.707C47.9727 19.9805 47.4688 20.1172 46.8984 20.1172C46.0391 20.1172 45.3418 19.8184 44.8066 19.2207C44.2754 18.623 44.0098 17.832 44.0098 16.8477V16.7715ZM45.0996 16.9004C45.0996 17.6035 45.2617 18.168 45.5859 18.5938C45.9141 19.0195 46.3516 19.2324 46.8984 19.2324C47.4492 19.2324 47.8867 19.0176 48.2109 18.5879C48.5352 18.1543 48.6973 17.5488 48.6973 16.7715C48.6973 16.0762 48.5312 15.5137 48.1992 15.084C47.8711 14.6504 47.4336 14.4336 46.8867 14.4336C46.3516 14.4336 45.9199 14.6465 45.5918 15.0723C45.2637 15.498 45.0996 16.1074 45.0996 16.9004ZM50.8535 16.7715C50.8535 16.1504 50.9746 15.5918 51.2168 15.0957C51.4629 14.5996 51.8027 14.2168 52.2363 13.9473C52.6738 13.6777 53.1719 13.543 53.7305 13.543C54.5938 13.543 55.291 13.8418 55.8223 14.4395C56.3574 15.0371 56.625 15.832 56.625 16.8242V16.9004C56.625 17.5176 56.5059 18.0723 56.2676 18.5645C56.0332 19.0527 55.6953 19.4336 55.2539 19.707C54.8164 19.9805 54.3125 20.1172 53.7422 20.1172C52.8828 20.1172 52.1855 19.8184 51.6504 19.2207C51.1191 18.623 50.8535 17.832 50.8535 16.8477V16.7715ZM51.9434 16.9004C51.9434 17.6035 52.1055 18.168 52.4297 18.5938C52.7578 19.0195 53.1953 19.2324 53.7422 19.2324C54.293 19.2324 54.7305 19.0176 55.0547 18.5879C55.3789 18.1543 55.541 17.5488 55.541 16.7715C55.541 16.0762 55.375 15.5137 55.043 15.084C54.7148 14.6504 54.2773 14.4336 53.7305 14.4336C53.1953 14.4336 52.7637 14.6465 52.4355 15.0723C52.1074 15.498 51.9434 16.1074 51.9434 16.9004ZM59.4551 12.125V13.6602H60.6387V14.498H59.4551V18.4297C59.4551 18.6836 59.5078 18.875 59.6133 19.0039C59.7188 19.1289 59.8984 19.1914 60.1523 19.1914C60.2773 19.1914 60.4492 19.168 60.668 19.1211V20C60.3828 20.0781 60.1055 20.1172 59.8359 20.1172C59.3516 20.1172 58.9863 19.9707 58.7402 19.6777C58.4941 19.3848 58.3711 18.9688 58.3711 18.4297V14.498H57.2168V13.6602H58.3711V12.125H59.4551ZM65.6016 18.3184C65.6016 18.0254 65.4902 17.7988 65.2676 17.6387C65.0488 17.4746 64.6641 17.334 64.1133 17.2168C63.5664 17.0996 63.1309 16.959 62.8066 16.7949C62.4863 16.6309 62.248 16.4355 62.0918 16.209C61.9395 15.9824 61.8633 15.7129 61.8633 15.4004C61.8633 14.8809 62.082 14.4414 62.5195 14.082C62.9609 13.7227 63.5234 13.543 64.207 13.543C64.9258 13.543 65.5078 13.7285 65.9531 14.0996C66.4023 14.4707 66.627 14.9453 66.627 15.5234H65.5371C65.5371 15.2266 65.4102 14.9707 65.1562 14.7559C64.9062 14.541 64.5898 14.4336 64.207 14.4336C63.8125 14.4336 63.5039 14.5195 63.2812 14.6914C63.0586 14.8633 62.9473 15.0879 62.9473 15.3652C62.9473 15.627 63.0508 15.8242 63.2578 15.957C63.4648 16.0898 63.8379 16.2168 64.377 16.3379C64.9199 16.459 65.3594 16.6035 65.6953 16.7715C66.0312 16.9395 66.2793 17.1426 66.4395 17.3809C66.6035 17.6152 66.6855 17.9023 66.6855 18.2422C66.6855 18.8086 66.459 19.2637 66.0059 19.6074C65.5527 19.9473 64.9648 20.1172 64.2422 20.1172C63.7344 20.1172 63.2852 20.0273 62.8945 19.8477C62.5039 19.668 62.1973 19.418 61.9746 19.0977C61.7559 18.7734 61.6465 18.4238 61.6465 18.0488H62.7305C62.75 18.4121 62.8945 18.7012 63.1641 18.916C63.4375 19.127 63.7969 19.2324 64.2422 19.2324C64.6523 19.2324 64.9805 19.1504 65.2266 18.9863C65.4766 18.8184 65.6016 18.5957 65.6016 18.3184ZM69.5684 12.125V13.6602H70.752V14.498H69.5684V18.4297C69.5684 18.6836 69.6211 18.875 69.7266 19.0039C69.832 19.1289 70.0117 19.1914 70.2656 19.1914C70.3906 19.1914 70.5625 19.168 70.7812 19.1211V20C70.4961 20.0781 70.2188 20.1172 69.9492 20.1172C69.4648 20.1172 69.0996 19.9707 68.8535 19.6777C68.6074 19.3848 68.4844 18.9688 68.4844 18.4297V14.498H67.3301V13.6602H68.4844V12.125H69.5684ZM75.0879 14.6328C74.9238 14.6055 74.7461 14.5918 74.5547 14.5918C73.8438 14.5918 73.3613 14.8945 73.1074 15.5V20H72.0234V13.6602H73.0781L73.0957 14.3926C73.4512 13.8262 73.9551 13.543 74.6074 13.543C74.8184 13.543 74.9785 13.5703 75.0879 13.625V14.6328ZM79.7695 20C79.707 19.875 79.6562 19.6523 79.6172 19.332C79.1133 19.8555 78.5117 20.1172 77.8125 20.1172C77.1875 20.1172 76.6738 19.9414 76.2715 19.5898C75.873 19.2344 75.6738 18.7852 75.6738 18.2422C75.6738 17.582 75.9238 17.0703 76.4238 16.707C76.9277 16.3398 77.6348 16.1562 78.5449 16.1562H79.5996V15.6582C79.5996 15.2793 79.4863 14.9785 79.2598 14.7559C79.0332 14.5293 78.6992 14.416 78.2578 14.416C77.8711 14.416 77.5469 14.5137 77.2852 14.709C77.0234 14.9043 76.8926 15.1406 76.8926 15.418H75.8027C75.8027 15.1016 75.9141 14.7969 76.1367 14.5039C76.3633 14.207 76.668 13.9727 77.0508 13.8008C77.4375 13.6289 77.8613 13.543 78.3223 13.543C79.0527 13.543 79.625 13.7266 80.0391 14.0938C80.4531 14.457 80.668 14.959 80.6836 15.5996V18.5176C80.6836 19.0996 80.7578 19.5625 80.9062 19.9062V20H79.7695ZM77.9707 19.1738C78.3105 19.1738 78.6328 19.0859 78.9375 18.9102C79.2422 18.7344 79.4629 18.5059 79.5996 18.2246V16.9238H78.75C77.4219 16.9238 76.7578 17.3125 76.7578 18.0898C76.7578 18.4297 76.8711 18.6953 77.0977 18.8867C77.3242 19.0781 77.6152 19.1738 77.9707 19.1738ZM87.7383 16.9004C87.7383 17.8652 87.5176 18.6426 87.0762 19.2324C86.6348 19.8223 86.0371 20.1172 85.2832 20.1172C84.5137 20.1172 83.9082 19.873 83.4668 19.3848V22.4375H82.3828V13.6602H83.373L83.4258 14.3633C83.8672 13.8164 84.4805 13.543 85.2656 13.543C86.0273 13.543 86.6289 13.8301 87.0703 14.4043C87.5156 14.9785 87.7383 15.7773 87.7383 16.8008V16.9004ZM86.6543 16.7773C86.6543 16.0625 86.502 15.498 86.1973 15.084C85.8926 14.6699 85.4746 14.4629 84.9434 14.4629C84.2871 14.4629 83.7949 14.7539 83.4668 15.3359V18.3652C83.791 18.9434 84.2871 19.2324 84.9551 19.2324C85.4746 19.2324 85.8867 19.0273 86.1914 18.6172C86.5 18.2031 86.6543 17.5898 86.6543 16.7773Z" fill="#22272E"/>
</g>
<defs>
<filter id="filter0_d" x="0" y="0" width="99" height="36" filterUnits="userSpaceOnUse" color-interpolation-filters="sRGB">
<feFlood flood-opacity="0" result="BackgroundImageFix"/>
<feColorMatrix in="SourceAlpha" type="matrix" values="0 0 0 0 0 0 0 0 0 0 0 0 0 0 0 0 0 0 127 0" result="hardAlpha"/>
<feOffset dy="2"/>
<feGaussianBlur stdDeviation="1"/>
<feComposite in2="hardAlpha" operator="out"/>
<feColorMatrix type="matrix" values="0 0 0 0 0 0 0 0 0 0 0 0 0 0 0 0 0 0 0.25 0"/>
<feBlend mode="normal" in2="BackgroundImageFix" result="effect1_dropShadow"/>
<feBlend mode="normal" in="SourceGraphic" in2="effect1_dropShadow" result="shape"/>
</filter>
</defs>
</svg>
