<svg width="135" height="47" viewBox="0 0 135 47" fill="none" xmlns="http://www.w3.org/2000/svg">
<rect x="1" y="1" width="133" height="45" rx="4" fill="#22272E"/>
<path fill-rule="evenodd" clip-rule="evenodd" d="M19.7387 16C18.7113 16 17.9515 16.8993 17.986 17.8735C18.0182 18.811 17.9762 20.0237 17.671 21.013C17.3635 22.0045 16.846 22.633 16 22.714V23.6252C16.846 23.7055 17.3642 24.334 17.6702 25.3263C17.9762 26.3155 18.0182 27.5283 17.9852 28.465C17.9515 29.44 18.7113 30.3392 19.7387 30.3392H30.2628C31.2902 30.3392 32.05 29.44 32.0155 28.465C31.9832 27.5283 32.0252 26.3155 32.3305 25.3263C32.6373 24.334 33.154 23.7062 34 23.6252V22.714C33.154 22.633 32.6373 22.0045 32.3305 21.013C32.0252 20.023 31.9832 18.8103 32.0155 17.8735C32.05 16.8985 31.2895 16 30.2628 16H19.7387ZM28.2025 24.8267C28.2025 26.1693 27.2013 26.983 25.54 26.983H22.7118C22.6308 26.983 22.5532 26.9508 22.4959 26.8936C22.4387 26.8363 22.4065 26.7587 22.4065 26.6777V19.6607C22.4067 19.5799 22.4389 19.5025 22.4962 19.4454C22.5534 19.3883 22.6309 19.3562 22.7118 19.3562H25.5243C26.9095 19.3562 27.8193 20.1063 27.8193 21.259C27.8193 22.0675 27.2073 22.7913 26.428 22.9188V22.9608C27.4893 23.077 28.2032 23.812 28.2032 24.8267H28.2025ZM25.2325 20.323H23.62V22.6015H24.9782C26.0282 22.6015 26.6073 22.1785 26.6073 21.4225C26.6073 20.7145 26.1093 20.323 25.2325 20.323ZM23.62 23.5052V26.0155H25.2925C26.3853 26.0155 26.965 25.5767 26.965 24.7525C26.965 23.9275 26.3695 23.5052 25.222 23.5052H23.62Z" fill="#ADBAC7"/>
<path d="M47.4688 30V18.7969H50.6562C51.625 18.7969 52.3932 19.0339 52.9609 19.5078C53.5286 19.9818 53.8125 20.599 53.8125 21.3594C53.8125 21.9948 53.6406 22.5469 53.2969 23.0156C52.9531 23.4844 52.4792 23.8177 51.875 24.0156V24.0469C52.6302 24.1354 53.2344 24.4219 53.6875 24.9062C54.1406 25.3854 54.3672 26.0104 54.3672 26.7812C54.3672 27.7396 54.0234 28.5156 53.3359 29.1094C52.6484 29.7031 51.7812 30 50.7344 30H47.4688ZM48.7812 19.9844V23.6016H50.125C50.8438 23.6016 51.4089 23.4297 51.8203 23.0859C52.2318 22.737 52.4375 22.2474 52.4375 21.6172C52.4375 20.5286 51.7214 19.9844 50.2891 19.9844H48.7812ZM48.7812 24.7812V28.8125H50.5625C51.3333 28.8125 51.9297 28.6302 52.3516 28.2656C52.7786 27.901 52.9922 27.401 52.9922 26.7656C52.9922 25.4427 52.0911 24.7812 50.2891 24.7812H48.7812ZM59.8125 30.1875C58.6302 30.1875 57.6849 29.8151 56.9766 29.0703C56.2734 28.3203 55.9219 27.3281 55.9219 26.0938C55.9219 24.75 56.2891 23.7005 57.0234 22.9453C57.7578 22.1901 58.75 21.8125 60 21.8125C61.1927 21.8125 62.1224 22.1797 62.7891 22.9141C63.4609 23.6484 63.7969 24.6667 63.7969 25.9688C63.7969 27.2448 63.4349 28.2682 62.7109 29.0391C61.9922 29.8047 61.026 30.1875 59.8125 30.1875ZM59.9062 22.8906C59.0833 22.8906 58.4323 23.1719 57.9531 23.7344C57.474 24.2917 57.2344 25.0625 57.2344 26.0469C57.2344 26.9948 57.4766 27.7422 57.9609 28.2891C58.4453 28.8359 59.0938 29.1094 59.9062 29.1094C60.7344 29.1094 61.3698 28.8411 61.8125 28.3047C62.2604 27.7682 62.4844 27.0052 62.4844 26.0156C62.4844 25.0156 62.2604 24.2448 61.8125 23.7031C61.3698 23.1615 60.7344 22.8906 59.9062 22.8906ZM69.1875 30.1875C68.0052 30.1875 67.0599 29.8151 66.3516 29.0703C65.6484 28.3203 65.2969 27.3281 65.2969 26.0938C65.2969 24.75 65.6641 23.7005 66.3984 22.9453C67.1328 22.1901 68.125 21.8125 69.375 21.8125C70.5677 21.8125 71.4974 22.1797 72.1641 22.9141C72.8359 23.6484 73.1719 24.6667 73.1719 25.9688C73.1719 27.2448 72.8099 28.2682 72.0859 29.0391C71.3672 29.8047 70.401 30.1875 69.1875 30.1875ZM69.2812 22.8906C68.4583 22.8906 67.8073 23.1719 67.3281 23.7344C66.849 24.2917 66.6094 25.0625 66.6094 26.0469C66.6094 26.9948 66.8516 27.7422 67.3359 28.2891C67.8203 28.8359 68.4688 29.1094 69.2812 29.1094C70.1094 29.1094 70.7448 28.8411 71.1875 28.3047C71.6354 27.7682 71.8594 27.0052 71.8594 26.0156C71.8594 25.0156 71.6354 24.2448 71.1875 23.7031C70.7448 23.1615 70.1094 22.8906 69.2812 22.8906ZM78.9297 29.9219C78.6276 30.0885 78.2292 30.1719 77.7344 30.1719C76.3333 30.1719 75.6328 29.3906 75.6328 27.8281V23.0938H74.2578V22H75.6328V20.0469L76.9141 19.6328V22H78.9297V23.0938H76.9141V27.6016C76.9141 28.138 77.0052 28.5208 77.1875 28.75C77.3698 28.9792 77.6719 29.0938 78.0938 29.0938C78.4167 29.0938 78.6953 29.0052 78.9297 28.8281V29.9219ZM80.1562 29.7109V28.3359C80.8542 28.8516 81.6224 29.1094 82.4609 29.1094C83.5859 29.1094 84.1484 28.7344 84.1484 27.9844C84.1484 27.7708 84.099 27.5911 84 27.4453C83.9062 27.2943 83.776 27.1615 83.6094 27.0469C83.4479 26.9323 83.2552 26.8307 83.0312 26.7422C82.8125 26.6484 82.5755 26.5521 82.3203 26.4531C81.9661 26.3125 81.6536 26.1719 81.3828 26.0312C81.1172 25.8854 80.8932 25.724 80.7109 25.5469C80.5339 25.3646 80.3984 25.1589 80.3047 24.9297C80.2161 24.7005 80.1719 24.4323 80.1719 24.125C80.1719 23.75 80.2578 23.4193 80.4297 23.1328C80.6016 22.8411 80.8307 22.599 81.1172 22.4062C81.4036 22.2083 81.7292 22.0599 82.0938 21.9609C82.4635 21.862 82.8438 21.8125 83.2344 21.8125C83.9271 21.8125 84.5469 21.9323 85.0938 22.1719V23.4688C84.5052 23.0833 83.8281 22.8906 83.0625 22.8906C82.8229 22.8906 82.6068 22.9193 82.4141 22.9766C82.2214 23.0286 82.0547 23.1042 81.9141 23.2031C81.7786 23.3021 81.6719 23.4219 81.5938 23.5625C81.5208 23.6979 81.4844 23.849 81.4844 24.0156C81.4844 24.224 81.5208 24.3984 81.5938 24.5391C81.6719 24.6797 81.7839 24.8047 81.9297 24.9141C82.0755 25.0234 82.2526 25.1224 82.4609 25.2109C82.6693 25.2995 82.9062 25.3958 83.1719 25.5C83.526 25.6354 83.8438 25.776 84.125 25.9219C84.4062 26.0625 84.6458 26.224 84.8438 26.4062C85.0417 26.5833 85.1927 26.7891 85.2969 27.0234C85.4062 27.2578 85.4609 27.5365 85.4609 27.8594C85.4609 28.2552 85.3724 28.599 85.1953 28.8906C85.0234 29.1823 84.7917 29.4245 84.5 29.6172C84.2083 29.8099 83.8724 29.9531 83.4922 30.0469C83.112 30.1406 82.7135 30.1875 82.2969 30.1875C81.474 30.1875 80.7604 30.0286 80.1562 29.7109ZM91.1484 29.9219C90.8464 30.0885 90.4479 30.1719 89.9531 30.1719C88.5521 30.1719 87.8516 29.3906 87.8516 27.8281V23.0938H86.4766V22H87.8516V20.0469L89.1328 19.6328V22H91.1484V23.0938H89.1328V27.6016C89.1328 28.138 89.224 28.5208 89.4062 28.75C89.5885 28.9792 89.8906 29.0938 90.3125 29.0938C90.6354 29.0938 90.9141 29.0052 91.1484 28.8281V29.9219ZM97.0312 23.2969C96.8073 23.125 96.4844 23.0391 96.0625 23.0391C95.5156 23.0391 95.0573 23.2969 94.6875 23.8125C94.3229 24.3281 94.1406 25.0312 94.1406 25.9219V30H92.8594V22H94.1406V23.6484H94.1719C94.3542 23.0859 94.6328 22.6484 95.0078 22.3359C95.3828 22.0182 95.8021 21.8594 96.2656 21.8594C96.599 21.8594 96.8542 21.8958 97.0312 21.9688V23.2969ZM104.148 30H102.867V28.75H102.836C102.279 29.7083 101.458 30.1875 100.375 30.1875C99.5781 30.1875 98.9531 29.9766 98.5 29.5547C98.0521 29.1328 97.8281 28.5729 97.8281 27.875C97.8281 26.3802 98.7083 25.5104 100.469 25.2656L102.867 24.9297C102.867 23.5703 102.318 22.8906 101.219 22.8906C100.255 22.8906 99.3854 23.2188 98.6094 23.875V22.5625C99.3958 22.0625 100.302 21.8125 101.328 21.8125C103.208 21.8125 104.148 22.8073 104.148 24.7969V30ZM102.867 25.9531L100.938 26.2188C100.344 26.3021 99.8958 26.4505 99.5938 26.6641C99.2917 26.8724 99.1406 27.2448 99.1406 27.7812C99.1406 28.1719 99.2786 28.4922 99.5547 28.7422C99.8359 28.987 100.208 29.1094 100.672 29.1094C101.307 29.1094 101.831 28.888 102.242 28.4453C102.659 27.9974 102.867 27.4323 102.867 26.75V25.9531ZM107.875 28.8438H107.844V33.6797H106.562V22H107.844V23.4062H107.875C108.505 22.3438 109.427 21.8125 110.641 21.8125C111.672 21.8125 112.477 22.1719 113.055 22.8906C113.633 23.6042 113.922 24.5625 113.922 25.7656C113.922 27.1042 113.596 28.1771 112.945 28.9844C112.294 29.7865 111.404 30.1875 110.273 30.1875C109.237 30.1875 108.438 29.7396 107.875 28.8438ZM107.844 25.6172V26.7344C107.844 27.3958 108.057 27.9583 108.484 28.4219C108.917 28.8802 109.464 29.1094 110.125 29.1094C110.901 29.1094 111.508 28.8125 111.945 28.2188C112.388 27.625 112.609 26.7995 112.609 25.7422C112.609 24.8516 112.404 24.1536 111.992 23.6484C111.581 23.1432 111.023 22.8906 110.32 22.8906C109.576 22.8906 108.977 23.151 108.523 23.6719C108.07 24.1875 107.844 24.8359 107.844 25.6172Z" fill="#ADBAC7"/>
<rect x="1" y="1" width="133" height="45" rx="4" stroke="#444C56" stroke-width="2"/>
</svg>
