<svg width="97" height="34" viewBox="0 0 97 34" fill="none" xmlns="http://www.w3.org/2000/svg">
<path d="M1 4C1 2.34315 2.34315 1 4 1H93C94.6569 1 96 2.34315 96 4V30C96 31.6569 94.6569 33 93 33H4C2.34315 33 1 31.6569 1 30V4Z" fill="#C9D1D9"/>
<path d="M9 23.6791C9 24.961 10.0391 26 11.3209 26H24.679C25.961 26 27 24.9609 27 23.6791V10.321C27 9.03901 25.9609 8 24.6791 8H11.321C10.039 8 9 9.03915 9 10.3209V23.679V23.6791Z" fill="#563D7C"/>
<path d="M16.4642 15.962V13.413H18.708C18.9217 13.413 19.1277 13.4308 19.3262 13.4664C19.5246 13.502 19.7002 13.5656 19.8528 13.6572C20.0054 13.7488 20.1275 13.876 20.2191 14.0388C20.3107 14.2016 20.3565 14.4103 20.3565 14.6646C20.3565 15.1225 20.2191 15.4533 19.9444 15.6568C19.6696 15.8603 19.3186 15.962 18.8911 15.962H16.4642ZM14.0678 11.5508V22.4492H19.3491C19.8376 22.4492 20.3133 22.3882 20.7763 22.2661C21.2393 22.1439 21.6514 21.9557 22.0127 21.7013C22.3739 21.4469 22.6614 21.1187 22.8751 20.7168C23.0888 20.3148 23.1956 19.8391 23.1956 19.2896C23.1956 18.6078 23.0302 18.0252 22.6996 17.5419C22.3688 17.0585 21.8676 16.7202 21.196 16.5268C21.6845 16.2928 22.0534 15.9926 22.3027 15.6262C22.552 15.2599 22.6766 14.802 22.6766 14.2525C22.6766 13.7437 22.5927 13.3163 22.4248 12.9703C22.2569 12.6244 22.0203 12.3471 21.715 12.1385C21.4097 11.9298 21.0434 11.7797 20.616 11.6882C20.1886 11.5966 19.7154 11.5508 19.1964 11.5508H14.0678ZM16.4642 20.587V17.5953H19.0743C19.5933 17.5953 20.0105 17.7148 20.326 17.954C20.6414 18.1931 20.7992 18.5925 20.7992 19.1522C20.7992 19.4372 20.7508 19.6712 20.6542 19.8543C20.5575 20.0375 20.4278 20.1826 20.2649 20.2894C20.1021 20.3962 19.9138 20.4725 19.7002 20.5184C19.4864 20.5641 19.2626 20.587 19.0285 20.587H16.4642Z" fill="white"/>
<path d="M35.9902 21V12.4688H38.7793C39.7051 12.4688 40.4004 12.6602 40.8652 13.043C41.334 13.4258 41.5684 13.9922 41.5684 14.7422C41.5684 15.1406 41.4551 15.4941 41.2285 15.8027C41.002 16.1074 40.6934 16.3438 40.3027 16.5117C40.7637 16.6406 41.127 16.8867 41.3926 17.25C41.6621 17.6094 41.7969 18.0391 41.7969 18.5391C41.7969 19.3047 41.5488 19.9062 41.0527 20.3438C40.5566 20.7812 39.8555 21 38.9492 21H35.9902ZM37.1152 17.0098V20.0801H38.9727C39.4961 20.0801 39.9082 19.9453 40.209 19.6758C40.5137 19.4023 40.666 19.0273 40.666 18.5508C40.666 17.5234 40.1074 17.0098 38.9902 17.0098H37.1152ZM37.1152 16.1074H38.8145C39.3066 16.1074 39.6992 15.9844 39.9922 15.7383C40.2891 15.4922 40.4375 15.1582 40.4375 14.7363C40.4375 14.2676 40.3008 13.9277 40.0273 13.7168C39.7539 13.502 39.3379 13.3945 38.7793 13.3945H37.1152V16.1074ZM43.0098 17.7715C43.0098 17.1504 43.1309 16.5918 43.373 16.0957C43.6191 15.5996 43.959 15.2168 44.3926 14.9473C44.8301 14.6777 45.3281 14.543 45.8867 14.543C46.75 14.543 47.4473 14.8418 47.9785 15.4395C48.5137 16.0371 48.7812 16.832 48.7812 17.8242V17.9004C48.7812 18.5176 48.6621 19.0723 48.4238 19.5645C48.1895 20.0527 47.8516 20.4336 47.4102 20.707C46.9727 20.9805 46.4688 21.1172 45.8984 21.1172C45.0391 21.1172 44.3418 20.8184 43.8066 20.2207C43.2754 19.623 43.0098 18.832 43.0098 17.8477V17.7715ZM44.0996 17.9004C44.0996 18.6035 44.2617 19.168 44.5859 19.5938C44.9141 20.0195 45.3516 20.2324 45.8984 20.2324C46.4492 20.2324 46.8867 20.0176 47.2109 19.5879C47.5352 19.1543 47.6973 18.5488 47.6973 17.7715C47.6973 17.0762 47.5312 16.5137 47.1992 16.084C46.8711 15.6504 46.4336 15.4336 45.8867 15.4336C45.3516 15.4336 44.9199 15.6465 44.5918 16.0723C44.2637 16.498 44.0996 17.1074 44.0996 17.9004ZM49.8535 17.7715C49.8535 17.1504 49.9746 16.5918 50.2168 16.0957C50.4629 15.5996 50.8027 15.2168 51.2363 14.9473C51.6738 14.6777 52.1719 14.543 52.7305 14.543C53.5938 14.543 54.291 14.8418 54.8223 15.4395C55.3574 16.0371 55.625 16.832 55.625 17.8242V17.9004C55.625 18.5176 55.5059 19.0723 55.2676 19.5645C55.0332 20.0527 54.6953 20.4336 54.2539 20.707C53.8164 20.9805 53.3125 21.1172 52.7422 21.1172C51.8828 21.1172 51.1855 20.8184 50.6504 20.2207C50.1191 19.623 49.8535 18.832 49.8535 17.8477V17.7715ZM50.9434 17.9004C50.9434 18.6035 51.1055 19.168 51.4297 19.5938C51.7578 20.0195 52.1953 20.2324 52.7422 20.2324C53.293 20.2324 53.7305 20.0176 54.0547 19.5879C54.3789 19.1543 54.541 18.5488 54.541 17.7715C54.541 17.0762 54.375 16.5137 54.043 16.084C53.7148 15.6504 53.2773 15.4336 52.7305 15.4336C52.1953 15.4336 51.7637 15.6465 51.4355 16.0723C51.1074 16.498 50.9434 17.1074 50.9434 17.9004ZM58.4551 13.125V14.6602H59.6387V15.498H58.4551V19.4297C58.4551 19.6836 58.5078 19.875 58.6133 20.0039C58.7188 20.1289 58.8984 20.1914 59.1523 20.1914C59.2773 20.1914 59.4492 20.168 59.668 20.1211V21C59.3828 21.0781 59.1055 21.1172 58.8359 21.1172C58.3516 21.1172 57.9863 20.9707 57.7402 20.6777C57.4941 20.3848 57.3711 19.9688 57.3711 19.4297V15.498H56.2168V14.6602H57.3711V13.125H58.4551ZM64.6016 19.3184C64.6016 19.0254 64.4902 18.7988 64.2676 18.6387C64.0488 18.4746 63.6641 18.334 63.1133 18.2168C62.5664 18.0996 62.1309 17.959 61.8066 17.7949C61.4863 17.6309 61.248 17.4355 61.0918 17.209C60.9395 16.9824 60.8633 16.7129 60.8633 16.4004C60.8633 15.8809 61.082 15.4414 61.5195 15.082C61.9609 14.7227 62.5234 14.543 63.207 14.543C63.9258 14.543 64.5078 14.7285 64.9531 15.0996C65.4023 15.4707 65.627 15.9453 65.627 16.5234H64.5371C64.5371 16.2266 64.4102 15.9707 64.1562 15.7559C63.9062 15.541 63.5898 15.4336 63.207 15.4336C62.8125 15.4336 62.5039 15.5195 62.2812 15.6914C62.0586 15.8633 61.9473 16.0879 61.9473 16.3652C61.9473 16.627 62.0508 16.8242 62.2578 16.957C62.4648 17.0898 62.8379 17.2168 63.377 17.3379C63.9199 17.459 64.3594 17.6035 64.6953 17.7715C65.0312 17.9395 65.2793 18.1426 65.4395 18.3809C65.6035 18.6152 65.6855 18.9023 65.6855 19.2422C65.6855 19.8086 65.459 20.2637 65.0059 20.6074C64.5527 20.9473 63.9648 21.1172 63.2422 21.1172C62.7344 21.1172 62.2852 21.0273 61.8945 20.8477C61.5039 20.668 61.1973 20.418 60.9746 20.0977C60.7559 19.7734 60.6465 19.4238 60.6465 19.0488H61.7305C61.75 19.4121 61.8945 19.7012 62.1641 19.916C62.4375 20.127 62.7969 20.2324 63.2422 20.2324C63.6523 20.2324 63.9805 20.1504 64.2266 19.9863C64.4766 19.8184 64.6016 19.5957 64.6016 19.3184ZM68.5684 13.125V14.6602H69.752V15.498H68.5684V19.4297C68.5684 19.6836 68.6211 19.875 68.7266 20.0039C68.832 20.1289 69.0117 20.1914 69.2656 20.1914C69.3906 20.1914 69.5625 20.168 69.7812 20.1211V21C69.4961 21.0781 69.2188 21.1172 68.9492 21.1172C68.4648 21.1172 68.0996 20.9707 67.8535 20.6777C67.6074 20.3848 67.4844 19.9688 67.4844 19.4297V15.498H66.3301V14.6602H67.4844V13.125H68.5684ZM74.0879 15.6328C73.9238 15.6055 73.7461 15.5918 73.5547 15.5918C72.8438 15.5918 72.3613 15.8945 72.1074 16.5V21H71.0234V14.6602H72.0781L72.0957 15.3926C72.4512 14.8262 72.9551 14.543 73.6074 14.543C73.8184 14.543 73.9785 14.5703 74.0879 14.625V15.6328ZM78.7695 21C78.707 20.875 78.6562 20.6523 78.6172 20.332C78.1133 20.8555 77.5117 21.1172 76.8125 21.1172C76.1875 21.1172 75.6738 20.9414 75.2715 20.5898C74.873 20.2344 74.6738 19.7852 74.6738 19.2422C74.6738 18.582 74.9238 18.0703 75.4238 17.707C75.9277 17.3398 76.6348 17.1562 77.5449 17.1562H78.5996V16.6582C78.5996 16.2793 78.4863 15.9785 78.2598 15.7559C78.0332 15.5293 77.6992 15.416 77.2578 15.416C76.8711 15.416 76.5469 15.5137 76.2852 15.709C76.0234 15.9043 75.8926 16.1406 75.8926 16.418H74.8027C74.8027 16.1016 74.9141 15.7969 75.1367 15.5039C75.3633 15.207 75.668 14.9727 76.0508 14.8008C76.4375 14.6289 76.8613 14.543 77.3223 14.543C78.0527 14.543 78.625 14.7266 79.0391 15.0938C79.4531 15.457 79.668 15.959 79.6836 16.5996V19.5176C79.6836 20.0996 79.7578 20.5625 79.9062 20.9062V21H78.7695ZM76.9707 20.1738C77.3105 20.1738 77.6328 20.0859 77.9375 19.9102C78.2422 19.7344 78.4629 19.5059 78.5996 19.2246V17.9238H77.75C76.4219 17.9238 75.7578 18.3125 75.7578 19.0898C75.7578 19.4297 75.8711 19.6953 76.0977 19.8867C76.3242 20.0781 76.6152 20.1738 76.9707 20.1738ZM86.7383 17.9004C86.7383 18.8652 86.5176 19.6426 86.0762 20.2324C85.6348 20.8223 85.0371 21.1172 84.2832 21.1172C83.5137 21.1172 82.9082 20.873 82.4668 20.3848V23.4375H81.3828V14.6602H82.373L82.4258 15.3633C82.8672 14.8164 83.4805 14.543 84.2656 14.543C85.0273 14.543 85.6289 14.8301 86.0703 15.4043C86.5156 15.9785 86.7383 16.7773 86.7383 17.8008V17.9004ZM85.6543 17.7773C85.6543 17.0625 85.502 16.498 85.1973 16.084C84.8926 15.6699 84.4746 15.4629 83.9434 15.4629C83.2871 15.4629 82.7949 15.7539 82.4668 16.3359V19.3652C82.791 19.9434 83.2871 20.2324 83.9551 20.2324C84.4746 20.2324 84.8867 20.0273 85.1914 19.6172C85.5 19.2031 85.6543 18.5898 85.6543 17.7773Z" fill="#22272E"/>
<path d="M4 2H93V0H4V2ZM95 4V30H97V4H95ZM93 32H4V34H93V32ZM2 30V4H0V30H2ZM4 32C2.89543 32 2 31.1046 2 30H0C0 32.2091 1.79086 34 4 34V32ZM95 30C95 31.1046 94.1046 32 93 32V34C95.2091 34 97 32.2091 97 30H95ZM93 2C94.1046 2 95 2.89543 95 4H97C97 1.79086 95.2091 0 93 0V2ZM4 0C1.79086 0 0 1.79086 0 4H2C2 2.89543 2.89543 2 4 2V0Z" fill="#30363D"/>
</svg>
