<svg width="90" height="28" viewBox="0 0 90 28" fill="none" xmlns="http://www.w3.org/2000/svg">
<g filter="url(#filter0_d)">
<path d="M2 5C2 2.23858 4.23858 0 7 0H83C85.7614 0 88 2.23858 88 5V19C88 21.7614 85.7614 24 83 24H7C4.23858 24 2 21.7614 2 19V5Z" fill="white"/>
<path d="M7 18.6791C7 19.961 8.03915 21 9.32095 21H22.679C23.961 21 25 19.9609 25 18.6791V5.32102C25 4.03901 23.9609 3 22.6791 3H9.32102C8.03901 3 7 4.03915 7 5.32095V18.679V18.6791Z" fill="#563D7C"/>
<path d="M14.4642 10.962V8.41301H16.708C16.9217 8.41301 17.1277 8.4308 17.3262 8.46645C17.5246 8.50202 17.7002 8.56559 17.8528 8.6572C18.0054 8.74882 18.1275 8.87602 18.2191 9.03879C18.3107 9.20163 18.3565 9.41025 18.3565 9.66457C18.3565 10.1225 18.2191 10.4533 17.9444 10.6568C17.6696 10.8603 17.3186 10.962 16.8911 10.962H14.4642V10.962ZM12.0678 6.55078V17.4492H17.3491C17.8376 17.4492 18.3133 17.3882 18.7763 17.2661C19.2393 17.1439 19.6514 16.9557 20.0127 16.7013C20.3739 16.4469 20.6614 16.1187 20.8751 15.7168C21.0888 15.3148 21.1956 14.8391 21.1956 14.2896C21.1956 13.6078 21.0302 13.0252 20.6996 12.5419C20.3688 12.0585 19.8676 11.7202 19.196 11.5268C19.6845 11.2928 20.0534 10.9926 20.3027 10.6262C20.552 10.2599 20.6766 9.80203 20.6766 9.25247C20.6766 8.74369 20.5927 8.31633 20.4248 7.97032C20.2569 7.62438 20.0203 7.34707 19.715 7.13845C19.4097 6.92984 19.0434 6.77972 18.616 6.68817C18.1886 6.59655 17.7154 6.55078 17.1964 6.55078H12.0678V6.55078ZM14.4642 15.587V12.5953H17.0743C17.5933 12.5953 18.0105 12.7148 18.326 12.954C18.6414 13.1931 18.7992 13.5925 18.7992 14.1522C18.7992 14.4372 18.7508 14.6712 18.6542 14.8543C18.5575 15.0375 18.4278 15.1826 18.2649 15.2894C18.1021 15.3962 17.9138 15.4725 17.7002 15.5184C17.4864 15.5641 17.2626 15.587 17.0285 15.587H14.4642V15.587Z" fill="white"/>
<path d="M30.9902 16V7.46875H33.7793C34.7051 7.46875 35.4004 7.66016 35.8652 8.04297C36.334 8.42578 36.5684 8.99219 36.5684 9.74219C36.5684 10.1406 36.4551 10.4941 36.2285 10.8027C36.002 11.1074 35.6934 11.3438 35.3027 11.5117C35.7637 11.6406 36.127 11.8867 36.3926 12.25C36.6621 12.6094 36.7969 13.0391 36.7969 13.5391C36.7969 14.3047 36.5488 14.9062 36.0527 15.3438C35.5566 15.7812 34.8555 16 33.9492 16H30.9902ZM32.1152 12.0098V15.0801H33.9727C34.4961 15.0801 34.9082 14.9453 35.209 14.6758C35.5137 14.4023 35.666 14.0273 35.666 13.5508C35.666 12.5234 35.1074 12.0098 33.9902 12.0098H32.1152ZM32.1152 11.1074H33.8145C34.3066 11.1074 34.6992 10.9844 34.9922 10.7383C35.2891 10.4922 35.4375 10.1582 35.4375 9.73633C35.4375 9.26758 35.3008 8.92773 35.0273 8.7168C34.7539 8.50195 34.3379 8.39453 33.7793 8.39453H32.1152V11.1074ZM38.0098 12.7715C38.0098 12.1504 38.1309 11.5918 38.373 11.0957C38.6191 10.5996 38.959 10.2168 39.3926 9.94727C39.8301 9.67773 40.3281 9.54297 40.8867 9.54297C41.75 9.54297 42.4473 9.8418 42.9785 10.4395C43.5137 11.0371 43.7812 11.832 43.7812 12.8242V12.9004C43.7812 13.5176 43.6621 14.0723 43.4238 14.5645C43.1895 15.0527 42.8516 15.4336 42.4102 15.707C41.9727 15.9805 41.4688 16.1172 40.8984 16.1172C40.0391 16.1172 39.3418 15.8184 38.8066 15.2207C38.2754 14.623 38.0098 13.832 38.0098 12.8477V12.7715ZM39.0996 12.9004C39.0996 13.6035 39.2617 14.168 39.5859 14.5938C39.9141 15.0195 40.3516 15.2324 40.8984 15.2324C41.4492 15.2324 41.8867 15.0176 42.2109 14.5879C42.5352 14.1543 42.6973 13.5488 42.6973 12.7715C42.6973 12.0762 42.5312 11.5137 42.1992 11.084C41.8711 10.6504 41.4336 10.4336 40.8867 10.4336C40.3516 10.4336 39.9199 10.6465 39.5918 11.0723C39.2637 11.498 39.0996 12.1074 39.0996 12.9004ZM44.8535 12.7715C44.8535 12.1504 44.9746 11.5918 45.2168 11.0957C45.4629 10.5996 45.8027 10.2168 46.2363 9.94727C46.6738 9.67773 47.1719 9.54297 47.7305 9.54297C48.5938 9.54297 49.291 9.8418 49.8223 10.4395C50.3574 11.0371 50.625 11.832 50.625 12.8242V12.9004C50.625 13.5176 50.5059 14.0723 50.2676 14.5645C50.0332 15.0527 49.6953 15.4336 49.2539 15.707C48.8164 15.9805 48.3125 16.1172 47.7422 16.1172C46.8828 16.1172 46.1855 15.8184 45.6504 15.2207C45.1191 14.623 44.8535 13.832 44.8535 12.8477V12.7715ZM45.9434 12.9004C45.9434 13.6035 46.1055 14.168 46.4297 14.5938C46.7578 15.0195 47.1953 15.2324 47.7422 15.2324C48.293 15.2324 48.7305 15.0176 49.0547 14.5879C49.3789 14.1543 49.541 13.5488 49.541 12.7715C49.541 12.0762 49.375 11.5137 49.043 11.084C48.7148 10.6504 48.2773 10.4336 47.7305 10.4336C47.1953 10.4336 46.7637 10.6465 46.4355 11.0723C46.1074 11.498 45.9434 12.1074 45.9434 12.9004ZM53.4551 8.125V9.66016H54.6387V10.498H53.4551V14.4297C53.4551 14.6836 53.5078 14.875 53.6133 15.0039C53.7188 15.1289 53.8984 15.1914 54.1523 15.1914C54.2773 15.1914 54.4492 15.168 54.668 15.1211V16C54.3828 16.0781 54.1055 16.1172 53.8359 16.1172C53.3516 16.1172 52.9863 15.9707 52.7402 15.6777C52.4941 15.3848 52.3711 14.9688 52.3711 14.4297V10.498H51.2168V9.66016H52.3711V8.125H53.4551ZM59.6016 14.3184C59.6016 14.0254 59.4902 13.7988 59.2676 13.6387C59.0488 13.4746 58.6641 13.334 58.1133 13.2168C57.5664 13.0996 57.1309 12.959 56.8066 12.7949C56.4863 12.6309 56.248 12.4355 56.0918 12.209C55.9395 11.9824 55.8633 11.7129 55.8633 11.4004C55.8633 10.8809 56.082 10.4414 56.5195 10.082C56.9609 9.72266 57.5234 9.54297 58.207 9.54297C58.9258 9.54297 59.5078 9.72852 59.9531 10.0996C60.4023 10.4707 60.627 10.9453 60.627 11.5234H59.5371C59.5371 11.2266 59.4102 10.9707 59.1562 10.7559C58.9062 10.541 58.5898 10.4336 58.207 10.4336C57.8125 10.4336 57.5039 10.5195 57.2812 10.6914C57.0586 10.8633 56.9473 11.0879 56.9473 11.3652C56.9473 11.627 57.0508 11.8242 57.2578 11.957C57.4648 12.0898 57.8379 12.2168 58.377 12.3379C58.9199 12.459 59.3594 12.6035 59.6953 12.7715C60.0312 12.9395 60.2793 13.1426 60.4395 13.3809C60.6035 13.6152 60.6855 13.9023 60.6855 14.2422C60.6855 14.8086 60.459 15.2637 60.0059 15.6074C59.5527 15.9473 58.9648 16.1172 58.2422 16.1172C57.7344 16.1172 57.2852 16.0273 56.8945 15.8477C56.5039 15.668 56.1973 15.418 55.9746 15.0977C55.7559 14.7734 55.6465 14.4238 55.6465 14.0488H56.7305C56.75 14.4121 56.8945 14.7012 57.1641 14.916C57.4375 15.127 57.7969 15.2324 58.2422 15.2324C58.6523 15.2324 58.9805 15.1504 59.2266 14.9863C59.4766 14.8184 59.6016 14.5957 59.6016 14.3184ZM63.5684 8.125V9.66016H64.752V10.498H63.5684V14.4297C63.5684 14.6836 63.6211 14.875 63.7266 15.0039C63.832 15.1289 64.0117 15.1914 64.2656 15.1914C64.3906 15.1914 64.5625 15.168 64.7812 15.1211V16C64.4961 16.0781 64.2188 16.1172 63.9492 16.1172C63.4648 16.1172 63.0996 15.9707 62.8535 15.6777C62.6074 15.3848 62.4844 14.9688 62.4844 14.4297V10.498H61.3301V9.66016H62.4844V8.125H63.5684ZM69.0879 10.6328C68.9238 10.6055 68.7461 10.5918 68.5547 10.5918C67.8438 10.5918 67.3613 10.8945 67.1074 11.5V16H66.0234V9.66016H67.0781L67.0957 10.3926C67.4512 9.82617 67.9551 9.54297 68.6074 9.54297C68.8184 9.54297 68.9785 9.57031 69.0879 9.625V10.6328ZM73.7695 16C73.707 15.875 73.6562 15.6523 73.6172 15.332C73.1133 15.8555 72.5117 16.1172 71.8125 16.1172C71.1875 16.1172 70.6738 15.9414 70.2715 15.5898C69.873 15.2344 69.6738 14.7852 69.6738 14.2422C69.6738 13.582 69.9238 13.0703 70.4238 12.707C70.9277 12.3398 71.6348 12.1562 72.5449 12.1562H73.5996V11.6582C73.5996 11.2793 73.4863 10.9785 73.2598 10.7559C73.0332 10.5293 72.6992 10.416 72.2578 10.416C71.8711 10.416 71.5469 10.5137 71.2852 10.709C71.0234 10.9043 70.8926 11.1406 70.8926 11.418H69.8027C69.8027 11.1016 69.9141 10.7969 70.1367 10.5039C70.3633 10.207 70.668 9.97266 71.0508 9.80078C71.4375 9.62891 71.8613 9.54297 72.3223 9.54297C73.0527 9.54297 73.625 9.72656 74.0391 10.0938C74.4531 10.457 74.668 10.959 74.6836 11.5996V14.5176C74.6836 15.0996 74.7578 15.5625 74.9062 15.9062V16H73.7695ZM71.9707 15.1738C72.3105 15.1738 72.6328 15.0859 72.9375 14.9102C73.2422 14.7344 73.4629 14.5059 73.5996 14.2246V12.9238H72.75C71.4219 12.9238 70.7578 13.3125 70.7578 14.0898C70.7578 14.4297 70.8711 14.6953 71.0977 14.8867C71.3242 15.0781 71.6152 15.1738 71.9707 15.1738ZM81.7383 12.9004C81.7383 13.8652 81.5176 14.6426 81.0762 15.2324C80.6348 15.8223 80.0371 16.1172 79.2832 16.1172C78.5137 16.1172 77.9082 15.873 77.4668 15.3848V18.4375H76.3828V9.66016H77.373L77.4258 10.3633C77.8672 9.81641 78.4805 9.54297 79.2656 9.54297C80.0273 9.54297 80.6289 9.83008 81.0703 10.4043C81.5156 10.9785 81.7383 11.7773 81.7383 12.8008V12.9004ZM80.6543 12.7773C80.6543 12.0625 80.502 11.498 80.1973 11.084C79.8926 10.6699 79.4746 10.4629 78.9434 10.4629C78.2871 10.4629 77.7949 10.7539 77.4668 11.3359V14.3652C77.791 14.9434 78.2871 15.2324 78.9551 15.2324C79.4746 15.2324 79.8867 15.0273 80.1914 14.6172C80.5 14.2031 80.6543 13.5898 80.6543 12.7773Z" fill="black"/>
</g>
<defs>
<filter id="filter0_d" x="0" y="0" width="90" height="28" filterUnits="userSpaceOnUse" color-interpolation-filters="sRGB">
<feFlood flood-opacity="0" result="BackgroundImageFix"/>
<feColorMatrix in="SourceAlpha" type="matrix" values="0 0 0 0 0 0 0 0 0 0 0 0 0 0 0 0 0 0 127 0" result="hardAlpha"/>
<feOffset dy="2"/>
<feGaussianBlur stdDeviation="1"/>
<feComposite in2="hardAlpha" operator="out"/>
<feColorMatrix type="matrix" values="0 0 0 0 0 0 0 0 0 0 0 0 0 0 0 0 0 0 0.25 0"/>
<feBlend mode="normal" in2="BackgroundImageFix" result="effect1_dropShadow"/>
<feBlend mode="normal" in="SourceGraphic" in2="effect1_dropShadow" result="shape"/>
</filter>
</defs>
</svg>
