<svg width="98" height="47" viewBox="0 0 98 47" fill="none" xmlns="http://www.w3.org/2000/svg">
<rect x="1" y="1" width="96" height="45" rx="4" fill="#22272E"/>
<path fill-rule="evenodd" clip-rule="evenodd" d="M25 15.0052L32.8 19.5556V27.4444L25 31.996L17.2 27.4444V19.5556L25 15.004V15.0052ZM23.8 19.3C22.686 19.3 21.6178 19.7425 20.8301 20.5302C20.0425 21.3178 19.6 22.3861 19.6 23.5C19.6 24.6139 20.0425 25.6822 20.8301 26.4699C21.6178 27.2575 22.686 27.7 23.8 27.7H24.5032C25.12 27.7001 25.7308 27.5788 26.3007 27.3428C26.8707 27.1068 27.3885 26.7609 27.8248 26.3248L26.9752 25.4752C26.3196 26.1311 25.4304 26.4997 24.5032 26.5H23.8C23.0043 26.5 22.2412 26.184 21.6786 25.6213C21.116 25.0587 20.8 24.2957 20.8 23.5C20.8 22.7044 21.116 21.9413 21.6786 21.3787C22.2412 20.8161 23.0043 20.5 23.8 20.5H24.5032C24.9623 20.4999 25.417 20.5904 25.8412 20.7662C26.2654 20.9421 26.6507 21.1999 26.9752 21.5248L27.8248 20.6752C27.3885 20.2391 26.8707 19.8932 26.3007 19.6573C25.7308 19.4213 25.12 19.2999 24.5032 19.3H23.8ZM24.4 22.9V21.7H25.6V22.9H28V21.7H29.2V22.9H30.4V24.1H29.2V25.3H28V24.1H25.6V25.3H24.4V24.1H23.2V22.9H24.4Z" fill="#ADBAC7"/>
<path d="M55.0938 29.5312C54.2656 29.9688 53.2344 30.1875 52 30.1875C50.4062 30.1875 49.1302 29.6745 48.1719 28.6484C47.2135 27.6224 46.7344 26.276 46.7344 24.6094C46.7344 22.8177 47.2734 21.3698 48.3516 20.2656C49.4297 19.1615 50.7969 18.6094 52.4531 18.6094C53.5156 18.6094 54.3958 18.763 55.0938 19.0703V20.4688C54.2917 20.0208 53.4062 19.7969 52.4375 19.7969C51.151 19.7969 50.1068 20.2266 49.3047 21.0859C48.5078 21.9453 48.1094 23.0938 48.1094 24.5312C48.1094 25.8958 48.4818 26.9844 49.2266 27.7969C49.9766 28.6042 50.9583 29.0078 52.1719 29.0078C53.2969 29.0078 54.2708 28.7578 55.0938 28.2578V29.5312ZM65.0625 25.8594H61.9062V29.0078H60.8672V25.8594H57.7188V24.8125H60.8672V21.6641H61.9062V24.8125H65.0625V25.8594ZM76.0156 25.8594H72.8594V29.0078H71.8203V25.8594H68.6719V24.8125H71.8203V21.6641H72.8594V24.8125H76.0156V25.8594Z" fill="#ADBAC7"/>
<rect x="1" y="1" width="96" height="45" rx="4" stroke="#444C56" stroke-width="2"/>
</svg>
