<svg width="53" height="34" viewBox="0 0 53 34" fill="none" xmlns="http://www.w3.org/2000/svg">
<path d="M1.5 4C1.5 2.34315 2.84315 1 4.5 1H48.5C50.1569 1 51.5 2.34315 51.5 4V30C51.5 31.6569 50.1569 33 48.5 33H4.5C2.84315 33 1.5 31.6569 1.5 30V4Z" fill="#C9D1D9"/>
<g clip-path="url(#clip0)">
<path d="M26.4992 13.3545C26.4991 13.0518 26.4344 12.7844 26.3036 12.5549C26.1752 12.3291 25.9827 12.14 25.7247 11.9904C23.5947 10.761 21.4626 9.53538 19.3333 8.30475C18.7592 7.97306 18.2026 7.98513 17.6328 8.32163C16.7849 8.82213 12.5402 11.2564 11.2753 11.9897C10.7544 12.2916 10.5009 12.7535 10.5008 13.3539C10.5 15.8263 10.5008 18.2986 10.5 20.771C10.5001 21.067 10.5621 21.3293 10.6871 21.5554C10.8156 21.7879 11.0106 21.9823 11.2746 22.1353C12.5396 22.8686 16.7849 25.3026 17.6325 25.8032C18.2026 26.1399 18.7592 26.1519 19.3334 25.8201C21.4628 24.5894 23.5951 23.3639 25.7254 22.1345C25.9894 21.9816 26.1845 21.7871 26.313 21.5548C26.4378 21.3286 26.4999 21.0664 26.5 20.7703C26.5 20.7703 26.5 15.8269 26.4992 13.3545Z" fill="#A9B9CB"/>
<path d="M19.3188 8.32088C18.7457 7.99 18.19 8.00206 17.6211 8.33769C16.7747 8.83688 12.5369 11.2648 11.2741 11.9963C10.754 12.2973 10.5009 12.7581 10.5008 13.3569C10.5 15.8229 10.5008 18.2888 10.5 20.7548C10.5001 21.05 10.5619 21.3116 10.6867 21.5371C10.8151 21.769 11.0098 21.9629 11.2734 22.1154C11.693 22.3581 12.113 22.6001 12.5333 22.8417L24.2266 11.1484C22.5904 10.2063 20.9539 9.26494 19.3188 8.32088Z" fill="#7F8B99"/>
<path d="M20.1535 15.9355L22.6434 15.9531C22.6434 14.9156 21.5933 12.375 18.5826 12.375C16.6644 12.375 14.0857 13.5945 14.0857 17.1006C14.0857 20.6067 16.6136 21.75 18.5826 21.75C21.7712 21.75 22.5333 19.5436 22.5333 18.2968L20.1578 18.1609C20.1578 18.1609 20.2214 19.6031 18.5699 19.6031C17.0456 19.6031 16.7912 17.7358 16.7912 17.1006C16.7912 16.1352 17.1345 14.5854 18.5699 14.5854C20.0054 14.5854 20.1535 15.9355 20.1535 15.9355Z" fill="white"/>
</g>
<path d="M42.7656 18.293C42.6602 19.1953 42.3262 19.8926 41.7637 20.3848C41.2051 20.873 40.4609 21.1172 39.5312 21.1172C38.5234 21.1172 37.7148 20.7559 37.1055 20.0332C36.5 19.3105 36.1973 18.3438 36.1973 17.1328V16.3125C36.1973 15.5195 36.3379 14.8223 36.6191 14.2207C36.9043 13.6191 37.3066 13.1582 37.8262 12.8379C38.3457 12.5137 38.9473 12.3516 39.6309 12.3516C40.5371 12.3516 41.2637 12.6055 41.8105 13.1133C42.3574 13.6172 42.6758 14.3164 42.7656 15.2109H41.6348C41.5371 14.5312 41.3242 14.0391 40.9961 13.7344C40.6719 13.4297 40.2168 13.2773 39.6309 13.2773C38.9121 13.2773 38.3477 13.543 37.9375 14.0742C37.5312 14.6055 37.3281 15.3613 37.3281 16.3418V17.168C37.3281 18.0938 37.5215 18.8301 37.9082 19.377C38.2949 19.9238 38.8359 20.1973 39.5312 20.1973C40.1562 20.1973 40.6348 20.0566 40.9668 19.7754C41.3027 19.4902 41.5254 18.9961 41.6348 18.293H42.7656Z" fill="#22272E"/>
<path d="M4.5 2H48.5V0H4.5V2ZM50.5 4V30H52.5V4H50.5ZM48.5 32H4.5V34H48.5V32ZM2.5 30V4H0.5V30H2.5ZM4.5 32C3.39543 32 2.5 31.1046 2.5 30H0.5C0.5 32.2091 2.29086 34 4.5 34V32ZM50.5 30C50.5 31.1046 49.6046 32 48.5 32V34C50.7091 34 52.5 32.2091 52.5 30H50.5ZM48.5 2C49.6046 2 50.5 2.89543 50.5 4H52.5C52.5 1.79086 50.7091 0 48.5 0V2ZM4.5 0C2.29086 0 0.5 1.79086 0.5 4H2.5C2.5 2.89543 3.39543 2 4.5 2V0Z" fill="#30363D"/>
<defs>
<clipPath id="clip0">
<rect width="16" height="18" fill="white" transform="translate(10.5 8)"/>
</clipPath>
</defs>
</svg>
