<svg width="46" height="28" viewBox="0 0 46 28" fill="none" xmlns="http://www.w3.org/2000/svg">
<g filter="url(#filter0_d)">
<path d="M2.5 5C2.5 2.23858 4.73858 0 7.5 0H38.5C41.2614 0 43.5 2.23858 43.5 5V19C43.5 21.7614 41.2614 24 38.5 24H7.5C4.73858 24 2.5 21.7614 2.5 19V5Z" fill="white"/>
<g clip-path="url(#clip0)">
<path d="M24.4992 8.3545C24.4991 8.05181 24.4344 7.78438 24.3036 7.55488C24.1752 7.32913 23.9827 7.14 23.7247 6.99038C21.5947 5.761 19.4626 4.53538 17.3333 3.30475C16.7592 2.97306 16.2026 2.98513 15.6328 3.32163C14.7849 3.82213 10.5402 6.25638 9.27531 6.98969C8.75444 7.29156 8.50094 7.7535 8.50081 8.35394C8.5 10.8263 8.50081 13.2986 8.5 15.771C8.50013 16.067 8.56206 16.3293 8.68706 16.5554C8.81556 16.7879 9.01063 16.9823 9.27463 17.1353C10.5396 17.8686 14.7849 20.3026 15.6325 20.8032C16.2026 21.1399 16.7592 21.1519 17.3334 20.8201C19.4628 19.5894 21.5951 18.3639 23.7254 17.1345C23.9894 16.9816 24.1845 16.7871 24.313 16.5548C24.4378 16.3286 24.4999 16.0664 24.5 15.7703C24.5 15.7703 24.5 10.8269 24.4992 8.3545" fill="#A9B9CB"/>
<path d="M17.3188 3.32088C16.7457 2.99 16.19 3.00206 15.6211 3.33769C14.7747 3.83688 10.5369 6.26481 9.27406 6.99625C8.754 7.29731 8.50094 7.75806 8.50081 8.35694C8.5 10.8229 8.50081 13.2888 8.5 15.7548C8.50013 16.05 8.56194 16.3116 8.68675 16.5371C8.81506 16.769 9.00981 16.9629 9.27337 17.1154C9.69304 17.3581 10.113 17.6001 10.5333 17.8417L22.2266 6.14844C20.5904 5.20631 18.9539 4.26494 17.3188 3.32088Z" fill="#7F8B99"/>
<path d="M18.1535 10.9355L20.6434 10.9531C20.6434 9.91562 19.5933 7.375 16.5826 7.375C14.6644 7.375 12.0857 8.5945 12.0857 12.1006C12.0857 15.6067 14.6136 16.75 16.5826 16.75C19.7712 16.75 20.5333 14.5436 20.5333 13.2968L18.1578 13.1609C18.1578 13.1609 18.2214 14.6031 16.5699 14.6031C15.0456 14.6031 14.7912 12.7358 14.7912 12.1006C14.7912 11.1352 15.1345 9.58537 16.5699 9.58537C18.0054 9.58537 18.1535 10.9355 18.1535 10.9355" fill="white"/>
</g>
<path d="M37.7656 13.293C37.6602 14.1953 37.3262 14.8926 36.7637 15.3848C36.2051 15.873 35.4609 16.1172 34.5312 16.1172C33.5234 16.1172 32.7148 15.7559 32.1055 15.0332C31.5 14.3105 31.1973 13.3438 31.1973 12.1328V11.3125C31.1973 10.5195 31.3379 9.82227 31.6191 9.2207C31.9043 8.61914 32.3066 8.1582 32.8262 7.83789C33.3457 7.51367 33.9473 7.35156 34.6309 7.35156C35.5371 7.35156 36.2637 7.60547 36.8105 8.11328C37.3574 8.61719 37.6758 9.31641 37.7656 10.2109H36.6348C36.5371 9.53125 36.3242 9.03906 35.9961 8.73438C35.6719 8.42969 35.2168 8.27734 34.6309 8.27734C33.9121 8.27734 33.3477 8.54297 32.9375 9.07422C32.5312 9.60547 32.3281 10.3613 32.3281 11.3418V12.168C32.3281 13.0938 32.5215 13.8301 32.9082 14.377C33.2949 14.9238 33.8359 15.1973 34.5312 15.1973C35.1562 15.1973 35.6348 15.0566 35.9668 14.7754C36.3027 14.4902 36.5254 13.9961 36.6348 13.293H37.7656Z" fill="black"/>
</g>
<defs>
<filter id="filter0_d" x="0.5" y="0" width="45" height="28" filterUnits="userSpaceOnUse" color-interpolation-filters="sRGB">
<feFlood flood-opacity="0" result="BackgroundImageFix"/>
<feColorMatrix in="SourceAlpha" type="matrix" values="0 0 0 0 0 0 0 0 0 0 0 0 0 0 0 0 0 0 127 0" result="hardAlpha"/>
<feOffset dy="2"/>
<feGaussianBlur stdDeviation="1"/>
<feComposite in2="hardAlpha" operator="out"/>
<feColorMatrix type="matrix" values="0 0 0 0 0 0 0 0 0 0 0 0 0 0 0 0 0 0 0.25 0"/>
<feBlend mode="normal" in2="BackgroundImageFix" result="effect1_dropShadow"/>
<feBlend mode="normal" in="SourceGraphic" in2="effect1_dropShadow" result="shape"/>
</filter>
<clipPath id="clip0">
<rect width="16" height="18" fill="white" transform="translate(8.5 3)"/>
</clipPath>
</defs>
</svg>
