<svg xmlns="http://www.w3.org/2000/svg" width="106" height="56" fill="none"><rect width="88" height="48" x="9" y="4" fill="#E8EAF6" rx="4"/><g clip-path="url(#a)"><path fill="#A9B9CB" d="M50.666 23.14c0-.404-.087-.76-.261-1.067a2.039 2.039 0 0 0-.772-.753c-2.84-1.639-5.683-3.273-8.522-4.914-.765-.442-1.508-.426-2.267.023-1.13.667-6.79 3.913-8.477 4.89-.694.403-1.032 1.019-1.033 1.82v9.889c0 .395.082.744.249 1.046.171.31.431.569.783.773 1.687.978 7.347 4.223 8.477 4.89.76.45 1.503.466 2.268.023 2.84-1.64 5.683-3.275 8.523-4.914.352-.204.612-.463.783-.773.167-.301.25-.651.25-1.046l-.001-9.888"/><path fill="#7F8B99" d="M41.092 16.428c-.764-.441-1.505-.425-2.264.022-1.128.666-6.779 3.903-8.463 4.878-.693.402-1.03 1.016-1.03 1.815-.002 3.287 0 6.575-.002 9.863 0 .394.083.743.25 1.043.17.31.43.568.782.772l1.68.968 15.59-15.591c-2.181-1.256-4.363-2.511-6.543-3.77Z"/><path fill="#fff" d="m42.205 26.58 3.32.024c0-1.383-1.4-4.77-5.415-4.77-2.557 0-5.996 1.625-5.996 6.3s3.37 6.2 5.996 6.2c4.252 0 5.268-2.943 5.268-4.605l-3.168-.181s.085 1.923-2.117 1.923c-2.032 0-2.371-2.49-2.371-3.337 0-1.287.457-3.354 2.371-3.354s2.112 1.8 2.112 1.8"/></g><path fill="#000" d="M77.094 34.031c-.828.438-1.86.657-3.094.657-1.594 0-2.87-.514-3.828-1.54-.959-1.026-1.438-2.372-1.438-4.039 0-1.791.54-3.24 1.618-4.343 1.078-1.104 2.445-1.657 4.101-1.657 1.063 0 1.943.154 2.64.461v1.399a5.354 5.354 0 0 0-2.656-.672c-1.286 0-2.33.43-3.132 1.289-.797.86-1.196 2.008-1.196 3.445 0 1.365.373 2.453 1.118 3.266.75.807 1.731 1.21 2.945 1.21 1.125 0 2.099-.25 2.922-.75v1.274Z"/><rect width="88" height="48" x="9" y="4" stroke="#3F51B5" stroke-width="2" rx="4"/><defs><clipPath id="a"><path fill="#fff" d="M29.333 16h21.333v24H29.333z"/></clipPath></defs></svg>