<svg width="55" height="36" viewBox="0 0 55 36" fill="none" xmlns="http://www.w3.org/2000/svg">
<g filter="url(#filter0_d)">
<path d="M2.5 3C2.5 1.34315 3.84315 0 5.5 0H49.5C51.1569 0 52.5 1.34315 52.5 3V29C52.5 30.6569 51.1569 32 49.5 32H5.5C3.84315 32 2.5 30.6569 2.5 29V3Z" fill="#C9D1D9"/>
<g clip-path="url(#clip0)">
<path d="M27.4992 12.3545C27.4991 12.0518 27.4344 11.7844 27.3036 11.5549C27.1752 11.3291 26.9827 11.14 26.7247 10.9904C24.5947 9.761 22.4626 8.53538 20.3333 7.30475C19.7592 6.97306 19.2026 6.98513 18.6328 7.32163C17.7849 7.82213 13.5402 10.2564 12.2753 10.9897C11.7544 11.2916 11.5009 11.7535 11.5008 12.3539C11.5 14.8263 11.5008 17.2986 11.5 19.771C11.5001 20.067 11.5621 20.3293 11.6871 20.5554C11.8156 20.7879 12.0106 20.9823 12.2746 21.1353C13.5396 21.8686 17.7849 24.3026 18.6325 24.8032C19.2026 25.1399 19.7592 25.1519 20.3334 24.8201C22.4628 23.5894 24.5951 22.3639 26.7254 21.1345C26.9894 20.9816 27.1845 20.7871 27.313 20.5548C27.4378 20.3286 27.4999 20.0664 27.5 19.7703C27.5 19.7703 27.5 14.8269 27.4992 12.3545Z" fill="#A9B9CB"/>
<path d="M20.3188 7.32088C19.7457 6.99 19.19 7.00206 18.6211 7.33769C17.7747 7.83688 13.5369 10.2648 12.2741 10.9963C11.754 11.2973 11.5009 11.7581 11.5008 12.3569C11.5 14.8229 11.5008 17.2888 11.5 19.7548C11.5001 20.05 11.5619 20.3116 11.6867 20.5371C11.8151 20.769 12.0098 20.9629 12.2734 21.1154C12.693 21.3581 13.113 21.6001 13.5333 21.8417L25.2266 10.1484C23.5904 9.20631 21.9539 8.26494 20.3188 7.32088Z" fill="#7F8B99"/>
<path d="M21.1535 14.9355L23.6434 14.9531C23.6434 13.9156 22.5933 11.375 19.5826 11.375C17.6644 11.375 15.0857 12.5945 15.0857 16.1006C15.0857 19.6067 17.6136 20.75 19.5826 20.75C22.7712 20.75 23.5333 18.5436 23.5333 17.2968L21.1578 17.1609C21.1578 17.1609 21.2214 18.6031 19.5699 18.6031C18.0456 18.6031 17.7912 16.7358 17.7912 16.1006C17.7912 15.1352 18.1345 13.5854 19.5699 13.5854C21.0054 13.5854 21.1535 14.9355 21.1535 14.9355Z" fill="white"/>
</g>
<path d="M43.7656 17.293C43.6602 18.1953 43.3262 18.8926 42.7637 19.3848C42.2051 19.873 41.4609 20.1172 40.5312 20.1172C39.5234 20.1172 38.7148 19.7559 38.1055 19.0332C37.5 18.3105 37.1973 17.3438 37.1973 16.1328V15.3125C37.1973 14.5195 37.3379 13.8223 37.6191 13.2207C37.9043 12.6191 38.3066 12.1582 38.8262 11.8379C39.3457 11.5137 39.9473 11.3516 40.6309 11.3516C41.5371 11.3516 42.2637 11.6055 42.8105 12.1133C43.3574 12.6172 43.6758 13.3164 43.7656 14.2109H42.6348C42.5371 13.5312 42.3242 13.0391 41.9961 12.7344C41.6719 12.4297 41.2168 12.2773 40.6309 12.2773C39.9121 12.2773 39.3477 12.543 38.9375 13.0742C38.5312 13.6055 38.3281 14.3613 38.3281 15.3418V16.168C38.3281 17.0938 38.5215 17.8301 38.9082 18.377C39.2949 18.9238 39.8359 19.1973 40.5312 19.1973C41.1562 19.1973 41.6348 19.0566 41.9668 18.7754C42.3027 18.4902 42.5254 17.9961 42.6348 17.293H43.7656Z" fill="#22272E"/>
</g>
<defs>
<filter id="filter0_d" x="0.5" y="0" width="54" height="36" filterUnits="userSpaceOnUse" color-interpolation-filters="sRGB">
<feFlood flood-opacity="0" result="BackgroundImageFix"/>
<feColorMatrix in="SourceAlpha" type="matrix" values="0 0 0 0 0 0 0 0 0 0 0 0 0 0 0 0 0 0 127 0" result="hardAlpha"/>
<feOffset dy="2"/>
<feGaussianBlur stdDeviation="1"/>
<feComposite in2="hardAlpha" operator="out"/>
<feColorMatrix type="matrix" values="0 0 0 0 0 0 0 0 0 0 0 0 0 0 0 0 0 0 0.25 0"/>
<feBlend mode="normal" in2="BackgroundImageFix" result="effect1_dropShadow"/>
<feBlend mode="normal" in="SourceGraphic" in2="effect1_dropShadow" result="shape"/>
</filter>
<clipPath id="clip0">
<rect width="16" height="18" fill="white" transform="translate(11.5 7)"/>
</clipPath>
</defs>
</svg>
