<svg width="76" height="47" viewBox="0 0 76 47" fill="none" xmlns="http://www.w3.org/2000/svg">
<rect x="1" y="1" width="74" height="45" rx="4" fill="#22272E"/>
<path fill-rule="evenodd" clip-rule="evenodd" d="M25 15.0052L32.8 19.5556V27.4444L25 31.996L17.2 27.4444V19.5556L25 15.004V15.0052ZM25 19.3C23.8861 19.3 22.8178 19.7425 22.0302 20.5301C21.2425 21.3178 20.8 22.3861 20.8 23.5C20.8 24.6139 21.2425 25.6822 22.0302 26.4698C22.8178 27.2575 23.8861 27.7 25 27.7H25.2184C26.3896 27.7 27.514 27.2344 28.3432 26.4064L28.4248 26.3248L27.5752 25.4752L27.4936 25.5568C26.8903 26.1604 26.0719 26.4997 25.2184 26.5H25C24.2044 26.5 23.4413 26.1839 22.8787 25.6213C22.3161 25.0587 22 24.2956 22 23.5C22 22.7043 22.3161 21.9413 22.8787 21.3787C23.4413 20.8161 24.2044 20.5 25 20.5H25.2184C26.0716 20.5 26.89 20.8396 27.4936 21.4432L27.5752 21.5248L28.4248 20.6752L28.3432 20.5936C27.9328 20.1833 27.4456 19.8579 26.9095 19.636C26.3733 19.414 25.7987 19.2999 25.2184 19.3H25Z" fill="#ADBAC7"/>
<path d="M55.0938 29.5312C54.2656 29.9688 53.2344 30.1875 52 30.1875C50.4062 30.1875 49.1302 29.6745 48.1719 28.6484C47.2135 27.6224 46.7344 26.276 46.7344 24.6094C46.7344 22.8177 47.2734 21.3698 48.3516 20.2656C49.4297 19.1615 50.7969 18.6094 52.4531 18.6094C53.5156 18.6094 54.3958 18.763 55.0938 19.0703V20.4688C54.2917 20.0208 53.4062 19.7969 52.4375 19.7969C51.151 19.7969 50.1068 20.2266 49.3047 21.0859C48.5078 21.9453 48.1094 23.0938 48.1094 24.5312C48.1094 25.8958 48.4818 26.9844 49.2266 27.7969C49.9766 28.6042 50.9583 29.0078 52.1719 29.0078C53.2969 29.0078 54.2708 28.7578 55.0938 28.2578V29.5312Z" fill="#ADBAC7"/>
<rect x="1" y="1" width="74" height="45" rx="4" stroke="#444C56" stroke-width="2"/>
</svg>
