<svg width="61" height="39" viewBox="0 0 61 39" fill="none" xmlns="http://www.w3.org/2000/svg">
<path d="M1 4C1 2.34315 2.34315 1 4 1H57C58.6569 1 60 2.34315 60 4V35C60 36.6569 58.6569 38 57 38H4C2.34315 38 1 36.6569 1 35V4Z" fill="#22272E"/>
<path fill-rule="evenodd" clip-rule="evenodd" d="M20 11.0052L27.8 15.5556V23.4444L20 27.996L12.2 23.4444V15.5556L20 11.004V11.0052ZM20 15.3C18.886 15.3 17.8178 15.7425 17.0301 16.5301C16.2425 17.3178 15.8 18.3861 15.8 19.5C15.8 20.6139 16.2425 21.6822 17.0301 22.4698C17.8178 23.2575 18.886 23.7 20 23.7H20.2184C21.3896 23.7 22.514 23.2344 23.3432 22.4064L23.4248 22.3248L22.5752 21.4752L22.4936 21.5568C21.8902 22.1604 21.0718 22.4997 20.2184 22.5H20C19.2043 22.5 18.4412 22.1839 17.8786 21.6213C17.316 21.0587 17 20.2956 17 19.5C17 18.7043 17.316 17.9413 17.8786 17.3787C18.4412 16.8161 19.2043 16.5 20 16.5H20.2184C21.0716 16.5 21.89 16.8396 22.4936 17.4432L22.5752 17.5248L23.4248 16.6752L23.3432 16.5936C22.9328 16.1833 22.4456 15.8579 21.9094 15.636C21.3733 15.414 20.7986 15.2999 20.2184 15.3H20Z" fill="#C9D1D9"/>
<path d="M48.957 24.5898C48.2324 24.9727 47.3301 25.1641 46.25 25.1641C44.8555 25.1641 43.7389 24.7152 42.9004 23.8174C42.0618 22.9196 41.6426 21.7415 41.6426 20.2832C41.6426 18.7155 42.1143 17.4486 43.0576 16.4824C44.001 15.5163 45.1973 15.0332 46.6465 15.0332C47.5762 15.0332 48.3464 15.1676 48.957 15.4365V16.6602C48.2552 16.2682 47.4805 16.0723 46.6328 16.0723C45.5072 16.0723 44.5934 16.4482 43.8916 17.2002C43.1943 17.9521 42.8457 18.957 42.8457 20.2148C42.8457 21.4089 43.1715 22.3613 43.8232 23.0723C44.4795 23.7786 45.3385 24.1318 46.4004 24.1318C47.3848 24.1318 48.237 23.9131 48.957 23.4756V24.5898Z" fill="#C9D1D9"/>
<path d="M4 2H57V0H4V2ZM59 4V35H61V4H59ZM57 37H4V39H57V37ZM2 35V4H0V35H2ZM4 37C2.89543 37 2 36.1046 2 35H0C0 37.2091 1.79086 39 4 39V37ZM59 35C59 36.1046 58.1046 37 57 37V39C59.2091 39 61 37.2091 61 35H59ZM57 2C58.1046 2 59 2.89543 59 4H61C61 1.79086 59.2091 0 57 0V2ZM4 0C1.79086 0 0 1.79086 0 4H2C2 2.89543 2.89543 2 4 2V0Z" fill="#C9D1D9"/>
</svg>
