<svg width="74" height="45" viewBox="0 0 74 45" fill="none" xmlns="http://www.w3.org/2000/svg">
<path d="M1 4C1 2.34314 2.34315 1 4 1H70C71.6569 1 73 2.34315 73 4V41C73 42.6569 71.6569 44 70 44H4C2.34315 44 1 42.6569 1 41V4Z" fill="#22272E"/>
<path fill-rule="evenodd" clip-rule="evenodd" d="M24 14.0052L31.8 18.5556V26.4444L24 30.996L16.2 26.4444V18.5556L24 14.004V14.0052ZM24 18.3C22.886 18.3 21.8178 18.7425 21.0301 19.5301C20.2425 20.3178 19.8 21.3861 19.8 22.5C19.8 23.6139 20.2425 24.6822 21.0301 25.4698C21.8178 26.2575 22.886 26.7 24 26.7H24.2184C25.3896 26.7 26.514 26.2344 27.3432 25.4064L27.4248 25.3248L26.5752 24.4752L26.4936 24.5568C25.8902 25.1604 25.0718 25.4997 24.2184 25.5H24C23.2043 25.5 22.4412 25.1839 21.8786 24.6213C21.316 24.0587 21 23.2956 21 22.5C21 21.7043 21.316 20.9413 21.8786 20.3787C22.4412 19.8161 23.2043 19.5 24 19.5H24.2184C25.0716 19.5 25.89 19.8396 26.4936 20.4432L26.5752 20.5248L27.4248 19.6752L27.3432 19.5936C26.9328 19.1833 26.4456 18.8579 25.9094 18.636C25.3733 18.414 24.7986 18.2999 24.2184 18.3H24Z" fill="#ADBAC7"/>
<path d="M54.0938 28.5312C53.2656 28.9688 52.2344 29.1875 51 29.1875C49.4062 29.1875 48.1302 28.6745 47.1719 27.6484C46.2135 26.6224 45.7344 25.276 45.7344 23.6094C45.7344 21.8177 46.2734 20.3698 47.3516 19.2656C48.4297 18.1615 49.7969 17.6094 51.4531 17.6094C52.5156 17.6094 53.3958 17.763 54.0938 18.0703V19.4688C53.2917 19.0208 52.4062 18.7969 51.4375 18.7969C50.151 18.7969 49.1068 19.2266 48.3047 20.0859C47.5078 20.9453 47.1094 22.0938 47.1094 23.5312C47.1094 24.8958 47.4818 25.9844 48.2266 26.7969C48.9766 27.6042 49.9583 28.0078 51.1719 28.0078C52.2969 28.0078 53.2708 27.7578 54.0938 27.2578V28.5312Z" fill="#ADBAC7"/>
<path d="M4 2H70V0H4V2ZM72 4V41H74V4H72ZM70 43H4V45H70V43ZM2 41V4H0V41H2ZM4 43C2.89543 43 2 42.1046 2 41H0C0 43.2091 1.79086 45 4 45V43ZM72 41C72 42.1046 71.1046 43 70 43V45C72.2091 45 74 43.2091 74 41H72ZM70 2C71.1046 2 72 2.89543 72 4H74C74 1.79086 72.2091 0 70 0V2ZM4 0C1.79086 0 0 1.79086 0 4H2C2 2.89543 2.89543 2 4 2V0Z" fill="#444C56"/>
</svg>
