<svg width="86" height="47" viewBox="0 0 86 47" fill="none" xmlns="http://www.w3.org/2000/svg">
<rect x="1" y="1" width="84" height="45" rx="4" fill="#22272E"/>
<path d="M28 24.1V22.9H29.2V24.1H28Z" fill="#ADBAC7"/>
<path fill-rule="evenodd" clip-rule="evenodd" d="M25 15.0052L32.8 19.5556V27.4444L25 31.996L17.2 27.4444V19.5556L25 15.004V15.0052ZM23.5984 19.3C22.5379 19.3 21.5209 19.7213 20.7711 20.4711C20.0212 21.2209 19.6 22.238 19.6 23.2984V23.7016C19.6001 24.3829 19.7744 25.0529 20.1062 25.648C20.4381 26.2431 20.9165 26.7435 21.496 27.1017C22.0756 27.46 22.7371 27.6642 23.4177 27.695C24.0984 27.7257 24.7756 27.5821 25.3852 27.2776L25.8688 27.0376L25.3312 25.9636L24.8488 26.2036C24.4223 26.4169 23.9485 26.5177 23.4722 26.4964C22.9958 26.4751 22.5329 26.3324 22.1272 26.0819C21.7216 25.8313 21.3867 25.4812 21.1544 25.0648C20.9221 24.6484 20.8001 24.1796 20.8 23.7028V23.2996C20.8 22.8227 20.9219 22.3538 21.1541 21.9372C21.3863 21.5207 21.7211 21.1705 22.1268 20.9197C22.5324 20.6689 22.9953 20.5259 23.4717 20.5044C23.9481 20.4828 24.4221 20.5833 24.8488 20.7964L25.3312 21.0376L25.8688 19.9648L25.3852 19.7236C24.8301 19.4455 24.218 19.3005 23.5972 19.3H23.5984ZM26.8 20.5V21.7H25.6V22.9H26.8V24.1H25.6V25.3H26.8V26.5H28V25.3H29.2V26.5H30.4V25.3H31.6V24.1H30.4V22.9H31.6V21.7H30.4V20.5H29.2V21.7H28V20.5H26.8Z" fill="#ADBAC7"/>
<path d="M55.0938 29.5312C54.2656 29.9688 53.2344 30.1875 52 30.1875C50.4062 30.1875 49.1302 29.6745 48.1719 28.6484C47.2135 27.6224 46.7344 26.276 46.7344 24.6094C46.7344 22.8177 47.2734 21.3698 48.3516 20.2656C49.4297 19.1615 50.7969 18.6094 52.4531 18.6094C53.5156 18.6094 54.3958 18.763 55.0938 19.0703V20.4688C54.2917 20.0208 53.4062 19.7969 52.4375 19.7969C51.151 19.7969 50.1068 20.2266 49.3047 21.0859C48.5078 21.9453 48.1094 23.0938 48.1094 24.5312C48.1094 25.8958 48.4818 26.9844 49.2266 27.7969C49.9766 28.6042 50.9583 29.0078 52.1719 29.0078C53.2969 29.0078 54.2708 28.7578 55.0938 28.2578V29.5312ZM65.0156 21.9375L64.8359 22.7656H62.7969L62.3047 25.1094H64.5L64.2891 25.9375H62.1406L61.4531 29.0391H60.4688L61.1406 25.9375H59.1875L58.5312 29.0391H57.5547L58.2109 25.9375H56.1641L56.3203 25.1094H58.3906L58.8672 22.7656H56.7031L56.8672 21.9375H59.0312L59.6875 18.7969H60.6719L60.0156 21.9375H61.9844L62.6562 18.7969H63.6172L62.9609 21.9375H65.0156ZM61.8281 22.7656H59.8594L59.3438 25.1094H61.3281L61.8281 22.7656Z" fill="#ADBAC7"/>
<rect x="1" y="1" width="84" height="45" rx="4" stroke="#444C56" stroke-width="2"/>
</svg>
