<svg width="60" height="34" viewBox="0 0 60 34" fill="none" xmlns="http://www.w3.org/2000/svg">
<path d="M1 4C1 2.34315 2.34315 1 4 1H56C57.6569 1 59 2.34315 59 4V30C59 31.6569 57.6569 33 56 33H4C2.34315 33 1 31.6569 1 30V4Z" fill="#C9D1D9"/>
<path d="M25.9731 13.2784C25.9729 12.9765 25.9084 12.7097 25.7778 12.4809C25.6496 12.2557 25.4575 12.067 25.1999 11.9178C23.0733 10.6916 20.9447 9.46916 18.8188 8.24173C18.2457 7.91085 17.69 7.92298 17.1211 8.2586C16.2747 8.75773 12.0369 11.1857 10.7741 11.9171C10.254 12.2182 10.0009 12.679 10.0008 13.2778C10 15.7437 10.0008 18.2097 10 20.6756C10 20.9708 10.0619 21.2325 10.1867 21.4579C10.3151 21.6898 10.5098 21.8837 10.7734 22.0363C12.0362 22.7677 16.2746 25.1955 17.1209 25.6948C17.69 26.0306 18.2457 26.0426 18.819 25.7117C20.9449 24.4842 23.0737 23.2617 25.2006 22.0355C25.4641 21.883 25.6589 21.689 25.7872 21.4573C25.9118 21.2318 25.9739 20.9702 25.9739 20.6749C25.9739 20.6749 25.9739 15.7444 25.9731 13.2784Z" fill="#A179DC"/>
<path d="M18.0114 16.9526L10.1868 21.4578C10.3151 21.6897 10.5098 21.8836 10.7734 22.0362C12.0363 22.7676 16.2746 25.1954 17.1209 25.6947C17.69 26.0305 18.2457 26.0425 18.819 25.7116C20.9449 24.4841 23.0737 23.2616 25.2006 22.0354C25.4641 21.8829 25.6589 21.6889 25.7872 21.4572L18.0114 16.9526Z" fill="#280068"/>
<path d="M25.9731 13.2783C25.9729 12.9764 25.9084 12.7096 25.7778 12.4808L18.0114 16.9526L25.7872 21.4572C25.9118 21.2317 25.9738 20.9701 25.9739 20.6748C25.9739 20.6748 25.9739 15.7443 25.9731 13.2783Z" fill="#390091"/>
<path d="M22.6183 15.2684V16.1105H23.4604V15.2684H23.8814V16.1105H24.7236V16.5316H23.8814V17.3736H24.7236V17.7947H23.8814V18.6368H23.4604V17.7947H22.6183V18.6368H22.1972V17.7947H21.3551V17.3736H22.1972V16.5316H21.3551V16.1105H22.1972V15.2684H22.6183ZM23.4604 16.5315H22.6183V17.3736H23.4604V16.5316V16.5315Z" fill="white"/>
<path d="M18.0286 11.0391C20.2251 11.0391 22.1428 12.232 23.1699 14.0051L23.1599 13.9881L20.5756 15.4761C20.0664 14.614 19.1331 14.0322 18.0623 14.0202L18.0285 14.02C16.3957 14.02 15.0719 15.3438 15.0719 16.9766C15.0714 17.4912 15.2059 17.997 15.4619 18.4434C15.9715 19.3331 16.9296 19.9332 18.0286 19.9332C19.1344 19.9332 20.0979 19.3255 20.6049 18.4263L20.5926 18.4479L23.173 19.9427C22.1571 21.7009 20.2656 22.8901 18.0947 22.9137L18.0286 22.9141C15.8251 22.9141 13.902 21.7139 12.8774 19.9314C12.3772 19.0612 12.091 18.0524 12.091 16.9766C12.091 13.6974 14.7493 11.0391 18.0285 11.0391L18.0286 11.0391Z" fill="white"/>
<path d="M42.2656 18.293C42.1602 19.1953 41.8262 19.8926 41.2637 20.3848C40.7051 20.873 39.9609 21.1172 39.0312 21.1172C38.0234 21.1172 37.2148 20.7559 36.6055 20.0332C36 19.3105 35.6973 18.3438 35.6973 17.1328V16.3125C35.6973 15.5195 35.8379 14.8223 36.1191 14.2207C36.4043 13.6191 36.8066 13.1582 37.3262 12.8379C37.8457 12.5137 38.4473 12.3516 39.1309 12.3516C40.0371 12.3516 40.7637 12.6055 41.3105 13.1133C41.8574 13.6172 42.1758 14.3164 42.2656 15.2109H41.1348C41.0371 14.5312 40.8242 14.0391 40.4961 13.7344C40.1719 13.4297 39.7168 13.2773 39.1309 13.2773C38.4121 13.2773 37.8477 13.543 37.4375 14.0742C37.0312 14.6055 36.8281 15.3613 36.8281 16.3418V17.168C36.8281 18.0938 37.0215 18.8301 37.4082 19.377C37.7949 19.9238 38.3359 20.1973 39.0312 20.1973C39.6562 20.1973 40.1348 20.0566 40.4668 19.7754C40.8027 19.4902 41.0254 18.9961 41.1348 18.293H42.2656ZM47.2988 18.5977H45.752L45.2832 21H44.4453L44.9141 18.5977H43.5137V17.7949H45.0664L45.4707 15.7207H43.959V14.9062H45.6289L46.1094 12.4688H46.9473L46.4668 14.9062H48.0137L48.4941 12.4688H49.3379L48.8574 14.9062H50.0527V15.7207H48.6992L48.2949 17.7949H49.6133V18.5977H48.1426L47.6738 21H46.8301L47.2988 18.5977ZM45.9043 17.7949H47.4512L47.8555 15.7207H46.3086L45.9043 17.7949Z" fill="#22272E"/>
<path d="M4 2H56V0H4V2ZM58 4V30H60V4H58ZM56 32H4V34H56V32ZM2 30V4H0V30H2ZM4 32C2.89543 32 2 31.1046 2 30H0C0 32.2091 1.79086 34 4 34V32ZM58 30C58 31.1046 57.1046 32 56 32V34C58.2091 34 60 32.2091 60 30H58ZM56 2C57.1046 2 58 2.89543 58 4H60C60 1.79086 58.2091 0 56 0V2ZM4 0C1.79086 0 0 1.79086 0 4H2C2 2.89543 2.89543 2 4 2V0Z" fill="#30363D"/>
</svg>
