<svg width="69" height="39" viewBox="0 0 69 39" fill="none" xmlns="http://www.w3.org/2000/svg">
<path d="M1 4C1 2.34315 2.34315 1 4 1H65C66.6569 1 68 2.34315 68 4V35C68 36.6569 66.6569 38 65 38H4C2.34315 38 1 36.6569 1 35V4Z" fill="#22272E"/>
<path d="M23 20.1V18.9H24.2V20.1H23Z" fill="#ADBAC7"/>
<path fill-rule="evenodd" clip-rule="evenodd" d="M20 11.0052L27.8 15.5556V23.4444L20 27.996L12.2 23.4444V15.5556L20 11.004V11.0052ZM18.5984 15.3C17.5379 15.3 16.5209 15.7213 15.7711 16.4711C15.0212 17.2209 14.6 18.238 14.6 19.2984V19.7016C14.6001 20.3829 14.7744 21.0529 15.1062 21.648C15.4381 22.2431 15.9165 22.7435 16.496 23.1018C17.0756 23.46 17.7371 23.6642 18.4177 23.695C19.0984 23.7257 19.7756 23.5821 20.3852 23.2776L20.8688 23.0376L20.3312 21.9636L19.8488 22.2036C19.4223 22.4169 18.9485 22.5177 18.4722 22.4964C17.9958 22.4751 17.5329 22.3324 17.1272 22.0819C16.7216 21.8313 16.3867 21.4812 16.1544 21.0648C15.9221 20.6484 15.8001 20.1796 15.8 19.7028V19.2996C15.8 18.8227 15.9219 18.3538 16.1541 17.9372C16.3863 17.5207 16.7211 17.1705 17.1268 16.9197C17.5324 16.6689 17.9953 16.5259 18.4717 16.5044C18.9481 16.4828 19.4221 16.5833 19.8488 16.7964L20.3312 17.0376L20.8688 15.9648L20.3852 15.7236C19.8301 15.4455 19.218 15.3005 18.5972 15.3H18.5984ZM21.8 16.5V17.7H20.6V18.9H21.8V20.1H20.6V21.3H21.8V22.5H23V21.3H24.2V22.5H25.4V21.3H26.6V20.1H25.4V18.9H26.6V17.7H25.4V16.5H24.2V17.7H23V16.5H21.8Z" fill="#ADBAC7"/>
<path d="M48.957 24.5898C48.2324 24.9727 47.3301 25.1641 46.25 25.1641C44.8555 25.1641 43.7389 24.7152 42.9004 23.8174C42.0618 22.9196 41.6426 21.7415 41.6426 20.2832C41.6426 18.7155 42.1143 17.4486 43.0576 16.4824C44.001 15.5163 45.1973 15.0332 46.6465 15.0332C47.5762 15.0332 48.3464 15.1676 48.957 15.4365V16.6602C48.2552 16.2682 47.4805 16.0723 46.6328 16.0723C45.5072 16.0723 44.5934 16.4482 43.8916 17.2002C43.1943 17.9521 42.8457 18.957 42.8457 20.2148C42.8457 21.4089 43.1715 22.3613 43.8232 23.0723C44.4795 23.7786 45.3385 24.1318 46.4004 24.1318C47.3848 24.1318 48.237 23.9131 48.957 23.4756V24.5898ZM57.6387 17.9453L57.4814 18.6699H55.6973L55.2666 20.7207H57.1875L57.0029 21.4453H55.123L54.5215 24.1592H53.6602L54.248 21.4453H52.5391L51.9648 24.1592H51.1104L51.6846 21.4453H49.8936L50.0303 20.7207H51.8418L52.2588 18.6699H50.3652L50.5088 17.9453H52.4023L52.9766 15.1973H53.8379L53.2637 17.9453H54.9863L55.5742 15.1973H56.415L55.8408 17.9453H57.6387ZM54.8496 18.6699H53.127L52.6758 20.7207H54.4121L54.8496 18.6699Z" fill="#ADBAC7"/>
<path d="M4 2H65V0H4V2ZM67 4V35H69V4H67ZM65 37H4V39H65V37ZM2 35V4H0V35H2ZM4 37C2.89543 37 2 36.1046 2 35H0C0 37.2091 1.79086 39 4 39V37ZM67 35C67 36.1046 66.1046 37 65 37V39C67.2091 39 69 37.2091 69 35H67ZM65 2C66.1046 2 67 2.89543 67 4H69C69 1.79086 67.2091 0 65 0V2ZM4 0C1.79086 0 0 1.79086 0 4H2C2 2.89543 2.89543 2 4 2V0Z" fill="#444C56"/>
</svg>
