<svg width="53" height="28" viewBox="0 0 53 28" fill="none" xmlns="http://www.w3.org/2000/svg">
<g filter="url(#filter0_d)">
<path d="M2 5C2 2.23858 4.23858 0 7 0H46C48.7614 0 51 2.23858 51 5V19C51 21.7614 48.7614 24 46 24H7C4.23858 24 2 21.7614 2 19V5Z" fill="white"/>
<path d="M23.9731 8.27835C23.9729 7.97648 23.9084 7.70973 23.7778 7.48085C23.6496 7.25566 23.4575 7.06698 23.1999 6.91779C21.0733 5.6916 18.9447 4.46916 16.8188 3.24173C16.2457 2.91085 15.69 2.92298 15.1211 3.2586C14.2747 3.75773 10.0369 6.18566 8.77406 6.9171C8.254 7.21823 8.00094 7.67898 8.00081 8.27779C8 10.7437 8.00081 13.2097 8 15.6756C8 15.9709 8.06194 16.2325 8.18675 16.4579C8.31506 16.6898 8.50981 16.8837 8.77337 17.0363C10.0362 17.7677 14.2746 20.1955 15.1209 20.6948C15.69 21.0306 16.2457 21.0426 16.819 20.7117C18.9449 19.4842 21.0737 18.2617 23.2006 17.0355C23.4641 16.883 23.6589 16.689 23.7872 16.4573C23.9118 16.2318 23.9739 15.9702 23.9739 15.6749C23.9739 15.6749 23.9739 10.7444 23.9731 8.27835Z" fill="#A179DC"/>
<path d="M16.0114 11.9526L8.18675 16.4578C8.31506 16.6897 8.50981 16.8836 8.77338 17.0362C10.0363 17.7676 14.2746 20.1954 15.1209 20.6947C15.69 21.0305 16.2457 21.0425 16.819 20.7116C18.9449 19.4841 21.0737 18.2616 23.2006 17.0354C23.4641 16.8829 23.6589 16.6889 23.7872 16.4572L16.0114 11.9526" fill="#280068"/>
<path d="M23.9731 8.27825C23.9729 7.97638 23.9084 7.70963 23.7778 7.48075L16.0114 11.9526L23.7872 16.4572C23.9118 16.2317 23.9738 15.9701 23.9739 15.6748C23.9739 15.6748 23.9739 10.7443 23.9731 8.27825" fill="#390091"/>
<path d="M20.6183 10.2684V11.1105H21.4604V10.2684H21.8814V11.1105H22.7236V11.5316H21.8814V12.3736H22.7236V12.7947H21.8814V13.6368H21.4604V12.7947H20.6183V13.6368H20.1972V12.7947H19.3551V12.3736H20.1972V11.5316H19.3551V11.1105H20.1972V10.2684H20.6183ZM21.4604 11.5315H20.6183V12.3736H21.4604V11.5316V11.5315Z" fill="white"/>
<path d="M16.0286 6.03912C18.2251 6.03912 20.1428 7.232 21.1699 9.00513L21.1599 8.98806L18.5756 10.4761C18.0664 9.614 17.1331 9.03219 16.0623 9.02019L16.0285 9.02C14.3957 9.02 13.0719 10.3438 13.0719 11.9766C13.0714 12.4912 13.2059 12.997 13.4619 13.4434C13.9715 14.3331 14.9296 14.9332 16.0286 14.9332C17.1344 14.9332 18.0979 14.3255 18.6049 13.4263L18.5926 13.4479L21.173 14.9427C20.1571 16.7009 18.2656 17.8901 16.0947 17.9137L16.0286 17.9141C13.8251 17.9141 11.902 16.7139 10.8774 14.9314C10.3772 14.0612 10.091 13.0524 10.091 11.9766C10.091 8.69744 12.7493 6.03906 16.0285 6.03906L16.0286 6.03912Z" fill="white"/>
<path d="M37.2656 13.293C37.1602 14.1953 36.8262 14.8926 36.2637 15.3848C35.7051 15.873 34.9609 16.1172 34.0312 16.1172C33.0234 16.1172 32.2148 15.7559 31.6055 15.0332C31 14.3105 30.6973 13.3438 30.6973 12.1328V11.3125C30.6973 10.5195 30.8379 9.82227 31.1191 9.2207C31.4043 8.61914 31.8066 8.1582 32.3262 7.83789C32.8457 7.51367 33.4473 7.35156 34.1309 7.35156C35.0371 7.35156 35.7637 7.60547 36.3105 8.11328C36.8574 8.61719 37.1758 9.31641 37.2656 10.2109H36.1348C36.0371 9.53125 35.8242 9.03906 35.4961 8.73438C35.1719 8.42969 34.7168 8.27734 34.1309 8.27734C33.4121 8.27734 32.8477 8.54297 32.4375 9.07422C32.0312 9.60547 31.8281 10.3613 31.8281 11.3418V12.168C31.8281 13.0938 32.0215 13.8301 32.4082 14.377C32.7949 14.9238 33.3359 15.1973 34.0312 15.1973C34.6562 15.1973 35.1348 15.0566 35.4668 14.7754C35.8027 14.4902 36.0254 13.9961 36.1348 13.293H37.2656ZM42.2988 13.5977H40.752L40.2832 16H39.4453L39.9141 13.5977H38.5137V12.7949H40.0664L40.4707 10.7207H38.959V9.90625H40.6289L41.1094 7.46875H41.9473L41.4668 9.90625H43.0137L43.4941 7.46875H44.3379L43.8574 9.90625H45.0527V10.7207H43.6992L43.2949 12.7949H44.6133V13.5977H43.1426L42.6738 16H41.8301L42.2988 13.5977ZM40.9043 12.7949H42.4512L42.8555 10.7207H41.3086L40.9043 12.7949Z" fill="black"/>
</g>
<defs>
<filter id="filter0_d" x="0" y="0" width="53" height="28" filterUnits="userSpaceOnUse" color-interpolation-filters="sRGB">
<feFlood flood-opacity="0" result="BackgroundImageFix"/>
<feColorMatrix in="SourceAlpha" type="matrix" values="0 0 0 0 0 0 0 0 0 0 0 0 0 0 0 0 0 0 127 0" result="hardAlpha"/>
<feOffset dy="2"/>
<feGaussianBlur stdDeviation="1"/>
<feComposite in2="hardAlpha" operator="out"/>
<feColorMatrix type="matrix" values="0 0 0 0 0 0 0 0 0 0 0 0 0 0 0 0 0 0 0.25 0"/>
<feBlend mode="normal" in2="BackgroundImageFix" result="effect1_dropShadow"/>
<feBlend mode="normal" in="SourceGraphic" in2="effect1_dropShadow" result="shape"/>
</filter>
</defs>
</svg>
