<svg width="84" height="45" viewBox="0 0 84 45" fill="none" xmlns="http://www.w3.org/2000/svg">
<path d="M1 4C1 2.34314 2.34315 1 4 1H80C81.6569 1 83 2.34315 83 4V41C83 42.6569 81.6569 44 80 44H4C2.34315 44 1 42.6569 1 41V4Z" fill="#22272E"/>
<path d="M27 23.1V21.9H28.2V23.1H27Z" fill="#ADBAC7"/>
<path fill-rule="evenodd" clip-rule="evenodd" d="M24 14.0052L31.8 18.5556V26.4444L24 30.996L16.2 26.4444V18.5556L24 14.004V14.0052ZM22.5984 18.3C21.5379 18.3 20.5209 18.7213 19.7711 19.4711C19.0212 20.2209 18.6 21.238 18.6 22.2984V22.7016C18.6001 23.3829 18.7744 24.0529 19.1062 24.648C19.4381 25.2431 19.9165 25.7435 20.496 26.1018C21.0756 26.46 21.7371 26.6642 22.4177 26.695C23.0984 26.7257 23.7756 26.5821 24.3852 26.2776L24.8688 26.0376L24.3312 24.9636L23.8488 25.2036C23.4223 25.4169 22.9485 25.5177 22.4722 25.4964C21.9958 25.4751 21.5329 25.3324 21.1272 25.0819C20.7216 24.8313 20.3867 24.4812 20.1544 24.0648C19.9221 23.6484 19.8001 23.1796 19.8 22.7028V22.2996C19.8 21.8227 19.9219 21.3538 20.1541 20.9372C20.3863 20.5207 20.7211 20.1705 21.1268 19.9197C21.5324 19.6689 21.9953 19.5259 22.4717 19.5044C22.9481 19.4828 23.4221 19.5833 23.8488 19.7964L24.3312 20.0376L24.8688 18.9648L24.3852 18.7236C23.8301 18.4455 23.218 18.3005 22.5972 18.3H22.5984ZM25.8 19.5V20.7H24.6V21.9H25.8V23.1H24.6V24.3H25.8V25.5H27V24.3H28.2V25.5H29.4V24.3H30.6V23.1H29.4V21.9H30.6V20.7H29.4V19.5H28.2V20.7H27V19.5H25.8Z" fill="#ADBAC7"/>
<path d="M54.0938 28.5312C53.2656 28.9688 52.2344 29.1875 51 29.1875C49.4062 29.1875 48.1302 28.6745 47.1719 27.6484C46.2135 26.6224 45.7344 25.276 45.7344 23.6094C45.7344 21.8177 46.2734 20.3698 47.3516 19.2656C48.4297 18.1615 49.7969 17.6094 51.4531 17.6094C52.5156 17.6094 53.3958 17.763 54.0938 18.0703V19.4688C53.2917 19.0208 52.4062 18.7969 51.4375 18.7969C50.151 18.7969 49.1068 19.2266 48.3047 20.0859C47.5078 20.9453 47.1094 22.0938 47.1094 23.5312C47.1094 24.8958 47.4818 25.9844 48.2266 26.7969C48.9766 27.6042 49.9583 28.0078 51.1719 28.0078C52.2969 28.0078 53.2708 27.7578 54.0938 27.2578V28.5312ZM64.0156 20.9375L63.8359 21.7656H61.7969L61.3047 24.1094H63.5L63.2891 24.9375H61.1406L60.4531 28.0391H59.4688L60.1406 24.9375H58.1875L57.5312 28.0391H56.5547L57.2109 24.9375H55.1641L55.3203 24.1094H57.3906L57.8672 21.7656H55.7031L55.8672 20.9375H58.0312L58.6875 17.7969H59.6719L59.0156 20.9375H60.9844L61.6562 17.7969H62.6172L61.9609 20.9375H64.0156ZM60.8281 21.7656H58.8594L58.3438 24.1094H60.3281L60.8281 21.7656Z" fill="#ADBAC7"/>
<path d="M4 2H80V0H4V2ZM82 4V41H84V4H82ZM80 43H4V45H80V43ZM2 41V4H0V41H2ZM4 43C2.89543 43 2 42.1046 2 41H0C0 43.2091 1.79086 45 4 45V43ZM82 41C82 42.1046 81.1046 43 80 43V45C82.2091 45 84 43.2091 84 41H82ZM80 2C81.1046 2 82 2.89543 82 4H84C84 1.79086 82.2091 0 80 0V2ZM4 0C1.79086 0 0 1.79086 0 4H2C2 2.89543 2.89543 2 4 2V0Z" fill="#444C56"/>
</svg>
