<svg width="62" height="36" viewBox="0 0 62 36" fill="none" xmlns="http://www.w3.org/2000/svg">
<g filter="url(#filter0_d)">
<path d="M2 3C2 1.34315 3.34315 0 5 0H57C58.6569 0 60 1.34315 60 3V29C60 30.6569 58.6569 32 57 32H5C3.34315 32 2 30.6569 2 29V3Z" fill="#C9D1D9"/>
<path d="M26.9731 12.2784C26.9729 11.9765 26.9084 11.7097 26.7778 11.4809C26.6496 11.2557 26.4575 11.067 26.1999 10.9178C24.0733 9.6916 21.9447 8.46916 19.8188 7.24173C19.2457 6.91085 18.69 6.92298 18.1211 7.2586C17.2747 7.75773 13.0369 10.1857 11.7741 10.9171C11.254 11.2182 11.0009 11.679 11.0008 12.2778C11 14.7437 11.0008 17.2097 11 19.6756C11 19.9708 11.0619 20.2325 11.1867 20.4579C11.3151 20.6898 11.5098 20.8837 11.7734 21.0363C13.0362 21.7677 17.2746 24.1955 18.1209 24.6948C18.69 25.0306 19.2457 25.0426 19.819 24.7117C21.9449 23.4842 24.0737 22.2617 26.2006 21.0355C26.4641 20.883 26.6589 20.689 26.7872 20.4573C26.9118 20.2318 26.9739 19.9702 26.9739 19.6749C26.9739 19.6749 26.9739 14.7444 26.9731 12.2784Z" fill="#A179DC"/>
<path d="M19.0114 15.9526L11.1868 20.4578C11.3151 20.6897 11.5098 20.8836 11.7734 21.0362C13.0363 21.7676 17.2746 24.1954 18.1209 24.6947C18.69 25.0305 19.2457 25.0425 19.819 24.7116C21.9449 23.4841 24.0737 22.2616 26.2006 21.0354C26.4641 20.8829 26.6589 20.6889 26.7872 20.4572L19.0114 15.9526Z" fill="#280068"/>
<path d="M26.9731 12.2783C26.9729 11.9764 26.9084 11.7096 26.7778 11.4808L19.0114 15.9526L26.7872 20.4572C26.9118 20.2317 26.9738 19.9701 26.9739 19.6748C26.9739 19.6748 26.9739 14.7443 26.9731 12.2783Z" fill="#390091"/>
<path d="M23.6183 14.2684V15.1105H24.4604V14.2684H24.8814V15.1105H25.7236V15.5316H24.8814V16.3736H25.7236V16.7947H24.8814V17.6368H24.4604V16.7947H23.6183V17.6368H23.1972V16.7947H22.3551V16.3736H23.1972V15.5316H22.3551V15.1105H23.1972V14.2684H23.6183ZM24.4604 15.5315H23.6183V16.3736H24.4604V15.5316V15.5315Z" fill="white"/>
<path d="M19.0286 10.0391C21.2251 10.0391 23.1428 11.232 24.1699 13.0051L24.1599 12.9881L21.5756 14.4761C21.0664 13.614 20.1331 13.0322 19.0623 13.0202L19.0285 13.02C17.3957 13.02 16.0719 14.3438 16.0719 15.9766C16.0714 16.4912 16.2059 16.997 16.4619 17.4434C16.9715 18.3331 17.9296 18.9332 19.0286 18.9332C20.1344 18.9332 21.0979 18.3255 21.6049 17.4263L21.5926 17.4479L24.173 18.9427C23.1571 20.7009 21.2656 21.8901 19.0947 21.9137L19.0286 21.9141C16.8251 21.9141 14.902 20.7139 13.8774 18.9314C13.3772 18.0612 13.091 17.0524 13.091 15.9766C13.091 12.6974 15.7493 10.0391 19.0285 10.0391L19.0286 10.0391Z" fill="white"/>
<path d="M43.2656 17.293C43.1602 18.1953 42.8262 18.8926 42.2637 19.3848C41.7051 19.873 40.9609 20.1172 40.0312 20.1172C39.0234 20.1172 38.2148 19.7559 37.6055 19.0332C37 18.3105 36.6973 17.3438 36.6973 16.1328V15.3125C36.6973 14.5195 36.8379 13.8223 37.1191 13.2207C37.4043 12.6191 37.8066 12.1582 38.3262 11.8379C38.8457 11.5137 39.4473 11.3516 40.1309 11.3516C41.0371 11.3516 41.7637 11.6055 42.3105 12.1133C42.8574 12.6172 43.1758 13.3164 43.2656 14.2109H42.1348C42.0371 13.5312 41.8242 13.0391 41.4961 12.7344C41.1719 12.4297 40.7168 12.2773 40.1309 12.2773C39.4121 12.2773 38.8477 12.543 38.4375 13.0742C38.0312 13.6055 37.8281 14.3613 37.8281 15.3418V16.168C37.8281 17.0938 38.0215 17.8301 38.4082 18.377C38.7949 18.9238 39.3359 19.1973 40.0312 19.1973C40.6562 19.1973 41.1348 19.0566 41.4668 18.7754C41.8027 18.4902 42.0254 17.9961 42.1348 17.293H43.2656ZM48.2988 17.5977H46.752L46.2832 20H45.4453L45.9141 17.5977H44.5137V16.7949H46.0664L46.4707 14.7207H44.959V13.9062H46.6289L47.1094 11.4688H47.9473L47.4668 13.9062H49.0137L49.4941 11.4688H50.3379L49.8574 13.9062H51.0527V14.7207H49.6992L49.2949 16.7949H50.6133V17.5977H49.1426L48.6738 20H47.8301L48.2988 17.5977ZM46.9043 16.7949H48.4512L48.8555 14.7207H47.3086L46.9043 16.7949Z" fill="#22272E"/>
</g>
<defs>
<filter id="filter0_d" x="0" y="0" width="62" height="36" filterUnits="userSpaceOnUse" color-interpolation-filters="sRGB">
<feFlood flood-opacity="0" result="BackgroundImageFix"/>
<feColorMatrix in="SourceAlpha" type="matrix" values="0 0 0 0 0 0 0 0 0 0 0 0 0 0 0 0 0 0 127 0" result="hardAlpha"/>
<feOffset dy="2"/>
<feGaussianBlur stdDeviation="1"/>
<feComposite in2="hardAlpha" operator="out"/>
<feColorMatrix type="matrix" values="0 0 0 0 0 0 0 0 0 0 0 0 0 0 0 0 0 0 0.25 0"/>
<feBlend mode="normal" in2="BackgroundImageFix" result="effect1_dropShadow"/>
<feBlend mode="normal" in="SourceGraphic" in2="effect1_dropShadow" result="shape"/>
</filter>
</defs>
</svg>
