<svg xmlns="http://www.w3.org/2000/svg" width="116" height="56" fill="none"><rect width="98" height="48" x="9" y="4" fill="#E3F2FD" rx="4"/><g clip-path="url(#a)"><path fill="#A179DC" d="M50.63 23.038c0-.403-.086-.758-.26-1.064a2.033 2.033 0 0 0-.77-.75c-2.836-1.635-5.674-3.265-8.508-4.902-.764-.44-1.505-.425-2.264.023-1.128.665-6.779 3.902-8.463 4.878-.693.401-1.03 1.016-1.03 1.814-.002 3.288 0 6.576-.002 9.864 0 .393.083.742.25 1.043.17.31.43.568.782.771 1.683.975 7.335 4.212 8.463 4.878.759.448 1.5.464 2.264.022 2.835-1.636 5.673-3.266 8.509-4.901.351-.203.61-.462.782-.771.166-.3.249-.65.249-1.043l-.001-9.862Z"/><path fill="#280068" d="m40.015 27.937-10.433 6.007c.171.309.431.567.783.77 1.683.976 7.335 4.213 8.463 4.879.759.448 1.5.464 2.264.022 2.835-1.636 5.673-3.266 8.509-4.901.351-.203.61-.462.782-.771l-10.368-6.006"/><path fill="#390091" d="M50.63 23.038c0-.403-.086-.759-.26-1.064l-10.355 5.963 10.368 6.006c.166-.3.249-.65.249-1.043l-.001-9.862"/><path fill="#fff" d="M46.158 25.691v1.123h1.123v-1.123h.56v1.123h1.124v.561h-1.123v1.123h1.123v.562h-1.123v1.122h-.561V29.06h-1.123v1.122h-.562V29.06h-1.122v-.562h1.122v-1.123h-1.122v-.561h1.122v-1.123h.562Zm1.123 1.684h-1.123v1.123h1.123v-1.123Z"/><path fill="#fff" d="M40.038 20.052a7.914 7.914 0 0 1 6.855 3.955l-.013-.023-3.446 1.984a3.94 3.94 0 0 0-3.351-1.941h-.045a3.942 3.942 0 1 0 3.435 5.875l-.016.028 3.44 1.994a7.914 7.914 0 0 1-6.77 3.961h-.089a7.913 7.913 0 0 1-7.917-7.916 7.917 7.917 0 0 1 7.917-7.917Z"/></g><path fill="#000" d="M77.094 34.031c-.828.438-1.86.657-3.094.657-1.594 0-2.87-.514-3.828-1.54-.959-1.026-1.438-2.372-1.438-4.039 0-1.791.54-3.24 1.618-4.343 1.078-1.104 2.445-1.657 4.101-1.657 1.063 0 1.943.154 2.64.461v1.399a5.354 5.354 0 0 0-2.656-.672c-1.286 0-2.33.43-3.132 1.289-.797.86-1.196 2.008-1.196 3.445 0 1.365.373 2.453 1.118 3.266.75.807 1.731 1.21 2.945 1.21 1.125 0 2.099-.25 2.922-.75v1.274Zm9.922-7.593-.18.828h-2.04l-.491 2.343H86.5l-.21.828h-2.15l-.687 3.102h-.984l.672-3.102h-1.954l-.656 3.102h-.976l.656-3.102h-2.047l.156-.828h2.07l.477-2.343h-2.164l.164-.828h2.164l.656-3.141h.985l-.656 3.14h1.968l.672-3.14h.961l-.656 3.14h2.055Zm-3.188.828H81.86l-.515 2.343h1.984l.5-2.343Z"/><rect width="98" height="48" x="9" y="4" stroke="#2196F3" stroke-width="2" rx="4"/><defs><clipPath id="a"><path fill="#fff" d="M29.333 16h21.333v24H29.333z"/></clipPath></defs></svg>