<svg width="19" height="18" viewBox="0 0 19 18" fill="none" xmlns="http://www.w3.org/2000/svg">
<g clip-path="url(#clip0)">
<path d="M2.88494 13.1176L9.9953 17.2228L17.106 13.1176V4.90719L9.9953 0.802033L2.88494 4.90719V13.1176ZM9.9953 18L2.2117 13.5061V4.51861L9.9953 0.0245667L17.7793 4.51861V13.5061L9.9953 18Z" fill="#A1070C"/>
<path d="M2.7942 4.85472L9.99548 0.697083L17.1968 4.85472V13.17L9.99548 17.3277L2.7942 13.17V4.85472Z" fill="url(#paint0_linear)"/>
<path d="M13.2994 5.96996C13.2994 6.29664 13.235 6.62113 13.1061 6.94342C12.9772 7.2656 12.8024 7.56744 12.5871 7.83953C12.3711 8.11359 12.1184 8.35656 11.8361 8.5616C11.5524 8.76793 11.258 8.91613 10.9528 9.00643L10.8175 8.78082C10.9991 8.68976 11.1664 8.57246 11.3139 8.43268C11.4641 8.29102 11.5943 8.12942 11.7006 7.9524C11.8077 7.77488 11.8911 7.58415 11.9488 7.38503C12.0066 7.18712 12.0359 6.982 12.0359 6.77583C12.0359 6.53946 12.0015 6.31598 11.9327 6.10539C11.864 5.89474 11.763 5.71103 11.6298 5.55414C11.4965 5.39725 11.3321 5.27374 11.1366 5.1835C10.941 5.09319 10.7164 5.04807 10.4629 5.04807C10.1534 5.04807 9.86978 5.10828 9.61188 5.22862C9.35404 5.34897 9.12193 5.51121 8.9156 5.71535C8.70933 5.91949 8.52987 6.15374 8.3773 6.41802C8.22461 6.68263 8.09727 6.96109 7.99699 7.24967C7.89688 7.53629 7.82033 7.83059 7.7681 8.12966C7.71653 8.42624 7.69074 8.70554 7.69074 8.96776C7.69074 9.23423 7.71872 9.50928 7.77454 9.79296C7.83113 10.0791 7.91313 10.3595 8.01955 10.6311C8.12591 10.904 8.25984 11.1653 8.41926 11.4111C8.57828 11.6561 8.76199 11.871 8.97045 12.0558C9.17723 12.2395 9.41236 12.3887 9.66673 12.4974C9.92244 12.607 10.2007 12.6618 10.5015 12.6618C10.7079 12.6618 10.9088 12.6338 11.1043 12.578C11.2996 12.5222 11.4886 12.4466 11.6684 12.3524C11.8497 12.2573 12.0213 12.1451 12.181 12.0171C12.341 11.8893 12.4908 11.7492 12.629 11.5981L12.8417 11.8043C12.6526 12.0537 12.4281 12.2933 12.1681 12.5231C11.9076 12.7534 11.6259 12.9585 11.3267 13.1356C11.029 13.3126 10.7121 13.4553 10.3823 13.5611C10.0535 13.6664 9.72797 13.719 9.40561 13.719C9.09183 13.719 8.79635 13.6643 8.51917 13.5547C8.24345 13.4459 7.98586 13.2959 7.7552 13.1098C7.52315 12.9229 7.31572 12.7037 7.13311 12.4523C6.95088 12.2016 6.79532 11.9326 6.66894 11.6496C6.5428 11.3679 6.4456 11.0742 6.37881 10.7729C6.31222 10.472 6.2789 10.1776 6.2789 9.88965C6.2789 9.47273 6.34871 9.04401 6.48839 8.6035C6.62808 8.16299 6.82042 7.73536 7.06543 7.32057C7.31037 6.90584 7.59941 6.51361 7.93247 6.14407C8.26559 5.77446 8.62449 5.45204 9.00912 5.17705C9.39375 4.90194 9.79565 4.68388 10.2146 4.52273C10.6337 4.36152 11.0517 4.28094 11.4686 4.28094C11.7264 4.28094 11.9671 4.31853 12.1906 4.39375C12.4141 4.46897 12.6075 4.57746 12.7708 4.71933C12.9342 4.86114 13.0631 5.03737 13.1576 5.24796C13.2522 5.45855 13.2994 5.69917 13.2994 5.96996Z" fill="#A1070C"/>
</g>
<defs>
<linearGradient id="paint0_linear" x1="9.99548" y1="8.2186" x2="9.99548" y2="17.3277" gradientUnits="userSpaceOnUse">
<stop stop-color="#F7F6F3"/>
<stop offset="1" stop-color="#FEF6D5"/>
</linearGradient>
<clipPath id="clip0">
<rect width="15.57" height="18" fill="white" transform="translate(2.21048)"/>
</clipPath>
</defs>
</svg>
