<svg width="62" height="28" viewBox="0 0 62 28" fill="none" xmlns="http://www.w3.org/2000/svg">
<g filter="url(#filter0_d)">
<path d="M2.5 5C2.5 2.23858 4.73858 0 7.5 0H54.5C57.2614 0 59.5 2.23858 59.5 5V19C59.5 21.7614 57.2614 24 54.5 24H7.5C4.73858 24 2.5 21.7614 2.5 19V5Z" fill="white"/>
<g clip-path="url(#clip0)">
<path d="M9.38945 16.1176L16.4998 20.2228L23.6105 16.1176V7.90719L16.4998 3.80203L9.38945 7.90719V16.1176V16.1176ZM16.4998 21L8.71622 16.5061V7.51861L16.4998 3.02457L24.2838 7.51861V16.5061L16.4998 21Z" fill="#A1070C"/>
<path d="M9.29872 7.85471L16.5 3.69707L23.7013 7.85471V16.17L16.5 20.3277L9.29872 16.17V7.85471Z" fill="url(#paint0_linear)"/>
<path d="M19.804 8.96998C19.804 9.29666 19.7395 9.62114 19.6106 9.94344C19.4818 10.2656 19.307 10.5675 19.0916 10.8395C18.8757 11.1136 18.6229 11.3566 18.3406 11.5616C18.0569 11.7679 17.7625 11.9161 17.4573 12.0064L17.322 11.7808C17.5036 11.6898 17.6709 11.5725 17.8184 11.4327C17.9686 11.291 18.0988 11.1294 18.2051 10.9524C18.3122 10.7749 18.3957 10.5842 18.4534 10.385C18.5111 10.1871 18.5404 9.98201 18.5404 9.77585C18.5404 9.53947 18.506 9.31599 18.4373 9.10541C18.3685 8.89476 18.2675 8.71105 18.1343 8.55416C18.0011 8.39726 17.8366 8.27376 17.6411 8.18351C17.4455 8.09321 17.2209 8.04809 16.9674 8.04809C16.6579 8.04809 16.3743 8.10829 16.1164 8.22864C15.8586 8.34898 15.6265 8.51122 15.4201 8.71537C15.2139 8.91951 15.0344 9.15375 14.8818 9.41803C14.7291 9.68265 14.6018 9.9611 14.5015 10.2497C14.4014 10.5363 14.3249 10.8306 14.2726 11.1297C14.2211 11.4263 14.1953 11.7056 14.1953 11.9678C14.1953 12.2342 14.2232 12.5093 14.2791 12.793C14.3357 13.0791 14.4177 13.3595 14.5241 13.6311C14.6304 13.904 14.7644 14.1654 14.9238 14.4111C15.0828 14.6561 15.2665 14.871 15.475 15.0558C15.6818 15.2396 15.9169 15.3887 16.1713 15.4974C16.427 15.607 16.7052 15.6618 17.0061 15.6618C17.2124 15.6618 17.4133 15.6338 17.6088 15.578C17.8041 15.5223 17.9931 15.4467 18.173 15.3524C18.3542 15.2574 18.5258 15.1451 18.6855 15.0171C18.8455 14.8893 18.9953 14.7492 19.1335 14.5981L19.3463 14.8044C19.1571 15.0537 18.9326 15.2933 18.6726 15.5231C18.4121 15.7534 18.1304 15.9585 17.8313 16.1356C17.5335 16.3126 17.2167 16.4553 16.8868 16.5611C16.558 16.6664 16.2325 16.719 15.9101 16.719C15.5964 16.719 15.3009 16.6643 15.0237 16.5547C14.748 16.4459 14.4904 16.296 14.2597 16.1098C14.0277 15.9229 13.8203 15.7037 13.6376 15.4523C13.4554 15.2016 13.2998 14.9326 13.1735 14.6496C13.0473 14.3679 12.9501 14.0742 12.8833 13.7729C12.8168 13.472 12.7834 13.1776 12.7834 12.8897C12.7834 12.4727 12.8532 12.044 12.9929 11.6035C13.1326 11.163 13.3249 10.7354 13.57 10.3206C13.8149 9.90586 14.1039 9.51363 14.437 9.14408C14.7701 8.77447 15.129 8.45205 15.5136 8.17707C15.8983 7.90196 16.3002 7.68389 16.7192 7.52274C17.1382 7.36153 17.5562 7.28096 17.9731 7.28096C18.2309 7.28096 18.4717 7.31854 18.6951 7.39376C18.9186 7.46899 19.112 7.57747 19.2753 7.71935C19.4387 7.86116 19.5676 8.03739 19.6622 8.24797C19.7567 8.45856 19.804 8.69919 19.804 8.96998V8.96998Z" fill="#A1070C"/>
</g>
<path d="M37.7656 13.293C37.6602 14.1953 37.3262 14.8926 36.7637 15.3848C36.2051 15.873 35.4609 16.1172 34.5312 16.1172C33.5234 16.1172 32.7148 15.7559 32.1055 15.0332C31.5 14.3105 31.1973 13.3438 31.1973 12.1328V11.3125C31.1973 10.5195 31.3379 9.82227 31.6191 9.2207C31.9043 8.61914 32.3066 8.1582 32.8262 7.83789C33.3457 7.51367 33.9473 7.35156 34.6309 7.35156C35.5371 7.35156 36.2637 7.60547 36.8105 8.11328C37.3574 8.61719 37.6758 9.31641 37.7656 10.2109H36.6348C36.5371 9.53125 36.3242 9.03906 35.9961 8.73438C35.6719 8.42969 35.2168 8.27734 34.6309 8.27734C33.9121 8.27734 33.3477 8.54297 32.9375 9.07422C32.5312 9.60547 32.3281 10.3613 32.3281 11.3418V12.168C32.3281 13.0938 32.5215 13.8301 32.9082 14.377C33.2949 14.9238 33.8359 15.1973 34.5312 15.1973C35.1562 15.1973 35.6348 15.0566 35.9668 14.7754C36.3027 14.4902 36.5254 13.9961 36.6348 13.293H37.7656ZM40.2207 10.4277C40.7012 9.83789 41.3262 9.54297 42.0957 9.54297C43.4355 9.54297 44.1113 10.2988 44.123 11.8105V16H43.0391V11.8047C43.0352 11.3477 42.9297 11.0098 42.7227 10.791C42.5195 10.5723 42.2012 10.4629 41.7676 10.4629C41.416 10.4629 41.1074 10.5566 40.8418 10.7441C40.5762 10.9316 40.3691 11.1777 40.2207 11.4824V16H39.1367V7H40.2207V10.4277ZM49.6602 16C49.5977 15.875 49.5469 15.6523 49.5078 15.332C49.0039 15.8555 48.4023 16.1172 47.7031 16.1172C47.0781 16.1172 46.5645 15.9414 46.1621 15.5898C45.7637 15.2344 45.5645 14.7852 45.5645 14.2422C45.5645 13.582 45.8145 13.0703 46.3145 12.707C46.8184 12.3398 47.5254 12.1562 48.4355 12.1562H49.4902V11.6582C49.4902 11.2793 49.377 10.9785 49.1504 10.7559C48.9238 10.5293 48.5898 10.416 48.1484 10.416C47.7617 10.416 47.4375 10.5137 47.1758 10.709C46.9141 10.9043 46.7832 11.1406 46.7832 11.418H45.6934C45.6934 11.1016 45.8047 10.7969 46.0273 10.5039C46.2539 10.207 46.5586 9.97266 46.9414 9.80078C47.3281 9.62891 47.752 9.54297 48.2129 9.54297C48.9434 9.54297 49.5156 9.72656 49.9297 10.0938C50.3438 10.457 50.5586 10.959 50.5742 11.5996V14.5176C50.5742 15.0996 50.6484 15.5625 50.7969 15.9062V16H49.6602ZM47.8613 15.1738C48.2012 15.1738 48.5234 15.0859 48.8281 14.9102C49.1328 14.7344 49.3535 14.5059 49.4902 14.2246V12.9238H48.6406C47.3125 12.9238 46.6484 13.3125 46.6484 14.0898C46.6484 14.4297 46.7617 14.6953 46.9883 14.8867C47.2148 15.0781 47.5059 15.1738 47.8613 15.1738ZM53.4512 16H52.3672V9.66016H53.4512V16ZM52.2793 7.97852C52.2793 7.80273 52.332 7.6543 52.4375 7.5332C52.5469 7.41211 52.707 7.35156 52.918 7.35156C53.1289 7.35156 53.2891 7.41211 53.3984 7.5332C53.5078 7.6543 53.5625 7.80273 53.5625 7.97852C53.5625 8.1543 53.5078 8.30078 53.3984 8.41797C53.2891 8.53516 53.1289 8.59375 52.918 8.59375C52.707 8.59375 52.5469 8.53516 52.4375 8.41797C52.332 8.30078 52.2793 8.1543 52.2793 7.97852Z" fill="black"/>
</g>
<defs>
<filter id="filter0_d" x="0.5" y="0" width="61" height="28" filterUnits="userSpaceOnUse" color-interpolation-filters="sRGB">
<feFlood flood-opacity="0" result="BackgroundImageFix"/>
<feColorMatrix in="SourceAlpha" type="matrix" values="0 0 0 0 0 0 0 0 0 0 0 0 0 0 0 0 0 0 127 0" result="hardAlpha"/>
<feOffset dy="2"/>
<feGaussianBlur stdDeviation="1"/>
<feComposite in2="hardAlpha" operator="out"/>
<feColorMatrix type="matrix" values="0 0 0 0 0 0 0 0 0 0 0 0 0 0 0 0 0 0 0.25 0"/>
<feBlend mode="normal" in2="BackgroundImageFix" result="effect1_dropShadow"/>
<feBlend mode="normal" in="SourceGraphic" in2="effect1_dropShadow" result="shape"/>
</filter>
<linearGradient id="paint0_linear" x1="16.5" y1="11.2186" x2="16.5" y2="20.3277" gradientUnits="userSpaceOnUse">
<stop stop-color="#F7F6F3"/>
<stop offset="1" stop-color="#FEF6D5"/>
</linearGradient>
<clipPath id="clip0">
<rect width="15.57" height="18" fill="white" transform="translate(8.715 3)"/>
</clipPath>
</defs>
</svg>
