<svg width="69" height="34" viewBox="0 0 69 34" fill="none" xmlns="http://www.w3.org/2000/svg">
<path d="M1.5 4C1.5 2.34315 2.84315 1 4.5 1H64.5C66.1569 1 67.5 2.34315 67.5 4V30C67.5 31.6569 66.1569 33 64.5 33H4.5C2.84315 33 1.5 31.6569 1.5 30V4Z" fill="#C9D1D9"/>
<g clip-path="url(#clip0)">
<path d="M11.3895 21.1176L18.4998 25.2228L25.6105 21.1176V12.9072L18.4998 8.80203L11.3895 12.9072V21.1176ZM18.4998 26L10.7162 21.5061V12.5186L18.4998 8.02457L26.2838 12.5186V21.5061L18.4998 26Z" fill="#A1070C"/>
<path d="M11.2987 12.8547L18.5 8.69707L25.7013 12.8547V21.17L18.5 25.3277L11.2987 21.17V12.8547Z" fill="url(#paint0_linear)"/>
<path d="M21.804 13.97C21.804 14.2967 21.7395 14.6211 21.6106 14.9434C21.4818 15.2656 21.307 15.5675 21.0916 15.8395C20.8757 16.1136 20.6229 16.3566 20.3406 16.5616C20.0569 16.7679 19.7625 16.9161 19.4573 17.0064L19.322 16.7808C19.5036 16.6898 19.6709 16.5725 19.8184 16.4327C19.9686 16.291 20.0988 16.1294 20.2051 15.9524C20.3122 15.7749 20.3957 15.5842 20.4534 15.385C20.5111 15.1871 20.5404 14.982 20.5404 14.7758C20.5404 14.5395 20.506 14.316 20.4373 14.1054C20.3685 13.8948 20.2675 13.711 20.1343 13.5542C20.0011 13.3973 19.8366 13.2738 19.6411 13.1835C19.4455 13.0932 19.2209 13.0481 18.9674 13.0481C18.6579 13.0481 18.3743 13.1083 18.1164 13.2286C17.8586 13.349 17.6265 13.5112 17.4201 13.7154C17.2139 13.9195 17.0344 14.1538 16.8818 14.418C16.7291 14.6826 16.6018 14.9611 16.5015 15.2497C16.4014 15.5363 16.3249 15.8306 16.2726 16.1297C16.2211 16.4263 16.1953 16.7056 16.1953 16.9678C16.1953 17.2342 16.2232 17.5093 16.2791 17.793C16.3357 18.0791 16.4177 18.3595 16.5241 18.6311C16.6304 18.904 16.7644 19.1654 16.9238 19.4111C17.0828 19.6561 17.2665 19.871 17.475 20.0558C17.6818 20.2396 17.9169 20.3887 18.1713 20.4974C18.427 20.607 18.7052 20.6618 19.0061 20.6618C19.2124 20.6618 19.4133 20.6338 19.6088 20.578C19.8041 20.5223 19.9931 20.4467 20.173 20.3524C20.3542 20.2574 20.5258 20.1451 20.6855 20.0171C20.8455 19.8893 20.9953 19.7492 21.1335 19.5981L21.3463 19.8044C21.1571 20.0537 20.9326 20.2933 20.6726 20.5231C20.4121 20.7534 20.1304 20.9585 19.8313 21.1356C19.5335 21.3126 19.2167 21.4553 18.8868 21.5611C18.558 21.6664 18.2325 21.719 17.9101 21.719C17.5964 21.719 17.3009 21.6643 17.0237 21.5547C16.748 21.4459 16.4904 21.296 16.2597 21.1098C16.0277 20.9229 15.8203 20.7037 15.6376 20.4523C15.4554 20.2016 15.2998 19.9326 15.1735 19.6496C15.0473 19.3679 14.9501 19.0742 14.8833 18.7729C14.8168 18.472 14.7834 18.1776 14.7834 17.8897C14.7834 17.4727 14.8532 17.044 14.9929 16.6035C15.1326 16.163 15.3249 15.7354 15.57 15.3206C15.8149 14.9059 16.1039 14.5136 16.437 14.1441C16.7701 13.7745 17.129 13.4521 17.5136 13.1771C17.8983 12.902 18.3002 12.6839 18.7192 12.5227C19.1382 12.3615 19.5562 12.281 19.9731 12.281C20.2309 12.281 20.4717 12.3185 20.6951 12.3938C20.9186 12.469 21.112 12.5775 21.2753 12.7193C21.4387 12.8612 21.5676 13.0374 21.6622 13.248C21.7567 13.4586 21.804 13.6992 21.804 13.97Z" fill="#A1070C"/>
</g>
<path d="M42.7656 18.293C42.6602 19.1953 42.3262 19.8926 41.7637 20.3848C41.2051 20.873 40.4609 21.1172 39.5312 21.1172C38.5234 21.1172 37.7148 20.7559 37.1055 20.0332C36.5 19.3105 36.1973 18.3438 36.1973 17.1328V16.3125C36.1973 15.5195 36.3379 14.8223 36.6191 14.2207C36.9043 13.6191 37.3066 13.1582 37.8262 12.8379C38.3457 12.5137 38.9473 12.3516 39.6309 12.3516C40.5371 12.3516 41.2637 12.6055 41.8105 13.1133C42.3574 13.6172 42.6758 14.3164 42.7656 15.2109H41.6348C41.5371 14.5312 41.3242 14.0391 40.9961 13.7344C40.6719 13.4297 40.2168 13.2773 39.6309 13.2773C38.9121 13.2773 38.3477 13.543 37.9375 14.0742C37.5312 14.6055 37.3281 15.3613 37.3281 16.3418V17.168C37.3281 18.0938 37.5215 18.8301 37.9082 19.377C38.2949 19.9238 38.8359 20.1973 39.5312 20.1973C40.1562 20.1973 40.6348 20.0566 40.9668 19.7754C41.3027 19.4902 41.5254 18.9961 41.6348 18.293H42.7656ZM45.2207 15.4277C45.7012 14.8379 46.3262 14.543 47.0957 14.543C48.4355 14.543 49.1113 15.2988 49.123 16.8105V21H48.0391V16.8047C48.0352 16.3477 47.9297 16.0098 47.7227 15.791C47.5195 15.5723 47.2012 15.4629 46.7676 15.4629C46.416 15.4629 46.1074 15.5566 45.8418 15.7441C45.5762 15.9316 45.3691 16.1777 45.2207 16.4824V21H44.1367V12H45.2207V15.4277ZM54.6602 21C54.5977 20.875 54.5469 20.6523 54.5078 20.332C54.0039 20.8555 53.4023 21.1172 52.7031 21.1172C52.0781 21.1172 51.5645 20.9414 51.1621 20.5898C50.7637 20.2344 50.5645 19.7852 50.5645 19.2422C50.5645 18.582 50.8145 18.0703 51.3145 17.707C51.8184 17.3398 52.5254 17.1562 53.4355 17.1562H54.4902V16.6582C54.4902 16.2793 54.377 15.9785 54.1504 15.7559C53.9238 15.5293 53.5898 15.416 53.1484 15.416C52.7617 15.416 52.4375 15.5137 52.1758 15.709C51.9141 15.9043 51.7832 16.1406 51.7832 16.418H50.6934C50.6934 16.1016 50.8047 15.7969 51.0273 15.5039C51.2539 15.207 51.5586 14.9727 51.9414 14.8008C52.3281 14.6289 52.752 14.543 53.2129 14.543C53.9434 14.543 54.5156 14.7266 54.9297 15.0938C55.3438 15.457 55.5586 15.959 55.5742 16.5996V19.5176C55.5742 20.0996 55.6484 20.5625 55.7969 20.9062V21H54.6602ZM52.8613 20.1738C53.2012 20.1738 53.5234 20.0859 53.8281 19.9102C54.1328 19.7344 54.3535 19.5059 54.4902 19.2246V17.9238H53.6406C52.3125 17.9238 51.6484 18.3125 51.6484 19.0898C51.6484 19.4297 51.7617 19.6953 51.9883 19.8867C52.2148 20.0781 52.5059 20.1738 52.8613 20.1738ZM58.4512 21H57.3672V14.6602H58.4512V21ZM57.2793 12.9785C57.2793 12.8027 57.332 12.6543 57.4375 12.5332C57.5469 12.4121 57.707 12.3516 57.918 12.3516C58.1289 12.3516 58.2891 12.4121 58.3984 12.5332C58.5078 12.6543 58.5625 12.8027 58.5625 12.9785C58.5625 13.1543 58.5078 13.3008 58.3984 13.418C58.2891 13.5352 58.1289 13.5938 57.918 13.5938C57.707 13.5938 57.5469 13.5352 57.4375 13.418C57.332 13.3008 57.2793 13.1543 57.2793 12.9785Z" fill="#22272E"/>
<path d="M4.5 2H64.5V0H4.5V2ZM66.5 4V30H68.5V4H66.5ZM64.5 32H4.5V34H64.5V32ZM2.5 30V4H0.5V30H2.5ZM4.5 32C3.39543 32 2.5 31.1046 2.5 30H0.5C0.5 32.2091 2.29086 34 4.5 34V32ZM66.5 30C66.5 31.1046 65.6046 32 64.5 32V34C66.7091 34 68.5 32.2091 68.5 30H66.5ZM64.5 2C65.6046 2 66.5 2.89543 66.5 4H68.5C68.5 1.79086 66.7091 0 64.5 0V2ZM4.5 0C2.29086 0 0.5 1.79086 0.5 4H2.5C2.5 2.89543 3.39543 2 4.5 2V0Z" fill="#30363D"/>
<defs>
<linearGradient id="paint0_linear" x1="18.5" y1="16.2186" x2="18.5" y2="25.3277" gradientUnits="userSpaceOnUse">
<stop stop-color="#F7F6F3"/>
<stop offset="1" stop-color="#FEF6D5"/>
</linearGradient>
<clipPath id="clip0">
<rect width="15.57" height="18" fill="white" transform="translate(10.715 8)"/>
</clipPath>
</defs>
</svg>
