<svg width="95" height="45" viewBox="0 0 95 45" fill="none" xmlns="http://www.w3.org/2000/svg">
<path d="M1 4C1 2.34314 2.34315 1 4 1H91C92.6569 1 94 2.34315 94 4V41C94 42.6569 92.6569 44 91 44H4C2.34315 44 1 42.6569 1 41V4Z" fill="#22272E"/>
<g clip-path="url(#clip0)">
<path d="M17.4409 26.2869L23.9998 30.0738L30.5591 26.2869V18.7133L23.9998 14.9265L17.4409 18.7133V26.2869ZM23.9998 31.5L16.2056 26.9999V18.0002L23.9998 13.5L31.7944 18.0002V26.9999L23.9998 31.5ZM26.7791 18.2012C28.0198 19.2088 26.9785 21.8479 24.9587 22.4942L24.8231 22.2682C26.2108 21.4977 26.2251 19.9727 25.7387 19.1813C25.3075 18.4796 23.6675 17.9402 22.4233 19.8146C22.0344 20.4005 21.7038 21.461 21.6921 22.4554C21.663 25.06 24.1591 27.7012 26.6371 25.0893L26.8501 25.2959C24.1274 28.5046 20.6118 27.4734 20.2783 23.3786C20.4243 19.7507 24.6985 16.5605 26.7792 18.2012H26.7791Z" fill="#ADBAC7"/>
</g>
<path d="M54.0938 28.5312C53.2656 28.9688 52.2344 29.1875 51 29.1875C49.4062 29.1875 48.1302 28.6745 47.1719 27.6484C46.2135 26.6224 45.7344 25.276 45.7344 23.6094C45.7344 21.8177 46.2734 20.3698 47.3516 19.2656C48.4297 18.1615 49.7969 17.6094 51.4531 17.6094C52.5156 17.6094 53.3958 17.763 54.0938 18.0703V19.4688C53.2917 19.0208 52.4062 18.7969 51.4375 18.7969C50.151 18.7969 49.1068 19.2266 48.3047 20.0859C47.5078 20.9453 47.1094 22.0938 47.1094 23.5312C47.1094 24.8958 47.4818 25.9844 48.2266 26.7969C48.9766 27.6042 49.9583 28.0078 51.1719 28.0078C52.2969 28.0078 53.2708 27.7578 54.0938 27.2578V28.5312ZM62.8438 29H61.5625V24.3906C61.5625 22.724 60.9427 21.8906 59.7031 21.8906C59.0781 21.8906 58.5521 22.1328 58.125 22.6172C57.6979 23.0964 57.4844 23.7135 57.4844 24.4688V29H56.2031V17.1562H57.4844V22.3281H57.5156C58.1302 21.3177 59.0052 20.8125 60.1406 20.8125C61.9427 20.8125 62.8438 21.8984 62.8438 24.0703V29ZM70.9922 29H69.7109V27.75H69.6797C69.1224 28.7083 68.3021 29.1875 67.2188 29.1875C66.4219 29.1875 65.7969 28.9766 65.3438 28.5547C64.8958 28.1328 64.6719 27.5729 64.6719 26.875C64.6719 25.3802 65.5521 24.5104 67.3125 24.2656L69.7109 23.9297C69.7109 22.5703 69.1615 21.8906 68.0625 21.8906C67.099 21.8906 66.2292 22.2188 65.4531 22.875V21.5625C66.2396 21.0625 67.1458 20.8125 68.1719 20.8125C70.0521 20.8125 70.9922 21.8073 70.9922 23.7969V29ZM69.7109 24.9531L67.7812 25.2188C67.1875 25.3021 66.7396 25.4505 66.4375 25.6641C66.1354 25.8724 65.9844 26.2448 65.9844 26.7812C65.9844 27.1719 66.1224 27.4922 66.3984 27.7422C66.6797 27.987 67.0521 28.1094 67.5156 28.1094C68.151 28.1094 68.6745 27.888 69.0859 27.4453C69.5026 26.9974 69.7109 26.4323 69.7109 25.75V24.9531ZM74.0625 18.9688C73.8333 18.9688 73.638 18.8906 73.4766 18.7344C73.3151 18.5781 73.2344 18.3802 73.2344 18.1406C73.2344 17.901 73.3151 17.7031 73.4766 17.5469C73.638 17.3854 73.8333 17.3047 74.0625 17.3047C74.2969 17.3047 74.4948 17.3854 74.6562 17.5469C74.8229 17.7031 74.9062 17.901 74.9062 18.1406C74.9062 18.3698 74.8229 18.5651 74.6562 18.7266C74.4948 18.888 74.2969 18.9688 74.0625 18.9688ZM74.6875 29H73.4062V21H74.6875V29Z" fill="#ADBAC7"/>
<path d="M4 2H91V0H4V2ZM93 4V41H95V4H93ZM91 43H4V45H91V43ZM2 41V4H0V41H2ZM4 43C2.89543 43 2 42.1046 2 41H0C0 43.2091 1.79086 45 4 45V43ZM93 41C93 42.1046 92.1046 43 91 43V45C93.2091 45 95 43.2091 95 41H93ZM91 2C92.1046 2 93 2.89543 93 4H95C95 1.79086 93.2091 0 91 0V2ZM4 0C1.79086 0 0 1.79086 0 4H2C2 2.89543 2.89543 2 4 2V0Z" fill="#444C56"/>
<defs>
<clipPath id="clip0">
<rect width="18" height="18" fill="white" transform="translate(15 13.5)"/>
</clipPath>
</defs>
</svg>
