<svg width="71" height="36" viewBox="0 0 71 36" fill="none" xmlns="http://www.w3.org/2000/svg">
<g filter="url(#filter0_d)">
<path d="M2.5 3C2.5 1.34315 3.84315 0 5.5 0H65.5C67.1569 0 68.5 1.34315 68.5 3V29C68.5 30.6569 67.1569 32 65.5 32H5.5C3.84315 32 2.5 30.6569 2.5 29V3Z" fill="#C9D1D9"/>
<g clip-path="url(#clip0)">
<path d="M12.3895 20.1176L19.4998 24.2228L26.6105 20.1176V11.9072L19.4998 7.80203L12.3895 11.9072V20.1176ZM19.4998 25L11.7162 20.5061V11.5186L19.4998 7.02457L27.2838 11.5186V20.5061L19.4998 25Z" fill="#A1070C"/>
<path d="M12.2987 11.8547L19.5 7.69707L26.7013 11.8547V20.17L19.5 24.3277L12.2987 20.17V11.8547Z" fill="url(#paint0_linear)"/>
<path d="M22.804 12.97C22.804 13.2967 22.7395 13.6211 22.6106 13.9434C22.4818 14.2656 22.307 14.5675 22.0916 14.8395C21.8757 15.1136 21.6229 15.3566 21.3406 15.5616C21.0569 15.7679 20.7625 15.9161 20.4573 16.0064L20.322 15.7808C20.5036 15.6898 20.6709 15.5725 20.8184 15.4327C20.9686 15.291 21.0988 15.1294 21.2051 14.9524C21.3122 14.7749 21.3957 14.5842 21.4534 14.385C21.5111 14.1871 21.5404 13.982 21.5404 13.7758C21.5404 13.5395 21.506 13.316 21.4373 13.1054C21.3685 12.8948 21.2675 12.711 21.1343 12.5542C21.0011 12.3973 20.8366 12.2738 20.6411 12.1835C20.4455 12.0932 20.2209 12.0481 19.9674 12.0481C19.6579 12.0481 19.3743 12.1083 19.1164 12.2286C18.8586 12.349 18.6265 12.5112 18.4201 12.7154C18.2139 12.9195 18.0344 13.1538 17.8818 13.418C17.7291 13.6826 17.6018 13.9611 17.5015 14.2497C17.4014 14.5363 17.3249 14.8306 17.2726 15.1297C17.2211 15.4263 17.1953 15.7056 17.1953 15.9678C17.1953 16.2342 17.2232 16.5093 17.2791 16.793C17.3357 17.0791 17.4177 17.3595 17.5241 17.6311C17.6304 17.904 17.7644 18.1654 17.9238 18.4111C18.0828 18.6561 18.2665 18.871 18.475 19.0558C18.6818 19.2396 18.9169 19.3887 19.1713 19.4974C19.427 19.607 19.7052 19.6618 20.0061 19.6618C20.2124 19.6618 20.4133 19.6338 20.6088 19.578C20.8041 19.5223 20.9931 19.4467 21.173 19.3524C21.3542 19.2574 21.5258 19.1451 21.6855 19.0171C21.8455 18.8893 21.9953 18.7492 22.1335 18.5981L22.3463 18.8044C22.1571 19.0537 21.9326 19.2933 21.6726 19.5231C21.4121 19.7534 21.1304 19.9585 20.8313 20.1356C20.5335 20.3126 20.2167 20.4553 19.8868 20.5611C19.558 20.6664 19.2325 20.719 18.9101 20.719C18.5964 20.719 18.3009 20.6643 18.0237 20.5547C17.748 20.4459 17.4904 20.296 17.2597 20.1098C17.0277 19.9229 16.8203 19.7037 16.6376 19.4523C16.4554 19.2016 16.2998 18.9326 16.1735 18.6496C16.0473 18.3679 15.9501 18.0742 15.8833 17.7729C15.8168 17.472 15.7834 17.1776 15.7834 16.8897C15.7834 16.4727 15.8532 16.044 15.9929 15.6035C16.1326 15.163 16.3249 14.7354 16.57 14.3206C16.8149 13.9059 17.1039 13.5136 17.437 13.1441C17.7701 12.7745 18.129 12.4521 18.5136 12.1771C18.8983 11.902 19.3002 11.6839 19.7192 11.5227C20.1382 11.3615 20.5562 11.281 20.9731 11.281C21.2309 11.281 21.4717 11.3185 21.6951 11.3938C21.9186 11.469 22.112 11.5775 22.2753 11.7193C22.4387 11.8612 22.5676 12.0374 22.6622 12.248C22.7567 12.4586 22.804 12.6992 22.804 12.97Z" fill="#A1070C"/>
</g>
<path d="M43.7656 17.293C43.6602 18.1953 43.3262 18.8926 42.7637 19.3848C42.2051 19.873 41.4609 20.1172 40.5312 20.1172C39.5234 20.1172 38.7148 19.7559 38.1055 19.0332C37.5 18.3105 37.1973 17.3438 37.1973 16.1328V15.3125C37.1973 14.5195 37.3379 13.8223 37.6191 13.2207C37.9043 12.6191 38.3066 12.1582 38.8262 11.8379C39.3457 11.5137 39.9473 11.3516 40.6309 11.3516C41.5371 11.3516 42.2637 11.6055 42.8105 12.1133C43.3574 12.6172 43.6758 13.3164 43.7656 14.2109H42.6348C42.5371 13.5312 42.3242 13.0391 41.9961 12.7344C41.6719 12.4297 41.2168 12.2773 40.6309 12.2773C39.9121 12.2773 39.3477 12.543 38.9375 13.0742C38.5312 13.6055 38.3281 14.3613 38.3281 15.3418V16.168C38.3281 17.0938 38.5215 17.8301 38.9082 18.377C39.2949 18.9238 39.8359 19.1973 40.5312 19.1973C41.1562 19.1973 41.6348 19.0566 41.9668 18.7754C42.3027 18.4902 42.5254 17.9961 42.6348 17.293H43.7656ZM46.2207 14.4277C46.7012 13.8379 47.3262 13.543 48.0957 13.543C49.4355 13.543 50.1113 14.2988 50.123 15.8105V20H49.0391V15.8047C49.0352 15.3477 48.9297 15.0098 48.7227 14.791C48.5195 14.5723 48.2012 14.4629 47.7676 14.4629C47.416 14.4629 47.1074 14.5566 46.8418 14.7441C46.5762 14.9316 46.3691 15.1777 46.2207 15.4824V20H45.1367V11H46.2207V14.4277ZM55.6602 20C55.5977 19.875 55.5469 19.6523 55.5078 19.332C55.0039 19.8555 54.4023 20.1172 53.7031 20.1172C53.0781 20.1172 52.5645 19.9414 52.1621 19.5898C51.7637 19.2344 51.5645 18.7852 51.5645 18.2422C51.5645 17.582 51.8145 17.0703 52.3145 16.707C52.8184 16.3398 53.5254 16.1562 54.4355 16.1562H55.4902V15.6582C55.4902 15.2793 55.377 14.9785 55.1504 14.7559C54.9238 14.5293 54.5898 14.416 54.1484 14.416C53.7617 14.416 53.4375 14.5137 53.1758 14.709C52.9141 14.9043 52.7832 15.1406 52.7832 15.418H51.6934C51.6934 15.1016 51.8047 14.7969 52.0273 14.5039C52.2539 14.207 52.5586 13.9727 52.9414 13.8008C53.3281 13.6289 53.752 13.543 54.2129 13.543C54.9434 13.543 55.5156 13.7266 55.9297 14.0938C56.3438 14.457 56.5586 14.959 56.5742 15.5996V18.5176C56.5742 19.0996 56.6484 19.5625 56.7969 19.9062V20H55.6602ZM53.8613 19.1738C54.2012 19.1738 54.5234 19.0859 54.8281 18.9102C55.1328 18.7344 55.3535 18.5059 55.4902 18.2246V16.9238H54.6406C53.3125 16.9238 52.6484 17.3125 52.6484 18.0898C52.6484 18.4297 52.7617 18.6953 52.9883 18.8867C53.2148 19.0781 53.5059 19.1738 53.8613 19.1738ZM59.4512 20H58.3672V13.6602H59.4512V20ZM58.2793 11.9785C58.2793 11.8027 58.332 11.6543 58.4375 11.5332C58.5469 11.4121 58.707 11.3516 58.918 11.3516C59.1289 11.3516 59.2891 11.4121 59.3984 11.5332C59.5078 11.6543 59.5625 11.8027 59.5625 11.9785C59.5625 12.1543 59.5078 12.3008 59.3984 12.418C59.2891 12.5352 59.1289 12.5938 58.918 12.5938C58.707 12.5938 58.5469 12.5352 58.4375 12.418C58.332 12.3008 58.2793 12.1543 58.2793 11.9785Z" fill="#22272E"/>
</g>
<defs>
<filter id="filter0_d" x="0.5" y="0" width="70" height="36" filterUnits="userSpaceOnUse" color-interpolation-filters="sRGB">
<feFlood flood-opacity="0" result="BackgroundImageFix"/>
<feColorMatrix in="SourceAlpha" type="matrix" values="0 0 0 0 0 0 0 0 0 0 0 0 0 0 0 0 0 0 127 0" result="hardAlpha"/>
<feOffset dy="2"/>
<feGaussianBlur stdDeviation="1"/>
<feComposite in2="hardAlpha" operator="out"/>
<feColorMatrix type="matrix" values="0 0 0 0 0 0 0 0 0 0 0 0 0 0 0 0 0 0 0.25 0"/>
<feBlend mode="normal" in2="BackgroundImageFix" result="effect1_dropShadow"/>
<feBlend mode="normal" in="SourceGraphic" in2="effect1_dropShadow" result="shape"/>
</filter>
<linearGradient id="paint0_linear" x1="19.5" y1="15.2186" x2="19.5" y2="24.3277" gradientUnits="userSpaceOnUse">
<stop stop-color="#F7F6F3"/>
<stop offset="1" stop-color="#FEF6D5"/>
</linearGradient>
<clipPath id="clip0">
<rect width="15.57" height="18" fill="white" transform="translate(11.715 7)"/>
</clipPath>
</defs>
</svg>
