<svg xmlns="http://www.w3.org/2000/svg" width="127" height="56" fill="none"><rect width="109" height="48" x="9" y="4" fill="#FCE4EC" rx="4"/><g clip-path="url(#a)"><path fill="#A1070C" d="m32.1 32.575 7.9 4.561 7.9-4.561v-9.123l-7.9-4.56-7.9 4.56v9.123ZM40 38l-8.649-4.993V23.02L40 18.027l8.648 4.994v9.986L40 38Z"/><path fill="url(#b)" d="M31.998 23.394 40 18.774l8.001 4.62v9.24L40 37.252l-8.002-4.62v-9.239Z"/><path fill="#A1070C" d="M43.671 24.633c0 .363-.072.724-.215 1.082a3.992 3.992 0 0 1-.576.996 4.22 4.22 0 0 1-.835.802c-.315.23-.642.394-.981.494l-.15-.25c.201-.102.387-.232.55-.387.168-.158.312-.337.43-.534.12-.197.212-.41.276-.63.065-.22.097-.448.097-.677 0-.263-.038-.511-.114-.745a1.793 1.793 0 0 0-.337-.613 1.574 1.574 0 0 0-.548-.412c-.217-.1-.467-.15-.749-.15-.343 0-.659.067-.945.2a2.743 2.743 0 0 0-.774.541c-.229.227-.428.487-.598.781-.17.294-.311.604-.422.924a6.197 6.197 0 0 0-.255.978 4.749 4.749 0 0 0 .007 1.848c.063.318.154.63.272.931.119.303.267.594.445.867.176.272.38.511.612.716.23.204.491.37.774.491.284.122.593.183.927.183.23 0 .453-.032.67-.094.217-.061.427-.145.627-.25.201-.106.392-.23.57-.373.177-.142.343-.297.497-.465l.236.229c-.21.277-.46.543-.748.799-.29.255-.602.483-.935.68-.33.197-.683.355-1.05.473a3.542 3.542 0 0 1-1.084.175c-.349 0-.677-.06-.985-.182a3.25 3.25 0 0 1-.85-.495 3.799 3.799 0 0 1-.69-.73 5.063 5.063 0 0 1-.838-1.866 4.532 4.532 0 0 1-.111-.982c0-.463.077-.94.232-1.429.155-.489.37-.964.641-1.425a8.11 8.11 0 0 1 .964-1.307 7.42 7.42 0 0 1 1.196-1.075 6.002 6.002 0 0 1 1.34-.727c.465-.179.93-.268 1.393-.268a2.5 2.5 0 0 1 .802.125c.248.083.463.204.645.362.181.157.324.353.43.587.105.234.157.501.157.802Z"/></g><path fill="#000" d="M77.094 34.031c-.828.438-1.86.657-3.094.657-1.594 0-2.87-.514-3.828-1.54-.959-1.026-1.438-2.372-1.438-4.039 0-1.791.54-3.24 1.618-4.343 1.078-1.104 2.445-1.657 4.101-1.657 1.063 0 1.943.154 2.64.461v1.399a5.354 5.354 0 0 0-2.656-.672c-1.286 0-2.33.43-3.132 1.289-.797.86-1.196 2.008-1.196 3.445 0 1.365.373 2.453 1.118 3.266.75.807 1.731 1.21 2.945 1.21 1.125 0 2.099-.25 2.922-.75v1.274Zm8.75.469h-1.281v-4.61c0-1.666-.62-2.5-1.86-2.5-.625 0-1.15.243-1.578.727-.427.48-.64 1.096-.64 1.852V34.5h-1.282V22.656h1.281v5.172h.032c.614-1.01 1.49-1.515 2.625-1.515 1.802 0 2.703 1.085 2.703 3.257v4.93Zm8.148 0h-1.281v-1.25h-.031c-.558.958-1.378 1.438-2.461 1.438-.797 0-1.422-.211-1.875-.633-.448-.422-.672-.982-.672-1.68 0-1.495.88-2.365 2.64-2.61l2.399-.335c0-1.36-.55-2.04-1.648-2.04-.964 0-1.834.329-2.61.985v-1.313c.787-.5 1.693-.75 2.719-.75 1.88 0 2.82.995 2.82 2.985V34.5Zm-1.281-4.047-1.93.266c-.594.083-1.041.232-1.344.445-.302.208-.453.58-.453 1.117 0 .39.138.711.414.961.282.245.654.367 1.118.367.635 0 1.158-.221 1.57-.664.417-.448.625-1.013.625-1.695v-.797Zm4.352-5.984a.812.812 0 0 1-.586-.235.791.791 0 0 1-.243-.593c0-.24.081-.438.243-.594a.798.798 0 0 1 .585-.242c.235 0 .433.08.594.242.167.156.25.354.25.594 0 .229-.083.424-.25.586a.807.807 0 0 1-.594.242Zm.624 10.031h-1.28v-8h1.28v8Z"/><rect width="109" height="48" x="9" y="4" stroke="#E91E63" stroke-width="2" rx="4"/><defs><linearGradient id="b" x1="40" x2="40" y1="27.132" y2="37.253" gradientUnits="userSpaceOnUse"><stop stop-color="#F7F6F3"/><stop offset="1" stop-color="#FEF6D5"/></linearGradient><clipPath id="a"><path fill="#fff" d="M31.35 18h17.3v20h-17.3z"/></clipPath></defs></svg>