<svg width="80" height="39" viewBox="0 0 80 39" fill="none" xmlns="http://www.w3.org/2000/svg">
<path d="M1 4C1 2.34315 2.34315 1 4 1H76C77.6569 1 79 2.34315 79 4V35C79 36.6569 77.6569 38 76 38H4C2.34315 38 1 36.6569 1 35V4Z" fill="#22272E"/>
<g clip-path="url(#clip0)">
<path d="M13.4409 23.2869L19.9998 27.0738L26.5591 23.2869V15.7133L19.9998 11.9265L13.4409 15.7133V23.2869ZM19.9998 28.5L12.2056 23.9999V15.0002L19.9998 10.5L27.7944 15.0002V23.9999L19.9998 28.5ZM22.7791 15.2012C24.0198 16.2088 22.9785 18.8479 20.9587 19.4942L20.8231 19.2682C22.2108 18.4977 22.2251 16.9727 21.7387 16.1813C21.3075 15.4796 19.6675 14.9402 18.4233 16.8146C18.0344 17.4005 17.7038 18.461 17.6921 19.4554C17.663 22.06 20.1591 24.7012 22.6371 22.0893L22.8501 22.2959C20.1274 25.5046 16.6118 24.4734 16.2783 20.3786C16.4243 16.7507 20.6985 13.5605 22.7792 15.2012H22.7791Z" fill="#ADBAC7"/>
</g>
<path d="M48.957 24.5898C48.2324 24.9727 47.3301 25.1641 46.25 25.1641C44.8555 25.1641 43.7389 24.7152 42.9004 23.8174C42.0618 22.9196 41.6426 21.7415 41.6426 20.2832C41.6426 18.7155 42.1143 17.4486 43.0576 16.4824C44.001 15.5163 45.1973 15.0332 46.6465 15.0332C47.5762 15.0332 48.3464 15.1676 48.957 15.4365V16.6602C48.2552 16.2682 47.4805 16.0723 46.6328 16.0723C45.5072 16.0723 44.5934 16.4482 43.8916 17.2002C43.1943 17.9521 42.8457 18.957 42.8457 20.2148C42.8457 21.4089 43.1715 22.3613 43.8232 23.0723C44.4795 23.7786 45.3385 24.1318 46.4004 24.1318C47.3848 24.1318 48.237 23.9131 48.957 23.4756V24.5898ZM56.6133 25H55.4922V20.9668C55.4922 19.5085 54.9499 18.7793 53.8652 18.7793C53.3184 18.7793 52.8581 18.9912 52.4844 19.415C52.1107 19.8343 51.9238 20.3743 51.9238 21.0352V25H50.8027V14.6367H51.9238V19.1621H51.9512C52.4889 18.278 53.2546 17.8359 54.248 17.8359C55.8249 17.8359 56.6133 18.7861 56.6133 20.6865V25ZM63.7432 25H62.6221V23.9062H62.5947C62.1071 24.7448 61.3893 25.1641 60.4414 25.1641C59.7441 25.1641 59.1973 24.9795 58.8008 24.6104C58.4089 24.2412 58.2129 23.7513 58.2129 23.1406C58.2129 21.8327 58.9831 21.0716 60.5234 20.8574L62.6221 20.5635C62.6221 19.374 62.1413 18.7793 61.1797 18.7793C60.3366 18.7793 59.5755 19.0664 58.8965 19.6406V18.4922C59.5846 18.0547 60.3776 17.8359 61.2754 17.8359C62.9206 17.8359 63.7432 18.7064 63.7432 20.4473V25ZM62.6221 21.459L60.9336 21.6914C60.4141 21.7643 60.0221 21.8942 59.7578 22.0811C59.4935 22.2633 59.3613 22.5892 59.3613 23.0586C59.3613 23.4004 59.4821 23.6807 59.7236 23.8994C59.9697 24.1136 60.2956 24.2207 60.7012 24.2207C61.2572 24.2207 61.7152 24.027 62.0752 23.6396C62.4398 23.2477 62.6221 22.7533 62.6221 22.1562V21.459ZM66.4297 16.2227C66.2292 16.2227 66.0583 16.1543 65.917 16.0176C65.7757 15.8809 65.7051 15.7077 65.7051 15.498C65.7051 15.2884 65.7757 15.1152 65.917 14.9785C66.0583 14.8372 66.2292 14.7666 66.4297 14.7666C66.6348 14.7666 66.8079 14.8372 66.9492 14.9785C67.0951 15.1152 67.168 15.2884 67.168 15.498C67.168 15.6986 67.0951 15.8695 66.9492 16.0107C66.8079 16.152 66.6348 16.2227 66.4297 16.2227ZM66.9766 25H65.8555V18H66.9766V25Z" fill="#ADBAC7"/>
<path d="M4 2H76V0H4V2ZM78 4V35H80V4H78ZM76 37H4V39H76V37ZM2 35V4H0V35H2ZM4 37C2.89543 37 2 36.1046 2 35H0C0 37.2091 1.79086 39 4 39V37ZM78 35C78 36.1046 77.1046 37 76 37V39C78.2091 39 80 37.2091 80 35H78ZM76 2C77.1046 2 78 2.89543 78 4H80C80 1.79086 78.2091 0 76 0V2ZM4 0C1.79086 0 0 1.79086 0 4H2C2 2.89543 2.89543 2 4 2V0Z" fill="#ADBCA7"/>
<defs>
<clipPath id="clip0">
<rect width="18" height="18" fill="white" transform="translate(11 10.5)"/>
</clipPath>
</defs>
</svg>
