<svg xmlns="http://www.w3.org/2000/svg" width="123" height="56" fill="none"><rect width="105" height="48" x="9" y="4" fill="#FFEBEE" rx="4"/><path fill="#1572B6" d="m32.427 36.4-1.685-18.9h18.516l-1.687 18.898L39.99 38.5l-7.562-2.1Z"/><path fill="#33A9DC" d="m40 36.894 6.127-1.7 1.442-16.148H40v17.848Z"/><path fill="#fff" d="M40 25.893h3.068l.211-2.373H40V21.2h5.813l-.056.622-.57 6.389H40v-2.319Z"/><path fill="#EBEBEB" d="m40.014 31.914-.01.003-2.582-.698-.165-1.849H34.93l.325 3.64 4.748 1.319.011-.003v-2.412Z"/><path fill="#fff" d="m42.87 28.113-.279 3.105-2.585.697v2.412l4.752-1.317.035-.392.403-4.505H42.87Z"/><path fill="#EBEBEB" d="M40.008 21.201v2.319h-5.6l-.046-.522-.105-1.175-.056-.622h5.807ZM40 25.893v2.319h-2.55l-.046-.522-.105-1.175-.055-.622H40Z"/><path fill="#000" d="M77.094 34.031c-.828.438-1.86.657-3.094.657-1.594 0-2.87-.514-3.828-1.54-.959-1.026-1.438-2.372-1.438-4.039 0-1.791.54-3.24 1.618-4.343 1.078-1.104 2.445-1.657 4.101-1.657 1.063 0 1.943.154 2.64.461v1.399a5.354 5.354 0 0 0-2.656-.672c-1.286 0-2.33.43-3.132 1.289-.797.86-1.196 2.008-1.196 3.445 0 1.365.373 2.453 1.118 3.266.75.807 1.731 1.21 2.945 1.21 1.125 0 2.099-.25 2.922-.75v1.274Zm1.758.016V32.5c.177.156.388.297.632.422.25.125.51.232.782.32.276.084.552.149.828.196.276.046.531.07.765.07.808 0 1.41-.149 1.805-.446.401-.302.602-.734.602-1.296 0-.302-.068-.565-.204-.79a2.138 2.138 0 0 0-.546-.609 5.03 5.03 0 0 0-.836-.531 44.122 44.122 0 0 0-1.032-.54 17.5 17.5 0 0 1-1.093-.6 4.736 4.736 0 0 1-.883-.673 2.883 2.883 0 0 1-.594-.828 2.644 2.644 0 0 1-.21-1.093c0-.51.111-.954.335-1.329a2.87 2.87 0 0 1 .883-.937 4.008 4.008 0 0 1 1.242-.547c.469-.12.945-.18 1.43-.18 1.104 0 1.909.133 2.414.399v1.476c-.662-.458-1.51-.687-2.547-.687-.287 0-.573.031-.86.094a2.363 2.363 0 0 0-.765.289c-.224.135-.406.31-.547.523a1.39 1.39 0 0 0-.21.781c0 .287.051.534.155.743.11.208.269.398.477.57.208.172.46.338.758.5.302.161.648.338 1.039.531.4.198.781.406 1.14.625.36.219.675.461.946.727.27.265.484.56.64.883.162.322.243.692.243 1.109 0 .552-.11 1.02-.329 1.406-.213.38-.505.69-.874.93-.365.24-.787.411-1.266.515-.48.11-.984.164-1.516.164-.177 0-.396-.015-.656-.046a7.408 7.408 0 0 1-.797-.125 6.721 6.721 0 0 1-.773-.196 2.504 2.504 0 0 1-.578-.273Zm8.5 0V32.5c.177.156.388.297.632.422.25.125.51.232.782.32.276.084.552.149.828.196.276.046.531.07.765.07.808 0 1.41-.149 1.805-.446.401-.302.602-.734.602-1.296 0-.302-.068-.565-.204-.79a2.138 2.138 0 0 0-.546-.609 5.03 5.03 0 0 0-.836-.531 44.122 44.122 0 0 0-1.032-.54 17.5 17.5 0 0 1-1.093-.6 4.736 4.736 0 0 1-.883-.673 2.883 2.883 0 0 1-.594-.828 2.644 2.644 0 0 1-.21-1.093c0-.51.111-.954.335-1.329a2.87 2.87 0 0 1 .883-.937 4.008 4.008 0 0 1 1.242-.547c.469-.12.945-.18 1.43-.18 1.104 0 1.909.133 2.414.399v1.476c-.662-.458-1.51-.687-2.547-.687-.287 0-.573.031-.86.094a2.363 2.363 0 0 0-.765.289c-.224.135-.406.31-.547.523a1.39 1.39 0 0 0-.21.781c0 .287.051.534.155.743.11.208.269.398.477.57.208.172.46.338.758.5.302.161.648.338 1.039.531.4.198.781.406 1.14.625.36.219.675.461.946.727.27.265.484.56.64.883.162.322.243.692.243 1.109 0 .552-.11 1.02-.329 1.406-.213.38-.505.69-.874.93-.365.24-.787.411-1.266.515-.48.11-.984.164-1.516.164-.177 0-.396-.015-.656-.046a7.408 7.408 0 0 1-.797-.125 6.721 6.721 0 0 1-.773-.196 2.504 2.504 0 0 1-.578-.273Z"/><rect width="105" height="48" x="9" y="4" stroke="#F44336" stroke-width="2" rx="4"/></svg>