<svg width="61" height="28" viewBox="0 0 61 28" fill="none" xmlns="http://www.w3.org/2000/svg">
<g filter="url(#filter0_d)">
<path d="M2.5 5C2.5 2.23858 4.73858 0 7.5 0H53.5C56.2614 0 58.5 2.23858 58.5 5V19C58.5 21.7614 56.2614 24 53.5 24H7.5C4.73858 24 2.5 21.7614 2.5 19V5Z" fill="white"/>
<path d="M10.8199 18.3006L9.5565 4.125H23.4435L22.1784 18.2983L16.4916 19.875L10.8199 18.3006Z" fill="#1572B6"/>
<path d="M16.5 18.6701L21.0956 17.3961L22.1767 5.28432H16.5V18.6701Z" fill="#33A9DC"/>
<path d="M16.5 10.4199H18.8006L18.9592 8.63963H16.5V6.90094H20.8594L20.8178 7.36725L20.3908 12.1586H16.5V10.4199V10.4199Z" fill="white"/>
<path d="M16.5107 14.9351L16.5028 14.9374L14.5667 14.4142L14.4429 13.0277H12.6975L12.9411 15.7575L16.5023 16.7464L16.5107 16.7441V14.9351V14.9351Z" fill="#EBEBEB"/>
<path d="M18.6527 12.0849L18.4434 14.4131L16.5045 14.9362V16.7452L20.0685 15.7575L20.0949 15.4639L20.397 12.0849H18.6527V12.0849Z" fill="white"/>
<path d="M16.5062 6.90094V8.63963H12.3066L12.2717 8.24869L12.1924 7.36725L12.1507 6.90094H16.5062V6.90094Z" fill="#EBEBEB"/>
<path d="M16.5 10.4199V12.1586H14.5881L14.5532 11.7677L14.4744 10.8862L14.4328 10.4199H16.5V10.4199Z" fill="#EBEBEB"/>
<path d="M37.7656 13.293C37.6602 14.1953 37.3262 14.8926 36.7637 15.3848C36.2051 15.873 35.4609 16.1172 34.5312 16.1172C33.5234 16.1172 32.7148 15.7559 32.1055 15.0332C31.5 14.3105 31.1973 13.3438 31.1973 12.1328V11.3125C31.1973 10.5195 31.3379 9.82227 31.6191 9.2207C31.9043 8.61914 32.3066 8.1582 32.8262 7.83789C33.3457 7.51367 33.9473 7.35156 34.6309 7.35156C35.5371 7.35156 36.2637 7.60547 36.8105 8.11328C37.3574 8.61719 37.6758 9.31641 37.7656 10.2109H36.6348C36.5371 9.53125 36.3242 9.03906 35.9961 8.73438C35.6719 8.42969 35.2168 8.27734 34.6309 8.27734C33.9121 8.27734 33.3477 8.54297 32.9375 9.07422C32.5312 9.60547 32.3281 10.3613 32.3281 11.3418V12.168C32.3281 13.0938 32.5215 13.8301 32.9082 14.377C33.2949 14.9238 33.8359 15.1973 34.5312 15.1973C35.1562 15.1973 35.6348 15.0566 35.9668 14.7754C36.3027 14.4902 36.5254 13.9961 36.6348 13.293H37.7656ZM41.8203 12.1973C40.8555 11.9199 40.1523 11.5801 39.7109 11.1777C39.2734 10.7715 39.0547 10.2715 39.0547 9.67773C39.0547 9.00586 39.3223 8.45117 39.8574 8.01367C40.3965 7.57227 41.0957 7.35156 41.9551 7.35156C42.541 7.35156 43.0625 7.46484 43.5195 7.69141C43.9805 7.91797 44.3359 8.23047 44.5859 8.62891C44.8398 9.02734 44.9668 9.46289 44.9668 9.93555H43.8359C43.8359 9.41992 43.6719 9.01562 43.3438 8.72266C43.0156 8.42578 42.5527 8.27734 41.9551 8.27734C41.4004 8.27734 40.9668 8.40039 40.6543 8.64648C40.3457 8.88867 40.1914 9.22656 40.1914 9.66016C40.1914 10.0078 40.3379 10.3027 40.6309 10.5449C40.9277 10.7832 41.4297 11.002 42.1367 11.2012C42.8477 11.4004 43.4023 11.6211 43.8008 11.8633C44.2031 12.1016 44.5 12.3809 44.6914 12.7012C44.8867 13.0215 44.9844 13.3984 44.9844 13.832C44.9844 14.5234 44.7148 15.0781 44.1758 15.4961C43.6367 15.9102 42.916 16.1172 42.0137 16.1172C41.4277 16.1172 40.8809 16.0059 40.373 15.7832C39.8652 15.5566 39.4727 15.248 39.1953 14.8574C38.9219 14.4668 38.7852 14.0234 38.7852 13.5273H39.916C39.916 14.043 40.1055 14.4512 40.4844 14.752C40.8672 15.0488 41.377 15.1973 42.0137 15.1973C42.6074 15.1973 43.0625 15.0762 43.3789 14.834C43.6953 14.5918 43.8535 14.2617 43.8535 13.8438C43.8535 13.4258 43.707 13.1035 43.4141 12.877C43.1211 12.6465 42.5898 12.4199 41.8203 12.1973ZM48.9453 12.1973C47.9805 11.9199 47.2773 11.5801 46.8359 11.1777C46.3984 10.7715 46.1797 10.2715 46.1797 9.67773C46.1797 9.00586 46.4473 8.45117 46.9824 8.01367C47.5215 7.57227 48.2207 7.35156 49.0801 7.35156C49.666 7.35156 50.1875 7.46484 50.6445 7.69141C51.1055 7.91797 51.4609 8.23047 51.7109 8.62891C51.9648 9.02734 52.0918 9.46289 52.0918 9.93555H50.9609C50.9609 9.41992 50.7969 9.01562 50.4688 8.72266C50.1406 8.42578 49.6777 8.27734 49.0801 8.27734C48.5254 8.27734 48.0918 8.40039 47.7793 8.64648C47.4707 8.88867 47.3164 9.22656 47.3164 9.66016C47.3164 10.0078 47.4629 10.3027 47.7559 10.5449C48.0527 10.7832 48.5547 11.002 49.2617 11.2012C49.9727 11.4004 50.5273 11.6211 50.9258 11.8633C51.3281 12.1016 51.625 12.3809 51.8164 12.7012C52.0117 13.0215 52.1094 13.3984 52.1094 13.832C52.1094 14.5234 51.8398 15.0781 51.3008 15.4961C50.7617 15.9102 50.041 16.1172 49.1387 16.1172C48.5527 16.1172 48.0059 16.0059 47.498 15.7832C46.9902 15.5566 46.5977 15.248 46.3203 14.8574C46.0469 14.4668 45.9102 14.0234 45.9102 13.5273H47.041C47.041 14.043 47.2305 14.4512 47.6094 14.752C47.9922 15.0488 48.502 15.1973 49.1387 15.1973C49.7324 15.1973 50.1875 15.0762 50.5039 14.834C50.8203 14.5918 50.9785 14.2617 50.9785 13.8438C50.9785 13.4258 50.832 13.1035 50.5391 12.877C50.2461 12.6465 49.7148 12.4199 48.9453 12.1973Z" fill="black"/>
</g>
<defs>
<filter id="filter0_d" x="0.5" y="0" width="60" height="28" filterUnits="userSpaceOnUse" color-interpolation-filters="sRGB">
<feFlood flood-opacity="0" result="BackgroundImageFix"/>
<feColorMatrix in="SourceAlpha" type="matrix" values="0 0 0 0 0 0 0 0 0 0 0 0 0 0 0 0 0 0 127 0" result="hardAlpha"/>
<feOffset dy="2"/>
<feGaussianBlur stdDeviation="1"/>
<feComposite in2="hardAlpha" operator="out"/>
<feColorMatrix type="matrix" values="0 0 0 0 0 0 0 0 0 0 0 0 0 0 0 0 0 0 0.25 0"/>
<feBlend mode="normal" in2="BackgroundImageFix" result="effect1_dropShadow"/>
<feBlend mode="normal" in="SourceGraphic" in2="effect1_dropShadow" result="shape"/>
</filter>
</defs>
</svg>
