<svg width="68" height="34" viewBox="0 0 68 34" fill="none" xmlns="http://www.w3.org/2000/svg">
<path d="M1.5 4C1.5 2.34315 2.84315 1 4.5 1H63.5C65.1569 1 66.5 2.34315 66.5 4V30C66.5 31.6569 65.1569 33 63.5 33H4.5C2.84315 33 1.5 31.6569 1.5 30V4Z" fill="#C9D1D9"/>
<path d="M12.8199 23.3006L11.5565 9.125H25.4435L24.1784 23.2983L18.4916 24.875L12.8199 23.3006Z" fill="#1572B6"/>
<path d="M18.5 23.6701L23.0956 22.3961L24.1767 10.2843H18.5V23.6701Z" fill="#33A9DC"/>
<path d="M18.5 15.4199H20.8006L20.9592 13.6396H18.5V11.9009H22.8594L22.8178 12.3673L22.3908 17.1586H18.5V15.4199Z" fill="white"/>
<path d="M18.5107 19.9351L18.5028 19.9374L16.5667 19.4142L16.4429 18.0277H14.6975L14.9411 20.7575L18.5023 21.7464L18.5107 21.7441V19.9351Z" fill="#EBEBEB"/>
<path d="M20.6527 17.0849L20.4434 19.4131L18.5045 19.9362V21.7452L22.0685 20.7575L22.0949 20.4639L22.397 17.0849H20.6527Z" fill="white"/>
<path d="M18.5062 11.9009V13.6396H14.3066L14.2717 13.2487L14.1924 12.3673L14.1507 11.9009H18.5062Z" fill="#EBEBEB"/>
<path d="M18.5 15.4199V17.1586H16.5881L16.5532 16.7677L16.4744 15.8862L16.4328 15.4199H18.5Z" fill="#EBEBEB"/>
<path d="M42.7656 18.293C42.6602 19.1953 42.3262 19.8926 41.7637 20.3848C41.2051 20.873 40.4609 21.1172 39.5312 21.1172C38.5234 21.1172 37.7148 20.7559 37.1055 20.0332C36.5 19.3105 36.1973 18.3438 36.1973 17.1328V16.3125C36.1973 15.5195 36.3379 14.8223 36.6191 14.2207C36.9043 13.6191 37.3066 13.1582 37.8262 12.8379C38.3457 12.5137 38.9473 12.3516 39.6309 12.3516C40.5371 12.3516 41.2637 12.6055 41.8105 13.1133C42.3574 13.6172 42.6758 14.3164 42.7656 15.2109H41.6348C41.5371 14.5312 41.3242 14.0391 40.9961 13.7344C40.6719 13.4297 40.2168 13.2773 39.6309 13.2773C38.9121 13.2773 38.3477 13.543 37.9375 14.0742C37.5312 14.6055 37.3281 15.3613 37.3281 16.3418V17.168C37.3281 18.0938 37.5215 18.8301 37.9082 19.377C38.2949 19.9238 38.8359 20.1973 39.5312 20.1973C40.1562 20.1973 40.6348 20.0566 40.9668 19.7754C41.3027 19.4902 41.5254 18.9961 41.6348 18.293H42.7656ZM46.8203 17.1973C45.8555 16.9199 45.1523 16.5801 44.7109 16.1777C44.2734 15.7715 44.0547 15.2715 44.0547 14.6777C44.0547 14.0059 44.3223 13.4512 44.8574 13.0137C45.3965 12.5723 46.0957 12.3516 46.9551 12.3516C47.541 12.3516 48.0625 12.4648 48.5195 12.6914C48.9805 12.918 49.3359 13.2305 49.5859 13.6289C49.8398 14.0273 49.9668 14.4629 49.9668 14.9355H48.8359C48.8359 14.4199 48.6719 14.0156 48.3438 13.7227C48.0156 13.4258 47.5527 13.2773 46.9551 13.2773C46.4004 13.2773 45.9668 13.4004 45.6543 13.6465C45.3457 13.8887 45.1914 14.2266 45.1914 14.6602C45.1914 15.0078 45.3379 15.3027 45.6309 15.5449C45.9277 15.7832 46.4297 16.002 47.1367 16.2012C47.8477 16.4004 48.4023 16.6211 48.8008 16.8633C49.2031 17.1016 49.5 17.3809 49.6914 17.7012C49.8867 18.0215 49.9844 18.3984 49.9844 18.832C49.9844 19.5234 49.7148 20.0781 49.1758 20.4961C48.6367 20.9102 47.916 21.1172 47.0137 21.1172C46.4277 21.1172 45.8809 21.0059 45.373 20.7832C44.8652 20.5566 44.4727 20.248 44.1953 19.8574C43.9219 19.4668 43.7852 19.0234 43.7852 18.5273H44.916C44.916 19.043 45.1055 19.4512 45.4844 19.752C45.8672 20.0488 46.377 20.1973 47.0137 20.1973C47.6074 20.1973 48.0625 20.0762 48.3789 19.834C48.6953 19.5918 48.8535 19.2617 48.8535 18.8438C48.8535 18.4258 48.707 18.1035 48.4141 17.877C48.1211 17.6465 47.5898 17.4199 46.8203 17.1973ZM53.9453 17.1973C52.9805 16.9199 52.2773 16.5801 51.8359 16.1777C51.3984 15.7715 51.1797 15.2715 51.1797 14.6777C51.1797 14.0059 51.4473 13.4512 51.9824 13.0137C52.5215 12.5723 53.2207 12.3516 54.0801 12.3516C54.666 12.3516 55.1875 12.4648 55.6445 12.6914C56.1055 12.918 56.4609 13.2305 56.7109 13.6289C56.9648 14.0273 57.0918 14.4629 57.0918 14.9355H55.9609C55.9609 14.4199 55.7969 14.0156 55.4688 13.7227C55.1406 13.4258 54.6777 13.2773 54.0801 13.2773C53.5254 13.2773 53.0918 13.4004 52.7793 13.6465C52.4707 13.8887 52.3164 14.2266 52.3164 14.6602C52.3164 15.0078 52.4629 15.3027 52.7559 15.5449C53.0527 15.7832 53.5547 16.002 54.2617 16.2012C54.9727 16.4004 55.5273 16.6211 55.9258 16.8633C56.3281 17.1016 56.625 17.3809 56.8164 17.7012C57.0117 18.0215 57.1094 18.3984 57.1094 18.832C57.1094 19.5234 56.8398 20.0781 56.3008 20.4961C55.7617 20.9102 55.041 21.1172 54.1387 21.1172C53.5527 21.1172 53.0059 21.0059 52.498 20.7832C51.9902 20.5566 51.5977 20.248 51.3203 19.8574C51.0469 19.4668 50.9102 19.0234 50.9102 18.5273H52.041C52.041 19.043 52.2305 19.4512 52.6094 19.752C52.9922 20.0488 53.502 20.1973 54.1387 20.1973C54.7324 20.1973 55.1875 20.0762 55.5039 19.834C55.8203 19.5918 55.9785 19.2617 55.9785 18.8438C55.9785 18.4258 55.832 18.1035 55.5391 17.877C55.2461 17.6465 54.7148 17.4199 53.9453 17.1973Z" fill="#22272E"/>
<path d="M4.5 2H63.5V0H4.5V2ZM65.5 4V30H67.5V4H65.5ZM63.5 32H4.5V34H63.5V32ZM2.5 30V4H0.5V30H2.5ZM4.5 32C3.39543 32 2.5 31.1046 2.5 30H0.5C0.5 32.2091 2.29086 34 4.5 34V32ZM65.5 30C65.5 31.1046 64.6046 32 63.5 32V34C65.7091 34 67.5 32.2091 67.5 30H65.5ZM63.5 2C64.6046 2 65.5 2.89543 65.5 4H67.5C67.5 1.79086 65.7091 0 63.5 0V2ZM4.5 0C2.29086 0 0.5 1.79086 0.5 4H2.5C2.5 2.89543 3.39543 2 4.5 2V0Z" fill="#30363D"/>
</svg>
