<svg width="70" height="36" viewBox="0 0 70 36" fill="none" xmlns="http://www.w3.org/2000/svg">
<g filter="url(#filter0_d)">
<path d="M2.5 3C2.5 1.34315 3.84315 0 5.5 0H64.5C66.1569 0 67.5 1.34315 67.5 3V29C67.5 30.6569 66.1569 32 64.5 32H5.5C3.84315 32 2.5 30.6569 2.5 29V3Z" fill="white"/>
<path d="M13.8199 22.3006L12.5565 8.125H26.4435L25.1784 22.2983L19.4916 23.875L13.8199 22.3006Z" fill="#1572B6"/>
<path d="M19.5 22.6701L24.0956 21.3961L25.1767 9.28432H19.5V22.6701Z" fill="#33A9DC"/>
<path d="M19.5 14.4199H21.8006L21.9592 12.6396H19.5V10.9009H23.8594L23.8178 11.3673L23.3908 16.1586H19.5V14.4199V14.4199Z" fill="white"/>
<path d="M19.5107 18.9351L19.5028 18.9374L17.5667 18.4142L17.4429 17.0277H15.6975L15.9411 19.7575L19.5023 20.7464L19.5107 20.7441V18.9351V18.9351Z" fill="#EBEBEB"/>
<path d="M21.6527 16.0849L21.4434 18.4131L19.5045 18.9362V20.7452L23.0685 19.7575L23.0949 19.4639L23.397 16.0849H21.6527V16.0849Z" fill="white"/>
<path d="M19.5062 10.9009V12.6396H15.3066L15.2717 12.2487L15.1924 11.3673L15.1507 10.9009H19.5062V10.9009Z" fill="#EBEBEB"/>
<path d="M19.5 14.4199V16.1586H17.5881L17.5532 15.7677L17.4744 14.8862L17.4328 14.4199H19.5V14.4199Z" fill="#EBEBEB"/>
<path d="M43.7656 17.293C43.6602 18.1953 43.3262 18.8926 42.7637 19.3848C42.2051 19.873 41.4609 20.1172 40.5312 20.1172C39.5234 20.1172 38.7148 19.7559 38.1055 19.0332C37.5 18.3105 37.1973 17.3438 37.1973 16.1328V15.3125C37.1973 14.5195 37.3379 13.8223 37.6191 13.2207C37.9043 12.6191 38.3066 12.1582 38.8262 11.8379C39.3457 11.5137 39.9473 11.3516 40.6309 11.3516C41.5371 11.3516 42.2637 11.6055 42.8105 12.1133C43.3574 12.6172 43.6758 13.3164 43.7656 14.2109H42.6348C42.5371 13.5312 42.3242 13.0391 41.9961 12.7344C41.6719 12.4297 41.2168 12.2773 40.6309 12.2773C39.9121 12.2773 39.3477 12.543 38.9375 13.0742C38.5312 13.6055 38.3281 14.3613 38.3281 15.3418V16.168C38.3281 17.0938 38.5215 17.8301 38.9082 18.377C39.2949 18.9238 39.8359 19.1973 40.5312 19.1973C41.1562 19.1973 41.6348 19.0566 41.9668 18.7754C42.3027 18.4902 42.5254 17.9961 42.6348 17.293H43.7656ZM47.8203 16.1973C46.8555 15.9199 46.1523 15.5801 45.7109 15.1777C45.2734 14.7715 45.0547 14.2715 45.0547 13.6777C45.0547 13.0059 45.3223 12.4512 45.8574 12.0137C46.3965 11.5723 47.0957 11.3516 47.9551 11.3516C48.541 11.3516 49.0625 11.4648 49.5195 11.6914C49.9805 11.918 50.3359 12.2305 50.5859 12.6289C50.8398 13.0273 50.9668 13.4629 50.9668 13.9355H49.8359C49.8359 13.4199 49.6719 13.0156 49.3438 12.7227C49.0156 12.4258 48.5527 12.2773 47.9551 12.2773C47.4004 12.2773 46.9668 12.4004 46.6543 12.6465C46.3457 12.8887 46.1914 13.2266 46.1914 13.6602C46.1914 14.0078 46.3379 14.3027 46.6309 14.5449C46.9277 14.7832 47.4297 15.002 48.1367 15.2012C48.8477 15.4004 49.4023 15.6211 49.8008 15.8633C50.2031 16.1016 50.5 16.3809 50.6914 16.7012C50.8867 17.0215 50.9844 17.3984 50.9844 17.832C50.9844 18.5234 50.7148 19.0781 50.1758 19.4961C49.6367 19.9102 48.916 20.1172 48.0137 20.1172C47.4277 20.1172 46.8809 20.0059 46.373 19.7832C45.8652 19.5566 45.4727 19.248 45.1953 18.8574C44.9219 18.4668 44.7852 18.0234 44.7852 17.5273H45.916C45.916 18.043 46.1055 18.4512 46.4844 18.752C46.8672 19.0488 47.377 19.1973 48.0137 19.1973C48.6074 19.1973 49.0625 19.0762 49.3789 18.834C49.6953 18.5918 49.8535 18.2617 49.8535 17.8438C49.8535 17.4258 49.707 17.1035 49.4141 16.877C49.1211 16.6465 48.5898 16.4199 47.8203 16.1973ZM54.9453 16.1973C53.9805 15.9199 53.2773 15.5801 52.8359 15.1777C52.3984 14.7715 52.1797 14.2715 52.1797 13.6777C52.1797 13.0059 52.4473 12.4512 52.9824 12.0137C53.5215 11.5723 54.2207 11.3516 55.0801 11.3516C55.666 11.3516 56.1875 11.4648 56.6445 11.6914C57.1055 11.918 57.4609 12.2305 57.7109 12.6289C57.9648 13.0273 58.0918 13.4629 58.0918 13.9355H56.9609C56.9609 13.4199 56.7969 13.0156 56.4688 12.7227C56.1406 12.4258 55.6777 12.2773 55.0801 12.2773C54.5254 12.2773 54.0918 12.4004 53.7793 12.6465C53.4707 12.8887 53.3164 13.2266 53.3164 13.6602C53.3164 14.0078 53.4629 14.3027 53.7559 14.5449C54.0527 14.7832 54.5547 15.002 55.2617 15.2012C55.9727 15.4004 56.5273 15.6211 56.9258 15.8633C57.3281 16.1016 57.625 16.3809 57.8164 16.7012C58.0117 17.0215 58.1094 17.3984 58.1094 17.832C58.1094 18.5234 57.8398 19.0781 57.3008 19.4961C56.7617 19.9102 56.041 20.1172 55.1387 20.1172C54.5527 20.1172 54.0059 20.0059 53.498 19.7832C52.9902 19.5566 52.5977 19.248 52.3203 18.8574C52.0469 18.4668 51.9102 18.0234 51.9102 17.5273H53.041C53.041 18.043 53.2305 18.4512 53.6094 18.752C53.9922 19.0488 54.502 19.1973 55.1387 19.1973C55.7324 19.1973 56.1875 19.0762 56.5039 18.834C56.8203 18.5918 56.9785 18.2617 56.9785 17.8438C56.9785 17.4258 56.832 17.1035 56.5391 16.877C56.2461 16.6465 55.7148 16.4199 54.9453 16.1973Z" fill="black"/>
</g>
<defs>
<filter id="filter0_d" x="0.5" y="0" width="69" height="36" filterUnits="userSpaceOnUse" color-interpolation-filters="sRGB">
<feFlood flood-opacity="0" result="BackgroundImageFix"/>
<feColorMatrix in="SourceAlpha" type="matrix" values="0 0 0 0 0 0 0 0 0 0 0 0 0 0 0 0 0 0 127 0" result="hardAlpha"/>
<feOffset dy="2"/>
<feGaussianBlur stdDeviation="1"/>
<feComposite in2="hardAlpha" operator="out"/>
<feColorMatrix type="matrix" values="0 0 0 0 0 0 0 0 0 0 0 0 0 0 0 0 0 0 0.25 0"/>
<feBlend mode="normal" in2="BackgroundImageFix" result="effect1_dropShadow"/>
<feBlend mode="normal" in="SourceGraphic" in2="effect1_dropShadow" result="shape"/>
</filter>
</defs>
</svg>
