<svg width="93" height="47" viewBox="0 0 93 47" fill="none" xmlns="http://www.w3.org/2000/svg">
<rect x="1" y="1" width="91" height="45" rx="4" fill="#22272E"/>
<g clip-path="url(#clip0_28_4899)">
<path d="M31.5449 30.5672L32.9796 14.5H17.0204L17.0391 14.7085L18.4529 30.5695L18.4649 30.7015L24.9396 32.5H25.0416L31.5314 30.7L31.5434 30.568L31.5449 30.5672ZM25.0139 18.0092H29.6511L29.5116 19.6293L24.9366 21.6632L25.0131 22.0292H29.3061L28.8119 27.6925L24.9974 28.75L21.1844 27.694L20.9444 24.982H22.5141L22.6401 26.3568L22.6521 26.4903L24.9659 27.1052H25.0656L27.3539 26.4692L27.3651 26.3365L27.5811 23.797L27.5984 23.59H20.8131L20.6706 21.9602L25.4024 19.9345L25.3274 19.567H20.4674L20.3286 18.007H25.0086L25.0139 18.0092Z" fill="#ADBAC7"/>
</g>
<path d="M55.0938 29.5312C54.2656 29.9688 53.2344 30.1875 52 30.1875C50.4062 30.1875 49.1302 29.6745 48.1719 28.6484C47.2135 27.6224 46.7344 26.276 46.7344 24.6094C46.7344 22.8177 47.2734 21.3698 48.3516 20.2656C49.4297 19.1615 50.7969 18.6094 52.4531 18.6094C53.5156 18.6094 54.3958 18.763 55.0938 19.0703V20.4688C54.2917 20.0208 53.4062 19.7969 52.4375 19.7969C51.151 19.7969 50.1068 20.2266 49.3047 21.0859C48.5078 21.9453 48.1094 23.0938 48.1094 24.5312C48.1094 25.8958 48.4818 26.9844 49.2266 27.7969C49.9766 28.6042 50.9583 29.0078 52.1719 29.0078C53.2969 29.0078 54.2708 28.7578 55.0938 28.2578V29.5312ZM56.8516 29.5469V28C57.0286 28.1562 57.2396 28.2969 57.4844 28.4219C57.7344 28.5469 57.9948 28.6536 58.2656 28.7422C58.5417 28.8255 58.8177 28.8906 59.0938 28.9375C59.3698 28.9844 59.625 29.0078 59.8594 29.0078C60.6667 29.0078 61.2682 28.8594 61.6641 28.5625C62.0651 28.2604 62.2656 27.8281 62.2656 27.2656C62.2656 26.9635 62.1979 26.7005 62.0625 26.4766C61.9323 26.2526 61.75 26.0495 61.5156 25.8672C61.2812 25.6797 61.0026 25.5026 60.6797 25.3359C60.362 25.1641 60.0182 24.9844 59.6484 24.7969C59.2578 24.599 58.8932 24.3984 58.5547 24.1953C58.2161 23.9922 57.9219 23.7682 57.6719 23.5234C57.4219 23.2786 57.224 23.0026 57.0781 22.6953C56.9375 22.3828 56.8672 22.0182 56.8672 21.6016C56.8672 21.0911 56.9792 20.6484 57.2031 20.2734C57.4271 19.8932 57.7214 19.5807 58.0859 19.3359C58.4505 19.0911 58.8646 18.9089 59.3281 18.7891C59.7969 18.6693 60.2734 18.6094 60.7578 18.6094C61.862 18.6094 62.6667 18.7422 63.1719 19.0078V20.4844C62.5104 20.026 61.6615 19.7969 60.625 19.7969C60.3385 19.7969 60.0521 19.8281 59.7656 19.8906C59.4792 19.9479 59.224 20.0443 59 20.1797C58.776 20.3151 58.5938 20.4896 58.4531 20.7031C58.3125 20.9167 58.2422 21.1771 58.2422 21.4844C58.2422 21.7708 58.2943 22.0182 58.3984 22.2266C58.5078 22.4349 58.6667 22.625 58.875 22.7969C59.0833 22.9688 59.3359 23.1354 59.6328 23.2969C59.9349 23.4583 60.2812 23.6354 60.6719 23.8281C61.0729 24.026 61.4531 24.2344 61.8125 24.4531C62.1719 24.6719 62.487 24.9141 62.7578 25.1797C63.0286 25.4453 63.2422 25.7396 63.3984 26.0625C63.5599 26.3854 63.6406 26.7552 63.6406 27.1719C63.6406 27.724 63.5312 28.1927 63.3125 28.5781C63.099 28.9583 62.8073 29.2682 62.4375 29.5078C62.0729 29.7474 61.651 29.9193 61.1719 30.0234C60.6927 30.1328 60.1875 30.1875 59.6562 30.1875C59.4792 30.1875 59.2604 30.1719 59 30.1406C58.7396 30.1146 58.474 30.0729 58.2031 30.0156C57.9323 29.9635 57.6745 29.8984 57.4297 29.8203C57.1901 29.737 56.9974 29.6458 56.8516 29.5469ZM65.3516 29.5469V28C65.5286 28.1562 65.7396 28.2969 65.9844 28.4219C66.2344 28.5469 66.4948 28.6536 66.7656 28.7422C67.0417 28.8255 67.3177 28.8906 67.5938 28.9375C67.8698 28.9844 68.125 29.0078 68.3594 29.0078C69.1667 29.0078 69.7682 28.8594 70.1641 28.5625C70.5651 28.2604 70.7656 27.8281 70.7656 27.2656C70.7656 26.9635 70.6979 26.7005 70.5625 26.4766C70.4323 26.2526 70.25 26.0495 70.0156 25.8672C69.7812 25.6797 69.5026 25.5026 69.1797 25.3359C68.862 25.1641 68.5182 24.9844 68.1484 24.7969C67.7578 24.599 67.3932 24.3984 67.0547 24.1953C66.7161 23.9922 66.4219 23.7682 66.1719 23.5234C65.9219 23.2786 65.724 23.0026 65.5781 22.6953C65.4375 22.3828 65.3672 22.0182 65.3672 21.6016C65.3672 21.0911 65.4792 20.6484 65.7031 20.2734C65.9271 19.8932 66.2214 19.5807 66.5859 19.3359C66.9505 19.0911 67.3646 18.9089 67.8281 18.7891C68.2969 18.6693 68.7734 18.6094 69.2578 18.6094C70.362 18.6094 71.1667 18.7422 71.6719 19.0078V20.4844C71.0104 20.026 70.1615 19.7969 69.125 19.7969C68.8385 19.7969 68.5521 19.8281 68.2656 19.8906C67.9792 19.9479 67.724 20.0443 67.5 20.1797C67.276 20.3151 67.0938 20.4896 66.9531 20.7031C66.8125 20.9167 66.7422 21.1771 66.7422 21.4844C66.7422 21.7708 66.7943 22.0182 66.8984 22.2266C67.0078 22.4349 67.1667 22.625 67.375 22.7969C67.5833 22.9688 67.8359 23.1354 68.1328 23.2969C68.4349 23.4583 68.7812 23.6354 69.1719 23.8281C69.5729 24.026 69.9531 24.2344 70.3125 24.4531C70.6719 24.6719 70.987 24.9141 71.2578 25.1797C71.5286 25.4453 71.7422 25.7396 71.8984 26.0625C72.0599 26.3854 72.1406 26.7552 72.1406 27.1719C72.1406 27.724 72.0312 28.1927 71.8125 28.5781C71.599 28.9583 71.3073 29.2682 70.9375 29.5078C70.5729 29.7474 70.151 29.9193 69.6719 30.0234C69.1927 30.1328 68.6875 30.1875 68.1562 30.1875C67.9792 30.1875 67.7604 30.1719 67.5 30.1406C67.2396 30.1146 66.974 30.0729 66.7031 30.0156C66.4323 29.9635 66.1745 29.8984 65.9297 29.8203C65.6901 29.737 65.4974 29.6458 65.3516 29.5469Z" fill="#ADBAC7"/>
<rect x="1" y="1" width="91" height="45" rx="4" stroke="#444C56" stroke-width="2"/>
<defs>
<clipPath id="clip0_28_4899">
<rect width="18" height="18" fill="white" transform="translate(16 14.5)"/>
</clipPath>
</defs>
</svg>
