<svg width="91" height="45" viewBox="0 0 91 45" fill="none" xmlns="http://www.w3.org/2000/svg">
<path d="M1 4C1 2.34314 2.34315 1 4 1H87C88.6569 1 90 2.34315 90 4V41C90 42.6569 88.6569 44 87 44H4C2.34315 44 1 42.6569 1 41V4Z" fill="#22272E"/>
<g clip-path="url(#clip0)">
<path d="M30.5449 29.5673L31.9796 13.5H16.0204L16.0391 13.7085L17.4529 29.5695L17.4649 29.7015L23.9396 31.5H24.0416L30.5314 29.7L30.5434 29.568L30.5449 29.5673ZM24.0139 17.0092H28.6511L28.5116 18.6293L23.9366 20.6632L24.0131 21.0292H28.3061L27.8119 26.6925L23.9974 27.75L20.1844 26.694L19.9444 23.982H21.5141L21.6401 25.3568L21.6521 25.4903L23.9659 26.1052H24.0656L26.3539 25.4692L26.3651 25.3365L26.5811 22.797L26.5984 22.59H19.8131L19.6706 20.9602L24.4024 18.9345L24.3274 18.567H19.4674L19.3286 17.007H24.0086L24.0139 17.0092Z" fill="#ADBAC7"/>
</g>
<path d="M54.0938 28.5312C53.2656 28.9688 52.2344 29.1875 51 29.1875C49.4062 29.1875 48.1302 28.6745 47.1719 27.6484C46.2135 26.6224 45.7344 25.276 45.7344 23.6094C45.7344 21.8177 46.2734 20.3698 47.3516 19.2656C48.4297 18.1615 49.7969 17.6094 51.4531 17.6094C52.5156 17.6094 53.3958 17.763 54.0938 18.0703V19.4688C53.2917 19.0208 52.4062 18.7969 51.4375 18.7969C50.151 18.7969 49.1068 19.2266 48.3047 20.0859C47.5078 20.9453 47.1094 22.0938 47.1094 23.5312C47.1094 24.8958 47.4818 25.9844 48.2266 26.7969C48.9766 27.6042 49.9583 28.0078 51.1719 28.0078C52.2969 28.0078 53.2708 27.7578 54.0938 27.2578V28.5312ZM55.8516 28.5469V27C56.0286 27.1562 56.2396 27.2969 56.4844 27.4219C56.7344 27.5469 56.9948 27.6536 57.2656 27.7422C57.5417 27.8255 57.8177 27.8906 58.0938 27.9375C58.3698 27.9844 58.625 28.0078 58.8594 28.0078C59.6667 28.0078 60.2682 27.8594 60.6641 27.5625C61.0651 27.2604 61.2656 26.8281 61.2656 26.2656C61.2656 25.9635 61.1979 25.7005 61.0625 25.4766C60.9323 25.2526 60.75 25.0495 60.5156 24.8672C60.2812 24.6797 60.0026 24.5026 59.6797 24.3359C59.362 24.1641 59.0182 23.9844 58.6484 23.7969C58.2578 23.599 57.8932 23.3984 57.5547 23.1953C57.2161 22.9922 56.9219 22.7682 56.6719 22.5234C56.4219 22.2786 56.224 22.0026 56.0781 21.6953C55.9375 21.3828 55.8672 21.0182 55.8672 20.6016C55.8672 20.0911 55.9792 19.6484 56.2031 19.2734C56.4271 18.8932 56.7214 18.5807 57.0859 18.3359C57.4505 18.0911 57.8646 17.9089 58.3281 17.7891C58.7969 17.6693 59.2734 17.6094 59.7578 17.6094C60.862 17.6094 61.6667 17.7422 62.1719 18.0078V19.4844C61.5104 19.026 60.6615 18.7969 59.625 18.7969C59.3385 18.7969 59.0521 18.8281 58.7656 18.8906C58.4792 18.9479 58.224 19.0443 58 19.1797C57.776 19.3151 57.5938 19.4896 57.4531 19.7031C57.3125 19.9167 57.2422 20.1771 57.2422 20.4844C57.2422 20.7708 57.2943 21.0182 57.3984 21.2266C57.5078 21.4349 57.6667 21.625 57.875 21.7969C58.0833 21.9688 58.3359 22.1354 58.6328 22.2969C58.9349 22.4583 59.2812 22.6354 59.6719 22.8281C60.0729 23.026 60.4531 23.2344 60.8125 23.4531C61.1719 23.6719 61.487 23.9141 61.7578 24.1797C62.0286 24.4453 62.2422 24.7396 62.3984 25.0625C62.5599 25.3854 62.6406 25.7552 62.6406 26.1719C62.6406 26.724 62.5312 27.1927 62.3125 27.5781C62.099 27.9583 61.8073 28.2682 61.4375 28.5078C61.0729 28.7474 60.651 28.9193 60.1719 29.0234C59.6927 29.1328 59.1875 29.1875 58.6562 29.1875C58.4792 29.1875 58.2604 29.1719 58 29.1406C57.7396 29.1146 57.474 29.0729 57.2031 29.0156C56.9323 28.9635 56.6745 28.8984 56.4297 28.8203C56.1901 28.737 55.9974 28.6458 55.8516 28.5469ZM64.3516 28.5469V27C64.5286 27.1562 64.7396 27.2969 64.9844 27.4219C65.2344 27.5469 65.4948 27.6536 65.7656 27.7422C66.0417 27.8255 66.3177 27.8906 66.5938 27.9375C66.8698 27.9844 67.125 28.0078 67.3594 28.0078C68.1667 28.0078 68.7682 27.8594 69.1641 27.5625C69.5651 27.2604 69.7656 26.8281 69.7656 26.2656C69.7656 25.9635 69.6979 25.7005 69.5625 25.4766C69.4323 25.2526 69.25 25.0495 69.0156 24.8672C68.7812 24.6797 68.5026 24.5026 68.1797 24.3359C67.862 24.1641 67.5182 23.9844 67.1484 23.7969C66.7578 23.599 66.3932 23.3984 66.0547 23.1953C65.7161 22.9922 65.4219 22.7682 65.1719 22.5234C64.9219 22.2786 64.724 22.0026 64.5781 21.6953C64.4375 21.3828 64.3672 21.0182 64.3672 20.6016C64.3672 20.0911 64.4792 19.6484 64.7031 19.2734C64.9271 18.8932 65.2214 18.5807 65.5859 18.3359C65.9505 18.0911 66.3646 17.9089 66.8281 17.7891C67.2969 17.6693 67.7734 17.6094 68.2578 17.6094C69.362 17.6094 70.1667 17.7422 70.6719 18.0078V19.4844C70.0104 19.026 69.1615 18.7969 68.125 18.7969C67.8385 18.7969 67.5521 18.8281 67.2656 18.8906C66.9792 18.9479 66.724 19.0443 66.5 19.1797C66.276 19.3151 66.0938 19.4896 65.9531 19.7031C65.8125 19.9167 65.7422 20.1771 65.7422 20.4844C65.7422 20.7708 65.7943 21.0182 65.8984 21.2266C66.0078 21.4349 66.1667 21.625 66.375 21.7969C66.5833 21.9688 66.8359 22.1354 67.1328 22.2969C67.4349 22.4583 67.7812 22.6354 68.1719 22.8281C68.5729 23.026 68.9531 23.2344 69.3125 23.4531C69.6719 23.6719 69.987 23.9141 70.2578 24.1797C70.5286 24.4453 70.7422 24.7396 70.8984 25.0625C71.0599 25.3854 71.1406 25.7552 71.1406 26.1719C71.1406 26.724 71.0312 27.1927 70.8125 27.5781C70.599 27.9583 70.3073 28.2682 69.9375 28.5078C69.5729 28.7474 69.151 28.9193 68.6719 29.0234C68.1927 29.1328 67.6875 29.1875 67.1562 29.1875C66.9792 29.1875 66.7604 29.1719 66.5 29.1406C66.2396 29.1146 65.974 29.0729 65.7031 29.0156C65.4323 28.9635 65.1745 28.8984 64.9297 28.8203C64.6901 28.737 64.4974 28.6458 64.3516 28.5469Z" fill="#ADBAC7"/>
<path d="M4 2H87V0H4V2ZM89 4V41H91V4H89ZM87 43H4V45H87V43ZM2 41V4H0V41H2ZM4 43C2.89543 43 2 42.1046 2 41H0C0 43.2091 1.79086 45 4 45V43ZM89 41C89 42.1046 88.1046 43 87 43V45C89.2091 45 91 43.2091 91 41H89ZM87 2C88.1046 2 89 2.89543 89 4H91C91 1.79086 89.2091 0 87 0V2ZM4 0C1.79086 0 0 1.79086 0 4H2C2 2.89543 2.89543 2 4 2V0Z" fill="#444C56"/>
<defs>
<clipPath id="clip0">
<rect width="18" height="18" fill="white" transform="translate(15 13.5)"/>
</clipPath>
</defs>
</svg>
