<svg width="76" height="39" viewBox="0 0 76 39" fill="none" xmlns="http://www.w3.org/2000/svg">
<path d="M1 4C1 2.34315 2.34315 1 4 1H72C73.6569 1 75 2.34315 75 4V35C75 36.6569 73.6569 38 72 38H4C2.34314 38 1 36.6569 1 35V4Z" fill="#22272E"/>
<g clip-path="url(#clip0)">
<path d="M26.5449 26.5673L27.9796 10.5H12.0204L12.0391 10.7085L13.4529 26.5695L13.4649 26.7015L19.9396 28.5H20.0416L26.5314 26.7L26.5434 26.568L26.5449 26.5673ZM20.0139 14.0092H24.6511L24.5116 15.6293L19.9366 17.6632L20.0131 18.0292H24.3061L23.8119 23.6925L19.9974 24.75L16.1844 23.694L15.9444 20.982H17.5141L17.6401 22.3568L17.6521 22.4903L19.9659 23.1052H20.0656L22.3539 22.4692L22.3651 22.3365L22.5811 19.797L22.5984 19.59H15.8131L15.6706 17.9602L20.4024 15.9345L20.3274 15.567H15.4674L15.3286 14.007H20.0086L20.0139 14.0092Z" fill="#ADBAC7"/>
</g>
<path d="M48.957 24.5898C48.2324 24.9727 47.3301 25.1641 46.25 25.1641C44.8555 25.1641 43.7389 24.7152 42.9004 23.8174C42.0618 22.9196 41.6426 21.7415 41.6426 20.2832C41.6426 18.7155 42.1143 17.4486 43.0576 16.4824C44.001 15.5163 45.1973 15.0332 46.6465 15.0332C47.5762 15.0332 48.3464 15.1676 48.957 15.4365V16.6602C48.2552 16.2682 47.4805 16.0723 46.6328 16.0723C45.5072 16.0723 44.5934 16.4482 43.8916 17.2002C43.1943 17.9521 42.8457 18.957 42.8457 20.2148C42.8457 21.4089 43.1715 22.3613 43.8232 23.0723C44.4795 23.7786 45.3385 24.1318 46.4004 24.1318C47.3848 24.1318 48.237 23.9131 48.957 23.4756V24.5898ZM50.4951 24.6035V23.25C50.6501 23.3867 50.8346 23.5098 51.0488 23.6191C51.2676 23.7285 51.4954 23.8219 51.7324 23.8994C51.974 23.9723 52.2155 24.0293 52.457 24.0703C52.6986 24.1113 52.9219 24.1318 53.127 24.1318C53.8333 24.1318 54.3597 24.002 54.7061 23.7422C55.057 23.4779 55.2324 23.0996 55.2324 22.6074C55.2324 22.3431 55.1732 22.113 55.0547 21.917C54.9408 21.721 54.7812 21.5433 54.5762 21.3838C54.3711 21.2197 54.1273 21.0648 53.8447 20.9189C53.5667 20.7686 53.266 20.6113 52.9424 20.4473C52.6006 20.2741 52.2816 20.0986 51.9854 19.9209C51.6891 19.7432 51.4316 19.5472 51.2129 19.333C50.9941 19.1188 50.821 18.8773 50.6934 18.6084C50.5703 18.335 50.5088 18.016 50.5088 17.6514C50.5088 17.2048 50.6068 16.8174 50.8027 16.4893C50.9987 16.1566 51.2562 15.8831 51.5752 15.6689C51.8942 15.4548 52.2565 15.2952 52.6621 15.1904C53.0723 15.0856 53.4893 15.0332 53.9131 15.0332C54.8792 15.0332 55.5833 15.1494 56.0254 15.3818V16.6738C55.4466 16.2728 54.7038 16.0723 53.7969 16.0723C53.5462 16.0723 53.2956 16.0996 53.0449 16.1543C52.7943 16.2044 52.571 16.2887 52.375 16.4072C52.179 16.5257 52.0195 16.6784 51.8965 16.8652C51.7734 17.0521 51.7119 17.2799 51.7119 17.5488C51.7119 17.7995 51.7575 18.016 51.8486 18.1982C51.9443 18.3805 52.0833 18.5469 52.2656 18.6973C52.4479 18.8477 52.6689 18.9935 52.9287 19.1348C53.193 19.276 53.4961 19.431 53.8379 19.5996C54.1888 19.7728 54.5215 19.9551 54.8359 20.1465C55.1504 20.3379 55.4261 20.5498 55.6631 20.7822C55.9001 21.0146 56.0869 21.2721 56.2236 21.5547C56.3649 21.8372 56.4355 22.1608 56.4355 22.5254C56.4355 23.0085 56.3398 23.4186 56.1484 23.7559C55.9616 24.0885 55.7064 24.3597 55.3828 24.5693C55.0638 24.779 54.6947 24.9294 54.2754 25.0205C53.8561 25.1162 53.4141 25.1641 52.9492 25.1641C52.7943 25.1641 52.6029 25.1504 52.375 25.123C52.1471 25.1003 51.9147 25.0638 51.6777 25.0137C51.4408 24.9681 51.2152 24.9111 51.001 24.8428C50.7913 24.7699 50.6227 24.6901 50.4951 24.6035ZM57.9326 24.6035V23.25C58.0876 23.3867 58.2721 23.5098 58.4863 23.6191C58.7051 23.7285 58.9329 23.8219 59.1699 23.8994C59.4115 23.9723 59.653 24.0293 59.8945 24.0703C60.1361 24.1113 60.3594 24.1318 60.5645 24.1318C61.2708 24.1318 61.7972 24.002 62.1436 23.7422C62.4945 23.4779 62.6699 23.0996 62.6699 22.6074C62.6699 22.3431 62.6107 22.113 62.4922 21.917C62.3783 21.721 62.2188 21.5433 62.0137 21.3838C61.8086 21.2197 61.5648 21.0648 61.2822 20.9189C61.0042 20.7686 60.7035 20.6113 60.3799 20.4473C60.0381 20.2741 59.7191 20.0986 59.4229 19.9209C59.1266 19.7432 58.8691 19.5472 58.6504 19.333C58.4316 19.1188 58.2585 18.8773 58.1309 18.6084C58.0078 18.335 57.9463 18.016 57.9463 17.6514C57.9463 17.2048 58.0443 16.8174 58.2402 16.4893C58.4362 16.1566 58.6937 15.8831 59.0127 15.6689C59.3317 15.4548 59.694 15.2952 60.0996 15.1904C60.5098 15.0856 60.9268 15.0332 61.3506 15.0332C62.3167 15.0332 63.0208 15.1494 63.4629 15.3818V16.6738C62.8841 16.2728 62.1413 16.0723 61.2344 16.0723C60.9837 16.0723 60.7331 16.0996 60.4824 16.1543C60.2318 16.2044 60.0085 16.2887 59.8125 16.4072C59.6165 16.5257 59.457 16.6784 59.334 16.8652C59.2109 17.0521 59.1494 17.2799 59.1494 17.5488C59.1494 17.7995 59.195 18.016 59.2861 18.1982C59.3818 18.3805 59.5208 18.5469 59.7031 18.6973C59.8854 18.8477 60.1064 18.9935 60.3662 19.1348C60.6305 19.276 60.9336 19.431 61.2754 19.5996C61.6263 19.7728 61.959 19.9551 62.2734 20.1465C62.5879 20.3379 62.8636 20.5498 63.1006 20.7822C63.3376 21.0146 63.5244 21.2721 63.6611 21.5547C63.8024 21.8372 63.873 22.1608 63.873 22.5254C63.873 23.0085 63.7773 23.4186 63.5859 23.7559C63.3991 24.0885 63.1439 24.3597 62.8203 24.5693C62.5013 24.779 62.1322 24.9294 61.7129 25.0205C61.2936 25.1162 60.8516 25.1641 60.3867 25.1641C60.2318 25.1641 60.0404 25.1504 59.8125 25.123C59.5846 25.1003 59.3522 25.0638 59.1152 25.0137C58.8783 24.9681 58.6527 24.9111 58.4385 24.8428C58.2288 24.7699 58.0602 24.6901 57.9326 24.6035Z" fill="#ADBAC7"/>
<path d="M4 2H72V0H4V2ZM74 4V35H76V4H74ZM72 37H4V39H72V37ZM2 35V4H0V35H2ZM4 37C2.89543 37 2 36.1046 2 35H0C0 37.2091 1.79086 39 4 39V37ZM74 35C74 36.1046 73.1046 37 72 37V39C74.2091 39 76 37.2091 76 35H74ZM72 2C73.1046 2 74 2.89543 74 4H76C76 1.79086 74.2091 0 72 0V2ZM4 0C1.79086 0 0 1.79086 0 4H2C2 2.89543 2.89543 2 4 2V0Z" fill="#444C56"/>
<defs>
<clipPath id="clip0">
<rect width="18" height="18" fill="white" transform="translate(11 10.5)"/>
</clipPath>
</defs>
</svg>
