<svg width="70" height="39" viewBox="0 0 70 39" fill="none" xmlns="http://www.w3.org/2000/svg">
<path d="M1 4C1 2.34315 2.34315 1 4 1H66C67.6569 1 69 2.34315 69 4V35C69 36.6569 67.6569 38 66 38H4C2.34314 38 1 36.6569 1 35V4Z" fill="#22272E"/>
<g clip-path="url(#clip0)">
<path d="M20.9838 19.5C20.9838 14.7891 17.1639 10.9686 12.4535 10.9686H11V14.7188H12.4535C15.0956 14.7188 17.2342 16.8602 17.2342 19.5C17.2342 22.1398 15.0961 24.2813 12.4535 24.2813H11V28.0314H12.4535C17.1644 28.0314 20.9838 24.2109 20.9838 19.5ZM29 16.1717C29.0001 15.4884 28.8655 14.8117 28.604 14.1804C28.3425 13.5491 27.9592 12.9755 27.476 12.4924C26.9927 12.0092 26.419 11.626 25.7877 11.3647C25.1563 11.1033 24.4796 10.9689 23.7963 10.9691H17.7961C19.272 11.8939 20.4825 13.1862 21.3089 14.7193H23.7957C24.1812 14.7193 24.5508 14.8724 24.8233 15.145C25.0959 15.4175 25.249 15.7871 25.249 16.1725C25.249 16.558 25.0959 16.9276 24.8233 17.2001C24.5508 17.4726 24.1812 17.6258 23.7957 17.6258H22.3428C22.5774 18.8648 22.5774 20.1369 22.3428 21.3759H23.7957C24.1815 21.3759 24.5515 21.5292 24.8243 21.802C25.0971 22.0748 25.2504 22.4448 25.2504 22.8306C25.2504 23.2164 25.0971 23.5863 24.8243 23.8591C24.5515 24.1319 24.1815 24.2852 23.7957 24.2852H21.3089C20.4823 25.8182 19.2719 27.1104 17.7961 28.0354H23.7963C25.013 28.0354 26.1903 27.6079 27.1246 26.8311C29.3302 24.9911 29.6356 21.7129 27.7957 19.5045C28.5738 18.5686 28.9997 17.3899 28.9994 16.1728L29 16.1717Z" fill="#ADBAC7"/>
</g>
<path d="M42.2852 25V15.1973H44.9922C48.4466 15.1973 50.1738 16.79 50.1738 19.9756C50.1738 21.4886 49.693 22.7054 48.7314 23.626C47.7744 24.542 46.4915 25 44.8828 25H42.2852ZM43.4336 16.2363V23.9609H44.8965C46.1816 23.9609 47.182 23.6169 47.8975 22.9287C48.613 22.2406 48.9707 21.2653 48.9707 20.0029C48.9707 17.4919 47.6354 16.2363 44.9648 16.2363H43.4336ZM51.7119 24.6377V23.4277C52.3818 23.9564 53.1383 24.2207 53.9814 24.2207C54.665 24.2207 55.2096 24.0498 55.6152 23.708C56.0254 23.3662 56.2305 22.9059 56.2305 22.3271C56.2305 21.0465 55.3213 20.4062 53.5029 20.4062H52.6895V19.4561H53.4619C55.0798 19.4561 55.8887 18.8545 55.8887 17.6514C55.8887 16.5394 55.2712 15.9834 54.0361 15.9834C53.348 15.9834 52.6986 16.2181 52.0879 16.6875V15.5938C52.7168 15.2201 53.4596 15.0332 54.3164 15.0332C55.1413 15.0332 55.7998 15.252 56.292 15.6895C56.7887 16.127 57.0371 16.6875 57.0371 17.3711C57.0371 18.6608 56.3809 19.4902 55.0684 19.8594V19.8867C55.7747 19.9551 56.3353 20.2035 56.75 20.6318C57.1693 21.0557 57.3789 21.5866 57.3789 22.2246C57.3789 23.1042 57.0622 23.8151 56.4287 24.3574C55.7998 24.8952 54.9681 25.1641 53.9336 25.1641C53.0039 25.1641 52.2633 24.9886 51.7119 24.6377Z" fill="#ADBAC7"/>
<path d="M4 2H66V0H4V2ZM68 4V35H70V4H68ZM66 37H4V39H66V37ZM2 35V4H0V35H2ZM4 37C2.89543 37 2 36.1046 2 35H0C0 37.2091 1.79086 39 4 39V37ZM68 35C68 36.1046 67.1046 37 66 37V39C68.2091 39 70 37.2091 70 35H68ZM66 2C67.1046 2 68 2.89543 68 4H70C70 1.79086 68.2091 0 66 0V2ZM4 0C1.79086 0 0 1.79086 0 4H2C2 2.89543 2.89543 2 4 2V0Z" fill="#ADBCA7"/>
<defs>
<clipPath id="clip0">
<rect width="18" height="18" fill="white" transform="translate(11 10.5)"/>
</clipPath>
</defs>
</svg>
