<svg width="86" height="47" viewBox="0 0 86 47" fill="none" xmlns="http://www.w3.org/2000/svg">
<rect x="1" y="1" width="84" height="45" rx="4" fill="#22272E"/>
<g clip-path="url(#clip0_28_4919)">
<path d="M25.9838 23.5C25.9838 18.7891 22.1639 14.9686 17.4535 14.9686H16V18.7187H17.4535C20.0956 18.7187 22.2342 20.8602 22.2342 23.5C22.2342 26.1398 20.0961 28.2812 17.4535 28.2812H16V32.0314H17.4535C22.1644 32.0314 25.9838 28.2109 25.9838 23.5ZM34 20.1717C34.0001 19.4884 33.8655 18.8117 33.604 18.1804C33.3425 17.5491 32.9592 16.9755 32.476 16.4924C31.9927 16.0092 31.419 15.626 30.7877 15.3647C30.1563 15.1033 29.4796 14.9689 28.7963 14.9691H22.7961C24.272 15.8939 25.4825 17.1862 26.3089 18.7193H28.7957C29.1812 18.7193 29.5508 18.8724 29.8233 19.1449C30.0959 19.4175 30.249 19.7871 30.249 20.1725C30.249 20.5579 30.0959 20.9276 29.8233 21.2001C29.5508 21.4726 29.1812 21.6257 28.7957 21.6257H27.3428C27.5774 22.8648 27.5774 24.1369 27.3428 25.3759H28.7957C29.1815 25.3759 29.5515 25.5292 29.8243 25.802C30.0971 26.0748 30.2504 26.4448 30.2504 26.8306C30.2504 27.2163 30.0971 27.5863 29.8243 27.8591C29.5515 28.1319 29.1815 28.2852 28.7957 28.2852H26.3089C25.4823 29.8182 24.2719 31.1104 22.7961 32.0354H28.7963C30.013 32.0354 31.1903 31.6079 32.1246 30.8311C34.3302 28.9911 34.6356 25.7129 32.7957 23.5045C33.5738 22.5686 33.9997 21.3899 33.9994 20.1728L34 20.1717Z" fill="#ADBAC7"/>
</g>
<path d="M47.4688 30V18.7969H50.5625C54.5104 18.7969 56.4844 20.6172 56.4844 24.2578C56.4844 25.987 55.9349 27.3776 54.8359 28.4297C53.7422 29.4766 52.276 30 50.4375 30H47.4688ZM48.7812 19.9844V28.8125H50.4531C51.9219 28.8125 53.0651 28.4193 53.8828 27.6328C54.7005 26.8464 55.1094 25.7318 55.1094 24.2891C55.1094 21.4193 53.5833 19.9844 50.5312 19.9844H48.7812ZM64.6641 26.8281C64.6641 27.3333 64.5677 27.7943 64.375 28.2109C64.1875 28.6224 63.9193 28.9766 63.5703 29.2734C63.2266 29.5651 62.8125 29.7917 62.3281 29.9531C61.8438 30.1146 61.3099 30.1953 60.7266 30.1953C59.6589 30.1953 58.8099 29.9922 58.1797 29.5859V28.2109C58.9349 28.8047 59.7995 29.1016 60.7734 29.1016C61.1641 29.1016 61.5156 29.0521 61.8281 28.9531C62.1458 28.8542 62.4167 28.7109 62.6406 28.5234C62.8698 28.3359 63.0443 28.1094 63.1641 27.8438C63.2891 27.5781 63.3516 27.2786 63.3516 26.9453C63.3516 25.4818 62.3099 24.75 60.2266 24.75H59.2969V23.6641H60.1797C62.0234 23.6641 62.9453 22.9766 62.9453 21.6016C62.9453 20.3307 62.2422 19.6953 60.8359 19.6953C60.0443 19.6953 59.3021 19.9609 58.6094 20.4922V19.25C59.3229 18.8229 60.1719 18.6094 61.1562 18.6094C61.625 18.6094 62.0495 18.6745 62.4297 18.8047C62.8099 18.9349 63.1354 19.1172 63.4062 19.3516C63.6771 19.5859 63.8854 19.8672 64.0312 20.1953C64.1823 20.5234 64.2578 20.8854 64.2578 21.2812C64.2578 22.7552 63.513 23.7031 62.0234 24.125V24.1562C62.4036 24.1979 62.7552 24.2917 63.0781 24.4375C63.401 24.5781 63.6797 24.763 63.9141 24.9922C64.1484 25.2214 64.3307 25.4922 64.4609 25.8047C64.5964 26.112 64.6641 26.4531 64.6641 26.8281Z" fill="#ADBAC7"/>
<rect x="1" y="1" width="84" height="45" rx="4" stroke="#444C56" stroke-width="2"/>
<defs>
<clipPath id="clip0_28_4919">
<rect width="18" height="18" fill="white" transform="translate(16 14.5)"/>
</clipPath>
</defs>
</svg>
