<svg xmlns="http://www.w3.org/2000/svg" width="116" height="56" fill="none"><rect width="98" height="48" x="9" y="4" fill="#FFEBEE" rx="4"/><g clip-path="url(#a)"><path fill="url(#b)" d="M49.962 32.228c.009-.087.015-.175.02-.264.006-.104-6.293-6.081-6.293-6.081h-.15s6.384 6.735 6.423 6.345Z"/><path fill="url(#c)" d="m36.522 30.154-.026.055-.027.058c-.2.418 2.811 3.363 3.054 3.005l.033-.048.036-.056c.194-.294-2.984-3.205-3.07-3.014Z"/><path fill="url(#d)" d="M40.778 34.295a.844.844 0 0 1-.125.175c-.009.02 2.94 2.945 2.94 2.945h.266s-2.769-2.996-3.081-3.12Z"/><path fill="url(#e)" d="M49.987 31.911a5.773 5.773 0 0 1-5.76 5.504h-.417l-3.087-3.041c.254-.358.49-.73.7-1.116h2.805a1.61 1.61 0 0 0 1.609-1.61 1.61 1.61 0 0 0-1.61-1.608h-1.659a11.042 11.042 0 0 0-.006-4.157h1.031l6.376 6.282c.007-.085.013-.169.018-.254ZM31.678 18.51h-1.677v4.157h1.677a5.318 5.318 0 0 1 5.312 5.311 5.28 5.28 0 0 1-.493 2.232l3.06 3.015a9.412 9.412 0 0 0 1.59-5.247c0-5.22-4.247-9.468-9.469-9.468Z"/><path fill="url(#f)" d="M44.228 18.509h-6.791a11.16 11.16 0 0 1 3.968 4.157h2.823a1.61 1.61 0 0 1 1.608 1.608 1.61 1.61 0 0 1-1.608 1.609h-.635l6.376 6.282a5.737 5.737 0 0 0-1.313-4.203 5.735 5.735 0 0 0 1.337-3.688 5.772 5.772 0 0 0-5.765-5.765Z"/><path fill="url(#g)" d="M43.81 37.415h-6.325a11.181 11.181 0 0 0 3.238-3.041l3.087 3.04Zm-4.254-4.191-3.06-3.015a5.32 5.32 0 0 1-4.818 3.08H30v4.157h1.677a9.468 9.468 0 0 0 7.878-4.222Z"/></g><path fill="#000" d="M69.469 34.5V23.297h3.094c3.947 0 5.921 1.82 5.921 5.46 0 1.73-.55 3.12-1.648 4.173-1.094 1.047-2.56 1.57-4.398 1.57h-2.97Zm1.312-10.016v8.828h1.672c1.469 0 2.612-.393 3.43-1.18.818-.786 1.226-1.9 1.226-3.343 0-2.87-1.526-4.305-4.578-4.305h-1.75Zm15.883 6.844c0 .505-.096.966-.289 1.383a3.028 3.028 0 0 1-.805 1.062 3.706 3.706 0 0 1-1.242.68 5.039 5.039 0 0 1-1.601.242c-1.068 0-1.917-.203-2.547-.61v-1.374c.755.594 1.62.89 2.593.89.391 0 .743-.049 1.055-.148.318-.099.589-.242.813-.43.229-.187.403-.414.523-.68.125-.265.188-.564.188-.898 0-1.463-1.042-2.195-3.125-2.195h-.93v-1.086h.883c1.843 0 2.765-.687 2.765-2.062 0-1.271-.703-1.907-2.11-1.907-.79 0-1.533.266-2.226.797V23.75c.714-.427 1.563-.64 2.547-.64.469 0 .893.064 1.274.195.38.13.705.312.976.547.271.234.48.515.625.843.151.328.227.69.227 1.086 0 1.474-.745 2.422-2.235 2.844v.031c.38.042.732.136 1.055.282.323.14.602.325.836.554.234.23.417.5.547.813.135.307.203.648.203 1.023Z"/><rect width="98" height="48" x="9" y="4" stroke="#F44336" stroke-width="2" rx="4"/><defs><linearGradient id="b" x1="38.213" x2="50.06" y1="19.978" y2="32.781" gradientUnits="userSpaceOnUse"><stop stop-color="#F9A03C"/><stop offset="1" stop-color="#F7974E"/></linearGradient><linearGradient id="c" x1="28.326" x2="39.581" y1="22.285" y2="33.207" gradientUnits="userSpaceOnUse"><stop stop-color="#F9A03C"/><stop offset="1" stop-color="#F7974E"/></linearGradient><linearGradient id="d" x1="33.499" x2="43.353" y1="26.123" y2="37.734" gradientUnits="userSpaceOnUse"><stop stop-color="#F9A03C"/><stop offset="1" stop-color="#F7974E"/></linearGradient><linearGradient id="e" x1="32.267" x2="45.501" y1="18.164" y2="36.63" gradientUnits="userSpaceOnUse"><stop stop-color="#F26D58"/><stop offset="1" stop-color="#F9A03C"/></linearGradient><linearGradient id="f" x1="39.426" x2="53.16" y1="19.035" y2="27.333" gradientUnits="userSpaceOnUse"><stop stop-color="#B84E51"/><stop offset="1" stop-color="#F68E48"/></linearGradient><linearGradient id="g" x1="36.489" x2="36.675" y1="31.907" y2="40.885" gradientUnits="userSpaceOnUse"><stop stop-color="#F9A03C"/><stop offset="1" stop-color="#F7974E"/></linearGradient><clipPath id="a"><path fill="#fff" d="M29.997 18.509h20.006v18.983H29.997z"/></clipPath></defs></svg>