<svg width="84" height="45" viewBox="0 0 84 45" fill="none" xmlns="http://www.w3.org/2000/svg">
<path d="M1 4C1 2.34314 2.34315 1 4 1H80C81.6569 1 83 2.34315 83 4V41C83 42.6569 81.6569 44 80 44H4C2.34315 44 1 42.6569 1 41V4Z" fill="#22272E"/>
<g clip-path="url(#clip0)">
<path d="M24.9838 22.5C24.9838 17.7891 21.1639 13.9686 16.4535 13.9686H15V17.7188H16.4535C19.0956 17.7188 21.2342 19.8602 21.2342 22.5C21.2342 25.1398 19.0961 27.2813 16.4535 27.2813H15V31.0314H16.4535C21.1644 31.0314 24.9838 27.2109 24.9838 22.5ZM33 19.1717C33.0001 18.4884 32.8655 17.8117 32.604 17.1804C32.3425 16.5491 31.9592 15.9755 31.476 15.4924C30.9927 15.0092 30.419 14.626 29.7877 14.3647C29.1563 14.1033 28.4796 13.9689 27.7963 13.9691H21.7961C23.272 14.8939 24.4825 16.1862 25.3089 17.7193H27.7957C28.1812 17.7193 28.5508 17.8724 28.8233 18.145C29.0959 18.4175 29.249 18.7871 29.249 19.1725C29.249 19.558 29.0959 19.9276 28.8233 20.2001C28.5508 20.4726 28.1812 20.6258 27.7957 20.6258H26.3428C26.5774 21.8648 26.5774 23.1369 26.3428 24.3759H27.7957C28.1815 24.3759 28.5515 24.5292 28.8243 24.802C29.0971 25.0748 29.2504 25.4448 29.2504 25.8306C29.2504 26.2164 29.0971 26.5863 28.8243 26.8591C28.5515 27.1319 28.1815 27.2852 27.7957 27.2852H25.3089C24.4823 28.8182 23.2719 30.1104 21.7961 31.0354H27.7963C29.013 31.0354 30.1903 30.6079 31.1246 29.8311C33.3302 27.9911 33.6356 24.7129 31.7957 22.5045C32.5738 21.5686 32.9997 20.3899 32.9994 19.1728L33 19.1717Z" fill="#ADBAC7"/>
</g>
<path d="M46.4688 29V17.7969H49.5625C53.5104 17.7969 55.4844 19.6172 55.4844 23.2578C55.4844 24.987 54.9349 26.3776 53.8359 27.4297C52.7422 28.4766 51.276 29 49.4375 29H46.4688ZM47.7812 18.9844V27.8125H49.4531C50.9219 27.8125 52.0651 27.4193 52.8828 26.6328C53.7005 25.8464 54.1094 24.7318 54.1094 23.2891C54.1094 20.4193 52.5833 18.9844 49.5312 18.9844H47.7812ZM57.2422 28.5859V27.2031C58.0078 27.8073 58.8724 28.1094 59.8359 28.1094C60.6172 28.1094 61.2396 27.9141 61.7031 27.5234C62.1719 27.1328 62.4062 26.6068 62.4062 25.9453C62.4062 24.4818 61.3672 23.75 59.2891 23.75H58.3594V22.6641H59.2422C61.0911 22.6641 62.0156 21.9766 62.0156 20.6016C62.0156 19.3307 61.3099 18.6953 59.8984 18.6953C59.112 18.6953 58.3698 18.9635 57.6719 19.5V18.25C58.3906 17.8229 59.2396 17.6094 60.2188 17.6094C61.1615 17.6094 61.9141 17.8594 62.4766 18.3594C63.0443 18.8594 63.3281 19.5 63.3281 20.2812C63.3281 21.7552 62.5781 22.7031 61.0781 23.125V23.1562C61.8854 23.2344 62.526 23.5182 63 24.0078C63.4792 24.4922 63.7188 25.099 63.7188 25.8281C63.7188 26.8333 63.3568 27.6458 62.6328 28.2656C61.9141 28.8802 60.9635 29.1875 59.7812 29.1875C58.7188 29.1875 57.8724 28.987 57.2422 28.5859Z" fill="#ADBAC7"/>
<path d="M4 2H80V0H4V2ZM82 4V41H84V4H82ZM80 43H4V45H80V43ZM2 41V4H0V41H2ZM4 43C2.89543 43 2 42.1046 2 41H0C0 43.2091 1.79086 45 4 45V43ZM82 41C82 42.1046 81.1046 43 80 43V45C82.2091 45 84 43.2091 84 41H82ZM80 2C81.1046 2 82 2.89543 82 4H84C84 1.79086 82.2091 0 80 0V2ZM4 0C1.79086 0 0 1.79086 0 4H2C2 2.89543 2.89543 2 4 2V0Z" fill="#444C56"/>
<defs>
<clipPath id="clip0">
<rect width="18" height="18" fill="white" transform="translate(15 13.5)"/>
</clipPath>
</defs>
</svg>
