<svg width="52" height="28" viewBox="0 0 52 28" fill="none" xmlns="http://www.w3.org/2000/svg">
<g filter="url(#filter0_d)">
<path d="M2 5C2 2.23858 4.23858 0 7 0H45C47.7614 0 50 2.23858 50 5V19C50 21.7614 47.7614 24 45 24H7C4.23858 24 2 21.7614 2 19V5Z" fill="white"/>
<g clip-path="url(#clip0)">
<path d="M24.9629 15.8038C24.971 15.7255 24.9768 15.6464 24.9813 15.5669C24.9868 15.4728 19.3189 10.0951 19.3189 10.0951H19.1833C19.1833 10.0951 24.9283 16.1549 24.9629 15.8038V15.8038Z" fill="url(#paint0_linear)"/>
<path d="M12.8703 13.9383C12.8628 13.9548 12.8553 13.9713 12.8476 13.9878C12.8396 14.0051 12.8313 14.0223 12.8231 14.0394C12.6424 14.4161 15.3525 17.0654 15.5704 16.7436C15.5803 16.7294 15.5903 16.7143 15.6002 16.7001C15.6113 16.6833 15.6221 16.6671 15.633 16.6502C15.8074 16.3856 12.9477 13.7662 12.8703 13.9383V13.9383Z" fill="url(#paint1_linear)"/>
<path d="M16.6998 17.6639C16.6922 17.6808 16.6376 17.773 16.5878 17.8217C16.5794 17.8386 19.2334 20.4706 19.2334 20.4706H19.4724C19.4725 20.4706 16.981 17.7752 16.6998 17.6639V17.6639Z" fill="url(#paint2_linear)"/>
<path d="M24.9853 15.5191C24.8611 18.2706 22.5848 20.4706 19.8037 20.4706H19.4277L16.6504 17.7345C16.8788 17.4123 17.0912 17.0786 17.2803 16.7305H19.8037C20.6018 16.7305 21.2512 16.0814 21.2512 15.2829C21.2512 14.4848 20.6018 13.8354 19.8037 13.8354H18.3104C18.4242 13.234 18.4864 12.6137 18.4864 11.9793C18.4864 11.3351 18.4231 10.7061 18.3052 10.095H19.2328L24.9689 15.747C24.9757 15.6713 24.9811 15.5956 24.9853 15.5191V15.5191ZM8.51236 3.46021H7.00352V7.20036H8.51236C11.1476 7.20036 13.2918 9.34402 13.2918 11.9793C13.2918 12.6962 13.1319 13.3768 12.8478 13.9878L15.6004 16.7001C16.5042 15.3478 17.0326 13.7243 17.0326 11.9793C17.0326 7.28189 13.2103 3.46021 8.51236 3.46021Z" fill="url(#paint3_linear)"/>
<path d="M19.8036 3.46021H13.6937C15.186 4.37133 16.4217 5.66326 17.2637 7.20036H19.8036C20.6016 7.20036 21.251 7.84945 21.251 8.6479C21.251 9.44615 20.6016 10.0952 19.8036 10.0952H19.2328L24.9689 15.7472C24.9824 15.5939 24.9908 15.4396 24.9908 15.2829C24.9908 14.0221 24.5384 12.8654 23.7872 11.9652C24.5384 11.0654 24.9908 9.90856 24.9908 8.6479C24.9908 5.78753 22.6641 3.46021 19.8036 3.46021Z" fill="url(#paint4_linear)"/>
<path d="M19.4275 20.4706H13.7373C14.8827 19.7633 15.8729 18.8295 16.6502 17.7345L19.4275 20.4706V20.4706ZM15.6002 16.7001L12.8478 13.9878C12.0874 15.622 10.4303 16.7586 8.51218 16.7586H7.00334V20.4984H8.51218C11.4649 20.4984 14.0711 18.9881 15.6002 16.7001V16.7001Z" fill="url(#paint5_linear)"/>
</g>
<path d="M30.9902 16V7.46875H33.3984C34.1406 7.46875 34.7969 7.63281 35.3672 7.96094C35.9375 8.28906 36.377 8.75586 36.6855 9.36133C36.998 9.9668 37.1562 10.6621 37.1602 11.4473V11.9922C37.1602 12.7969 37.0039 13.502 36.6914 14.1074C36.3828 14.7129 35.9395 15.1777 35.3613 15.502C34.7871 15.8262 34.1172 15.9922 33.3516 16H30.9902ZM32.1152 8.39453V15.0801H33.2988C34.166 15.0801 34.8398 14.8105 35.3203 14.2715C35.8047 13.7324 36.0469 12.9648 36.0469 11.9688V11.4707C36.0469 10.502 35.8184 9.75 35.3613 9.21484C34.9082 8.67578 34.2637 8.40234 33.4277 8.39453H32.1152ZM40.1602 11.207H40.9746C41.4863 11.1992 41.8887 11.0645 42.1816 10.8027C42.4746 10.541 42.6211 10.1875 42.6211 9.74219C42.6211 8.74219 42.123 8.24219 41.127 8.24219C40.6582 8.24219 40.2832 8.37695 40.002 8.64648C39.7246 8.91211 39.5859 9.26562 39.5859 9.70703H38.502C38.502 9.03125 38.748 8.4707 39.2402 8.02539C39.7363 7.57617 40.3652 7.35156 41.127 7.35156C41.9316 7.35156 42.5625 7.56445 43.0195 7.99023C43.4766 8.41602 43.7051 9.00781 43.7051 9.76562C43.7051 10.1367 43.584 10.4961 43.3418 10.8438C43.1035 11.1914 42.7773 11.4512 42.3633 11.623C42.832 11.7715 43.1934 12.0176 43.4473 12.3613C43.7051 12.7051 43.834 13.125 43.834 13.6211C43.834 14.3867 43.584 14.9941 43.084 15.4434C42.584 15.8926 41.9336 16.1172 41.1328 16.1172C40.332 16.1172 39.6797 15.9004 39.1758 15.4668C38.6758 15.0332 38.4258 14.4609 38.4258 13.75H39.5156C39.5156 14.1992 39.6621 14.5586 39.9551 14.8281C40.248 15.0977 40.6406 15.2324 41.1328 15.2324C41.6562 15.2324 42.0566 15.0957 42.334 14.8223C42.6113 14.5488 42.75 14.1562 42.75 13.6445C42.75 13.1484 42.5977 12.7676 42.293 12.502C41.9883 12.2363 41.5488 12.0996 40.9746 12.0918H40.1602V11.207Z" fill="black"/>
</g>
<defs>
<filter id="filter0_d" x="0" y="0" width="52" height="28" filterUnits="userSpaceOnUse" color-interpolation-filters="sRGB">
<feFlood flood-opacity="0" result="BackgroundImageFix"/>
<feColorMatrix in="SourceAlpha" type="matrix" values="0 0 0 0 0 0 0 0 0 0 0 0 0 0 0 0 0 0 127 0" result="hardAlpha"/>
<feOffset dy="2"/>
<feGaussianBlur stdDeviation="1"/>
<feComposite in2="hardAlpha" operator="out"/>
<feColorMatrix type="matrix" values="0 0 0 0 0 0 0 0 0 0 0 0 0 0 0 0 0 0 0.25 0"/>
<feBlend mode="normal" in2="BackgroundImageFix" result="effect1_dropShadow"/>
<feBlend mode="normal" in="SourceGraphic" in2="effect1_dropShadow" result="shape"/>
</filter>
<linearGradient id="paint0_linear" x1="14.3921" y1="4.7827" x2="25.0509" y2="16.302" gradientUnits="userSpaceOnUse">
<stop stop-color="#F9A03C"/>
<stop offset="1" stop-color="#F7974E"/>
</linearGradient>
<linearGradient id="paint1_linear" x1="5.49652" y1="6.85836" x2="15.6225" y2="16.685" gradientUnits="userSpaceOnUse">
<stop stop-color="#F9A03C"/>
<stop offset="1" stop-color="#F7974E"/>
</linearGradient>
<linearGradient id="paint2_linear" x1="10.1505" y1="10.3111" x2="19.017" y2="20.7584" gradientUnits="userSpaceOnUse">
<stop stop-color="#F9A03C"/>
<stop offset="1" stop-color="#F7974E"/>
</linearGradient>
<linearGradient id="paint3_linear" x1="9.04247" y1="3.15027" x2="20.9491" y2="19.7648" gradientUnits="userSpaceOnUse">
<stop stop-color="#F26D58"/>
<stop offset="1" stop-color="#F9A03C"/>
</linearGradient>
<linearGradient id="paint4_linear" x1="15.4836" y1="3.93424" x2="27.8407" y2="11.3998" gradientUnits="userSpaceOnUse">
<stop stop-color="#B84E51"/>
<stop offset="1" stop-color="#F68E48"/>
</linearGradient>
<linearGradient id="paint5_linear" x1="12.8407" y1="15.5156" x2="13.008" y2="23.593" gradientUnits="userSpaceOnUse">
<stop stop-color="#F9A03C"/>
<stop offset="1" stop-color="#F7974E"/>
</linearGradient>
<clipPath id="clip0">
<rect width="18" height="17.0796" fill="white" transform="translate(7 3.46021)"/>
</clipPath>
</defs>
</svg>
