<svg width="61" height="36" viewBox="0 0 61 36" fill="none" xmlns="http://www.w3.org/2000/svg">
<g filter="url(#filter0_d)">
<path d="M2 3C2 1.34315 3.34315 0 5 0H56C57.6569 0 59 1.34315 59 3V29C59 30.6569 57.6569 32 56 32H5C3.34314 32 2 30.6569 2 29V3Z" fill="#C9D1D9"/>
<g clip-path="url(#clip0)">
<path d="M27.9629 19.8038C27.971 19.7255 27.9768 19.6464 27.9813 19.5669C27.9868 19.4728 22.3189 14.0951 22.3189 14.0951H22.1833C22.1833 14.0951 27.9283 20.1549 27.9629 19.8038V19.8038Z" fill="url(#paint0_linear)"/>
<path d="M15.8703 17.9383C15.8628 17.9548 15.8553 17.9713 15.8476 17.9878C15.8396 18.0051 15.8313 18.0223 15.8231 18.0394C15.6424 18.4161 18.3525 21.0654 18.5704 20.7436C18.5803 20.7294 18.5903 20.7143 18.6002 20.7001C18.6113 20.6833 18.6221 20.6671 18.633 20.6502C18.8074 20.3856 15.9477 17.7662 15.8703 17.9383Z" fill="url(#paint1_linear)"/>
<path d="M19.6998 21.6639C19.6922 21.6808 19.6376 21.773 19.5878 21.8217C19.5794 21.8386 22.2334 24.4706 22.2334 24.4706H22.4724C22.4725 24.4706 19.981 21.7752 19.6998 21.6639Z" fill="url(#paint2_linear)"/>
<path d="M27.9853 19.5191C27.8611 22.2706 25.5848 24.4706 22.8037 24.4706H22.4277L19.6504 21.7345C19.8788 21.4123 20.0912 21.0786 20.2803 20.7305H22.8037C23.6018 20.7305 24.2512 20.0814 24.2512 19.2829C24.2512 18.4848 23.6018 17.8354 22.8037 17.8354H21.3104C21.4242 17.234 21.4864 16.6137 21.4864 15.9793C21.4864 15.3351 21.4231 14.7061 21.3052 14.095H22.2328L27.9689 19.747C27.9757 19.6713 27.9811 19.5956 27.9853 19.5191ZM11.5124 7.46021H10.0035V11.2004H11.5124C14.1476 11.2004 16.2918 13.344 16.2918 15.9793C16.2918 16.6962 16.1319 17.3768 15.8478 17.9878L18.6004 20.7001C19.5042 19.3478 20.0326 17.7243 20.0326 15.9793C20.0326 11.2819 16.2103 7.46021 11.5124 7.46021Z" fill="url(#paint3_linear)"/>
<path d="M22.8036 7.46021H16.6937C18.186 8.37133 19.4217 9.66326 20.2637 11.2004H22.8036C23.6016 11.2004 24.251 11.8495 24.251 12.6479C24.251 13.4461 23.6016 14.0952 22.8036 14.0952H22.2328L27.9689 19.7472C27.9824 19.5939 27.9908 19.4396 27.9908 19.2829C27.9908 18.0221 27.5384 16.8654 26.7872 15.9652C27.5384 15.0654 27.9908 13.9086 27.9908 12.6479C27.9908 9.78753 25.6641 7.46021 22.8036 7.46021Z" fill="url(#paint4_linear)"/>
<path d="M22.4275 24.4706H16.7373C17.8827 23.7633 18.8729 22.8295 19.6502 21.7345L22.4275 24.4706ZM18.6002 20.7001L15.8478 17.9878C15.0874 19.622 13.4303 20.7586 11.5122 20.7586H10.0033V24.4984H11.5122C14.4649 24.4984 17.0711 22.9881 18.6002 20.7001Z" fill="url(#paint5_linear)"/>
</g>
<path d="M36.9902 20V11.4688H39.3984C40.1406 11.4688 40.7969 11.6328 41.3672 11.9609C41.9375 12.2891 42.377 12.7559 42.6855 13.3613C42.998 13.9668 43.1562 14.6621 43.1602 15.4473V15.9922C43.1602 16.7969 43.0039 17.502 42.6914 18.1074C42.3828 18.7129 41.9395 19.1777 41.3613 19.502C40.7871 19.8262 40.1172 19.9922 39.3516 20H36.9902ZM38.1152 12.3945V19.0801H39.2988C40.166 19.0801 40.8398 18.8105 41.3203 18.2715C41.8047 17.7324 42.0469 16.9648 42.0469 15.9688V15.4707C42.0469 14.502 41.8184 13.75 41.3613 13.2148C40.9082 12.6758 40.2637 12.4023 39.4277 12.3945H38.1152ZM46.1602 15.207H46.9746C47.4863 15.1992 47.8887 15.0645 48.1816 14.8027C48.4746 14.541 48.6211 14.1875 48.6211 13.7422C48.6211 12.7422 48.123 12.2422 47.127 12.2422C46.6582 12.2422 46.2832 12.377 46.002 12.6465C45.7246 12.9121 45.5859 13.2656 45.5859 13.707H44.502C44.502 13.0312 44.748 12.4707 45.2402 12.0254C45.7363 11.5762 46.3652 11.3516 47.127 11.3516C47.9316 11.3516 48.5625 11.5645 49.0195 11.9902C49.4766 12.416 49.7051 13.0078 49.7051 13.7656C49.7051 14.1367 49.584 14.4961 49.3418 14.8438C49.1035 15.1914 48.7773 15.4512 48.3633 15.623C48.832 15.7715 49.1934 16.0176 49.4473 16.3613C49.7051 16.7051 49.834 17.125 49.834 17.6211C49.834 18.3867 49.584 18.9941 49.084 19.4434C48.584 19.8926 47.9336 20.1172 47.1328 20.1172C46.332 20.1172 45.6797 19.9004 45.1758 19.4668C44.6758 19.0332 44.4258 18.4609 44.4258 17.75H45.5156C45.5156 18.1992 45.6621 18.5586 45.9551 18.8281C46.248 19.0977 46.6406 19.2324 47.1328 19.2324C47.6562 19.2324 48.0566 19.0957 48.334 18.8223C48.6113 18.5488 48.75 18.1562 48.75 17.6445C48.75 17.1484 48.5977 16.7676 48.293 16.502C47.9883 16.2363 47.5488 16.0996 46.9746 16.0918H46.1602V15.207Z" fill="#22272E"/>
</g>
<defs>
<filter id="filter0_d" x="0" y="0" width="61" height="36" filterUnits="userSpaceOnUse" color-interpolation-filters="sRGB">
<feFlood flood-opacity="0" result="BackgroundImageFix"/>
<feColorMatrix in="SourceAlpha" type="matrix" values="0 0 0 0 0 0 0 0 0 0 0 0 0 0 0 0 0 0 127 0" result="hardAlpha"/>
<feOffset dy="2"/>
<feGaussianBlur stdDeviation="1"/>
<feComposite in2="hardAlpha" operator="out"/>
<feColorMatrix type="matrix" values="0 0 0 0 0 0 0 0 0 0 0 0 0 0 0 0 0 0 0.25 0"/>
<feBlend mode="normal" in2="BackgroundImageFix" result="effect1_dropShadow"/>
<feBlend mode="normal" in="SourceGraphic" in2="effect1_dropShadow" result="shape"/>
</filter>
<linearGradient id="paint0_linear" x1="17.3921" y1="8.7827" x2="28.0509" y2="20.302" gradientUnits="userSpaceOnUse">
<stop stop-color="#F9A03C"/>
<stop offset="1" stop-color="#F7974E"/>
</linearGradient>
<linearGradient id="paint1_linear" x1="8.49652" y1="10.8584" x2="18.6225" y2="20.685" gradientUnits="userSpaceOnUse">
<stop stop-color="#F9A03C"/>
<stop offset="1" stop-color="#F7974E"/>
</linearGradient>
<linearGradient id="paint2_linear" x1="13.1505" y1="14.3111" x2="22.017" y2="24.7584" gradientUnits="userSpaceOnUse">
<stop stop-color="#F9A03C"/>
<stop offset="1" stop-color="#F7974E"/>
</linearGradient>
<linearGradient id="paint3_linear" x1="12.0425" y1="7.15027" x2="23.9491" y2="23.7648" gradientUnits="userSpaceOnUse">
<stop stop-color="#F26D58"/>
<stop offset="1" stop-color="#F9A03C"/>
</linearGradient>
<linearGradient id="paint4_linear" x1="18.4836" y1="7.93424" x2="30.8407" y2="15.3998" gradientUnits="userSpaceOnUse">
<stop stop-color="#B84E51"/>
<stop offset="1" stop-color="#F68E48"/>
</linearGradient>
<linearGradient id="paint5_linear" x1="15.8407" y1="19.5156" x2="16.008" y2="27.593" gradientUnits="userSpaceOnUse">
<stop stop-color="#F9A03C"/>
<stop offset="1" stop-color="#F7974E"/>
</linearGradient>
<clipPath id="clip0">
<rect width="18" height="17.0796" fill="white" transform="translate(10 7.46021)"/>
</clipPath>
</defs>
</svg>
