<svg width="59" height="34" viewBox="0 0 59 34" fill="none" xmlns="http://www.w3.org/2000/svg">
<path d="M1 4C1 2.34315 2.34315 1 4 1H55C56.6569 1 58 2.34315 58 4V30C58 31.6569 56.6569 33 55 33H4C2.34314 33 1 31.6569 1 30V4Z" fill="#C9D1D9"/>
<g clip-path="url(#clip0)">
<path d="M26.9629 20.8038C26.971 20.7255 26.9768 20.6464 26.9813 20.5669C26.9868 20.4728 21.3189 15.0951 21.3189 15.0951H21.1833C21.1833 15.0951 26.9283 21.1549 26.9629 20.8038V20.8038Z" fill="url(#paint0_linear)"/>
<path d="M14.8703 18.9383C14.8628 18.9548 14.8553 18.9713 14.8476 18.9878C14.8396 19.0051 14.8313 19.0223 14.8231 19.0394C14.6424 19.4161 17.3525 22.0654 17.5704 21.7436C17.5803 21.7294 17.5903 21.7143 17.6002 21.7001C17.6113 21.6833 17.6221 21.6671 17.633 21.6502C17.8074 21.3856 14.9477 18.7662 14.8703 18.9383Z" fill="url(#paint1_linear)"/>
<path d="M18.6998 22.6639C18.6922 22.6808 18.6376 22.773 18.5878 22.8217C18.5794 22.8386 21.2334 25.4706 21.2334 25.4706H21.4724C21.4725 25.4706 18.981 22.7752 18.6998 22.6639Z" fill="url(#paint2_linear)"/>
<path d="M26.9853 20.5191C26.8611 23.2706 24.5848 25.4706 21.8037 25.4706H21.4277L18.6504 22.7345C18.8788 22.4123 19.0912 22.0786 19.2803 21.7305H21.8037C22.6018 21.7305 23.2512 21.0814 23.2512 20.2829C23.2512 19.4848 22.6018 18.8354 21.8037 18.8354H20.3104C20.4242 18.234 20.4864 17.6137 20.4864 16.9793C20.4864 16.3351 20.4231 15.7061 20.3052 15.095H21.2328L26.9689 20.747C26.9757 20.6713 26.9811 20.5956 26.9853 20.5191ZM10.5124 8.46021H9.00352V12.2004H10.5124C13.1476 12.2004 15.2918 14.344 15.2918 16.9793C15.2918 17.6962 15.1319 18.3768 14.8478 18.9878L17.6004 21.7001C18.5042 20.3478 19.0326 18.7243 19.0326 16.9793C19.0326 12.2819 15.2103 8.46021 10.5124 8.46021Z" fill="url(#paint3_linear)"/>
<path d="M21.8036 8.46021H15.6937C17.186 9.37133 18.4217 10.6633 19.2637 12.2004H21.8036C22.6016 12.2004 23.251 12.8495 23.251 13.6479C23.251 14.4461 22.6016 15.0952 21.8036 15.0952H21.2328L26.9689 20.7472C26.9824 20.5939 26.9908 20.4396 26.9908 20.2829C26.9908 19.0221 26.5384 17.8654 25.7872 16.9652C26.5384 16.0654 26.9908 14.9086 26.9908 13.6479C26.9908 10.7875 24.6641 8.46021 21.8036 8.46021Z" fill="url(#paint4_linear)"/>
<path d="M21.4275 25.4706H15.7373C16.8827 24.7633 17.8729 23.8295 18.6502 22.7345L21.4275 25.4706ZM17.6002 21.7001L14.8478 18.9878C14.0874 20.622 12.4303 21.7586 10.5122 21.7586H9.00334V25.4984H10.5122C13.4649 25.4984 16.0711 23.9881 17.6002 21.7001Z" fill="url(#paint5_linear)"/>
</g>
<path d="M35.9902 21V12.4688H38.3984C39.1406 12.4688 39.7969 12.6328 40.3672 12.9609C40.9375 13.2891 41.377 13.7559 41.6855 14.3613C41.998 14.9668 42.1562 15.6621 42.1602 16.4473V16.9922C42.1602 17.7969 42.0039 18.502 41.6914 19.1074C41.3828 19.7129 40.9395 20.1777 40.3613 20.502C39.7871 20.8262 39.1172 20.9922 38.3516 21H35.9902ZM37.1152 13.3945V20.0801H38.2988C39.166 20.0801 39.8398 19.8105 40.3203 19.2715C40.8047 18.7324 41.0469 17.9648 41.0469 16.9688V16.4707C41.0469 15.502 40.8184 14.75 40.3613 14.2148C39.9082 13.6758 39.2637 13.4023 38.4277 13.3945H37.1152ZM45.1602 16.207H45.9746C46.4863 16.1992 46.8887 16.0645 47.1816 15.8027C47.4746 15.541 47.6211 15.1875 47.6211 14.7422C47.6211 13.7422 47.123 13.2422 46.127 13.2422C45.6582 13.2422 45.2832 13.377 45.002 13.6465C44.7246 13.9121 44.5859 14.2656 44.5859 14.707H43.502C43.502 14.0312 43.748 13.4707 44.2402 13.0254C44.7363 12.5762 45.3652 12.3516 46.127 12.3516C46.9316 12.3516 47.5625 12.5645 48.0195 12.9902C48.4766 13.416 48.7051 14.0078 48.7051 14.7656C48.7051 15.1367 48.584 15.4961 48.3418 15.8438C48.1035 16.1914 47.7773 16.4512 47.3633 16.623C47.832 16.7715 48.1934 17.0176 48.4473 17.3613C48.7051 17.7051 48.834 18.125 48.834 18.6211C48.834 19.3867 48.584 19.9941 48.084 20.4434C47.584 20.8926 46.9336 21.1172 46.1328 21.1172C45.332 21.1172 44.6797 20.9004 44.1758 20.4668C43.6758 20.0332 43.4258 19.4609 43.4258 18.75H44.5156C44.5156 19.1992 44.6621 19.5586 44.9551 19.8281C45.248 20.0977 45.6406 20.2324 46.1328 20.2324C46.6562 20.2324 47.0566 20.0957 47.334 19.8223C47.6113 19.5488 47.75 19.1562 47.75 18.6445C47.75 18.1484 47.5977 17.7676 47.293 17.502C46.9883 17.2363 46.5488 17.0996 45.9746 17.0918H45.1602V16.207Z" fill="#22272E"/>
<path d="M4 2H55V0H4V2ZM57 4V30H59V4H57ZM55 32H4V34H55V32ZM2 30V4H0V30H2ZM4 32C2.89543 32 2 31.1046 2 30H0C0 32.2091 1.79086 34 4 34V32ZM57 30C57 31.1046 56.1046 32 55 32V34C57.2091 34 59 32.2091 59 30H57ZM55 2C56.1046 2 57 2.89543 57 4H59C59 1.79086 57.2091 0 55 0V2ZM4 0C1.79086 0 0 1.79086 0 4H2C2 2.89543 2.89543 2 4 2V0Z" fill="#30363D"/>
<defs>
<linearGradient id="paint0_linear" x1="16.3921" y1="9.7827" x2="27.0509" y2="21.302" gradientUnits="userSpaceOnUse">
<stop stop-color="#F9A03C"/>
<stop offset="1" stop-color="#F7974E"/>
</linearGradient>
<linearGradient id="paint1_linear" x1="7.49652" y1="11.8584" x2="17.6225" y2="21.685" gradientUnits="userSpaceOnUse">
<stop stop-color="#F9A03C"/>
<stop offset="1" stop-color="#F7974E"/>
</linearGradient>
<linearGradient id="paint2_linear" x1="12.1505" y1="15.3111" x2="21.017" y2="25.7584" gradientUnits="userSpaceOnUse">
<stop stop-color="#F9A03C"/>
<stop offset="1" stop-color="#F7974E"/>
</linearGradient>
<linearGradient id="paint3_linear" x1="11.0425" y1="8.15027" x2="22.9491" y2="24.7648" gradientUnits="userSpaceOnUse">
<stop stop-color="#F26D58"/>
<stop offset="1" stop-color="#F9A03C"/>
</linearGradient>
<linearGradient id="paint4_linear" x1="17.4836" y1="8.93424" x2="29.8407" y2="16.3998" gradientUnits="userSpaceOnUse">
<stop stop-color="#B84E51"/>
<stop offset="1" stop-color="#F68E48"/>
</linearGradient>
<linearGradient id="paint5_linear" x1="14.8407" y1="20.5156" x2="15.008" y2="28.593" gradientUnits="userSpaceOnUse">
<stop stop-color="#F9A03C"/>
<stop offset="1" stop-color="#F7974E"/>
</linearGradient>
<clipPath id="clip0">
<rect width="18" height="17.0796" fill="white" transform="translate(9 8.46021)"/>
</clipPath>
</defs>
</svg>
