<svg width="19" height="18" viewBox="0 0 19 18" fill="none" xmlns="http://www.w3.org/2000/svg">
<path d="M9.99548 1.875C8.10582 1.875 6.29354 2.62567 4.95735 3.96186C3.62115 5.29806 2.87048 7.11033 2.87048 9C2.87048 10.8897 3.62115 12.7019 4.95735 14.0381C6.29354 15.3743 8.10582 16.125 9.99548 16.125C11.8851 16.125 13.6974 15.3743 15.0336 14.0381C16.3698 12.7019 17.1205 10.8897 17.1205 9C17.1205 7.11033 16.3698 5.29806 15.0336 3.96186C13.6974 2.62567 11.8851 1.875 9.99548 1.875Z" fill="#37474F"/>
<path d="M10.3945 9.43762L11.2978 11.8117C11.5026 12.0896 11.746 12.3326 12.0362 12.4972C12.9433 13.0121 14.0987 12.7151 14.6166 11.8339C14.6162 11.8339 10.498 9.51675 10.3945 9.43762Z" fill="#FF7043"/>
<path d="M10.3945 9.43763C10.5156 9.486 14.6166 11.8335 14.6166 11.8335C15.1341 10.9519 14.8183 9.82013 13.9108 9.30525C13.6206 9.14063 13.285 9.05513 12.9377 9.0195L10.3945 9.43763Z" fill="#F16461"/>
<path d="M13.555 9.95438C13.4458 9.89251 13.3281 9.83963 13.2066 9.79126C13.2456 10.1636 13.1747 10.5503 12.9696 10.8994C12.7645 11.2485 12.4596 11.502 12.112 11.655C12.2155 11.7341 12.3208 11.808 12.43 11.8699C13.5666 12.5149 14.3053 12.3626 14.6162 11.8339C14.9271 11.3048 14.6916 10.5994 13.555 9.95438Z" fill="#FF5252"/>
<path d="M11.3695 10.9252C11.5904 11.1915 11.8405 11.4472 12.1124 11.6546C12.46 11.5016 12.7652 11.2481 12.97 10.899C13.1751 10.5499 13.246 10.1632 13.207 9.79087C12.8882 9.66337 12.5376 9.57825 12.193 9.5235C12.2095 9.80137 12.148 10.0871 11.9961 10.3462C11.8435 10.6054 11.6226 10.8007 11.3695 10.9252Z" fill="#FF855F"/>
<path d="M12.1124 11.655C11.8405 11.4476 11.5904 11.1915 11.3695 10.9256C11.2116 11.0033 11.041 11.0501 10.8659 11.0696C10.9848 11.3258 11.1276 11.5808 11.2983 11.8121C11.5791 11.8185 11.857 11.7671 12.1124 11.655Z" fill="#FF8A65"/>
<path d="M12.1926 9.52388C12.5376 9.579 12.8882 9.66375 13.2066 9.79125C13.1781 9.5175 13.0843 9.25575 12.9377 9.0195C12.6486 8.98988 12.3527 8.99625 12.0677 9.02288C12.1378 9.18188 12.1825 9.35063 12.1926 9.52388Z" fill="#FF8A80"/>
<path d="M11.9957 10.3463C12.148 10.0871 12.2095 9.80175 12.1926 9.5235C11.2656 9.37575 10.3945 9.43763 10.3945 9.43763C10.3945 9.43763 10.7755 10.2101 11.3695 10.9253C11.6226 10.8008 11.8435 10.6054 11.9957 10.3463Z" fill="#FFCCBC"/>
<path d="M11.3695 10.9252C10.7755 10.2101 10.3945 9.43762 10.3945 9.43762C10.3727 9.47437 10.3648 9.519 10.3742 9.56437C10.4316 9.84262 10.5805 10.4565 10.8655 11.0696C11.0406 11.0497 11.2116 11.0032 11.3695 10.9252Z" fill="#FFAB91"/>
<path d="M12.0677 9.02289C11.3849 9.08664 10.7699 9.26701 10.4961 9.35739C10.4515 9.37201 10.4162 9.40126 10.3949 9.43801C10.3949 9.43801 11.266 9.37614 12.193 9.52389C12.1825 9.35064 12.1379 9.18189 12.0677 9.02289Z" fill="#FFCDD2"/>
<path d="M9.59123 9.43762C9.48773 9.51675 5.36948 11.8335 5.36948 11.8335C5.88735 12.7147 7.04235 13.0117 7.94985 12.4969C8.2401 12.3322 8.48348 12.0892 8.68823 11.8114L9.59123 9.43762Z" fill="#C6CF47"/>
<path d="M9.59122 9.43763L7.04797 9.0195C6.70072 9.05475 6.36472 9.14063 6.07485 9.30525C5.16772 9.82013 4.8516 10.9519 5.3691 11.8335C5.36947 11.8335 9.4701 9.48638 9.59122 9.43763Z" fill="#E1EB8A"/>
<path d="M7.55571 11.8699C7.66484 11.808 7.77021 11.7338 7.87371 11.655C7.52609 11.502 7.22084 11.2485 7.01609 10.8994C6.81096 10.5503 6.74009 10.1636 6.77909 9.79126C6.65796 9.83963 6.53984 9.89251 6.43071 9.95438C5.29409 10.5994 5.05896 11.3044 5.36946 11.8335C5.68034 12.3626 6.41909 12.5149 7.55571 11.8699Z" fill="#DCE775"/>
<path d="M7.79311 9.5239C7.44811 9.57902 7.09748 9.66377 6.77911 9.79127C6.74011 10.1636 6.81098 10.5503 7.01611 10.8994C7.22123 11.2485 7.52611 11.502 7.87373 11.655C8.14561 11.4476 8.39573 11.1915 8.61661 10.9256C8.36348 10.8008 8.14261 10.6058 7.99036 10.3466C7.83811 10.0871 7.77661 9.80177 7.79311 9.5239Z" fill="#FFF59D"/>
<path d="M6.77908 9.79126C7.09783 9.66376 7.44846 9.57863 7.79308 9.52388C7.80358 9.35063 7.84783 9.18188 7.91796 9.02288C7.63296 8.99625 7.33671 8.99025 7.04796 9.0195C6.90133 9.25575 6.80758 9.51788 6.77908 9.79126Z" fill="#E6EE9C"/>
<path d="M8.61659 10.9253C8.39572 11.1915 8.14559 11.4473 7.87372 11.6546C8.12909 11.7671 8.40697 11.8185 8.68822 11.8118C8.85884 11.5804 9.00134 11.3254 9.12059 11.0693C8.94509 11.0498 8.77447 11.0033 8.61659 10.9253Z" fill="#FFD740"/>
<path d="M7.99036 10.3463C8.14261 10.6054 8.36348 10.8004 8.61661 10.9253C9.21061 10.2101 9.59161 9.43763 9.59161 9.43763C9.59161 9.43763 8.72048 9.37575 7.79348 9.5235C7.77661 9.80175 7.83811 10.0871 7.99036 10.3463Z" fill="#FFF9C4"/>
<path d="M7.79312 9.52389C8.72012 9.37614 9.59125 9.43801 9.59125 9.43801C9.5695 9.40126 9.53462 9.37201 9.49 9.35739C9.21587 9.26701 8.60087 9.08701 7.91837 9.02289C7.84787 9.18189 7.80362 9.35064 7.79312 9.52389Z" fill="#F0F4C3"/>
<path d="M9.12024 11.0693C9.40524 10.4561 9.55412 9.84263 9.61149 9.56401C9.62087 9.51863 9.61299 9.47401 9.59124 9.43726C9.59124 9.43726 9.21024 10.2098 8.61624 10.9249C8.77449 11.0033 8.94512 11.0498 9.12024 11.0693Z" fill="#FFE082"/>
<path d="M16.5092 10.7453C16.3551 11.3216 16.1286 11.8676 15.8365 12.3724L16.4856 12.747C16.8104 12.186 17.0616 11.58 17.233 10.9391L16.5092 10.7453Z" fill="#F44336"/>
<path d="M5.22248 13.773L4.69223 14.3033C5.15386 14.7649 5.67961 15.1609 6.24848 15.4901L6.62311 14.841C6.11123 14.5448 5.63798 14.1885 5.22248 13.773Z" fill="#FFD740"/>
<path d="M3.24548 9H2.49548C2.49548 9.672 2.59223 10.3196 2.75798 10.9395L3.48173 10.7456C3.33248 10.1876 3.24548 9.6045 3.24548 9Z" fill="#AED581"/>
<path d="M4.1545 12.3724L3.50537 12.747C3.83462 13.3159 4.23062 13.8413 4.69225 14.3033L5.2225 13.773C4.807 13.3575 4.45075 12.8843 4.1545 12.3724Z" fill="#FFF176"/>
<path d="M3.48172 10.7453L2.75797 10.9395C2.92934 11.58 3.18097 12.1864 3.50534 12.7474L4.15447 12.3728C3.86234 11.8676 3.63584 11.322 3.48172 10.7453Z" fill="#DCE775"/>
<path d="M6.6231 14.841L6.24847 15.4901C6.80947 15.8145 7.41547 16.0661 8.05635 16.2375L8.25022 15.5138C7.67347 15.3596 7.12785 15.1331 6.6231 14.841Z" fill="#FFCA28"/>
<path d="M13.3679 14.841L13.7425 15.4901C14.3114 15.1609 14.8371 14.7649 15.2987 14.3033L14.7685 13.773C14.353 14.1885 13.8797 14.5448 13.3679 14.841Z" fill="#FF7043"/>
<path d="M11.7408 15.5138L11.9346 16.2375C12.5751 16.0661 13.1815 15.8145 13.7425 15.4901L13.3679 14.841C12.8631 15.1331 12.3175 15.3596 11.7408 15.5138Z" fill="#FB8C00"/>
<path d="M14.7685 13.773L15.2987 14.3033C15.7604 13.8416 16.1564 13.3159 16.4856 12.747L15.8365 12.3724C15.5402 12.8843 15.184 13.3575 14.7685 13.773Z" fill="#FF5252"/>
<path d="M8.25024 15.5138L8.05637 16.2375C8.67587 16.4033 9.32349 16.5 9.99549 16.5V15.75C9.39099 15.75 8.80787 15.663 8.25024 15.5138Z" fill="#FFB74D"/>
<path d="M9.99548 15.75V16.5C10.6675 16.5 11.3151 16.4033 11.935 16.2375L11.7411 15.5138C11.1831 15.663 10.6 15.75 9.99548 15.75Z" fill="#FFA726"/>
<path d="M8.25023 2.48626L8.05598 1.76251C7.41548 1.93389 6.80911 2.18551 6.24811 2.50989L6.62273 3.15901C7.12786 2.86689 7.67348 2.64039 8.25023 2.48626Z" fill="#64B5F6"/>
<path d="M16.5092 7.25474L17.233 7.06087C17.0616 6.42037 16.81 5.81399 16.4856 5.25299L15.8365 5.62762C16.1286 6.13237 16.3551 6.67799 16.5092 7.25474Z" fill="#9575CD"/>
<path d="M15.8365 5.62762L16.4856 5.253C16.1564 4.68412 15.7604 4.15837 15.2987 3.69675L14.7685 4.227C15.184 4.6425 15.5402 5.11575 15.8365 5.62762Z" fill="#7986CB"/>
<path d="M14.7685 4.22701L15.2987 3.69676C14.8371 3.23514 14.3114 2.83914 13.7425 2.50989L13.3679 3.15901C13.8797 3.45526 14.353 3.81151 14.7685 4.22701Z" fill="#8C9EFF"/>
<path d="M13.3679 3.15901L13.7425 2.50989C13.1819 2.18514 12.5755 1.93351 11.935 1.76251L11.7411 2.48626C12.3175 2.64039 12.8631 2.86689 13.3679 3.15901Z" fill="#82B1FF"/>
<path d="M16.7455 8.99999H17.4955C17.4955 8.32799 17.3987 7.68036 17.233 7.06049L16.5092 7.25436C16.6585 7.81236 16.7455 8.39549 16.7455 8.99999Z" fill="#F06292"/>
<path d="M3.48173 7.25474L2.75798 7.06049C2.59223 7.68036 2.49548 8.32799 2.49548 8.99999H3.24548C3.24548 8.39549 3.33248 7.81236 3.48173 7.25474Z" fill="#9CCC65"/>
<path d="M16.5092 10.7453L17.233 10.9391C17.3987 10.3196 17.4955 9.672 17.4955 9H16.7455C16.7455 9.6045 16.6585 10.1876 16.5092 10.7453Z" fill="#EF5350"/>
<path d="M11.7407 2.48625L11.9346 1.7625C11.3151 1.59675 10.6675 1.5 9.99548 1.5V2.25C10.6 2.25 11.1831 2.337 11.7407 2.48625Z" fill="#64B5F6"/>
<path d="M5.2225 4.227L4.69225 3.69675C4.23062 4.15837 3.83462 4.68412 3.50537 5.253L4.1545 5.62762C4.45075 5.11575 4.807 4.6425 5.2225 4.227Z" fill="#68C1B8"/>
<path d="M4.15447 5.62762L3.50534 5.25299C3.18059 5.81362 2.92897 6.41999 2.75797 7.06049L3.48172 7.25437C3.63584 6.67799 3.86234 6.13237 4.15447 5.62762Z" fill="#81C784"/>
<path d="M6.62311 3.15901L6.24848 2.50989C5.67961 2.83914 5.15386 3.23514 4.69223 3.69676L5.22248 4.22701C5.63798 3.81151 6.11123 3.45526 6.62311 3.15901Z" fill="#4DB6AC"/>
<path d="M9.99547 2.25V1.5C9.32347 1.5 8.67584 1.59675 8.05597 1.7625L8.24984 2.48625C8.80784 2.337 9.39097 2.25 9.99547 2.25Z" fill="#4BA9F5"/>
<path d="M9.99586 4.125L9.99548 9C10.0386 9 10.0817 8.98425 10.117 8.95312C10.5329 8.586 11.8705 7.30387 11.8705 6.02212C11.8705 4.97437 11.0312 4.12537 9.99586 4.125Z" fill="#7986CB"/>
<path d="M9.99548 4.125C9.99511 4.125 9.99511 4.125 9.99548 4.125C8.96011 4.125 8.12048 4.97437 8.12048 6.02212C8.12048 7.30387 9.45811 8.586 9.87398 8.95312C9.90923 8.98425 9.95236 9 9.99548 9V4.125Z" fill="#26A69A"/>
<path d="M9.99548 4.125C9.37373 4.125 8.87048 4.6875 8.87048 6C8.87048 7.34625 9.99548 9 9.99548 9C9.99548 9 11.1205 7.34625 11.1205 6C11.1205 4.6875 10.6169 4.125 9.99548 4.125Z" fill="#82B1FF"/>
<path d="M9.99548 4.125C10.1991 4.125 10.3484 4.1595 10.3694 4.16437C11.0166 4.31175 11.4955 4.827 11.4955 5.4375C11.4955 5.77875 11.3417 6.09 11.098 6.3225C11.1017 6.29625 10.1009 4.13625 9.99548 4.125Z" fill="#4DB6AC"/>
<path d="M10.678 7.7475C10.363 8.46 9.99549 9 9.99549 9C9.99549 9 9.62799 8.46 9.31299 7.7475C9.52674 7.83 9.75549 7.875 9.99549 7.875C10.2355 7.875 10.4642 7.83 10.678 7.7475Z" fill="#90CAF9"/>
<path d="M8.89298 6.3225C8.64548 6.09375 8.49548 5.77875 8.49548 5.4375C8.49548 4.80375 9.00923 4.275 9.69173 4.15125C9.75173 4.14 9.93211 4.125 9.99548 4.125C9.42923 4.1925 8.87798 6.21375 8.89298 6.3225Z" fill="#8DD0CA"/>
<path d="M11.1205 6C11.1205 6.0525 11.1205 6.10875 11.113 6.16125C11.113 6.21375 11.1055 6.27 11.098 6.3225C10.8242 6.585 10.4305 6.75 9.99548 6.75C9.56048 6.75 9.16673 6.585 8.89298 6.3225C8.87798 6.21375 8.87048 6.105 8.87048 6C8.87048 4.77 9.31298 4.2 9.87923 4.1325C9.91673 4.125 9.95798 4.125 9.99548 4.125C10.033 4.125 10.0742 4.125 10.1117 4.1325C10.2167 4.14375 10.3217 4.17375 10.4155 4.22625C10.4455 4.24125 10.4755 4.26 10.5055 4.27875C10.5355 4.2975 10.5655 4.32 10.5955 4.35C10.6217 4.3725 10.648 4.395 10.6705 4.42125C10.7567 4.51125 10.8355 4.62375 10.8955 4.7625C10.9142 4.80375 10.933 4.845 10.948 4.88625C10.9667 4.93125 10.9817 4.97625 10.9967 5.025C11.0117 5.06625 11.023 5.11125 11.0305 5.15625C11.0455 5.21625 11.0605 5.27625 11.068 5.34C11.083 5.41125 11.0942 5.49 11.1017 5.56875C11.113 5.7 11.1205 5.84625 11.1205 6Z" fill="#80CBC4"/>
<path d="M11.863 6.16876C11.7692 7.40251 10.5167 8.60251 10.1155 8.95501C10.0817 8.98501 10.0405 9.00001 9.99548 9.00001C9.99548 9.00001 10.363 8.46001 10.678 7.74751C11.323 7.49251 11.7955 6.88876 11.863 6.16876Z" fill="#9FA8DA"/>
<path d="M9.99506 9.00001C9.95006 9.00001 9.90881 8.98501 9.87506 8.95501C9.47381 8.60251 8.22131 7.40251 8.12756 6.16876C8.19506 6.88876 8.66756 7.49251 9.31256 7.74751C9.62756 8.46001 9.99506 9.00001 9.99506 9.00001Z" fill="#81C784"/>
</svg>
