<svg width="124" height="28" viewBox="0 0 124 28" fill="none" xmlns="http://www.w3.org/2000/svg">
<g filter="url(#filter0_d)">
<path d="M2.5 5C2.5 2.23858 4.73858 0 7.5 0H116.5C119.261 0 121.5 2.23858 121.5 5V19C121.5 21.7614 119.261 24 116.5 24H7.5C4.73858 24 2.5 21.7614 2.5 19V5Z" fill="white"/>
<path d="M16.5 4.875C14.6103 4.875 12.7981 5.62567 11.4619 6.96186C10.1257 8.29806 9.375 10.1103 9.375 12C9.375 13.8897 10.1257 15.7019 11.4619 17.0381C12.7981 18.3743 14.6103 19.125 16.5 19.125C18.3897 19.125 20.2019 18.3743 21.5381 17.0381C22.8743 15.7019 23.625 13.8897 23.625 12C23.625 10.1103 22.8743 8.29806 21.5381 6.96186C20.2019 5.62567 18.3897 4.875 16.5 4.875V4.875Z" fill="#37474F"/>
<path d="M16.899 12.4376L17.8024 14.8118C18.0071 15.0896 18.2505 15.3326 18.5408 15.4973C19.4479 16.0121 20.6033 15.7151 21.1211 14.8339C21.1208 14.8339 17.0025 12.5168 16.899 12.4376Z" fill="#FF7043"/>
<path d="M16.899 12.4376C17.0201 12.486 21.1211 14.8335 21.1211 14.8335C21.6386 13.9519 21.3229 12.8201 20.4154 12.3052C20.1251 12.1406 19.7895 12.0551 19.4423 12.0195L16.899 12.4376Z" fill="#F16461"/>
<path d="M20.0595 12.9544C19.9504 12.8925 19.8326 12.8396 19.7111 12.7913C19.7501 13.1636 19.6792 13.5503 19.4741 13.8994C19.269 14.2485 18.9641 14.502 18.6165 14.655C18.72 14.7341 18.8254 14.808 18.9345 14.8699C20.0711 15.5149 20.8099 15.3626 21.1207 14.8339C21.4316 14.3048 21.1961 13.5994 20.0595 12.9544Z" fill="#FF5252"/>
<path d="M17.874 13.9253C18.0949 14.1915 18.345 14.4473 18.6169 14.6546C18.9645 14.5016 19.2697 14.2481 19.4745 13.899C19.6796 13.5499 19.7505 13.1633 19.7115 12.7909C19.3927 12.6634 19.0421 12.5783 18.6975 12.5235C18.714 12.8014 18.6525 13.0871 18.5006 13.3463C18.348 13.6054 18.1271 13.8008 17.874 13.9253Z" fill="#FF855F"/>
<path d="M18.6169 14.655C18.345 14.4476 18.0949 14.1915 17.874 13.9256C17.7161 14.0033 17.5455 14.0501 17.3704 14.0696C17.4893 14.3258 17.6321 14.5808 17.8028 14.8121C18.0836 14.8185 18.3615 14.7671 18.6169 14.655Z" fill="#FF8A65"/>
<path d="M18.6971 12.5239C19.0421 12.579 19.3927 12.6638 19.7111 12.7913C19.6826 12.5175 19.5889 12.2558 19.4422 12.0195C19.1531 11.9899 18.8572 11.9963 18.5722 12.0229C18.6424 12.1819 18.687 12.3506 18.6971 12.5239Z" fill="#FF8A80"/>
<path d="M18.5003 13.3463C18.6525 13.0871 18.714 12.8018 18.6971 12.5235C17.7701 12.3758 16.899 12.4376 16.899 12.4376C16.899 12.4376 17.28 13.2101 17.874 13.9253C18.1271 13.8008 18.348 13.6054 18.5003 13.3463Z" fill="#FFCCBC"/>
<path d="M17.874 13.9253C17.28 13.2101 16.899 12.4376 16.899 12.4376C16.8772 12.4744 16.8694 12.519 16.8787 12.5644C16.9361 12.8426 17.085 13.4565 17.37 14.0696C17.5451 14.0498 17.7161 14.0033 17.874 13.9253Z" fill="#FFAB91"/>
<path d="M18.5723 12.0229C17.8894 12.0866 17.2744 12.267 17.0006 12.3574C16.956 12.372 16.9207 12.4012 16.8994 12.438C16.8994 12.438 17.7705 12.3761 18.6975 12.5239C18.687 12.3506 18.6424 12.1819 18.5723 12.0229Z" fill="#FFCDD2"/>
<path d="M16.0957 12.4376C15.9922 12.5168 11.874 14.8335 11.874 14.8335C12.3919 15.7148 13.5469 16.0118 14.4544 15.4969C14.7446 15.3323 14.988 15.0893 15.1927 14.8114L16.0957 12.4376Z" fill="#C6CF47"/>
<path d="M16.0958 12.4376L13.5525 12.0195C13.2053 12.0548 12.8693 12.1406 12.5794 12.3053C11.6723 12.8201 11.3561 13.9519 11.8736 14.8335C11.874 14.8335 15.9746 12.4864 16.0958 12.4376Z" fill="#E1EB8A"/>
<path d="M14.0602 14.8699C14.1694 14.808 14.2747 14.7338 14.3782 14.655C14.0306 14.502 13.7254 14.2485 13.5206 13.8994C13.3155 13.5503 13.2446 13.1636 13.2836 12.7913C13.1625 12.8396 13.0444 12.8925 12.9352 12.9544C11.7986 13.5994 11.5635 14.3044 11.874 14.8335C12.1849 15.3626 12.9236 15.5149 14.0602 14.8699Z" fill="#DCE775"/>
<path d="M14.2976 12.5239C13.9526 12.579 13.602 12.6638 13.2836 12.7913C13.2446 13.1636 13.3155 13.5503 13.5206 13.8994C13.7258 14.2485 14.0306 14.502 14.3783 14.655C14.6501 14.4476 14.9003 14.1915 15.1211 13.9256C14.868 13.8008 14.6471 13.6058 14.4949 13.3466C14.3426 13.0871 14.2811 12.8018 14.2976 12.5239Z" fill="#FFF59D"/>
<path d="M13.2836 12.7913C13.6024 12.6638 13.953 12.5786 14.2976 12.5239C14.3081 12.3506 14.3524 12.1819 14.4225 12.0229C14.1375 11.9963 13.8412 11.9903 13.5525 12.0195C13.4059 12.2558 13.3121 12.5179 13.2836 12.7913Z" fill="#E6EE9C"/>
<path d="M15.1211 13.9253C14.9003 14.1915 14.6501 14.4472 14.3783 14.6546C14.6336 14.7671 14.9115 14.8185 15.1928 14.8117C15.3634 14.5804 15.5059 14.3254 15.6251 14.0693C15.4496 14.0498 15.279 14.0033 15.1211 13.9253Z" fill="#FFD740"/>
<path d="M14.4949 13.3463C14.6471 13.6054 14.868 13.8004 15.1211 13.9253C15.7151 13.2101 16.0961 12.4376 16.0961 12.4376C16.0961 12.4376 15.225 12.3758 14.298 12.5235C14.2811 12.8018 14.3426 13.0871 14.4949 13.3463Z" fill="#FFF9C4"/>
<path d="M14.2976 12.5239C15.2246 12.3761 16.0958 12.438 16.0958 12.438C16.074 12.4013 16.0391 12.372 15.9945 12.3574C15.7204 12.267 15.1054 12.087 14.4229 12.0229C14.3524 12.1819 14.3081 12.3506 14.2976 12.5239Z" fill="#F0F4C3"/>
<path d="M15.6248 14.0693C15.9098 13.4561 16.0586 12.8426 16.116 12.564C16.1254 12.5186 16.1175 12.474 16.0958 12.4373C16.0958 12.4373 15.7148 13.2098 15.1208 13.9249C15.279 14.0033 15.4496 14.0498 15.6248 14.0693Z" fill="#FFE082"/>
<path d="M23.0138 13.7453C22.8596 14.3216 22.6331 14.8676 22.341 15.3724L22.9901 15.747C23.3149 15.186 23.5661 14.58 23.7375 13.9391L23.0138 13.7453Z" fill="#F44336"/>
<path d="M11.727 16.773L11.1967 17.3033C11.6584 17.7649 12.1841 18.1609 12.753 18.4901L13.1276 17.841C12.6157 17.5448 12.1425 17.1885 11.727 16.773Z" fill="#FFD740"/>
<path d="M9.75 12H9C9 12.672 9.09675 13.3196 9.2625 13.9395L9.98625 13.7456C9.837 13.1876 9.75 12.6045 9.75 12Z" fill="#AED581"/>
<path d="M10.659 15.3724L10.0099 15.747C10.3391 16.3159 10.7351 16.8413 11.1968 17.3033L11.727 16.773C11.3115 16.3575 10.9553 15.8843 10.659 15.3724Z" fill="#FFF176"/>
<path d="M9.98624 13.7453L9.26249 13.9395C9.43387 14.58 9.68549 15.1864 10.0099 15.7474L10.659 15.3728C10.3669 14.8676 10.1404 14.322 9.98624 13.7453Z" fill="#DCE775"/>
<path d="M13.1276 17.841L12.753 18.4901C13.314 18.8145 13.92 19.0661 14.5609 19.2375L14.7548 18.5137C14.178 18.3596 13.6324 18.1331 13.1276 17.841Z" fill="#FFCA28"/>
<path d="M19.8724 17.841L20.247 18.4901C20.8159 18.1609 21.3416 17.7649 21.8032 17.3033L21.273 16.773C20.8575 17.1885 20.3842 17.5448 19.8724 17.841Z" fill="#FF7043"/>
<path d="M18.2453 18.5137L18.4391 19.2375C19.0796 19.0661 19.686 18.8145 20.247 18.4901L19.8724 17.841C19.3676 18.1331 18.822 18.3596 18.2453 18.5137Z" fill="#FB8C00"/>
<path d="M21.273 16.773L21.8033 17.3033C22.2649 16.8416 22.6609 16.3159 22.9901 15.747L22.341 15.3724C22.0448 15.8843 21.6885 16.3575 21.273 16.773Z" fill="#FF5252"/>
<path d="M14.7547 18.5138L14.5609 19.2375C15.1804 19.4033 15.828 19.5 16.5 19.5V18.75C15.8955 18.75 15.3124 18.663 14.7547 18.5138Z" fill="#FFB74D"/>
<path d="M16.5 18.75V19.5C17.172 19.5 17.8196 19.4033 18.4395 19.2375L18.2456 18.5138C17.6876 18.663 17.1045 18.75 16.5 18.75Z" fill="#FFA726"/>
<path d="M14.7548 5.48625L14.5605 4.7625C13.92 4.93388 13.3136 5.1855 12.7526 5.50988L13.1273 6.159C13.6324 5.86688 14.178 5.64038 14.7548 5.48625Z" fill="#64B5F6"/>
<path d="M23.0138 10.2548L23.7375 10.0609C23.5661 9.42038 23.3145 8.814 22.9901 8.253L22.341 8.62763C22.6331 9.13238 22.8596 9.678 23.0138 10.2548Z" fill="#9575CD"/>
<path d="M22.341 8.62762L22.9901 8.253C22.6609 7.68412 22.2649 7.15837 21.8033 6.69675L21.273 7.227C21.6885 7.6425 22.0448 8.11575 22.341 8.62762Z" fill="#7986CB"/>
<path d="M21.273 7.22701L21.8032 6.69676C21.3416 6.23513 20.8159 5.83913 20.247 5.50988L19.8724 6.15901C20.3842 6.45526 20.8575 6.81151 21.273 7.22701Z" fill="#8C9EFF"/>
<path d="M19.8724 6.159L20.247 5.50988C19.6864 5.18513 19.08 4.9335 18.4395 4.7625L18.2456 5.48625C18.822 5.64038 19.3676 5.86688 19.8724 6.159Z" fill="#82B1FF"/>
<path d="M23.25 12H24C24 11.328 23.9033 10.6804 23.7375 10.0605L23.0138 10.2544C23.163 10.8124 23.25 11.3955 23.25 12Z" fill="#F06292"/>
<path d="M9.98625 10.2547L9.2625 10.0605C9.09675 10.6804 9 11.328 9 12H9.75C9.75 11.3955 9.837 10.8124 9.98625 10.2547Z" fill="#9CCC65"/>
<path d="M23.0138 13.7453L23.7375 13.9391C23.9033 13.3196 24 12.672 24 12H23.25C23.25 12.6045 23.163 13.1876 23.0138 13.7453Z" fill="#EF5350"/>
<path d="M18.2453 5.48625L18.4391 4.7625C17.8196 4.59675 17.172 4.5 16.5 4.5V5.25C17.1045 5.25 17.6876 5.337 18.2453 5.48625Z" fill="#64B5F6"/>
<path d="M11.727 7.227L11.1968 6.69675C10.7351 7.15837 10.3391 7.68412 10.0099 8.253L10.659 8.62762C10.9553 8.11575 11.3115 7.6425 11.727 7.227Z" fill="#68C1B8"/>
<path d="M10.659 8.62763L10.0099 8.253C9.68512 8.81363 9.43349 9.42 9.26249 10.0605L9.98624 10.2544C10.1404 9.678 10.3669 9.13238 10.659 8.62763Z" fill="#81C784"/>
<path d="M13.1276 6.15901L12.753 5.50988C12.1841 5.83913 11.6584 6.23513 11.1967 6.69676L11.727 7.22701C12.1425 6.81151 12.6157 6.45526 13.1276 6.15901Z" fill="#4DB6AC"/>
<path d="M16.5 5.25V4.5C15.828 4.5 15.1804 4.59675 14.5605 4.7625L14.7544 5.48625C15.3124 5.337 15.8955 5.25 16.5 5.25Z" fill="#4BA9F5"/>
<path d="M16.5004 7.125L16.5 12C16.5431 12 16.5862 11.9842 16.6215 11.9531C17.0374 11.586 18.375 10.3039 18.375 9.02212C18.375 7.97437 17.5357 7.12537 16.5004 7.125Z" fill="#7986CB"/>
<path d="M16.5 7.125C16.4996 7.125 16.4996 7.125 16.5 7.125C15.4646 7.125 14.625 7.97437 14.625 9.02212C14.625 10.3039 15.9626 11.586 16.3785 11.9531C16.4137 11.9842 16.4569 12 16.5 12V7.125Z" fill="#26A69A"/>
<path d="M16.5 7.125C15.8783 7.125 15.375 7.6875 15.375 9C15.375 10.3462 16.5 12 16.5 12C16.5 12 17.625 10.3462 17.625 9C17.625 7.6875 17.1214 7.125 16.5 7.125Z" fill="#82B1FF"/>
<path d="M16.5 7.125C16.7036 7.125 16.8529 7.1595 16.8739 7.16437C17.5211 7.31175 18 7.827 18 8.4375C18 8.77875 17.8463 9.09 17.6025 9.3225C17.6063 9.29625 16.6054 7.13625 16.5 7.125Z" fill="#4DB6AC"/>
<path d="M17.1825 10.7475C16.8675 11.46 16.5 12 16.5 12C16.5 12 16.1325 11.46 15.8175 10.7475C16.0313 10.83 16.26 10.875 16.5 10.875C16.74 10.875 16.9688 10.83 17.1825 10.7475Z" fill="#90CAF9"/>
<path d="M15.3975 9.3225C15.15 9.09375 15 8.77875 15 8.4375C15 7.80375 15.5137 7.275 16.1962 7.15125C16.2562 7.14 16.4366 7.125 16.5 7.125C15.9337 7.1925 15.3825 9.21375 15.3975 9.3225Z" fill="#8DD0CA"/>
<path d="M17.625 9C17.625 9.0525 17.625 9.10875 17.6175 9.16125C17.6175 9.21375 17.61 9.27 17.6025 9.3225C17.3288 9.585 16.935 9.75 16.5 9.75C16.065 9.75 15.6712 9.585 15.3975 9.3225C15.3825 9.21375 15.375 9.105 15.375 9C15.375 7.77 15.8175 7.2 16.3838 7.1325C16.4213 7.125 16.4625 7.125 16.5 7.125C16.5375 7.125 16.5787 7.125 16.6162 7.1325C16.7212 7.14375 16.8263 7.17375 16.92 7.22625C16.95 7.24125 16.98 7.26 17.01 7.27875C17.04 7.2975 17.07 7.32 17.1 7.35C17.1263 7.3725 17.1525 7.395 17.175 7.42125C17.2612 7.51125 17.34 7.62375 17.4 7.7625C17.4187 7.80375 17.4375 7.845 17.4525 7.88625C17.4713 7.93125 17.4863 7.97625 17.5013 8.025C17.5163 8.06625 17.5275 8.11125 17.535 8.15625C17.55 8.21625 17.565 8.27625 17.5725 8.34C17.5875 8.41125 17.5988 8.49 17.6063 8.56875C17.6175 8.7 17.625 8.84625 17.625 9Z" fill="#80CBC4"/>
<path d="M18.3675 9.16875C18.2738 10.4025 17.0213 11.6025 16.62 11.955C16.5862 11.985 16.545 12 16.5 12C16.5 12 16.8675 11.46 17.1825 10.7475C17.8275 10.4925 18.3 9.88875 18.3675 9.16875Z" fill="#9FA8DA"/>
<path d="M16.4996 12C16.4546 12 16.4133 11.985 16.3796 11.955C15.9783 11.6025 14.7258 10.4025 14.6321 9.16875C14.6996 9.88875 15.1721 10.4925 15.8171 10.7475C16.1321 11.46 16.4996 12 16.4996 12Z" fill="#81C784"/>
<path d="M31.4902 16V7.46875H33.8984C34.6406 7.46875 35.2969 7.63281 35.8672 7.96094C36.4375 8.28906 36.877 8.75586 37.1855 9.36133C37.498 9.9668 37.6562 10.6621 37.6602 11.4473V11.9922C37.6602 12.7969 37.5039 13.502 37.1914 14.1074C36.8828 14.7129 36.4395 15.1777 35.8613 15.502C35.2871 15.8262 34.6172 15.9922 33.8516 16H31.4902ZM32.6152 8.39453V15.0801H33.7988C34.666 15.0801 35.3398 14.8105 35.8203 14.2715C36.3047 13.7324 36.5469 12.9648 36.5469 11.9688V11.4707C36.5469 10.502 36.3184 9.75 35.8613 9.21484C35.4082 8.67578 34.7637 8.40234 33.9277 8.39453H32.6152ZM43.1094 16C43.0469 15.875 42.9961 15.6523 42.957 15.332C42.4531 15.8555 41.8516 16.1172 41.1523 16.1172C40.5273 16.1172 40.0137 15.9414 39.6113 15.5898C39.2129 15.2344 39.0137 14.7852 39.0137 14.2422C39.0137 13.582 39.2637 13.0703 39.7637 12.707C40.2676 12.3398 40.9746 12.1562 41.8848 12.1562H42.9395V11.6582C42.9395 11.2793 42.8262 10.9785 42.5996 10.7559C42.373 10.5293 42.0391 10.416 41.5977 10.416C41.2109 10.416 40.8867 10.5137 40.625 10.709C40.3633 10.9043 40.2324 11.1406 40.2324 11.418H39.1426C39.1426 11.1016 39.2539 10.7969 39.4766 10.5039C39.7031 10.207 40.0078 9.97266 40.3906 9.80078C40.7773 9.62891 41.2012 9.54297 41.6621 9.54297C42.3926 9.54297 42.9648 9.72656 43.3789 10.0938C43.793 10.457 44.0078 10.959 44.0234 11.5996V14.5176C44.0234 15.0996 44.0977 15.5625 44.2461 15.9062V16H43.1094ZM41.3105 15.1738C41.6504 15.1738 41.9727 15.0859 42.2773 14.9102C42.582 14.7344 42.8027 14.5059 42.9395 14.2246V12.9238H42.0898C40.7617 12.9238 40.0977 13.3125 40.0977 14.0898C40.0977 14.4297 40.2109 14.6953 40.4375 14.8867C40.6641 15.0781 40.9551 15.1738 41.3105 15.1738ZM48.7168 14.5059L51.1543 7.46875H52.3848L49.2207 16H48.2246L45.0664 7.46875H46.291L48.7168 14.5059ZM54.541 16H53.457V9.66016H54.541V16ZM53.3691 7.97852C53.3691 7.80273 53.4219 7.6543 53.5273 7.5332C53.6367 7.41211 53.7969 7.35156 54.0078 7.35156C54.2188 7.35156 54.3789 7.41211 54.4883 7.5332C54.5977 7.6543 54.6523 7.80273 54.6523 7.97852C54.6523 8.1543 54.5977 8.30078 54.4883 8.41797C54.3789 8.53516 54.2188 8.59375 54.0078 8.59375C53.7969 8.59375 53.6367 8.53516 53.5273 8.41797C53.4219 8.30078 53.3691 8.1543 53.3691 7.97852ZM57.3066 9.66016L57.3418 10.457C57.8262 9.84766 58.459 9.54297 59.2402 9.54297C60.5801 9.54297 61.2559 10.2988 61.2676 11.8105V16H60.1836V11.8047C60.1797 11.3477 60.0742 11.0098 59.8672 10.791C59.6641 10.5723 59.3457 10.4629 58.9121 10.4629C58.5605 10.4629 58.252 10.5566 57.9863 10.7441C57.7207 10.9316 57.5137 11.1777 57.3652 11.4824V16H56.2812V9.66016H57.3066ZM65.4453 15.2324C65.832 15.2324 66.1699 15.1152 66.459 14.8809C66.748 14.6465 66.9082 14.3535 66.9395 14.002H67.9648C67.9453 14.3652 67.8203 14.7109 67.5898 15.0391C67.3594 15.3672 67.0508 15.6289 66.6641 15.8242C66.2812 16.0195 65.875 16.1172 65.4453 16.1172C64.582 16.1172 63.8945 15.8301 63.3828 15.2559C62.875 14.6777 62.6211 13.8887 62.6211 12.8887V12.707C62.6211 12.0898 62.7344 11.541 62.9609 11.0605C63.1875 10.5801 63.5117 10.207 63.9336 9.94141C64.3594 9.67578 64.8613 9.54297 65.4395 9.54297C66.1504 9.54297 66.7402 9.75586 67.209 10.1816C67.6816 10.6074 67.9336 11.1602 67.9648 11.8398H66.9395C66.9082 11.4297 66.752 11.0938 66.4707 10.832C66.1934 10.5664 65.8496 10.4336 65.4395 10.4336C64.8887 10.4336 64.4609 10.6328 64.1562 11.0312C63.8555 11.4258 63.7051 11.998 63.7051 12.748V12.9531C63.7051 13.6836 63.8555 14.2461 64.1562 14.6406C64.457 15.0352 64.8867 15.2324 65.4453 15.2324ZM70.3613 16H69.2773V9.66016H70.3613V16ZM69.1895 7.97852C69.1895 7.80273 69.2422 7.6543 69.3477 7.5332C69.457 7.41211 69.6172 7.35156 69.8281 7.35156C70.0391 7.35156 70.1992 7.41211 70.3086 7.5332C70.418 7.6543 70.4727 7.80273 70.4727 7.97852C70.4727 8.1543 70.418 8.30078 70.3086 8.41797C70.1992 8.53516 70.0391 8.59375 69.8281 8.59375C69.6172 8.59375 69.457 8.53516 69.3477 8.41797C69.2422 8.30078 69.1895 8.1543 69.1895 7.97852ZM78.377 12.5488H76.373V16H75.2422V7.46875H78.0664C79.0273 7.46875 79.7656 7.6875 80.2812 8.125C80.8008 8.5625 81.0605 9.19922 81.0605 10.0352C81.0605 10.5664 80.916 11.0293 80.627 11.4238C80.3418 11.8184 79.9434 12.1133 79.4316 12.3086L81.4355 15.9297V16H80.2285L78.377 12.5488ZM76.373 11.6289H78.1016C78.6602 11.6289 79.1035 11.4844 79.4316 11.1953C79.7637 10.9062 79.9297 10.5195 79.9297 10.0352C79.9297 9.50781 79.7715 9.10352 79.4551 8.82227C79.1426 8.54102 78.6895 8.39844 78.0957 8.39453H76.373V11.6289ZM85.1035 16.1172C84.2441 16.1172 83.5449 15.8359 83.0059 15.2734C82.4668 14.707 82.1973 13.9512 82.1973 13.0059V12.8066C82.1973 12.1777 82.3164 11.6172 82.5547 11.125C82.7969 10.6289 83.1328 10.2422 83.5625 9.96484C83.9961 9.68359 84.4648 9.54297 84.9688 9.54297C85.793 9.54297 86.4336 9.81445 86.8906 10.3574C87.3477 10.9004 87.5762 11.6777 87.5762 12.6895V13.1406H83.2812C83.2969 13.7656 83.4785 14.2715 83.8262 14.6582C84.1777 15.041 84.623 15.2324 85.1621 15.2324C85.5449 15.2324 85.8691 15.1543 86.1348 14.998C86.4004 14.8418 86.6328 14.6348 86.832 14.377L87.4941 14.8926C86.9629 15.709 86.166 16.1172 85.1035 16.1172ZM84.9688 10.4336C84.5312 10.4336 84.1641 10.5938 83.8672 10.9141C83.5703 11.2305 83.3867 11.6758 83.3164 12.25H86.4922V12.168C86.4609 11.6172 86.3125 11.1914 86.0469 10.8906C85.7812 10.5859 85.4219 10.4336 84.9688 10.4336ZM92.5273 14.3184C92.5273 14.0254 92.416 13.7988 92.1934 13.6387C91.9746 13.4746 91.5898 13.334 91.0391 13.2168C90.4922 13.0996 90.0566 12.959 89.7324 12.7949C89.4121 12.6309 89.1738 12.4355 89.0176 12.209C88.8652 11.9824 88.7891 11.7129 88.7891 11.4004C88.7891 10.8809 89.0078 10.4414 89.4453 10.082C89.8867 9.72266 90.4492 9.54297 91.1328 9.54297C91.8516 9.54297 92.4336 9.72852 92.8789 10.0996C93.3281 10.4707 93.5527 10.9453 93.5527 11.5234H92.4629C92.4629 11.2266 92.3359 10.9707 92.082 10.7559C91.832 10.541 91.5156 10.4336 91.1328 10.4336C90.7383 10.4336 90.4297 10.5195 90.207 10.6914C89.9844 10.8633 89.873 11.0879 89.873 11.3652C89.873 11.627 89.9766 11.8242 90.1836 11.957C90.3906 12.0898 90.7637 12.2168 91.3027 12.3379C91.8457 12.459 92.2852 12.6035 92.6211 12.7715C92.957 12.9395 93.2051 13.1426 93.3652 13.3809C93.5293 13.6152 93.6113 13.9023 93.6113 14.2422C93.6113 14.8086 93.3848 15.2637 92.9316 15.6074C92.4785 15.9473 91.8906 16.1172 91.168 16.1172C90.6602 16.1172 90.2109 16.0273 89.8203 15.8477C89.4297 15.668 89.123 15.418 88.9004 15.0977C88.6816 14.7734 88.5723 14.4238 88.5723 14.0488H89.6562C89.6758 14.4121 89.8203 14.7012 90.0898 14.916C90.3633 15.127 90.7227 15.2324 91.168 15.2324C91.5781 15.2324 91.9062 15.1504 92.1523 14.9863C92.4023 14.8184 92.5273 14.5957 92.5273 14.3184ZM94.7363 12.7715C94.7363 12.1504 94.8574 11.5918 95.0996 11.0957C95.3457 10.5996 95.6855 10.2168 96.1191 9.94727C96.5566 9.67773 97.0547 9.54297 97.6133 9.54297C98.4766 9.54297 99.1738 9.8418 99.7051 10.4395C100.24 11.0371 100.508 11.832 100.508 12.8242V12.9004C100.508 13.5176 100.389 14.0723 100.15 14.5645C99.916 15.0527 99.5781 15.4336 99.1367 15.707C98.6992 15.9805 98.1953 16.1172 97.625 16.1172C96.7656 16.1172 96.0684 15.8184 95.5332 15.2207C95.002 14.623 94.7363 13.832 94.7363 12.8477V12.7715ZM95.8262 12.9004C95.8262 13.6035 95.9883 14.168 96.3125 14.5938C96.6406 15.0195 97.0781 15.2324 97.625 15.2324C98.1758 15.2324 98.6133 15.0176 98.9375 14.5879C99.2617 14.1543 99.4238 13.5488 99.4238 12.7715C99.4238 12.0762 99.2578 11.5137 98.9258 11.084C98.5977 10.6504 98.1602 10.4336 97.6133 10.4336C97.0781 10.4336 96.6465 10.6465 96.3184 11.0723C95.9902 11.498 95.8262 12.1074 95.8262 12.9004ZM103.045 16H101.961V7H103.045V16ZM106.877 14.5293L108.447 9.66016H109.555L107.281 16H106.455L104.158 9.66016H105.266L106.877 14.5293ZM113.146 16.1172C112.287 16.1172 111.588 15.8359 111.049 15.2734C110.51 14.707 110.24 13.9512 110.24 13.0059V12.8066C110.24 12.1777 110.359 11.6172 110.598 11.125C110.84 10.6289 111.176 10.2422 111.605 9.96484C112.039 9.68359 112.508 9.54297 113.012 9.54297C113.836 9.54297 114.477 9.81445 114.934 10.3574C115.391 10.9004 115.619 11.6777 115.619 12.6895V13.1406H111.324C111.34 13.7656 111.521 14.2715 111.869 14.6582C112.221 15.041 112.666 15.2324 113.205 15.2324C113.588 15.2324 113.912 15.1543 114.178 14.998C114.443 14.8418 114.676 14.6348 114.875 14.377L115.537 14.8926C115.006 15.709 114.209 16.1172 113.146 16.1172ZM113.012 10.4336C112.574 10.4336 112.207 10.5938 111.91 10.9141C111.613 11.2305 111.43 11.6758 111.359 12.25H114.535V12.168C114.504 11.6172 114.355 11.1914 114.09 10.8906C113.824 10.5859 113.465 10.4336 113.012 10.4336Z" fill="black"/>
</g>
<defs>
<filter id="filter0_d" x="0.5" y="0" width="123" height="28" filterUnits="userSpaceOnUse" color-interpolation-filters="sRGB">
<feFlood flood-opacity="0" result="BackgroundImageFix"/>
<feColorMatrix in="SourceAlpha" type="matrix" values="0 0 0 0 0 0 0 0 0 0 0 0 0 0 0 0 0 0 127 0" result="hardAlpha"/>
<feOffset dy="2"/>
<feGaussianBlur stdDeviation="1"/>
<feComposite in2="hardAlpha" operator="out"/>
<feColorMatrix type="matrix" values="0 0 0 0 0 0 0 0 0 0 0 0 0 0 0 0 0 0 0.25 0"/>
<feBlend mode="normal" in2="BackgroundImageFix" result="effect1_dropShadow"/>
<feBlend mode="normal" in="SourceGraphic" in2="effect1_dropShadow" result="shape"/>
</filter>
</defs>
</svg>
