<svg width="176" height="45" viewBox="0 0 176 45" fill="none" xmlns="http://www.w3.org/2000/svg">
<path d="M1 4C1 2.34314 2.34315 1 4 1H172C173.657 1 175 2.34315 175 4V41C175 42.6569 173.657 44 172 44H4C2.34314 44 1 42.6569 1 41V4Z" fill="#22272E"/>
<g clip-path="url(#clip0)">
<path d="M24.2752 31.5025H23.7417C23.7167 31.4934 23.6921 31.4912 23.6671 31.4912C23.3822 31.4775 23.0994 31.455 22.8191 31.4166C22.2946 31.3488 21.779 31.2334 21.277 31.073C20.4157 30.7972 19.613 30.4015 18.8691 29.8859C18.1793 29.4065 17.5691 28.8412 17.0376 28.1902C16.4112 27.4259 15.923 26.5824 15.5768 25.6556C15.267 24.8325 15.0816 23.9803 15.025 23.1006C15.0229 23.0531 15.0158 23.0056 15 22.9581V22.0289C15.0158 21.988 15.0225 21.9451 15.025 21.9022C15.0362 21.6919 15.0587 21.4816 15.0862 21.2737C15.2219 20.2698 15.5202 19.3177 15.9792 18.4155C16.2958 17.7936 16.6802 17.215 17.1322 16.6811C17.58 16.1521 18.0819 15.6793 18.638 15.2657C19.5448 14.5918 20.5419 14.1057 21.6316 13.8074C22.1606 13.6629 22.7012 13.5679 23.2482 13.5225C23.3452 13.5134 23.4472 13.5204 23.5443 13.4975H24.4578C24.5278 13.5179 24.6002 13.5067 24.6702 13.5134C25.0322 13.545 25.3916 13.5904 25.7486 13.6604C26.8724 13.882 27.9146 14.3027 28.878 14.9242C29.6265 15.4057 30.2867 15.9868 30.8632 16.6628C31.3268 17.2055 31.72 17.7957 32.0412 18.4331C32.421 19.1861 32.6922 19.9751 32.8463 20.8048C32.9275 21.2434 32.9887 21.6866 32.9909 22.1344C32.9909 22.1639 32.9976 22.1956 33 22.2248V22.7583C32.9909 22.7921 32.9909 22.8283 32.9887 22.8646C32.9887 22.9504 32.9887 23.0366 32.982 23.1224C32.9412 23.6697 32.8554 24.21 32.7196 24.7435C32.4597 25.7453 32.0411 26.6746 31.46 27.5314C31.0281 28.1691 30.5241 28.7435 29.9451 29.2521C29.3686 29.7586 28.7376 30.1859 28.0524 30.5317C27.2632 30.9295 26.4334 31.2056 25.5629 31.3568C25.2284 31.4156 24.8914 31.4539 24.5523 31.4743C24.463 31.4845 24.368 31.4824 24.2752 31.5025L24.2752 31.5025ZM20.6372 27.2064C20.7864 27.211 20.9538 27.1927 21.1212 27.1568C21.6165 27.0481 22.0371 26.8223 22.3604 26.422C22.557 26.1779 22.7223 25.9134 22.8648 25.6352C23.0322 25.3074 23.1722 24.9658 23.2942 24.6201C23.4434 24.2019 23.57 23.7745 23.6674 23.3426C23.7216 23.1006 23.6608 22.949 23.3938 22.8656C23.0547 22.7594 22.7132 22.6644 22.365 22.5874C21.7885 22.4608 21.2074 22.3795 20.6147 22.3996C20.4473 22.4063 20.2802 22.4246 20.1149 22.4537C19.6355 22.5375 19.2285 22.7591 18.8962 23.1094C18.3285 23.7063 18.1026 24.4185 18.2426 25.2303C18.4438 26.3904 19.4705 27.2155 20.6372 27.2064ZM21.5936 18.8903C21.5869 19.0599 21.6186 19.2452 21.6706 19.4306C21.7702 19.7834 21.9351 20.1066 22.1297 20.4119C22.5728 21.1063 23.1314 21.7007 23.7374 22.2526C23.787 22.2979 23.8461 22.3363 23.9094 22.3655C23.9727 22.3971 24.0361 22.3971 24.1015 22.37C24.1648 22.3429 24.2214 22.3046 24.2689 22.2547C24.4792 22.0468 24.6871 21.8386 24.8862 21.6237C25.1665 21.3183 25.4335 21.0042 25.6755 20.6673C25.895 20.362 26.0916 20.0408 26.2361 19.6926C26.3807 19.3465 26.4511 18.9895 26.4036 18.6142C26.3244 17.9948 26.0599 17.47 25.5872 17.0585C25.0283 16.5727 24.3772 16.3782 23.6446 16.4866C22.4529 16.6631 21.589 17.7124 21.5936 18.8903ZM27.4679 27.193C27.5267 27.1909 27.6329 27.193 27.7391 27.1772C28.4535 27.071 29.0187 26.7249 29.4169 26.1192C29.7289 25.6422 29.8555 25.1129 29.7968 24.5455C29.7426 24.014 29.5277 23.5483 29.1636 23.1572C28.8471 22.8181 28.4693 22.5828 28.0128 22.4833C27.7616 22.4291 27.5063 22.4063 27.2509 22.402C26.9481 22.3975 26.6473 22.4245 26.3487 22.4654C25.7518 22.5491 25.1683 22.6915 24.5943 22.8723C24.5355 22.8902 24.4813 22.9177 24.4339 22.956C24.3727 23.0056 24.3389 23.0668 24.3389 23.146C24.3389 23.2138 24.3456 23.2817 24.3614 23.3496C24.3976 23.4854 24.4293 23.6208 24.4655 23.7545C24.6329 24.3651 24.8362 24.962 25.1145 25.5318C25.2749 25.8596 25.4606 26.1695 25.698 26.4477C25.8788 26.658 26.0891 26.8297 26.3403 26.9496C26.6836 27.1139 27.0406 27.2022 27.4679 27.193V27.193Z" fill="#ADBAC7"/>
</g>
<path d="M46.4688 29V17.7969H49.5625C53.5104 17.7969 55.4844 19.6172 55.4844 23.2578C55.4844 24.987 54.9349 26.3776 53.8359 27.4297C52.7422 28.4766 51.276 29 49.4375 29H46.4688ZM47.7812 18.9844V27.8125H49.4531C50.9219 27.8125 52.0651 27.4193 52.8828 26.6328C53.7005 25.8464 54.1094 24.7318 54.1094 23.2891C54.1094 20.4193 52.5833 18.9844 49.5312 18.9844H47.7812ZM63.2422 29H61.9609V27.75H61.9297C61.3724 28.7083 60.5521 29.1875 59.4688 29.1875C58.6719 29.1875 58.0469 28.9766 57.5938 28.5547C57.1458 28.1328 56.9219 27.5729 56.9219 26.875C56.9219 25.3802 57.8021 24.5104 59.5625 24.2656L61.9609 23.9297C61.9609 22.5703 61.4115 21.8906 60.3125 21.8906C59.349 21.8906 58.4792 22.2188 57.7031 22.875V21.5625C58.4896 21.0625 59.3958 20.8125 60.4219 20.8125C62.3021 20.8125 63.2422 21.8073 63.2422 23.7969V29ZM61.9609 24.9531L60.0312 25.2188C59.4375 25.3021 58.9896 25.4505 58.6875 25.6641C58.3854 25.8724 58.2344 26.2448 58.2344 26.7812C58.2344 27.1719 58.3724 27.4922 58.6484 27.7422C58.9297 27.987 59.3021 28.1094 59.7656 28.1094C60.401 28.1094 60.9245 27.888 61.3359 27.4453C61.7526 26.9974 61.9609 26.4323 61.9609 25.75V24.9531ZM74.1562 17.7969L70.0078 29H68.5625L64.5 17.7969H65.9609L69.0625 26.6797C69.1615 26.9661 69.237 27.2969 69.2891 27.6719H69.3203C69.362 27.3594 69.4479 27.0234 69.5781 26.6641L72.7422 17.7969H74.1562ZM76.25 18.9688C76.0208 18.9688 75.8255 18.8906 75.6641 18.7344C75.5026 18.5781 75.4219 18.3802 75.4219 18.1406C75.4219 17.901 75.5026 17.7031 75.6641 17.5469C75.8255 17.3854 76.0208 17.3047 76.25 17.3047C76.4844 17.3047 76.6823 17.3854 76.8438 17.5469C77.0104 17.7031 77.0938 17.901 77.0938 18.1406C77.0938 18.3698 77.0104 18.5651 76.8438 18.7266C76.6823 18.888 76.4844 18.9688 76.25 18.9688ZM76.875 29H75.5938V21H76.875V29ZM86.1094 29H84.8281V24.4375C84.8281 22.7396 84.2083 21.8906 82.9688 21.8906C82.3281 21.8906 81.7969 22.1328 81.375 22.6172C80.9583 23.0964 80.75 23.7031 80.75 24.4375V29H79.4688V21H80.75V22.3281H80.7812C81.3854 21.3177 82.2604 20.8125 83.4062 20.8125C84.2812 20.8125 84.9505 21.0964 85.4141 21.6641C85.8776 22.2266 86.1094 23.0417 86.1094 24.1094V29ZM93.9844 28.6328C93.3698 29.0026 92.6406 29.1875 91.7969 29.1875C90.6562 29.1875 89.7344 28.8177 89.0312 28.0781C88.3333 27.3333 87.9844 26.3698 87.9844 25.1875C87.9844 23.8698 88.362 22.8125 89.1172 22.0156C89.8724 21.2135 90.8802 20.8125 92.1406 20.8125C92.8438 20.8125 93.4635 20.9427 94 21.2031V22.5156C93.4062 22.099 92.7708 21.8906 92.0938 21.8906C91.276 21.8906 90.6042 22.1849 90.0781 22.7734C89.5573 23.3568 89.2969 24.125 89.2969 25.0781C89.2969 26.0156 89.5417 26.7552 90.0312 27.2969C90.526 27.8385 91.1875 28.1094 92.0156 28.1094C92.7135 28.1094 93.3698 27.8776 93.9844 27.4141V28.6328ZM96.5781 18.9688C96.349 18.9688 96.1536 18.8906 95.9922 18.7344C95.8307 18.5781 95.75 18.3802 95.75 18.1406C95.75 17.901 95.8307 17.7031 95.9922 17.5469C96.1536 17.3854 96.349 17.3047 96.5781 17.3047C96.8125 17.3047 97.0104 17.3854 97.1719 17.5469C97.3385 17.7031 97.4219 17.901 97.4219 18.1406C97.4219 18.3698 97.3385 18.5651 97.1719 18.7266C97.0104 18.888 96.8125 18.9688 96.5781 18.9688ZM97.2031 29H95.9219V21H97.2031V29ZM112.391 29H110.828L108.953 25.8594C108.781 25.5677 108.615 25.3203 108.453 25.1172C108.292 24.9089 108.125 24.7396 107.953 24.6094C107.786 24.4792 107.604 24.3854 107.406 24.3281C107.214 24.2656 106.995 24.2344 106.75 24.2344H105.672V29H104.359V17.7969H107.703C108.193 17.7969 108.643 17.8594 109.055 17.9844C109.471 18.1042 109.831 18.2891 110.133 18.5391C110.44 18.7891 110.68 19.1016 110.852 19.4766C111.023 19.8464 111.109 20.2812 111.109 20.7812C111.109 21.1719 111.049 21.5312 110.93 21.8594C110.815 22.1823 110.648 22.4714 110.43 22.7266C110.216 22.9818 109.956 23.2005 109.648 23.3828C109.346 23.5599 109.005 23.6979 108.625 23.7969V23.8281C108.812 23.9115 108.974 24.0078 109.109 24.1172C109.25 24.2214 109.383 24.3464 109.508 24.4922C109.633 24.638 109.755 24.8047 109.875 24.9922C110 25.1745 110.138 25.388 110.289 25.6328L112.391 29ZM105.672 18.9844V23.0469H107.453C107.781 23.0469 108.083 22.9974 108.359 22.8984C108.641 22.7995 108.883 22.6589 109.086 22.4766C109.289 22.2891 109.448 22.0625 109.562 21.7969C109.677 21.526 109.734 21.224 109.734 20.8906C109.734 20.2917 109.539 19.8255 109.148 19.4922C108.763 19.1536 108.203 18.9844 107.469 18.9844H105.672ZM119.742 25.3203H114.094C114.115 26.2109 114.354 26.8984 114.812 27.3828C115.271 27.8672 115.901 28.1094 116.703 28.1094C117.604 28.1094 118.432 27.8125 119.188 27.2188V28.4219C118.484 28.9323 117.555 29.1875 116.398 29.1875C115.268 29.1875 114.38 28.8255 113.734 28.1016C113.089 27.3724 112.766 26.349 112.766 25.0312C112.766 23.7865 113.117 22.7734 113.82 21.9922C114.529 21.2057 115.406 20.8125 116.453 20.8125C117.5 20.8125 118.31 21.151 118.883 21.8281C119.456 22.5052 119.742 23.4453 119.742 24.6484V25.3203ZM118.43 24.2344C118.424 23.4948 118.245 22.9193 117.891 22.5078C117.542 22.0964 117.055 21.8906 116.43 21.8906C115.826 21.8906 115.312 22.1068 114.891 22.5391C114.469 22.9714 114.208 23.5365 114.109 24.2344H118.43ZM121.203 28.7109V27.3359C121.901 27.8516 122.669 28.1094 123.508 28.1094C124.633 28.1094 125.195 27.7344 125.195 26.9844C125.195 26.7708 125.146 26.5911 125.047 26.4453C124.953 26.2943 124.823 26.1615 124.656 26.0469C124.495 25.9323 124.302 25.8307 124.078 25.7422C123.859 25.6484 123.622 25.5521 123.367 25.4531C123.013 25.3125 122.701 25.1719 122.43 25.0312C122.164 24.8854 121.94 24.724 121.758 24.5469C121.581 24.3646 121.445 24.1589 121.352 23.9297C121.263 23.7005 121.219 23.4323 121.219 23.125C121.219 22.75 121.305 22.4193 121.477 22.1328C121.648 21.8411 121.878 21.599 122.164 21.4062C122.451 21.2083 122.776 21.0599 123.141 20.9609C123.51 20.862 123.891 20.8125 124.281 20.8125C124.974 20.8125 125.594 20.9323 126.141 21.1719V22.4688C125.552 22.0833 124.875 21.8906 124.109 21.8906C123.87 21.8906 123.654 21.9193 123.461 21.9766C123.268 22.0286 123.102 22.1042 122.961 22.2031C122.826 22.3021 122.719 22.4219 122.641 22.5625C122.568 22.6979 122.531 22.849 122.531 23.0156C122.531 23.224 122.568 23.3984 122.641 23.5391C122.719 23.6797 122.831 23.8047 122.977 23.9141C123.122 24.0234 123.299 24.1224 123.508 24.2109C123.716 24.2995 123.953 24.3958 124.219 24.5C124.573 24.6354 124.891 24.776 125.172 24.9219C125.453 25.0625 125.693 25.224 125.891 25.4062C126.089 25.5833 126.24 25.7891 126.344 26.0234C126.453 26.2578 126.508 26.5365 126.508 26.8594C126.508 27.2552 126.419 27.599 126.242 27.8906C126.07 28.1823 125.839 28.4245 125.547 28.6172C125.255 28.8099 124.919 28.9531 124.539 29.0469C124.159 29.1406 123.76 29.1875 123.344 29.1875C122.521 29.1875 121.807 29.0286 121.203 28.7109ZM131.828 29.1875C130.646 29.1875 129.701 28.8151 128.992 28.0703C128.289 27.3203 127.938 26.3281 127.938 25.0938C127.938 23.75 128.305 22.7005 129.039 21.9453C129.773 21.1901 130.766 20.8125 132.016 20.8125C133.208 20.8125 134.138 21.1797 134.805 21.9141C135.477 22.6484 135.812 23.6667 135.812 24.9688C135.812 26.2448 135.451 27.2682 134.727 28.0391C134.008 28.8047 133.042 29.1875 131.828 29.1875ZM131.922 21.8906C131.099 21.8906 130.448 22.1719 129.969 22.7344C129.49 23.2917 129.25 24.0625 129.25 25.0469C129.25 25.9948 129.492 26.7422 129.977 27.2891C130.461 27.8359 131.109 28.1094 131.922 28.1094C132.75 28.1094 133.385 27.8411 133.828 27.3047C134.276 26.7682 134.5 26.0052 134.5 25.0156C134.5 24.0156 134.276 23.2448 133.828 22.7031C133.385 22.1615 132.75 21.8906 131.922 21.8906ZM139.141 29H137.859V17.1562H139.141V29ZM148.023 21L144.836 29H143.578L140.547 21H141.953L143.984 26.8125C144.135 27.2396 144.229 27.612 144.266 27.9297H144.297C144.349 27.5286 144.432 27.1667 144.547 26.8438L146.672 21H148.023ZM155.742 25.3203H150.094C150.115 26.2109 150.354 26.8984 150.812 27.3828C151.271 27.8672 151.901 28.1094 152.703 28.1094C153.604 28.1094 154.432 27.8125 155.188 27.2188V28.4219C154.484 28.9323 153.555 29.1875 152.398 29.1875C151.268 29.1875 150.38 28.8255 149.734 28.1016C149.089 27.3724 148.766 26.349 148.766 25.0312C148.766 23.7865 149.117 22.7734 149.82 21.9922C150.529 21.2057 151.406 20.8125 152.453 20.8125C153.5 20.8125 154.31 21.151 154.883 21.8281C155.456 22.5052 155.742 23.4453 155.742 24.6484V25.3203ZM154.43 24.2344C154.424 23.4948 154.245 22.9193 153.891 22.5078C153.542 22.0964 153.055 21.8906 152.43 21.8906C151.826 21.8906 151.312 22.1068 150.891 22.5391C150.469 22.9714 150.208 23.5365 150.109 24.2344H154.43Z" fill="#ADBAC7"/>
<path d="M4 2H172V0H4V2ZM174 4V41H176V4H174ZM172 43H4V45H172V43ZM2 41V4H0V41H2ZM4 43C2.89543 43 2 42.1046 2 41H0C0 43.2091 1.79086 45 4 45V43ZM174 41C174 42.1046 173.105 43 172 43V45C174.209 45 176 43.2091 176 41H174ZM172 2C173.105 2 174 2.89543 174 4H176C176 1.79086 174.209 0 172 0V2ZM4 0C1.79086 0 0 1.79086 0 4H2C2 2.89543 2.89543 2 4 2V0Z" fill="#444C56"/>
<defs>
<clipPath id="clip0">
<rect width="18" height="18" fill="white" transform="translate(15 13.5)"/>
</clipPath>
</defs>
</svg>
