<svg width="131" height="34" viewBox="0 0 131 34" fill="none" xmlns="http://www.w3.org/2000/svg">
<path d="M1.5 4C1.5 2.34315 2.84315 1 4.5 1H126.5C128.157 1 129.5 2.34315 129.5 4V30C129.5 31.6569 128.157 33 126.5 33H4.5C2.84315 33 1.5 31.6569 1.5 30V4Z" fill="#C9D1D9"/>
<path d="M18.5 9.875C16.6103 9.875 14.7981 10.6257 13.4619 11.9619C12.1257 13.2981 11.375 15.1103 11.375 17C11.375 18.8897 12.1257 20.7019 13.4619 22.0381C14.7981 23.3743 16.6103 24.125 18.5 24.125C20.3897 24.125 22.2019 23.3743 23.5381 22.0381C24.8743 20.7019 25.625 18.8897 25.625 17C25.625 15.1103 24.8743 13.2981 23.5381 11.9619C22.2019 10.6257 20.3897 9.875 18.5 9.875Z" fill="#37474F"/>
<path d="M18.899 17.4376L19.8024 19.8118C20.0071 20.0896 20.2505 20.3326 20.5408 20.4973C21.4479 21.0121 22.6033 20.7151 23.1211 19.8339C23.1208 19.8339 19.0025 17.5168 18.899 17.4376Z" fill="#FF7043"/>
<path d="M18.899 17.4376C19.0201 17.486 23.1211 19.8335 23.1211 19.8335C23.6386 18.9519 23.3229 17.8201 22.4154 17.3052C22.1251 17.1406 21.7895 17.0551 21.4423 17.0195L18.899 17.4376Z" fill="#F16461"/>
<path d="M22.0595 17.9544C21.9504 17.8925 21.8326 17.8396 21.7111 17.7913C21.7501 18.1636 21.6792 18.5503 21.4741 18.8994C21.269 19.2485 20.9641 19.502 20.6165 19.655C20.72 19.7341 20.8254 19.808 20.9345 19.8699C22.0711 20.5149 22.8099 20.3626 23.1207 19.8339C23.4316 19.3048 23.1961 18.5994 22.0595 17.9544Z" fill="#FF5252"/>
<path d="M19.874 18.9253C20.0949 19.1915 20.345 19.4473 20.6169 19.6546C20.9645 19.5016 21.2697 19.2481 21.4745 18.899C21.6796 18.5499 21.7505 18.1633 21.7115 17.7909C21.3927 17.6634 21.0421 17.5783 20.6975 17.5235C20.714 17.8014 20.6525 18.0871 20.5006 18.3463C20.348 18.6054 20.1271 18.8008 19.874 18.9253Z" fill="#FF855F"/>
<path d="M20.6169 19.655C20.345 19.4476 20.0949 19.1915 19.874 18.9256C19.7161 19.0033 19.5455 19.0501 19.3704 19.0696C19.4893 19.3258 19.6321 19.5808 19.8028 19.8121C20.0836 19.8185 20.3615 19.7671 20.6169 19.655Z" fill="#FF8A65"/>
<path d="M20.6971 17.5239C21.0421 17.579 21.3927 17.6638 21.7111 17.7913C21.6826 17.5175 21.5889 17.2558 21.4422 17.0195C21.1531 16.9899 20.8572 16.9963 20.5722 17.0229C20.6424 17.1819 20.687 17.3506 20.6971 17.5239Z" fill="#FF8A80"/>
<path d="M20.5003 18.3463C20.6525 18.0871 20.714 17.8018 20.6971 17.5235C19.7701 17.3758 18.899 17.4376 18.899 17.4376C18.899 17.4376 19.28 18.2101 19.874 18.9253C20.1271 18.8008 20.348 18.6054 20.5003 18.3463Z" fill="#FFCCBC"/>
<path d="M19.874 18.9253C19.28 18.2101 18.899 17.4376 18.899 17.4376C18.8772 17.4744 18.8694 17.519 18.8787 17.5644C18.9361 17.8426 19.085 18.4565 19.37 19.0696C19.5451 19.0498 19.7161 19.0033 19.874 18.9253Z" fill="#FFAB91"/>
<path d="M20.5723 17.0229C19.8894 17.0866 19.2744 17.267 19.0006 17.3574C18.956 17.372 18.9207 17.4012 18.8994 17.438C18.8994 17.438 19.7705 17.3761 20.6975 17.5239C20.687 17.3506 20.6424 17.1819 20.5723 17.0229Z" fill="#FFCDD2"/>
<path d="M18.0957 17.4376C17.9922 17.5168 13.874 19.8335 13.874 19.8335C14.3919 20.7148 15.5469 21.0118 16.4544 20.4969C16.7446 20.3323 16.988 20.0893 17.1927 19.8114L18.0957 17.4376Z" fill="#C6CF47"/>
<path d="M18.0958 17.4376L15.5525 17.0195C15.2053 17.0548 14.8693 17.1406 14.5794 17.3053C13.6723 17.8201 13.3561 18.9519 13.8736 19.8335C13.874 19.8335 17.9746 17.4864 18.0958 17.4376Z" fill="#E1EB8A"/>
<path d="M16.0602 19.8699C16.1694 19.808 16.2747 19.7338 16.3782 19.655C16.0306 19.502 15.7254 19.2485 15.5206 18.8994C15.3155 18.5503 15.2446 18.1636 15.2836 17.7913C15.1625 17.8396 15.0444 17.8925 14.9352 17.9544C13.7986 18.5994 13.5635 19.3044 13.874 19.8335C14.1849 20.3626 14.9236 20.5149 16.0602 19.8699Z" fill="#DCE775"/>
<path d="M16.2976 17.5239C15.9526 17.579 15.602 17.6638 15.2836 17.7913C15.2446 18.1636 15.3155 18.5503 15.5206 18.8994C15.7258 19.2485 16.0306 19.502 16.3783 19.655C16.6501 19.4476 16.9003 19.1915 17.1211 18.9256C16.868 18.8008 16.6471 18.6058 16.4949 18.3466C16.3426 18.0871 16.2811 17.8018 16.2976 17.5239Z" fill="#FFF59D"/>
<path d="M15.2836 17.7913C15.6024 17.6638 15.953 17.5786 16.2976 17.5239C16.3081 17.3506 16.3524 17.1819 16.4225 17.0229C16.1375 16.9963 15.8412 16.9903 15.5525 17.0195C15.4059 17.2558 15.3121 17.5179 15.2836 17.7913Z" fill="#E6EE9C"/>
<path d="M17.1211 18.9253C16.9003 19.1915 16.6501 19.4472 16.3783 19.6546C16.6336 19.7671 16.9115 19.8185 17.1928 19.8117C17.3634 19.5804 17.5059 19.3254 17.6251 19.0693C17.4496 19.0498 17.279 19.0033 17.1211 18.9253Z" fill="#FFD740"/>
<path d="M16.4949 18.3463C16.6471 18.6054 16.868 18.8004 17.1211 18.9253C17.7151 18.2101 18.0961 17.4376 18.0961 17.4376C18.0961 17.4376 17.225 17.3758 16.298 17.5235C16.2811 17.8018 16.3426 18.0871 16.4949 18.3463Z" fill="#FFF9C4"/>
<path d="M16.2976 17.5239C17.2246 17.3761 18.0958 17.438 18.0958 17.438C18.074 17.4013 18.0391 17.372 17.9945 17.3574C17.7204 17.267 17.1054 17.087 16.4229 17.0229C16.3524 17.1819 16.3081 17.3506 16.2976 17.5239Z" fill="#F0F4C3"/>
<path d="M17.6248 19.0693C17.9098 18.4561 18.0586 17.8426 18.116 17.564C18.1254 17.5186 18.1175 17.474 18.0958 17.4373C18.0958 17.4373 17.7148 18.2098 17.1208 18.9249C17.279 19.0033 17.4496 19.0498 17.6248 19.0693Z" fill="#FFE082"/>
<path d="M25.0138 18.7453C24.8596 19.3216 24.6331 19.8676 24.341 20.3724L24.9901 20.747C25.3149 20.186 25.5661 19.58 25.7375 18.9391L25.0138 18.7453Z" fill="#F44336"/>
<path d="M13.727 21.773L13.1967 22.3033C13.6584 22.7649 14.1841 23.1609 14.753 23.4901L15.1276 22.841C14.6157 22.5448 14.1425 22.1885 13.727 21.773Z" fill="#FFD740"/>
<path d="M11.75 17H11C11 17.672 11.0967 18.3196 11.2625 18.9395L11.9862 18.7456C11.837 18.1876 11.75 17.6045 11.75 17Z" fill="#AED581"/>
<path d="M12.659 20.3724L12.0099 20.747C12.3391 21.3159 12.7351 21.8413 13.1968 22.3033L13.727 21.773C13.3115 21.3575 12.9553 20.8843 12.659 20.3724Z" fill="#FFF176"/>
<path d="M11.9862 18.7453L11.2625 18.9395C11.4339 19.58 11.6855 20.1864 12.0099 20.7474L12.659 20.3728C12.3669 19.8676 12.1404 19.322 11.9862 18.7453Z" fill="#DCE775"/>
<path d="M15.1276 22.841L14.753 23.4901C15.314 23.8145 15.92 24.0661 16.5609 24.2375L16.7548 23.5137C16.178 23.3596 15.6324 23.1331 15.1276 22.841Z" fill="#FFCA28"/>
<path d="M21.8724 22.841L22.247 23.4901C22.8159 23.1609 23.3416 22.7649 23.8032 22.3033L23.273 21.773C22.8575 22.1885 22.3842 22.5448 21.8724 22.841Z" fill="#FF7043"/>
<path d="M20.2453 23.5137L20.4391 24.2375C21.0796 24.0661 21.686 23.8145 22.247 23.4901L21.8724 22.841C21.3676 23.1331 20.822 23.3596 20.2453 23.5137Z" fill="#FB8C00"/>
<path d="M23.273 21.773L23.8033 22.3033C24.2649 21.8416 24.6609 21.3159 24.9901 20.747L24.341 20.3724C24.0448 20.8843 23.6885 21.3575 23.273 21.773Z" fill="#FF5252"/>
<path d="M16.7547 23.5137L16.5609 24.2375C17.1804 24.4032 17.828 24.5 18.5 24.5V23.75C17.8955 23.75 17.3124 23.663 16.7547 23.5137Z" fill="#FFB74D"/>
<path d="M18.5 23.75V24.5C19.172 24.5 19.8196 24.4032 20.4395 24.2375L20.2456 23.5137C19.6876 23.663 19.1045 23.75 18.5 23.75Z" fill="#FFA726"/>
<path d="M16.7548 10.4863L16.5605 9.7625C15.92 9.93388 15.3136 10.1855 14.7526 10.5099L15.1273 11.159C15.6324 10.8669 16.178 10.6404 16.7548 10.4863Z" fill="#64B5F6"/>
<path d="M25.0138 15.2548L25.7375 15.0609C25.5661 14.4204 25.3145 13.814 24.9901 13.253L24.341 13.6276C24.6331 14.1324 24.8596 14.678 25.0138 15.2548Z" fill="#9575CD"/>
<path d="M24.341 13.6276L24.9901 13.253C24.6609 12.6841 24.2649 12.1584 23.8033 11.6967L23.273 12.227C23.6885 12.6425 24.0448 13.1157 24.341 13.6276Z" fill="#7986CB"/>
<path d="M23.273 12.227L23.8032 11.6968C23.3416 11.2351 22.8159 10.8391 22.247 10.5099L21.8724 11.159C22.3842 11.4553 22.8575 11.8115 23.273 12.227Z" fill="#8C9EFF"/>
<path d="M21.8724 11.159L22.247 10.5099C21.6864 10.1851 21.08 9.9335 20.4395 9.7625L20.2456 10.4863C20.822 10.6404 21.3676 10.8669 21.8724 11.159Z" fill="#82B1FF"/>
<path d="M25.25 17H26C26 16.328 25.9033 15.6804 25.7375 15.0605L25.0138 15.2544C25.163 15.8124 25.25 16.3955 25.25 17Z" fill="#F06292"/>
<path d="M11.9862 15.2547L11.2625 15.0605C11.0967 15.6804 11 16.328 11 17H11.75C11.75 16.3955 11.837 15.8124 11.9862 15.2547Z" fill="#9CCC65"/>
<path d="M25.0138 18.7453L25.7375 18.9391C25.9033 18.3196 26 17.672 26 17H25.25C25.25 17.6045 25.163 18.1876 25.0138 18.7453Z" fill="#EF5350"/>
<path d="M20.2453 10.4862L20.4391 9.7625C19.8196 9.59675 19.172 9.5 18.5 9.5V10.25C19.1045 10.25 19.6876 10.337 20.2453 10.4862Z" fill="#64B5F6"/>
<path d="M13.727 12.227L13.1968 11.6967C12.7351 12.1584 12.3391 12.6841 12.0099 13.253L12.659 13.6276C12.9553 13.1157 13.3115 12.6425 13.727 12.227Z" fill="#68C1B8"/>
<path d="M12.659 13.6276L12.0099 13.253C11.6851 13.8136 11.4335 14.42 11.2625 15.0605L11.9862 15.2544C12.1404 14.678 12.3669 14.1324 12.659 13.6276Z" fill="#81C784"/>
<path d="M15.1276 11.159L14.753 10.5099C14.1841 10.8391 13.6584 11.2351 13.1967 11.6968L13.727 12.227C14.1425 11.8115 14.6157 11.4553 15.1276 11.159Z" fill="#4DB6AC"/>
<path d="M18.5 10.25V9.5C17.828 9.5 17.1804 9.59675 16.5605 9.7625L16.7544 10.4862C17.3124 10.337 17.8955 10.25 18.5 10.25Z" fill="#4BA9F5"/>
<path d="M18.5004 12.125L18.5 17C18.5431 17 18.5862 16.9842 18.6215 16.9531C19.0374 16.586 20.375 15.3039 20.375 14.0221C20.375 12.9744 19.5357 12.1254 18.5004 12.125Z" fill="#7986CB"/>
<path d="M18.5 12.125C18.4996 12.125 18.4996 12.125 18.5 12.125C17.4646 12.125 16.625 12.9744 16.625 14.0221C16.625 15.3039 17.9626 16.586 18.3785 16.9531C18.4137 16.9842 18.4569 17 18.5 17V12.125Z" fill="#26A69A"/>
<path d="M18.5 12.125C17.8783 12.125 17.375 12.6875 17.375 14C17.375 15.3462 18.5 17 18.5 17C18.5 17 19.625 15.3462 19.625 14C19.625 12.6875 19.1214 12.125 18.5 12.125Z" fill="#82B1FF"/>
<path d="M18.5 12.125C18.7036 12.125 18.8529 12.1595 18.8739 12.1644C19.5211 12.3117 20 12.827 20 13.4375C20 13.7788 19.8463 14.09 19.6025 14.3225C19.6063 14.2963 18.6054 12.1362 18.5 12.125Z" fill="#4DB6AC"/>
<path d="M19.1825 15.7475C18.8675 16.46 18.5 17 18.5 17C18.5 17 18.1325 16.46 17.8175 15.7475C18.0313 15.83 18.26 15.875 18.5 15.875C18.74 15.875 18.9688 15.83 19.1825 15.7475Z" fill="#90CAF9"/>
<path d="M17.3975 14.3225C17.15 14.0938 17 13.7788 17 13.4375C17 12.8037 17.5137 12.275 18.1962 12.1512C18.2562 12.14 18.4366 12.125 18.5 12.125C17.9337 12.1925 17.3825 14.2138 17.3975 14.3225Z" fill="#8DD0CA"/>
<path d="M19.625 14C19.625 14.0525 19.625 14.1087 19.6175 14.1612C19.6175 14.2137 19.61 14.27 19.6025 14.3225C19.3288 14.585 18.935 14.75 18.5 14.75C18.065 14.75 17.6712 14.585 17.3975 14.3225C17.3825 14.2137 17.375 14.105 17.375 14C17.375 12.77 17.8175 12.2 18.3838 12.1325C18.4213 12.125 18.4625 12.125 18.5 12.125C18.5375 12.125 18.5787 12.125 18.6162 12.1325C18.7212 12.1438 18.8263 12.1738 18.92 12.2263C18.95 12.2413 18.98 12.26 19.01 12.2787C19.04 12.2975 19.07 12.32 19.1 12.35C19.1263 12.3725 19.1525 12.395 19.175 12.4212C19.2612 12.5112 19.34 12.6237 19.4 12.7625C19.4187 12.8037 19.4375 12.845 19.4525 12.8862C19.4713 12.9312 19.4862 12.9762 19.5013 13.025C19.5163 13.0662 19.5275 13.1112 19.535 13.1562C19.55 13.2162 19.565 13.2762 19.5725 13.34C19.5875 13.4112 19.5988 13.49 19.6063 13.5687C19.6175 13.7 19.625 13.8462 19.625 14Z" fill="#80CBC4"/>
<path d="M20.3675 14.1688C20.2738 15.4025 19.0213 16.6025 18.62 16.955C18.5862 16.985 18.545 17 18.5 17C18.5 17 18.8675 16.46 19.1825 15.7475C19.8275 15.4925 20.3 14.8888 20.3675 14.1688Z" fill="#9FA8DA"/>
<path d="M18.4996 17C18.4546 17 18.4133 16.985 18.3796 16.955C17.9783 16.6025 16.7258 15.4025 16.6321 14.1688C16.6996 14.8888 17.1721 15.4925 17.8171 15.7475C18.1321 16.46 18.4996 17 18.4996 17Z" fill="#81C784"/>
<path d="M36.4902 21V12.4688H38.8984C39.6406 12.4688 40.2969 12.6328 40.8672 12.9609C41.4375 13.2891 41.877 13.7559 42.1855 14.3613C42.498 14.9668 42.6562 15.6621 42.6602 16.4473V16.9922C42.6602 17.7969 42.5039 18.502 42.1914 19.1074C41.8828 19.7129 41.4395 20.1777 40.8613 20.502C40.2871 20.8262 39.6172 20.9922 38.8516 21H36.4902ZM37.6152 13.3945V20.0801H38.7988C39.666 20.0801 40.3398 19.8105 40.8203 19.2715C41.3047 18.7324 41.5469 17.9648 41.5469 16.9688V16.4707C41.5469 15.502 41.3184 14.75 40.8613 14.2148C40.4082 13.6758 39.7637 13.4023 38.9277 13.3945H37.6152ZM48.1094 21C48.0469 20.875 47.9961 20.6523 47.957 20.332C47.4531 20.8555 46.8516 21.1172 46.1523 21.1172C45.5273 21.1172 45.0137 20.9414 44.6113 20.5898C44.2129 20.2344 44.0137 19.7852 44.0137 19.2422C44.0137 18.582 44.2637 18.0703 44.7637 17.707C45.2676 17.3398 45.9746 17.1562 46.8848 17.1562H47.9395V16.6582C47.9395 16.2793 47.8262 15.9785 47.5996 15.7559C47.373 15.5293 47.0391 15.416 46.5977 15.416C46.2109 15.416 45.8867 15.5137 45.625 15.709C45.3633 15.9043 45.2324 16.1406 45.2324 16.418H44.1426C44.1426 16.1016 44.2539 15.7969 44.4766 15.5039C44.7031 15.207 45.0078 14.9727 45.3906 14.8008C45.7773 14.6289 46.2012 14.543 46.6621 14.543C47.3926 14.543 47.9648 14.7266 48.3789 15.0938C48.793 15.457 49.0078 15.959 49.0234 16.5996V19.5176C49.0234 20.0996 49.0977 20.5625 49.2461 20.9062V21H48.1094ZM46.3105 20.1738C46.6504 20.1738 46.9727 20.0859 47.2773 19.9102C47.582 19.7344 47.8027 19.5059 47.9395 19.2246V17.9238H47.0898C45.7617 17.9238 45.0977 18.3125 45.0977 19.0898C45.0977 19.4297 45.2109 19.6953 45.4375 19.8867C45.6641 20.0781 45.9551 20.1738 46.3105 20.1738ZM53.7168 19.5059L56.1543 12.4688H57.3848L54.2207 21H53.2246L50.0664 12.4688H51.291L53.7168 19.5059ZM59.541 21H58.457V14.6602H59.541V21ZM58.3691 12.9785C58.3691 12.8027 58.4219 12.6543 58.5273 12.5332C58.6367 12.4121 58.7969 12.3516 59.0078 12.3516C59.2188 12.3516 59.3789 12.4121 59.4883 12.5332C59.5977 12.6543 59.6523 12.8027 59.6523 12.9785C59.6523 13.1543 59.5977 13.3008 59.4883 13.418C59.3789 13.5352 59.2188 13.5938 59.0078 13.5938C58.7969 13.5938 58.6367 13.5352 58.5273 13.418C58.4219 13.3008 58.3691 13.1543 58.3691 12.9785ZM62.3066 14.6602L62.3418 15.457C62.8262 14.8477 63.459 14.543 64.2402 14.543C65.5801 14.543 66.2559 15.2988 66.2676 16.8105V21H65.1836V16.8047C65.1797 16.3477 65.0742 16.0098 64.8672 15.791C64.6641 15.5723 64.3457 15.4629 63.9121 15.4629C63.5605 15.4629 63.252 15.5566 62.9863 15.7441C62.7207 15.9316 62.5137 16.1777 62.3652 16.4824V21H61.2812V14.6602H62.3066ZM70.4453 20.2324C70.832 20.2324 71.1699 20.1152 71.459 19.8809C71.748 19.6465 71.9082 19.3535 71.9395 19.002H72.9648C72.9453 19.3652 72.8203 19.7109 72.5898 20.0391C72.3594 20.3672 72.0508 20.6289 71.6641 20.8242C71.2812 21.0195 70.875 21.1172 70.4453 21.1172C69.582 21.1172 68.8945 20.8301 68.3828 20.2559C67.875 19.6777 67.6211 18.8887 67.6211 17.8887V17.707C67.6211 17.0898 67.7344 16.541 67.9609 16.0605C68.1875 15.5801 68.5117 15.207 68.9336 14.9414C69.3594 14.6758 69.8613 14.543 70.4395 14.543C71.1504 14.543 71.7402 14.7559 72.209 15.1816C72.6816 15.6074 72.9336 16.1602 72.9648 16.8398H71.9395C71.9082 16.4297 71.752 16.0938 71.4707 15.832C71.1934 15.5664 70.8496 15.4336 70.4395 15.4336C69.8887 15.4336 69.4609 15.6328 69.1562 16.0312C68.8555 16.4258 68.7051 16.998 68.7051 17.748V17.9531C68.7051 18.6836 68.8555 19.2461 69.1562 19.6406C69.457 20.0352 69.8867 20.2324 70.4453 20.2324ZM75.3613 21H74.2773V14.6602H75.3613V21ZM74.1895 12.9785C74.1895 12.8027 74.2422 12.6543 74.3477 12.5332C74.457 12.4121 74.6172 12.3516 74.8281 12.3516C75.0391 12.3516 75.1992 12.4121 75.3086 12.5332C75.418 12.6543 75.4727 12.8027 75.4727 12.9785C75.4727 13.1543 75.418 13.3008 75.3086 13.418C75.1992 13.5352 75.0391 13.5938 74.8281 13.5938C74.6172 13.5938 74.457 13.5352 74.3477 13.418C74.2422 13.3008 74.1895 13.1543 74.1895 12.9785ZM83.377 17.5488H81.373V21H80.2422V12.4688H83.0664C84.0273 12.4688 84.7656 12.6875 85.2812 13.125C85.8008 13.5625 86.0605 14.1992 86.0605 15.0352C86.0605 15.5664 85.916 16.0293 85.627 16.4238C85.3418 16.8184 84.9434 17.1133 84.4316 17.3086L86.4355 20.9297V21H85.2285L83.377 17.5488ZM81.373 16.6289H83.1016C83.6602 16.6289 84.1035 16.4844 84.4316 16.1953C84.7637 15.9062 84.9297 15.5195 84.9297 15.0352C84.9297 14.5078 84.7715 14.1035 84.4551 13.8223C84.1426 13.541 83.6895 13.3984 83.0957 13.3945H81.373V16.6289ZM90.1035 21.1172C89.2441 21.1172 88.5449 20.8359 88.0059 20.2734C87.4668 19.707 87.1973 18.9512 87.1973 18.0059V17.8066C87.1973 17.1777 87.3164 16.6172 87.5547 16.125C87.7969 15.6289 88.1328 15.2422 88.5625 14.9648C88.9961 14.6836 89.4648 14.543 89.9688 14.543C90.793 14.543 91.4336 14.8145 91.8906 15.3574C92.3477 15.9004 92.5762 16.6777 92.5762 17.6895V18.1406H88.2812C88.2969 18.7656 88.4785 19.2715 88.8262 19.6582C89.1777 20.041 89.623 20.2324 90.1621 20.2324C90.5449 20.2324 90.8691 20.1543 91.1348 19.998C91.4004 19.8418 91.6328 19.6348 91.832 19.377L92.4941 19.8926C91.9629 20.709 91.166 21.1172 90.1035 21.1172ZM89.9688 15.4336C89.5312 15.4336 89.1641 15.5938 88.8672 15.9141C88.5703 16.2305 88.3867 16.6758 88.3164 17.25H91.4922V17.168C91.4609 16.6172 91.3125 16.1914 91.0469 15.8906C90.7812 15.5859 90.4219 15.4336 89.9688 15.4336ZM97.5273 19.3184C97.5273 19.0254 97.416 18.7988 97.1934 18.6387C96.9746 18.4746 96.5898 18.334 96.0391 18.2168C95.4922 18.0996 95.0566 17.959 94.7324 17.7949C94.4121 17.6309 94.1738 17.4355 94.0176 17.209C93.8652 16.9824 93.7891 16.7129 93.7891 16.4004C93.7891 15.8809 94.0078 15.4414 94.4453 15.082C94.8867 14.7227 95.4492 14.543 96.1328 14.543C96.8516 14.543 97.4336 14.7285 97.8789 15.0996C98.3281 15.4707 98.5527 15.9453 98.5527 16.5234H97.4629C97.4629 16.2266 97.3359 15.9707 97.082 15.7559C96.832 15.541 96.5156 15.4336 96.1328 15.4336C95.7383 15.4336 95.4297 15.5195 95.207 15.6914C94.9844 15.8633 94.873 16.0879 94.873 16.3652C94.873 16.627 94.9766 16.8242 95.1836 16.957C95.3906 17.0898 95.7637 17.2168 96.3027 17.3379C96.8457 17.459 97.2852 17.6035 97.6211 17.7715C97.957 17.9395 98.2051 18.1426 98.3652 18.3809C98.5293 18.6152 98.6113 18.9023 98.6113 19.2422C98.6113 19.8086 98.3848 20.2637 97.9316 20.6074C97.4785 20.9473 96.8906 21.1172 96.168 21.1172C95.6602 21.1172 95.2109 21.0273 94.8203 20.8477C94.4297 20.668 94.123 20.418 93.9004 20.0977C93.6816 19.7734 93.5723 19.4238 93.5723 19.0488H94.6562C94.6758 19.4121 94.8203 19.7012 95.0898 19.916C95.3633 20.127 95.7227 20.2324 96.168 20.2324C96.5781 20.2324 96.9062 20.1504 97.1523 19.9863C97.4023 19.8184 97.5273 19.5957 97.5273 19.3184ZM99.7363 17.7715C99.7363 17.1504 99.8574 16.5918 100.1 16.0957C100.346 15.5996 100.686 15.2168 101.119 14.9473C101.557 14.6777 102.055 14.543 102.613 14.543C103.477 14.543 104.174 14.8418 104.705 15.4395C105.24 16.0371 105.508 16.832 105.508 17.8242V17.9004C105.508 18.5176 105.389 19.0723 105.15 19.5645C104.916 20.0527 104.578 20.4336 104.137 20.707C103.699 20.9805 103.195 21.1172 102.625 21.1172C101.766 21.1172 101.068 20.8184 100.533 20.2207C100.002 19.623 99.7363 18.832 99.7363 17.8477V17.7715ZM100.826 17.9004C100.826 18.6035 100.988 19.168 101.312 19.5938C101.641 20.0195 102.078 20.2324 102.625 20.2324C103.176 20.2324 103.613 20.0176 103.938 19.5879C104.262 19.1543 104.424 18.5488 104.424 17.7715C104.424 17.0762 104.258 16.5137 103.926 16.084C103.598 15.6504 103.16 15.4336 102.613 15.4336C102.078 15.4336 101.646 15.6465 101.318 16.0723C100.99 16.498 100.826 17.1074 100.826 17.9004ZM108.045 21H106.961V12H108.045V21ZM111.877 19.5293L113.447 14.6602H114.555L112.281 21H111.455L109.158 14.6602H110.266L111.877 19.5293ZM118.146 21.1172C117.287 21.1172 116.588 20.8359 116.049 20.2734C115.51 19.707 115.24 18.9512 115.24 18.0059V17.8066C115.24 17.1777 115.359 16.6172 115.598 16.125C115.84 15.6289 116.176 15.2422 116.605 14.9648C117.039 14.6836 117.508 14.543 118.012 14.543C118.836 14.543 119.477 14.8145 119.934 15.3574C120.391 15.9004 120.619 16.6777 120.619 17.6895V18.1406H116.324C116.34 18.7656 116.521 19.2715 116.869 19.6582C117.221 20.041 117.666 20.2324 118.205 20.2324C118.588 20.2324 118.912 20.1543 119.178 19.998C119.443 19.8418 119.676 19.6348 119.875 19.377L120.537 19.8926C120.006 20.709 119.209 21.1172 118.146 21.1172ZM118.012 15.4336C117.574 15.4336 117.207 15.5938 116.91 15.9141C116.613 16.2305 116.43 16.6758 116.359 17.25H119.535V17.168C119.504 16.6172 119.355 16.1914 119.09 15.8906C118.824 15.5859 118.465 15.4336 118.012 15.4336Z" fill="#22272E"/>
<path d="M4.5 2H126.5V0H4.5V2ZM128.5 4V30H130.5V4H128.5ZM126.5 32H4.5V34H126.5V32ZM2.5 30V4H0.5V30H2.5ZM4.5 32C3.39543 32 2.5 31.1046 2.5 30H0.5C0.5 32.2091 2.29086 34 4.5 34V32ZM128.5 30C128.5 31.1046 127.605 32 126.5 32V34C128.709 34 130.5 32.2091 130.5 30H128.5ZM126.5 2C127.605 2 128.5 2.89543 128.5 4H130.5C130.5 1.79086 128.709 0 126.5 0V2ZM4.5 0C2.29086 0 0.5 1.79086 0.5 4H2.5C2.5 2.89543 3.39543 2 4.5 2V0Z" fill="#30363D"/>
</svg>
