<svg width="150" height="39" viewBox="0 0 150 39" fill="none" xmlns="http://www.w3.org/2000/svg">
<path d="M1 4C1 2.34315 2.34315 1 4 1H146C147.657 1 149 2.34315 149 4V35C149 36.6569 147.657 38 146 38H4C2.34315 38 1 36.6569 1 35V4Z" fill="#22272E"/>
<g clip-path="url(#clip0)">
<path d="M20.2752 28.5025H19.7417C19.7167 28.4934 19.6921 28.4912 19.6671 28.4912C19.3822 28.4775 19.0994 28.455 18.8191 28.4166C18.2946 28.3488 17.779 28.2334 17.277 28.073C16.4157 27.7972 15.613 27.4015 14.8691 26.8859C14.1793 26.4065 13.5691 25.8412 13.0376 25.1902C12.4112 24.4259 11.923 23.5824 11.5768 22.6556C11.267 21.8325 11.0816 20.9803 11.025 20.1006C11.0229 20.0531 11.0158 20.0056 11 19.9581V19.0289C11.0158 18.988 11.0225 18.9451 11.025 18.9022C11.0362 18.6919 11.0587 18.4816 11.0862 18.2737C11.2219 17.2698 11.5202 16.3177 11.9792 15.4155C12.2958 14.7936 12.6802 14.215 13.1322 13.6811C13.58 13.1521 14.0819 12.6793 14.638 12.2657C15.5448 11.5918 16.5419 11.1057 17.6316 10.8074C18.1606 10.6629 18.7012 10.5679 19.2482 10.5225C19.3452 10.5134 19.4472 10.5204 19.5443 10.4975H20.4578C20.5278 10.5179 20.6002 10.5067 20.6702 10.5134C21.0322 10.545 21.3916 10.5904 21.7486 10.6604C22.8724 10.882 23.9146 11.3027 24.878 11.9242C25.6265 12.4057 26.2867 12.9868 26.8632 13.6628C27.3268 14.2055 27.72 14.7957 28.0412 15.4331C28.421 16.1861 28.6922 16.9751 28.8463 17.8048C28.9275 18.2434 28.9887 18.6866 28.9909 19.1344C28.9909 19.1639 28.9976 19.1956 29 19.2248V19.7583C28.9909 19.7921 28.9909 19.8283 28.9887 19.8646C28.9887 19.9504 28.9887 20.0366 28.982 20.1224C28.9412 20.6697 28.8554 21.21 28.7196 21.7435C28.4597 22.7453 28.0411 23.6746 27.46 24.5314C27.0281 25.1691 26.5241 25.7435 25.9451 26.2521C25.3686 26.7586 24.7376 27.1859 24.0524 27.5317C23.2632 27.9295 22.4334 28.2056 21.5629 28.3568C21.2284 28.4156 20.8914 28.4539 20.5523 28.4743C20.463 28.4845 20.368 28.4824 20.2752 28.5025L20.2752 28.5025ZM16.6372 24.2064C16.7864 24.211 16.9538 24.1927 17.1212 24.1568C17.6165 24.0481 18.0371 23.8223 18.3604 23.422C18.557 23.1779 18.7223 22.9134 18.8648 22.6352C19.0322 22.3074 19.1722 21.9658 19.2942 21.6201C19.4434 21.2019 19.57 20.7745 19.6674 20.3426C19.7216 20.1006 19.6608 19.949 19.3938 19.8656C19.0547 19.7594 18.7132 19.6644 18.365 19.5874C17.7885 19.4608 17.2074 19.3795 16.6147 19.3996C16.4473 19.4063 16.2802 19.4246 16.1149 19.4537C15.6355 19.5375 15.2285 19.7591 14.8962 20.1094C14.3285 20.7063 14.1026 21.4185 14.2426 22.2303C14.4438 23.3904 15.4705 24.2155 16.6372 24.2064ZM17.5936 15.8903C17.5869 16.0599 17.6186 16.2452 17.6706 16.4306C17.7702 16.7834 17.9351 17.1066 18.1297 17.4119C18.5728 18.1063 19.1314 18.7007 19.7374 19.2526C19.787 19.2979 19.8461 19.3363 19.9094 19.3655C19.9727 19.3971 20.0361 19.3971 20.1015 19.37C20.1648 19.3429 20.2214 19.3046 20.2689 19.2547C20.4792 19.0468 20.6871 18.8386 20.8862 18.6237C21.1665 18.3183 21.4335 18.0042 21.6755 17.6673C21.895 17.362 22.0916 17.0408 22.2361 16.6926C22.3807 16.3465 22.4511 15.9895 22.4036 15.6142C22.3244 14.9948 22.0599 14.47 21.5872 14.0585C21.0283 13.5727 20.3772 13.3782 19.6446 13.4866C18.4529 13.6631 17.589 14.7124 17.5936 15.8903ZM23.4679 24.193C23.5267 24.1909 23.6329 24.193 23.7391 24.1772C24.4535 24.071 25.0187 23.7249 25.4169 23.1192C25.7289 22.6422 25.8555 22.1129 25.7968 21.5455C25.7426 21.014 25.5277 20.5483 25.1636 20.1572C24.8471 19.8181 24.4693 19.5828 24.0128 19.4833C23.7616 19.4291 23.5063 19.4063 23.2509 19.402C22.9481 19.3975 22.6473 19.4245 22.3487 19.4654C21.7518 19.5491 21.1683 19.6915 20.5943 19.8723C20.5355 19.8902 20.4813 19.9177 20.4339 19.956C20.3727 20.0056 20.3389 20.0668 20.3389 20.146C20.3389 20.2138 20.3456 20.2817 20.3614 20.3496C20.3976 20.4854 20.4293 20.6208 20.4655 20.7545C20.6329 21.3651 20.8362 21.962 21.1145 22.5318C21.2749 22.8596 21.4606 23.1695 21.698 23.4477C21.8788 23.658 22.0891 23.8297 22.3403 23.9496C22.6836 24.1139 23.0406 24.2022 23.4679 24.193V24.193Z" fill="#ADBAC7"/>
</g>
<path d="M42.2852 25V15.1973H44.9922C48.4466 15.1973 50.1738 16.79 50.1738 19.9756C50.1738 21.4886 49.693 22.7054 48.7314 23.626C47.7744 24.542 46.4915 25 44.8828 25H42.2852ZM43.4336 16.2363V23.9609H44.8965C46.1816 23.9609 47.182 23.6169 47.8975 22.9287C48.613 22.2406 48.9707 21.2653 48.9707 20.0029C48.9707 17.4919 47.6354 16.2363 44.9648 16.2363H43.4336ZM56.9619 25H55.8408V23.9062H55.8135C55.3258 24.7448 54.6081 25.1641 53.6602 25.1641C52.9629 25.1641 52.416 24.9795 52.0195 24.6104C51.6276 24.2412 51.4316 23.7513 51.4316 23.1406C51.4316 21.8327 52.2018 21.0716 53.7422 20.8574L55.8408 20.5635C55.8408 19.374 55.36 18.7793 54.3984 18.7793C53.5553 18.7793 52.7943 19.0664 52.1152 19.6406V18.4922C52.8034 18.0547 53.5964 17.8359 54.4941 17.8359C56.1393 17.8359 56.9619 18.7064 56.9619 20.4473V25ZM55.8408 21.459L54.1523 21.6914C53.6328 21.7643 53.2409 21.8942 52.9766 22.0811C52.7122 22.2633 52.5801 22.5892 52.5801 23.0586C52.5801 23.4004 52.7008 23.6807 52.9424 23.8994C53.1885 24.1136 53.5143 24.2207 53.9199 24.2207C54.4759 24.2207 54.9339 24.027 55.2939 23.6396C55.6585 23.2477 55.8408 22.7533 55.8408 22.1562V21.459ZM66.5117 15.1973L62.8818 25H61.6172L58.0625 15.1973H59.3408L62.0547 22.9697C62.1413 23.2204 62.2074 23.5098 62.2529 23.8379H62.2803C62.3167 23.5645 62.3919 23.2705 62.5059 22.9561L65.2744 15.1973H66.5117ZM68.3438 16.2227C68.1432 16.2227 67.9723 16.1543 67.8311 16.0176C67.6898 15.8809 67.6191 15.7077 67.6191 15.498C67.6191 15.2884 67.6898 15.1152 67.8311 14.9785C67.9723 14.8372 68.1432 14.7666 68.3438 14.7666C68.5488 14.7666 68.722 14.8372 68.8633 14.9785C69.0091 15.1152 69.082 15.2884 69.082 15.498C69.082 15.6986 69.0091 15.8695 68.8633 16.0107C68.722 16.152 68.5488 16.2227 68.3438 16.2227ZM68.8906 25H67.7695V18H68.8906V25ZM76.9707 25H75.8496V21.0078C75.8496 19.5221 75.3073 18.7793 74.2227 18.7793C73.6621 18.7793 73.1973 18.9912 72.8281 19.415C72.4635 19.8343 72.2812 20.3652 72.2812 21.0078V25H71.1602V18H72.2812V19.1621H72.3086C72.8372 18.278 73.6029 17.8359 74.6055 17.8359C75.3711 17.8359 75.9567 18.0843 76.3623 18.5811C76.7679 19.0732 76.9707 19.7865 76.9707 20.7207V25ZM83.8613 24.6787C83.3236 25.0023 82.6855 25.1641 81.9473 25.1641C80.9492 25.1641 80.1426 24.8405 79.5273 24.1934C78.9167 23.5417 78.6113 22.6986 78.6113 21.6641C78.6113 20.5111 78.9417 19.5859 79.6025 18.8887C80.2633 18.1868 81.1452 17.8359 82.248 17.8359C82.8633 17.8359 83.4056 17.9499 83.875 18.1777V19.3262C83.3555 18.9616 82.7995 18.7793 82.207 18.7793C81.4915 18.7793 80.9036 19.0368 80.4434 19.5518C79.9876 20.0622 79.7598 20.7344 79.7598 21.5684C79.7598 22.3887 79.974 23.0358 80.4023 23.5098C80.8353 23.9837 81.4141 24.2207 82.1387 24.2207C82.7493 24.2207 83.3236 24.0179 83.8613 23.6123V24.6787ZM86.1309 16.2227C85.9303 16.2227 85.7594 16.1543 85.6182 16.0176C85.4769 15.8809 85.4062 15.7077 85.4062 15.498C85.4062 15.2884 85.4769 15.1152 85.6182 14.9785C85.7594 14.8372 85.9303 14.7666 86.1309 14.7666C86.3359 14.7666 86.5091 14.8372 86.6504 14.9785C86.7962 15.1152 86.8691 15.2884 86.8691 15.498C86.8691 15.6986 86.7962 15.8695 86.6504 16.0107C86.5091 16.152 86.3359 16.2227 86.1309 16.2227ZM86.6777 25H85.5566V18H86.6777V25ZM99.9668 25H98.5996L96.959 22.252C96.8086 21.9967 96.6628 21.7803 96.5215 21.6025C96.3802 21.4202 96.2344 21.2721 96.084 21.1582C95.9382 21.0443 95.7786 20.9622 95.6055 20.9121C95.4368 20.8574 95.2454 20.8301 95.0312 20.8301H94.0879V25H92.9395V15.1973H95.8652C96.2936 15.1973 96.6878 15.252 97.0479 15.3613C97.4124 15.4661 97.7269 15.6279 97.9912 15.8467C98.2601 16.0654 98.4697 16.3389 98.6201 16.667C98.7705 16.9906 98.8457 17.3711 98.8457 17.8086C98.8457 18.1504 98.7933 18.4648 98.6885 18.752C98.5882 19.0345 98.4424 19.2874 98.251 19.5107C98.0641 19.734 97.8363 19.9255 97.5674 20.085C97.3031 20.2399 97.0046 20.3607 96.6719 20.4473V20.4746C96.8359 20.5475 96.9772 20.6318 97.0957 20.7275C97.2188 20.8187 97.335 20.9281 97.4443 21.0557C97.5537 21.1833 97.6608 21.3291 97.7656 21.4932C97.875 21.6527 97.9958 21.8395 98.1279 22.0537L99.9668 25ZM94.0879 16.2363V19.791H95.6465C95.9336 19.791 96.1979 19.7477 96.4395 19.6611C96.6855 19.5745 96.8975 19.4515 97.0752 19.292C97.2529 19.1279 97.3919 18.9297 97.4922 18.6973C97.5924 18.4603 97.6426 18.196 97.6426 17.9043C97.6426 17.3802 97.4717 16.9723 97.1299 16.6807C96.7926 16.3844 96.3027 16.2363 95.6602 16.2363H94.0879ZM106.399 21.7803H101.457C101.475 22.5596 101.685 23.1611 102.086 23.585C102.487 24.0088 103.038 24.2207 103.74 24.2207C104.529 24.2207 105.253 23.9609 105.914 23.4414V24.4941C105.299 24.9408 104.485 25.1641 103.474 25.1641C102.485 25.1641 101.708 24.8473 101.143 24.2139C100.577 23.5758 100.295 22.6803 100.295 21.5273C100.295 20.4382 100.603 19.5518 101.218 18.8682C101.838 18.18 102.605 17.8359 103.521 17.8359C104.438 17.8359 105.146 18.1322 105.647 18.7246C106.149 19.3171 106.399 20.1396 106.399 21.1924V21.7803ZM105.251 20.8301C105.246 20.1829 105.089 19.6794 104.779 19.3193C104.474 18.9593 104.048 18.7793 103.501 18.7793C102.972 18.7793 102.523 18.9684 102.154 19.3467C101.785 19.7249 101.557 20.2194 101.471 20.8301H105.251ZM107.678 24.7471V23.5439C108.288 23.9951 108.961 24.2207 109.694 24.2207C110.679 24.2207 111.171 23.8926 111.171 23.2363C111.171 23.0495 111.128 22.8923 111.041 22.7646C110.959 22.6325 110.845 22.5163 110.699 22.416C110.558 22.3158 110.389 22.2269 110.193 22.1494C110.002 22.0674 109.795 21.9831 109.571 21.8965C109.261 21.7734 108.988 21.6504 108.751 21.5273C108.519 21.3997 108.323 21.2585 108.163 21.1035C108.008 20.944 107.89 20.764 107.808 20.5635C107.73 20.363 107.691 20.1283 107.691 19.8594C107.691 19.5312 107.767 19.2419 107.917 18.9912C108.067 18.736 108.268 18.5241 108.519 18.3555C108.769 18.1823 109.054 18.0524 109.373 17.9658C109.697 17.8792 110.029 17.8359 110.371 17.8359C110.977 17.8359 111.52 17.9408 111.998 18.1504V19.2852C111.483 18.9479 110.891 18.7793 110.221 18.7793C110.011 18.7793 109.822 18.8044 109.653 18.8545C109.485 18.9001 109.339 18.9661 109.216 19.0527C109.097 19.1393 109.004 19.2441 108.936 19.3672C108.872 19.4857 108.84 19.6178 108.84 19.7637C108.84 19.946 108.872 20.0986 108.936 20.2217C109.004 20.3447 109.102 20.4541 109.229 20.5498C109.357 20.6455 109.512 20.7321 109.694 20.8096C109.877 20.887 110.084 20.9714 110.316 21.0625C110.626 21.181 110.904 21.304 111.15 21.4316C111.396 21.5547 111.606 21.696 111.779 21.8555C111.952 22.0104 112.085 22.1904 112.176 22.3955C112.271 22.6006 112.319 22.8444 112.319 23.127C112.319 23.4733 112.242 23.7741 112.087 24.0293C111.937 24.2845 111.734 24.4964 111.479 24.665C111.223 24.8337 110.929 24.959 110.597 25.041C110.264 25.123 109.915 25.1641 109.551 25.1641C108.831 25.1641 108.206 25.0251 107.678 24.7471ZM116.975 25.1641C115.94 25.1641 115.113 24.8382 114.493 24.1865C113.878 23.5303 113.57 22.6621 113.57 21.582C113.57 20.4062 113.892 19.488 114.534 18.8271C115.177 18.1663 116.045 17.8359 117.139 17.8359C118.182 17.8359 118.996 18.1572 119.579 18.7998C120.167 19.4424 120.461 20.3333 120.461 21.4727C120.461 22.5892 120.144 23.4847 119.511 24.1592C118.882 24.8291 118.036 25.1641 116.975 25.1641ZM117.057 18.7793C116.337 18.7793 115.767 19.0254 115.348 19.5176C114.928 20.0052 114.719 20.6797 114.719 21.541C114.719 22.3704 114.931 23.0244 115.354 23.5029C115.778 23.9814 116.346 24.2207 117.057 24.2207C117.781 24.2207 118.337 23.986 118.725 23.5166C119.117 23.0472 119.312 22.3796 119.312 21.5137C119.312 20.6387 119.117 19.9642 118.725 19.4902C118.337 19.0163 117.781 18.7793 117.057 18.7793ZM123.373 25H122.252V14.6367H123.373V25ZM131.146 18L128.356 25H127.256L124.604 18H125.834L127.611 23.0859C127.743 23.4596 127.826 23.7855 127.857 24.0635H127.885C127.93 23.7126 128.003 23.3958 128.104 23.1133L129.963 18H131.146ZM137.899 21.7803H132.957C132.975 22.5596 133.185 23.1611 133.586 23.585C133.987 24.0088 134.538 24.2207 135.24 24.2207C136.029 24.2207 136.753 23.9609 137.414 23.4414V24.4941C136.799 24.9408 135.985 25.1641 134.974 25.1641C133.985 25.1641 133.208 24.8473 132.643 24.2139C132.077 23.5758 131.795 22.6803 131.795 21.5273C131.795 20.4382 132.103 19.5518 132.718 18.8682C133.338 18.18 134.105 17.8359 135.021 17.8359C135.938 17.8359 136.646 18.1322 137.147 18.7246C137.649 19.3171 137.899 20.1396 137.899 21.1924V21.7803ZM136.751 20.8301C136.746 20.1829 136.589 19.6794 136.279 19.3193C135.974 18.9593 135.548 18.7793 135.001 18.7793C134.472 18.7793 134.023 18.9684 133.654 19.3467C133.285 19.7249 133.057 20.2194 132.971 20.8301H136.751Z" fill="#ADBAC7"/>
<path d="M4 2H146V0H4V2ZM148 4V35H150V4H148ZM146 37H4V39H146V37ZM2 35V4H0V35H2ZM4 37C2.89543 37 2 36.1046 2 35H0C0 37.2091 1.79086 39 4 39V37ZM148 35C148 36.1046 147.105 37 146 37V39C148.209 39 150 37.2091 150 35H148ZM146 2C147.105 2 148 2.89543 148 4H150C150 1.79086 148.209 0 146 0V2ZM4 0C1.79086 0 0 1.79086 0 4H2C2 2.89543 2.89543 2 4 2V0Z" fill="#444C56"/>
<defs>
<clipPath id="clip0">
<rect width="18" height="18" fill="white" transform="translate(11 10.5)"/>
</clipPath>
</defs>
</svg>
