<svg width="133" height="36" viewBox="0 0 133 36" fill="none" xmlns="http://www.w3.org/2000/svg">
<g filter="url(#filter0_d)">
<path d="M2.5 3C2.5 1.34315 3.84315 0 5.5 0H127.5C129.157 0 130.5 1.34315 130.5 3V29C130.5 30.6569 129.157 32 127.5 32H5.5C3.84315 32 2.5 30.6569 2.5 29V3Z" fill="#C9D1D9"/>
<path d="M19.5 8.875C17.6103 8.875 15.7981 9.62567 14.4619 10.9619C13.1257 12.2981 12.375 14.1103 12.375 16C12.375 17.8897 13.1257 19.7019 14.4619 21.0381C15.7981 22.3743 17.6103 23.125 19.5 23.125C21.3897 23.125 23.2019 22.3743 24.5381 21.0381C25.8743 19.7019 26.625 17.8897 26.625 16C26.625 14.1103 25.8743 12.2981 24.5381 10.9619C23.2019 9.62567 21.3897 8.875 19.5 8.875V8.875Z" fill="#37474F"/>
<path d="M19.899 16.4376L20.8024 18.8118C21.0071 19.0896 21.2505 19.3326 21.5408 19.4973C22.4479 20.0121 23.6033 19.7151 24.1211 18.8339C24.1208 18.8339 20.0025 16.5168 19.899 16.4376Z" fill="#FF7043"/>
<path d="M19.899 16.4376C20.0201 16.486 24.1211 18.8335 24.1211 18.8335C24.6386 17.9519 24.3229 16.8201 23.4154 16.3052C23.1251 16.1406 22.7895 16.0551 22.4423 16.0195L19.899 16.4376Z" fill="#F16461"/>
<path d="M23.0595 16.9544C22.9504 16.8925 22.8326 16.8396 22.7111 16.7913C22.7501 17.1636 22.6792 17.5503 22.4741 17.8994C22.269 18.2485 21.9641 18.502 21.6165 18.655C21.72 18.7341 21.8254 18.808 21.9345 18.8699C23.0711 19.5149 23.8099 19.3626 24.1207 18.8339C24.4316 18.3048 24.1961 17.5994 23.0595 16.9544Z" fill="#FF5252"/>
<path d="M20.874 17.9253C21.0949 18.1915 21.345 18.4473 21.6169 18.6546C21.9645 18.5016 22.2697 18.2481 22.4745 17.899C22.6796 17.5499 22.7505 17.1633 22.7115 16.7909C22.3927 16.6634 22.0421 16.5783 21.6975 16.5235C21.714 16.8014 21.6525 17.0871 21.5006 17.3463C21.348 17.6054 21.1271 17.8008 20.874 17.9253Z" fill="#FF855F"/>
<path d="M21.6169 18.655C21.345 18.4476 21.0949 18.1915 20.874 17.9256C20.7161 18.0033 20.5455 18.0501 20.3704 18.0696C20.4893 18.3258 20.6321 18.5808 20.8028 18.8121C21.0836 18.8185 21.3615 18.7671 21.6169 18.655Z" fill="#FF8A65"/>
<path d="M21.6971 16.5239C22.0421 16.579 22.3927 16.6638 22.7111 16.7913C22.6826 16.5175 22.5889 16.2558 22.4422 16.0195C22.1531 15.9899 21.8572 15.9963 21.5722 16.0229C21.6424 16.1819 21.687 16.3506 21.6971 16.5239Z" fill="#FF8A80"/>
<path d="M21.5003 17.3463C21.6525 17.0871 21.714 16.8018 21.6971 16.5235C20.7701 16.3758 19.899 16.4376 19.899 16.4376C19.899 16.4376 20.28 17.2101 20.874 17.9253C21.1271 17.8008 21.348 17.6054 21.5003 17.3463Z" fill="#FFCCBC"/>
<path d="M20.874 17.9253C20.28 17.2101 19.899 16.4376 19.899 16.4376C19.8772 16.4744 19.8694 16.519 19.8787 16.5644C19.9361 16.8426 20.085 17.4565 20.37 18.0696C20.5451 18.0498 20.7161 18.0033 20.874 17.9253Z" fill="#FFAB91"/>
<path d="M21.5723 16.0229C20.8894 16.0866 20.2744 16.267 20.0006 16.3574C19.956 16.372 19.9207 16.4012 19.8994 16.438C19.8994 16.438 20.7705 16.3761 21.6975 16.5239C21.687 16.3506 21.6424 16.1819 21.5723 16.0229Z" fill="#FFCDD2"/>
<path d="M19.0957 16.4376C18.9922 16.5168 14.874 18.8335 14.874 18.8335C15.3919 19.7148 16.5469 20.0118 17.4544 19.4969C17.7446 19.3323 17.988 19.0893 18.1927 18.8114L19.0957 16.4376Z" fill="#C6CF47"/>
<path d="M19.0958 16.4376L16.5525 16.0195C16.2053 16.0548 15.8693 16.1406 15.5794 16.3053C14.6723 16.8201 14.3561 17.9519 14.8736 18.8335C14.874 18.8335 18.9746 16.4864 19.0958 16.4376Z" fill="#E1EB8A"/>
<path d="M17.0602 18.8699C17.1694 18.808 17.2747 18.7338 17.3782 18.655C17.0306 18.502 16.7254 18.2485 16.5206 17.8994C16.3155 17.5503 16.2446 17.1636 16.2836 16.7913C16.1625 16.8396 16.0444 16.8925 15.9352 16.9544C14.7986 17.5994 14.5635 18.3044 14.874 18.8335C15.1849 19.3626 15.9236 19.5149 17.0602 18.8699Z" fill="#DCE775"/>
<path d="M17.2976 16.5239C16.9526 16.579 16.602 16.6638 16.2836 16.7913C16.2446 17.1636 16.3155 17.5503 16.5206 17.8994C16.7258 18.2485 17.0306 18.502 17.3783 18.655C17.6501 18.4476 17.9003 18.1915 18.1211 17.9256C17.868 17.8008 17.6471 17.6058 17.4949 17.3466C17.3426 17.0871 17.2811 16.8018 17.2976 16.5239Z" fill="#FFF59D"/>
<path d="M16.2836 16.7913C16.6024 16.6638 16.953 16.5786 17.2976 16.5239C17.3081 16.3506 17.3524 16.1819 17.4225 16.0229C17.1375 15.9963 16.8412 15.9903 16.5525 16.0195C16.4059 16.2558 16.3121 16.5179 16.2836 16.7913Z" fill="#E6EE9C"/>
<path d="M18.1211 17.9253C17.9003 18.1915 17.6501 18.4472 17.3783 18.6546C17.6336 18.7671 17.9115 18.8185 18.1928 18.8117C18.3634 18.5804 18.5059 18.3254 18.6251 18.0693C18.4496 18.0498 18.279 18.0033 18.1211 17.9253Z" fill="#FFD740"/>
<path d="M17.4949 17.3463C17.6471 17.6054 17.868 17.8004 18.1211 17.9253C18.7151 17.2101 19.0961 16.4376 19.0961 16.4376C19.0961 16.4376 18.225 16.3758 17.298 16.5235C17.2811 16.8018 17.3426 17.0871 17.4949 17.3463Z" fill="#FFF9C4"/>
<path d="M17.2976 16.5239C18.2246 16.3761 19.0958 16.438 19.0958 16.438C19.074 16.4013 19.0391 16.372 18.9945 16.3574C18.7204 16.267 18.1054 16.087 17.4229 16.0229C17.3524 16.1819 17.3081 16.3506 17.2976 16.5239Z" fill="#F0F4C3"/>
<path d="M18.6248 18.0693C18.9098 17.4561 19.0586 16.8426 19.116 16.564C19.1254 16.5186 19.1175 16.474 19.0958 16.4373C19.0958 16.4373 18.7148 17.2098 18.1208 17.9249C18.279 18.0033 18.4496 18.0498 18.6248 18.0693Z" fill="#FFE082"/>
<path d="M26.0138 17.7453C25.8596 18.3216 25.6331 18.8676 25.341 19.3724L25.9901 19.747C26.3149 19.186 26.5661 18.58 26.7375 17.9391L26.0138 17.7453Z" fill="#F44336"/>
<path d="M14.727 20.773L14.1967 21.3033C14.6584 21.7649 15.1841 22.1609 15.753 22.4901L16.1276 21.841C15.6157 21.5448 15.1425 21.1885 14.727 20.773Z" fill="#FFD740"/>
<path d="M12.75 16H12C12 16.672 12.0967 17.3196 12.2625 17.9395L12.9862 17.7456C12.837 17.1876 12.75 16.6045 12.75 16Z" fill="#AED581"/>
<path d="M13.659 19.3724L13.0099 19.747C13.3391 20.3159 13.7351 20.8413 14.1968 21.3033L14.727 20.773C14.3115 20.3575 13.9553 19.8843 13.659 19.3724Z" fill="#FFF176"/>
<path d="M12.9862 17.7453L12.2625 17.9395C12.4339 18.58 12.6855 19.1864 13.0099 19.7474L13.659 19.3728C13.3669 18.8676 13.1404 18.322 12.9862 17.7453Z" fill="#DCE775"/>
<path d="M16.1276 21.841L15.753 22.4901C16.314 22.8145 16.92 23.0661 17.5609 23.2375L17.7548 22.5137C17.178 22.3596 16.6324 22.1331 16.1276 21.841Z" fill="#FFCA28"/>
<path d="M22.8724 21.841L23.247 22.4901C23.8159 22.1609 24.3416 21.7649 24.8032 21.3033L24.273 20.773C23.8575 21.1885 23.3842 21.5448 22.8724 21.841Z" fill="#FF7043"/>
<path d="M21.2453 22.5137L21.4391 23.2375C22.0796 23.0661 22.686 22.8145 23.247 22.4901L22.8724 21.841C22.3676 22.1331 21.822 22.3596 21.2453 22.5137Z" fill="#FB8C00"/>
<path d="M24.273 20.773L24.8033 21.3033C25.2649 20.8416 25.6609 20.3159 25.9901 19.747L25.341 19.3724C25.0448 19.8843 24.6885 20.3575 24.273 20.773Z" fill="#FF5252"/>
<path d="M17.7547 22.5137L17.5609 23.2375C18.1804 23.4032 18.828 23.5 19.5 23.5V22.75C18.8955 22.75 18.3124 22.663 17.7547 22.5137Z" fill="#FFB74D"/>
<path d="M19.5 22.75V23.5C20.172 23.5 20.8196 23.4032 21.4395 23.2375L21.2456 22.5137C20.6876 22.663 20.1045 22.75 19.5 22.75Z" fill="#FFA726"/>
<path d="M17.7548 9.48625L17.5605 8.7625C16.92 8.93388 16.3136 9.1855 15.7526 9.50988L16.1273 10.159C16.6324 9.86688 17.178 9.64038 17.7548 9.48625Z" fill="#64B5F6"/>
<path d="M26.0138 14.2548L26.7375 14.0609C26.5661 13.4204 26.3145 12.814 25.9901 12.253L25.341 12.6276C25.6331 13.1324 25.8596 13.678 26.0138 14.2548Z" fill="#9575CD"/>
<path d="M25.341 12.6276L25.9901 12.253C25.6609 11.6841 25.2649 11.1584 24.8033 10.6967L24.273 11.227C24.6885 11.6425 25.0448 12.1157 25.341 12.6276Z" fill="#7986CB"/>
<path d="M24.273 11.227L24.8032 10.6968C24.3416 10.2351 23.8159 9.83913 23.247 9.50988L22.8724 10.159C23.3842 10.4553 23.8575 10.8115 24.273 11.227Z" fill="#8C9EFF"/>
<path d="M22.8724 10.159L23.247 9.50988C22.6864 9.18513 22.08 8.9335 21.4395 8.7625L21.2456 9.48625C21.822 9.64038 22.3676 9.86688 22.8724 10.159Z" fill="#82B1FF"/>
<path d="M26.25 16H27C27 15.328 26.9033 14.6804 26.7375 14.0605L26.0138 14.2544C26.163 14.8124 26.25 15.3955 26.25 16Z" fill="#F06292"/>
<path d="M12.9862 14.2547L12.2625 14.0605C12.0967 14.6804 12 15.328 12 16H12.75C12.75 15.3955 12.837 14.8124 12.9862 14.2547Z" fill="#9CCC65"/>
<path d="M26.0138 17.7453L26.7375 17.9391C26.9033 17.3196 27 16.672 27 16H26.25C26.25 16.6045 26.163 17.1876 26.0138 17.7453Z" fill="#EF5350"/>
<path d="M21.2453 9.48625L21.4391 8.7625C20.8196 8.59675 20.172 8.5 19.5 8.5V9.25C20.1045 9.25 20.6876 9.337 21.2453 9.48625Z" fill="#64B5F6"/>
<path d="M14.727 11.227L14.1968 10.6967C13.7351 11.1584 13.3391 11.6841 13.0099 12.253L13.659 12.6276C13.9553 12.1157 14.3115 11.6425 14.727 11.227Z" fill="#68C1B8"/>
<path d="M13.659 12.6276L13.0099 12.253C12.6851 12.8136 12.4335 13.42 12.2625 14.0605L12.9862 14.2544C13.1404 13.678 13.3669 13.1324 13.659 12.6276Z" fill="#81C784"/>
<path d="M16.1276 10.159L15.753 9.50988C15.1841 9.83913 14.6584 10.2351 14.1967 10.6968L14.727 11.227C15.1425 10.8115 15.6157 10.4553 16.1276 10.159Z" fill="#4DB6AC"/>
<path d="M19.5 9.25V8.5C18.828 8.5 18.1804 8.59675 17.5605 8.7625L17.7544 9.48625C18.3124 9.337 18.8955 9.25 19.5 9.25Z" fill="#4BA9F5"/>
<path d="M19.5004 11.125L19.5 16C19.5431 16 19.5862 15.9842 19.6215 15.9531C20.0374 15.586 21.375 14.3039 21.375 13.0221C21.375 11.9744 20.5357 11.1254 19.5004 11.125Z" fill="#7986CB"/>
<path d="M19.5 11.125C19.4996 11.125 19.4996 11.125 19.5 11.125C18.4646 11.125 17.625 11.9744 17.625 13.0221C17.625 14.3039 18.9626 15.586 19.3785 15.9531C19.4137 15.9842 19.4569 16 19.5 16V11.125Z" fill="#26A69A"/>
<path d="M19.5 11.125C18.8783 11.125 18.375 11.6875 18.375 13C18.375 14.3462 19.5 16 19.5 16C19.5 16 20.625 14.3462 20.625 13C20.625 11.6875 20.1214 11.125 19.5 11.125Z" fill="#82B1FF"/>
<path d="M19.5 11.125C19.7036 11.125 19.8529 11.1595 19.8739 11.1644C20.5211 11.3117 21 11.827 21 12.4375C21 12.7788 20.8463 13.09 20.6025 13.3225C20.6063 13.2963 19.6054 11.1362 19.5 11.125Z" fill="#4DB6AC"/>
<path d="M20.1825 14.7475C19.8675 15.46 19.5 16 19.5 16C19.5 16 19.1325 15.46 18.8175 14.7475C19.0313 14.83 19.26 14.875 19.5 14.875C19.74 14.875 19.9688 14.83 20.1825 14.7475Z" fill="#90CAF9"/>
<path d="M18.3975 13.3225C18.15 13.0938 18 12.7788 18 12.4375C18 11.8037 18.5137 11.275 19.1962 11.1512C19.2562 11.14 19.4366 11.125 19.5 11.125C18.9337 11.1925 18.3825 13.2138 18.3975 13.3225Z" fill="#8DD0CA"/>
<path d="M20.625 13C20.625 13.0525 20.625 13.1087 20.6175 13.1612C20.6175 13.2137 20.61 13.27 20.6025 13.3225C20.3288 13.585 19.935 13.75 19.5 13.75C19.065 13.75 18.6712 13.585 18.3975 13.3225C18.3825 13.2137 18.375 13.105 18.375 13C18.375 11.77 18.8175 11.2 19.3838 11.1325C19.4213 11.125 19.4625 11.125 19.5 11.125C19.5375 11.125 19.5787 11.125 19.6162 11.1325C19.7212 11.1438 19.8263 11.1738 19.92 11.2263C19.95 11.2413 19.98 11.26 20.01 11.2787C20.04 11.2975 20.07 11.32 20.1 11.35C20.1263 11.3725 20.1525 11.395 20.175 11.4212C20.2612 11.5112 20.34 11.6237 20.4 11.7625C20.4187 11.8037 20.4375 11.845 20.4525 11.8862C20.4713 11.9312 20.4863 11.9762 20.5013 12.025C20.5163 12.0662 20.5275 12.1112 20.535 12.1562C20.55 12.2162 20.565 12.2762 20.5725 12.34C20.5875 12.4112 20.5988 12.49 20.6063 12.5687C20.6175 12.7 20.625 12.8462 20.625 13Z" fill="#80CBC4"/>
<path d="M21.3675 13.1688C21.2738 14.4025 20.0213 15.6025 19.62 15.955C19.5862 15.985 19.545 16 19.5 16C19.5 16 19.8675 15.46 20.1825 14.7475C20.8275 14.4925 21.3 13.8888 21.3675 13.1688Z" fill="#9FA8DA"/>
<path d="M19.4996 16C19.4546 16 19.4133 15.985 19.3796 15.955C18.9783 15.6025 17.7258 14.4025 17.6321 13.1688C17.6996 13.8888 18.1721 14.4925 18.8171 14.7475C19.1321 15.46 19.4996 16 19.4996 16Z" fill="#81C784"/>
<path d="M37.4902 20V11.4688H39.8984C40.6406 11.4688 41.2969 11.6328 41.8672 11.9609C42.4375 12.2891 42.877 12.7559 43.1855 13.3613C43.498 13.9668 43.6562 14.6621 43.6602 15.4473V15.9922C43.6602 16.7969 43.5039 17.502 43.1914 18.1074C42.8828 18.7129 42.4395 19.1777 41.8613 19.502C41.2871 19.8262 40.6172 19.9922 39.8516 20H37.4902ZM38.6152 12.3945V19.0801H39.7988C40.666 19.0801 41.3398 18.8105 41.8203 18.2715C42.3047 17.7324 42.5469 16.9648 42.5469 15.9688V15.4707C42.5469 14.502 42.3184 13.75 41.8613 13.2148C41.4082 12.6758 40.7637 12.4023 39.9277 12.3945H38.6152ZM49.1094 20C49.0469 19.875 48.9961 19.6523 48.957 19.332C48.4531 19.8555 47.8516 20.1172 47.1523 20.1172C46.5273 20.1172 46.0137 19.9414 45.6113 19.5898C45.2129 19.2344 45.0137 18.7852 45.0137 18.2422C45.0137 17.582 45.2637 17.0703 45.7637 16.707C46.2676 16.3398 46.9746 16.1562 47.8848 16.1562H48.9395V15.6582C48.9395 15.2793 48.8262 14.9785 48.5996 14.7559C48.373 14.5293 48.0391 14.416 47.5977 14.416C47.2109 14.416 46.8867 14.5137 46.625 14.709C46.3633 14.9043 46.2324 15.1406 46.2324 15.418H45.1426C45.1426 15.1016 45.2539 14.7969 45.4766 14.5039C45.7031 14.207 46.0078 13.9727 46.3906 13.8008C46.7773 13.6289 47.2012 13.543 47.6621 13.543C48.3926 13.543 48.9648 13.7266 49.3789 14.0938C49.793 14.457 50.0078 14.959 50.0234 15.5996V18.5176C50.0234 19.0996 50.0977 19.5625 50.2461 19.9062V20H49.1094ZM47.3105 19.1738C47.6504 19.1738 47.9727 19.0859 48.2773 18.9102C48.582 18.7344 48.8027 18.5059 48.9395 18.2246V16.9238H48.0898C46.7617 16.9238 46.0977 17.3125 46.0977 18.0898C46.0977 18.4297 46.2109 18.6953 46.4375 18.8867C46.6641 19.0781 46.9551 19.1738 47.3105 19.1738ZM54.7168 18.5059L57.1543 11.4688H58.3848L55.2207 20H54.2246L51.0664 11.4688H52.291L54.7168 18.5059ZM60.541 20H59.457V13.6602H60.541V20ZM59.3691 11.9785C59.3691 11.8027 59.4219 11.6543 59.5273 11.5332C59.6367 11.4121 59.7969 11.3516 60.0078 11.3516C60.2188 11.3516 60.3789 11.4121 60.4883 11.5332C60.5977 11.6543 60.6523 11.8027 60.6523 11.9785C60.6523 12.1543 60.5977 12.3008 60.4883 12.418C60.3789 12.5352 60.2188 12.5938 60.0078 12.5938C59.7969 12.5938 59.6367 12.5352 59.5273 12.418C59.4219 12.3008 59.3691 12.1543 59.3691 11.9785ZM63.3066 13.6602L63.3418 14.457C63.8262 13.8477 64.459 13.543 65.2402 13.543C66.5801 13.543 67.2559 14.2988 67.2676 15.8105V20H66.1836V15.8047C66.1797 15.3477 66.0742 15.0098 65.8672 14.791C65.6641 14.5723 65.3457 14.4629 64.9121 14.4629C64.5605 14.4629 64.252 14.5566 63.9863 14.7441C63.7207 14.9316 63.5137 15.1777 63.3652 15.4824V20H62.2812V13.6602H63.3066ZM71.4453 19.2324C71.832 19.2324 72.1699 19.1152 72.459 18.8809C72.748 18.6465 72.9082 18.3535 72.9395 18.002H73.9648C73.9453 18.3652 73.8203 18.7109 73.5898 19.0391C73.3594 19.3672 73.0508 19.6289 72.6641 19.8242C72.2812 20.0195 71.875 20.1172 71.4453 20.1172C70.582 20.1172 69.8945 19.8301 69.3828 19.2559C68.875 18.6777 68.6211 17.8887 68.6211 16.8887V16.707C68.6211 16.0898 68.7344 15.541 68.9609 15.0605C69.1875 14.5801 69.5117 14.207 69.9336 13.9414C70.3594 13.6758 70.8613 13.543 71.4395 13.543C72.1504 13.543 72.7402 13.7559 73.209 14.1816C73.6816 14.6074 73.9336 15.1602 73.9648 15.8398H72.9395C72.9082 15.4297 72.752 15.0938 72.4707 14.832C72.1934 14.5664 71.8496 14.4336 71.4395 14.4336C70.8887 14.4336 70.4609 14.6328 70.1562 15.0312C69.8555 15.4258 69.7051 15.998 69.7051 16.748V16.9531C69.7051 17.6836 69.8555 18.2461 70.1562 18.6406C70.457 19.0352 70.8867 19.2324 71.4453 19.2324ZM76.3613 20H75.2773V13.6602H76.3613V20ZM75.1895 11.9785C75.1895 11.8027 75.2422 11.6543 75.3477 11.5332C75.457 11.4121 75.6172 11.3516 75.8281 11.3516C76.0391 11.3516 76.1992 11.4121 76.3086 11.5332C76.418 11.6543 76.4727 11.8027 76.4727 11.9785C76.4727 12.1543 76.418 12.3008 76.3086 12.418C76.1992 12.5352 76.0391 12.5938 75.8281 12.5938C75.6172 12.5938 75.457 12.5352 75.3477 12.418C75.2422 12.3008 75.1895 12.1543 75.1895 11.9785ZM84.377 16.5488H82.373V20H81.2422V11.4688H84.0664C85.0273 11.4688 85.7656 11.6875 86.2812 12.125C86.8008 12.5625 87.0605 13.1992 87.0605 14.0352C87.0605 14.5664 86.916 15.0293 86.627 15.4238C86.3418 15.8184 85.9434 16.1133 85.4316 16.3086L87.4355 19.9297V20H86.2285L84.377 16.5488ZM82.373 15.6289H84.1016C84.6602 15.6289 85.1035 15.4844 85.4316 15.1953C85.7637 14.9062 85.9297 14.5195 85.9297 14.0352C85.9297 13.5078 85.7715 13.1035 85.4551 12.8223C85.1426 12.541 84.6895 12.3984 84.0957 12.3945H82.373V15.6289ZM91.1035 20.1172C90.2441 20.1172 89.5449 19.8359 89.0059 19.2734C88.4668 18.707 88.1973 17.9512 88.1973 17.0059V16.8066C88.1973 16.1777 88.3164 15.6172 88.5547 15.125C88.7969 14.6289 89.1328 14.2422 89.5625 13.9648C89.9961 13.6836 90.4648 13.543 90.9688 13.543C91.793 13.543 92.4336 13.8145 92.8906 14.3574C93.3477 14.9004 93.5762 15.6777 93.5762 16.6895V17.1406H89.2812C89.2969 17.7656 89.4785 18.2715 89.8262 18.6582C90.1777 19.041 90.623 19.2324 91.1621 19.2324C91.5449 19.2324 91.8691 19.1543 92.1348 18.998C92.4004 18.8418 92.6328 18.6348 92.832 18.377L93.4941 18.8926C92.9629 19.709 92.166 20.1172 91.1035 20.1172ZM90.9688 14.4336C90.5312 14.4336 90.1641 14.5938 89.8672 14.9141C89.5703 15.2305 89.3867 15.6758 89.3164 16.25H92.4922V16.168C92.4609 15.6172 92.3125 15.1914 92.0469 14.8906C91.7812 14.5859 91.4219 14.4336 90.9688 14.4336ZM98.5273 18.3184C98.5273 18.0254 98.416 17.7988 98.1934 17.6387C97.9746 17.4746 97.5898 17.334 97.0391 17.2168C96.4922 17.0996 96.0566 16.959 95.7324 16.7949C95.4121 16.6309 95.1738 16.4355 95.0176 16.209C94.8652 15.9824 94.7891 15.7129 94.7891 15.4004C94.7891 14.8809 95.0078 14.4414 95.4453 14.082C95.8867 13.7227 96.4492 13.543 97.1328 13.543C97.8516 13.543 98.4336 13.7285 98.8789 14.0996C99.3281 14.4707 99.5527 14.9453 99.5527 15.5234H98.4629C98.4629 15.2266 98.3359 14.9707 98.082 14.7559C97.832 14.541 97.5156 14.4336 97.1328 14.4336C96.7383 14.4336 96.4297 14.5195 96.207 14.6914C95.9844 14.8633 95.873 15.0879 95.873 15.3652C95.873 15.627 95.9766 15.8242 96.1836 15.957C96.3906 16.0898 96.7637 16.2168 97.3027 16.3379C97.8457 16.459 98.2852 16.6035 98.6211 16.7715C98.957 16.9395 99.2051 17.1426 99.3652 17.3809C99.5293 17.6152 99.6113 17.9023 99.6113 18.2422C99.6113 18.8086 99.3848 19.2637 98.9316 19.6074C98.4785 19.9473 97.8906 20.1172 97.168 20.1172C96.6602 20.1172 96.2109 20.0273 95.8203 19.8477C95.4297 19.668 95.123 19.418 94.9004 19.0977C94.6816 18.7734 94.5723 18.4238 94.5723 18.0488H95.6562C95.6758 18.4121 95.8203 18.7012 96.0898 18.916C96.3633 19.127 96.7227 19.2324 97.168 19.2324C97.5781 19.2324 97.9062 19.1504 98.1523 18.9863C98.4023 18.8184 98.5273 18.5957 98.5273 18.3184ZM100.736 16.7715C100.736 16.1504 100.857 15.5918 101.1 15.0957C101.346 14.5996 101.686 14.2168 102.119 13.9473C102.557 13.6777 103.055 13.543 103.613 13.543C104.477 13.543 105.174 13.8418 105.705 14.4395C106.24 15.0371 106.508 15.832 106.508 16.8242V16.9004C106.508 17.5176 106.389 18.0723 106.15 18.5645C105.916 19.0527 105.578 19.4336 105.137 19.707C104.699 19.9805 104.195 20.1172 103.625 20.1172C102.766 20.1172 102.068 19.8184 101.533 19.2207C101.002 18.623 100.736 17.832 100.736 16.8477V16.7715ZM101.826 16.9004C101.826 17.6035 101.988 18.168 102.312 18.5938C102.641 19.0195 103.078 19.2324 103.625 19.2324C104.176 19.2324 104.613 19.0176 104.938 18.5879C105.262 18.1543 105.424 17.5488 105.424 16.7715C105.424 16.0762 105.258 15.5137 104.926 15.084C104.598 14.6504 104.16 14.4336 103.613 14.4336C103.078 14.4336 102.646 14.6465 102.318 15.0723C101.99 15.498 101.826 16.1074 101.826 16.9004ZM109.045 20H107.961V11H109.045V20ZM112.877 18.5293L114.447 13.6602H115.555L113.281 20H112.455L110.158 13.6602H111.266L112.877 18.5293ZM119.146 20.1172C118.287 20.1172 117.588 19.8359 117.049 19.2734C116.51 18.707 116.24 17.9512 116.24 17.0059V16.8066C116.24 16.1777 116.359 15.6172 116.598 15.125C116.84 14.6289 117.176 14.2422 117.605 13.9648C118.039 13.6836 118.508 13.543 119.012 13.543C119.836 13.543 120.477 13.8145 120.934 14.3574C121.391 14.9004 121.619 15.6777 121.619 16.6895V17.1406H117.324C117.34 17.7656 117.521 18.2715 117.869 18.6582C118.221 19.041 118.666 19.2324 119.205 19.2324C119.588 19.2324 119.912 19.1543 120.178 18.998C120.443 18.8418 120.676 18.6348 120.875 18.377L121.537 18.8926C121.006 19.709 120.209 20.1172 119.146 20.1172ZM119.012 14.4336C118.574 14.4336 118.207 14.5938 117.91 14.9141C117.613 15.2305 117.43 15.6758 117.359 16.25H120.535V16.168C120.504 15.6172 120.355 15.1914 120.09 14.8906C119.824 14.5859 119.465 14.4336 119.012 14.4336Z" fill="#22272E"/>
</g>
<defs>
<filter id="filter0_d" x="0.5" y="0" width="132" height="36" filterUnits="userSpaceOnUse" color-interpolation-filters="sRGB">
<feFlood flood-opacity="0" result="BackgroundImageFix"/>
<feColorMatrix in="SourceAlpha" type="matrix" values="0 0 0 0 0 0 0 0 0 0 0 0 0 0 0 0 0 0 127 0" result="hardAlpha"/>
<feOffset dy="2"/>
<feGaussianBlur stdDeviation="1"/>
<feComposite in2="hardAlpha" operator="out"/>
<feColorMatrix type="matrix" values="0 0 0 0 0 0 0 0 0 0 0 0 0 0 0 0 0 0 0.25 0"/>
<feBlend mode="normal" in2="BackgroundImageFix" result="effect1_dropShadow"/>
<feBlend mode="normal" in="SourceGraphic" in2="effect1_dropShadow" result="shape"/>
</filter>
</defs>
</svg>
