<svg width="178" height="47" viewBox="0 0 178 47" fill="none" xmlns="http://www.w3.org/2000/svg">
<rect x="1" y="1" width="176" height="45" rx="4" fill="#22272E"/>
<g clip-path="url(#clip0_28_5008)">
<path d="M25.2752 32.5025H24.7417C24.7167 32.4934 24.6921 32.4912 24.6671 32.4912C24.3822 32.4775 24.0994 32.455 23.8191 32.4166C23.2946 32.3488 22.779 32.2334 22.277 32.073C21.4157 31.7972 20.613 31.4015 19.8691 30.8859C19.1793 30.4065 18.5691 29.8412 18.0376 29.1902C17.4112 28.4259 16.923 27.5824 16.5768 26.6556C16.267 25.8325 16.0816 24.9803 16.025 24.1006C16.0229 24.0531 16.0158 24.0056 16 23.9581V23.0289C16.0158 22.9881 16.0225 22.9451 16.025 22.9022C16.0362 22.6919 16.0587 22.4816 16.0862 22.2737C16.2219 21.2698 16.5202 20.3177 16.9792 19.4155C17.2958 18.7936 17.6802 18.215 18.1322 17.6811C18.58 17.1521 19.0819 16.6794 19.638 16.2657C20.5448 15.5918 21.5419 15.1057 22.6316 14.8074C23.1606 14.6629 23.7012 14.5679 24.2482 14.5225C24.3452 14.5134 24.4472 14.5204 24.5443 14.4975H25.4578C25.5278 14.5179 25.6002 14.5067 25.6702 14.5134C26.0322 14.545 26.3916 14.5904 26.7486 14.6604C27.8724 14.882 28.9146 15.3027 29.878 15.9242C30.6265 16.4057 31.2867 16.9868 31.8632 17.6628C32.3268 18.2055 32.72 18.7957 33.0412 19.4331C33.421 20.1861 33.6922 20.9751 33.8463 21.8048C33.9275 22.2434 33.9887 22.6866 33.9909 23.1344C33.9909 23.1639 33.9976 23.1956 34 23.2248V23.7584C33.9909 23.7921 33.9909 23.8283 33.9887 23.8646C33.9887 23.9504 33.9887 24.0366 33.982 24.1224C33.9412 24.6697 33.8554 25.21 33.7196 25.7435C33.4597 26.7453 33.0411 27.6746 32.46 28.5314C32.0281 29.1691 31.5241 29.7435 30.9451 30.2521C30.3686 30.7586 29.7376 31.1859 29.0524 31.5317C28.2632 31.9295 27.4334 32.2056 26.5629 32.3568C26.2284 32.4156 25.8914 32.4539 25.5523 32.4743C25.463 32.4845 25.368 32.4824 25.2752 32.5025L25.2752 32.5025ZM21.6372 28.2064C21.7864 28.211 21.9538 28.1927 22.1212 28.1568C22.6165 28.0481 23.0371 27.8223 23.3604 27.422C23.557 27.1779 23.7223 26.9134 23.8648 26.6352C24.0322 26.3074 24.1722 25.9658 24.2942 25.6201C24.4434 25.2019 24.57 24.7745 24.6674 24.3426C24.7216 24.1006 24.6608 23.949 24.3938 23.8656C24.0547 23.7594 23.7132 23.6644 23.365 23.5874C22.7885 23.4608 22.2074 23.3795 21.6147 23.3996C21.4473 23.4063 21.2802 23.4246 21.1149 23.4538C20.6355 23.5375 20.2285 23.7591 19.8962 24.1094C19.3285 24.7063 19.1026 25.4185 19.2426 26.2303C19.4438 27.3904 20.4705 28.2155 21.6372 28.2064ZM22.5936 19.8903C22.5869 20.0599 22.6186 20.2452 22.6706 20.4306C22.7702 20.7834 22.9351 21.1066 23.1297 21.4119C23.5728 22.1063 24.1314 22.7007 24.7374 23.2526C24.787 23.2979 24.8461 23.3363 24.9094 23.3655C24.9727 23.3971 25.0361 23.3971 25.1015 23.37C25.1648 23.343 25.2214 23.3046 25.2689 23.2547C25.4792 23.0468 25.6871 22.8386 25.8862 22.6237C26.1665 22.3184 26.4335 22.0043 26.6755 21.6673C26.895 21.362 27.0916 21.0409 27.2361 20.6926C27.3807 20.3465 27.4511 19.9895 27.4036 19.6142C27.3244 18.9948 27.0599 18.47 26.5872 18.0585C26.0283 17.5728 25.3772 17.3782 24.6446 17.4866C23.4529 17.6632 22.589 18.7124 22.5936 19.8903ZM28.4679 28.193C28.5267 28.1909 28.6329 28.193 28.7391 28.1772C29.4535 28.071 30.0187 27.7249 30.4169 27.1192C30.7289 26.6422 30.8555 26.1129 30.7968 25.5455C30.7426 25.014 30.5277 24.5483 30.1636 24.1572C29.8471 23.8181 29.4693 23.5828 29.0128 23.4833C28.7616 23.4291 28.5063 23.4063 28.2509 23.402C27.9481 23.3975 27.6473 23.4246 27.3487 23.4654C26.7518 23.5491 26.1683 23.6915 25.5943 23.8723C25.5355 23.8903 25.4813 23.9177 25.4339 23.956C25.3727 24.0056 25.3389 24.0668 25.3389 24.146C25.3389 24.2138 25.3456 24.2817 25.3614 24.3496C25.3976 24.4854 25.4293 24.6208 25.4655 24.7545C25.6329 25.3651 25.8362 25.962 26.1145 26.5318C26.2749 26.8596 26.4606 27.1695 26.698 27.4477C26.8788 27.658 27.0891 27.8297 27.3403 27.9496C27.6836 28.1139 28.0406 28.2022 28.4679 28.193V28.193Z" fill="#ADBAC7"/>
</g>
<path d="M47.4688 30V18.7969H50.5625C54.5104 18.7969 56.4844 20.6172 56.4844 24.2578C56.4844 25.987 55.9349 27.3776 54.8359 28.4297C53.7422 29.4766 52.276 30 50.4375 30H47.4688ZM48.7812 19.9844V28.8125H50.4531C51.9219 28.8125 53.0651 28.4193 53.8828 27.6328C54.7005 26.8464 55.1094 25.7318 55.1094 24.2891C55.1094 21.4193 53.5833 19.9844 50.5312 19.9844H48.7812ZM64.2422 30H62.9609V28.75H62.9297C62.3724 29.7083 61.5521 30.1875 60.4688 30.1875C59.6719 30.1875 59.0469 29.9766 58.5938 29.5547C58.1458 29.1328 57.9219 28.5729 57.9219 27.875C57.9219 26.3802 58.8021 25.5104 60.5625 25.2656L62.9609 24.9297C62.9609 23.5703 62.4115 22.8906 61.3125 22.8906C60.349 22.8906 59.4792 23.2188 58.7031 23.875V22.5625C59.4896 22.0625 60.3958 21.8125 61.4219 21.8125C63.3021 21.8125 64.2422 22.8073 64.2422 24.7969V30ZM62.9609 25.9531L61.0312 26.2188C60.4375 26.3021 59.9896 26.4505 59.6875 26.6641C59.3854 26.8724 59.2344 27.2448 59.2344 27.7812C59.2344 28.1719 59.3724 28.4922 59.6484 28.7422C59.9297 28.987 60.3021 29.1094 60.7656 29.1094C61.401 29.1094 61.9245 28.888 62.3359 28.4453C62.7526 27.9974 62.9609 27.4323 62.9609 26.75V25.9531ZM75.1562 18.7969L71.0078 30H69.5625L65.5 18.7969H66.9609L70.0625 27.6797C70.1615 27.9661 70.237 28.2969 70.2891 28.6719H70.3203C70.362 28.3594 70.4479 28.0234 70.5781 27.6641L73.7422 18.7969H75.1562ZM77.25 19.9688C77.0208 19.9688 76.8255 19.8906 76.6641 19.7344C76.5026 19.5781 76.4219 19.3802 76.4219 19.1406C76.4219 18.901 76.5026 18.7031 76.6641 18.5469C76.8255 18.3854 77.0208 18.3047 77.25 18.3047C77.4844 18.3047 77.6823 18.3854 77.8438 18.5469C78.0104 18.7031 78.0938 18.901 78.0938 19.1406C78.0938 19.3698 78.0104 19.5651 77.8438 19.7266C77.6823 19.888 77.4844 19.9688 77.25 19.9688ZM77.875 30H76.5938V22H77.875V30ZM87.1094 30H85.8281V25.4375C85.8281 23.7396 85.2083 22.8906 83.9688 22.8906C83.3281 22.8906 82.7969 23.1328 82.375 23.6172C81.9583 24.0964 81.75 24.7031 81.75 25.4375V30H80.4688V22H81.75V23.3281H81.7812C82.3854 22.3177 83.2604 21.8125 84.4062 21.8125C85.2812 21.8125 85.9505 22.0964 86.4141 22.6641C86.8776 23.2266 87.1094 24.0417 87.1094 25.1094V30ZM94.9844 29.6328C94.3698 30.0026 93.6406 30.1875 92.7969 30.1875C91.6562 30.1875 90.7344 29.8177 90.0312 29.0781C89.3333 28.3333 88.9844 27.3698 88.9844 26.1875C88.9844 24.8698 89.362 23.8125 90.1172 23.0156C90.8724 22.2135 91.8802 21.8125 93.1406 21.8125C93.8438 21.8125 94.4635 21.9427 95 22.2031V23.5156C94.4062 23.099 93.7708 22.8906 93.0938 22.8906C92.276 22.8906 91.6042 23.1849 91.0781 23.7734C90.5573 24.3568 90.2969 25.125 90.2969 26.0781C90.2969 27.0156 90.5417 27.7552 91.0312 28.2969C91.526 28.8385 92.1875 29.1094 93.0156 29.1094C93.7135 29.1094 94.3698 28.8776 94.9844 28.4141V29.6328ZM97.5781 19.9688C97.349 19.9688 97.1536 19.8906 96.9922 19.7344C96.8307 19.5781 96.75 19.3802 96.75 19.1406C96.75 18.901 96.8307 18.7031 96.9922 18.5469C97.1536 18.3854 97.349 18.3047 97.5781 18.3047C97.8125 18.3047 98.0104 18.3854 98.1719 18.5469C98.3385 18.7031 98.4219 18.901 98.4219 19.1406C98.4219 19.3698 98.3385 19.5651 98.1719 19.7266C98.0104 19.888 97.8125 19.9688 97.5781 19.9688ZM98.2031 30H96.9219V22H98.2031V30ZM113.391 30H111.828L109.953 26.8594C109.781 26.5677 109.615 26.3203 109.453 26.1172C109.292 25.9089 109.125 25.7396 108.953 25.6094C108.786 25.4792 108.604 25.3854 108.406 25.3281C108.214 25.2656 107.995 25.2344 107.75 25.2344H106.672V30H105.359V18.7969H108.703C109.193 18.7969 109.643 18.8594 110.055 18.9844C110.471 19.1042 110.831 19.2891 111.133 19.5391C111.44 19.7891 111.68 20.1016 111.852 20.4766C112.023 20.8464 112.109 21.2812 112.109 21.7812C112.109 22.1719 112.049 22.5312 111.93 22.8594C111.815 23.1823 111.648 23.4714 111.43 23.7266C111.216 23.9818 110.956 24.2005 110.648 24.3828C110.346 24.5599 110.005 24.6979 109.625 24.7969V24.8281C109.812 24.9115 109.974 25.0078 110.109 25.1172C110.25 25.2214 110.383 25.3464 110.508 25.4922C110.633 25.638 110.755 25.8047 110.875 25.9922C111 26.1745 111.138 26.388 111.289 26.6328L113.391 30ZM106.672 19.9844V24.0469H108.453C108.781 24.0469 109.083 23.9974 109.359 23.8984C109.641 23.7995 109.883 23.6589 110.086 23.4766C110.289 23.2891 110.448 23.0625 110.562 22.7969C110.677 22.526 110.734 22.224 110.734 21.8906C110.734 21.2917 110.539 20.8255 110.148 20.4922C109.763 20.1536 109.203 19.9844 108.469 19.9844H106.672ZM120.727 26.3203H115.078C115.099 27.2109 115.339 27.8984 115.797 28.3828C116.255 28.8672 116.885 29.1094 117.688 29.1094C118.589 29.1094 119.417 28.8125 120.172 28.2188V29.4219C119.469 29.9323 118.539 30.1875 117.383 30.1875C116.253 30.1875 115.365 29.8255 114.719 29.1016C114.073 28.3724 113.75 27.349 113.75 26.0312C113.75 24.7865 114.102 23.7734 114.805 22.9922C115.513 22.2057 116.391 21.8125 117.438 21.8125C118.484 21.8125 119.294 22.151 119.867 22.8281C120.44 23.5052 120.727 24.4453 120.727 25.6484V26.3203ZM119.414 25.2344C119.409 24.4948 119.229 23.9193 118.875 23.5078C118.526 23.0964 118.039 22.8906 117.414 22.8906C116.81 22.8906 116.297 23.1068 115.875 23.5391C115.453 23.9714 115.193 24.5365 115.094 25.2344H119.414ZM122.188 29.7109V28.3359C122.885 28.8516 123.654 29.1094 124.492 29.1094C125.617 29.1094 126.18 28.7344 126.18 27.9844C126.18 27.7708 126.13 27.5911 126.031 27.4453C125.938 27.2943 125.807 27.1615 125.641 27.0469C125.479 26.9323 125.286 26.8307 125.062 26.7422C124.844 26.6484 124.607 26.5521 124.352 26.4531C123.997 26.3125 123.685 26.1719 123.414 26.0312C123.148 25.8854 122.924 25.724 122.742 25.5469C122.565 25.3646 122.43 25.1589 122.336 24.9297C122.247 24.7005 122.203 24.4323 122.203 24.125C122.203 23.75 122.289 23.4193 122.461 23.1328C122.633 22.8411 122.862 22.599 123.148 22.4062C123.435 22.2083 123.76 22.0599 124.125 21.9609C124.495 21.862 124.875 21.8125 125.266 21.8125C125.958 21.8125 126.578 21.9323 127.125 22.1719V23.4688C126.536 23.0833 125.859 22.8906 125.094 22.8906C124.854 22.8906 124.638 22.9193 124.445 22.9766C124.253 23.0286 124.086 23.1042 123.945 23.2031C123.81 23.3021 123.703 23.4219 123.625 23.5625C123.552 23.6979 123.516 23.849 123.516 24.0156C123.516 24.224 123.552 24.3984 123.625 24.5391C123.703 24.6797 123.815 24.8047 123.961 24.9141C124.107 25.0234 124.284 25.1224 124.492 25.2109C124.701 25.2995 124.938 25.3958 125.203 25.5C125.557 25.6354 125.875 25.776 126.156 25.9219C126.438 26.0625 126.677 26.224 126.875 26.4062C127.073 26.5833 127.224 26.7891 127.328 27.0234C127.438 27.2578 127.492 27.5365 127.492 27.8594C127.492 28.2552 127.404 28.599 127.227 28.8906C127.055 29.1823 126.823 29.4245 126.531 29.6172C126.24 29.8099 125.904 29.9531 125.523 30.0469C125.143 30.1406 124.745 30.1875 124.328 30.1875C123.505 30.1875 122.792 30.0286 122.188 29.7109ZM132.812 30.1875C131.63 30.1875 130.685 29.8151 129.977 29.0703C129.273 28.3203 128.922 27.3281 128.922 26.0938C128.922 24.75 129.289 23.7005 130.023 22.9453C130.758 22.1901 131.75 21.8125 133 21.8125C134.193 21.8125 135.122 22.1797 135.789 22.9141C136.461 23.6484 136.797 24.6667 136.797 25.9688C136.797 27.2448 136.435 28.2682 135.711 29.0391C134.992 29.8047 134.026 30.1875 132.812 30.1875ZM132.906 22.8906C132.083 22.8906 131.432 23.1719 130.953 23.7344C130.474 24.2917 130.234 25.0625 130.234 26.0469C130.234 26.9948 130.477 27.7422 130.961 28.2891C131.445 28.8359 132.094 29.1094 132.906 29.1094C133.734 29.1094 134.37 28.8411 134.812 28.3047C135.26 27.7682 135.484 27.0052 135.484 26.0156C135.484 25.0156 135.26 24.2448 134.812 23.7031C134.37 23.1615 133.734 22.8906 132.906 22.8906ZM140.125 30H138.844V18.1562H140.125V30ZM149.008 22L145.82 30H144.562L141.531 22H142.938L144.969 27.8125C145.12 28.2396 145.214 28.612 145.25 28.9297H145.281C145.333 28.5286 145.417 28.1667 145.531 27.8438L147.656 22H149.008ZM156.82 26.3203H151.172C151.193 27.2109 151.432 27.8984 151.891 28.3828C152.349 28.8672 152.979 29.1094 153.781 29.1094C154.682 29.1094 155.51 28.8125 156.266 28.2188V29.4219C155.562 29.9323 154.633 30.1875 153.477 30.1875C152.346 30.1875 151.458 29.8255 150.812 29.1016C150.167 28.3724 149.844 27.349 149.844 26.0312C149.844 24.7865 150.195 23.7734 150.898 22.9922C151.607 22.2057 152.484 21.8125 153.531 21.8125C154.578 21.8125 155.388 22.151 155.961 22.8281C156.534 23.5052 156.82 24.4453 156.82 25.6484V26.3203ZM155.508 25.2344C155.503 24.4948 155.323 23.9193 154.969 23.5078C154.62 23.0964 154.133 22.8906 153.508 22.8906C152.904 22.8906 152.391 23.1068 151.969 23.5391C151.547 23.9714 151.286 24.5365 151.188 25.2344H155.508Z" fill="#ADBAC7"/>
<rect x="1" y="1" width="176" height="45" rx="4" stroke="#444C56" stroke-width="2"/>
<defs>
<clipPath id="clip0_28_5008">
<rect width="18" height="18" fill="white" transform="translate(16 14.5)"/>
</clipPath>
</defs>
</svg>
