<svg xmlns="http://www.w3.org/2000/svg" width="208" height="56" fill="none"><rect width="190" height="48" x="9" y="4" fill="#E1F5FE" rx="4"/><path fill="#37474F" d="M40 17.864a10.136 10.136 0 1 0 0 20.272 10.136 10.136 0 0 0 0-20.272Z"/><path fill="#FF7043" d="M40.568 28.623 41.853 32c.291.395.637.741 1.05.975 1.29.733 2.934.31 3.671-.944 0 0-5.859-3.296-6.006-3.408Z"/><path fill="#F16461" d="M40.568 28.623c.172.068 6.006 3.408 6.006 3.408.736-1.254.287-2.864-1.004-3.597-.413-.234-.89-.356-1.384-.406l-3.618.595Z"/><path fill="#FF5252" d="M45.064 29.358a4.022 4.022 0 0 0-.496-.232c.056.53-.045 1.08-.337 1.576a2.631 2.631 0 0 1-1.22 1.075c.147.113.297.218.453.306 1.617.917 2.668.7 3.11-.051.442-.753.107-1.757-1.51-2.674Z"/><path fill="#FF855F" d="M41.955 30.739c.314.379.67.742 1.056 1.037a2.628 2.628 0 0 0 1.22-1.075 2.564 2.564 0 0 0 .338-1.576 6.798 6.798 0 0 0-1.443-.38c.024.395-.064.802-.28 1.17a2.11 2.11 0 0 1-.891.824Z"/><path fill="#FF8A65" d="M43.012 31.777a6.65 6.65 0 0 1-1.057-1.038c-.225.11-.468.177-.717.205.17.365.373.727.615 1.057.4.009.795-.064 1.159-.224Z"/><path fill="#FF8A80" d="M43.126 28.745c.49.079.99.2 1.442.38a2.589 2.589 0 0 0-.382-1.097 6.404 6.404 0 0 0-1.238.005c.1.226.163.466.178.712Z"/><path fill="#FFCCBC" d="M42.846 29.915c.216-.368.304-.774.28-1.17-1.319-.21-2.558-.122-2.558-.122s.542 1.099 1.387 2.116c.36-.177.674-.455.89-.824Z"/><path fill="#FFAB91" d="M41.955 30.739c-.845-1.018-1.387-2.116-1.387-2.116a.251.251 0 0 0-.03.18c.083.396.294 1.269.7 2.141.249-.028.492-.094.717-.205Z"/><path fill="#FFCDD2" d="M42.948 28.033c-.971.09-1.846.347-2.236.475a.258.258 0 0 0-.144.115s1.24-.088 2.558.122a2.077 2.077 0 0 0-.178-.712Z"/><path fill="#C6CF47" d="M39.425 28.623c-.147.112-6.006 3.408-6.006 3.408.737 1.254 2.38 1.676 3.67.944.414-.235.76-.58 1.051-.976l1.285-3.376Z"/><path fill="#E1EB8A" d="m39.425 28.622-3.618-.594c-.494.05-.972.172-1.385.406-1.29.733-1.74 2.343-1.004 3.597.001 0 5.835-3.34 6.007-3.409Z"/><path fill="#DCE775" d="M36.53 32.083c.154-.088.304-.194.452-.306a2.628 2.628 0 0 1-1.22-1.075 2.564 2.564 0 0 1-.338-1.576c-.172.068-.34.144-.495.232-1.617.917-1.952 1.92-1.51 2.673.442.753 1.493.97 3.11.052Z"/><path fill="#FFF59D" d="M36.867 28.745a6.81 6.81 0 0 0-1.443.38c-.055.53.046 1.08.337 1.577a2.63 2.63 0 0 0 1.22 1.075c.387-.295.743-.66 1.057-1.038a2.11 2.11 0 0 1-.89-.823 2.06 2.06 0 0 1-.281-1.17Z"/><path fill="#E6EE9C" d="M35.424 29.126a6.804 6.804 0 0 1 1.443-.38c.015-.247.078-.487.178-.713a6.436 6.436 0 0 0-1.238-.005 2.593 2.593 0 0 0-.383 1.098Z"/><path fill="#FFD740" d="M38.038 30.739c-.314.379-.67.742-1.056 1.037.363.16.758.234 1.158.224.243-.33.446-.692.615-1.056a2.15 2.15 0 0 1-.717-.205Z"/><path fill="#FFF9C4" d="M37.148 29.915c.216.369.53.646.89.824a12.188 12.188 0 0 0 1.388-2.116s-1.24-.088-2.559.122c-.023.396.064.802.28 1.17Z"/><path fill="#F0F4C3" d="M36.867 28.745c1.319-.21 2.558-.122 2.558-.122a.26.26 0 0 0-.144-.115 10.723 10.723 0 0 0-2.236-.475c-.1.226-.163.466-.178.712Z"/><path fill="#FFE082" d="M38.755 30.944a10.23 10.23 0 0 0 .699-2.142.251.251 0 0 0-.029-.18s-.542 1.099-1.387 2.116c.225.112.468.178.717.206Z"/><path fill="#F44336" d="M49.267 30.483a9.529 9.529 0 0 1-.957 2.315l.923.533c.462-.798.82-1.66 1.063-2.572l-1.03-.276Z"/><path fill="#FFD740" d="m33.21 34.79-.754.755c.656.656 1.404 1.22 2.213 1.688l.534-.923a9.642 9.642 0 0 1-1.993-1.52Z"/><path fill="#AED581" d="M30.397 28H29.33c0 .956.138 1.877.374 2.76l1.03-.277A9.588 9.588 0 0 1 30.396 28Z"/><path fill="#FFF176" d="m31.69 32.798-.923.533c.468.809 1.032 1.556 1.689 2.213l.754-.754a9.638 9.638 0 0 1-1.52-1.992Z"/><path fill="#DCE775" d="m30.733 30.483-1.03.276c.245.911.602 1.774 1.064 2.572l.923-.533a9.532 9.532 0 0 1-.957-2.315Z"/><path fill="#FFCA28" d="m35.202 36.31-.533.923a10.6 10.6 0 0 0 2.572 1.063l.276-1.03a9.52 9.52 0 0 1-2.315-.956Z"/><path fill="#FF7043" d="m44.798 36.31.533.923a10.708 10.708 0 0 0 2.214-1.688l-.755-.755a9.642 9.642 0 0 1-1.992 1.52Z"/><path fill="#FB8C00" d="m42.483 37.267.276 1.03a10.608 10.608 0 0 0 2.572-1.064l-.533-.923a9.52 9.52 0 0 1-2.315.957Z"/><path fill="#FF5252" d="m46.79 34.79.755.755a10.712 10.712 0 0 0 1.688-2.214l-.923-.533a9.638 9.638 0 0 1-1.52 1.992Z"/><path fill="#FFB74D" d="m37.517 37.267-.276 1.03c.882.235 1.803.373 2.759.373v-1.067a9.58 9.58 0 0 1-2.483-.336Z"/><path fill="#FFA726" d="M40 37.603v1.067c.956 0 1.877-.138 2.76-.374l-.277-1.03a9.588 9.588 0 0 1-2.483.337Z"/><path fill="#64B5F6" d="m37.517 18.733-.276-1.03a10.61 10.61 0 0 0-2.572 1.064l.533.924a9.536 9.536 0 0 1 2.315-.958Z"/><path fill="#9575CD" d="m49.267 25.517 1.03-.276a10.61 10.61 0 0 0-1.064-2.572l-.923.533a9.52 9.52 0 0 1 .957 2.315Z"/><path fill="#7986CB" d="m48.31 23.202.923-.533a10.712 10.712 0 0 0-1.688-2.213l-.755.754a9.638 9.638 0 0 1 1.52 1.992Z"/><path fill="#8C9EFF" d="m46.79 21.21.755-.755a10.712 10.712 0 0 0-2.214-1.688l-.533.924a9.638 9.638 0 0 1 1.992 1.519Z"/><path fill="#82B1FF" d="m44.798 19.69.533-.923c-.798-.462-1.66-.82-2.572-1.063l-.276 1.03c.82.219 1.597.54 2.315.956Z"/><path fill="#F06292" d="M49.603 28h1.067c0-.956-.138-1.877-.374-2.76l-1.03.277c.213.793.337 1.623.337 2.483Z"/><path fill="#9CCC65" d="m30.733 25.517-1.03-.276A10.652 10.652 0 0 0 29.33 28h1.067c0-.86.124-1.69.337-2.483Z"/><path fill="#EF5350" d="m49.267 30.483 1.03.276c.235-.882.373-1.803.373-2.759h-1.067c0 .86-.124 1.69-.336 2.483Z"/><path fill="#64B5F6" d="m42.483 18.733.276-1.03A10.644 10.644 0 0 0 40 17.33v1.067c.86 0 1.69.124 2.483.336Z"/><path fill="#68C1B8" d="m33.21 21.21-.754-.755a10.708 10.708 0 0 0-1.689 2.214l.924.533a9.638 9.638 0 0 1 1.519-1.992Z"/><path fill="#81C784" d="m31.69 23.202-.923-.533c-.462.798-.82 1.66-1.063 2.572l1.03.276c.219-.82.54-1.596.956-2.315Z"/><path fill="#4DB6AC" d="m35.203 19.69-.534-.923a10.712 10.712 0 0 0-2.213 1.689l.754.754a9.638 9.638 0 0 1 1.992-1.52Z"/><path fill="#4BA9F5" d="M40 18.397V17.33c-.956 0-1.877.138-2.76.374l.277 1.03A9.587 9.587 0 0 1 40 18.396Z"/><path fill="#7986CB" d="M40 21.065V28a.26.26 0 0 0 .173-.067c.591-.522 2.494-2.346 2.494-4.17 0-1.49-1.194-2.698-2.666-2.698Z"/><path fill="#26A69A" d="M40 21.065c-1.473 0-2.667 1.208-2.667 2.699 0 1.823 1.903 3.647 2.494 4.17A.26.26 0 0 0 40 28v-6.935Z"/><path fill="#82B1FF" d="M40 21.065c-.884 0-1.6.8-1.6 2.667C38.4 25.647 40 28 40 28s1.6-2.353 1.6-4.268c0-1.867-.716-2.667-1.6-2.667Z"/><path fill="#4DB6AC" d="M40 21.065c.29 0 .502.049.532.056.92.21 1.602.942 1.602 1.81 0 .486-.219.93-.566 1.26.006-.037-1.418-3.11-1.568-3.126Z"/><path fill="#90CAF9" d="M40.971 26.218c-.448 1.014-.97 1.782-.97 1.782s-.524-.768-.972-1.782a2.685 2.685 0 0 0 1.942 0Z"/><path fill="#8DD0CA" d="M38.432 24.19a1.714 1.714 0 0 1-.566-1.258c0-.902.731-1.654 1.702-1.83.085-.016.342-.037.432-.037-.805.096-1.59 2.971-1.568 3.126Z"/><path fill="#80CBC4" d="M41.6 23.732c0 .075 0 .155-.01.23 0 .074-.01.154-.021.229-.39.373-.95.608-1.569.608a2.266 2.266 0 0 1-1.568-.608 3.364 3.364 0 0 1-.032-.459c0-1.75.63-2.56 1.435-2.657.053-.01.112-.01.165-.01a.86.86 0 0 1 .166.01c.149.016.298.06.432.134.042.021.085.048.128.074a.713.713 0 0 1 .128.102c.037.032.075.064.107.101.122.128.234.288.32.486a2.5 2.5 0 0 1 .074.176c.027.064.048.128.07.197.021.059.037.123.048.187.021.085.042.17.053.261.021.102.037.214.048.326.016.186.027.394.027.613Z"/><path fill="#9FA8DA" d="M42.657 23.972c-.134 1.755-1.915 3.463-2.486 3.964A.252.252 0 0 1 40 28s.523-.768.97-1.782a2.691 2.691 0 0 0 1.687-2.246Z"/><path fill="#81C784" d="M40 28a.252.252 0 0 1-.171-.064c-.571-.501-2.353-2.209-2.486-3.964a2.691 2.691 0 0 0 1.686 2.246c.448 1.014.97 1.782.97 1.782Z"/><path fill="#000" d="M69.469 34.5V23.297h3.094c3.947 0 5.921 1.82 5.921 5.46 0 1.73-.55 3.12-1.648 4.173-1.094 1.047-2.56 1.57-4.398 1.57h-2.97Zm1.312-10.016v8.828h1.672c1.469 0 2.612-.393 3.43-1.18.818-.786 1.226-1.9 1.226-3.343 0-2.87-1.526-4.305-4.578-4.305h-1.75ZM86.242 34.5h-1.281v-1.25h-.031c-.558.958-1.378 1.438-2.461 1.438-.797 0-1.422-.211-1.875-.633-.448-.422-.672-.982-.672-1.68 0-1.495.88-2.365 2.64-2.61l2.399-.335c0-1.36-.55-2.04-1.648-2.04-.964 0-1.834.329-2.61.985v-1.313c.787-.5 1.693-.75 2.719-.75 1.88 0 2.82.995 2.82 2.985V34.5Zm-1.281-4.047-1.93.266c-.594.083-1.041.232-1.344.445-.302.208-.453.58-.453 1.117 0 .39.138.711.414.961.282.245.654.367 1.118.367.635 0 1.158-.221 1.57-.664.417-.448.625-1.013.625-1.695v-.797Zm12.195-7.156L93.008 34.5h-1.445L87.5 23.297h1.46l3.103 8.883c.099.286.174.617.226.992h.031c.042-.313.128-.649.258-1.008l3.164-8.867h1.414Zm2.094 1.172a.812.812 0 0 1-.586-.235.791.791 0 0 1-.242-.593c0-.24.08-.438.242-.594a.798.798 0 0 1 .586-.242c.234 0 .432.08.594.242a.78.78 0 0 1 .25.594c0 .229-.084.424-.25.586a.808.808 0 0 1-.594.242Zm.625 10.031h-1.281v-8h1.281v8Zm9.234 0h-1.281v-4.563c0-1.697-.62-2.546-1.859-2.546-.641 0-1.172.242-1.594.726-.417.48-.625 1.086-.625 1.82V34.5h-1.281v-8h1.281v1.328h.031c.604-1.01 1.479-1.515 2.625-1.515.875 0 1.545.283 2.008.851.464.563.695 1.378.695 2.445V34.5Zm7.875-.367c-.614.37-1.343.554-2.187.554-1.141 0-2.063-.37-2.766-1.109-.698-.745-1.047-1.708-1.047-2.89 0-1.318.378-2.375 1.133-3.172.755-.802 1.763-1.203 3.024-1.203.703 0 1.323.13 1.859.39v1.313c-.594-.417-1.229-.625-1.906-.625-.818 0-1.49.294-2.016.882-.521.584-.781 1.352-.781 2.305 0 .938.245 1.677.734 2.219.495.542 1.157.812 1.985.812.698 0 1.354-.231 1.968-.695v1.219Zm2.594-9.664a.813.813 0 0 1-.828-.828c0-.24.081-.438.242-.594a.8.8 0 0 1 .586-.242.81.81 0 0 1 .594.242c.167.156.25.354.25.594 0 .229-.083.424-.25.586a.81.81 0 0 1-.594.242Zm.625 10.031h-1.281v-8h1.281v8Zm15.188 0h-1.563l-1.875-3.14a6.457 6.457 0 0 0-.5-.743 2.708 2.708 0 0 0-.5-.508 1.611 1.611 0 0 0-.547-.28 2.118 2.118 0 0 0-.656-.095h-1.078V34.5h-1.313V23.297h3.344c.49 0 .94.062 1.352.187.416.12.776.305 1.078.555.307.25.547.563.719.938.171.37.257.804.257 1.304 0 .39-.06.75-.179 1.078a2.738 2.738 0 0 1-.5.868 3.009 3.009 0 0 1-.782.656 4.01 4.01 0 0 1-1.023.414v.031c.187.084.349.18.484.29.141.103.274.228.399.374s.247.313.367.5c.125.182.263.396.414.64l2.102 3.368Zm-6.719-10.016v4.063h1.781c.328 0 .63-.05.906-.149.282-.099.524-.24.727-.421.203-.188.362-.415.476-.68.115-.271.172-.573.172-.906 0-.6-.195-1.065-.586-1.399-.385-.338-.945-.508-1.679-.508h-1.797Zm14.055 6.336h-5.649c.021.89.261 1.578.719 2.063.458.484 1.088.726 1.891.726.901 0 1.729-.297 2.484-.89v1.203c-.703.51-1.633.766-2.789.766-1.13 0-2.018-.363-2.664-1.086-.646-.73-.969-1.753-.969-3.07 0-1.245.352-2.259 1.055-3.04.708-.786 1.586-1.18 2.633-1.18 1.046 0 1.856.339 2.429 1.016.573.677.86 1.617.86 2.82v.672Zm-1.313-1.086c-.005-.74-.185-1.315-.539-1.726-.349-.412-.836-.617-1.461-.617a2.07 2.07 0 0 0-1.539.648c-.422.432-.682.997-.781 1.695h4.32Zm2.774 4.477v-1.375a3.789 3.789 0 0 0 2.304.773c1.125 0 1.688-.375 1.688-1.125a.938.938 0 0 0-.149-.539 1.348 1.348 0 0 0-.39-.398 2.749 2.749 0 0 0-.579-.305c-.218-.094-.455-.19-.71-.289-.355-.14-.667-.281-.938-.422a3.077 3.077 0 0 1-.672-.484 1.93 1.93 0 0 1-.406-.617 2.217 2.217 0 0 1-.133-.805c0-.375.086-.706.258-.992.172-.292.401-.534.687-.727.287-.198.612-.346.977-.445.37-.099.75-.148 1.141-.148.692 0 1.312.12 1.859.359v1.297c-.589-.386-1.266-.578-2.031-.578-.24 0-.456.028-.649.086a1.585 1.585 0 0 0-.5.226 1.112 1.112 0 0 0-.32.36.94.94 0 0 0-.109.453c0 .208.036.382.109.523.078.14.19.266.336.375.146.11.323.208.531.297.209.088.446.185.711.289.354.135.672.276.953.422.282.14.521.302.719.484.198.177.349.383.453.617.11.235.164.513.164.836 0 .396-.088.74-.265 1.032a2.204 2.204 0 0 1-.696.726 3.19 3.19 0 0 1-1.008.43c-.38.094-.778.14-1.195.14-.823 0-1.536-.158-2.14-.476Zm10.624.477c-1.182 0-2.127-.373-2.835-1.118-.704-.75-1.055-1.742-1.055-2.976 0-1.344.367-2.393 1.101-3.149.735-.755 1.727-1.133 2.977-1.133 1.193 0 2.122.368 2.789 1.102.672.734 1.008 1.753 1.008 3.055 0 1.276-.362 2.3-1.086 3.07-.719.766-1.685 1.148-2.899 1.148Zm.094-7.297c-.823 0-1.474.28-1.953.843-.479.558-.719 1.328-.719 2.313 0 .948.243 1.695.727 2.242.484.547 1.133.82 1.945.82.828 0 1.464-.268 1.906-.804.448-.537.672-1.3.672-2.29 0-1-.224-1.77-.672-2.312-.442-.541-1.078-.812-1.906-.812Zm7.219 7.109h-1.281V22.656h1.281V34.5Zm8.883-8-3.188 8h-1.258l-3.031-8h1.407l2.031 5.813c.151.427.245.799.281 1.117h.031c.052-.401.136-.763.25-1.086l2.125-5.844h1.352Zm7.812 4.32h-5.648c.021.89.26 1.578.719 2.063.458.484 1.088.726 1.89.726.901 0 1.729-.297 2.485-.89v1.203c-.704.51-1.633.766-2.789.766-1.131 0-2.019-.363-2.665-1.086-.645-.73-.968-1.753-.968-3.07 0-1.245.351-2.259 1.054-3.04.709-.786 1.586-1.18 2.633-1.18s1.857.339 2.43 1.016c.573.677.859 1.617.859 2.82v.672Zm-1.312-1.086c-.005-.74-.185-1.315-.539-1.726-.349-.412-.836-.617-1.461-.617a2.07 2.07 0 0 0-1.539.648c-.422.432-.683.997-.781 1.695h4.32Z"/><rect width="190" height="48" x="9" y="4" stroke="#03A9F4" stroke-width="2" rx="4"/></svg>