<svg xmlns="http://www.w3.org/2000/svg" width="148" height="56" fill="none"><rect width="130" height="48" x="9" y="4" fill="#FCE4EC" rx="4"/><path fill="#44B78B" d="M38.601 19h2.974v13.627c-1.27.26-2.561.395-3.857.401-3.632-.004-5.522-1.626-5.522-4.741 0-3 2.005-4.95 5.112-4.95.436-.009.871.041 1.293.15V19Zm0 6.857a2.995 2.995 0 0 0-1.002-.15c-1.5 0-2.373.917-2.373 2.524 0 1.565.83 2.43 2.354 2.43.342 0 .683-.026 1.021-.076v-4.728Z"/><path fill="#44B78B" d="M46.3 23.544v6.825c0 2.35-.176 3.48-.692 4.454A4.737 4.737 0 0 1 43.178 37l-2.759-1.3a4.281 4.281 0 0 0 2.356-1.972c.425-.84.559-1.815.559-4.377v-5.807H46.3Zm-2.97-4.529h2.974v3.021H43.33v-3.021Z"/><path fill="#000" d="M69.469 34.5V23.297h3.094c3.947 0 5.921 1.82 5.921 5.46 0 1.73-.55 3.12-1.648 4.173-1.094 1.047-2.56 1.57-4.398 1.57h-2.97Zm1.312-10.016v8.828h1.672c1.469 0 2.612-.393 3.43-1.18.818-.786 1.226-1.9 1.226-3.343 0-2.87-1.526-4.305-4.578-4.305h-1.75Zm11.016 9.68c0 1.313-.266 2.323-.797 3.031-.526.714-1.281 1.07-2.266 1.07-.364 0-.718-.083-1.062-.25V36.82c.385.235.75.352 1.094.352 1.166 0 1.75-.932 1.75-2.797V26.5h1.28v7.664Zm-.625-9.695a.812.812 0 0 1-.828-.828c0-.24.08-.438.242-.594a.798.798 0 0 1 .586-.242c.234 0 .432.08.594.242.166.156.25.354.25.594 0 .229-.084.424-.25.586a.808.808 0 0 1-.594.242ZM90.117 34.5h-1.281v-1.25h-.031c-.558.958-1.378 1.438-2.461 1.438-.797 0-1.422-.211-1.875-.633-.448-.422-.672-.982-.672-1.68 0-1.495.88-2.365 2.64-2.61l2.399-.335c0-1.36-.55-2.04-1.648-2.04-.964 0-1.834.329-2.61.985v-1.313c.787-.5 1.693-.75 2.719-.75 1.88 0 2.82.995 2.82 2.985V34.5Zm-1.281-4.047-1.93.266c-.594.083-1.041.232-1.344.445-.302.208-.453.58-.453 1.117 0 .39.138.711.414.961.282.245.654.367 1.118.367.635 0 1.158-.221 1.57-.664.417-.448.625-1.013.625-1.695v-.797ZM99.172 34.5H97.89v-4.563c0-1.697-.62-2.546-1.86-2.546-.64 0-1.172.242-1.594.726-.416.48-.624 1.086-.624 1.82V34.5H92.53v-8h1.281v1.328h.032c.604-1.01 1.479-1.515 2.625-1.515.875 0 1.544.283 2.008.851.463.563.695 1.378.695 2.445V34.5Zm9.25-.64c0 2.937-1.406 4.406-4.219 4.406-.989 0-1.854-.188-2.594-.563v-1.281c.901.5 1.761.75 2.579.75 1.968 0 2.953-1.047 2.953-3.14v-.876h-.032c-.609 1.021-1.526 1.532-2.75 1.532-.994 0-1.797-.355-2.406-1.063-.604-.714-.906-1.67-.906-2.867 0-1.36.325-2.44.976-3.242.657-.802 1.553-1.203 2.688-1.203 1.078 0 1.878.432 2.398 1.296h.032V26.5h1.281v7.36Zm-1.281-2.977v-1.18c0-.635-.217-1.18-.649-1.633-.427-.453-.961-.68-1.601-.68-.792 0-1.412.29-1.86.868-.448.573-.672 1.377-.672 2.414 0 .89.214 1.604.641 2.14.432.532 1.003.797 1.711.797.719 0 1.302-.255 1.75-.765.453-.51.68-1.164.68-1.961Zm7.218 3.805c-1.182 0-2.127-.373-2.836-1.118-.703-.75-1.054-1.742-1.054-2.976 0-1.344.367-2.393 1.101-3.149.735-.755 1.727-1.133 2.977-1.133 1.193 0 2.122.368 2.789 1.102.672.734 1.008 1.753 1.008 3.055 0 1.276-.362 2.3-1.086 3.07-.719.766-1.685 1.148-2.899 1.148Zm.094-7.297c-.823 0-1.474.28-1.953.843-.479.558-.719 1.328-.719 2.313 0 .948.242 1.695.727 2.242.484.547 1.133.82 1.945.82.828 0 1.464-.268 1.906-.804.448-.537.672-1.3.672-2.29 0-1-.224-1.77-.672-2.312-.442-.541-1.078-.812-1.906-.812Z"/><rect width="130" height="48" x="9" y="4" stroke="#E91E63" stroke-width="2" rx="4"/></svg>