<svg xmlns="http://www.w3.org/2000/svg" width="146" height="56" fill="none"><rect width="128" height="48" x="9" y="4" fill="#EDE7F6" rx="4"/><g clip-path="url(#a)"><path fill="#2396ED" d="M51.344 25.978c-.533-.37-1.754-.509-2.71-.324-.11-.924-.62-1.733-1.509-2.45l-.51-.369-.356.532c-.444.693-.666 1.663-.6 2.588.023.323.134.901.467 1.41-.31.184-.955.416-1.798.416H28.274l-.045.184c-.155.925-.155 3.813 1.665 6.032 1.377 1.687 3.42 2.542 6.106 2.542 5.817 0 10.125-2.797 12.145-7.857.8.023 2.51 0 3.375-1.734.023-.046.067-.138.222-.485l.09-.185-.49-.3ZM41.108 19.46h-2.442v2.311h2.442v-2.31Zm0 2.773h-2.442v2.311h2.442v-2.31Zm-2.886 0h-2.443v2.311h2.443v-2.31Zm-2.887 0h-2.442v2.311h2.442v-2.31Zm-2.886 2.773h-2.443v2.311h2.443v-2.31Zm2.886 0h-2.442v2.311h2.442v-2.31Zm2.887 0h-2.443v2.311h2.443v-2.31Zm2.886 0h-2.442v2.311h2.442v-2.31Zm2.887 0h-2.443v2.311h2.443v-2.31Z"/></g><path fill="#000" d="M69.469 34.5V23.297h3.094c3.947 0 5.921 1.82 5.921 5.46 0 1.73-.55 3.12-1.648 4.173-1.094 1.047-2.56 1.57-4.398 1.57h-2.97Zm1.312-10.016v8.828h1.672c1.469 0 2.612-.393 3.43-1.18.818-.786 1.226-1.9 1.226-3.343 0-2.87-1.526-4.305-4.578-4.305h-1.75ZM83.86 34.687c-1.182 0-2.127-.372-2.836-1.117-.703-.75-1.054-1.742-1.054-2.976 0-1.344.367-2.393 1.101-3.149.735-.755 1.727-1.133 2.977-1.133 1.193 0 2.122.368 2.789 1.102.672.734 1.008 1.753 1.008 3.055 0 1.276-.362 2.3-1.086 3.07-.719.766-1.685 1.148-2.899 1.148Zm.094-7.296c-.823 0-1.474.28-1.953.843-.48.558-.719 1.328-.719 2.313 0 .948.242 1.695.727 2.242.484.547 1.133.82 1.945.82.828 0 1.464-.268 1.906-.804.448-.537.672-1.3.672-2.29 0-1-.224-1.77-.672-2.312-.442-.541-1.078-.812-1.906-.812Zm11.39 6.742c-.614.37-1.343.554-2.187.554-1.14 0-2.062-.37-2.765-1.109-.698-.745-1.047-1.708-1.047-2.89 0-1.318.377-2.375 1.133-3.172.755-.802 1.763-1.203 3.023-1.203.703 0 1.323.13 1.86.39v1.313c-.594-.417-1.23-.625-1.907-.625-.818 0-1.49.294-2.016.882-.52.584-.78 1.352-.78 2.305 0 .938.244 1.677.734 2.219.494.542 1.156.812 1.984.812.698 0 1.354-.231 1.969-.695v1.219Zm8.579.367h-1.797l-3.531-3.844h-.031V34.5H97.28V22.656h1.281v7.508h.032l3.359-3.664h1.68l-3.711 3.86 4 4.14Zm7.742-3.68h-5.648c.02.89.26 1.578.718 2.063.459.484 1.089.726 1.891.726.901 0 1.729-.297 2.484-.89v1.203c-.703.51-1.632.766-2.789.766-1.13 0-2.018-.363-2.664-1.086-.646-.73-.968-1.753-.968-3.07 0-1.245.351-2.259 1.054-3.04.709-.786 1.586-1.18 2.633-1.18s1.857.339 2.43 1.016c.573.677.859 1.617.859 2.82v.672Zm-1.312-1.086c-.006-.74-.185-1.315-.54-1.726-.348-.412-.835-.617-1.46-.617a2.07 2.07 0 0 0-1.54.648c-.421.432-.682.997-.781 1.695h4.321Zm7.429-1.937c-.224-.172-.547-.258-.969-.258-.546 0-1.005.258-1.374.773-.365.516-.547 1.22-.547 2.11V34.5h-1.282v-8h1.282v1.648h.031c.182-.562.461-1 .836-1.312a1.897 1.897 0 0 1 1.258-.477c.333 0 .588.037.765.11v1.328Z"/><rect width="128" height="48" x="9" y="4" stroke="#673AB7" stroke-width="2" rx="4"/><defs><clipPath id="a"><path fill="#fff" d="M28.168 19.461h23.664v17.077H28.168z"/></clipPath></defs></svg>