<svg width="119" height="47" viewBox="0 0 119 47" fill="none" xmlns="http://www.w3.org/2000/svg">
<rect x="1" y="1" width="117" height="45" rx="4" fill="#22272E"/>
<g clip-path="url(#clip0_28_4927)">
<path d="M34 28.441C33.738 28.5401 33.4489 28.5399 33.187 28.4404C32.9252 28.3409 32.7088 28.149 32.5788 27.901L29.9913 24.3227L29.6163 23.8225L26.614 27.9055C26.4917 28.1431 26.2871 28.3281 26.0384 28.4258C25.7896 28.5236 25.5138 28.5274 25.2625 28.4365L29.131 23.2465L25.5325 18.5582C25.7913 18.465 26.0742 18.4638 26.3338 18.5547C26.5933 18.6457 26.8136 18.8234 26.9575 19.0577L29.6395 22.6802L32.3365 19.0727C32.4597 18.8393 32.6644 18.6593 32.9116 18.567C33.1589 18.4746 33.4314 18.4763 33.6775 18.5717L32.281 20.425L30.3895 22.8872C30.337 22.9341 30.2949 22.9915 30.2662 23.0558C30.2374 23.12 30.2225 23.1896 30.2225 23.26C30.2225 23.3304 30.2374 23.4 30.2662 23.4642C30.2949 23.5285 30.337 23.5859 30.3895 23.6327L33.9925 28.4417L34 28.441ZM16.0015 23.182L16.3165 21.6257C17.182 18.5485 20.71 17.2682 23.137 19.1732C24.5583 20.29 24.913 21.871 24.8433 23.653H16.837C16.7073 26.8352 19.0038 28.7567 21.94 27.775C22.416 27.6037 22.8421 27.3169 23.18 26.9405C23.518 26.564 23.7573 26.1096 23.8765 25.618C24.0318 25.1185 24.2875 25.033 24.757 25.177C24.6788 25.7863 24.4634 26.3699 24.1271 26.8839C23.7907 27.398 23.3422 27.8291 22.8153 28.1447C21.9448 28.6209 20.9461 28.8096 19.962 28.6839C18.9778 28.5582 18.0586 28.1246 17.3358 27.445C16.621 26.6405 16.1891 25.6244 16.1058 24.5515C16.1058 24.3752 16.0458 24.2102 16.0053 24.052C16.0016 23.7623 15.9999 23.4725 16 23.1827L16.0015 23.182ZM16.8468 22.9675H24.0873C24.0423 20.6605 22.5865 19.024 20.6448 19.009C18.4833 18.979 16.9368 20.5795 16.8415 22.957L16.8468 22.9675Z" fill="#ADBAC7"/>
</g>
<path d="M53.4062 30H47.4688V18.7969H53.1562V19.9844H48.7812V23.7109H52.8281V24.8906H48.7812V28.8125H53.4062V30ZM61.2344 22L58.5469 26.0469L61.1875 30H59.6953L58.125 27.4062C58.026 27.2448 57.9089 27.0417 57.7734 26.7969H57.7422C57.7161 26.8438 57.5938 27.0469 57.375 27.4062L55.7734 30H54.2969L57.0234 26.0781L54.4141 22H55.9062L57.4531 24.7344C57.5677 24.9375 57.6797 25.1458 57.7891 25.3594H57.8203L59.8203 22H61.2344ZM64.0469 28.8438H64.0156V33.6797H62.7344V22H64.0156V23.4062H64.0469C64.6771 22.3438 65.599 21.8125 66.8125 21.8125C67.8438 21.8125 68.6484 22.1719 69.2266 22.8906C69.8047 23.6042 70.0938 24.5625 70.0938 25.7656C70.0938 27.1042 69.7682 28.1771 69.1172 28.9844C68.4661 29.7865 67.5755 30.1875 66.4453 30.1875C65.4089 30.1875 64.6094 29.7396 64.0469 28.8438ZM64.0156 25.6172V26.7344C64.0156 27.3958 64.2292 27.9583 64.6562 28.4219C65.0885 28.8802 65.6354 29.1094 66.2969 29.1094C67.0729 29.1094 67.6797 28.8125 68.1172 28.2188C68.5599 27.625 68.7812 26.7995 68.7812 25.7422C68.7812 24.8516 68.5755 24.1536 68.1641 23.6484C67.7526 23.1432 67.1953 22.8906 66.4922 22.8906C65.7474 22.8906 65.1484 23.151 64.6953 23.6719C64.2422 24.1875 64.0156 24.8359 64.0156 25.6172ZM76.3125 23.2969C76.0885 23.125 75.7656 23.0391 75.3438 23.0391C74.7969 23.0391 74.3385 23.2969 73.9688 23.8125C73.6042 24.3281 73.4219 25.0312 73.4219 25.9219V30H72.1406V22H73.4219V23.6484H73.4531C73.6354 23.0859 73.9141 22.6484 74.2891 22.3359C74.6641 22.0182 75.0833 21.8594 75.5469 21.8594C75.8802 21.8594 76.1354 21.8958 76.3125 21.9688V23.2969ZM84.1328 26.3203H78.4844C78.5052 27.2109 78.7448 27.8984 79.2031 28.3828C79.6615 28.8672 80.2917 29.1094 81.0938 29.1094C81.9948 29.1094 82.8229 28.8125 83.5781 28.2188V29.4219C82.875 29.9323 81.9453 30.1875 80.7891 30.1875C79.6589 30.1875 78.7708 29.8255 78.125 29.1016C77.4792 28.3724 77.1562 27.349 77.1562 26.0312C77.1562 24.7865 77.5078 23.7734 78.2109 22.9922C78.9193 22.2057 79.7969 21.8125 80.8438 21.8125C81.8906 21.8125 82.7005 22.151 83.2734 22.8281C83.8464 23.5052 84.1328 24.4453 84.1328 25.6484V26.3203ZM82.8203 25.2344C82.8151 24.4948 82.6354 23.9193 82.2812 23.5078C81.9323 23.0964 81.4453 22.8906 80.8203 22.8906C80.2161 22.8906 79.7031 23.1068 79.2812 23.5391C78.8594 23.9714 78.599 24.5365 78.5 25.2344H82.8203ZM85.5938 29.7109V28.3359C86.2917 28.8516 87.0599 29.1094 87.8984 29.1094C89.0234 29.1094 89.5859 28.7344 89.5859 27.9844C89.5859 27.7708 89.5365 27.5911 89.4375 27.4453C89.3438 27.2943 89.2135 27.1615 89.0469 27.0469C88.8854 26.9323 88.6927 26.8307 88.4688 26.7422C88.25 26.6484 88.013 26.5521 87.7578 26.4531C87.4036 26.3125 87.0911 26.1719 86.8203 26.0312C86.5547 25.8854 86.3307 25.724 86.1484 25.5469C85.9714 25.3646 85.8359 25.1589 85.7422 24.9297C85.6536 24.7005 85.6094 24.4323 85.6094 24.125C85.6094 23.75 85.6953 23.4193 85.8672 23.1328C86.0391 22.8411 86.2682 22.599 86.5547 22.4062C86.8411 22.2083 87.1667 22.0599 87.5312 21.9609C87.901 21.862 88.2812 21.8125 88.6719 21.8125C89.3646 21.8125 89.9844 21.9323 90.5312 22.1719V23.4688C89.9427 23.0833 89.2656 22.8906 88.5 22.8906C88.2604 22.8906 88.0443 22.9193 87.8516 22.9766C87.6589 23.0286 87.4922 23.1042 87.3516 23.2031C87.2161 23.3021 87.1094 23.4219 87.0312 23.5625C86.9583 23.6979 86.9219 23.849 86.9219 24.0156C86.9219 24.224 86.9583 24.3984 87.0312 24.5391C87.1094 24.6797 87.2214 24.8047 87.3672 24.9141C87.513 25.0234 87.6901 25.1224 87.8984 25.2109C88.1068 25.2995 88.3438 25.3958 88.6094 25.5C88.9635 25.6354 89.2812 25.776 89.5625 25.9219C89.8438 26.0625 90.0833 26.224 90.2812 26.4062C90.4792 26.5833 90.6302 26.7891 90.7344 27.0234C90.8438 27.2578 90.8984 27.5365 90.8984 27.8594C90.8984 28.2552 90.8099 28.599 90.6328 28.8906C90.4609 29.1823 90.2292 29.4245 89.9375 29.6172C89.6458 29.8099 89.3099 29.9531 88.9297 30.0469C88.5495 30.1406 88.151 30.1875 87.7344 30.1875C86.9115 30.1875 86.1979 30.0286 85.5938 29.7109ZM92.3906 29.7109V28.3359C93.0885 28.8516 93.8568 29.1094 94.6953 29.1094C95.8203 29.1094 96.3828 28.7344 96.3828 27.9844C96.3828 27.7708 96.3333 27.5911 96.2344 27.4453C96.1406 27.2943 96.0104 27.1615 95.8438 27.0469C95.6823 26.9323 95.4896 26.8307 95.2656 26.7422C95.0469 26.6484 94.8099 26.5521 94.5547 26.4531C94.2005 26.3125 93.888 26.1719 93.6172 26.0312C93.3516 25.8854 93.1276 25.724 92.9453 25.5469C92.7682 25.3646 92.6328 25.1589 92.5391 24.9297C92.4505 24.7005 92.4062 24.4323 92.4062 24.125C92.4062 23.75 92.4922 23.4193 92.6641 23.1328C92.8359 22.8411 93.0651 22.599 93.3516 22.4062C93.638 22.2083 93.9635 22.0599 94.3281 21.9609C94.6979 21.862 95.0781 21.8125 95.4688 21.8125C96.1615 21.8125 96.7812 21.9323 97.3281 22.1719V23.4688C96.7396 23.0833 96.0625 22.8906 95.2969 22.8906C95.0573 22.8906 94.8411 22.9193 94.6484 22.9766C94.4557 23.0286 94.2891 23.1042 94.1484 23.2031C94.013 23.3021 93.9062 23.4219 93.8281 23.5625C93.7552 23.6979 93.7188 23.849 93.7188 24.0156C93.7188 24.224 93.7552 24.3984 93.8281 24.5391C93.9062 24.6797 94.0182 24.8047 94.1641 24.9141C94.3099 25.0234 94.487 25.1224 94.6953 25.2109C94.9036 25.2995 95.1406 25.3958 95.4062 25.5C95.7604 25.6354 96.0781 25.776 96.3594 25.9219C96.6406 26.0625 96.8802 26.224 97.0781 26.4062C97.276 26.5833 97.4271 26.7891 97.5312 27.0234C97.6406 27.2578 97.6953 27.5365 97.6953 27.8594C97.6953 28.2552 97.6068 28.599 97.4297 28.8906C97.2578 29.1823 97.026 29.4245 96.7344 29.6172C96.4427 29.8099 96.1068 29.9531 95.7266 30.0469C95.3464 30.1406 94.9479 30.1875 94.5312 30.1875C93.7083 30.1875 92.9948 30.0286 92.3906 29.7109Z" fill="#ADBAC7"/>
<rect x="1" y="1" width="117" height="45" rx="4" stroke="#444C56" stroke-width="2"/>
<defs>
<clipPath id="clip0_28_4927">
<rect width="18" height="18" fill="white" transform="translate(16 14.5)"/>
</clipPath>
</defs>
</svg>
