<svg xmlns="http://www.w3.org/2000/svg" width="149" height="56" fill="none"><rect width="131" height="48" x="9" y="4" fill="#FCE4EC" rx="4"/><g clip-path="url(#a)"><path fill="#000" d="M52 34.588a1.53 1.53 0 0 1-1.895-.72l-3.45-4.771-.5-.667-4.003 5.444a1.466 1.466 0 0 1-1.802.708l5.158-6.92-4.798-6.251a1.595 1.595 0 0 1 1.9.666l3.576 4.83 3.596-4.81a1.435 1.435 0 0 1 1.788-.668L49.708 23.9l-2.522 3.283a.666.666 0 0 0 0 .994l4.804 6.412.01-.001Zm-23.998-7.012.42-2.075c1.154-4.103 5.858-5.81 9.094-3.27 1.895 1.489 2.368 3.597 2.275 5.973H29.116c-.173 4.243 2.889 6.805 6.804 5.496a4.077 4.077 0 0 0 2.582-2.876c.207-.666.548-.78 1.174-.588a5.417 5.417 0 0 1-2.589 3.957 6.271 6.271 0 0 1-7.306-.933 6.575 6.575 0 0 1-1.64-3.858c0-.235-.08-.455-.134-.666A87.792 87.792 0 0 1 28 27.577l.002-.001Zm1.127-.286h9.654c-.06-3.076-2.001-5.258-4.59-5.278-2.882-.04-4.944 2.094-5.071 5.264l.007.014Z"/></g><path fill="#000" d="M75.406 34.5H69.47V23.297h5.687v1.187h-4.375v3.727h4.047v1.18h-4.047v3.922h4.625V34.5Zm7.828-8-2.687 4.047 2.64 3.953h-1.492l-1.57-2.594a16.23 16.23 0 0 1-.352-.61h-.03c-.027.048-.15.25-.368.61L77.773 34.5h-1.476l2.726-3.922-2.609-4.078h1.492l1.547 2.734c.115.203.227.412.336.625h.031l2-3.359h1.414Zm2.813 6.844h-.031v4.836h-1.282V26.5h1.282v1.406h.03c.631-1.062 1.553-1.593 2.766-1.593 1.032 0 1.836.359 2.415 1.078.578.713.867 1.672.867 2.875 0 1.338-.326 2.411-.977 3.218-.65.802-1.541 1.203-2.672 1.203-1.036 0-1.836-.447-2.398-1.343Zm-.031-3.227v1.117c0 .662.213 1.224.64 1.688.432.458.98.687 1.64.687.777 0 1.384-.297 1.821-.89.443-.594.664-1.42.664-2.477 0-.89-.206-1.588-.617-2.094-.411-.505-.969-.757-1.672-.757-.745 0-1.344.26-1.797.78-.453.517-.68 1.165-.68 1.946Zm12.296-2.32c-.224-.172-.546-.258-.968-.258-.547 0-1.005.258-1.375.773-.365.516-.547 1.22-.547 2.11V34.5H94.14v-8h1.28v1.648h.032c.182-.562.461-1 .836-1.312a1.897 1.897 0 0 1 1.258-.477c.333 0 .588.037.766.11v1.328Zm7.821 3.023h-5.649c.021.89.261 1.578.719 2.063.458.484 1.089.726 1.891.726.901 0 1.729-.297 2.484-.89v1.203c-.703.51-1.633.766-2.789.766-1.13 0-2.018-.363-2.664-1.086-.646-.73-.969-1.753-.969-3.07 0-1.245.352-2.259 1.055-3.04.708-.786 1.586-1.18 2.633-1.18s1.857.339 2.429 1.016c.573.677.86 1.617.86 2.82v.672Zm-1.313-1.086c-.005-.74-.185-1.315-.539-1.726-.349-.412-.836-.617-1.461-.617a2.07 2.07 0 0 0-1.539.648c-.422.432-.682.997-.781 1.695h4.32Zm2.774 4.477v-1.375a3.79 3.79 0 0 0 2.304.773c1.125 0 1.688-.375 1.688-1.125a.945.945 0 0 0-.148-.539 1.352 1.352 0 0 0-.391-.398 2.74 2.74 0 0 0-.578-.305c-.219-.094-.456-.19-.711-.289-.354-.14-.667-.281-.938-.422a3.127 3.127 0 0 1-.672-.484 1.93 1.93 0 0 1-.406-.617 2.239 2.239 0 0 1-.133-.805c0-.375.086-.706.258-.992.172-.292.401-.534.688-.727.286-.198.612-.346.976-.445.37-.099.75-.148 1.141-.148.693 0 1.312.12 1.859.359v1.297c-.588-.386-1.265-.578-2.031-.578-.24 0-.456.028-.648.086-.193.052-.36.127-.5.226a1.104 1.104 0 0 0-.321.36.94.94 0 0 0-.109.453c0 .208.036.382.109.523.078.14.19.266.336.375.146.11.323.208.531.297.209.088.446.185.711.289.355.135.672.276.953.422.282.14.521.302.719.484.198.177.349.383.453.617.11.235.164.513.164.836 0 .396-.088.74-.265 1.032a2.211 2.211 0 0 1-.695.726 3.21 3.21 0 0 1-1.008.43c-.381.094-.779.14-1.196.14-.823 0-1.536-.158-2.14-.476Zm6.797 0v-1.375a3.79 3.79 0 0 0 2.304.773c1.125 0 1.688-.375 1.688-1.125a.938.938 0 0 0-.149-.539 1.348 1.348 0 0 0-.39-.398 2.74 2.74 0 0 0-.578-.305c-.219-.094-.456-.19-.711-.289-.354-.14-.667-.281-.938-.422a3.127 3.127 0 0 1-.672-.484 1.93 1.93 0 0 1-.406-.617 2.239 2.239 0 0 1-.133-.805c0-.375.086-.706.258-.992.172-.292.401-.534.688-.727.286-.198.612-.346.976-.445.37-.099.75-.148 1.141-.148.692 0 1.312.12 1.859.359v1.297c-.588-.386-1.266-.578-2.031-.578-.24 0-.456.028-.649.086a1.585 1.585 0 0 0-.5.226 1.112 1.112 0 0 0-.32.36.94.94 0 0 0-.109.453c0 .208.036.382.109.523.078.14.19.266.336.375.146.11.323.208.531.297.209.088.446.185.711.289.354.135.672.276.953.422.282.14.521.302.719.484.198.177.349.383.453.617.11.235.164.513.164.836 0 .396-.088.74-.265 1.032a2.204 2.204 0 0 1-.696.726 3.195 3.195 0 0 1-1.007.43c-.381.094-.779.14-1.196.14-.823 0-1.536-.158-2.14-.476Z"/><rect width="131" height="48" x="9" y="4" stroke="#E91E63" stroke-width="2" rx="4"/><defs><clipPath id="a"><path fill="#fff" d="M28 16h24v24H28z"/></clipPath></defs></svg>