<svg width="80" height="28" viewBox="0 0 80 28" fill="none" xmlns="http://www.w3.org/2000/svg">
<g filter="url(#filter0_d)">
<path d="M2 5C2 2.23858 4.23858 0 7 0H73C75.7614 0 78 2.23858 78 5V19C78 21.7614 75.7614 24 73 24H7C4.23858 24 2 21.7614 2 19V5Z" fill="white"/>
<g clip-path="url(#clip0)">
<path d="M25 16.941C24.738 17.0401 24.4488 17.0399 24.187 16.9404C23.9252 16.8409 23.7088 16.649 23.5787 16.401L20.9912 12.8228L20.6162 12.3225L17.614 16.4055C17.4917 16.6431 17.2871 16.8281 17.0384 16.9258C16.7896 17.0236 16.5138 17.0274 16.2625 16.9365L20.131 11.7465L16.5325 7.05825C16.7912 6.96501 17.0742 6.96377 17.3338 7.05475C17.5933 7.14573 17.8136 7.32337 17.9575 7.55775L20.6395 11.1803L23.3365 7.57275C23.4597 7.33934 23.6644 7.15934 23.9116 7.06697C24.1589 6.9746 24.4314 6.9763 24.6775 7.07175L23.281 8.925L21.3895 11.3873C21.337 11.4341 21.2949 11.4915 21.2662 11.5558C21.2374 11.62 21.2225 11.6896 21.2225 11.76C21.2225 11.8304 21.2374 11.9 21.2662 11.9642C21.2949 12.0285 21.337 12.0859 21.3895 12.1328L24.9925 16.9418L25 16.941ZM7.00149 11.682L7.31649 10.1258C8.18199 7.0485 11.71 5.76825 14.137 7.67325C15.5582 8.79 15.913 10.371 15.8432 12.153H7.83699C7.70724 15.3353 10.0037 17.2568 12.94 16.275C13.416 16.1037 13.842 15.8169 14.18 15.4405C14.518 15.064 14.7573 14.6096 14.8765 14.118C15.0317 13.6185 15.2875 13.533 15.757 13.677C15.6788 14.2863 15.4634 14.8699 15.127 15.3839C14.7907 15.898 14.3422 16.3291 13.8152 16.6448C12.9448 17.1209 11.9461 17.3096 10.962 17.1839C9.97781 17.0582 9.05859 16.6246 8.33574 15.945C7.62102 15.1405 7.18905 14.1244 7.10574 13.0515C7.10574 12.8753 7.04574 12.7103 7.00524 12.552C7.00159 12.2623 6.99984 11.9725 6.99999 11.6828L7.00149 11.682ZM7.84674 11.4675H15.0872C15.0422 9.1605 13.5865 7.524 11.6447 7.509C9.48324 7.479 7.93674 9.0795 7.84149 11.457L7.84674 11.4675Z" fill="black"/>
</g>
<path d="M35.8125 12.0566H32.1152V15.0801H36.4102V16H30.9902V7.46875H36.3516V8.39453H32.1152V11.1367H35.8125V12.0566ZM39.7676 11.9746L41.1738 9.66016H42.4395L40.3652 12.7949L42.5039 16H41.25L39.7852 13.627L38.3203 16H37.0605L39.1992 12.7949L37.125 9.66016H38.3789L39.7676 11.9746ZM48.9492 12.9004C48.9492 13.8652 48.7285 14.6426 48.2871 15.2324C47.8457 15.8223 47.248 16.1172 46.4941 16.1172C45.7246 16.1172 45.1191 15.873 44.6777 15.3848V18.4375H43.5938V9.66016H44.584L44.6367 10.3633C45.0781 9.81641 45.6914 9.54297 46.4766 9.54297C47.2383 9.54297 47.8398 9.83008 48.2812 10.4043C48.7266 10.9785 48.9492 11.7773 48.9492 12.8008V12.9004ZM47.8652 12.7773C47.8652 12.0625 47.7129 11.498 47.4082 11.084C47.1035 10.6699 46.6855 10.4629 46.1543 10.4629C45.498 10.4629 45.0059 10.7539 44.6777 11.3359V14.3652C45.002 14.9434 45.498 15.2324 46.166 15.2324C46.6855 15.2324 47.0977 15.0273 47.4023 14.6172C47.7109 14.2031 47.8652 13.5898 47.8652 12.7773ZM53.3965 10.6328C53.2324 10.6055 53.0547 10.5918 52.8633 10.5918C52.1523 10.5918 51.6699 10.8945 51.416 11.5V16H50.332V9.66016H51.3867L51.4043 10.3926C51.7598 9.82617 52.2637 9.54297 52.916 9.54297C53.127 9.54297 53.2871 9.57031 53.3965 9.625V10.6328ZM56.9121 16.1172C56.0527 16.1172 55.3535 15.8359 54.8145 15.2734C54.2754 14.707 54.0059 13.9512 54.0059 13.0059V12.8066C54.0059 12.1777 54.125 11.6172 54.3633 11.125C54.6055 10.6289 54.9414 10.2422 55.3711 9.96484C55.8047 9.68359 56.2734 9.54297 56.7773 9.54297C57.6016 9.54297 58.2422 9.81445 58.6992 10.3574C59.1562 10.9004 59.3848 11.6777 59.3848 12.6895V13.1406H55.0898C55.1055 13.7656 55.2871 14.2715 55.6348 14.6582C55.9863 15.041 56.4316 15.2324 56.9707 15.2324C57.3535 15.2324 57.6777 15.1543 57.9434 14.998C58.209 14.8418 58.4414 14.6348 58.6406 14.377L59.3027 14.8926C58.7715 15.709 57.9746 16.1172 56.9121 16.1172ZM56.7773 10.4336C56.3398 10.4336 55.9727 10.5938 55.6758 10.9141C55.3789 11.2305 55.1953 11.6758 55.125 12.25H58.3008V12.168C58.2695 11.6172 58.1211 11.1914 57.8555 10.8906C57.5898 10.5859 57.2305 10.4336 56.7773 10.4336ZM64.3359 14.3184C64.3359 14.0254 64.2246 13.7988 64.002 13.6387C63.7832 13.4746 63.3984 13.334 62.8477 13.2168C62.3008 13.0996 61.8652 12.959 61.541 12.7949C61.2207 12.6309 60.9824 12.4355 60.8262 12.209C60.6738 11.9824 60.5977 11.7129 60.5977 11.4004C60.5977 10.8809 60.8164 10.4414 61.2539 10.082C61.6953 9.72266 62.2578 9.54297 62.9414 9.54297C63.6602 9.54297 64.2422 9.72852 64.6875 10.0996C65.1367 10.4707 65.3613 10.9453 65.3613 11.5234H64.2715C64.2715 11.2266 64.1445 10.9707 63.8906 10.7559C63.6406 10.541 63.3242 10.4336 62.9414 10.4336C62.5469 10.4336 62.2383 10.5195 62.0156 10.6914C61.793 10.8633 61.6816 11.0879 61.6816 11.3652C61.6816 11.627 61.7852 11.8242 61.9922 11.957C62.1992 12.0898 62.5723 12.2168 63.1113 12.3379C63.6543 12.459 64.0938 12.6035 64.4297 12.7715C64.7656 12.9395 65.0137 13.1426 65.1738 13.3809C65.3379 13.6152 65.4199 13.9023 65.4199 14.2422C65.4199 14.8086 65.1934 15.2637 64.7402 15.6074C64.2871 15.9473 63.6992 16.1172 62.9766 16.1172C62.4688 16.1172 62.0195 16.0273 61.6289 15.8477C61.2383 15.668 60.9316 15.418 60.709 15.0977C60.4902 14.7734 60.3809 14.4238 60.3809 14.0488H61.4648C61.4844 14.4121 61.6289 14.7012 61.8984 14.916C62.1719 15.127 62.5312 15.2324 62.9766 15.2324C63.3867 15.2324 63.7148 15.1504 63.9609 14.9863C64.2109 14.8184 64.3359 14.5957 64.3359 14.3184ZM70.5234 14.3184C70.5234 14.0254 70.4121 13.7988 70.1895 13.6387C69.9707 13.4746 69.5859 13.334 69.0352 13.2168C68.4883 13.0996 68.0527 12.959 67.7285 12.7949C67.4082 12.6309 67.1699 12.4355 67.0137 12.209C66.8613 11.9824 66.7852 11.7129 66.7852 11.4004C66.7852 10.8809 67.0039 10.4414 67.4414 10.082C67.8828 9.72266 68.4453 9.54297 69.1289 9.54297C69.8477 9.54297 70.4297 9.72852 70.875 10.0996C71.3242 10.4707 71.5488 10.9453 71.5488 11.5234H70.459C70.459 11.2266 70.332 10.9707 70.0781 10.7559C69.8281 10.541 69.5117 10.4336 69.1289 10.4336C68.7344 10.4336 68.4258 10.5195 68.2031 10.6914C67.9805 10.8633 67.8691 11.0879 67.8691 11.3652C67.8691 11.627 67.9727 11.8242 68.1797 11.957C68.3867 12.0898 68.7598 12.2168 69.2988 12.3379C69.8418 12.459 70.2812 12.6035 70.6172 12.7715C70.9531 12.9395 71.2012 13.1426 71.3613 13.3809C71.5254 13.6152 71.6074 13.9023 71.6074 14.2422C71.6074 14.8086 71.3809 15.2637 70.9277 15.6074C70.4746 15.9473 69.8867 16.1172 69.1641 16.1172C68.6562 16.1172 68.207 16.0273 67.8164 15.8477C67.4258 15.668 67.1191 15.418 66.8965 15.0977C66.6777 14.7734 66.5684 14.4238 66.5684 14.0488H67.6523C67.6719 14.4121 67.8164 14.7012 68.0859 14.916C68.3594 15.127 68.7188 15.2324 69.1641 15.2324C69.5742 15.2324 69.9023 15.1504 70.1484 14.9863C70.3984 14.8184 70.5234 14.5957 70.5234 14.3184Z" fill="black"/>
</g>
<defs>
<filter id="filter0_d" x="0" y="0" width="80" height="28" filterUnits="userSpaceOnUse" color-interpolation-filters="sRGB">
<feFlood flood-opacity="0" result="BackgroundImageFix"/>
<feColorMatrix in="SourceAlpha" type="matrix" values="0 0 0 0 0 0 0 0 0 0 0 0 0 0 0 0 0 0 127 0" result="hardAlpha"/>
<feOffset dy="2"/>
<feGaussianBlur stdDeviation="1"/>
<feComposite in2="hardAlpha" operator="out"/>
<feColorMatrix type="matrix" values="0 0 0 0 0 0 0 0 0 0 0 0 0 0 0 0 0 0 0.25 0"/>
<feBlend mode="normal" in2="BackgroundImageFix" result="effect1_dropShadow"/>
<feBlend mode="normal" in="SourceGraphic" in2="effect1_dropShadow" result="shape"/>
</filter>
<clipPath id="clip0">
<rect width="18" height="18" fill="white" transform="translate(7 3)"/>
</clipPath>
</defs>
</svg>
