<svg width="98" height="39" viewBox="0 0 98 39" fill="none" xmlns="http://www.w3.org/2000/svg">
<path d="M1 4C1 2.34315 2.34315 1 4 1H94C95.6569 1 97 2.34315 97 4V35C97 36.6569 95.6569 38 94 38H4C2.34315 38 1 36.6569 1 35V4Z" fill="#22272E"/>
<g clip-path="url(#clip0)">
<path d="M29 24.441C28.738 24.5401 28.4489 24.5399 28.187 24.4404C27.9252 24.3409 27.7088 24.149 27.5788 23.901L24.9913 20.3227L24.6163 19.8225L21.614 23.9055C21.4917 24.1431 21.2871 24.3281 21.0384 24.4258C20.7896 24.5236 20.5138 24.5273 20.2625 24.4365L24.131 19.2465L20.5325 14.5582C20.7913 14.465 21.0742 14.4638 21.3338 14.5547C21.5933 14.6457 21.8136 14.8234 21.9575 15.0577L24.6395 18.6802L27.3365 15.0727C27.4597 14.8393 27.6644 14.6593 27.9116 14.567C28.1589 14.4746 28.4314 14.4763 28.6775 14.5717L27.281 16.425L25.3895 18.8872C25.337 18.9341 25.2949 18.9915 25.2662 19.0558C25.2374 19.12 25.2225 19.1896 25.2225 19.26C25.2225 19.3304 25.2374 19.4 25.2662 19.4642C25.2949 19.5284 25.337 19.5859 25.3895 19.6327L28.9925 24.4417L29 24.441ZM11.0015 19.182L11.3165 17.6257C12.182 14.5485 15.71 13.2682 18.137 15.1732C19.5583 16.29 19.913 17.871 19.8433 19.653H11.837C11.7073 22.8352 14.0038 24.7567 16.94 23.775C17.416 23.6036 17.8421 23.3169 18.18 22.9405C18.518 22.564 18.7573 22.1096 18.8765 21.618C19.0318 21.1185 19.2875 21.033 19.757 21.177C19.6788 21.7863 19.4634 22.3699 19.1271 22.8839C18.7907 23.398 18.3422 23.829 17.8153 24.1447C16.9448 24.6209 15.9461 24.8096 14.962 24.6839C13.9778 24.5582 13.0586 24.1246 12.3358 23.445C11.621 22.6405 11.1891 21.6244 11.1058 20.5515C11.1058 20.3752 11.0458 20.2102 11.0053 20.052C11.0016 19.7623 10.9999 19.4725 11 19.1827L11.0015 19.182ZM11.8468 18.9675H19.0873C19.0423 16.6605 17.5865 15.024 15.6448 15.009C13.4833 14.979 11.9368 16.5795 11.8415 18.957L11.8468 18.9675Z" fill="#ADBAC7"/>
</g>
<path d="M47.4805 25H42.2852V15.1973H47.2617V16.2363H43.4336V19.4971H46.9746V20.5293H43.4336V23.9609H47.4805V25ZM54.3301 18L51.9785 21.541L54.2891 25H52.9834L51.6094 22.7305C51.5228 22.5892 51.4202 22.4115 51.3018 22.1973H51.2744C51.2516 22.2383 51.1445 22.416 50.9531 22.7305L49.5518 25H48.2598L50.6455 21.5684L48.3623 18H49.668L51.0215 20.3926C51.1217 20.5703 51.2197 20.7526 51.3154 20.9395H51.3428L53.0928 18H54.3301ZM56.791 23.9883H56.7637V28.2197H55.6426V18H56.7637V19.2305H56.791C57.3424 18.3008 58.1491 17.8359 59.2109 17.8359C60.1133 17.8359 60.8174 18.1504 61.3232 18.7793C61.8291 19.4036 62.082 20.2422 62.082 21.2949C62.082 22.4661 61.7972 23.4049 61.2275 24.1113C60.6579 24.8132 59.8786 25.1641 58.8896 25.1641C57.9827 25.1641 57.2832 24.7721 56.791 23.9883ZM56.7637 21.165V22.1426C56.7637 22.7214 56.9505 23.2135 57.3242 23.6191C57.7025 24.0202 58.181 24.2207 58.7598 24.2207C59.4388 24.2207 59.9697 23.9609 60.3525 23.4414C60.7399 22.9219 60.9336 22.1995 60.9336 21.2744C60.9336 20.4951 60.7536 19.8844 60.3936 19.4424C60.0335 19.0003 59.5459 18.7793 58.9307 18.7793C58.279 18.7793 57.7549 19.0072 57.3584 19.4629C56.9619 19.9141 56.7637 20.4814 56.7637 21.165ZM67.5234 19.1348C67.3275 18.9844 67.0449 18.9092 66.6758 18.9092C66.1973 18.9092 65.7962 19.1348 65.4727 19.5859C65.1536 20.0371 64.9941 20.6523 64.9941 21.4316V25H63.873V18H64.9941V19.4424H65.0215C65.181 18.9502 65.4248 18.5674 65.7529 18.2939C66.0811 18.016 66.4479 17.877 66.8535 17.877C67.1452 17.877 67.3685 17.9089 67.5234 17.9727V19.1348ZM74.1748 21.7803H69.2324C69.2507 22.5596 69.4603 23.1611 69.8613 23.585C70.2624 24.0088 70.8138 24.2207 71.5156 24.2207C72.304 24.2207 73.0286 23.9609 73.6895 23.4414V24.4941C73.0742 24.9408 72.2607 25.1641 71.249 25.1641C70.2601 25.1641 69.4831 24.8473 68.918 24.2139C68.3529 23.5758 68.0703 22.6803 68.0703 21.5273C68.0703 20.4382 68.3779 19.5518 68.9932 18.8682C69.613 18.18 70.3809 17.8359 71.2969 17.8359C72.2129 17.8359 72.9215 18.1322 73.4229 18.7246C73.9242 19.3171 74.1748 20.1396 74.1748 21.1924V21.7803ZM73.0264 20.8301C73.0218 20.1829 72.8646 19.6794 72.5547 19.3193C72.2493 18.9593 71.8232 18.7793 71.2764 18.7793C70.7477 18.7793 70.2988 18.9684 69.9297 19.3467C69.5605 19.7249 69.3327 20.2194 69.2461 20.8301H73.0264ZM75.4531 24.7471V23.5439C76.0638 23.9951 76.736 24.2207 77.4697 24.2207C78.4541 24.2207 78.9463 23.8926 78.9463 23.2363C78.9463 23.0495 78.903 22.8923 78.8164 22.7646C78.7344 22.6325 78.6204 22.5163 78.4746 22.416C78.3333 22.3158 78.1647 22.2269 77.9688 22.1494C77.7773 22.0674 77.57 21.9831 77.3467 21.8965C77.0368 21.7734 76.7633 21.6504 76.5264 21.5273C76.2939 21.3997 76.098 21.2585 75.9385 21.1035C75.7835 20.944 75.665 20.764 75.583 20.5635C75.5055 20.363 75.4668 20.1283 75.4668 19.8594C75.4668 19.5312 75.542 19.2419 75.6924 18.9912C75.8428 18.736 76.0433 18.5241 76.2939 18.3555C76.5446 18.1823 76.8294 18.0524 77.1484 17.9658C77.472 17.8792 77.8047 17.8359 78.1465 17.8359C78.7526 17.8359 79.2949 17.9408 79.7734 18.1504V19.2852C79.2585 18.9479 78.666 18.7793 77.9961 18.7793C77.7865 18.7793 77.5973 18.8044 77.4287 18.8545C77.2601 18.9001 77.1143 18.9661 76.9912 19.0527C76.8727 19.1393 76.7793 19.2441 76.7109 19.3672C76.6471 19.4857 76.6152 19.6178 76.6152 19.7637C76.6152 19.946 76.6471 20.0986 76.7109 20.2217C76.7793 20.3447 76.8773 20.4541 77.0049 20.5498C77.1325 20.6455 77.2874 20.7321 77.4697 20.8096C77.652 20.887 77.8594 20.9714 78.0918 21.0625C78.4017 21.181 78.6797 21.304 78.9258 21.4316C79.1719 21.5547 79.3815 21.696 79.5547 21.8555C79.7279 22.0104 79.86 22.1904 79.9512 22.3955C80.0469 22.6006 80.0947 22.8444 80.0947 23.127C80.0947 23.4733 80.0173 23.7741 79.8623 24.0293C79.7119 24.2845 79.5091 24.4964 79.2539 24.665C78.9987 24.8337 78.7048 24.959 78.3721 25.041C78.0394 25.123 77.6908 25.1641 77.3262 25.1641C76.6061 25.1641 75.9818 25.0251 75.4531 24.7471ZM81.4004 24.7471V23.5439C82.0111 23.9951 82.6833 24.2207 83.417 24.2207C84.4014 24.2207 84.8936 23.8926 84.8936 23.2363C84.8936 23.0495 84.8503 22.8923 84.7637 22.7646C84.6816 22.6325 84.5677 22.5163 84.4219 22.416C84.2806 22.3158 84.112 22.2269 83.916 22.1494C83.7246 22.0674 83.5173 21.9831 83.2939 21.8965C82.984 21.7734 82.7106 21.6504 82.4736 21.5273C82.2412 21.3997 82.0452 21.2585 81.8857 21.1035C81.7308 20.944 81.6123 20.764 81.5303 20.5635C81.4528 20.363 81.4141 20.1283 81.4141 19.8594C81.4141 19.5312 81.4893 19.2419 81.6396 18.9912C81.79 18.736 81.9906 18.5241 82.2412 18.3555C82.4919 18.1823 82.7767 18.0524 83.0957 17.9658C83.4193 17.8792 83.752 17.8359 84.0938 17.8359C84.6999 17.8359 85.2422 17.9408 85.7207 18.1504V19.2852C85.2057 18.9479 84.6133 18.7793 83.9434 18.7793C83.7337 18.7793 83.5446 18.8044 83.376 18.8545C83.2074 18.9001 83.0615 18.9661 82.9385 19.0527C82.82 19.1393 82.7266 19.2441 82.6582 19.3672C82.5944 19.4857 82.5625 19.6178 82.5625 19.7637C82.5625 19.946 82.5944 20.0986 82.6582 20.2217C82.7266 20.3447 82.8245 20.4541 82.9521 20.5498C83.0798 20.6455 83.2347 20.7321 83.417 20.8096C83.5993 20.887 83.8066 20.9714 84.0391 21.0625C84.349 21.181 84.627 21.304 84.873 21.4316C85.1191 21.5547 85.3288 21.696 85.502 21.8555C85.6751 22.0104 85.8073 22.1904 85.8984 22.3955C85.9941 22.6006 86.042 22.8444 86.042 23.127C86.042 23.4733 85.9645 23.7741 85.8096 24.0293C85.6592 24.2845 85.4564 24.4964 85.2012 24.665C84.946 24.8337 84.652 24.959 84.3193 25.041C83.9867 25.123 83.638 25.1641 83.2734 25.1641C82.5534 25.1641 81.929 25.0251 81.4004 24.7471Z" fill="#ADBAC7"/>
<path d="M4 2H94V0H4V2ZM96 4V35H98V4H96ZM94 37H4V39H94V37ZM2 35V4H0V35H2ZM4 37C2.89543 37 2 36.1046 2 35H0C0 37.2091 1.79086 39 4 39V37ZM96 35C96 36.1046 95.1046 37 94 37V39C96.2091 39 98 37.2091 98 35H96ZM94 2C95.1046 2 96 2.89543 96 4H98C98 1.79086 96.2091 0 94 0V2ZM4 0C1.79086 0 0 1.79086 0 4H2C2 2.89543 2.89543 2 4 2V0Z" fill="#444C56"/>
<defs>
<clipPath id="clip0">
<rect width="18" height="18" fill="white" transform="translate(11 10.5)"/>
</clipPath>
</defs>
</svg>
