<svg width="117" height="45" viewBox="0 0 117 45" fill="none" xmlns="http://www.w3.org/2000/svg">
<path d="M1 4C1 2.34314 2.34315 1 4 1H113C114.657 1 116 2.34315 116 4V41C116 42.6569 114.657 44 113 44H4C2.34315 44 1 42.6569 1 41V4Z" fill="#22272E"/>
<g clip-path="url(#clip0)">
<path d="M33 27.441C32.738 27.5401 32.4489 27.5399 32.187 27.4404C31.9252 27.3409 31.7088 27.149 31.5788 26.901L28.9913 23.3227L28.6163 22.8225L25.614 26.9055C25.4917 27.1431 25.2871 27.3281 25.0384 27.4258C24.7896 27.5236 24.5138 27.5273 24.2625 27.4365L28.131 22.2465L24.5325 17.5582C24.7913 17.465 25.0742 17.4638 25.3338 17.5547C25.5933 17.6457 25.8136 17.8234 25.9575 18.0577L28.6395 21.6802L31.3365 18.0727C31.4597 17.8393 31.6644 17.6593 31.9116 17.567C32.1589 17.4746 32.4314 17.4763 32.6775 17.5717L31.281 19.425L29.3895 21.8872C29.337 21.9341 29.2949 21.9915 29.2662 22.0558C29.2374 22.12 29.2225 22.1896 29.2225 22.26C29.2225 22.3304 29.2374 22.4 29.2662 22.4642C29.2949 22.5284 29.337 22.5859 29.3895 22.6327L32.9925 27.4417L33 27.441ZM15.0015 22.182L15.3165 20.6257C16.182 17.5485 19.71 16.2682 22.137 18.1732C23.5583 19.29 23.913 20.871 23.8433 22.653H15.837C15.7073 25.8352 18.0038 27.7567 20.94 26.775C21.416 26.6036 21.8421 26.3169 22.18 25.9405C22.518 25.564 22.7573 25.1096 22.8765 24.618C23.0318 24.1185 23.2875 24.033 23.757 24.177C23.6788 24.7863 23.4634 25.3699 23.1271 25.8839C22.7907 26.398 22.3422 26.829 21.8153 27.1447C20.9448 27.6209 19.9461 27.8096 18.962 27.6839C17.9778 27.5582 17.0586 27.1246 16.3358 26.445C15.621 25.6405 15.1891 24.6244 15.1058 23.5515C15.1058 23.3752 15.0458 23.2102 15.0053 23.052C15.0016 22.7623 14.9999 22.4725 15 22.1827L15.0015 22.182ZM15.8468 21.9675H23.0873C23.0423 19.6605 21.5865 18.024 19.6448 18.009C17.4833 17.979 15.9368 19.5795 15.8415 21.957L15.8468 21.9675Z" fill="#ADBAC7"/>
</g>
<path d="M52.4062 29H46.4688V17.7969H52.1562V18.9844H47.7812V22.7109H51.8281V23.8906H47.7812V27.8125H52.4062V29ZM60.2344 21L57.5469 25.0469L60.1875 29H58.6953L57.125 26.4062C57.026 26.2448 56.9089 26.0417 56.7734 25.7969H56.7422C56.7161 25.8438 56.5938 26.0469 56.375 26.4062L54.7734 29H53.2969L56.0234 25.0781L53.4141 21H54.9062L56.4531 23.7344C56.5677 23.9375 56.6797 24.1458 56.7891 24.3594H56.8203L58.8203 21H60.2344ZM63.0469 27.8438H63.0156V32.6797H61.7344V21H63.0156V22.4062H63.0469C63.6771 21.3438 64.599 20.8125 65.8125 20.8125C66.8438 20.8125 67.6484 21.1719 68.2266 21.8906C68.8047 22.6042 69.0938 23.5625 69.0938 24.7656C69.0938 26.1042 68.7682 27.1771 68.1172 27.9844C67.4661 28.7865 66.5755 29.1875 65.4453 29.1875C64.4089 29.1875 63.6094 28.7396 63.0469 27.8438ZM63.0156 24.6172V25.7344C63.0156 26.3958 63.2292 26.9583 63.6562 27.4219C64.0885 27.8802 64.6354 28.1094 65.2969 28.1094C66.0729 28.1094 66.6797 27.8125 67.1172 27.2188C67.5599 26.625 67.7812 25.7995 67.7812 24.7422C67.7812 23.8516 67.5755 23.1536 67.1641 22.6484C66.7526 22.1432 66.1953 21.8906 65.4922 21.8906C64.7474 21.8906 64.1484 22.151 63.6953 22.6719C63.2422 23.1875 63.0156 23.8359 63.0156 24.6172ZM75.3125 22.2969C75.0885 22.125 74.7656 22.0391 74.3438 22.0391C73.7969 22.0391 73.3385 22.2969 72.9688 22.8125C72.6042 23.3281 72.4219 24.0312 72.4219 24.9219V29H71.1406V21H72.4219V22.6484H72.4531C72.6354 22.0859 72.9141 21.6484 73.2891 21.3359C73.6641 21.0182 74.0833 20.8594 74.5469 20.8594C74.8802 20.8594 75.1354 20.8958 75.3125 20.9688V22.2969ZM82.9141 25.3203H77.2656C77.2865 26.2109 77.526 26.8984 77.9844 27.3828C78.4427 27.8672 79.0729 28.1094 79.875 28.1094C80.776 28.1094 81.6042 27.8125 82.3594 27.2188V28.4219C81.6562 28.9323 80.7266 29.1875 79.5703 29.1875C78.4401 29.1875 77.5521 28.8255 76.9062 28.1016C76.2604 27.3724 75.9375 26.349 75.9375 25.0312C75.9375 23.7865 76.2891 22.7734 76.9922 21.9922C77.7005 21.2057 78.5781 20.8125 79.625 20.8125C80.6719 20.8125 81.4818 21.151 82.0547 21.8281C82.6276 22.5052 82.9141 23.4453 82.9141 24.6484V25.3203ZM81.6016 24.2344C81.5964 23.4948 81.4167 22.9193 81.0625 22.5078C80.7135 22.0964 80.2266 21.8906 79.6016 21.8906C78.9974 21.8906 78.4844 22.1068 78.0625 22.5391C77.6406 22.9714 77.3802 23.5365 77.2812 24.2344H81.6016ZM84.375 28.7109V27.3359C85.0729 27.8516 85.8411 28.1094 86.6797 28.1094C87.8047 28.1094 88.3672 27.7344 88.3672 26.9844C88.3672 26.7708 88.3177 26.5911 88.2188 26.4453C88.125 26.2943 87.9948 26.1615 87.8281 26.0469C87.6667 25.9323 87.474 25.8307 87.25 25.7422C87.0312 25.6484 86.7943 25.5521 86.5391 25.4531C86.1849 25.3125 85.8724 25.1719 85.6016 25.0312C85.3359 24.8854 85.112 24.724 84.9297 24.5469C84.7526 24.3646 84.6172 24.1589 84.5234 23.9297C84.4349 23.7005 84.3906 23.4323 84.3906 23.125C84.3906 22.75 84.4766 22.4193 84.6484 22.1328C84.8203 21.8411 85.0495 21.599 85.3359 21.4062C85.6224 21.2083 85.9479 21.0599 86.3125 20.9609C86.6823 20.862 87.0625 20.8125 87.4531 20.8125C88.1458 20.8125 88.7656 20.9323 89.3125 21.1719V22.4688C88.724 22.0833 88.0469 21.8906 87.2812 21.8906C87.0417 21.8906 86.8255 21.9193 86.6328 21.9766C86.4401 22.0286 86.2734 22.1042 86.1328 22.2031C85.9974 22.3021 85.8906 22.4219 85.8125 22.5625C85.7396 22.6979 85.7031 22.849 85.7031 23.0156C85.7031 23.224 85.7396 23.3984 85.8125 23.5391C85.8906 23.6797 86.0026 23.8047 86.1484 23.9141C86.2943 24.0234 86.4714 24.1224 86.6797 24.2109C86.888 24.2995 87.125 24.3958 87.3906 24.5C87.7448 24.6354 88.0625 24.776 88.3438 24.9219C88.625 25.0625 88.8646 25.224 89.0625 25.4062C89.2604 25.5833 89.4115 25.7891 89.5156 26.0234C89.625 26.2578 89.6797 26.5365 89.6797 26.8594C89.6797 27.2552 89.5911 27.599 89.4141 27.8906C89.2422 28.1823 89.0104 28.4245 88.7188 28.6172C88.4271 28.8099 88.0911 28.9531 87.7109 29.0469C87.3307 29.1406 86.9323 29.1875 86.5156 29.1875C85.6927 29.1875 84.9792 29.0286 84.375 28.7109ZM91.1719 28.7109V27.3359C91.8698 27.8516 92.638 28.1094 93.4766 28.1094C94.6016 28.1094 95.1641 27.7344 95.1641 26.9844C95.1641 26.7708 95.1146 26.5911 95.0156 26.4453C94.9219 26.2943 94.7917 26.1615 94.625 26.0469C94.4635 25.9323 94.2708 25.8307 94.0469 25.7422C93.8281 25.6484 93.5911 25.5521 93.3359 25.4531C92.9818 25.3125 92.6693 25.1719 92.3984 25.0312C92.1328 24.8854 91.9089 24.724 91.7266 24.5469C91.5495 24.3646 91.4141 24.1589 91.3203 23.9297C91.2318 23.7005 91.1875 23.4323 91.1875 23.125C91.1875 22.75 91.2734 22.4193 91.4453 22.1328C91.6172 21.8411 91.8464 21.599 92.1328 21.4062C92.4193 21.2083 92.7448 21.0599 93.1094 20.9609C93.4792 20.862 93.8594 20.8125 94.25 20.8125C94.9427 20.8125 95.5625 20.9323 96.1094 21.1719V22.4688C95.5208 22.0833 94.8438 21.8906 94.0781 21.8906C93.8385 21.8906 93.6224 21.9193 93.4297 21.9766C93.237 22.0286 93.0703 22.1042 92.9297 22.2031C92.7943 22.3021 92.6875 22.4219 92.6094 22.5625C92.5365 22.6979 92.5 22.849 92.5 23.0156C92.5 23.224 92.5365 23.3984 92.6094 23.5391C92.6875 23.6797 92.7995 23.8047 92.9453 23.9141C93.0911 24.0234 93.2682 24.1224 93.4766 24.2109C93.6849 24.2995 93.9219 24.3958 94.1875 24.5C94.5417 24.6354 94.8594 24.776 95.1406 24.9219C95.4219 25.0625 95.6615 25.224 95.8594 25.4062C96.0573 25.5833 96.2083 25.7891 96.3125 26.0234C96.4219 26.2578 96.4766 26.5365 96.4766 26.8594C96.4766 27.2552 96.388 27.599 96.2109 27.8906C96.0391 28.1823 95.8073 28.4245 95.5156 28.6172C95.224 28.8099 94.888 28.9531 94.5078 29.0469C94.1276 29.1406 93.7292 29.1875 93.3125 29.1875C92.4896 29.1875 91.776 29.0286 91.1719 28.7109Z" fill="#ADBAC7"/>
<path d="M4 2H113V0H4V2ZM115 4V41H117V4H115ZM113 43H4V45H113V43ZM2 41V4H0V41H2ZM4 43C2.89543 43 2 42.1046 2 41H0C0 43.2091 1.79087 45 4 45V43ZM115 41C115 42.1046 114.105 43 113 43V45C115.209 45 117 43.2091 117 41H115ZM113 2C114.105 2 115 2.89543 115 4H117C117 1.79086 115.209 0 113 0V2ZM4 0C1.79086 0 0 1.79086 0 4H2C2 2.89543 2.89543 2 4 2V0Z" fill="#444C56"/>
<defs>
<clipPath id="clip0">
<rect width="18" height="18" fill="white" transform="translate(15 13.5)"/>
</clipPath>
</defs>
</svg>
