<svg width="89" height="36" viewBox="0 0 89 36" fill="none" xmlns="http://www.w3.org/2000/svg">
<g filter="url(#filter0_d)">
<path d="M2 3C2 1.34315 3.34315 0 5 0H84C85.6569 0 87 1.34315 87 3V29C87 30.6569 85.6569 32 84 32H5C3.34315 32 2 30.6569 2 29V3Z" fill="white"/>
<g clip-path="url(#clip0)">
<path d="M28 20.941C27.738 21.0401 27.4488 21.0399 27.187 20.9404C26.9252 20.8409 26.7088 20.649 26.5787 20.401L23.9912 16.8228L23.6162 16.3225L20.614 20.4055C20.4917 20.6431 20.2871 20.8281 20.0384 20.9258C19.7896 21.0236 19.5138 21.0274 19.2625 20.9365L23.131 15.7465L19.5325 11.0583C19.7912 10.965 20.0742 10.9638 20.3338 11.0548C20.5933 11.1457 20.8136 11.3234 20.9575 11.5578L23.6395 15.1803L26.3365 11.5728C26.4597 11.3393 26.6644 11.1593 26.9116 11.067C27.1589 10.9746 27.4314 10.9763 27.6775 11.0718L26.281 12.925L24.3895 15.3873C24.337 15.4341 24.2949 15.4915 24.2662 15.5558C24.2374 15.62 24.2225 15.6896 24.2225 15.76C24.2225 15.8304 24.2374 15.9 24.2662 15.9642C24.2949 16.0285 24.337 16.0859 24.3895 16.1328L27.9925 20.9418L28 20.941ZM10.0015 15.682L10.3165 14.1258C11.182 11.0485 14.71 9.76825 17.137 11.6733C18.5582 12.79 18.913 14.371 18.8432 16.153H10.837C10.7072 19.3353 13.0037 21.2568 15.94 20.275C16.416 20.1037 16.842 19.8169 17.18 19.4405C17.518 19.064 17.7573 18.6096 17.8765 18.118C18.0317 17.6185 18.2875 17.533 18.757 17.677C18.6788 18.2863 18.4634 18.8699 18.127 19.3839C17.7907 19.898 17.3422 20.3291 16.8152 20.6448C15.9448 21.1209 14.9461 21.3096 13.962 21.1839C12.9778 21.0582 12.0586 20.6246 11.3357 19.945C10.621 19.1405 10.1891 18.1244 10.1057 17.0515C10.1057 16.8753 10.0457 16.7103 10.0052 16.552C10.0016 16.2623 9.99984 15.9725 9.99999 15.6828L10.0015 15.682ZM10.8467 15.4675H18.0872C18.0422 13.1605 16.5865 11.524 14.6447 11.509C12.4832 11.479 10.9367 13.0795 10.8415 15.457L10.8467 15.4675Z" fill="black"/>
</g>
<path d="M41.8125 16.0566H38.1152V19.0801H42.4102V20H36.9902V11.4688H42.3516V12.3945H38.1152V15.1367H41.8125V16.0566ZM45.7676 15.9746L47.1738 13.6602H48.4395L46.3652 16.7949L48.5039 20H47.25L45.7852 17.627L44.3203 20H43.0605L45.1992 16.7949L43.125 13.6602H44.3789L45.7676 15.9746ZM54.9492 16.9004C54.9492 17.8652 54.7285 18.6426 54.2871 19.2324C53.8457 19.8223 53.248 20.1172 52.4941 20.1172C51.7246 20.1172 51.1191 19.873 50.6777 19.3848V22.4375H49.5938V13.6602H50.584L50.6367 14.3633C51.0781 13.8164 51.6914 13.543 52.4766 13.543C53.2383 13.543 53.8398 13.8301 54.2812 14.4043C54.7266 14.9785 54.9492 15.7773 54.9492 16.8008V16.9004ZM53.8652 16.7773C53.8652 16.0625 53.7129 15.498 53.4082 15.084C53.1035 14.6699 52.6855 14.4629 52.1543 14.4629C51.498 14.4629 51.0059 14.7539 50.6777 15.3359V18.3652C51.002 18.9434 51.498 19.2324 52.166 19.2324C52.6855 19.2324 53.0977 19.0273 53.4023 18.6172C53.7109 18.2031 53.8652 17.5898 53.8652 16.7773ZM59.3965 14.6328C59.2324 14.6055 59.0547 14.5918 58.8633 14.5918C58.1523 14.5918 57.6699 14.8945 57.416 15.5V20H56.332V13.6602H57.3867L57.4043 14.3926C57.7598 13.8262 58.2637 13.543 58.916 13.543C59.127 13.543 59.2871 13.5703 59.3965 13.625V14.6328ZM62.9121 20.1172C62.0527 20.1172 61.3535 19.8359 60.8145 19.2734C60.2754 18.707 60.0059 17.9512 60.0059 17.0059V16.8066C60.0059 16.1777 60.125 15.6172 60.3633 15.125C60.6055 14.6289 60.9414 14.2422 61.3711 13.9648C61.8047 13.6836 62.2734 13.543 62.7773 13.543C63.6016 13.543 64.2422 13.8145 64.6992 14.3574C65.1562 14.9004 65.3848 15.6777 65.3848 16.6895V17.1406H61.0898C61.1055 17.7656 61.2871 18.2715 61.6348 18.6582C61.9863 19.041 62.4316 19.2324 62.9707 19.2324C63.3535 19.2324 63.6777 19.1543 63.9434 18.998C64.209 18.8418 64.4414 18.6348 64.6406 18.377L65.3027 18.8926C64.7715 19.709 63.9746 20.1172 62.9121 20.1172ZM62.7773 14.4336C62.3398 14.4336 61.9727 14.5938 61.6758 14.9141C61.3789 15.2305 61.1953 15.6758 61.125 16.25H64.3008V16.168C64.2695 15.6172 64.1211 15.1914 63.8555 14.8906C63.5898 14.5859 63.2305 14.4336 62.7773 14.4336ZM70.3359 18.3184C70.3359 18.0254 70.2246 17.7988 70.002 17.6387C69.7832 17.4746 69.3984 17.334 68.8477 17.2168C68.3008 17.0996 67.8652 16.959 67.541 16.7949C67.2207 16.6309 66.9824 16.4355 66.8262 16.209C66.6738 15.9824 66.5977 15.7129 66.5977 15.4004C66.5977 14.8809 66.8164 14.4414 67.2539 14.082C67.6953 13.7227 68.2578 13.543 68.9414 13.543C69.6602 13.543 70.2422 13.7285 70.6875 14.0996C71.1367 14.4707 71.3613 14.9453 71.3613 15.5234H70.2715C70.2715 15.2266 70.1445 14.9707 69.8906 14.7559C69.6406 14.541 69.3242 14.4336 68.9414 14.4336C68.5469 14.4336 68.2383 14.5195 68.0156 14.6914C67.793 14.8633 67.6816 15.0879 67.6816 15.3652C67.6816 15.627 67.7852 15.8242 67.9922 15.957C68.1992 16.0898 68.5723 16.2168 69.1113 16.3379C69.6543 16.459 70.0938 16.6035 70.4297 16.7715C70.7656 16.9395 71.0137 17.1426 71.1738 17.3809C71.3379 17.6152 71.4199 17.9023 71.4199 18.2422C71.4199 18.8086 71.1934 19.2637 70.7402 19.6074C70.2871 19.9473 69.6992 20.1172 68.9766 20.1172C68.4688 20.1172 68.0195 20.0273 67.6289 19.8477C67.2383 19.668 66.9316 19.418 66.709 19.0977C66.4902 18.7734 66.3809 18.4238 66.3809 18.0488H67.4648C67.4844 18.4121 67.6289 18.7012 67.8984 18.916C68.1719 19.127 68.5312 19.2324 68.9766 19.2324C69.3867 19.2324 69.7148 19.1504 69.9609 18.9863C70.2109 18.8184 70.3359 18.5957 70.3359 18.3184ZM76.5234 18.3184C76.5234 18.0254 76.4121 17.7988 76.1895 17.6387C75.9707 17.4746 75.5859 17.334 75.0352 17.2168C74.4883 17.0996 74.0527 16.959 73.7285 16.7949C73.4082 16.6309 73.1699 16.4355 73.0137 16.209C72.8613 15.9824 72.7852 15.7129 72.7852 15.4004C72.7852 14.8809 73.0039 14.4414 73.4414 14.082C73.8828 13.7227 74.4453 13.543 75.1289 13.543C75.8477 13.543 76.4297 13.7285 76.875 14.0996C77.3242 14.4707 77.5488 14.9453 77.5488 15.5234H76.459C76.459 15.2266 76.332 14.9707 76.0781 14.7559C75.8281 14.541 75.5117 14.4336 75.1289 14.4336C74.7344 14.4336 74.4258 14.5195 74.2031 14.6914C73.9805 14.8633 73.8691 15.0879 73.8691 15.3652C73.8691 15.627 73.9727 15.8242 74.1797 15.957C74.3867 16.0898 74.7598 16.2168 75.2988 16.3379C75.8418 16.459 76.2812 16.6035 76.6172 16.7715C76.9531 16.9395 77.2012 17.1426 77.3613 17.3809C77.5254 17.6152 77.6074 17.9023 77.6074 18.2422C77.6074 18.8086 77.3809 19.2637 76.9277 19.6074C76.4746 19.9473 75.8867 20.1172 75.1641 20.1172C74.6562 20.1172 74.207 20.0273 73.8164 19.8477C73.4258 19.668 73.1191 19.418 72.8965 19.0977C72.6777 18.7734 72.5684 18.4238 72.5684 18.0488H73.6523C73.6719 18.4121 73.8164 18.7012 74.0859 18.916C74.3594 19.127 74.7188 19.2324 75.1641 19.2324C75.5742 19.2324 75.9023 19.1504 76.1484 18.9863C76.3984 18.8184 76.5234 18.5957 76.5234 18.3184Z" fill="black"/>
</g>
<defs>
<filter id="filter0_d" x="0" y="0" width="89" height="36" filterUnits="userSpaceOnUse" color-interpolation-filters="sRGB">
<feFlood flood-opacity="0" result="BackgroundImageFix"/>
<feColorMatrix in="SourceAlpha" type="matrix" values="0 0 0 0 0 0 0 0 0 0 0 0 0 0 0 0 0 0 127 0" result="hardAlpha"/>
<feOffset dy="2"/>
<feGaussianBlur stdDeviation="1"/>
<feComposite in2="hardAlpha" operator="out"/>
<feColorMatrix type="matrix" values="0 0 0 0 0 0 0 0 0 0 0 0 0 0 0 0 0 0 0.25 0"/>
<feBlend mode="normal" in2="BackgroundImageFix" result="effect1_dropShadow"/>
<feBlend mode="normal" in="SourceGraphic" in2="effect1_dropShadow" result="shape"/>
</filter>
<clipPath id="clip0">
<rect width="18" height="18" fill="white" transform="translate(10 7)"/>
</clipPath>
</defs>
</svg>
