<svg width="19" height="18" viewBox="0 0 19 18" fill="none" xmlns="http://www.w3.org/2000/svg">
<g clip-path="url(#clip0)">
<path d="M18.9955 13.941C18.7335 14.0401 18.4443 14.0399 18.1825 13.9404C17.9207 13.8409 17.7043 13.649 17.5742 13.401L14.9867 9.82274L14.6117 9.32249L11.6095 13.4055C11.4872 13.6431 11.2826 13.8281 11.0339 13.9258C10.7851 14.0236 10.5093 14.0273 10.258 13.9365L14.1265 8.74649L10.528 4.05824C10.7867 3.96499 11.0697 3.96376 11.3293 4.05474C11.5888 4.14572 11.8091 4.32335 11.953 4.55774L14.635 8.18024L17.332 4.57274C17.4552 4.33933 17.6599 4.15933 17.9071 4.06696C18.1544 3.97459 18.4269 3.97629 18.673 4.07174L17.2765 5.92499L15.385 8.38724C15.3325 8.43409 15.2904 8.49152 15.2616 8.55576C15.2329 8.62 15.218 8.6896 15.218 8.75999C15.218 8.83038 15.2329 8.89997 15.2616 8.96421C15.2904 9.02845 15.3325 9.08588 15.385 9.13274L18.988 13.9417L18.9955 13.941ZM0.996985 8.68199L1.31198 7.12574C2.17748 4.04849 5.70548 2.76824 8.13248 4.67324C9.55373 5.78999 9.90848 7.37099 9.83873 9.15299H1.83248C1.70273 12.3352 3.99923 14.2567 6.93548 13.275C7.41148 13.1036 7.83754 12.8169 8.1755 12.4405C8.51346 12.064 8.75277 11.6096 8.87198 11.118C9.02723 10.6185 9.28298 10.533 9.75248 10.677C9.67425 11.2863 9.45886 11.8699 9.12254 12.3839C8.78621 12.898 8.3377 13.329 7.81073 13.6447C6.9403 14.1209 5.94161 14.3096 4.95745 14.1839C3.9733 14.0582 3.05408 13.6246 2.33123 12.945C1.61651 12.1405 1.18454 11.1244 1.10123 10.0515C1.10123 9.87524 1.04123 9.71024 1.00073 9.55199C0.997084 9.26225 0.995334 8.9725 0.995485 8.68274L0.996985 8.68199ZM1.84223 8.46749H9.08273C9.03773 6.16049 7.58198 4.52399 5.64023 4.50899C3.47873 4.47899 1.93223 6.07949 1.83698 8.45699L1.84223 8.46749Z" fill="black"/>
</g>
<defs>
<clipPath id="clip0">
<rect width="18" height="18" fill="white" transform="translate(0.995483)"/>
</clipPath>
</defs>
</svg>
