<svg width="87" height="34" viewBox="0 0 87 34" fill="none" xmlns="http://www.w3.org/2000/svg">
<path d="M1 4C1 2.34315 2.34315 1 4 1H83C84.6569 1 86 2.34315 86 4V30C86 31.6569 84.6569 33 83 33H4C2.34315 33 1 31.6569 1 30V4Z" fill="#C9D1D9"/>
<g clip-path="url(#clip0)">
<path d="M27 21.941C26.738 22.0401 26.4488 22.0399 26.187 21.9404C25.9252 21.8409 25.7088 21.649 25.5787 21.401L22.9912 17.8228L22.6162 17.3225L19.614 21.4055C19.4917 21.6431 19.2871 21.8281 19.0384 21.9258C18.7896 22.0236 18.5138 22.0274 18.2625 21.9365L22.131 16.7465L18.5325 12.0583C18.7912 11.965 19.0742 11.9638 19.3338 12.0548C19.5933 12.1457 19.8136 12.3234 19.9575 12.5578L22.6395 16.1803L25.3365 12.5728C25.4597 12.3393 25.6644 12.1593 25.9116 12.067C26.1589 11.9746 26.4314 11.9763 26.6775 12.0718L25.281 13.925L23.3895 16.3873C23.337 16.4341 23.2949 16.4915 23.2662 16.5558C23.2374 16.62 23.2225 16.6896 23.2225 16.76C23.2225 16.8304 23.2374 16.9 23.2662 16.9642C23.2949 17.0285 23.337 17.0859 23.3895 17.1328L26.9925 21.9418L27 21.941ZM9.00149 16.682L9.31649 15.1258C10.182 12.0485 13.71 10.7683 16.137 12.6733C17.5582 13.79 17.913 15.371 17.8432 17.153H9.83699C9.70724 20.3353 12.0037 22.2568 14.94 21.275C15.416 21.1037 15.842 20.8169 16.18 20.4405C16.518 20.064 16.7573 19.6096 16.8765 19.118C17.0317 18.6185 17.2875 18.533 17.757 18.677C17.6788 19.2863 17.4634 19.8699 17.127 20.3839C16.7907 20.898 16.3422 21.3291 15.8152 21.6448C14.9448 22.1209 13.9461 22.3096 12.962 22.1839C11.9778 22.0582 11.0586 21.6246 10.3357 20.945C9.62102 20.1405 9.18905 19.1244 9.10574 18.0515C9.10574 17.8753 9.04574 17.7103 9.00524 17.552C9.00159 17.2623 8.99984 16.9725 8.99999 16.6828L9.00149 16.682ZM9.84674 16.4675H17.0872C17.0422 14.1605 15.5865 12.524 13.6447 12.509C11.4832 12.479 9.93674 14.0795 9.84149 16.457L9.84674 16.4675Z" fill="black"/>
</g>
<path d="M40.8125 17.0566H37.1152V20.0801H41.4102V21H35.9902V12.4688H41.3516V13.3945H37.1152V16.1367H40.8125V17.0566ZM44.7676 16.9746L46.1738 14.6602H47.4395L45.3652 17.7949L47.5039 21H46.25L44.7852 18.627L43.3203 21H42.0605L44.1992 17.7949L42.125 14.6602H43.3789L44.7676 16.9746ZM53.9492 17.9004C53.9492 18.8652 53.7285 19.6426 53.2871 20.2324C52.8457 20.8223 52.248 21.1172 51.4941 21.1172C50.7246 21.1172 50.1191 20.873 49.6777 20.3848V23.4375H48.5938V14.6602H49.584L49.6367 15.3633C50.0781 14.8164 50.6914 14.543 51.4766 14.543C52.2383 14.543 52.8398 14.8301 53.2812 15.4043C53.7266 15.9785 53.9492 16.7773 53.9492 17.8008V17.9004ZM52.8652 17.7773C52.8652 17.0625 52.7129 16.498 52.4082 16.084C52.1035 15.6699 51.6855 15.4629 51.1543 15.4629C50.498 15.4629 50.0059 15.7539 49.6777 16.3359V19.3652C50.002 19.9434 50.498 20.2324 51.166 20.2324C51.6855 20.2324 52.0977 20.0273 52.4023 19.6172C52.7109 19.2031 52.8652 18.5898 52.8652 17.7773ZM58.3965 15.6328C58.2324 15.6055 58.0547 15.5918 57.8633 15.5918C57.1523 15.5918 56.6699 15.8945 56.416 16.5V21H55.332V14.6602H56.3867L56.4043 15.3926C56.7598 14.8262 57.2637 14.543 57.916 14.543C58.127 14.543 58.2871 14.5703 58.3965 14.625V15.6328ZM61.9121 21.1172C61.0527 21.1172 60.3535 20.8359 59.8145 20.2734C59.2754 19.707 59.0059 18.9512 59.0059 18.0059V17.8066C59.0059 17.1777 59.125 16.6172 59.3633 16.125C59.6055 15.6289 59.9414 15.2422 60.3711 14.9648C60.8047 14.6836 61.2734 14.543 61.7773 14.543C62.6016 14.543 63.2422 14.8145 63.6992 15.3574C64.1562 15.9004 64.3848 16.6777 64.3848 17.6895V18.1406H60.0898C60.1055 18.7656 60.2871 19.2715 60.6348 19.6582C60.9863 20.041 61.4316 20.2324 61.9707 20.2324C62.3535 20.2324 62.6777 20.1543 62.9434 19.998C63.209 19.8418 63.4414 19.6348 63.6406 19.377L64.3027 19.8926C63.7715 20.709 62.9746 21.1172 61.9121 21.1172ZM61.7773 15.4336C61.3398 15.4336 60.9727 15.5938 60.6758 15.9141C60.3789 16.2305 60.1953 16.6758 60.125 17.25H63.3008V17.168C63.2695 16.6172 63.1211 16.1914 62.8555 15.8906C62.5898 15.5859 62.2305 15.4336 61.7773 15.4336ZM69.3359 19.3184C69.3359 19.0254 69.2246 18.7988 69.002 18.6387C68.7832 18.4746 68.3984 18.334 67.8477 18.2168C67.3008 18.0996 66.8652 17.959 66.541 17.7949C66.2207 17.6309 65.9824 17.4355 65.8262 17.209C65.6738 16.9824 65.5977 16.7129 65.5977 16.4004C65.5977 15.8809 65.8164 15.4414 66.2539 15.082C66.6953 14.7227 67.2578 14.543 67.9414 14.543C68.6602 14.543 69.2422 14.7285 69.6875 15.0996C70.1367 15.4707 70.3613 15.9453 70.3613 16.5234H69.2715C69.2715 16.2266 69.1445 15.9707 68.8906 15.7559C68.6406 15.541 68.3242 15.4336 67.9414 15.4336C67.5469 15.4336 67.2383 15.5195 67.0156 15.6914C66.793 15.8633 66.6816 16.0879 66.6816 16.3652C66.6816 16.627 66.7852 16.8242 66.9922 16.957C67.1992 17.0898 67.5723 17.2168 68.1113 17.3379C68.6543 17.459 69.0938 17.6035 69.4297 17.7715C69.7656 17.9395 70.0137 18.1426 70.1738 18.3809C70.3379 18.6152 70.4199 18.9023 70.4199 19.2422C70.4199 19.8086 70.1934 20.2637 69.7402 20.6074C69.2871 20.9473 68.6992 21.1172 67.9766 21.1172C67.4688 21.1172 67.0195 21.0273 66.6289 20.8477C66.2383 20.668 65.9316 20.418 65.709 20.0977C65.4902 19.7734 65.3809 19.4238 65.3809 19.0488H66.4648C66.4844 19.4121 66.6289 19.7012 66.8984 19.916C67.1719 20.127 67.5312 20.2324 67.9766 20.2324C68.3867 20.2324 68.7148 20.1504 68.9609 19.9863C69.2109 19.8184 69.3359 19.5957 69.3359 19.3184ZM75.5234 19.3184C75.5234 19.0254 75.4121 18.7988 75.1895 18.6387C74.9707 18.4746 74.5859 18.334 74.0352 18.2168C73.4883 18.0996 73.0527 17.959 72.7285 17.7949C72.4082 17.6309 72.1699 17.4355 72.0137 17.209C71.8613 16.9824 71.7852 16.7129 71.7852 16.4004C71.7852 15.8809 72.0039 15.4414 72.4414 15.082C72.8828 14.7227 73.4453 14.543 74.1289 14.543C74.8477 14.543 75.4297 14.7285 75.875 15.0996C76.3242 15.4707 76.5488 15.9453 76.5488 16.5234H75.459C75.459 16.2266 75.332 15.9707 75.0781 15.7559C74.8281 15.541 74.5117 15.4336 74.1289 15.4336C73.7344 15.4336 73.4258 15.5195 73.2031 15.6914C72.9805 15.8633 72.8691 16.0879 72.8691 16.3652C72.8691 16.627 72.9727 16.8242 73.1797 16.957C73.3867 17.0898 73.7598 17.2168 74.2988 17.3379C74.8418 17.459 75.2812 17.6035 75.6172 17.7715C75.9531 17.9395 76.2012 18.1426 76.3613 18.3809C76.5254 18.6152 76.6074 18.9023 76.6074 19.2422C76.6074 19.8086 76.3809 20.2637 75.9277 20.6074C75.4746 20.9473 74.8867 21.1172 74.1641 21.1172C73.6562 21.1172 73.207 21.0273 72.8164 20.8477C72.4258 20.668 72.1191 20.418 71.8965 20.0977C71.6777 19.7734 71.5684 19.4238 71.5684 19.0488H72.6523C72.6719 19.4121 72.8164 19.7012 73.0859 19.916C73.3594 20.127 73.7188 20.2324 74.1641 20.2324C74.5742 20.2324 74.9023 20.1504 75.1484 19.9863C75.3984 19.8184 75.5234 19.5957 75.5234 19.3184Z" fill="#22272E"/>
<path d="M4 2H83V0H4V2ZM85 4V30H87V4H85ZM83 32H4V34H83V32ZM2 30V4H0V30H2ZM4 32C2.89543 32 2 31.1046 2 30H0C0 32.2091 1.79086 34 4 34V32ZM85 30C85 31.1046 84.1046 32 83 32V34C85.2091 34 87 32.2091 87 30H85ZM83 2C84.1046 2 85 2.89543 85 4H87C87 1.79086 85.2091 0 83 0V2ZM4 0C1.79086 0 0 1.79086 0 4H2C2 2.89543 2.89543 2 4 2V0Z" fill="#30363D"/>
<defs>
<clipPath id="clip0">
<rect width="18" height="18" fill="white" transform="translate(9 8)"/>
</clipPath>
</defs>
</svg>
