<svg width="108" height="45" viewBox="0 0 108 45" fill="none" xmlns="http://www.w3.org/2000/svg">
<path d="M1 4C1 2.34314 2.34315 1 4 1H104C105.657 1 107 2.34315 107 4V41C107 42.6569 105.657 44 104 44H4C2.34315 44 1 42.6569 1 41V4Z" fill="#22272E"/>
<g clip-path="url(#clip0)">
<path fill-rule="evenodd" clip-rule="evenodd" d="M21.3113 13.5C19.476 13.5 18 15.0397 18 16.926C18 18.0727 18.546 19.0913 19.3853 19.713C18.9528 20.0371 18.6022 20.458 18.3616 20.9419C18.121 21.4259 17.9972 21.9595 18 22.5C18 23.6475 18.546 24.6652 19.3853 25.287C18.9528 25.6111 18.6022 26.032 18.3616 26.5159C18.121 26.9999 17.9972 27.5335 18 28.074C18 29.9602 19.476 31.5 21.3113 31.5C23.1458 31.5 24.6225 29.9602 24.6225 28.074V25.1775C25.2025 25.6611 25.9336 25.9262 26.6888 25.9268C28.524 25.926 30 24.3863 30 22.5C30 21.3525 29.4548 20.3348 28.6148 19.713C29.0473 19.3889 29.3979 18.968 29.6385 18.4841C29.8791 18.0001 30.0029 17.4665 30 16.926C30 15.0397 28.524 13.5 26.6888 13.5H21.3113V13.5ZM19.2443 16.926C19.2443 15.7327 20.1758 14.7772 21.3113 14.7772H23.3775V19.0748H21.3113C20.1758 19.0748 19.2443 18.1185 19.2443 16.926V16.926ZM26.6888 19.074H24.6225V14.7765H26.6888C27.825 14.7765 28.7558 15.7327 28.7558 16.926C28.7558 18.1185 27.825 19.074 26.6888 19.074ZM19.245 22.5C19.245 21.3075 20.1765 20.3513 21.312 20.3513H23.3783V24.6487H21.3113C20.175 24.6487 19.2443 23.6925 19.2443 22.5H19.245ZM24.6225 22.5C24.6225 21.3075 25.554 20.3513 26.6895 20.3513C27.8258 20.3513 28.7565 21.3068 28.7565 22.5C28.7565 23.6925 27.8258 24.6487 26.6895 24.6487C25.554 24.6487 24.6233 23.6932 24.6233 22.5H24.6225ZM19.245 28.074C19.245 26.8815 20.1765 25.926 21.312 25.926H23.3783V28.074C23.3783 29.2672 22.4483 30.2228 21.312 30.2228C20.1765 30.2228 19.245 29.2672 19.245 28.074Z" fill="#ADBAC7"/>
</g>
<path d="M52.1562 18.9844H47.7812V22.8594H51.8281V24.0391H47.7812V29H46.4688V17.7969H52.1562V18.9844ZM54.7656 18.9688C54.5365 18.9688 54.3411 18.8906 54.1797 18.7344C54.0182 18.5781 53.9375 18.3802 53.9375 18.1406C53.9375 17.901 54.0182 17.7031 54.1797 17.5469C54.3411 17.3854 54.5365 17.3047 54.7656 17.3047C55 17.3047 55.1979 17.3854 55.3594 17.5469C55.526 17.7031 55.6094 17.901 55.6094 18.1406C55.6094 18.3698 55.526 18.5651 55.3594 18.7266C55.1979 18.888 55 18.9688 54.7656 18.9688ZM55.3906 29H54.1094V21H55.3906V29ZM64.8125 28.3594C64.8125 31.2969 63.4062 32.7656 60.5938 32.7656C59.6042 32.7656 58.7396 32.5781 58 32.2031V30.9219C58.901 31.4219 59.7604 31.6719 60.5781 31.6719C62.5469 31.6719 63.5312 30.625 63.5312 28.5312V27.6562H63.5C62.8906 28.6771 61.974 29.1875 60.75 29.1875C59.7552 29.1875 58.9531 28.8333 58.3438 28.125C57.7396 27.4115 57.4375 26.4557 57.4375 25.2578C57.4375 23.8984 57.763 22.8177 58.4141 22.0156C59.0703 21.2135 59.9661 20.8125 61.1016 20.8125C62.1797 20.8125 62.9792 21.2448 63.5 22.1094H63.5312V21H64.8125V28.3594ZM63.5312 25.3828V24.2031C63.5312 23.5677 63.3151 23.0234 62.8828 22.5703C62.4557 22.1172 61.9219 21.8906 61.2812 21.8906C60.4896 21.8906 59.8698 22.1797 59.4219 22.7578C58.974 23.3307 58.75 24.1354 58.75 25.1719C58.75 26.0625 58.9635 26.776 59.3906 27.3125C59.8229 27.8438 60.3932 28.1094 61.1016 28.1094C61.8203 28.1094 62.4036 27.8542 62.8516 27.3438C63.3047 26.8333 63.5312 26.1797 63.5312 25.3828ZM78.7656 29H77.4844V24.4062C77.4844 23.5208 77.3464 22.8802 77.0703 22.4844C76.7995 22.0885 76.3411 21.8906 75.6953 21.8906C75.1484 21.8906 74.6823 22.1406 74.2969 22.6406C73.9167 23.1406 73.7266 23.7396 73.7266 24.4375V29H72.4453V24.25C72.4453 22.6771 71.8385 21.8906 70.625 21.8906C70.0625 21.8906 69.599 22.1276 69.2344 22.6016C68.8698 23.0703 68.6875 23.6823 68.6875 24.4375V29H67.4062V21H68.6875V22.2656H68.7188C69.2865 21.2969 70.1146 20.8125 71.2031 20.8125C71.75 20.8125 72.2266 20.9661 72.6328 21.2734C73.0391 21.5755 73.3177 21.974 73.4688 22.4688C74.0625 21.3646 74.9479 20.8125 76.125 20.8125C77.8854 20.8125 78.7656 21.8984 78.7656 24.0703V29ZM86.9141 29H85.6328V27.75H85.6016C85.0443 28.7083 84.224 29.1875 83.1406 29.1875C82.3438 29.1875 81.7188 28.9766 81.2656 28.5547C80.8177 28.1328 80.5938 27.5729 80.5938 26.875C80.5938 25.3802 81.474 24.5104 83.2344 24.2656L85.6328 23.9297C85.6328 22.5703 85.0833 21.8906 83.9844 21.8906C83.0208 21.8906 82.151 22.2188 81.375 22.875V21.5625C82.1615 21.0625 83.0677 20.8125 84.0938 20.8125C85.974 20.8125 86.9141 21.8073 86.9141 23.7969V29ZM85.6328 24.9531L83.7031 25.2188C83.1094 25.3021 82.6615 25.4505 82.3594 25.6641C82.0573 25.8724 81.9062 26.2448 81.9062 26.7812C81.9062 27.1719 82.0443 27.4922 82.3203 27.7422C82.6016 27.987 82.974 28.1094 83.4375 28.1094C84.0729 28.1094 84.5964 27.888 85.0078 27.4453C85.4245 26.9974 85.6328 26.4323 85.6328 25.75V24.9531Z" fill="#ADBAC7"/>
<path d="M4 2H104V0H4V2ZM106 4V41H108V4H106ZM104 43H4V45H104V43ZM2 41V4H0V41H2ZM4 43C2.89543 43 2 42.1046 2 41H0C0 43.2091 1.79086 45 4 45V43ZM106 41C106 42.1046 105.105 43 104 43V45C106.209 45 108 43.2091 108 41H106ZM104 2C105.105 2 106 2.89543 106 4H108C108 1.79086 106.209 0 104 0V2ZM4 0C1.79086 0 0 1.79086 0 4H2C2 2.89543 2.89543 2 4 2V0Z" fill="#444C56"/>
<defs>
<clipPath id="clip0">
<rect width="18" height="18" fill="white" transform="translate(15 13.5)"/>
</clipPath>
</defs>
</svg>
