<svg width="19" height="18" viewBox="0 0 19 18" fill="none" xmlns="http://www.w3.org/2000/svg">
<path d="M12.9955 12C14.6523 12 15.9955 10.6569 15.9955 9C15.9955 7.34315 14.6523 6 12.9955 6C11.3386 6 9.99548 7.34315 9.99548 9C9.99548 10.6569 11.3386 12 12.9955 12Z" fill="#19BCFE"/>
<path fill-rule="evenodd" clip-rule="evenodd" d="M6.99548 18C7.79113 18 8.55419 17.6839 9.1168 17.1213C9.67941 16.5587 9.99548 15.7956 9.99548 15V12H6.99548C6.19983 12 5.43677 12.3161 4.87416 12.8787C4.31155 13.4413 3.99548 14.2044 3.99548 15C3.99548 15.7956 4.31155 16.5587 4.87416 17.1213C5.43677 17.6839 6.19983 18 6.99548 18Z" fill="#09CF83"/>
<path fill-rule="evenodd" clip-rule="evenodd" d="M6.99548 12H9.99548V6H6.99548C6.19983 6 5.43677 6.31607 4.87416 6.87868C4.31155 7.44129 3.99548 8.20435 3.99548 9C3.99548 9.79565 4.31155 10.5587 4.87416 11.1213C5.43677 11.6839 6.19983 12 6.99548 12Z" fill="#A259FF"/>
<path fill-rule="evenodd" clip-rule="evenodd" d="M6.99548 6H9.99548V0H6.99548C6.19983 0 5.43677 0.316071 4.87416 0.87868C4.31155 1.44129 3.99548 2.20435 3.99548 3C3.99548 3.79565 4.31155 4.55871 4.87416 5.12132C5.43677 5.68393 6.19983 6 6.99548 6Z" fill="#F24E1E"/>
<path fill-rule="evenodd" clip-rule="evenodd" d="M12.9955 6H9.99548V0H12.9955C13.7911 0 14.5542 0.316071 15.1168 0.87868C15.6794 1.44129 15.9955 2.20435 15.9955 3C15.9955 3.79565 15.6794 4.55871 15.1168 5.12132C14.5542 5.68393 13.7911 6 12.9955 6Z" fill="#FF7262"/>
</svg>
