<svg width="71" height="28" viewBox="0 0 71 28" fill="none" xmlns="http://www.w3.org/2000/svg">
<g filter="url(#filter0_d)">
<path d="M2 5C2 2.23858 4.23858 0 7 0H64C66.7614 0 69 2.23858 69 5V19C69 21.7614 66.7614 24 64 24H7C4.23858 24 2 21.7614 2 19V5Z" fill="white"/>
<path d="M19 15C20.6569 15 22 13.6569 22 12C22 10.3431 20.6569 9 19 9C17.3431 9 16 10.3431 16 12C16 13.6569 17.3431 15 19 15Z" fill="#19BCFE"/>
<path fill-rule="evenodd" clip-rule="evenodd" d="M13 21C13.7956 21 14.5587 20.6839 15.1213 20.1213C15.6839 19.5587 16 18.7956 16 18V15H13C12.2044 15 11.4413 15.3161 10.8787 15.8787C10.3161 16.4413 10 17.2044 10 18C10 18.7956 10.3161 19.5587 10.8787 20.1213C11.4413 20.6839 12.2044 21 13 21V21Z" fill="#09CF83"/>
<path fill-rule="evenodd" clip-rule="evenodd" d="M13 15H16V9H13C12.2044 9 11.4413 9.31607 10.8787 9.87868C10.3161 10.4413 10 11.2044 10 12C10 12.7956 10.3161 13.5587 10.8787 14.1213C11.4413 14.6839 12.2044 15 13 15V15Z" fill="#A259FF"/>
<path fill-rule="evenodd" clip-rule="evenodd" d="M13 9H16V3H13C12.2044 3 11.4413 3.31607 10.8787 3.87868C10.3161 4.44129 10 5.20435 10 6C10 6.79565 10.3161 7.55871 10.8787 8.12132C11.4413 8.68393 12.2044 9 13 9V9Z" fill="#F24E1E"/>
<path fill-rule="evenodd" clip-rule="evenodd" d="M19 9H16V3H19C19.7956 3 20.5587 3.31607 21.1213 3.87868C21.6839 4.44129 22 5.20435 22 6C22 6.79565 21.6839 7.55871 21.1213 8.12132C20.5587 8.68393 19.7956 9 19 9Z" fill="#FF7262"/>
<path d="M35.6953 12.2324H32.1152V16H30.9902V7.46875H36.2754V8.39453H32.1152V11.3125H35.6953V12.2324ZM38.6309 16H37.5469V9.66016H38.6309V16ZM37.459 7.97852C37.459 7.80273 37.5117 7.6543 37.6172 7.5332C37.7266 7.41211 37.8867 7.35156 38.0977 7.35156C38.3086 7.35156 38.4688 7.41211 38.5781 7.5332C38.6875 7.6543 38.7422 7.80273 38.7422 7.97852C38.7422 8.1543 38.6875 8.30078 38.5781 8.41797C38.4688 8.53516 38.3086 8.59375 38.0977 8.59375C37.8867 8.59375 37.7266 8.53516 37.6172 8.41797C37.5117 8.30078 37.459 8.1543 37.459 7.97852ZM40.1133 12.7773C40.1133 11.7891 40.3418 11.0039 40.7988 10.4219C41.2559 9.83594 41.8613 9.54297 42.6152 9.54297C43.3887 9.54297 43.9922 9.81641 44.4258 10.3633L44.4785 9.66016H45.4688V15.8477C45.4688 16.668 45.2246 17.3145 44.7363 17.7871C44.252 18.2598 43.5996 18.4961 42.7793 18.4961C42.3223 18.4961 41.875 18.3984 41.4375 18.2031C41 18.0078 40.666 17.7402 40.4355 17.4004L40.998 16.75C41.4629 17.3242 42.0312 17.6113 42.7031 17.6113C43.2305 17.6113 43.6406 17.4629 43.9336 17.166C44.2305 16.8691 44.3789 16.4512 44.3789 15.9121V15.3672C43.9453 15.8672 43.3535 16.1172 42.6035 16.1172C41.8613 16.1172 41.2598 15.8184 40.7988 15.2207C40.3418 14.623 40.1133 13.8086 40.1133 12.7773ZM41.2031 12.9004C41.2031 13.6152 41.3496 14.1777 41.6426 14.5879C41.9355 14.9941 42.3457 15.1973 42.873 15.1973C43.5566 15.1973 44.0586 14.8867 44.3789 14.2656V11.3711C44.0469 10.7656 43.5488 10.4629 42.8848 10.4629C42.3574 10.4629 41.9453 10.668 41.6484 11.0781C41.3516 11.4883 41.2031 12.0957 41.2031 12.9004ZM48.1289 9.66016L48.1582 10.3633C48.623 9.81641 49.25 9.54297 50.0391 9.54297C50.9258 9.54297 51.5293 9.88281 51.8496 10.5625C52.0605 10.2578 52.334 10.0117 52.6699 9.82422C53.0098 9.63672 53.4102 9.54297 53.8711 9.54297C55.2617 9.54297 55.9688 10.2793 55.9922 11.752V16H54.9082V11.8164C54.9082 11.3633 54.8047 11.0254 54.5977 10.8027C54.3906 10.5762 54.043 10.4629 53.5547 10.4629C53.1523 10.4629 52.8184 10.584 52.5527 10.8262C52.2871 11.0645 52.1328 11.3867 52.0898 11.793V16H51V11.8457C51 10.9238 50.5488 10.4629 49.6465 10.4629C48.9355 10.4629 48.4492 10.7656 48.1875 11.3711V16H47.1035V9.66016H48.1289ZM61.5469 16C61.4844 15.875 61.4336 15.6523 61.3945 15.332C60.8906 15.8555 60.2891 16.1172 59.5898 16.1172C58.9648 16.1172 58.4512 15.9414 58.0488 15.5898C57.6504 15.2344 57.4512 14.7852 57.4512 14.2422C57.4512 13.582 57.7012 13.0703 58.2012 12.707C58.7051 12.3398 59.4121 12.1562 60.3223 12.1562H61.377V11.6582C61.377 11.2793 61.2637 10.9785 61.0371 10.7559C60.8105 10.5293 60.4766 10.416 60.0352 10.416C59.6484 10.416 59.3242 10.5137 59.0625 10.709C58.8008 10.9043 58.6699 11.1406 58.6699 11.418H57.5801C57.5801 11.1016 57.6914 10.7969 57.9141 10.5039C58.1406 10.207 58.4453 9.97266 58.8281 9.80078C59.2148 9.62891 59.6387 9.54297 60.0996 9.54297C60.8301 9.54297 61.4023 9.72656 61.8164 10.0938C62.2305 10.457 62.4453 10.959 62.4609 11.5996V14.5176C62.4609 15.0996 62.5352 15.5625 62.6836 15.9062V16H61.5469ZM59.748 15.1738C60.0879 15.1738 60.4102 15.0859 60.7148 14.9102C61.0195 14.7344 61.2402 14.5059 61.377 14.2246V12.9238H60.5273C59.1992 12.9238 58.5352 13.3125 58.5352 14.0898C58.5352 14.4297 58.6484 14.6953 58.875 14.8867C59.1016 15.0781 59.3926 15.1738 59.748 15.1738Z" fill="black"/>
</g>
<defs>
<filter id="filter0_d" x="0" y="0" width="71" height="28" filterUnits="userSpaceOnUse" color-interpolation-filters="sRGB">
<feFlood flood-opacity="0" result="BackgroundImageFix"/>
<feColorMatrix in="SourceAlpha" type="matrix" values="0 0 0 0 0 0 0 0 0 0 0 0 0 0 0 0 0 0 127 0" result="hardAlpha"/>
<feOffset dy="2"/>
<feGaussianBlur stdDeviation="1"/>
<feComposite in2="hardAlpha" operator="out"/>
<feColorMatrix type="matrix" values="0 0 0 0 0 0 0 0 0 0 0 0 0 0 0 0 0 0 0.25 0"/>
<feBlend mode="normal" in2="BackgroundImageFix" result="effect1_dropShadow"/>
<feBlend mode="normal" in="SourceGraphic" in2="effect1_dropShadow" result="shape"/>
</filter>
</defs>
</svg>
