<svg width="110" height="47" viewBox="0 0 110 47" fill="none" xmlns="http://www.w3.org/2000/svg">
<rect x="1" y="1" width="108" height="45" rx="4" fill="#22272E"/>
<g clip-path="url(#clip0_28_5007)">
<path fill-rule="evenodd" clip-rule="evenodd" d="M22.3113 14.5C20.476 14.5 19 16.0397 19 17.926C19 19.0728 19.546 20.0913 20.3853 20.713C19.9528 21.0371 19.6022 21.458 19.3616 21.9419C19.121 22.4259 18.9972 22.9595 19 23.5C19 24.6475 19.546 25.6652 20.3853 26.287C19.9528 26.6111 19.6022 27.032 19.3616 27.5159C19.121 27.9999 18.9972 28.5335 19 29.074C19 30.9602 20.476 32.5 22.3113 32.5C24.1458 32.5 25.6225 30.9602 25.6225 29.074V26.1775C26.2025 26.6611 26.9336 26.9262 27.6888 26.9268C29.524 26.926 31 25.3863 31 23.5C31 22.3525 30.4548 21.3348 29.6148 20.713C30.0473 20.3889 30.3979 19.968 30.6385 19.4841C30.8791 19.0001 31.0029 18.4665 31 17.926C31 16.0397 29.524 14.5 27.6888 14.5H22.3113ZM20.2443 17.926C20.2443 16.7327 21.1758 15.7772 22.3113 15.7772H24.3775V20.0747H22.3113C21.1758 20.0747 20.2443 19.1185 20.2443 17.926ZM27.6888 20.074H25.6225V15.7765H27.6888C28.825 15.7765 29.7558 16.7327 29.7558 17.926C29.7558 19.1185 28.825 20.074 27.6888 20.074ZM20.245 23.5C20.245 22.3075 21.1765 21.3513 22.312 21.3513H24.3783V25.6488H22.3113C21.175 25.6488 20.2443 24.6925 20.2443 23.5H20.245ZM25.6225 23.5C25.6225 22.3075 26.554 21.3513 27.6895 21.3513C28.8258 21.3513 29.7565 22.3067 29.7565 23.5C29.7565 24.6925 28.8258 25.6488 27.6895 25.6488C26.554 25.6488 25.6233 24.6932 25.6233 23.5H25.6225ZM20.245 29.074C20.245 27.8815 21.1765 26.926 22.312 26.926H24.3783V29.074C24.3783 30.2672 23.4483 31.2228 22.312 31.2228C21.1765 31.2228 20.245 30.2672 20.245 29.074Z" fill="#ADBAC7"/>
</g>
<path d="M53.1562 19.9844H48.7812V23.8594H52.8281V25.0391H48.7812V30H47.4688V18.7969H53.1562V19.9844ZM55.7656 19.9688C55.5365 19.9688 55.3411 19.8906 55.1797 19.7344C55.0182 19.5781 54.9375 19.3802 54.9375 19.1406C54.9375 18.901 55.0182 18.7031 55.1797 18.5469C55.3411 18.3854 55.5365 18.3047 55.7656 18.3047C56 18.3047 56.1979 18.3854 56.3594 18.5469C56.526 18.7031 56.6094 18.901 56.6094 19.1406C56.6094 19.3698 56.526 19.5651 56.3594 19.7266C56.1979 19.888 56 19.9688 55.7656 19.9688ZM56.3906 30H55.1094V22H56.3906V30ZM65.8125 29.3594C65.8125 32.2969 64.4062 33.7656 61.5938 33.7656C60.6042 33.7656 59.7396 33.5781 59 33.2031V31.9219C59.901 32.4219 60.7604 32.6719 61.5781 32.6719C63.5469 32.6719 64.5312 31.625 64.5312 29.5312V28.6562H64.5C63.8906 29.6771 62.974 30.1875 61.75 30.1875C60.7552 30.1875 59.9531 29.8333 59.3438 29.125C58.7396 28.4115 58.4375 27.4557 58.4375 26.2578C58.4375 24.8984 58.763 23.8177 59.4141 23.0156C60.0703 22.2135 60.9661 21.8125 62.1016 21.8125C63.1797 21.8125 63.9792 22.2448 64.5 23.1094H64.5312V22H65.8125V29.3594ZM64.5312 26.3828V25.2031C64.5312 24.5677 64.3151 24.0234 63.8828 23.5703C63.4557 23.1172 62.9219 22.8906 62.2812 22.8906C61.4896 22.8906 60.8698 23.1797 60.4219 23.7578C59.974 24.3307 59.75 25.1354 59.75 26.1719C59.75 27.0625 59.9635 27.776 60.3906 28.3125C60.8229 28.8438 61.3932 29.1094 62.1016 29.1094C62.8203 29.1094 63.4036 28.8542 63.8516 28.3438C64.3047 27.8333 64.5312 27.1797 64.5312 26.3828ZM79.7656 30H78.4844V25.4062C78.4844 24.5208 78.3464 23.8802 78.0703 23.4844C77.7995 23.0885 77.3411 22.8906 76.6953 22.8906C76.1484 22.8906 75.6823 23.1406 75.2969 23.6406C74.9167 24.1406 74.7266 24.7396 74.7266 25.4375V30H73.4453V25.25C73.4453 23.6771 72.8385 22.8906 71.625 22.8906C71.0625 22.8906 70.599 23.1276 70.2344 23.6016C69.8698 24.0703 69.6875 24.6823 69.6875 25.4375V30H68.4062V22H69.6875V23.2656H69.7188C70.2865 22.2969 71.1146 21.8125 72.2031 21.8125C72.75 21.8125 73.2266 21.9661 73.6328 22.2734C74.0391 22.5755 74.3177 22.974 74.4688 23.4688C75.0625 22.3646 75.9479 21.8125 77.125 21.8125C78.8854 21.8125 79.7656 22.8984 79.7656 25.0703V30ZM87.9141 30H86.6328V28.75H86.6016C86.0443 29.7083 85.224 30.1875 84.1406 30.1875C83.3438 30.1875 82.7188 29.9766 82.2656 29.5547C81.8177 29.1328 81.5938 28.5729 81.5938 27.875C81.5938 26.3802 82.474 25.5104 84.2344 25.2656L86.6328 24.9297C86.6328 23.5703 86.0833 22.8906 84.9844 22.8906C84.0208 22.8906 83.151 23.2188 82.375 23.875V22.5625C83.1615 22.0625 84.0677 21.8125 85.0938 21.8125C86.974 21.8125 87.9141 22.8073 87.9141 24.7969V30ZM86.6328 25.9531L84.7031 26.2188C84.1094 26.3021 83.6615 26.4505 83.3594 26.6641C83.0573 26.8724 82.9062 27.2448 82.9062 27.7812C82.9062 28.1719 83.0443 28.4922 83.3203 28.7422C83.6016 28.987 83.974 29.1094 84.4375 29.1094C85.0729 29.1094 85.5964 28.888 86.0078 28.4453C86.4245 27.9974 86.6328 27.4323 86.6328 26.75V25.9531Z" fill="#ADBAC7"/>
<rect x="1" y="1" width="108" height="45" rx="4" stroke="#444C56" stroke-width="2"/>
<defs>
<clipPath id="clip0_28_5007">
<rect width="18" height="18" fill="white" transform="translate(16 14.5)"/>
</clipPath>
</defs>
</svg>
