<svg width="78" height="34" viewBox="0 0 78 34" fill="none" xmlns="http://www.w3.org/2000/svg">
<path d="M1 4C1 2.34315 2.34315 1 4 1H74C75.6569 1 77 2.34315 77 4V30C77 31.6569 75.6569 33 74 33H4C2.34315 33 1 31.6569 1 30V4Z" fill="#C9D1D9"/>
<path d="M21 20C22.6569 20 24 18.6569 24 17C24 15.3431 22.6569 14 21 14C19.3431 14 18 15.3431 18 17C18 18.6569 19.3431 20 21 20Z" fill="#19BCFE"/>
<path fill-rule="evenodd" clip-rule="evenodd" d="M15 26C15.7956 26 16.5587 25.6839 17.1213 25.1213C17.6839 24.5587 18 23.7956 18 23V20H15C14.2044 20 13.4413 20.3161 12.8787 20.8787C12.3161 21.4413 12 22.2044 12 23C12 23.7956 12.3161 24.5587 12.8787 25.1213C13.4413 25.6839 14.2044 26 15 26Z" fill="#09CF83"/>
<path fill-rule="evenodd" clip-rule="evenodd" d="M15 20H18V14H15C14.2044 14 13.4413 14.3161 12.8787 14.8787C12.3161 15.4413 12 16.2044 12 17C12 17.7956 12.3161 18.5587 12.8787 19.1213C13.4413 19.6839 14.2044 20 15 20Z" fill="#A259FF"/>
<path fill-rule="evenodd" clip-rule="evenodd" d="M15 14H18V8H15C14.2044 8 13.4413 8.31607 12.8787 8.87868C12.3161 9.44129 12 10.2044 12 11C12 11.7956 12.3161 12.5587 12.8787 13.1213C13.4413 13.6839 14.2044 14 15 14Z" fill="#F24E1E"/>
<path fill-rule="evenodd" clip-rule="evenodd" d="M21 14H18V8H21C21.7956 8 22.5587 8.31607 23.1213 8.87868C23.6839 9.44129 24 10.2044 24 11C24 11.7956 23.6839 12.5587 23.1213 13.1213C22.5587 13.6839 21.7956 14 21 14Z" fill="#FF7262"/>
<path d="M40.6953 17.2324H37.1152V21H35.9902V12.4688H41.2754V13.3945H37.1152V16.3125H40.6953V17.2324ZM43.6309 21H42.5469V14.6602H43.6309V21ZM42.459 12.9785C42.459 12.8027 42.5117 12.6543 42.6172 12.5332C42.7266 12.4121 42.8867 12.3516 43.0977 12.3516C43.3086 12.3516 43.4688 12.4121 43.5781 12.5332C43.6875 12.6543 43.7422 12.8027 43.7422 12.9785C43.7422 13.1543 43.6875 13.3008 43.5781 13.418C43.4688 13.5352 43.3086 13.5938 43.0977 13.5938C42.8867 13.5938 42.7266 13.5352 42.6172 13.418C42.5117 13.3008 42.459 13.1543 42.459 12.9785ZM45.1133 17.7773C45.1133 16.7891 45.3418 16.0039 45.7988 15.4219C46.2559 14.8359 46.8613 14.543 47.6152 14.543C48.3887 14.543 48.9922 14.8164 49.4258 15.3633L49.4785 14.6602H50.4688V20.8477C50.4688 21.668 50.2246 22.3145 49.7363 22.7871C49.252 23.2598 48.5996 23.4961 47.7793 23.4961C47.3223 23.4961 46.875 23.3984 46.4375 23.2031C46 23.0078 45.666 22.7402 45.4355 22.4004L45.998 21.75C46.4629 22.3242 47.0312 22.6113 47.7031 22.6113C48.2305 22.6113 48.6406 22.4629 48.9336 22.166C49.2305 21.8691 49.3789 21.4512 49.3789 20.9121V20.3672C48.9453 20.8672 48.3535 21.1172 47.6035 21.1172C46.8613 21.1172 46.2598 20.8184 45.7988 20.2207C45.3418 19.623 45.1133 18.8086 45.1133 17.7773ZM46.2031 17.9004C46.2031 18.6152 46.3496 19.1777 46.6426 19.5879C46.9355 19.9941 47.3457 20.1973 47.873 20.1973C48.5566 20.1973 49.0586 19.8867 49.3789 19.2656V16.3711C49.0469 15.7656 48.5488 15.4629 47.8848 15.4629C47.3574 15.4629 46.9453 15.668 46.6484 16.0781C46.3516 16.4883 46.2031 17.0957 46.2031 17.9004ZM53.1289 14.6602L53.1582 15.3633C53.623 14.8164 54.25 14.543 55.0391 14.543C55.9258 14.543 56.5293 14.8828 56.8496 15.5625C57.0605 15.2578 57.334 15.0117 57.6699 14.8242C58.0098 14.6367 58.4102 14.543 58.8711 14.543C60.2617 14.543 60.9688 15.2793 60.9922 16.752V21H59.9082V16.8164C59.9082 16.3633 59.8047 16.0254 59.5977 15.8027C59.3906 15.5762 59.043 15.4629 58.5547 15.4629C58.1523 15.4629 57.8184 15.584 57.5527 15.8262C57.2871 16.0645 57.1328 16.3867 57.0898 16.793V21H56V16.8457C56 15.9238 55.5488 15.4629 54.6465 15.4629C53.9355 15.4629 53.4492 15.7656 53.1875 16.3711V21H52.1035V14.6602H53.1289ZM66.5469 21C66.4844 20.875 66.4336 20.6523 66.3945 20.332C65.8906 20.8555 65.2891 21.1172 64.5898 21.1172C63.9648 21.1172 63.4512 20.9414 63.0488 20.5898C62.6504 20.2344 62.4512 19.7852 62.4512 19.2422C62.4512 18.582 62.7012 18.0703 63.2012 17.707C63.7051 17.3398 64.4121 17.1562 65.3223 17.1562H66.377V16.6582C66.377 16.2793 66.2637 15.9785 66.0371 15.7559C65.8105 15.5293 65.4766 15.416 65.0352 15.416C64.6484 15.416 64.3242 15.5137 64.0625 15.709C63.8008 15.9043 63.6699 16.1406 63.6699 16.418H62.5801C62.5801 16.1016 62.6914 15.7969 62.9141 15.5039C63.1406 15.207 63.4453 14.9727 63.8281 14.8008C64.2148 14.6289 64.6387 14.543 65.0996 14.543C65.8301 14.543 66.4023 14.7266 66.8164 15.0938C67.2305 15.457 67.4453 15.959 67.4609 16.5996V19.5176C67.4609 20.0996 67.5352 20.5625 67.6836 20.9062V21H66.5469ZM64.748 20.1738C65.0879 20.1738 65.4102 20.0859 65.7148 19.9102C66.0195 19.7344 66.2402 19.5059 66.377 19.2246V17.9238H65.5273C64.1992 17.9238 63.5352 18.3125 63.5352 19.0898C63.5352 19.4297 63.6484 19.6953 63.875 19.8867C64.1016 20.0781 64.3926 20.1738 64.748 20.1738Z" fill="#22272E"/>
<path d="M4 2H74V0H4V2ZM76 4V30H78V4H76ZM74 32H4V34H74V32ZM2 30V4H0V30H2ZM4 32C2.89543 32 2 31.1046 2 30H0C0 32.2091 1.79086 34 4 34V32ZM76 30C76 31.1046 75.1046 32 74 32V34C76.2091 34 78 32.2091 78 30H76ZM74 2C75.1046 2 76 2.89543 76 4H78C78 1.79086 76.2091 0 74 0V2ZM4 0C1.79086 0 0 1.79086 0 4H2C2 2.89543 2.89543 2 4 2V0Z" fill="#30363D"/>
</svg>
