<svg width="80" height="36" viewBox="0 0 80 36" fill="none" xmlns="http://www.w3.org/2000/svg">
<g filter="url(#filter0_d)">
<path d="M2 3C2 1.34315 3.34315 0 5 0H75C76.6569 0 78 1.34315 78 3V29C78 30.6569 76.6569 32 75 32H5C3.34315 32 2 30.6569 2 29V3Z" fill="white"/>
<path d="M22 19C23.6569 19 25 17.6569 25 16C25 14.3431 23.6569 13 22 13C20.3431 13 19 14.3431 19 16C19 17.6569 20.3431 19 22 19Z" fill="#19BCFE"/>
<path fill-rule="evenodd" clip-rule="evenodd" d="M16 25C16.7956 25 17.5587 24.6839 18.1213 24.1213C18.6839 23.5587 19 22.7956 19 22V19H16C15.2044 19 14.4413 19.3161 13.8787 19.8787C13.3161 20.4413 13 21.2044 13 22C13 22.7956 13.3161 23.5587 13.8787 24.1213C14.4413 24.6839 15.2044 25 16 25V25Z" fill="#09CF83"/>
<path fill-rule="evenodd" clip-rule="evenodd" d="M16 19H19V13H16C15.2044 13 14.4413 13.3161 13.8787 13.8787C13.3161 14.4413 13 15.2044 13 16C13 16.7956 13.3161 17.5587 13.8787 18.1213C14.4413 18.6839 15.2044 19 16 19V19Z" fill="#A259FF"/>
<path fill-rule="evenodd" clip-rule="evenodd" d="M16 13H19V7H16C15.2044 7 14.4413 7.31607 13.8787 7.87868C13.3161 8.44129 13 9.20435 13 10C13 10.7956 13.3161 11.5587 13.8787 12.1213C14.4413 12.6839 15.2044 13 16 13V13Z" fill="#F24E1E"/>
<path fill-rule="evenodd" clip-rule="evenodd" d="M22 13H19V7H22C22.7956 7 23.5587 7.31607 24.1213 7.87868C24.6839 8.44129 25 9.20435 25 10C25 10.7956 24.6839 11.5587 24.1213 12.1213C23.5587 12.6839 22.7956 13 22 13Z" fill="#FF7262"/>
<path d="M41.6953 16.2324H38.1152V20H36.9902V11.4688H42.2754V12.3945H38.1152V15.3125H41.6953V16.2324ZM44.6309 20H43.5469V13.6602H44.6309V20ZM43.459 11.9785C43.459 11.8027 43.5117 11.6543 43.6172 11.5332C43.7266 11.4121 43.8867 11.3516 44.0977 11.3516C44.3086 11.3516 44.4688 11.4121 44.5781 11.5332C44.6875 11.6543 44.7422 11.8027 44.7422 11.9785C44.7422 12.1543 44.6875 12.3008 44.5781 12.418C44.4688 12.5352 44.3086 12.5938 44.0977 12.5938C43.8867 12.5938 43.7266 12.5352 43.6172 12.418C43.5117 12.3008 43.459 12.1543 43.459 11.9785ZM46.1133 16.7773C46.1133 15.7891 46.3418 15.0039 46.7988 14.4219C47.2559 13.8359 47.8613 13.543 48.6152 13.543C49.3887 13.543 49.9922 13.8164 50.4258 14.3633L50.4785 13.6602H51.4688V19.8477C51.4688 20.668 51.2246 21.3145 50.7363 21.7871C50.252 22.2598 49.5996 22.4961 48.7793 22.4961C48.3223 22.4961 47.875 22.3984 47.4375 22.2031C47 22.0078 46.666 21.7402 46.4355 21.4004L46.998 20.75C47.4629 21.3242 48.0312 21.6113 48.7031 21.6113C49.2305 21.6113 49.6406 21.4629 49.9336 21.166C50.2305 20.8691 50.3789 20.4512 50.3789 19.9121V19.3672C49.9453 19.8672 49.3535 20.1172 48.6035 20.1172C47.8613 20.1172 47.2598 19.8184 46.7988 19.2207C46.3418 18.623 46.1133 17.8086 46.1133 16.7773ZM47.2031 16.9004C47.2031 17.6152 47.3496 18.1777 47.6426 18.5879C47.9355 18.9941 48.3457 19.1973 48.873 19.1973C49.5566 19.1973 50.0586 18.8867 50.3789 18.2656V15.3711C50.0469 14.7656 49.5488 14.4629 48.8848 14.4629C48.3574 14.4629 47.9453 14.668 47.6484 15.0781C47.3516 15.4883 47.2031 16.0957 47.2031 16.9004ZM54.1289 13.6602L54.1582 14.3633C54.623 13.8164 55.25 13.543 56.0391 13.543C56.9258 13.543 57.5293 13.8828 57.8496 14.5625C58.0605 14.2578 58.334 14.0117 58.6699 13.8242C59.0098 13.6367 59.4102 13.543 59.8711 13.543C61.2617 13.543 61.9688 14.2793 61.9922 15.752V20H60.9082V15.8164C60.9082 15.3633 60.8047 15.0254 60.5977 14.8027C60.3906 14.5762 60.043 14.4629 59.5547 14.4629C59.1523 14.4629 58.8184 14.584 58.5527 14.8262C58.2871 15.0645 58.1328 15.3867 58.0898 15.793V20H57V15.8457C57 14.9238 56.5488 14.4629 55.6465 14.4629C54.9355 14.4629 54.4492 14.7656 54.1875 15.3711V20H53.1035V13.6602H54.1289ZM67.5469 20C67.4844 19.875 67.4336 19.6523 67.3945 19.332C66.8906 19.8555 66.2891 20.1172 65.5898 20.1172C64.9648 20.1172 64.4512 19.9414 64.0488 19.5898C63.6504 19.2344 63.4512 18.7852 63.4512 18.2422C63.4512 17.582 63.7012 17.0703 64.2012 16.707C64.7051 16.3398 65.4121 16.1562 66.3223 16.1562H67.377V15.6582C67.377 15.2793 67.2637 14.9785 67.0371 14.7559C66.8105 14.5293 66.4766 14.416 66.0352 14.416C65.6484 14.416 65.3242 14.5137 65.0625 14.709C64.8008 14.9043 64.6699 15.1406 64.6699 15.418H63.5801C63.5801 15.1016 63.6914 14.7969 63.9141 14.5039C64.1406 14.207 64.4453 13.9727 64.8281 13.8008C65.2148 13.6289 65.6387 13.543 66.0996 13.543C66.8301 13.543 67.4023 13.7266 67.8164 14.0938C68.2305 14.457 68.4453 14.959 68.4609 15.5996V18.5176C68.4609 19.0996 68.5352 19.5625 68.6836 19.9062V20H67.5469ZM65.748 19.1738C66.0879 19.1738 66.4102 19.0859 66.7148 18.9102C67.0195 18.7344 67.2402 18.5059 67.377 18.2246V16.9238H66.5273C65.1992 16.9238 64.5352 17.3125 64.5352 18.0898C64.5352 18.4297 64.6484 18.6953 64.875 18.8867C65.1016 19.0781 65.3926 19.1738 65.748 19.1738Z" fill="black"/>
</g>
<defs>
<filter id="filter0_d" x="0" y="0" width="80" height="36" filterUnits="userSpaceOnUse" color-interpolation-filters="sRGB">
<feFlood flood-opacity="0" result="BackgroundImageFix"/>
<feColorMatrix in="SourceAlpha" type="matrix" values="0 0 0 0 0 0 0 0 0 0 0 0 0 0 0 0 0 0 127 0" result="hardAlpha"/>
<feOffset dy="2"/>
<feGaussianBlur stdDeviation="1"/>
<feComposite in2="hardAlpha" operator="out"/>
<feColorMatrix type="matrix" values="0 0 0 0 0 0 0 0 0 0 0 0 0 0 0 0 0 0 0.25 0"/>
<feBlend mode="normal" in2="BackgroundImageFix" result="effect1_dropShadow"/>
<feBlend mode="normal" in="SourceGraphic" in2="effect1_dropShadow" result="shape"/>
</filter>
</defs>
</svg>
