<svg width="90" height="39" viewBox="0 0 90 39" fill="none" xmlns="http://www.w3.org/2000/svg">
<path d="M1 4C1 2.34315 2.34315 1 4 1H86C87.6569 1 89 2.34315 89 4V35C89 36.6569 87.6569 38 86 38H4C2.34315 38 1 36.6569 1 35V4Z" fill="#22272E"/>
<g clip-path="url(#clip0)">
<path fill-rule="evenodd" clip-rule="evenodd" d="M17.3113 10.5C15.476 10.5 14 12.0397 14 13.926C14 15.0727 14.546 16.0913 15.3853 16.713C14.9528 17.0371 14.6022 17.458 14.3616 17.9419C14.121 18.4259 13.9972 18.9595 14 19.5C14 20.6475 14.546 21.6652 15.3853 22.287C14.9528 22.6111 14.6022 23.032 14.3616 23.5159C14.121 23.9999 13.9972 24.5335 14 25.074C14 26.9602 15.476 28.5 17.3113 28.5C19.1458 28.5 20.6225 26.9602 20.6225 25.074V22.1775C21.2025 22.6611 21.9336 22.9262 22.6888 22.9268C24.524 22.926 26 21.3863 26 19.5C26 18.3525 25.4548 17.3348 24.6148 16.713C25.0473 16.3889 25.3979 15.968 25.6385 15.4841C25.8791 15.0001 26.0029 14.4665 26 13.926C26 12.0397 24.524 10.5 22.6888 10.5H17.3113V10.5ZM15.2443 13.926C15.2443 12.7327 16.1758 11.7772 17.3113 11.7772H19.3775V16.0748H17.3113C16.1758 16.0748 15.2443 15.1185 15.2443 13.926V13.926ZM22.6888 16.074H20.6225V11.7765H22.6888C23.825 11.7765 24.7558 12.7327 24.7558 13.926C24.7558 15.1185 23.825 16.074 22.6888 16.074ZM15.245 19.5C15.245 18.3075 16.1765 17.3513 17.312 17.3513H19.3783V21.6487H17.3113C16.175 21.6487 15.2443 20.6925 15.2443 19.5H15.245ZM20.6225 19.5C20.6225 18.3075 21.554 17.3513 22.6895 17.3513C23.8258 17.3513 24.7565 18.3068 24.7565 19.5C24.7565 20.6925 23.8258 21.6487 22.6895 21.6487C21.554 21.6487 20.6233 20.6932 20.6233 19.5H20.6225ZM15.245 25.074C15.245 23.8815 16.1765 22.926 17.312 22.926H19.3783V25.074C19.3783 26.2672 18.4483 27.2228 17.312 27.2228C16.1765 27.2228 15.245 26.2672 15.245 25.074Z" fill="#ADBAC7"/>
</g>
<path d="M47.2617 16.2363H43.4336V19.627H46.9746V20.6592H43.4336V25H42.2852V15.1973H47.2617V16.2363ZM49.5449 16.2227C49.3444 16.2227 49.1735 16.1543 49.0322 16.0176C48.891 15.8809 48.8203 15.7077 48.8203 15.498C48.8203 15.2884 48.891 15.1152 49.0322 14.9785C49.1735 14.8372 49.3444 14.7666 49.5449 14.7666C49.75 14.7666 49.9232 14.8372 50.0645 14.9785C50.2103 15.1152 50.2832 15.2884 50.2832 15.498C50.2832 15.6986 50.2103 15.8695 50.0645 16.0107C49.9232 16.152 49.75 16.2227 49.5449 16.2227ZM50.0918 25H48.9707V18H50.0918V25ZM58.3359 24.4395C58.3359 27.0098 57.1055 28.2949 54.6445 28.2949C53.7786 28.2949 53.0221 28.1309 52.375 27.8027V26.6816C53.1634 27.1191 53.9154 27.3379 54.6309 27.3379C56.3535 27.3379 57.2148 26.4219 57.2148 24.5898V23.8242H57.1875C56.6543 24.7174 55.8522 25.1641 54.7812 25.1641C53.9108 25.1641 53.209 24.8542 52.6758 24.2344C52.1471 23.61 51.8828 22.7738 51.8828 21.7256C51.8828 20.5361 52.1676 19.5905 52.7373 18.8887C53.3115 18.1868 54.0954 17.8359 55.0889 17.8359C56.0322 17.8359 56.7318 18.2142 57.1875 18.9707H57.2148V18H58.3359V24.4395ZM57.2148 21.835V20.8027C57.2148 20.2467 57.0257 19.7705 56.6475 19.374C56.2738 18.9775 55.8066 18.7793 55.2461 18.7793C54.5534 18.7793 54.0111 19.0322 53.6191 19.5381C53.2272 20.0394 53.0312 20.7435 53.0312 21.6504C53.0312 22.4297 53.2181 23.054 53.5918 23.5234C53.9701 23.9883 54.4691 24.2207 55.0889 24.2207C55.7178 24.2207 56.2282 23.9974 56.6201 23.5508C57.0166 23.1042 57.2148 22.5322 57.2148 21.835ZM70.5449 25H69.4238V20.9805C69.4238 20.2057 69.3031 19.6452 69.0615 19.2988C68.8245 18.9525 68.4235 18.7793 67.8584 18.7793C67.3799 18.7793 66.972 18.998 66.6348 19.4355C66.3021 19.873 66.1357 20.3971 66.1357 21.0078V25H65.0146V20.8438C65.0146 19.4674 64.4837 18.7793 63.4219 18.7793C62.9297 18.7793 62.5241 18.9867 62.2051 19.4014C61.8861 19.8115 61.7266 20.347 61.7266 21.0078V25H60.6055V18H61.7266V19.1074H61.7539C62.2507 18.2598 62.9753 17.8359 63.9277 17.8359C64.4062 17.8359 64.8232 17.9704 65.1787 18.2393C65.5342 18.5036 65.778 18.8522 65.9102 19.2852C66.4297 18.319 67.2044 17.8359 68.2344 17.8359C69.7747 17.8359 70.5449 18.7861 70.5449 20.6865V25ZM77.6748 25H76.5537V23.9062H76.5264C76.0387 24.7448 75.321 25.1641 74.373 25.1641C73.6758 25.1641 73.1289 24.9795 72.7324 24.6104C72.3405 24.2412 72.1445 23.7513 72.1445 23.1406C72.1445 21.8327 72.9147 21.0716 74.4551 20.8574L76.5537 20.5635C76.5537 19.374 76.0729 18.7793 75.1113 18.7793C74.2682 18.7793 73.5072 19.0664 72.8281 19.6406V18.4922C73.5163 18.0547 74.3092 17.8359 75.207 17.8359C76.8522 17.8359 77.6748 18.7064 77.6748 20.4473V25ZM76.5537 21.459L74.8652 21.6914C74.3457 21.7643 73.9538 21.8942 73.6895 22.0811C73.4251 22.2633 73.293 22.5892 73.293 23.0586C73.293 23.4004 73.4137 23.6807 73.6553 23.8994C73.9014 24.1136 74.2272 24.2207 74.6328 24.2207C75.1888 24.2207 75.6468 24.027 76.0068 23.6396C76.3714 23.2477 76.5537 22.7533 76.5537 22.1562V21.459Z" fill="#ADBAC7"/>
<path d="M4 2H86V0H4V2ZM88 4V35H90V4H88ZM86 37H4V39H86V37ZM2 35V4H0V35H2ZM4 37C2.89543 37 2 36.1046 2 35H0C0 37.2091 1.79086 39 4 39V37ZM88 35C88 36.1046 87.1046 37 86 37V39C88.2091 39 90 37.2091 90 35H88ZM86 2C87.1046 2 88 2.89543 88 4H90C90 1.79086 88.2091 0 86 0V2ZM4 0C1.79086 0 0 1.79086 0 4H2C2 2.89543 2.89543 2 4 2V0Z" fill="#ADBCA7"/>
<defs>
<clipPath id="clip0">
<rect width="18" height="18" fill="white" transform="translate(11 10.5)"/>
</clipPath>
</defs>
</svg>
