<svg xmlns="http://www.w3.org/2000/svg" width="140" height="56" fill="none"><rect width="122" height="48" x="9" y="4" fill="#E0F2F1" rx="4"/><g clip-path="url(#a)"><path fill="#19BCFE" d="M44 32a4 4 0 1 0 0-8 4 4 0 0 0 0 8Z"/><path fill="#09CF83" fill-rule="evenodd" d="M36 40a4 4 0 0 0 4-4v-4h-4a4 4 0 1 0 0 8Z" clip-rule="evenodd"/><path fill="#A259FF" fill-rule="evenodd" d="M36 32h4v-8h-4a4 4 0 1 0 0 8Z" clip-rule="evenodd"/><path fill="#F24E1E" fill-rule="evenodd" d="M36 24h4v-8h-4a4 4 0 1 0 0 8Z" clip-rule="evenodd"/><path fill="#FF7262" fill-rule="evenodd" d="M44 24h-4v-8h4a4 4 0 1 1 0 8Z" clip-rule="evenodd"/></g><path fill="#000" d="M75.156 24.484h-4.375v3.875h4.047v1.18h-4.047V34.5H69.47V23.297h5.687v1.187Zm2.61-.015a.812.812 0 0 1-.586-.235.791.791 0 0 1-.243-.593c0-.24.081-.438.243-.594a.798.798 0 0 1 .586-.242c.234 0 .432.08.593.242.167.156.25.354.25.594 0 .229-.083.424-.25.586a.808.808 0 0 1-.593.242ZM78.39 34.5h-1.282v-8h1.282v8Zm9.421-.64c0 2.937-1.406 4.406-4.218 4.406-.99 0-1.854-.188-2.594-.563v-1.281c.901.5 1.76.75 2.578.75 1.969 0 2.953-1.047 2.953-3.14v-.876H86.5c-.61 1.021-1.526 1.532-2.75 1.532-.995 0-1.797-.355-2.406-1.063-.604-.714-.906-1.67-.906-2.867 0-1.36.325-2.44.976-3.242.656-.802 1.552-1.203 2.688-1.203 1.078 0 1.877.432 2.398 1.296h.031V26.5h1.281v7.36Zm-1.28-2.977v-1.18c0-.635-.217-1.18-.65-1.633-.426-.453-.96-.68-1.6-.68-.792 0-1.412.29-1.86.868-.448.573-.672 1.377-.672 2.414 0 .89.213 1.604.64 2.14.433.532 1.003.797 1.712.797.718 0 1.302-.255 1.75-.765.453-.51.68-1.164.68-1.961Zm15.234 3.617h-1.282v-4.594c0-.885-.138-1.526-.414-1.922-.27-.396-.729-.593-1.375-.593-.547 0-1.013.25-1.398.75-.38.5-.57 1.099-.57 1.797V34.5h-1.282v-4.75c0-1.573-.606-2.36-1.82-2.36-.563 0-1.026.238-1.39.712-.365.468-.547 1.08-.547 1.835V34.5h-1.282v-8h1.281v1.266h.032c.568-.97 1.396-1.453 2.484-1.453.547 0 1.024.153 1.43.46.406.303.685.701.836 1.196.594-1.104 1.479-1.657 2.656-1.657 1.76 0 2.641 1.086 2.641 3.258v4.93Zm8.148 0h-1.281v-1.25h-.031c-.558.958-1.378 1.438-2.461 1.438-.797 0-1.422-.211-1.875-.633-.448-.422-.672-.982-.672-1.68 0-1.495.88-2.365 2.64-2.61l2.399-.335c0-1.36-.55-2.04-1.649-2.04-.963 0-1.833.329-2.609.985v-1.313c.786-.5 1.693-.75 2.719-.75 1.88 0 2.82.995 2.82 2.985V34.5Zm-1.281-4.047-1.93.266c-.594.083-1.042.232-1.344.445-.302.208-.453.58-.453 1.117 0 .39.138.711.414.961.282.245.654.367 1.118.367.635 0 1.158-.221 1.57-.664.416-.448.625-1.013.625-1.695v-.797Z"/><rect width="122" height="48" x="9" y="4" stroke="#009688" stroke-width="2" rx="4"/><defs><clipPath id="a"><path fill="#fff" d="M28 16h24v24H28z"/></clipPath></defs></svg>