<svg width="19" height="18" viewBox="0 0 19 18" fill="none" xmlns="http://www.w3.org/2000/svg">
<path d="M10.9897 5.38952C13.7905 3.32768 10.3641 1.4516 10.9897 0C8.41208 2.60916 11.0754 3.3505 10.9897 5.38952ZM8.89664 5.54653C10.7972 4.12052 8.32837 2.78585 8.89664 1.93605C7.20503 3.76745 8.86981 3.94629 8.89664 5.54653ZM15.4373 6.95932C15.4373 6.69769 15.228 6.43606 14.9141 6.43606H5.07688C4.81524 6.43606 4.55361 6.64534 4.55361 6.95932C4.55361 8.73837 4.81524 14.8605 7.4315 17.843C7.53616 17.9477 7.64082 18 7.79783 18H12.1932C12.3501 18 12.4548 17.9477 12.5595 17.843C15.1757 14.9128 15.4374 8.79068 15.4374 6.95932H15.4373ZM11.5652 16.4826H8.47803C8.32106 16.4826 8.2164 16.4302 8.11174 16.3256C6.33269 14.2326 6.12337 10.0465 6.07106 8.58139C6.07106 8.31976 6.28035 8.05813 6.59433 8.05813H13.5013C13.7629 8.05813 14.0245 8.26745 14.0245 8.58139C14.0245 10.0465 13.7629 14.1802 11.9839 16.3256C11.8269 16.4302 11.7222 16.4826 11.5652 16.4826H11.5652ZM13.1873 11.6163C12.978 13.0291 12.5594 14.6512 11.6699 15.6977C11.5652 15.8023 11.4606 15.8547 11.356 15.8547H8.73963C8.63501 15.8547 8.47803 15.8023 8.42569 15.6977C7.7978 14.9128 7.37919 13.8663 7.11756 12.7674C9.83204 13.1185 12.6232 12.8487 13.1873 11.6163Z" fill="#8D6748"/>
</svg>
