<svg width="19" height="18" viewBox="0 0 19 18" fill="none" xmlns="http://www.w3.org/2000/svg">
<g clip-path="url(#clip0)">
<path d="M17.9947 5.3545C17.9945 5.05181 17.9299 4.78438 17.7991 4.55488C17.6707 4.32913 17.4782 4.14 17.2202 3.99038C15.0902 2.761 12.958 1.53538 10.8287 0.30475C10.2547 -0.0269372 9.69805 -0.0148747 9.12823 0.321625C8.28042 0.822125 4.03567 3.25638 2.7708 3.98969C2.24992 4.29156 1.99642 4.7535 1.9963 5.35394C1.99548 7.82631 1.9963 10.2986 1.99548 12.771C1.99561 13.067 2.05755 13.3293 2.18255 13.5554C2.31105 13.7879 2.50611 13.9823 2.77011 14.1353C4.03505 14.8686 8.28036 17.3026 9.12798 17.8032C9.69805 18.1399 10.2547 18.1519 10.8289 17.8201C12.9583 16.5894 15.0905 15.3639 17.2209 14.1345C17.4849 13.9816 17.68 13.7871 17.8085 13.5548C17.9333 13.3286 17.9954 13.0664 17.9955 12.7703C17.9955 12.7703 17.9955 7.82694 17.9947 5.3545Z" fill="#A9B9CB"/>
<path d="M10.8143 0.320872C10.2412 -0.0100029 9.68548 0.00205964 9.11661 0.337685C8.27017 0.836872 4.03236 3.26481 2.76955 3.99625C2.24948 4.29731 1.99642 4.75806 1.9963 5.35693C1.99548 7.82287 1.9963 10.2887 1.99548 12.7547C1.99561 13.05 2.05742 13.3116 2.18223 13.5371C2.31055 13.769 2.5053 13.9629 2.76886 14.1154C3.18852 14.3581 3.6085 14.6001 4.0288 14.8417L15.722 3.14843C14.0859 2.20631 12.4494 1.26493 10.8143 0.320872Z" fill="#7F8B99"/>
<path d="M11.649 7.9355L14.1389 7.95306C14.1389 6.91563 13.0888 4.375 10.0781 4.375C8.15993 4.375 5.58118 5.5945 5.58118 9.10063C5.58118 12.6067 8.10911 13.75 10.0781 13.75C13.2667 13.75 14.0287 11.5436 14.0287 10.2968L11.6533 10.1609C11.6533 10.1609 11.7169 11.6031 10.0654 11.6031C8.54105 11.6031 8.28668 9.73575 8.28668 9.10063C8.28668 8.13519 8.62999 6.58537 10.0654 6.58537C11.5009 6.58537 11.649 7.9355 11.649 7.9355Z" fill="white"/>
</g>
<defs>
<clipPath id="clip0">
<rect width="16" height="18" fill="white" transform="translate(1.99548)"/>
</clipPath>
</defs>
</svg>
