<svg width="19" height="18" viewBox="0 0 19 18" fill="none" xmlns="http://www.w3.org/2000/svg">
<g clip-path="url(#clip0)">
<path d="M18.9584 12.8038C18.9665 12.7255 18.9722 12.6464 18.9767 12.5669C18.9822 12.4728 13.3143 7.09509 13.3143 7.09509H13.1788C13.1788 7.09509 18.9237 13.1548 18.9584 12.8038V12.8038Z" fill="url(#paint0_linear)"/>
<path d="M6.86576 10.9383C6.85824 10.9548 6.85079 10.9713 6.84306 10.9878C6.83505 11.0051 6.82675 11.0223 6.81853 11.0394C6.63789 11.4161 9.34793 14.0654 9.56589 13.7436C9.5758 13.7294 9.58578 13.7143 9.59569 13.7001C9.60672 13.6833 9.61762 13.6671 9.62851 13.6502C9.80282 13.3856 6.94315 10.7662 6.86576 10.9383Z" fill="url(#paint1_linear)"/>
<path d="M10.6953 14.6639C10.6877 14.6807 10.6331 14.773 10.5833 14.8217C10.5748 14.8385 13.2289 17.4706 13.2289 17.4706H13.4678C13.468 17.4706 10.9765 14.7751 10.6953 14.6639Z" fill="url(#paint2_linear)"/>
<path d="M18.9807 12.5191C18.8566 15.2706 16.5803 17.4706 13.7992 17.4706H13.4232L10.6459 14.7345C10.8743 14.4123 11.0867 14.0786 11.2758 13.7305H13.7992C14.5972 13.7305 15.2467 13.0814 15.2467 12.2829C15.2467 11.4848 14.5972 10.8354 13.7992 10.8354H12.3059C12.4197 10.234 12.4819 9.61375 12.4819 8.97927C12.4819 8.3351 12.4186 7.7061 12.3007 7.09503H13.2283L18.9643 12.747C18.9712 12.6713 18.9766 12.5956 18.9807 12.5191ZM2.50783 0.460205H0.998994V4.20036H2.50783C5.14308 4.20036 7.28731 6.34402 7.28731 8.97927C7.28731 9.69619 7.12741 10.3768 6.84324 10.9878L9.59587 13.7001C10.4997 12.3478 11.028 10.7243 11.028 8.97927C11.028 4.28189 7.20578 0.460205 2.50783 0.460205Z" fill="url(#paint3_linear)"/>
<path d="M13.799 0.460205H7.68917C9.18149 1.37133 10.4172 2.66326 11.2592 4.20036H13.799C14.5971 4.20036 15.2465 4.84945 15.2465 5.6479C15.2465 6.44615 14.5971 7.09524 13.799 7.09524H13.2283L18.9644 12.7472C18.9779 12.5939 18.9863 12.4396 18.9863 12.2829C18.9863 11.0221 18.5339 9.86544 17.7827 8.96521C18.5339 8.06541 18.9863 6.90856 18.9863 5.6479C18.9863 2.78753 16.6595 0.460205 13.799 0.460205Z" fill="url(#paint4_linear)"/>
<path d="M13.423 17.4706H7.73282C8.8782 16.7633 9.8684 15.8294 10.6457 14.7345L13.423 17.4706ZM9.59569 13.7001L6.84327 10.9878C6.08284 12.622 4.42577 13.7586 2.50765 13.7586H0.998815V17.4984H2.50765C5.46039 17.4984 8.06661 15.9881 9.59569 13.7001Z" fill="url(#paint5_linear)"/>
</g>
<defs>
<linearGradient id="paint0_linear" x1="8.38758" y1="1.78268" x2="19.0463" y2="13.302" gradientUnits="userSpaceOnUse">
<stop stop-color="#F9A03C"/>
<stop offset="1" stop-color="#F7974E"/>
</linearGradient>
<linearGradient id="paint1_linear" x1="-0.508008" y1="3.85836" x2="9.61798" y2="13.685" gradientUnits="userSpaceOnUse">
<stop stop-color="#F9A03C"/>
<stop offset="1" stop-color="#F7974E"/>
</linearGradient>
<linearGradient id="paint2_linear" x1="4.14596" y1="7.3111" x2="13.0124" y2="17.7584" gradientUnits="userSpaceOnUse">
<stop stop-color="#F9A03C"/>
<stop offset="1" stop-color="#F7974E"/>
</linearGradient>
<linearGradient id="paint3_linear" x1="3.03794" y1="0.150275" x2="14.9446" y2="16.7648" gradientUnits="userSpaceOnUse">
<stop stop-color="#F26D58"/>
<stop offset="1" stop-color="#F9A03C"/>
</linearGradient>
<linearGradient id="paint4_linear" x1="9.47909" y1="0.934237" x2="21.8362" y2="8.39976" gradientUnits="userSpaceOnUse">
<stop stop-color="#B84E51"/>
<stop offset="1" stop-color="#F68E48"/>
</linearGradient>
<linearGradient id="paint5_linear" x1="6.83619" y1="12.5155" x2="7.00345" y2="20.593" gradientUnits="userSpaceOnUse">
<stop stop-color="#F9A03C"/>
<stop offset="1" stop-color="#F7974E"/>
</linearGradient>
<clipPath id="clip0">
<rect width="18" height="17.0796" fill="white" transform="translate(0.995476 0.460205)"/>
</clipPath>
</defs>
</svg>
