<svg width="19" height="18" viewBox="0 0 19 18" fill="none" xmlns="http://www.w3.org/2000/svg">
<g clip-path="url(#clip0)">
<path d="M17.9685 5.27837C17.9684 4.97649 17.9039 4.70974 17.7733 4.48087C17.645 4.25568 17.453 4.06699 17.1954 3.9178C15.0688 2.69162 12.9402 1.46918 10.8143 0.24174C10.2412 -0.0891347 9.68548 -0.0770096 9.11661 0.258615C8.27017 0.75774 4.03236 3.18568 2.76955 3.91712C2.24948 4.21824 1.99642 4.67899 1.9963 5.2778C1.99548 7.74374 1.9963 10.2097 1.99548 12.6756C1.99548 12.9709 2.05742 13.2325 2.18223 13.4579C2.31055 13.6899 2.5053 13.8837 2.76886 14.0363C4.03173 14.7677 8.27011 17.1955 9.11636 17.6948C9.68548 18.0306 10.2412 18.0426 10.8145 17.7117C12.9404 16.4842 15.0692 15.2617 17.196 14.0356C17.4596 13.8831 17.6544 13.6891 17.7827 13.4573C17.9073 13.2318 17.9694 12.9702 17.9694 12.6749C17.9694 12.6749 17.9694 7.74437 17.9685 5.27837Z" fill="#A179DC"/>
<path d="M10.0068 8.95258L2.18222 13.4578C2.31053 13.6898 2.50528 13.8836 2.76885 14.0362C4.03172 14.7676 8.2701 17.1954 9.11635 17.6947C9.68547 18.0305 10.2412 18.0425 10.8145 17.7116C12.9404 16.4841 15.0692 15.2616 17.196 14.0355C17.4596 13.883 17.6543 13.689 17.7827 13.4572L10.0068 8.95258Z" fill="#280068"/>
<path d="M17.9686 5.27824C17.9684 4.97637 17.9039 4.70962 17.7733 4.48074L10.0069 8.95262L17.7827 13.4572C17.9073 13.2317 17.9692 12.9701 17.9694 12.6748C17.9694 12.6748 17.9694 7.74424 17.9686 5.27824Z" fill="#390091"/>
<path d="M14.6137 7.26837V8.1105H15.4559V7.26837H15.8769V8.1105H16.7191V8.53156H15.8769V9.37362H16.7191V9.79468H15.8769V10.6368H15.4559V9.79468H14.6137V10.6368H14.1927V9.79468H13.3506V9.37362H14.1927V8.53156H13.3506V8.1105H14.1927V7.26837H14.6137ZM15.4559 8.5315H14.6137V9.37362H15.4559V8.53156V8.5315Z" fill="white"/>
<path d="M10.024 3.03912C12.2205 3.03912 14.1382 4.232 15.1654 6.00513L15.1554 5.98806L12.571 7.47606C12.0619 6.614 11.1285 6.03219 10.0577 6.02019L10.024 6.02C8.39117 6.02 7.06742 7.34375 7.06742 8.97656C7.06689 9.49121 7.20134 9.99699 7.45736 10.4434C7.96699 11.3331 8.92505 11.9332 10.024 11.9332C11.1299 11.9332 12.0934 11.3255 12.6004 10.4263L12.588 10.4479L15.1685 11.9427C14.1525 13.7009 12.2611 14.8901 10.0902 14.9137L10.024 14.9141C7.82061 14.9141 5.89749 13.7139 4.87286 11.9314C4.37267 11.0612 4.08649 10.0524 4.08649 8.97656C4.08649 5.69744 6.74474 3.03906 10.024 3.03906L10.024 3.03912Z" fill="white"/>
</g>
<defs>
<clipPath id="clip0">
<rect width="16" height="18" fill="white" transform="translate(1.99548)"/>
</clipPath>
</defs>
</svg>
