<svg width="19" height="18" viewBox="0 0 19 18" fill="none" xmlns="http://www.w3.org/2000/svg">
<g clip-path="url(#clip0)">
<path d="M11.16 2.7634V5.52712L15.9464 8.29084V5.52712L11.16 2.7634H11.16ZM1.58672 5.52712V8.29084L3.97993 9.67238V6.90898L1.58672 5.52712ZM8.76642 6.90898L6.3732 8.29078V16.5813L8.76642 17.9631V12.436L11.16 13.8179V11.0542L8.76642 9.67238V6.90898Z" fill="#E55B2D"/>
<path d="M11.16 2.7634L3.97993 6.90898V9.67238L8.76642 6.90898V9.67238L11.16 8.29084V2.7634ZM18.34 4.14526L15.9465 5.52712V8.29084L18.34 6.90898V4.14526ZM13.5532 9.67238L11.16 11.0542V13.818L13.5532 12.436V9.67231V9.67238ZM11.16 13.8179L8.76642 12.436V17.9631L11.16 16.5813V13.818L11.16 13.8179Z" fill="#ED8E24"/>
<path d="M11.16 0L1.58672 5.52712L3.97993 6.90898L11.16 2.76339L15.9464 5.52712L18.34 4.14526L11.16 0ZM11.16 8.29077L8.76642 9.67231L11.16 11.0542L13.5532 9.67237L11.16 8.29084V8.29077Z" fill="#F8BF3C"/>
</g>
<defs>
<clipPath id="clip0">
<rect width="16.82" height="18" fill="white" transform="translate(1.58548)"/>
</clipPath>
</defs>
</svg>
