<svg width="19" height="18" viewBox="0 0 19 18" fill="none" xmlns="http://www.w3.org/2000/svg">
<g clip-path="url(#clip0)">
<path d="M8.05751 9.78694C8.12295 8.61965 8.69451 7.59134 9.55686 6.86233C10.4025 6.14632 11.5407 5.70868 12.7826 5.70868C14.0233 5.70868 15.1615 6.14632 16.0078 6.86233C16.8694 7.59127 17.4411 8.61965 17.5071 9.78567C17.5725 10.985 17.0904 12.0992 16.2448 12.925C15.3825 13.7651 14.156 14.2922 12.7826 14.2922C11.4092 14.2922 10.1803 13.7651 9.31857 12.925C8.47231 12.0991 7.99144 10.9849 8.05751 9.78694Z" fill="white"/>
<path d="M10.3587 9.89104C10.3923 9.29215 10.6856 8.76446 11.128 8.39043C11.5619 8.02308 12.1459 7.79849 12.7832 7.79849C13.4198 7.79849 14.0039 8.02308 14.4381 8.39043C14.8802 8.76446 15.1735 9.29215 15.2073 9.89048C15.2409 10.5058 14.9936 11.0775 14.5597 11.5012C14.1172 11.9323 13.4879 12.2028 12.7832 12.2028C12.0785 12.2028 11.4479 11.9323 11.0058 11.5012C10.5716 11.0775 10.3249 10.5058 10.3587 9.89104Z" fill="#265787"/>
<path d="M6.51021 11.1215C6.51443 11.3562 6.58929 11.8127 6.70169 12.1691C6.9378 12.9236 7.33833 13.6216 7.89568 14.2366C8.46766 14.8689 9.17192 15.3768 9.98549 15.7373C10.8405 16.116 11.767 16.3089 12.7293 16.3074C13.6901 16.3061 14.6166 16.1093 15.4717 15.7278C16.2852 15.3637 16.9888 14.8537 17.5598 14.2211C18.1168 13.6034 18.5167 12.9042 18.7536 12.1498C18.8726 11.7686 18.9478 11.3817 18.9779 10.9935C19.0074 10.6105 18.995 10.2254 18.9408 9.84515C18.8348 9.09927 18.5767 8.39943 18.1793 7.76145C17.8159 7.17521 17.3475 6.662 16.7904 6.22998L16.7917 6.22907L11.1704 1.91273C11.1652 1.90893 11.1611 1.90485 11.1557 1.90134C10.7869 1.6182 10.1666 1.61918 9.76105 1.90288C9.35096 2.18982 9.304 2.66437 9.66897 2.96361L9.66742 2.96522L12.012 4.87185L4.86585 4.87944H4.85629C4.26561 4.88014 3.69786 5.26767 3.58539 5.7574C3.4699 6.25634 3.87113 6.67023 4.48528 6.67247L4.4843 6.67465L8.10649 6.66762L1.64291 11.629C1.63469 11.635 1.62576 11.6413 1.61817 11.6474C1.00845 12.1143 0.811347 12.8907 1.19536 13.3819C1.58513 13.8816 2.41389 13.8825 3.02993 13.3848L6.55752 10.4978C6.55752 10.4978 6.50606 10.8875 6.51021 11.1215ZM15.5748 12.4265C14.848 13.1671 13.8304 13.5869 12.7294 13.5892C11.6267 13.5911 10.6091 13.1749 9.8823 12.4357C9.52711 12.0755 9.26626 11.661 9.10529 11.2194C8.94707 10.7849 8.88619 10.321 8.92695 9.8604C8.96533 9.40617 9.10058 8.97295 9.31638 8.58093C9.52838 8.19565 9.82038 7.84742 10.181 7.55289C10.8874 6.97719 11.787 6.66544 12.7277 6.66418C13.6695 6.66291 14.5683 6.97178 15.2755 7.54565C15.6354 7.83885 15.9271 8.18581 16.1392 8.57053C16.3578 8.96461 16.491 9.40032 16.5302 9.8493C16.5703 10.3096 16.5092 10.7732 16.3512 11.2074C16.1899 11.6502 15.93 12.0647 15.5748 12.4265Z" fill="#EA7600"/>
</g>
<defs>
<clipPath id="clip0">
<rect width="18" height="14.6209" fill="white" transform="translate(0.995483 1.68954)"/>
</clipPath>
</defs>
</svg>
