<svg width="70" height="28" viewBox="0 0 70 28" fill="none" xmlns="http://www.w3.org/2000/svg">
<g filter="url(#filter0_d)">
<path d="M2 5C2 2.23858 4.23858 0 7 0H63C65.7614 0 68 2.23858 68 5V19C68 21.7614 65.7614 24 63 24H7C4.23858 24 2 21.7614 2 19V5Z" fill="white"/>
<path d="M10.3199 18.3006L9.05594 4.125H22.9441L21.6784 18.2983L15.9916 19.875L10.3199 18.3006Z" fill="#E44F26"/>
<path d="M16 18.6701L20.5956 17.3961L21.6767 5.28432H16V18.6701Z" fill="#F1662A"/>
<path d="M16 10.5414H13.6994L13.5408 8.76112H16V7.02243H11.6406L11.6823 7.48931L12.1092 12.2801H16V10.5414V10.5414Z" fill="#EBEBEB"/>
<path d="M16 15.0566L15.9921 15.0589L14.056 14.5363L13.9323 13.1497H12.1868L12.4304 15.879L15.9921 16.8679L16 16.8656V15.0566Z" fill="#EBEBEB"/>
<path d="M15.9938 10.5414V12.2801H18.1347L17.9333 14.5352L15.9938 15.0583V16.8673L19.5584 15.879L19.5842 15.5854L19.9926 11.0083L20.0354 10.5414H15.9938V10.5414Z" fill="white"/>
<path d="M15.9938 7.02243V8.76112H20.1934L20.2283 8.37074L20.3076 7.48931L20.3492 7.02243H15.9938V7.02243Z" fill="white"/>
<path d="M37.5469 16H36.416V12.0566H32.1152V16H30.9902V7.46875H32.1152V11.1367H36.416V7.46875H37.5469V16ZM45.2637 8.39453H42.5215V16H41.4023V8.39453H38.666V7.46875H45.2637V8.39453ZM47.9824 7.46875L50.7715 14.4297L53.5605 7.46875H55.0195V16H53.8945V12.6777L54 9.0918L51.1992 16H50.3379L47.543 9.10938L47.6543 12.6777V16H46.5293V7.46875H47.9824ZM58.1367 15.0801H62.1797V16H57.0059V7.46875H58.1367V15.0801Z" fill="black"/>
</g>
<defs>
<filter id="filter0_d" x="0" y="0" width="70" height="28" filterUnits="userSpaceOnUse" color-interpolation-filters="sRGB">
<feFlood flood-opacity="0" result="BackgroundImageFix"/>
<feColorMatrix in="SourceAlpha" type="matrix" values="0 0 0 0 0 0 0 0 0 0 0 0 0 0 0 0 0 0 127 0" result="hardAlpha"/>
<feOffset dy="2"/>
<feGaussianBlur stdDeviation="1"/>
<feComposite in2="hardAlpha" operator="out"/>
<feColorMatrix type="matrix" values="0 0 0 0 0 0 0 0 0 0 0 0 0 0 0 0 0 0 0.25 0"/>
<feBlend mode="normal" in2="BackgroundImageFix" result="effect1_dropShadow"/>
<feBlend mode="normal" in="SourceGraphic" in2="effect1_dropShadow" result="shape"/>
</filter>
</defs>
</svg>
