<svg xmlns="http://www.w3.org/2000/svg" width="138" height="56" fill="none"><rect width="120" height="48" x="9" y="4" fill="#FFEBEE" rx="4"/><path fill="#E44F26" d="m32.426 36.4-1.685-18.9H49.26L47.57 36.398 39.99 38.5l-7.563-2.1Z"/><path fill="#F1662A" d="m40 36.894 6.127-1.7 1.442-16.148H40v17.848Z"/><path fill="#EBEBEB" d="M40 26.055h-3.068l-.211-2.373H40v-2.319h-5.813l.056.623.57 6.387H40v-2.318ZM40 32.075l-.01.003-2.582-.696-.165-1.849h-2.327l.324 3.639 4.75 1.319.01-.004v-2.412Z"/><path fill="#fff" d="M39.992 26.055v2.319h2.854l-.268 3.006-2.586.698v2.412l4.752-1.318.035-.391.544-6.103.057-.623h-5.388ZM39.992 21.363v2.319h5.6l.046-.521.105-1.175.056-.623h-5.807Z"/><path fill="#000" d="M77.89 34.5h-1.312v-5.11h-5.797v5.11H69.47V23.297h1.312v4.914h5.797v-4.914h1.313V34.5Zm9.563-10.016H84.22V34.5h-1.313V24.484H79.68v-1.187h7.773v1.187ZM100.641 34.5h-1.305v-7.516c0-.593.036-1.32.11-2.18h-.032c-.125.506-.237.868-.336 1.087L95.25 34.5h-.64l-3.82-8.547c-.11-.25-.222-.633-.337-1.148h-.031c.041.448.062 1.18.062 2.195v7.5H89.22V23.297h1.734l3.438 7.812c.265.6.437 1.047.515 1.344h.047c.224-.615.404-1.073.54-1.375L99 23.297h1.641V34.5Zm8.765 0h-5.812V23.297h1.312v10.015h4.5V34.5Z"/><rect width="120" height="48" x="9" y="4" stroke="#F44336" stroke-width="2" rx="4"/></svg>