<svg width="108" height="47" viewBox="0 0 108 47" fill="none" xmlns="http://www.w3.org/2000/svg">
<rect x="1" y="1" width="106" height="45" rx="4" fill="#22272E"/>
<g clip-path="url(#clip0_28_4891)">
<path d="M17.0643 14.5L18.5088 30.7L24.991 32.5L31.4901 30.6978L32.9369 14.5H17.0654H17.0643ZM29.7925 19.7987H22.1898L22.3709 21.8339H29.6125L29.0669 27.9336L24.991 29.0631L20.9208 27.9336L20.6429 24.8129H22.6375L22.7793 26.3991L24.9921 26.9954L24.9966 26.9943L27.2106 26.3969L27.4401 23.8206H20.554L20.0185 17.812H29.9714L29.7936 19.7987H29.7925Z" fill="#ADBAC7"/>
</g>
<path d="M55.8906 30H54.5781V24.8906H48.7812V30H47.4688V18.7969H48.7812V23.7109H54.5781V18.7969H55.8906V30ZM65.4531 19.9844H62.2188V30H60.9062V19.9844H57.6797V18.7969H65.4531V19.9844ZM78.6406 30H77.3359V22.4844C77.3359 21.8906 77.3724 21.1641 77.4453 20.3047H77.4141C77.2891 20.8099 77.1771 21.1719 77.0781 21.3906L73.25 30H72.6094L68.7891 21.4531C68.6797 21.2031 68.5677 20.8203 68.4531 20.3047H68.4219C68.4635 20.7526 68.4844 21.4844 68.4844 22.5V30H67.2188V18.7969H68.9531L72.3906 26.6094C72.6562 27.2083 72.8281 27.6562 72.9062 27.9531H72.9531C73.1771 27.3385 73.3568 26.8802 73.4922 26.5781L77 18.7969H78.6406V30ZM87.4062 30H81.5938V18.7969H82.9062V28.8125H87.4062V30Z" fill="#ADBAC7"/>
<rect x="1" y="1" width="106" height="45" rx="4" stroke="#444C56" stroke-width="2"/>
<defs>
<clipPath id="clip0_28_4891">
<rect width="18" height="18" fill="white" transform="translate(16 14.5)"/>
</clipPath>
</defs>
</svg>
