<svg width="106" height="45" viewBox="0 0 106 45" fill="none" xmlns="http://www.w3.org/2000/svg">
<path d="M1 4C1 2.34314 2.34315 1 4 1H102C103.657 1 105 2.34315 105 4V41C105 42.6569 103.657 44 102 44H4C2.34314 44 1 42.6569 1 41V4Z" fill="#22272E"/>
<g clip-path="url(#clip0)">
<path d="M16.0643 13.5L17.5088 29.7L23.991 31.5L30.4901 29.6977L31.9369 13.5H16.0654H16.0643ZM28.7925 18.7988H21.1898L21.3709 20.8339H28.6125L28.0669 26.9336L23.991 28.0631L19.9208 26.9336L19.6429 23.8129H21.6375L21.7793 25.3991L23.9921 25.9954L23.9966 25.9942L26.2106 25.3969L26.4401 22.8206H19.554L19.0185 16.812H28.9714L28.7936 18.7988H28.7925Z" fill="#ADBAC7"/>
</g>
<path d="M54.8906 29H53.5781V23.8906H47.7812V29H46.4688V17.7969H47.7812V22.7109H53.5781V17.7969H54.8906V29ZM64.4531 18.9844H61.2188V29H59.9062V18.9844H56.6797V17.7969H64.4531V18.9844ZM77.6406 29H76.3359V21.4844C76.3359 20.8906 76.3724 20.1641 76.4453 19.3047H76.4141C76.2891 19.8099 76.1771 20.1719 76.0781 20.3906L72.25 29H71.6094L67.7891 20.4531C67.6797 20.2031 67.5677 19.8203 67.4531 19.3047H67.4219C67.4635 19.7526 67.4844 20.4844 67.4844 21.5V29H66.2188V17.7969H67.9531L71.3906 25.6094C71.6562 26.2083 71.8281 26.6562 71.9062 26.9531H71.9531C72.1771 26.3385 72.3568 25.8802 72.4922 25.5781L76 17.7969H77.6406V29ZM86.4062 29H80.5938V17.7969H81.9062V27.8125H86.4062V29Z" fill="#ADBAC7"/>
<path d="M4 2H102V0H4V2ZM104 4V41H106V4H104ZM102 43H4V45H102V43ZM2 41V4H0V41H2ZM4 43C2.89543 43 2 42.1046 2 41H0C0 43.2091 1.79086 45 4 45V43ZM104 41C104 42.1046 103.105 43 102 43V45C104.209 45 106 43.2091 106 41H104ZM102 2C103.105 2 104 2.89543 104 4H106C106 1.79086 104.209 0 102 0V2ZM4 0C1.79086 0 0 1.79086 0 4H2C2 2.89543 2.89543 2 4 2V0Z" fill="#444C56"/>
<defs>
<clipPath id="clip0">
<rect width="18" height="18" fill="white" transform="translate(15 13.5)"/>
</clipPath>
</defs>
</svg>
