<svg width="79" height="36" viewBox="0 0 79 36" fill="none" xmlns="http://www.w3.org/2000/svg">
<g filter="url(#filter0_d)">
<path d="M2 3C2 1.34315 3.34315 0 5 0H74C75.6569 0 77 1.34315 77 3V29C77 30.6569 75.6569 32 74 32H5C3.34315 32 2 30.6569 2 29V3Z" fill="#C9D1D9"/>
<path d="M13.3199 22.3006L12.0559 8.125H25.9441L24.6784 22.2983L18.9916 23.875L13.3199 22.3006Z" fill="#E44F26"/>
<path d="M19 22.6701L23.5956 21.3961L24.6767 9.28432H19V22.6701Z" fill="#F1662A"/>
<path d="M19 14.5414H16.6994L16.5408 12.7611H19V11.0224H14.6406L14.6823 11.4893L15.1092 16.2801H19V14.5414V14.5414Z" fill="#EBEBEB"/>
<path d="M19 19.0566L18.9921 19.0589L17.056 18.5363L16.9323 17.1497H15.1868L15.4304 19.879L18.9921 20.8679L19 20.8656V19.0566Z" fill="#EBEBEB"/>
<path d="M18.9938 14.5414V16.2801H21.1347L20.9333 18.5352L18.9938 19.0583V20.8673L22.5584 19.879L22.5842 19.5854L22.9926 15.0083L23.0354 14.5414H18.9938V14.5414Z" fill="white"/>
<path d="M18.9938 11.0224V12.7611H23.1934L23.2283 12.3707L23.3076 11.4893L23.3492 11.0224H18.9938V11.0224Z" fill="white"/>
<path d="M43.5469 20H42.416V16.0566H38.1152V20H36.9902V11.4688H38.1152V15.1367H42.416V11.4688H43.5469V20ZM51.2637 12.3945H48.5215V20H47.4023V12.3945H44.666V11.4688H51.2637V12.3945ZM53.9824 11.4688L56.7715 18.4297L59.5605 11.4688H61.0195V20H59.8945V16.6777L60 13.0918L57.1992 20H56.3379L53.543 13.1094L53.6543 16.6777V20H52.5293V11.4688H53.9824ZM64.1367 19.0801H68.1797V20H63.0059V11.4688H64.1367V19.0801Z" fill="#22272E"/>
</g>
<defs>
<filter id="filter0_d" x="0" y="0" width="79" height="36" filterUnits="userSpaceOnUse" color-interpolation-filters="sRGB">
<feFlood flood-opacity="0" result="BackgroundImageFix"/>
<feColorMatrix in="SourceAlpha" type="matrix" values="0 0 0 0 0 0 0 0 0 0 0 0 0 0 0 0 0 0 127 0" result="hardAlpha"/>
<feOffset dy="2"/>
<feGaussianBlur stdDeviation="1"/>
<feComposite in2="hardAlpha" operator="out"/>
<feColorMatrix type="matrix" values="0 0 0 0 0 0 0 0 0 0 0 0 0 0 0 0 0 0 0.25 0"/>
<feBlend mode="normal" in2="BackgroundImageFix" result="effect1_dropShadow"/>
<feBlend mode="normal" in="SourceGraphic" in2="effect1_dropShadow" result="shape"/>
</filter>
</defs>
</svg>
