<svg width="89" height="39" viewBox="0 0 89 39" fill="none" xmlns="http://www.w3.org/2000/svg">
<path d="M1 4C1 2.34315 2.34315 1 4 1H85C86.6569 1 88 2.34315 88 4V35C88 36.6569 86.6569 38 85 38H4C2.34315 38 1 36.6569 1 35V4Z" fill="#22272E"/>
<g clip-path="url(#clip0)">
<path d="M12.0643 10.5L13.5088 26.7L19.991 28.5L26.4901 26.6977L27.9369 10.5H12.0654H12.0643ZM24.7925 15.7988H17.1898L17.3709 17.8339H24.6125L24.0669 23.9336L19.991 25.0631L15.9208 23.9336L15.6429 20.8129H17.6375L17.7793 22.3991L19.9921 22.9954L19.9966 22.9942L22.2106 22.3969L22.4401 19.8206H15.554L15.0185 13.812H24.9714L24.7936 15.7988H24.7925Z" fill="#ADBAC7"/>
</g>
<path d="M49.6543 25H48.5059V20.5293H43.4336V25H42.2852V15.1973H43.4336V19.4971H48.5059V15.1973H49.6543V25ZM58.0215 16.2363H55.1914V25H54.043V16.2363H51.2197V15.1973H58.0215V16.2363ZM69.5605 25H68.4189V18.4238C68.4189 17.9043 68.4508 17.2686 68.5146 16.5166H68.4873C68.3779 16.9587 68.2799 17.2754 68.1934 17.4668L64.8438 25H64.2832L60.9404 17.5215C60.8447 17.3027 60.7467 16.9678 60.6465 16.5166H60.6191C60.6556 16.9085 60.6738 17.5488 60.6738 18.4375V25H59.5664V15.1973H61.084L64.0918 22.0332C64.3242 22.5573 64.4746 22.9492 64.543 23.209H64.584C64.7799 22.6712 64.9372 22.2702 65.0557 22.0059L68.125 15.1973H69.5605V25ZM77.2305 25H72.1445V15.1973H73.293V23.9609H77.2305V25Z" fill="#ADBAC7"/>
<path d="M4 2H85V0H4V2ZM87 4V35H89V4H87ZM85 37H4V39H85V37ZM2 35V4H0V35H2ZM4 37C2.89543 37 2 36.1046 2 35H0C0 37.2091 1.79086 39 4 39V37ZM87 35C87 36.1046 86.1046 37 85 37V39C87.2091 39 89 37.2091 89 35H87ZM85 2C86.1046 2 87 2.89543 87 4H89C89 1.79086 87.2091 0 85 0V2ZM4 0C1.79086 0 0 1.79086 0 4H2C2 2.89543 2.89543 2 4 2V0Z" fill="#444C56"/>
<defs>
<clipPath id="clip0">
<rect width="18" height="18" fill="white" transform="translate(11 10.5)"/>
</clipPath>
</defs>
</svg>
