<svg width="77" height="34" viewBox="0 0 77 34" fill="none" xmlns="http://www.w3.org/2000/svg">
<path d="M1 4C1 2.34315 2.34315 1 4 1H73C74.6569 1 76 2.34315 76 4V30C76 31.6569 74.6569 33 73 33H4C2.34315 33 1 31.6569 1 30V4Z" fill="#C9D1D9"/>
<path d="M12.3199 23.3006L11.0559 9.125H24.9441L23.6784 23.2983L17.9916 24.875L12.3199 23.3006Z" fill="#E44F26"/>
<path d="M18 23.6701L22.5956 22.3961L23.6767 10.2843H18V23.6701Z" fill="#F1662A"/>
<path d="M18 15.5414H15.6994L15.5408 13.7611H18V12.0224H13.6406L13.6823 12.4893L14.1092 17.2801H18V15.5414Z" fill="#EBEBEB"/>
<path d="M18 20.0566L17.9921 20.0589L16.056 19.5363L15.9323 18.1497H14.1868L14.4304 20.879L17.9921 21.8679L18 21.8656V20.0566Z" fill="#EBEBEB"/>
<path d="M17.9938 15.5414V17.2801H20.1347L19.9333 19.5352L17.9938 20.0583V21.8673L21.5584 20.879L21.5842 20.5854L21.9926 16.0083L22.0354 15.5414H17.9938Z" fill="white"/>
<path d="M17.9938 12.0224V13.7611H22.1934L22.2283 13.3707L22.3076 12.4893L22.3492 12.0224H17.9938Z" fill="white"/>
<path d="M42.5469 21H41.416V17.0566H37.1152V21H35.9902V12.4688H37.1152V16.1367H41.416V12.4688H42.5469V21ZM50.2637 13.3945H47.5215V21H46.4023V13.3945H43.666V12.4688H50.2637V13.3945ZM52.9824 12.4688L55.7715 19.4297L58.5605 12.4688H60.0195V21H58.8945V17.6777L59 14.0918L56.1992 21H55.3379L52.543 14.1094L52.6543 17.6777V21H51.5293V12.4688H52.9824ZM63.1367 20.0801H67.1797V21H62.0059V12.4688H63.1367V20.0801Z" fill="#22272E"/>
<path d="M4 2H73V0H4V2ZM75 4V30H77V4H75ZM73 32H4V34H73V32ZM2 30V4H0V30H2ZM4 32C2.89543 32 2 31.1046 2 30H0C0 32.2091 1.79086 34 4 34V32ZM75 30C75 31.1046 74.1046 32 73 32V34C75.2091 34 77 32.2091 77 30H75ZM73 2C74.1046 2 75 2.89543 75 4H77C77 1.79086 75.2091 0 73 0V2ZM4 0C1.79086 0 0 1.79086 0 4H2C2 2.89543 2.89543 2 4 2V0Z" fill="#30363D"/>
</svg>
