<svg width="98" height="36" viewBox="0 0 98 36" fill="none" xmlns="http://www.w3.org/2000/svg">
<g filter="url(#filter0_d)">
<path d="M2.5 3C2.5 1.34315 3.84315 0 5.5 0H92.5C94.1569 0 95.5 1.34315 95.5 3V29C95.5 30.6569 94.1569 32 92.5 32H5.5C3.84315 32 2.5 30.6569 2.5 29V3Z" fill="white"/>
<g clip-path="url(#clip0)">
<path d="M25.3125 7H13.6875C11.925 7 10.5 8.46154 10.5 10.2692V21.7308C10.5 23.5385 11.925 25 13.6875 25H25.3125C27.075 25 28.5 23.5385 28.5 21.7308V10.2692C28.5 8.46154 27.075 7 25.3125 7Z" fill="#330000"/>
<path d="M18.6976 15.6738C18.6226 15.4413 18.5551 15.2163 18.4801 14.9838C18.4051 14.7513 18.3376 14.5338 18.2776 14.3163C18.2176 14.1063 18.1651 13.9113 18.1126 13.7313H18.0976C18.0301 14.0538 17.9476 14.3763 17.8426 14.6988C17.7301 15.0588 17.6176 15.4338 17.4976 15.8088C17.3926 16.1913 17.2801 16.5438 17.1676 16.8588H19.0726C19.0276 16.7005 18.9676 16.5138 18.9001 16.318C18.8326 16.1163 18.7651 15.8988 18.6976 15.6738ZM21.8251 20.2487H20.2568C20.2051 20.2562 20.1526 20.2187 20.1376 20.1662L19.5226 18.3812H16.7326L16.1626 20.1437C16.1476 20.2112 16.0876 20.2562 16.0201 20.2495H14.6101C14.5276 20.2495 14.5051 20.2037 14.5276 20.1145L16.9426 13.1613C16.9651 13.0863 16.9876 13.0038 17.0176 12.9138C17.0476 12.7563 17.0626 12.5913 17.0626 12.4263C17.0551 12.3888 17.0851 12.3513 17.1226 12.3438H19.0651C19.1251 12.3438 19.1551 12.3663 19.1626 12.4038L21.9001 20.1287C21.9226 20.2105 21.9001 20.2487 21.8251 20.2487V20.2487ZM24.3751 20.1362C24.3751 20.2187 24.3458 20.2562 24.2783 20.2562H22.8076C22.7326 20.2562 22.6951 20.2105 22.6951 20.1362V14.3613C22.6951 14.2863 22.7258 14.2563 22.7933 14.2563H24.2783C24.3458 14.2563 24.3751 14.2938 24.3751 14.3613V20.1362ZM24.2183 13.3638C24.1298 13.4537 24.023 13.5237 23.9051 13.5689C23.7873 13.6142 23.6611 13.6338 23.5351 13.6263C23.2876 13.6338 23.0476 13.5363 22.8668 13.3638C22.695 13.1759 22.6035 12.9282 22.6118 12.6738C22.6043 12.4188 22.7018 12.1788 22.8811 12.0063C23.0626 11.8338 23.3026 11.7438 23.5501 11.7438C23.8433 11.7438 24.0668 11.8338 24.2326 12.0063C24.3976 12.1863 24.4876 12.4263 24.4801 12.6738C24.4876 12.9288 24.3976 13.1763 24.2183 13.3638V13.3638Z" fill="#FF9A00"/>
</g>
<path d="M38.6973 20H37.5723V11.4688H38.6973V20ZM41.7676 20H40.6836V11H41.7676V20ZM44.6855 20H43.6016V11H44.6855V20ZM50.3398 19.373C49.918 19.8691 49.2988 20.1172 48.4824 20.1172C47.8066 20.1172 47.291 19.9219 46.9355 19.5312C46.584 19.1367 46.4062 18.5547 46.4023 17.7852V13.6602H47.4863V17.7559C47.4863 18.7168 47.877 19.1973 48.6582 19.1973C49.4863 19.1973 50.0371 18.8887 50.3105 18.2715V13.6602H51.3945V20H50.3633L50.3398 19.373ZM56.7383 18.3184C56.7383 18.0254 56.627 17.7988 56.4043 17.6387C56.1855 17.4746 55.8008 17.334 55.25 17.2168C54.7031 17.0996 54.2676 16.959 53.9434 16.7949C53.623 16.6309 53.3848 16.4355 53.2285 16.209C53.0762 15.9824 53 15.7129 53 15.4004C53 14.8809 53.2188 14.4414 53.6562 14.082C54.0977 13.7227 54.6602 13.543 55.3438 13.543C56.0625 13.543 56.6445 13.7285 57.0898 14.0996C57.5391 14.4707 57.7637 14.9453 57.7637 15.5234H56.6738C56.6738 15.2266 56.5469 14.9707 56.293 14.7559C56.043 14.541 55.7266 14.4336 55.3438 14.4336C54.9492 14.4336 54.6406 14.5195 54.418 14.6914C54.1953 14.8633 54.084 15.0879 54.084 15.3652C54.084 15.627 54.1875 15.8242 54.3945 15.957C54.6016 16.0898 54.9746 16.2168 55.5137 16.3379C56.0566 16.459 56.4961 16.6035 56.832 16.7715C57.168 16.9395 57.416 17.1426 57.5762 17.3809C57.7402 17.6152 57.8223 17.9023 57.8223 18.2422C57.8223 18.8086 57.5957 19.2637 57.1426 19.6074C56.6895 19.9473 56.1016 20.1172 55.3789 20.1172C54.8711 20.1172 54.4219 20.0273 54.0312 19.8477C53.6406 19.668 53.334 19.418 53.1113 19.0977C52.8926 18.7734 52.7832 18.4238 52.7832 18.0488H53.8672C53.8867 18.4121 54.0312 18.7012 54.3008 18.916C54.5742 19.127 54.9336 19.2324 55.3789 19.2324C55.7891 19.2324 56.1172 19.1504 56.3633 18.9863C56.6133 18.8184 56.7383 18.5957 56.7383 18.3184ZM60.7051 12.125V13.6602H61.8887V14.498H60.7051V18.4297C60.7051 18.6836 60.7578 18.875 60.8633 19.0039C60.9688 19.1289 61.1484 19.1914 61.4023 19.1914C61.5273 19.1914 61.6992 19.168 61.918 19.1211V20C61.6328 20.0781 61.3555 20.1172 61.0859 20.1172C60.6016 20.1172 60.2363 19.9707 59.9902 19.6777C59.7441 19.3848 59.6211 18.9688 59.6211 18.4297V14.498H58.4668V13.6602H59.6211V12.125H60.7051ZM66.2246 14.6328C66.0605 14.6055 65.8828 14.5918 65.6914 14.5918C64.9805 14.5918 64.498 14.8945 64.2441 15.5V20H63.1602V13.6602H64.2148L64.2324 14.3926C64.5879 13.8262 65.0918 13.543 65.7441 13.543C65.9551 13.543 66.1152 13.5703 66.2246 13.625V14.6328ZM70.9062 20C70.8438 19.875 70.793 19.6523 70.7539 19.332C70.25 19.8555 69.6484 20.1172 68.9492 20.1172C68.3242 20.1172 67.8105 19.9414 67.4082 19.5898C67.0098 19.2344 66.8105 18.7852 66.8105 18.2422C66.8105 17.582 67.0605 17.0703 67.5605 16.707C68.0645 16.3398 68.7715 16.1562 69.6816 16.1562H70.7363V15.6582C70.7363 15.2793 70.623 14.9785 70.3965 14.7559C70.1699 14.5293 69.8359 14.416 69.3945 14.416C69.0078 14.416 68.6836 14.5137 68.4219 14.709C68.1602 14.9043 68.0293 15.1406 68.0293 15.418H66.9395C66.9395 15.1016 67.0508 14.7969 67.2734 14.5039C67.5 14.207 67.8047 13.9727 68.1875 13.8008C68.5742 13.6289 68.998 13.543 69.459 13.543C70.1895 13.543 70.7617 13.7266 71.1758 14.0938C71.5898 14.457 71.8047 14.959 71.8203 15.5996V18.5176C71.8203 19.0996 71.8945 19.5625 72.043 19.9062V20H70.9062ZM69.1074 19.1738C69.4473 19.1738 69.7695 19.0859 70.0742 18.9102C70.3789 18.7344 70.5996 18.5059 70.7363 18.2246V16.9238H69.8867C68.5586 16.9238 67.8945 17.3125 67.8945 18.0898C67.8945 18.4297 68.0078 18.6953 68.2344 18.8867C68.4609 19.0781 68.752 19.1738 69.1074 19.1738ZM74.9902 12.125V13.6602H76.1738V14.498H74.9902V18.4297C74.9902 18.6836 75.043 18.875 75.1484 19.0039C75.2539 19.1289 75.4336 19.1914 75.6875 19.1914C75.8125 19.1914 75.9844 19.168 76.2031 19.1211V20C75.918 20.0781 75.6406 20.1172 75.3711 20.1172C74.8867 20.1172 74.5215 19.9707 74.2754 19.6777C74.0293 19.3848 73.9062 18.9688 73.9062 18.4297V14.498H72.752V13.6602H73.9062V12.125H74.9902ZM77.041 16.7715C77.041 16.1504 77.1621 15.5918 77.4043 15.0957C77.6504 14.5996 77.9902 14.2168 78.4238 13.9473C78.8613 13.6777 79.3594 13.543 79.918 13.543C80.7812 13.543 81.4785 13.8418 82.0098 14.4395C82.5449 15.0371 82.8125 15.832 82.8125 16.8242V16.9004C82.8125 17.5176 82.6934 18.0723 82.4551 18.5645C82.2207 19.0527 81.8828 19.4336 81.4414 19.707C81.0039 19.9805 80.5 20.1172 79.9297 20.1172C79.0703 20.1172 78.373 19.8184 77.8379 19.2207C77.3066 18.623 77.041 17.832 77.041 16.8477V16.7715ZM78.1309 16.9004C78.1309 17.6035 78.293 18.168 78.6172 18.5938C78.9453 19.0195 79.3828 19.2324 79.9297 19.2324C80.4805 19.2324 80.918 19.0176 81.2422 18.5879C81.5664 18.1543 81.7285 17.5488 81.7285 16.7715C81.7285 16.0762 81.5625 15.5137 81.2305 15.084C80.9023 14.6504 80.4648 14.4336 79.918 14.4336C79.3828 14.4336 78.9512 14.6465 78.623 15.0723C78.2949 15.498 78.1309 16.1074 78.1309 16.9004ZM87.2363 14.6328C87.0723 14.6055 86.8945 14.5918 86.7031 14.5918C85.9922 14.5918 85.5098 14.8945 85.2559 15.5V20H84.1719V13.6602H85.2266L85.2441 14.3926C85.5996 13.8262 86.1035 13.543 86.7559 13.543C86.9668 13.543 87.127 13.5703 87.2363 13.625V14.6328Z" fill="black"/>
</g>
<defs>
<filter id="filter0_d" x="0.5" y="0" width="97" height="36" filterUnits="userSpaceOnUse" color-interpolation-filters="sRGB">
<feFlood flood-opacity="0" result="BackgroundImageFix"/>
<feColorMatrix in="SourceAlpha" type="matrix" values="0 0 0 0 0 0 0 0 0 0 0 0 0 0 0 0 0 0 127 0" result="hardAlpha"/>
<feOffset dy="2"/>
<feGaussianBlur stdDeviation="1"/>
<feComposite in2="hardAlpha" operator="out"/>
<feColorMatrix type="matrix" values="0 0 0 0 0 0 0 0 0 0 0 0 0 0 0 0 0 0 0.25 0"/>
<feBlend mode="normal" in2="BackgroundImageFix" result="effect1_dropShadow"/>
<feBlend mode="normal" in="SourceGraphic" in2="effect1_dropShadow" result="shape"/>
</filter>
<clipPath id="clip0">
<rect width="18" height="18" fill="white" transform="translate(10.5 7)"/>
</clipPath>
</defs>
</svg>
