<svg width="134" height="47" viewBox="0 0 134 47" fill="none" xmlns="http://www.w3.org/2000/svg">
<rect x="1" y="1" width="132" height="45" rx="4" fill="#22272E"/>
<g clip-path="url(#clip0_28_5010)">
<path d="M23.8975 22.5475C23.8225 22.315 23.755 22.09 23.68 21.8575C23.605 21.625 23.5375 21.4075 23.4775 21.19C23.4175 20.98 23.365 20.785 23.3125 20.605H23.2975C23.23 20.9275 23.1475 21.25 23.0425 21.5725C22.93 21.9325 22.8175 22.3075 22.6975 22.6825C22.5925 23.065 22.48 23.4175 22.3675 23.7325H24.2725C24.2275 23.5742 24.1675 23.3875 24.1 23.1917C24.0325 22.99 23.965 22.7725 23.8975 22.5475ZM30.8125 14.725H19.1875C17.425 14.725 16 16.15 16 17.9125V29.0875C16 30.85 17.425 32.275 19.1875 32.275H30.8125C32.575 32.275 34 30.85 34 29.0875V17.9125C34 16.15 32.575 14.725 30.8125 14.725ZM27.025 27.1225H25.4567C25.405 27.13 25.3525 27.0925 25.3375 27.04L24.7225 25.255H21.9325L21.3625 27.0175C21.3475 27.085 21.2875 27.13 21.22 27.1232H19.81C19.7275 27.1232 19.705 27.0775 19.7275 26.9882L22.1425 20.035C22.165 19.96 22.1875 19.8775 22.2175 19.7875C22.2475 19.63 22.2625 19.465 22.2625 19.3C22.255 19.2625 22.285 19.225 22.3225 19.2175H24.265C24.325 19.2175 24.355 19.24 24.3625 19.2775L27.1 27.0025C27.1225 27.0842 27.1 27.1225 27.025 27.1225ZM29.575 27.01C29.575 27.0925 29.5458 27.13 29.4783 27.13H28.0075C27.9325 27.13 27.895 27.0842 27.895 27.01V21.235C27.895 21.16 27.9257 21.13 27.9932 21.13H29.4783C29.5458 21.13 29.575 21.1675 29.575 21.235V27.01ZM29.4183 20.2375C29.3297 20.3275 29.2229 20.3974 29.105 20.4427C28.9872 20.488 28.861 20.5075 28.735 20.5C28.4875 20.5075 28.2475 20.41 28.0668 20.2375C27.8949 20.0496 27.8034 19.802 27.8117 19.5475C27.8042 19.2925 27.9017 19.0525 28.081 18.88C28.2625 18.7075 28.5025 18.6175 28.75 18.6175C29.0433 18.6175 29.2668 18.7075 29.4325 18.88C29.5975 19.06 29.6875 19.3 29.68 19.5475C29.6875 19.8025 29.5975 20.05 29.4183 20.2375Z" fill="#ADBAC7"/>
</g>
<path d="M48.7812 30H47.4688V18.7969H48.7812V30ZM52.8438 30H51.5625V18.1562H52.8438V30ZM56.7188 30H55.4375V18.1562H56.7188V30ZM65.7812 30H64.5V28.7344H64.4688C63.9375 29.7031 63.1146 30.1875 62 30.1875C60.0938 30.1875 59.1406 29.0521 59.1406 26.7812V22H60.4141V26.5781C60.4141 28.2656 61.0599 29.1094 62.3516 29.1094C62.9766 29.1094 63.4896 28.8802 63.8906 28.4219C64.2969 27.9583 64.5 27.3542 64.5 26.6094V22H65.7812V30ZM67.8906 29.7109V28.3359C68.5885 28.8516 69.3568 29.1094 70.1953 29.1094C71.3203 29.1094 71.8828 28.7344 71.8828 27.9844C71.8828 27.7708 71.8333 27.5911 71.7344 27.4453C71.6406 27.2943 71.5104 27.1615 71.3438 27.0469C71.1823 26.9323 70.9896 26.8307 70.7656 26.7422C70.5469 26.6484 70.3099 26.5521 70.0547 26.4531C69.7005 26.3125 69.388 26.1719 69.1172 26.0312C68.8516 25.8854 68.6276 25.724 68.4453 25.5469C68.2682 25.3646 68.1328 25.1589 68.0391 24.9297C67.9505 24.7005 67.9062 24.4323 67.9062 24.125C67.9062 23.75 67.9922 23.4193 68.1641 23.1328C68.3359 22.8411 68.5651 22.599 68.8516 22.4062C69.138 22.2083 69.4635 22.0599 69.8281 21.9609C70.1979 21.862 70.5781 21.8125 70.9688 21.8125C71.6615 21.8125 72.2812 21.9323 72.8281 22.1719V23.4688C72.2396 23.0833 71.5625 22.8906 70.7969 22.8906C70.5573 22.8906 70.3411 22.9193 70.1484 22.9766C69.9557 23.0286 69.7891 23.1042 69.6484 23.2031C69.513 23.3021 69.4062 23.4219 69.3281 23.5625C69.2552 23.6979 69.2188 23.849 69.2188 24.0156C69.2188 24.224 69.2552 24.3984 69.3281 24.5391C69.4062 24.6797 69.5182 24.8047 69.6641 24.9141C69.8099 25.0234 69.987 25.1224 70.1953 25.2109C70.4036 25.2995 70.6406 25.3958 70.9062 25.5C71.2604 25.6354 71.5781 25.776 71.8594 25.9219C72.1406 26.0625 72.3802 26.224 72.5781 26.4062C72.776 26.5833 72.9271 26.7891 73.0312 27.0234C73.1406 27.2578 73.1953 27.5365 73.1953 27.8594C73.1953 28.2552 73.1068 28.599 72.9297 28.8906C72.7578 29.1823 72.526 29.4245 72.2344 29.6172C71.9427 29.8099 71.6068 29.9531 71.2266 30.0469C70.8464 30.1406 70.4479 30.1875 70.0312 30.1875C69.2083 30.1875 68.4948 30.0286 67.8906 29.7109ZM78.8828 29.9219C78.5807 30.0885 78.1823 30.1719 77.6875 30.1719C76.2865 30.1719 75.5859 29.3906 75.5859 27.8281V23.0938H74.2109V22H75.5859V20.0469L76.8672 19.6328V22H78.8828V23.0938H76.8672V27.6016C76.8672 28.138 76.9583 28.5208 77.1406 28.75C77.3229 28.9792 77.625 29.0938 78.0469 29.0938C78.3698 29.0938 78.6484 29.0052 78.8828 28.8281V29.9219ZM84.7656 23.2969C84.5417 23.125 84.2188 23.0391 83.7969 23.0391C83.25 23.0391 82.7917 23.2969 82.4219 23.8125C82.0573 24.3281 81.875 25.0312 81.875 25.9219V30H80.5938V22H81.875V23.6484H81.9062C82.0885 23.0859 82.3672 22.6484 82.7422 22.3359C83.1172 22.0182 83.5365 21.8594 84 21.8594C84.3333 21.8594 84.5885 21.8958 84.7656 21.9688V23.2969ZM91.8828 30H90.6016V28.75H90.5703C90.013 29.7083 89.1927 30.1875 88.1094 30.1875C87.3125 30.1875 86.6875 29.9766 86.2344 29.5547C85.7865 29.1328 85.5625 28.5729 85.5625 27.875C85.5625 26.3802 86.4427 25.5104 88.2031 25.2656L90.6016 24.9297C90.6016 23.5703 90.0521 22.8906 88.9531 22.8906C87.9896 22.8906 87.1198 23.2188 86.3438 23.875V22.5625C87.1302 22.0625 88.0365 21.8125 89.0625 21.8125C90.9427 21.8125 91.8828 22.8073 91.8828 24.7969V30ZM90.6016 25.9531L88.6719 26.2188C88.0781 26.3021 87.6302 26.4505 87.3281 26.6641C87.026 26.8724 86.875 27.2448 86.875 27.7812C86.875 28.1719 87.013 28.4922 87.2891 28.7422C87.5703 28.987 87.9427 29.1094 88.4062 29.1094C89.0417 29.1094 89.5651 28.888 89.9766 28.4453C90.3932 27.9974 90.6016 27.4323 90.6016 26.75V25.9531ZM98.0078 29.9219C97.7057 30.0885 97.3073 30.1719 96.8125 30.1719C95.4115 30.1719 94.7109 29.3906 94.7109 27.8281V23.0938H93.3359V22H94.7109V20.0469L95.9922 19.6328V22H98.0078V23.0938H95.9922V27.6016C95.9922 28.138 96.0833 28.5208 96.2656 28.75C96.4479 28.9792 96.75 29.0938 97.1719 29.0938C97.4948 29.0938 97.7734 29.0052 98.0078 28.8281V29.9219ZM103.062 30.1875C101.88 30.1875 100.935 29.8151 100.227 29.0703C99.5234 28.3203 99.1719 27.3281 99.1719 26.0938C99.1719 24.75 99.5391 23.7005 100.273 22.9453C101.008 22.1901 102 21.8125 103.25 21.8125C104.443 21.8125 105.372 22.1797 106.039 22.9141C106.711 23.6484 107.047 24.6667 107.047 25.9688C107.047 27.2448 106.685 28.2682 105.961 29.0391C105.242 29.8047 104.276 30.1875 103.062 30.1875ZM103.156 22.8906C102.333 22.8906 101.682 23.1719 101.203 23.7344C100.724 24.2917 100.484 25.0625 100.484 26.0469C100.484 26.9948 100.727 27.7422 101.211 28.2891C101.695 28.8359 102.344 29.1094 103.156 29.1094C103.984 29.1094 104.62 28.8411 105.062 28.3047C105.51 27.7682 105.734 27.0052 105.734 26.0156C105.734 25.0156 105.51 24.2448 105.062 23.7031C104.62 23.1615 103.984 22.8906 103.156 22.8906ZM113.266 23.2969C113.042 23.125 112.719 23.0391 112.297 23.0391C111.75 23.0391 111.292 23.2969 110.922 23.8125C110.557 24.3281 110.375 25.0312 110.375 25.9219V30H109.094V22H110.375V23.6484H110.406C110.589 23.0859 110.867 22.6484 111.242 22.3359C111.617 22.0182 112.036 21.8594 112.5 21.8594C112.833 21.8594 113.089 21.8958 113.266 21.9688V23.2969Z" fill="#ADBAC7"/>
<rect x="1" y="1" width="132" height="45" rx="4" stroke="#444C56" stroke-width="2"/>
<defs>
<clipPath id="clip0_28_5010">
<rect width="18" height="18" fill="white" transform="translate(16 14.5)"/>
</clipPath>
</defs>
</svg>
