<svg width="132" height="45" viewBox="0 0 132 45" fill="none" xmlns="http://www.w3.org/2000/svg">
<path d="M1 4C1 2.34314 2.34315 1 4 1H128C129.657 1 131 2.34315 131 4V41C131 42.6569 129.657 44 128 44H4C2.34315 44 1 42.6569 1 41V4Z" fill="#22272E"/>
<g clip-path="url(#clip0)">
<path d="M22.8975 21.5475C22.8225 21.315 22.755 21.09 22.68 20.8575C22.605 20.625 22.5375 20.4075 22.4775 20.19C22.4175 19.98 22.365 19.785 22.3125 19.605H22.2975C22.23 19.9275 22.1475 20.25 22.0425 20.5725C21.93 20.9325 21.8175 21.3075 21.6975 21.6825C21.5925 22.065 21.48 22.4175 21.3675 22.7325H23.2725C23.2275 22.5743 23.1675 22.3875 23.1 22.1918C23.0325 21.99 22.965 21.7725 22.8975 21.5475V21.5475ZM29.8125 13.725H18.1875C16.425 13.725 15 15.15 15 16.9125V28.0875C15 29.85 16.425 31.275 18.1875 31.275H29.8125C31.575 31.275 33 29.85 33 28.0875V16.9125C33 15.15 31.575 13.725 29.8125 13.725ZM26.025 26.1225H24.4568C24.405 26.13 24.3525 26.0925 24.3375 26.04L23.7225 24.255H20.9325L20.3625 26.0175C20.3475 26.085 20.2875 26.13 20.22 26.1233H18.81C18.7275 26.1233 18.705 26.0775 18.7275 25.9883L21.1425 19.035C21.165 18.96 21.1875 18.8775 21.2175 18.7875C21.2475 18.63 21.2625 18.465 21.2625 18.3C21.255 18.2625 21.285 18.225 21.3225 18.2175H23.265C23.325 18.2175 23.355 18.24 23.3625 18.2775L26.1 26.0025C26.1225 26.0843 26.1 26.1225 26.025 26.1225V26.1225ZM28.575 26.01C28.575 26.0925 28.5458 26.13 28.4783 26.13H27.0075C26.9325 26.13 26.895 26.0843 26.895 26.01V20.235C26.895 20.16 26.9258 20.13 26.9933 20.13H28.4783C28.5458 20.13 28.575 20.1675 28.575 20.235V26.01V26.01ZM28.4183 19.2375C28.3297 19.3275 28.2229 19.3974 28.105 19.4427C27.9872 19.488 27.861 19.5075 27.735 19.5C27.4875 19.5075 27.2475 19.41 27.0668 19.2375C26.8949 19.0496 26.8034 18.802 26.8117 18.5475C26.8042 18.2925 26.9017 18.0525 27.081 17.88C27.2625 17.7075 27.5025 17.6175 27.75 17.6175C28.0433 17.6175 28.2667 17.7075 28.4325 17.88C28.5975 18.06 28.6875 18.3 28.68 18.5475C28.6875 18.8025 28.5975 19.05 28.4183 19.2375V19.2375Z" fill="#ADBAC7"/>
</g>
<path d="M48.875 17.7969V18.9219H47.7812V27.875H48.875V29H45.375V27.875H46.4688V18.9219H45.375V17.7969H48.875ZM51.8438 29H50.5625V17.1562H51.8438V29ZM55.7188 29H54.4375V17.1562H55.7188V29ZM64.7812 29H63.5V27.7344H63.4688C62.9375 28.7031 62.1146 29.1875 61 29.1875C59.0938 29.1875 58.1406 28.0521 58.1406 25.7812V21H59.4141V25.5781C59.4141 27.2656 60.0599 28.1094 61.3516 28.1094C61.9766 28.1094 62.4896 27.8802 62.8906 27.4219C63.2969 26.9583 63.5 26.3542 63.5 25.6094V21H64.7812V29ZM66.8906 28.7109V27.3359C67.5885 27.8516 68.3568 28.1094 69.1953 28.1094C70.3203 28.1094 70.8828 27.7344 70.8828 26.9844C70.8828 26.7708 70.8333 26.5911 70.7344 26.4453C70.6406 26.2943 70.5104 26.1615 70.3438 26.0469C70.1823 25.9323 69.9896 25.8307 69.7656 25.7422C69.5469 25.6484 69.3099 25.5521 69.0547 25.4531C68.7005 25.3125 68.388 25.1719 68.1172 25.0312C67.8516 24.8854 67.6276 24.724 67.4453 24.5469C67.2682 24.3646 67.1328 24.1589 67.0391 23.9297C66.9505 23.7005 66.9062 23.4323 66.9062 23.125C66.9062 22.75 66.9922 22.4193 67.1641 22.1328C67.3359 21.8411 67.5651 21.599 67.8516 21.4062C68.138 21.2083 68.4635 21.0599 68.8281 20.9609C69.1979 20.862 69.5781 20.8125 69.9688 20.8125C70.6615 20.8125 71.2812 20.9323 71.8281 21.1719V22.4688C71.2396 22.0833 70.5625 21.8906 69.7969 21.8906C69.5573 21.8906 69.3411 21.9193 69.1484 21.9766C68.9557 22.0286 68.7891 22.1042 68.6484 22.2031C68.513 22.3021 68.4062 22.4219 68.3281 22.5625C68.2552 22.6979 68.2188 22.849 68.2188 23.0156C68.2188 23.224 68.2552 23.3984 68.3281 23.5391C68.4062 23.6797 68.5182 23.8047 68.6641 23.9141C68.8099 24.0234 68.987 24.1224 69.1953 24.2109C69.4036 24.2995 69.6406 24.3958 69.9062 24.5C70.2604 24.6354 70.5781 24.776 70.8594 24.9219C71.1406 25.0625 71.3802 25.224 71.5781 25.4062C71.776 25.5833 71.9271 25.7891 72.0312 26.0234C72.1406 26.2578 72.1953 26.5365 72.1953 26.8594C72.1953 27.2552 72.1068 27.599 71.9297 27.8906C71.7578 28.1823 71.526 28.4245 71.2344 28.6172C70.9427 28.8099 70.6068 28.9531 70.2266 29.0469C69.8464 29.1406 69.4479 29.1875 69.0312 29.1875C68.2083 29.1875 67.4948 29.0286 66.8906 28.7109ZM77.8828 28.9219C77.5807 29.0885 77.1823 29.1719 76.6875 29.1719C75.2865 29.1719 74.5859 28.3906 74.5859 26.8281V22.0938H73.2109V21H74.5859V19.0469L75.8672 18.6328V21H77.8828V22.0938H75.8672V26.6016C75.8672 27.138 75.9583 27.5208 76.1406 27.75C76.3229 27.9792 76.625 28.0938 77.0469 28.0938C77.3698 28.0938 77.6484 28.0052 77.8828 27.8281V28.9219ZM83.7656 22.2969C83.5417 22.125 83.2188 22.0391 82.7969 22.0391C82.25 22.0391 81.7917 22.2969 81.4219 22.8125C81.0573 23.3281 80.875 24.0312 80.875 24.9219V29H79.5938V21H80.875V22.6484H80.9062C81.0885 22.0859 81.3672 21.6484 81.7422 21.3359C82.1172 21.0182 82.5365 20.8594 83 20.8594C83.3333 20.8594 83.5885 20.8958 83.7656 20.9688V22.2969ZM90.8828 29H89.6016V27.75H89.5703C89.013 28.7083 88.1927 29.1875 87.1094 29.1875C86.3125 29.1875 85.6875 28.9766 85.2344 28.5547C84.7865 28.1328 84.5625 27.5729 84.5625 26.875C84.5625 25.3802 85.4427 24.5104 87.2031 24.2656L89.6016 23.9297C89.6016 22.5703 89.0521 21.8906 87.9531 21.8906C86.9896 21.8906 86.1198 22.2188 85.3438 22.875V21.5625C86.1302 21.0625 87.0365 20.8125 88.0625 20.8125C89.9427 20.8125 90.8828 21.8073 90.8828 23.7969V29ZM89.6016 24.9531L87.6719 25.2188C87.0781 25.3021 86.6302 25.4505 86.3281 25.6641C86.026 25.8724 85.875 26.2448 85.875 26.7812C85.875 27.1719 86.013 27.4922 86.2891 27.7422C86.5703 27.987 86.9427 28.1094 87.4062 28.1094C88.0417 28.1094 88.5651 27.888 88.9766 27.4453C89.3932 26.9974 89.6016 26.4323 89.6016 25.75V24.9531ZM97.0078 28.9219C96.7057 29.0885 96.3073 29.1719 95.8125 29.1719C94.4115 29.1719 93.7109 28.3906 93.7109 26.8281V22.0938H92.3359V21H93.7109V19.0469L94.9922 18.6328V21H97.0078V22.0938H94.9922V26.6016C94.9922 27.138 95.0833 27.5208 95.2656 27.75C95.4479 27.9792 95.75 28.0938 96.1719 28.0938C96.4948 28.0938 96.7734 28.0052 97.0078 27.8281V28.9219ZM101.938 29.1875C100.755 29.1875 99.8099 28.8151 99.1016 28.0703C98.3984 27.3203 98.0469 26.3281 98.0469 25.0938C98.0469 23.75 98.4141 22.7005 99.1484 21.9453C99.8828 21.1901 100.875 20.8125 102.125 20.8125C103.318 20.8125 104.247 21.1797 104.914 21.9141C105.586 22.6484 105.922 23.6667 105.922 24.9688C105.922 26.2448 105.56 27.2682 104.836 28.0391C104.117 28.8047 103.151 29.1875 101.938 29.1875ZM102.031 21.8906C101.208 21.8906 100.557 22.1719 100.078 22.7344C99.599 23.2917 99.3594 24.0625 99.3594 25.0469C99.3594 25.9948 99.6016 26.7422 100.086 27.2891C100.57 27.8359 101.219 28.1094 102.031 28.1094C102.859 28.1094 103.495 27.8411 103.938 27.3047C104.385 26.7682 104.609 26.0052 104.609 25.0156C104.609 24.0156 104.385 23.2448 103.938 22.7031C103.495 22.1615 102.859 21.8906 102.031 21.8906ZM112.141 22.2969C111.917 22.125 111.594 22.0391 111.172 22.0391C110.625 22.0391 110.167 22.2969 109.797 22.8125C109.432 23.3281 109.25 24.0312 109.25 24.9219V29H107.969V21H109.25V22.6484H109.281C109.464 22.0859 109.742 21.6484 110.117 21.3359C110.492 21.0182 110.911 20.8594 111.375 20.8594C111.708 20.8594 111.964 20.8958 112.141 20.9688V22.2969Z" fill="#ADBAC7"/>
<path d="M4 2H128V0H4V2ZM130 4V41H132V4H130ZM128 43H4V45H128V43ZM2 41V4H0V41H2ZM4 43C2.89543 43 2 42.1046 2 41H0C0 43.2091 1.79087 45 4 45V43ZM130 41C130 42.1046 129.105 43 128 43V45C130.209 45 132 43.2091 132 41H130ZM128 2C129.105 2 130 2.89543 130 4H132C132 1.79086 130.209 0 128 0V2ZM4 0C1.79086 0 0 1.79086 0 4H2C2 2.89543 2.89543 2 4 2V0Z" fill="#444C56"/>
<defs>
<clipPath id="clip0">
<rect width="18" height="18" fill="white" transform="translate(15 13.5)"/>
</clipPath>
</defs>
</svg>
