<svg xmlns="http://www.w3.org/2000/svg" width="164" height="56" fill="none"><rect width="146" height="48" x="9" y="4" fill="#E0F2F1" rx="4"/><g clip-path="url(#a)"><path fill="#300" d="M46.889 17.333H33.11c-2.089 0-3.778 1.733-3.778 3.875v13.584c0 2.142 1.69 3.875 3.778 3.875H46.89c2.089 0 3.778-1.733 3.778-3.875V21.208c0-2.142-1.69-3.875-3.778-3.875Z"/><path fill="#FF9A00" d="M39.049 27.613c-.089-.275-.169-.542-.258-.817a19.193 19.193 0 0 1-.24-.791c-.07-.25-.133-.48-.195-.694h-.018c-.08.382-.178.765-.302 1.147-.134.427-.267.87-.41 1.315a17.49 17.49 0 0 1-.39 1.245h2.258a12.731 12.731 0 0 0-.205-.641c-.08-.24-.16-.497-.24-.764Zm3.707 5.423h-1.859c-.061.008-.123-.036-.141-.098l-.73-2.116H36.72l-.675 2.09a.157.157 0 0 1-.17.124h-1.67c-.098 0-.125-.054-.098-.16l2.862-8.24c.027-.09.053-.187.089-.294.035-.186.053-.382.053-.577-.009-.045.027-.09.071-.098h2.303c.07 0 .106.026.115.07l3.245 9.156c.026.097 0 .143-.09.143Zm3.022-.134c0 .098-.035.142-.115.142H43.92c-.089 0-.133-.054-.133-.142v-6.844c0-.09.036-.125.116-.125h1.76c.08 0 .115.045.115.125v6.844Zm-.186-8.026a1.049 1.049 0 0 1-.81.31 1.104 1.104 0 0 1-.792-.31 1.156 1.156 0 0 1-.302-.818 1.048 1.048 0 0 1 .32-.791c.214-.205.499-.311.792-.311.348 0 .613.106.809.31.196.214.302.499.293.792.01.302-.097.595-.31.818Z"/></g><path fill="#000" d="M70.781 34.5H69.47V23.297h1.312V34.5Zm4.063 0h-1.281V22.656h1.28V34.5Zm3.875 0h-1.281V22.656h1.28V34.5Zm9.062 0H86.5v-1.266h-.031c-.531.97-1.354 1.453-2.469 1.453-1.906 0-2.86-1.135-2.86-3.406V26.5h1.274v4.578c0 1.688.646 2.531 1.938 2.531.625 0 1.138-.229 1.539-.687.406-.464.609-1.068.609-1.813V26.5h1.281v8Zm2.11-.29v-1.374a3.791 3.791 0 0 0 2.304.773c1.125 0 1.688-.375 1.688-1.125a.938.938 0 0 0-.149-.539 1.353 1.353 0 0 0-.39-.398 2.73 2.73 0 0 0-.578-.305c-.22-.094-.456-.19-.711-.289a10.24 10.24 0 0 1-.938-.422 3.094 3.094 0 0 1-.672-.484 1.924 1.924 0 0 1-.406-.617 2.226 2.226 0 0 1-.133-.805c0-.375.086-.706.258-.992.172-.292.401-.534.688-.727.286-.198.611-.346.976-.445.37-.099.75-.148 1.14-.148.694 0 1.313.12 1.86.359v1.297c-.588-.386-1.266-.578-2.031-.578-.24 0-.456.028-.649.086-.192.052-.359.127-.5.226a1.11 1.11 0 0 0-.32.36.94.94 0 0 0-.11.453c0 .208.037.382.11.523.078.14.19.266.336.375.146.11.323.208.531.297.209.088.446.185.711.289.354.135.672.276.953.422.282.14.521.302.72.484.197.177.348.383.452.617.11.235.164.513.164.836 0 .396-.088.74-.265 1.032a2.205 2.205 0 0 1-.696.726 3.204 3.204 0 0 1-1.007.43 4.98 4.98 0 0 1-1.196.14c-.823 0-1.536-.158-2.14-.476Zm10.992.212c-.302.167-.701.25-1.195.25-1.401 0-2.102-.781-2.102-2.344v-4.734H96.21V26.5h1.375v-1.953l1.281-.414V26.5h2.016v1.094h-2.016v4.508c0 .536.091.919.274 1.148.182.23.484.344.906.344.323 0 .601-.089.836-.266v1.094Zm5.883-6.625c-.224-.172-.547-.258-.969-.258-.547 0-1.005.258-1.375.773-.365.516-.547 1.22-.547 2.11V34.5h-1.281v-8h1.281v1.648h.031c.183-.562.461-1 .836-1.312a1.897 1.897 0 0 1 1.258-.477c.333 0 .589.037.766.11v1.328Zm7.117 6.703h-1.281v-1.25h-.032c-.557.958-1.377 1.438-2.461 1.438-.797 0-1.421-.211-1.875-.633-.448-.422-.672-.982-.672-1.68 0-1.495.881-2.365 2.641-2.61l2.399-.335c0-1.36-.55-2.04-1.649-2.04-.963 0-1.833.329-2.609.985v-1.313c.786-.5 1.692-.75 2.718-.75 1.881 0 2.821.995 2.821 2.985V34.5Zm-1.281-4.047-1.93.266c-.594.083-1.042.232-1.344.445-.302.208-.453.58-.453 1.117 0 .39.138.711.414.961.281.245.654.367 1.117.367.636 0 1.159-.221 1.571-.664.416-.448.625-1.013.625-1.695v-.797Zm7.406 3.969c-.302.167-.701.25-1.196.25-1.401 0-2.101-.781-2.101-2.344v-4.734h-1.375V26.5h1.375v-1.953l1.281-.414V26.5h2.016v1.094h-2.016v4.508c0 .536.091.919.274 1.148.182.23.484.344.906.344.323 0 .601-.089.836-.266v1.094Zm5.054.266c-1.182 0-2.127-.373-2.835-1.118-.704-.75-1.055-1.742-1.055-2.976 0-1.344.367-2.393 1.101-3.149.735-.755 1.727-1.133 2.977-1.133 1.193 0 2.122.368 2.789 1.102.672.734 1.008 1.753 1.008 3.055 0 1.276-.362 2.3-1.086 3.07-.719.766-1.685 1.148-2.899 1.148Zm.094-7.297c-.823 0-1.474.28-1.953.843-.479.558-.719 1.328-.719 2.313 0 .948.243 1.695.727 2.242.484.547 1.133.82 1.945.82.828 0 1.464-.268 1.906-.804.448-.537.672-1.3.672-2.29 0-1-.224-1.77-.672-2.312-.442-.541-1.078-.812-1.906-.812Zm10.11.406c-.224-.172-.547-.258-.969-.258-.547 0-1.005.258-1.375.773-.365.516-.547 1.22-.547 2.11V34.5h-1.281v-8h1.281v1.648h.031c.183-.562.461-1 .836-1.312a1.897 1.897 0 0 1 1.258-.477c.333 0 .589.037.766.11v1.328Z"/><rect width="146" height="48" x="9" y="4" stroke="#009688" stroke-width="2" rx="4"/><defs><clipPath id="a"><path fill="#fff" d="M29.333 17.333h21.333v21.333H29.333z"/></clipPath></defs></svg>