<svg width="96" height="34" viewBox="0 0 96 34" fill="none" xmlns="http://www.w3.org/2000/svg">
<path d="M1.5 4C1.5 2.34315 2.84315 1 4.5 1H91.5C93.1569 1 94.5 2.34315 94.5 4V30C94.5 31.6569 93.1569 33 91.5 33H4.5C2.84315 33 1.5 31.6569 1.5 30V4Z" fill="#C9D1D9"/>
<g clip-path="url(#clip0)">
<path d="M24.3125 8H12.6875C10.925 8 9.5 9.46154 9.5 11.2692V22.7308C9.5 24.5385 10.925 26 12.6875 26H24.3125C26.075 26 27.5 24.5385 27.5 22.7308V11.2692C27.5 9.46154 26.075 8 24.3125 8Z" fill="#330000"/>
<path d="M17.6976 16.6738C17.6226 16.4413 17.5551 16.2163 17.4801 15.9838C17.4051 15.7513 17.3376 15.5338 17.2776 15.3163C17.2176 15.1063 17.1651 14.9113 17.1126 14.7313H17.0976C17.0301 15.0538 16.9476 15.3763 16.8426 15.6988C16.7301 16.0588 16.6176 16.4338 16.4976 16.8088C16.3926 17.1913 16.2801 17.5438 16.1676 17.8588H18.0726C18.0276 17.7005 17.9676 17.5138 17.9001 17.318C17.8326 17.1163 17.7651 16.8988 17.6976 16.6738ZM20.8251 21.2487H19.2568C19.2051 21.2562 19.1526 21.2187 19.1376 21.1662L18.5226 19.3812H15.7326L15.1626 21.1437C15.1476 21.2112 15.0876 21.2562 15.0201 21.2495H13.6101C13.5276 21.2495 13.5051 21.2037 13.5276 21.1145L15.9426 14.1613C15.9651 14.0863 15.9876 14.0038 16.0176 13.9138C16.0476 13.7563 16.0626 13.5913 16.0626 13.4263C16.0551 13.3888 16.0851 13.3513 16.1226 13.3438H18.0651C18.1251 13.3438 18.1551 13.3663 18.1626 13.4038L20.9001 21.1287C20.9226 21.2105 20.9001 21.2487 20.8251 21.2487ZM23.3751 21.1362C23.3751 21.2187 23.3458 21.2562 23.2783 21.2562H21.8076C21.7326 21.2562 21.6951 21.2105 21.6951 21.1362V15.3613C21.6951 15.2863 21.7258 15.2563 21.7933 15.2563H23.2783C23.3458 15.2563 23.3751 15.2938 23.3751 15.3613V21.1362ZM23.2183 14.3638C23.1298 14.4537 23.023 14.5237 22.9051 14.5689C22.7873 14.6142 22.6611 14.6338 22.5351 14.6263C22.2876 14.6338 22.0476 14.5363 21.8668 14.3638C21.695 14.1759 21.6035 13.9282 21.6118 13.6738C21.6043 13.4188 21.7018 13.1788 21.8811 13.0063C22.0626 12.8338 22.3026 12.7438 22.5501 12.7438C22.8433 12.7438 23.0668 12.8338 23.2326 13.0063C23.3976 13.1863 23.4876 13.4263 23.4801 13.6738C23.4876 13.9288 23.3976 14.1763 23.2183 14.3638Z" fill="#FF9A00"/>
</g>
<path d="M37.6973 21H36.5723V12.4688H37.6973V21ZM40.7676 21H39.6836V12H40.7676V21ZM43.6855 21H42.6016V12H43.6855V21ZM49.3398 20.373C48.918 20.8691 48.2988 21.1172 47.4824 21.1172C46.8066 21.1172 46.291 20.9219 45.9355 20.5312C45.584 20.1367 45.4062 19.5547 45.4023 18.7852V14.6602H46.4863V18.7559C46.4863 19.7168 46.877 20.1973 47.6582 20.1973C48.4863 20.1973 49.0371 19.8887 49.3105 19.2715V14.6602H50.3945V21H49.3633L49.3398 20.373ZM55.7383 19.3184C55.7383 19.0254 55.627 18.7988 55.4043 18.6387C55.1855 18.4746 54.8008 18.334 54.25 18.2168C53.7031 18.0996 53.2676 17.959 52.9434 17.7949C52.623 17.6309 52.3848 17.4355 52.2285 17.209C52.0762 16.9824 52 16.7129 52 16.4004C52 15.8809 52.2188 15.4414 52.6562 15.082C53.0977 14.7227 53.6602 14.543 54.3438 14.543C55.0625 14.543 55.6445 14.7285 56.0898 15.0996C56.5391 15.4707 56.7637 15.9453 56.7637 16.5234H55.6738C55.6738 16.2266 55.5469 15.9707 55.293 15.7559C55.043 15.541 54.7266 15.4336 54.3438 15.4336C53.9492 15.4336 53.6406 15.5195 53.418 15.6914C53.1953 15.8633 53.084 16.0879 53.084 16.3652C53.084 16.627 53.1875 16.8242 53.3945 16.957C53.6016 17.0898 53.9746 17.2168 54.5137 17.3379C55.0566 17.459 55.4961 17.6035 55.832 17.7715C56.168 17.9395 56.416 18.1426 56.5762 18.3809C56.7402 18.6152 56.8223 18.9023 56.8223 19.2422C56.8223 19.8086 56.5957 20.2637 56.1426 20.6074C55.6895 20.9473 55.1016 21.1172 54.3789 21.1172C53.8711 21.1172 53.4219 21.0273 53.0312 20.8477C52.6406 20.668 52.334 20.418 52.1113 20.0977C51.8926 19.7734 51.7832 19.4238 51.7832 19.0488H52.8672C52.8867 19.4121 53.0312 19.7012 53.3008 19.916C53.5742 20.127 53.9336 20.2324 54.3789 20.2324C54.7891 20.2324 55.1172 20.1504 55.3633 19.9863C55.6133 19.8184 55.7383 19.5957 55.7383 19.3184ZM59.7051 13.125V14.6602H60.8887V15.498H59.7051V19.4297C59.7051 19.6836 59.7578 19.875 59.8633 20.0039C59.9688 20.1289 60.1484 20.1914 60.4023 20.1914C60.5273 20.1914 60.6992 20.168 60.918 20.1211V21C60.6328 21.0781 60.3555 21.1172 60.0859 21.1172C59.6016 21.1172 59.2363 20.9707 58.9902 20.6777C58.7441 20.3848 58.6211 19.9688 58.6211 19.4297V15.498H57.4668V14.6602H58.6211V13.125H59.7051ZM65.2246 15.6328C65.0605 15.6055 64.8828 15.5918 64.6914 15.5918C63.9805 15.5918 63.498 15.8945 63.2441 16.5V21H62.1602V14.6602H63.2148L63.2324 15.3926C63.5879 14.8262 64.0918 14.543 64.7441 14.543C64.9551 14.543 65.1152 14.5703 65.2246 14.625V15.6328ZM69.9062 21C69.8438 20.875 69.793 20.6523 69.7539 20.332C69.25 20.8555 68.6484 21.1172 67.9492 21.1172C67.3242 21.1172 66.8105 20.9414 66.4082 20.5898C66.0098 20.2344 65.8105 19.7852 65.8105 19.2422C65.8105 18.582 66.0605 18.0703 66.5605 17.707C67.0645 17.3398 67.7715 17.1562 68.6816 17.1562H69.7363V16.6582C69.7363 16.2793 69.623 15.9785 69.3965 15.7559C69.1699 15.5293 68.8359 15.416 68.3945 15.416C68.0078 15.416 67.6836 15.5137 67.4219 15.709C67.1602 15.9043 67.0293 16.1406 67.0293 16.418H65.9395C65.9395 16.1016 66.0508 15.7969 66.2734 15.5039C66.5 15.207 66.8047 14.9727 67.1875 14.8008C67.5742 14.6289 67.998 14.543 68.459 14.543C69.1895 14.543 69.7617 14.7266 70.1758 15.0938C70.5898 15.457 70.8047 15.959 70.8203 16.5996V19.5176C70.8203 20.0996 70.8945 20.5625 71.043 20.9062V21H69.9062ZM68.1074 20.1738C68.4473 20.1738 68.7695 20.0859 69.0742 19.9102C69.3789 19.7344 69.5996 19.5059 69.7363 19.2246V17.9238H68.8867C67.5586 17.9238 66.8945 18.3125 66.8945 19.0898C66.8945 19.4297 67.0078 19.6953 67.2344 19.8867C67.4609 20.0781 67.752 20.1738 68.1074 20.1738ZM73.9902 13.125V14.6602H75.1738V15.498H73.9902V19.4297C73.9902 19.6836 74.043 19.875 74.1484 20.0039C74.2539 20.1289 74.4336 20.1914 74.6875 20.1914C74.8125 20.1914 74.9844 20.168 75.2031 20.1211V21C74.918 21.0781 74.6406 21.1172 74.3711 21.1172C73.8867 21.1172 73.5215 20.9707 73.2754 20.6777C73.0293 20.3848 72.9062 19.9688 72.9062 19.4297V15.498H71.752V14.6602H72.9062V13.125H73.9902ZM76.041 17.7715C76.041 17.1504 76.1621 16.5918 76.4043 16.0957C76.6504 15.5996 76.9902 15.2168 77.4238 14.9473C77.8613 14.6777 78.3594 14.543 78.918 14.543C79.7812 14.543 80.4785 14.8418 81.0098 15.4395C81.5449 16.0371 81.8125 16.832 81.8125 17.8242V17.9004C81.8125 18.5176 81.6934 19.0723 81.4551 19.5645C81.2207 20.0527 80.8828 20.4336 80.4414 20.707C80.0039 20.9805 79.5 21.1172 78.9297 21.1172C78.0703 21.1172 77.373 20.8184 76.8379 20.2207C76.3066 19.623 76.041 18.832 76.041 17.8477V17.7715ZM77.1309 17.9004C77.1309 18.6035 77.293 19.168 77.6172 19.5938C77.9453 20.0195 78.3828 20.2324 78.9297 20.2324C79.4805 20.2324 79.918 20.0176 80.2422 19.5879C80.5664 19.1543 80.7285 18.5488 80.7285 17.7715C80.7285 17.0762 80.5625 16.5137 80.2305 16.084C79.9023 15.6504 79.4648 15.4336 78.918 15.4336C78.3828 15.4336 77.9512 15.6465 77.623 16.0723C77.2949 16.498 77.1309 17.1074 77.1309 17.9004ZM86.2363 15.6328C86.0723 15.6055 85.8945 15.5918 85.7031 15.5918C84.9922 15.5918 84.5098 15.8945 84.2559 16.5V21H83.1719V14.6602H84.2266L84.2441 15.3926C84.5996 14.8262 85.1035 14.543 85.7559 14.543C85.9668 14.543 86.127 14.5703 86.2363 14.625V15.6328Z" fill="#22272E"/>
<path d="M4.5 2H91.5V0H4.5V2ZM93.5 4V30H95.5V4H93.5ZM91.5 32H4.5V34H91.5V32ZM2.5 30V4H0.5V30H2.5ZM4.5 32C3.39543 32 2.5 31.1046 2.5 30H0.5C0.5 32.2091 2.29086 34 4.5 34V32ZM93.5 30C93.5 31.1046 92.6046 32 91.5 32V34C93.7091 34 95.5 32.2091 95.5 30H93.5ZM91.5 2C92.6046 2 93.5 2.89543 93.5 4H95.5C95.5 1.79086 93.7091 0 91.5 0V2ZM4.5 0C2.29086 0 0.5 1.79086 0.5 4H2.5C2.5 2.89543 3.39543 2 4.5 2V0Z" fill="#30363D"/>
<defs>
<clipPath id="clip0">
<rect width="18" height="18" fill="white" transform="translate(9.5 8)"/>
</clipPath>
</defs>
</svg>
