<svg width="89" height="28" viewBox="0 0 89 28" fill="none" xmlns="http://www.w3.org/2000/svg">
<g filter="url(#filter0_d)">
<path d="M2.5 5C2.5 2.23858 4.73858 0 7.5 0H81.5C84.2614 0 86.5 2.23858 86.5 5V19C86.5 21.7614 84.2614 24 81.5 24H7.5C4.73858 24 2.5 21.7614 2.5 19V5Z" fill="white"/>
<g clip-path="url(#clip0)">
<path d="M22.3125 3H10.6875C8.925 3 7.5 4.46154 7.5 6.26924V17.7308C7.5 19.5385 8.925 21 10.6875 21H22.3125C24.075 21 25.5 19.5385 25.5 17.7308V6.26924C25.5 4.46154 24.075 3 22.3125 3Z" fill="#330000"/>
<path d="M15.6976 11.6738C15.6226 11.4413 15.5551 11.2163 15.4801 10.9838C15.4051 10.7513 15.3376 10.5338 15.2776 10.3163C15.2176 10.1063 15.1651 9.91126 15.1126 9.73126H15.0976C15.0301 10.0538 14.9476 10.3763 14.8426 10.6988C14.7301 11.0588 14.6176 11.4338 14.4976 11.8088C14.3926 12.1913 14.2801 12.5438 14.1676 12.8588H16.0726C16.0276 12.7005 15.9676 12.5138 15.9001 12.318C15.8326 12.1163 15.7651 11.8988 15.6976 11.6738ZM18.8251 16.2487H17.2568C17.2051 16.2562 17.1526 16.2187 17.1376 16.1662L16.5226 14.3812H13.7326L13.1626 16.1437C13.1476 16.2112 13.0876 16.2562 13.0201 16.2495H11.6101C11.5276 16.2495 11.5051 16.2037 11.5276 16.1145L13.9426 9.16126C13.9651 9.08626 13.9876 9.00376 14.0176 8.91376C14.0476 8.75626 14.0626 8.59126 14.0626 8.42626C14.0551 8.38876 14.0851 8.35126 14.1226 8.34376H16.0651C16.1251 8.34376 16.1551 8.36626 16.1626 8.40376L18.9001 16.1287C18.9226 16.2105 18.9001 16.2487 18.8251 16.2487V16.2487ZM21.3751 16.1362C21.3751 16.2187 21.3458 16.2562 21.2783 16.2562H19.8076C19.7326 16.2562 19.6951 16.2105 19.6951 16.1362V10.3613C19.6951 10.2863 19.7258 10.2563 19.7933 10.2563H21.2783C21.3458 10.2563 21.3751 10.2938 21.3751 10.3613V16.1362ZM21.2183 9.36376C21.1298 9.45371 21.023 9.52368 20.9051 9.56895C20.7873 9.61423 20.6611 9.63376 20.5351 9.62626C20.2876 9.63376 20.0476 9.53626 19.8668 9.36376C19.695 9.17587 19.6035 8.92823 19.6118 8.67376C19.6043 8.41876 19.7018 8.17876 19.8811 8.00626C20.0626 7.83376 20.3026 7.74376 20.5501 7.74376C20.8433 7.74376 21.0668 7.83376 21.2326 8.00626C21.3976 8.18626 21.4876 8.42626 21.4801 8.67376C21.4876 8.92876 21.3976 9.17626 21.2183 9.36376V9.36376Z" fill="#FF9A00"/>
</g>
<path d="M32.6973 16H31.5723V7.46875H32.6973V16ZM35.7676 16H34.6836V7H35.7676V16ZM38.6855 16H37.6016V7H38.6855V16ZM44.3398 15.373C43.918 15.8691 43.2988 16.1172 42.4824 16.1172C41.8066 16.1172 41.291 15.9219 40.9355 15.5312C40.584 15.1367 40.4062 14.5547 40.4023 13.7852V9.66016H41.4863V13.7559C41.4863 14.7168 41.877 15.1973 42.6582 15.1973C43.4863 15.1973 44.0371 14.8887 44.3105 14.2715V9.66016H45.3945V16H44.3633L44.3398 15.373ZM50.7383 14.3184C50.7383 14.0254 50.627 13.7988 50.4043 13.6387C50.1855 13.4746 49.8008 13.334 49.25 13.2168C48.7031 13.0996 48.2676 12.959 47.9434 12.7949C47.623 12.6309 47.3848 12.4355 47.2285 12.209C47.0762 11.9824 47 11.7129 47 11.4004C47 10.8809 47.2188 10.4414 47.6562 10.082C48.0977 9.72266 48.6602 9.54297 49.3438 9.54297C50.0625 9.54297 50.6445 9.72852 51.0898 10.0996C51.5391 10.4707 51.7637 10.9453 51.7637 11.5234H50.6738C50.6738 11.2266 50.5469 10.9707 50.293 10.7559C50.043 10.541 49.7266 10.4336 49.3438 10.4336C48.9492 10.4336 48.6406 10.5195 48.418 10.6914C48.1953 10.8633 48.084 11.0879 48.084 11.3652C48.084 11.627 48.1875 11.8242 48.3945 11.957C48.6016 12.0898 48.9746 12.2168 49.5137 12.3379C50.0566 12.459 50.4961 12.6035 50.832 12.7715C51.168 12.9395 51.416 13.1426 51.5762 13.3809C51.7402 13.6152 51.8223 13.9023 51.8223 14.2422C51.8223 14.8086 51.5957 15.2637 51.1426 15.6074C50.6895 15.9473 50.1016 16.1172 49.3789 16.1172C48.8711 16.1172 48.4219 16.0273 48.0312 15.8477C47.6406 15.668 47.334 15.418 47.1113 15.0977C46.8926 14.7734 46.7832 14.4238 46.7832 14.0488H47.8672C47.8867 14.4121 48.0312 14.7012 48.3008 14.916C48.5742 15.127 48.9336 15.2324 49.3789 15.2324C49.7891 15.2324 50.1172 15.1504 50.3633 14.9863C50.6133 14.8184 50.7383 14.5957 50.7383 14.3184ZM54.7051 8.125V9.66016H55.8887V10.498H54.7051V14.4297C54.7051 14.6836 54.7578 14.875 54.8633 15.0039C54.9688 15.1289 55.1484 15.1914 55.4023 15.1914C55.5273 15.1914 55.6992 15.168 55.918 15.1211V16C55.6328 16.0781 55.3555 16.1172 55.0859 16.1172C54.6016 16.1172 54.2363 15.9707 53.9902 15.6777C53.7441 15.3848 53.6211 14.9688 53.6211 14.4297V10.498H52.4668V9.66016H53.6211V8.125H54.7051ZM60.2246 10.6328C60.0605 10.6055 59.8828 10.5918 59.6914 10.5918C58.9805 10.5918 58.498 10.8945 58.2441 11.5V16H57.1602V9.66016H58.2148L58.2324 10.3926C58.5879 9.82617 59.0918 9.54297 59.7441 9.54297C59.9551 9.54297 60.1152 9.57031 60.2246 9.625V10.6328ZM64.9062 16C64.8438 15.875 64.793 15.6523 64.7539 15.332C64.25 15.8555 63.6484 16.1172 62.9492 16.1172C62.3242 16.1172 61.8105 15.9414 61.4082 15.5898C61.0098 15.2344 60.8105 14.7852 60.8105 14.2422C60.8105 13.582 61.0605 13.0703 61.5605 12.707C62.0645 12.3398 62.7715 12.1562 63.6816 12.1562H64.7363V11.6582C64.7363 11.2793 64.623 10.9785 64.3965 10.7559C64.1699 10.5293 63.8359 10.416 63.3945 10.416C63.0078 10.416 62.6836 10.5137 62.4219 10.709C62.1602 10.9043 62.0293 11.1406 62.0293 11.418H60.9395C60.9395 11.1016 61.0508 10.7969 61.2734 10.5039C61.5 10.207 61.8047 9.97266 62.1875 9.80078C62.5742 9.62891 62.998 9.54297 63.459 9.54297C64.1895 9.54297 64.7617 9.72656 65.1758 10.0938C65.5898 10.457 65.8047 10.959 65.8203 11.5996V14.5176C65.8203 15.0996 65.8945 15.5625 66.043 15.9062V16H64.9062ZM63.1074 15.1738C63.4473 15.1738 63.7695 15.0859 64.0742 14.9102C64.3789 14.7344 64.5996 14.5059 64.7363 14.2246V12.9238H63.8867C62.5586 12.9238 61.8945 13.3125 61.8945 14.0898C61.8945 14.4297 62.0078 14.6953 62.2344 14.8867C62.4609 15.0781 62.752 15.1738 63.1074 15.1738ZM68.9902 8.125V9.66016H70.1738V10.498H68.9902V14.4297C68.9902 14.6836 69.043 14.875 69.1484 15.0039C69.2539 15.1289 69.4336 15.1914 69.6875 15.1914C69.8125 15.1914 69.9844 15.168 70.2031 15.1211V16C69.918 16.0781 69.6406 16.1172 69.3711 16.1172C68.8867 16.1172 68.5215 15.9707 68.2754 15.6777C68.0293 15.3848 67.9062 14.9688 67.9062 14.4297V10.498H66.752V9.66016H67.9062V8.125H68.9902ZM71.041 12.7715C71.041 12.1504 71.1621 11.5918 71.4043 11.0957C71.6504 10.5996 71.9902 10.2168 72.4238 9.94727C72.8613 9.67773 73.3594 9.54297 73.918 9.54297C74.7812 9.54297 75.4785 9.8418 76.0098 10.4395C76.5449 11.0371 76.8125 11.832 76.8125 12.8242V12.9004C76.8125 13.5176 76.6934 14.0723 76.4551 14.5645C76.2207 15.0527 75.8828 15.4336 75.4414 15.707C75.0039 15.9805 74.5 16.1172 73.9297 16.1172C73.0703 16.1172 72.373 15.8184 71.8379 15.2207C71.3066 14.623 71.041 13.832 71.041 12.8477V12.7715ZM72.1309 12.9004C72.1309 13.6035 72.293 14.168 72.6172 14.5938C72.9453 15.0195 73.3828 15.2324 73.9297 15.2324C74.4805 15.2324 74.918 15.0176 75.2422 14.5879C75.5664 14.1543 75.7285 13.5488 75.7285 12.7715C75.7285 12.0762 75.5625 11.5137 75.2305 11.084C74.9023 10.6504 74.4648 10.4336 73.918 10.4336C73.3828 10.4336 72.9512 10.6465 72.623 11.0723C72.2949 11.498 72.1309 12.1074 72.1309 12.9004ZM81.2363 10.6328C81.0723 10.6055 80.8945 10.5918 80.7031 10.5918C79.9922 10.5918 79.5098 10.8945 79.2559 11.5V16H78.1719V9.66016H79.2266L79.2441 10.3926C79.5996 9.82617 80.1035 9.54297 80.7559 9.54297C80.9668 9.54297 81.127 9.57031 81.2363 9.625V10.6328Z" fill="black"/>
</g>
<defs>
<filter id="filter0_d" x="0.5" y="0" width="88" height="28" filterUnits="userSpaceOnUse" color-interpolation-filters="sRGB">
<feFlood flood-opacity="0" result="BackgroundImageFix"/>
<feColorMatrix in="SourceAlpha" type="matrix" values="0 0 0 0 0 0 0 0 0 0 0 0 0 0 0 0 0 0 127 0" result="hardAlpha"/>
<feOffset dy="2"/>
<feGaussianBlur stdDeviation="1"/>
<feComposite in2="hardAlpha" operator="out"/>
<feColorMatrix type="matrix" values="0 0 0 0 0 0 0 0 0 0 0 0 0 0 0 0 0 0 0.25 0"/>
<feBlend mode="normal" in2="BackgroundImageFix" result="effect1_dropShadow"/>
<feBlend mode="normal" in="SourceGraphic" in2="effect1_dropShadow" result="shape"/>
</filter>
<clipPath id="clip0">
<rect width="18" height="18" fill="white" transform="translate(7.5 3)"/>
</clipPath>
</defs>
</svg>
