<svg width="111" height="39" viewBox="0 0 111 39" fill="none" xmlns="http://www.w3.org/2000/svg">
<path d="M1 4C1 2.34315 2.34315 1 4 1H107C108.657 1 110 2.34315 110 4V35C110 36.6569 108.657 38 107 38H4C2.34314 38 1 36.6569 1 35V4Z" fill="#22272E"/>
<g clip-path="url(#clip0)">
<path d="M18.8975 18.5475C18.8225 18.315 18.755 18.09 18.68 17.8575C18.605 17.625 18.5375 17.4075 18.4775 17.19C18.4175 16.98 18.365 16.785 18.3125 16.605H18.2975C18.23 16.9275 18.1475 17.25 18.0425 17.5725C17.93 17.9325 17.8175 18.3075 17.6975 18.6825C17.5925 19.065 17.48 19.4175 17.3675 19.7325H19.2725C19.2275 19.5743 19.1675 19.3875 19.1 19.1918C19.0325 18.99 18.965 18.7725 18.8975 18.5475V18.5475ZM25.8125 10.725H14.1875C12.425 10.725 11 12.15 11 13.9125V25.0875C11 26.85 12.425 28.275 14.1875 28.275H25.8125C27.575 28.275 29 26.85 29 25.0875V13.9125C29 12.15 27.575 10.725 25.8125 10.725ZM22.025 23.1225H20.4568C20.405 23.13 20.3525 23.0925 20.3375 23.04L19.7225 21.255H16.9325L16.3625 23.0175C16.3475 23.085 16.2875 23.13 16.22 23.1233H14.81C14.7275 23.1233 14.705 23.0775 14.7275 22.9883L17.1425 16.035C17.165 15.96 17.1875 15.8775 17.2175 15.7875C17.2475 15.63 17.2625 15.465 17.2625 15.3C17.255 15.2625 17.285 15.225 17.3225 15.2175H19.265C19.325 15.2175 19.355 15.24 19.3625 15.2775L22.1 23.0025C22.1225 23.0843 22.1 23.1225 22.025 23.1225V23.1225ZM24.575 23.01C24.575 23.0925 24.5458 23.13 24.4783 23.13H23.0075C22.9325 23.13 22.895 23.0843 22.895 23.01V17.235C22.895 17.16 22.9258 17.13 22.9933 17.13H24.4783C24.5458 17.13 24.575 17.1675 24.575 17.235V23.01V23.01ZM24.4183 16.2375C24.3297 16.3275 24.2229 16.3974 24.105 16.4427C23.9872 16.488 23.861 16.5075 23.735 16.5C23.4875 16.5075 23.2475 16.41 23.0668 16.2375C22.8949 16.0496 22.8034 15.802 22.8117 15.5475C22.8042 15.2925 22.9017 15.0525 23.081 14.88C23.2625 14.7075 23.5025 14.6175 23.75 14.6175C24.0433 14.6175 24.2667 14.7075 24.4325 14.88C24.5975 15.06 24.6875 15.3 24.68 15.5475C24.6875 15.8025 24.5975 16.05 24.4183 16.2375V16.2375Z" fill="#ADBAC7"/>
</g>
<path d="M44.3906 15.1973V16.1816H43.4336V24.0156H44.3906V25H41.3281V24.0156H42.2852V16.1816H41.3281V15.1973H44.3906ZM46.9883 25H45.8672V14.6367H46.9883V25ZM50.3789 25H49.2578V14.6367H50.3789V25ZM58.3086 25H57.1875V23.8926H57.1602C56.6953 24.7402 55.9753 25.1641 55 25.1641C53.332 25.1641 52.498 24.1706 52.498 22.1836V18H53.6123V22.0059C53.6123 23.4824 54.1774 24.2207 55.3076 24.2207C55.8545 24.2207 56.3034 24.0202 56.6543 23.6191C57.0098 23.2135 57.1875 22.6849 57.1875 22.0332V18H58.3086V25ZM60.1543 24.7471V23.5439C60.765 23.9951 61.4372 24.2207 62.1709 24.2207C63.1553 24.2207 63.6475 23.8926 63.6475 23.2363C63.6475 23.0495 63.6042 22.8923 63.5176 22.7646C63.4355 22.6325 63.3216 22.5163 63.1758 22.416C63.0345 22.3158 62.8659 22.2269 62.6699 22.1494C62.4785 22.0674 62.2712 21.9831 62.0479 21.8965C61.738 21.7734 61.4645 21.6504 61.2275 21.5273C60.9951 21.3997 60.7992 21.2585 60.6396 21.1035C60.4847 20.944 60.3662 20.764 60.2842 20.5635C60.2067 20.363 60.168 20.1283 60.168 19.8594C60.168 19.5312 60.2432 19.2419 60.3936 18.9912C60.5439 18.736 60.7445 18.5241 60.9951 18.3555C61.2458 18.1823 61.5306 18.0524 61.8496 17.9658C62.1732 17.8792 62.5059 17.8359 62.8477 17.8359C63.4538 17.8359 63.9961 17.9408 64.4746 18.1504V19.2852C63.9596 18.9479 63.3672 18.7793 62.6973 18.7793C62.4876 18.7793 62.2985 18.8044 62.1299 18.8545C61.9613 18.9001 61.8154 18.9661 61.6924 19.0527C61.5739 19.1393 61.4805 19.2441 61.4121 19.3672C61.3483 19.4857 61.3164 19.6178 61.3164 19.7637C61.3164 19.946 61.3483 20.0986 61.4121 20.2217C61.4805 20.3447 61.5785 20.4541 61.7061 20.5498C61.8337 20.6455 61.9886 20.7321 62.1709 20.8096C62.3532 20.887 62.5605 20.9714 62.793 21.0625C63.1029 21.181 63.3809 21.304 63.627 21.4316C63.873 21.5547 64.0827 21.696 64.2559 21.8555C64.429 22.0104 64.5612 22.1904 64.6523 22.3955C64.748 22.6006 64.7959 22.8444 64.7959 23.127C64.7959 23.4733 64.7184 23.7741 64.5635 24.0293C64.4131 24.2845 64.2103 24.4964 63.9551 24.665C63.6999 24.8337 63.4059 24.959 63.0732 25.041C62.7406 25.123 62.3919 25.1641 62.0273 25.1641C61.3073 25.1641 60.6829 25.0251 60.1543 24.7471ZM69.7725 24.9316C69.5081 25.0775 69.1595 25.1504 68.7266 25.1504C67.5007 25.1504 66.8877 24.4668 66.8877 23.0996V18.957H65.6846V18H66.8877V16.291L68.0088 15.9287V18H69.7725V18.957H68.0088V22.9014C68.0088 23.3708 68.0885 23.7057 68.248 23.9062C68.4076 24.1068 68.6719 24.207 69.041 24.207C69.3236 24.207 69.5674 24.1296 69.7725 23.9746V24.9316ZM74.9199 19.1348C74.724 18.9844 74.4414 18.9092 74.0723 18.9092C73.5938 18.9092 73.1927 19.1348 72.8691 19.5859C72.5501 20.0371 72.3906 20.6523 72.3906 21.4316V25H71.2695V18H72.3906V19.4424H72.418C72.5775 18.9502 72.8213 18.5674 73.1494 18.2939C73.4775 18.016 73.8444 17.877 74.25 17.877C74.5417 17.877 74.765 17.9089 74.9199 17.9727V19.1348ZM81.1475 25H80.0264V23.9062H79.999C79.5114 24.7448 78.7936 25.1641 77.8457 25.1641C77.1484 25.1641 76.6016 24.9795 76.2051 24.6104C75.8132 24.2412 75.6172 23.7513 75.6172 23.1406C75.6172 21.8327 76.3874 21.0716 77.9277 20.8574L80.0264 20.5635C80.0264 19.374 79.5456 18.7793 78.584 18.7793C77.7409 18.7793 76.9798 19.0664 76.3008 19.6406V18.4922C76.9889 18.0547 77.7819 17.8359 78.6797 17.8359C80.3249 17.8359 81.1475 18.7064 81.1475 20.4473V25ZM80.0264 21.459L78.3379 21.6914C77.8184 21.7643 77.4264 21.8942 77.1621 22.0811C76.8978 22.2633 76.7656 22.5892 76.7656 23.0586C76.7656 23.4004 76.8864 23.6807 77.1279 23.8994C77.374 24.1136 77.6999 24.2207 78.1055 24.2207C78.6615 24.2207 79.1195 24.027 79.4795 23.6396C79.8441 23.2477 80.0264 22.7533 80.0264 22.1562V21.459ZM86.5068 24.9316C86.2425 25.0775 85.8939 25.1504 85.4609 25.1504C84.235 25.1504 83.6221 24.4668 83.6221 23.0996V18.957H82.4189V18H83.6221V16.291L84.7432 15.9287V18H86.5068V18.957H84.7432V22.9014C84.7432 23.3708 84.8229 23.7057 84.9824 23.9062C85.1419 24.1068 85.4062 24.207 85.7754 24.207C86.0579 24.207 86.3018 24.1296 86.5068 23.9746V24.9316ZM90.8203 25.1641C89.7858 25.1641 88.9587 24.8382 88.3389 24.1865C87.7236 23.5303 87.416 22.6621 87.416 21.582C87.416 20.4062 87.7373 19.488 88.3799 18.8271C89.0225 18.1663 89.8906 17.8359 90.9844 17.8359C92.028 17.8359 92.8415 18.1572 93.4248 18.7998C94.0127 19.4424 94.3066 20.3333 94.3066 21.4727C94.3066 22.5892 93.9899 23.4847 93.3564 24.1592C92.7275 24.8291 91.8822 25.1641 90.8203 25.1641ZM90.9023 18.7793C90.1823 18.7793 89.6126 19.0254 89.1934 19.5176C88.7741 20.0052 88.5645 20.6797 88.5645 21.541C88.5645 22.3704 88.7764 23.0244 89.2002 23.5029C89.624 23.9814 90.1914 24.2207 90.9023 24.2207C91.627 24.2207 92.1829 23.986 92.5703 23.5166C92.9622 23.0472 93.1582 22.3796 93.1582 21.5137C93.1582 20.6387 92.9622 19.9642 92.5703 19.4902C92.1829 19.0163 91.627 18.7793 90.9023 18.7793ZM99.748 19.1348C99.5521 18.9844 99.2695 18.9092 98.9004 18.9092C98.4219 18.9092 98.0208 19.1348 97.6973 19.5859C97.3783 20.0371 97.2188 20.6523 97.2188 21.4316V25H96.0977V18H97.2188V19.4424H97.2461C97.4056 18.9502 97.6494 18.5674 97.9775 18.2939C98.3057 18.016 98.6725 17.877 99.0781 17.877C99.3698 17.877 99.5931 17.9089 99.748 17.9727V19.1348Z" fill="#ADBAC7"/>
<path d="M4 2H107V0H4V2ZM109 4V35H111V4H109ZM107 37H4V39H107V37ZM2 35V4H0V35H2ZM4 37C2.89543 37 2 36.1046 2 35H0C0 37.2091 1.79086 39 4 39V37ZM109 35C109 36.1046 108.105 37 107 37V39C109.209 39 111 37.2091 111 35H109ZM107 2C108.105 2 109 2.89543 109 4H111C111 1.79086 109.209 0 107 0V2ZM4 0C1.79086 0 0 1.79086 0 4H2C2 2.89543 2.89543 2 4 2V0Z" fill="#ADBCA7"/>
<defs>
<clipPath id="clip0">
<rect width="18" height="18" fill="white" transform="translate(11 10.5)"/>
</clipPath>
</defs>
</svg>
