<svg width="94" height="34" viewBox="0 0 94 34" fill="none" xmlns="http://www.w3.org/2000/svg">
<path d="M1.5 4C1.5 2.34315 2.84315 1 4.5 1H89.5C91.1569 1 92.5 2.34315 92.5 4V30C92.5 31.6569 91.1569 33 89.5 33H4.5C2.84315 33 1.5 31.6569 1.5 30V4Z" fill="#C9D1D9"/>
<g clip-path="url(#clip0)">
<path d="M18.4033 8.14344C18.1265 8.13899 17.8517 8.19012 17.5951 8.29379C17.3385 8.39747 17.1053 8.55158 16.9093 8.747L10.2909 15.5234C7.78326 18.0282 11.9137 17.8201 13.4049 18.7696C14.0962 19.2207 11.1898 19.7979 11.7821 20.3924C12.362 20.987 15.2713 21.5321 15.8484 22.112C16.4283 22.7037 14.6767 23.3309 15.2538 23.9255C15.8163 24.5201 17.1669 23.9576 17.4071 25.3053C17.5831 26.3015 19.8826 25.8065 20.9109 24.9537C21.5527 24.4059 19.8005 24.4059 20.3804 23.8113C21.8278 22.3494 23.1108 23.1549 23.6413 21.8043C23.9315 21.0837 21.4559 20.5679 22.1146 20.1022C23.6908 18.9946 29.4738 18.4321 26.8081 15.7664L19.9468 8.747C19.5284 8.35539 18.9757 8.13933 18.4027 8.14344H18.4033ZM18.4589 8.78806C18.8572 8.79087 19.256 8.93769 19.5429 9.22456L22.1619 11.8936C22.4049 12.1338 22.4049 12.6322 22.2586 12.7756L20.9576 11.7181L20.6999 13.2768L19.625 12.6969L17.8728 13.8044L17.2957 11.4785L16.3642 13.5001L14.0321 13.4855C13.5838 13.4855 13.6484 13.0197 14.1142 12.554C15.0283 11.5404 16.8125 9.82362 17.375 9.22906C17.6653 8.93037 18.0607 8.78694 18.4589 8.78975V8.78806ZM25.7776 20.9932C25.2208 21.0134 24.6554 21.2919 24.5092 21.8049C24.5092 22.1418 27.1282 22.3353 26.9848 21.7256C26.879 21.2097 26.3345 20.9724 25.7776 20.9932ZM14.2666 22.4523C13.5106 22.4962 12.7023 23.0469 13.3436 23.5863C13.9353 24.1021 14.8376 23.4749 15.125 22.7544C14.9461 22.517 14.6126 22.4321 14.2694 22.4557H14.2666V22.4523ZM24.1897 22.5108C23.4483 23.1847 24.3157 23.8934 25.0391 23.4277C25.2326 23.2961 25.0244 22.6717 24.1897 22.5108Z" fill="black"/>
</g>
<path d="M37.6973 21H36.5723V12.4688H37.6973V21ZM40.6152 14.6602L40.6504 15.457C41.1348 14.8477 41.7676 14.543 42.5488 14.543C43.8887 14.543 44.5645 15.2988 44.5762 16.8105V21H43.4922V16.8047C43.4883 16.3477 43.3828 16.0098 43.1758 15.791C42.9727 15.5723 42.6543 15.4629 42.2207 15.4629C41.8691 15.4629 41.5605 15.5566 41.2949 15.7441C41.0293 15.9316 40.8223 16.1777 40.6738 16.4824V21H39.5898V14.6602H40.6152ZM47.9805 18.0645L47.3008 18.7734V21H46.2168V12H47.3008V17.4434L47.8809 16.7461L49.8555 14.6602H51.1738L48.707 17.3086L51.4609 21H50.1895L47.9805 18.0645ZM55.9844 19.3184C55.9844 19.0254 55.873 18.7988 55.6504 18.6387C55.4316 18.4746 55.0469 18.334 54.4961 18.2168C53.9492 18.0996 53.5137 17.959 53.1895 17.7949C52.8691 17.6309 52.6309 17.4355 52.4746 17.209C52.3223 16.9824 52.2461 16.7129 52.2461 16.4004C52.2461 15.8809 52.4648 15.4414 52.9023 15.082C53.3438 14.7227 53.9062 14.543 54.5898 14.543C55.3086 14.543 55.8906 14.7285 56.3359 15.0996C56.7852 15.4707 57.0098 15.9453 57.0098 16.5234H55.9199C55.9199 16.2266 55.793 15.9707 55.5391 15.7559C55.2891 15.541 54.9727 15.4336 54.5898 15.4336C54.1953 15.4336 53.8867 15.5195 53.6641 15.6914C53.4414 15.8633 53.3301 16.0879 53.3301 16.3652C53.3301 16.627 53.4336 16.8242 53.6406 16.957C53.8477 17.0898 54.2207 17.2168 54.7598 17.3379C55.3027 17.459 55.7422 17.6035 56.0781 17.7715C56.4141 17.9395 56.6621 18.1426 56.8223 18.3809C56.9863 18.6152 57.0684 18.9023 57.0684 19.2422C57.0684 19.8086 56.8418 20.2637 56.3887 20.6074C55.9355 20.9473 55.3477 21.1172 54.625 21.1172C54.1172 21.1172 53.668 21.0273 53.2773 20.8477C52.8867 20.668 52.5801 20.418 52.3574 20.0977C52.1387 19.7734 52.0293 19.4238 52.0293 19.0488H53.1133C53.1328 19.4121 53.2773 19.7012 53.5469 19.916C53.8203 20.127 54.1797 20.2324 54.625 20.2324C55.0352 20.2324 55.3633 20.1504 55.6094 19.9863C55.8594 19.8184 55.9844 19.5957 55.9844 19.3184ZM61.0234 20.2324C61.4102 20.2324 61.748 20.1152 62.0371 19.8809C62.3262 19.6465 62.4863 19.3535 62.5176 19.002H63.543C63.5234 19.3652 63.3984 19.7109 63.168 20.0391C62.9375 20.3672 62.6289 20.6289 62.2422 20.8242C61.8594 21.0195 61.4531 21.1172 61.0234 21.1172C60.1602 21.1172 59.4727 20.8301 58.9609 20.2559C58.4531 19.6777 58.1992 18.8887 58.1992 17.8887V17.707C58.1992 17.0898 58.3125 16.541 58.5391 16.0605C58.7656 15.5801 59.0898 15.207 59.5117 14.9414C59.9375 14.6758 60.4395 14.543 61.0176 14.543C61.7285 14.543 62.3184 14.7559 62.7871 15.1816C63.2598 15.6074 63.5117 16.1602 63.543 16.8398H62.5176C62.4863 16.4297 62.3301 16.0938 62.0488 15.832C61.7715 15.5664 61.4277 15.4336 61.0176 15.4336C60.4668 15.4336 60.0391 15.6328 59.7344 16.0312C59.4336 16.4258 59.2832 16.998 59.2832 17.748V17.9531C59.2832 18.6836 59.4336 19.2461 59.7344 19.6406C60.0352 20.0352 60.4648 20.2324 61.0234 20.2324ZM68.6758 21C68.6133 20.875 68.5625 20.6523 68.5234 20.332C68.0195 20.8555 67.418 21.1172 66.7188 21.1172C66.0938 21.1172 65.5801 20.9414 65.1777 20.5898C64.7793 20.2344 64.5801 19.7852 64.5801 19.2422C64.5801 18.582 64.8301 18.0703 65.3301 17.707C65.834 17.3398 66.541 17.1562 67.4512 17.1562H68.5059V16.6582C68.5059 16.2793 68.3926 15.9785 68.166 15.7559C67.9395 15.5293 67.6055 15.416 67.1641 15.416C66.7773 15.416 66.4531 15.5137 66.1914 15.709C65.9297 15.9043 65.7988 16.1406 65.7988 16.418H64.709C64.709 16.1016 64.8203 15.7969 65.043 15.5039C65.2695 15.207 65.5742 14.9727 65.957 14.8008C66.3438 14.6289 66.7676 14.543 67.2285 14.543C67.959 14.543 68.5312 14.7266 68.9453 15.0938C69.3594 15.457 69.5742 15.959 69.5898 16.5996V19.5176C69.5898 20.0996 69.6641 20.5625 69.8125 20.9062V21H68.6758ZM66.877 20.1738C67.2168 20.1738 67.5391 20.0859 67.8438 19.9102C68.1484 19.7344 68.3691 19.5059 68.5059 19.2246V17.9238H67.6562C66.3281 17.9238 65.6641 18.3125 65.6641 19.0898C65.6641 19.4297 65.7773 19.6953 66.0039 19.8867C66.2305 20.0781 66.5215 20.1738 66.877 20.1738ZM76.6445 17.9004C76.6445 18.8652 76.4238 19.6426 75.9824 20.2324C75.541 20.8223 74.9434 21.1172 74.1895 21.1172C73.4199 21.1172 72.8145 20.873 72.373 20.3848V23.4375H71.2891V14.6602H72.2793L72.332 15.3633C72.7734 14.8164 73.3867 14.543 74.1719 14.543C74.9336 14.543 75.5352 14.8301 75.9766 15.4043C76.4219 15.9785 76.6445 16.7773 76.6445 17.8008V17.9004ZM75.5605 17.7773C75.5605 17.0625 75.4082 16.498 75.1035 16.084C74.7988 15.6699 74.3809 15.4629 73.8496 15.4629C73.1934 15.4629 72.7012 15.7539 72.373 16.3359V19.3652C72.6973 19.9434 73.1934 20.2324 73.8613 20.2324C74.3809 20.2324 74.793 20.0273 75.0977 19.6172C75.4062 19.2031 75.5605 18.5898 75.5605 17.7773ZM80.6582 21.1172C79.7988 21.1172 79.0996 20.8359 78.5605 20.2734C78.0215 19.707 77.752 18.9512 77.752 18.0059V17.8066C77.752 17.1777 77.8711 16.6172 78.1094 16.125C78.3516 15.6289 78.6875 15.2422 79.1172 14.9648C79.5508 14.6836 80.0195 14.543 80.5234 14.543C81.3477 14.543 81.9883 14.8145 82.4453 15.3574C82.9023 15.9004 83.1309 16.6777 83.1309 17.6895V18.1406H78.8359C78.8516 18.7656 79.0332 19.2715 79.3809 19.6582C79.7324 20.041 80.1777 20.2324 80.7168 20.2324C81.0996 20.2324 81.4238 20.1543 81.6895 19.998C81.9551 19.8418 82.1875 19.6348 82.3867 19.377L83.0488 19.8926C82.5176 20.709 81.7207 21.1172 80.6582 21.1172ZM80.5234 15.4336C80.0859 15.4336 79.7188 15.5938 79.4219 15.9141C79.125 16.2305 78.9414 16.6758 78.8711 17.25H82.0469V17.168C82.0156 16.6172 81.8672 16.1914 81.6016 15.8906C81.3359 15.5859 80.9766 15.4336 80.5234 15.4336Z" fill="#22272E"/>
<path d="M4.5 2H89.5V0H4.5V2ZM91.5 4V30H93.5V4H91.5ZM89.5 32H4.5V34H89.5V32ZM2.5 30V4H0.5V30H2.5ZM4.5 32C3.39543 32 2.5 31.1046 2.5 30H0.5C0.5 32.2091 2.29086 34 4.5 34V32ZM91.5 30C91.5 31.1046 90.6046 32 89.5 32V34C91.7091 34 93.5 32.2091 93.5 30H91.5ZM89.5 2C90.6046 2 91.5 2.89543 91.5 4H93.5C93.5 1.79086 91.7091 0 89.5 0V2ZM4.5 0C2.29086 0 0.5 1.79086 0.5 4H2.5C2.5 2.89543 3.39543 2 4.5 2V0Z" fill="#30363D"/>
<defs>
<clipPath id="clip0">
<rect width="18" height="18" fill="white" transform="translate(9.5 8)"/>
</clipPath>
</defs>
</svg>
