<svg xmlns="http://www.w3.org/2000/svg" width="158" height="56" fill="none"><rect width="140" height="48" x="9" y="4" fill="#E0F2F1" rx="4"/><g clip-path="url(#a)"><path fill="#000" d="M39.871 16.191a2.756 2.756 0 0 0-1.992.805l-8.824 9.035c-3.344 3.34 2.163 3.063 4.152 4.329.921.601-2.954 1.37-2.164 2.163.773.793 4.652 1.52 5.422 2.293.773.789-1.563 1.625-.793 2.418.75.793 2.55.043 2.87 1.84.236 1.328 3.302.668 4.673-.469.855-.73-1.48-.73-.708-1.523 1.93-1.95 3.64-.876 4.348-2.676.387-.961-2.914-1.649-2.035-2.27 2.101-1.477 9.812-2.227 6.258-5.78l-9.149-9.36a2.981 2.981 0 0 0-2.059-.805h.001Zm.074.86c.531.004 1.063.2 1.446.582l3.492 3.559c.324.32.324.984.129 1.175l-1.735-1.41-.344 2.079-1.433-.774-2.336 1.477-.77-3.101-1.242 2.695-3.11-.019c-.597 0-.51-.621.11-1.242 1.22-1.351 3.598-3.64 4.348-4.433a1.98 1.98 0 0 1 1.445-.586v-.002Zm9.759 16.273c-.743.027-1.497.398-1.692 1.083 0 .449 3.492.707 3.301-.106-.14-.688-.867-1.005-1.61-.977ZM34.356 35.27c-1.008.058-2.086.792-1.231 1.512.789.688 1.992-.149 2.375-1.11-.238-.316-.683-.43-1.14-.398h-.004v-.004Zm13.23.078c-.988.898.168 1.843 1.133 1.222.258-.175-.02-1.008-1.133-1.222Z"/></g><path fill="#000" d="M70.781 34.5H69.47V23.297h1.312V34.5Zm9.422 0h-1.281v-4.563c0-1.697-.62-2.546-1.86-2.546-.64 0-1.171.242-1.593.726-.417.48-.625 1.086-.625 1.82V34.5h-1.281v-8h1.28v1.328h.032c.604-1.01 1.48-1.515 2.625-1.515.875 0 1.544.283 2.008.851.463.563.695 1.378.695 2.445V34.5Zm9.063 0h-1.797l-3.531-3.844h-.032V34.5h-1.281V22.656h1.281v7.508h.031l3.36-3.664h1.68l-3.711 3.86 4 4.14Zm.828-.29v-1.374a3.791 3.791 0 0 0 2.304.773c1.125 0 1.688-.375 1.688-1.125a.938.938 0 0 0-.148-.539 1.351 1.351 0 0 0-.391-.398 2.731 2.731 0 0 0-.578-.305c-.219-.094-.456-.19-.711-.289a10.24 10.24 0 0 1-.938-.422 3.094 3.094 0 0 1-.672-.484 1.926 1.926 0 0 1-.406-.617 2.226 2.226 0 0 1-.133-.805c0-.375.086-.706.258-.992.172-.292.401-.534.688-.727.286-.198.612-.346.976-.445.37-.099.75-.148 1.14-.148.694 0 1.313.12 1.86.359v1.297c-.588-.386-1.265-.578-2.031-.578-.24 0-.456.028-.648.086-.193.052-.36.127-.5.226a1.11 1.11 0 0 0-.32.36.94.94 0 0 0-.11.453c0 .208.036.382.11.523.077.14.19.266.335.375.146.11.323.208.531.297.209.088.446.185.711.289.355.135.672.276.954.422.28.14.52.302.718.484.198.177.35.383.453.617.11.235.164.513.164.836 0 .396-.088.74-.265 1.032a2.204 2.204 0 0 1-.695.726 3.204 3.204 0 0 1-1.008.43c-.38.094-.779.14-1.196.14-.822 0-1.536-.158-2.14-.476Zm12.734-.077c-.614.37-1.344.554-2.187.554-1.141 0-2.063-.37-2.766-1.109-.698-.745-1.047-1.708-1.047-2.89 0-1.318.378-2.375 1.133-3.172.755-.802 1.763-1.203 3.023-1.203.704 0 1.323.13 1.86.39v1.313c-.594-.417-1.229-.625-1.906-.625-.818 0-1.49.294-2.016.882-.521.584-.781 1.352-.781 2.305 0 .938.244 1.677.734 2.219.495.542 1.156.812 1.984.812.698 0 1.355-.231 1.969-.695v1.219Zm7.664.367h-1.281v-1.25h-.031c-.558.958-1.378 1.438-2.461 1.438-.797 0-1.422-.211-1.875-.633-.448-.422-.672-.982-.672-1.68 0-1.495.88-2.365 2.64-2.61l2.399-.335c0-1.36-.55-2.04-1.649-2.04-.963 0-1.833.329-2.609.985v-1.313c.787-.5 1.693-.75 2.719-.75 1.88 0 2.82.995 2.82 2.985V34.5Zm-1.281-4.047-1.93.266c-.593.083-1.041.232-1.343.445-.303.208-.454.58-.454 1.117 0 .39.138.711.414.961.282.245.654.367 1.118.367.635 0 1.158-.221 1.57-.664.417-.448.625-1.013.625-1.695v-.797Zm5.008 2.89h-.031v4.837h-1.282V26.5h1.282v1.406h.031c.63-1.062 1.552-1.593 2.765-1.593 1.032 0 1.836.359 2.414 1.078.579.713.868 1.672.868 2.875 0 1.338-.326 2.411-.977 3.218-.651.802-1.542 1.203-2.672 1.203-1.036 0-1.836-.447-2.398-1.343Zm-.031-3.226v1.117c0 .662.213 1.224.64 1.688.432.458.979.687 1.641.687.776 0 1.383-.297 1.82-.89.443-.594.664-1.42.664-2.477 0-.89-.206-1.588-.617-2.094-.412-.505-.969-.757-1.672-.757-.745 0-1.344.26-1.797.78-.453.517-.679 1.165-.679 1.946Zm14.554.703h-5.648c.021.89.26 1.578.718 2.063.459.484 1.089.726 1.891.726.901 0 1.729-.297 2.485-.89v1.203c-.704.51-1.633.766-2.79.766-1.13 0-2.018-.363-2.664-1.086-.645-.73-.968-1.753-.968-3.07 0-1.245.351-2.259 1.054-3.04.709-.786 1.586-1.18 2.633-1.18s1.857.339 2.43 1.016c.573.677.859 1.617.859 2.82v.672Zm-1.312-1.086c-.006-.74-.185-1.315-.539-1.726-.349-.412-.836-.617-1.461-.617-.604 0-1.118.216-1.539.648-.422.432-.683.997-.782 1.695h4.321Z"/><rect width="140" height="48" x="9" y="4" stroke="#009688" stroke-width="2" rx="4"/><defs><clipPath id="a"><path fill="#fff" d="M28 16h24v24H28z"/></clipPath></defs></svg>