<svg width="106" height="39" viewBox="0 0 106 39" fill="none" xmlns="http://www.w3.org/2000/svg">
<path d="M1 4C1 2.34315 2.34315 1 4 1H102C103.657 1 105 2.34315 105 4V35C105 36.6569 103.657 38 102 38H4C2.34314 38 1 36.6569 1 35V4Z" fill="#22272E"/>
<g clip-path="url(#clip0)">
<path d="M19.9033 10.6434C19.6266 10.639 19.3517 10.6901 19.0951 10.7938C18.8385 10.8975 18.6053 11.0516 18.4093 11.247L11.7909 18.0234C9.28329 20.5283 13.4137 20.3201 14.9049 21.2696C15.5962 21.7208 12.6898 22.2979 13.2821 22.8924C13.862 23.487 16.7713 24.0321 17.3484 24.612C17.9284 25.2038 16.1767 25.8309 16.7539 26.4255C17.3164 27.0201 18.6669 26.4576 18.9071 27.8053C19.0832 28.8015 21.3827 28.3065 22.4109 27.4538C23.0527 26.9059 21.3005 26.9059 21.8805 26.3113C23.3278 24.8494 24.6109 25.6549 25.1413 24.3043C25.4315 23.5838 22.956 23.0679 23.6147 22.6022C25.1908 21.4946 30.9739 20.9321 28.3082 18.2664L21.4468 11.247C21.0285 10.8554 20.4757 10.6393 19.9027 10.6434H19.9033ZM19.959 11.2881C20.3572 11.2909 20.756 11.4377 21.0429 11.7246L23.6619 14.3936C23.9049 14.6338 23.9049 15.1322 23.7587 15.2756L22.4576 14.2181L22.2 15.7768L21.125 15.1969L19.3729 16.3044L18.7957 13.9785L17.8642 16.0001L15.5321 15.9855C15.0838 15.9855 15.1485 15.5198 15.6142 15.054C16.5283 14.0404 18.3125 12.3236 18.875 11.7291C19.1653 11.4304 19.5607 11.2869 19.959 11.2898V11.2881ZM27.2777 23.4932C26.7208 23.5134 26.1555 23.7919 26.0092 24.3049C26.0092 24.6418 28.6282 24.8353 28.4848 24.2256C28.379 23.7097 27.8345 23.4724 27.2777 23.4932V23.4932ZM15.7667 24.9523C15.0107 24.9962 14.2024 25.5469 14.8436 26.0863C15.4354 26.6021 16.3376 25.9749 16.625 25.2544C16.4462 25.017 16.1126 24.9321 15.7695 24.9557H15.7667V24.9523ZM25.6897 25.0108C24.9484 25.6847 25.8157 26.3934 26.5391 25.9277C26.7326 25.7961 26.5245 25.1717 25.6897 25.0108Z" fill="#ADBAC7"/>
</g>
<path d="M44.3906 15.1973V16.1816H43.4336V24.0156H44.3906V25H41.3281V24.0156H42.2852V16.1816H41.3281V15.1973H44.3906ZM51.6777 25H50.5566V21.0078C50.5566 19.5221 50.0143 18.7793 48.9297 18.7793C48.3691 18.7793 47.9043 18.9912 47.5352 19.415C47.1706 19.8343 46.9883 20.3652 46.9883 21.0078V25H45.8672V18H46.9883V19.1621H47.0156C47.5443 18.278 48.3099 17.8359 49.3125 17.8359C50.0781 17.8359 50.6637 18.0843 51.0693 18.5811C51.4749 19.0732 51.6777 19.7865 51.6777 20.7207V25ZM59.6074 25H58.0352L54.9453 21.6367H54.918V25H53.7969V14.6367H54.918V21.2061H54.9453L57.8848 18H59.3545L56.1074 21.377L59.6074 25ZM60.332 24.7471V23.5439C60.9427 23.9951 61.6149 24.2207 62.3486 24.2207C63.333 24.2207 63.8252 23.8926 63.8252 23.2363C63.8252 23.0495 63.7819 22.8923 63.6953 22.7646C63.6133 22.6325 63.4993 22.5163 63.3535 22.416C63.2122 22.3158 63.0436 22.2269 62.8477 22.1494C62.6562 22.0674 62.4489 21.9831 62.2256 21.8965C61.9157 21.7734 61.6423 21.6504 61.4053 21.5273C61.1729 21.3997 60.9769 21.2585 60.8174 21.1035C60.6624 20.944 60.5439 20.764 60.4619 20.5635C60.3844 20.363 60.3457 20.1283 60.3457 19.8594C60.3457 19.5312 60.4209 19.2419 60.5713 18.9912C60.7217 18.736 60.9222 18.5241 61.1729 18.3555C61.4235 18.1823 61.7083 18.0524 62.0273 17.9658C62.3509 17.8792 62.6836 17.8359 63.0254 17.8359C63.6315 17.8359 64.1738 17.9408 64.6523 18.1504V19.2852C64.1374 18.9479 63.5449 18.7793 62.875 18.7793C62.6654 18.7793 62.4762 18.8044 62.3076 18.8545C62.139 18.9001 61.9932 18.9661 61.8701 19.0527C61.7516 19.1393 61.6582 19.2441 61.5898 19.3672C61.526 19.4857 61.4941 19.6178 61.4941 19.7637C61.4941 19.946 61.526 20.0986 61.5898 20.2217C61.6582 20.3447 61.7562 20.4541 61.8838 20.5498C62.0114 20.6455 62.1663 20.7321 62.3486 20.8096C62.5309 20.887 62.7383 20.9714 62.9707 21.0625C63.2806 21.181 63.5586 21.304 63.8047 21.4316C64.0508 21.5547 64.2604 21.696 64.4336 21.8555C64.6068 22.0104 64.7389 22.1904 64.8301 22.3955C64.9258 22.6006 64.9736 22.8444 64.9736 23.127C64.9736 23.4733 64.8962 23.7741 64.7412 24.0293C64.5908 24.2845 64.388 24.4964 64.1328 24.665C63.8776 24.8337 63.5837 24.959 63.251 25.041C62.9183 25.123 62.5697 25.1641 62.2051 25.1641C61.485 25.1641 60.8607 25.0251 60.332 24.7471ZM71.4746 24.6787C70.9368 25.0023 70.2988 25.1641 69.5605 25.1641C68.5625 25.1641 67.7559 24.8405 67.1406 24.1934C66.5299 23.5417 66.2246 22.6986 66.2246 21.6641C66.2246 20.5111 66.555 19.5859 67.2158 18.8887C67.8766 18.1868 68.7585 17.8359 69.8613 17.8359C70.4766 17.8359 71.0189 17.9499 71.4883 18.1777V19.3262C70.9688 18.9616 70.4128 18.7793 69.8203 18.7793C69.1048 18.7793 68.5169 19.0368 68.0566 19.5518C67.6009 20.0622 67.373 20.7344 67.373 21.5684C67.373 22.3887 67.5872 23.0358 68.0156 23.5098C68.4486 23.9837 69.0273 24.2207 69.752 24.2207C70.3626 24.2207 70.9368 24.0179 71.4746 23.6123V24.6787ZM78.1807 25H77.0596V23.9062H77.0322C76.5446 24.7448 75.8268 25.1641 74.8789 25.1641C74.1816 25.1641 73.6348 24.9795 73.2383 24.6104C72.8464 24.2412 72.6504 23.7513 72.6504 23.1406C72.6504 21.8327 73.4206 21.0716 74.9609 20.8574L77.0596 20.5635C77.0596 19.374 76.5788 18.7793 75.6172 18.7793C74.7741 18.7793 74.013 19.0664 73.334 19.6406V18.4922C74.0221 18.0547 74.8151 17.8359 75.7129 17.8359C77.3581 17.8359 78.1807 18.7064 78.1807 20.4473V25ZM77.0596 21.459L75.3711 21.6914C74.8516 21.7643 74.4596 21.8942 74.1953 22.0811C73.931 22.2633 73.7988 22.5892 73.7988 23.0586C73.7988 23.4004 73.9196 23.6807 74.1611 23.8994C74.4072 24.1136 74.7331 24.2207 75.1387 24.2207C75.6947 24.2207 76.1527 24.027 76.5127 23.6396C76.8773 23.2477 77.0596 22.7533 77.0596 22.1562V21.459ZM81.4414 23.9883H81.4141V28.2197H80.293V18H81.4141V19.2305H81.4414C81.9928 18.3008 82.7995 17.8359 83.8613 17.8359C84.7637 17.8359 85.4678 18.1504 85.9736 18.7793C86.4795 19.4036 86.7324 20.2422 86.7324 21.2949C86.7324 22.4661 86.4476 23.4049 85.8779 24.1113C85.3083 24.8132 84.529 25.1641 83.54 25.1641C82.6331 25.1641 81.9336 24.7721 81.4414 23.9883ZM81.4141 21.165V22.1426C81.4141 22.7214 81.6009 23.2135 81.9746 23.6191C82.3529 24.0202 82.8314 24.2207 83.4102 24.2207C84.0892 24.2207 84.6201 23.9609 85.0029 23.4414C85.3903 22.9219 85.584 22.1995 85.584 21.2744C85.584 20.4951 85.404 19.8844 85.0439 19.4424C84.6839 19.0003 84.1963 18.7793 83.5811 18.7793C82.9294 18.7793 82.4053 19.0072 82.0088 19.4629C81.6123 19.9141 81.4141 20.4814 81.4141 21.165ZM94.1494 21.7803H89.207C89.2253 22.5596 89.4349 23.1611 89.8359 23.585C90.237 24.0088 90.7884 24.2207 91.4902 24.2207C92.2786 24.2207 93.0033 23.9609 93.6641 23.4414V24.4941C93.0488 24.9408 92.2354 25.1641 91.2236 25.1641C90.2347 25.1641 89.4577 24.8473 88.8926 24.2139C88.3275 23.5758 88.0449 22.6803 88.0449 21.5273C88.0449 20.4382 88.3525 19.5518 88.9678 18.8682C89.5876 18.18 90.3555 17.8359 91.2715 17.8359C92.1875 17.8359 92.8962 18.1322 93.3975 18.7246C93.8988 19.3171 94.1494 20.1396 94.1494 21.1924V21.7803ZM93.001 20.8301C92.9964 20.1829 92.8392 19.6794 92.5293 19.3193C92.224 18.9593 91.7979 18.7793 91.251 18.7793C90.7223 18.7793 90.2734 18.9684 89.9043 19.3467C89.5352 19.7249 89.3073 20.2194 89.2207 20.8301H93.001Z" fill="#ADBAC7"/>
<path d="M4 2H102V0H4V2ZM104 4V35H106V4H104ZM102 37H4V39H102V37ZM2 35V4H0V35H2ZM4 37C2.89543 37 2 36.1046 2 35H0C0 37.2091 1.79086 39 4 39V37ZM104 35C104 36.1046 103.105 37 102 37V39C104.209 39 106 37.2091 106 35H104ZM102 2C103.105 2 104 2.89543 104 4H106C106 1.79086 104.209 0 102 0V2ZM4 0C1.79086 0 0 1.79086 0 4H2C2 2.89543 2.89543 2 4 2V0Z" fill="#ADBCA7"/>
<defs>
<clipPath id="clip0">
<rect width="18" height="18" fill="white" transform="translate(11 10.5)"/>
</clipPath>
</defs>
</svg>
