<svg width="126" height="45" viewBox="0 0 126 45" fill="none" xmlns="http://www.w3.org/2000/svg">
<path d="M1 4C1 2.34314 2.34315 1 4 1H122C123.657 1 125 2.34315 125 4V41C125 42.6569 123.657 44 122 44H4C2.34314 44 1 42.6569 1 41V4Z" fill="#22272E"/>
<g clip-path="url(#clip0)">
<path d="M23.9033 13.6434C23.6266 13.639 23.3517 13.6901 23.0951 13.7938C22.8385 13.8975 22.6053 14.0516 22.4093 14.247L15.7909 21.0234C13.2833 23.5283 17.4137 23.3201 18.9049 24.2696C19.5962 24.7208 16.6898 25.2979 17.2821 25.8924C17.862 26.487 20.7713 27.0321 21.3484 27.612C21.9284 28.2038 20.1767 28.8309 20.7539 29.4255C21.3164 30.0201 22.6669 29.4576 22.9071 30.8053C23.0832 31.8015 25.3827 31.3065 26.4109 30.4538C27.0527 29.9059 25.3005 29.9059 25.8805 29.3113C27.3278 27.8494 28.6109 28.6549 29.1413 27.3043C29.4315 26.5838 26.956 26.0679 27.6147 25.6022C29.1908 24.4946 34.9739 23.9321 32.3082 21.2664L25.4468 14.247C25.0285 13.8554 24.4757 13.6393 23.9027 13.6434H23.9033ZM23.959 14.2881C24.3572 14.2909 24.756 14.4377 25.0429 14.7246L27.6619 17.3936C27.9049 17.6338 27.9049 18.1322 27.7587 18.2756L26.4576 17.2181L26.2 18.7768L25.125 18.1969L23.3729 19.3044L22.7957 16.9785L21.8642 19.0001L19.5321 18.9855C19.0838 18.9855 19.1485 18.5198 19.6142 18.054C20.5283 17.0404 22.3125 15.3236 22.875 14.7291C23.1653 14.4304 23.5607 14.2869 23.959 14.2898V14.2881ZM31.2777 26.4932C30.7208 26.5134 30.1555 26.7919 30.0092 27.3049C30.0092 27.6418 32.6282 27.8353 32.4848 27.2256C32.379 26.7097 31.8345 26.4724 31.2777 26.4932V26.4932ZM19.7667 27.9523C19.0107 27.9962 18.2024 28.5469 18.8436 29.0863C19.4354 29.6021 20.3376 28.9749 20.625 28.2544C20.4462 28.017 20.1126 27.9321 19.7695 27.9557H19.7667V27.9523ZM29.6897 28.0108C28.9484 28.6847 29.8157 29.3934 30.5391 28.9277C30.7326 28.7961 30.5245 28.1717 29.6897 28.0108Z" fill="#ADBAC7"/>
</g>
<path d="M48.875 17.7969V18.9219H47.7812V27.875H48.875V29H45.375V27.875H46.4688V18.9219H45.375V17.7969H48.875ZM57.2031 29H55.9219V24.4375C55.9219 22.7396 55.3021 21.8906 54.0625 21.8906C53.4219 21.8906 52.8906 22.1328 52.4688 22.6172C52.0521 23.0964 51.8438 23.7031 51.8438 24.4375V29H50.5625V21H51.8438V22.3281H51.875C52.4792 21.3177 53.3542 20.8125 54.5 20.8125C55.375 20.8125 56.0443 21.0964 56.5078 21.6641C56.9714 22.2266 57.2031 23.0417 57.2031 24.1094V29ZM66.2656 29H64.4688L60.9375 25.1562H60.9062V29H59.625V17.1562H60.9062V24.6641H60.9375L64.2969 21H65.9766L62.2656 24.8594L66.2656 29ZM67.0938 28.7109V27.3359C67.7917 27.8516 68.5599 28.1094 69.3984 28.1094C70.5234 28.1094 71.0859 27.7344 71.0859 26.9844C71.0859 26.7708 71.0365 26.5911 70.9375 26.4453C70.8438 26.2943 70.7135 26.1615 70.5469 26.0469C70.3854 25.9323 70.1927 25.8307 69.9688 25.7422C69.75 25.6484 69.513 25.5521 69.2578 25.4531C68.9036 25.3125 68.5911 25.1719 68.3203 25.0312C68.0547 24.8854 67.8307 24.724 67.6484 24.5469C67.4714 24.3646 67.3359 24.1589 67.2422 23.9297C67.1536 23.7005 67.1094 23.4323 67.1094 23.125C67.1094 22.75 67.1953 22.4193 67.3672 22.1328C67.5391 21.8411 67.7682 21.599 68.0547 21.4062C68.3411 21.2083 68.6667 21.0599 69.0312 20.9609C69.401 20.862 69.7812 20.8125 70.1719 20.8125C70.8646 20.8125 71.4844 20.9323 72.0312 21.1719V22.4688C71.4427 22.0833 70.7656 21.8906 70 21.8906C69.7604 21.8906 69.5443 21.9193 69.3516 21.9766C69.1589 22.0286 68.9922 22.1042 68.8516 22.2031C68.7161 22.3021 68.6094 22.4219 68.5312 22.5625C68.4583 22.6979 68.4219 22.849 68.4219 23.0156C68.4219 23.224 68.4583 23.3984 68.5312 23.5391C68.6094 23.6797 68.7214 23.8047 68.8672 23.9141C69.013 24.0234 69.1901 24.1224 69.3984 24.2109C69.6068 24.2995 69.8438 24.3958 70.1094 24.5C70.4635 24.6354 70.7812 24.776 71.0625 24.9219C71.3438 25.0625 71.5833 25.224 71.7812 25.4062C71.9792 25.5833 72.1302 25.7891 72.2344 26.0234C72.3438 26.2578 72.3984 26.5365 72.3984 26.8594C72.3984 27.2552 72.3099 27.599 72.1328 27.8906C71.9609 28.1823 71.7292 28.4245 71.4375 28.6172C71.1458 28.8099 70.8099 28.9531 70.4297 29.0469C70.0495 29.1406 69.651 29.1875 69.2344 29.1875C68.4115 29.1875 67.6979 29.0286 67.0938 28.7109ZM79.8281 28.6328C79.2135 29.0026 78.4844 29.1875 77.6406 29.1875C76.5 29.1875 75.5781 28.8177 74.875 28.0781C74.1771 27.3333 73.8281 26.3698 73.8281 25.1875C73.8281 23.8698 74.2057 22.8125 74.9609 22.0156C75.7161 21.2135 76.724 20.8125 77.9844 20.8125C78.6875 20.8125 79.3073 20.9427 79.8438 21.2031V22.5156C79.25 22.099 78.6146 21.8906 77.9375 21.8906C77.1198 21.8906 76.4479 22.1849 75.9219 22.7734C75.401 23.3568 75.1406 24.125 75.1406 25.0781C75.1406 26.0156 75.3854 26.7552 75.875 27.2969C76.3698 27.8385 77.0312 28.1094 77.8594 28.1094C78.5573 28.1094 79.2135 27.8776 79.8281 27.4141V28.6328ZM87.4922 29H86.2109V27.75H86.1797C85.6224 28.7083 84.8021 29.1875 83.7188 29.1875C82.9219 29.1875 82.2969 28.9766 81.8438 28.5547C81.3958 28.1328 81.1719 27.5729 81.1719 26.875C81.1719 25.3802 82.0521 24.5104 83.8125 24.2656L86.2109 23.9297C86.2109 22.5703 85.6615 21.8906 84.5625 21.8906C83.599 21.8906 82.7292 22.2188 81.9531 22.875V21.5625C82.7396 21.0625 83.6458 20.8125 84.6719 20.8125C86.5521 20.8125 87.4922 21.8073 87.4922 23.7969V29ZM86.2109 24.9531L84.2812 25.2188C83.6875 25.3021 83.2396 25.4505 82.9375 25.6641C82.6354 25.8724 82.4844 26.2448 82.4844 26.7812C82.4844 27.1719 82.6224 27.4922 82.8984 27.7422C83.1797 27.987 83.5521 28.1094 84.0156 28.1094C84.651 28.1094 85.1745 27.888 85.5859 27.4453C86.0026 26.9974 86.2109 26.4323 86.2109 25.75V24.9531ZM91.2188 27.8438H91.1875V32.6797H89.9062V21H91.1875V22.4062H91.2188C91.849 21.3438 92.7708 20.8125 93.9844 20.8125C95.0156 20.8125 95.8203 21.1719 96.3984 21.8906C96.9766 22.6042 97.2656 23.5625 97.2656 24.7656C97.2656 26.1042 96.9401 27.1771 96.2891 27.9844C95.638 28.7865 94.7474 29.1875 93.6172 29.1875C92.5807 29.1875 91.7812 28.7396 91.2188 27.8438ZM91.1875 24.6172V25.7344C91.1875 26.3958 91.401 26.9583 91.8281 27.4219C92.2604 27.8802 92.8073 28.1094 93.4688 28.1094C94.2448 28.1094 94.8516 27.8125 95.2891 27.2188C95.7318 26.625 95.9531 25.7995 95.9531 24.7422C95.9531 23.8516 95.7474 23.1536 95.3359 22.6484C94.9245 22.1432 94.3672 21.8906 93.6641 21.8906C92.9193 21.8906 92.3203 22.151 91.8672 22.6719C91.4141 23.1875 91.1875 23.8359 91.1875 24.6172ZM105.742 25.3203H100.094C100.115 26.2109 100.354 26.8984 100.812 27.3828C101.271 27.8672 101.901 28.1094 102.703 28.1094C103.604 28.1094 104.432 27.8125 105.188 27.2188V28.4219C104.484 28.9323 103.555 29.1875 102.398 29.1875C101.268 29.1875 100.38 28.8255 99.7344 28.1016C99.0885 27.3724 98.7656 26.349 98.7656 25.0312C98.7656 23.7865 99.1172 22.7734 99.8203 21.9922C100.529 21.2057 101.406 20.8125 102.453 20.8125C103.5 20.8125 104.31 21.151 104.883 21.8281C105.456 22.5052 105.742 23.4453 105.742 24.6484V25.3203ZM104.43 24.2344C104.424 23.4948 104.245 22.9193 103.891 22.5078C103.542 22.0964 103.055 21.8906 102.43 21.8906C101.826 21.8906 101.312 22.1068 100.891 22.5391C100.469 22.9714 100.208 23.5365 100.109 24.2344H104.43Z" fill="#ADBAC7"/>
<path d="M4 2H122V0H4V2ZM124 4V41H126V4H124ZM122 43H4V45H122V43ZM2 41V4H0V41H2ZM4 43C2.89543 43 2 42.1046 2 41H0C0 43.2091 1.79086 45 4 45V43ZM124 41C124 42.1046 123.105 43 122 43V45C124.209 45 126 43.2091 126 41H124ZM122 2C123.105 2 124 2.89543 124 4H126C126 1.79086 124.209 0 122 0V2ZM4 0C1.79086 0 0 1.79086 0 4H2C2 2.89543 2.89543 2 4 2V0Z" fill="#444C56"/>
<defs>
<clipPath id="clip0">
<rect width="18" height="18" fill="white" transform="translate(15 13.5)"/>
</clipPath>
</defs>
</svg>
