<svg width="87" height="28" viewBox="0 0 87 28" fill="none" xmlns="http://www.w3.org/2000/svg">
<g filter="url(#filter0_d)">
<path d="M2.5 5C2.5 2.23858 4.73858 0 7.5 0H79.5C82.2614 0 84.5 2.23858 84.5 5V19C84.5 21.7614 82.2614 24 79.5 24H7.5C4.73858 24 2.5 21.7614 2.5 19V5Z" fill="white"/>
<g clip-path="url(#clip0)">
<path d="M16.4033 3.14344C16.1265 3.13899 15.8517 3.19012 15.5951 3.29379C15.3385 3.39747 15.1053 3.55158 14.9093 3.747L8.29088 10.5234C5.78326 13.0282 9.9137 12.8201 11.4049 13.7696C12.0962 14.2207 9.18976 14.7979 9.78207 15.3924C10.362 15.987 13.2713 16.5321 13.8484 17.112C14.4283 17.7037 12.6767 18.3309 13.2538 18.9255C13.8163 19.5201 15.1669 18.9576 15.4071 20.3053C15.5831 21.3015 17.8826 20.8065 18.9109 19.9537C19.5527 19.4059 17.8005 19.4059 18.3804 18.8113C19.8278 17.3494 21.1108 18.1549 21.6413 16.8043C21.9315 16.0837 19.4559 15.5679 20.1146 15.1022C21.6908 13.9946 27.4738 13.4321 24.8081 10.7664L17.9468 3.747C17.5284 3.35539 16.9757 3.13933 16.4027 3.14344H16.4033ZM16.4589 3.78806C16.8572 3.79087 17.256 3.93769 17.5429 4.22456L20.1619 6.89362C20.4049 7.13381 20.4049 7.63219 20.2586 7.77562L18.9576 6.71812L18.6999 8.27681L17.625 7.69687L15.8728 8.80444L15.2957 6.4785L14.3642 8.50012L12.0321 8.4855C11.5838 8.4855 11.6484 8.01975 12.1142 7.554C13.0283 6.54037 14.8125 4.82362 15.375 4.22906C15.6653 3.93037 16.0607 3.78694 16.4589 3.78975V3.78806ZM23.7776 15.9932C23.2208 16.0134 22.6554 16.2919 22.5092 16.8049C22.5092 17.1418 25.1282 17.3353 24.9848 16.7256C24.879 16.2097 24.3345 15.9724 23.7776 15.9932V15.9932ZM12.2666 17.4523C11.5106 17.4962 10.7023 18.0469 11.3436 18.5863C11.9353 19.1021 12.8376 18.4749 13.125 17.7544C12.9461 17.517 12.6126 17.4321 12.2694 17.4557H12.2666V17.4523ZM22.1897 17.5108C21.4483 18.1847 22.3157 18.8934 23.0391 18.4277C23.2326 18.2961 23.0244 17.6717 22.1897 17.5108Z" fill="black"/>
</g>
<path d="M32.6973 16H31.5723V7.46875H32.6973V16ZM35.6152 9.66016L35.6504 10.457C36.1348 9.84766 36.7676 9.54297 37.5488 9.54297C38.8887 9.54297 39.5645 10.2988 39.5762 11.8105V16H38.4922V11.8047C38.4883 11.3477 38.3828 11.0098 38.1758 10.791C37.9727 10.5723 37.6543 10.4629 37.2207 10.4629C36.8691 10.4629 36.5605 10.5566 36.2949 10.7441C36.0293 10.9316 35.8223 11.1777 35.6738 11.4824V16H34.5898V9.66016H35.6152ZM42.9805 13.0645L42.3008 13.7734V16H41.2168V7H42.3008V12.4434L42.8809 11.7461L44.8555 9.66016H46.1738L43.707 12.3086L46.4609 16H45.1895L42.9805 13.0645ZM50.9844 14.3184C50.9844 14.0254 50.873 13.7988 50.6504 13.6387C50.4316 13.4746 50.0469 13.334 49.4961 13.2168C48.9492 13.0996 48.5137 12.959 48.1895 12.7949C47.8691 12.6309 47.6309 12.4355 47.4746 12.209C47.3223 11.9824 47.2461 11.7129 47.2461 11.4004C47.2461 10.8809 47.4648 10.4414 47.9023 10.082C48.3438 9.72266 48.9062 9.54297 49.5898 9.54297C50.3086 9.54297 50.8906 9.72852 51.3359 10.0996C51.7852 10.4707 52.0098 10.9453 52.0098 11.5234H50.9199C50.9199 11.2266 50.793 10.9707 50.5391 10.7559C50.2891 10.541 49.9727 10.4336 49.5898 10.4336C49.1953 10.4336 48.8867 10.5195 48.6641 10.6914C48.4414 10.8633 48.3301 11.0879 48.3301 11.3652C48.3301 11.627 48.4336 11.8242 48.6406 11.957C48.8477 12.0898 49.2207 12.2168 49.7598 12.3379C50.3027 12.459 50.7422 12.6035 51.0781 12.7715C51.4141 12.9395 51.6621 13.1426 51.8223 13.3809C51.9863 13.6152 52.0684 13.9023 52.0684 14.2422C52.0684 14.8086 51.8418 15.2637 51.3887 15.6074C50.9355 15.9473 50.3477 16.1172 49.625 16.1172C49.1172 16.1172 48.668 16.0273 48.2773 15.8477C47.8867 15.668 47.5801 15.418 47.3574 15.0977C47.1387 14.7734 47.0293 14.4238 47.0293 14.0488H48.1133C48.1328 14.4121 48.2773 14.7012 48.5469 14.916C48.8203 15.127 49.1797 15.2324 49.625 15.2324C50.0352 15.2324 50.3633 15.1504 50.6094 14.9863C50.8594 14.8184 50.9844 14.5957 50.9844 14.3184ZM56.0234 15.2324C56.4102 15.2324 56.748 15.1152 57.0371 14.8809C57.3262 14.6465 57.4863 14.3535 57.5176 14.002H58.543C58.5234 14.3652 58.3984 14.7109 58.168 15.0391C57.9375 15.3672 57.6289 15.6289 57.2422 15.8242C56.8594 16.0195 56.4531 16.1172 56.0234 16.1172C55.1602 16.1172 54.4727 15.8301 53.9609 15.2559C53.4531 14.6777 53.1992 13.8887 53.1992 12.8887V12.707C53.1992 12.0898 53.3125 11.541 53.5391 11.0605C53.7656 10.5801 54.0898 10.207 54.5117 9.94141C54.9375 9.67578 55.4395 9.54297 56.0176 9.54297C56.7285 9.54297 57.3184 9.75586 57.7871 10.1816C58.2598 10.6074 58.5117 11.1602 58.543 11.8398H57.5176C57.4863 11.4297 57.3301 11.0938 57.0488 10.832C56.7715 10.5664 56.4277 10.4336 56.0176 10.4336C55.4668 10.4336 55.0391 10.6328 54.7344 11.0312C54.4336 11.4258 54.2832 11.998 54.2832 12.748V12.9531C54.2832 13.6836 54.4336 14.2461 54.7344 14.6406C55.0352 15.0352 55.4648 15.2324 56.0234 15.2324ZM63.6758 16C63.6133 15.875 63.5625 15.6523 63.5234 15.332C63.0195 15.8555 62.418 16.1172 61.7188 16.1172C61.0938 16.1172 60.5801 15.9414 60.1777 15.5898C59.7793 15.2344 59.5801 14.7852 59.5801 14.2422C59.5801 13.582 59.8301 13.0703 60.3301 12.707C60.834 12.3398 61.541 12.1562 62.4512 12.1562H63.5059V11.6582C63.5059 11.2793 63.3926 10.9785 63.166 10.7559C62.9395 10.5293 62.6055 10.416 62.1641 10.416C61.7773 10.416 61.4531 10.5137 61.1914 10.709C60.9297 10.9043 60.7988 11.1406 60.7988 11.418H59.709C59.709 11.1016 59.8203 10.7969 60.043 10.5039C60.2695 10.207 60.5742 9.97266 60.957 9.80078C61.3438 9.62891 61.7676 9.54297 62.2285 9.54297C62.959 9.54297 63.5312 9.72656 63.9453 10.0938C64.3594 10.457 64.5742 10.959 64.5898 11.5996V14.5176C64.5898 15.0996 64.6641 15.5625 64.8125 15.9062V16H63.6758ZM61.877 15.1738C62.2168 15.1738 62.5391 15.0859 62.8438 14.9102C63.1484 14.7344 63.3691 14.5059 63.5059 14.2246V12.9238H62.6562C61.3281 12.9238 60.6641 13.3125 60.6641 14.0898C60.6641 14.4297 60.7773 14.6953 61.0039 14.8867C61.2305 15.0781 61.5215 15.1738 61.877 15.1738ZM71.6445 12.9004C71.6445 13.8652 71.4238 14.6426 70.9824 15.2324C70.541 15.8223 69.9434 16.1172 69.1895 16.1172C68.4199 16.1172 67.8145 15.873 67.373 15.3848V18.4375H66.2891V9.66016H67.2793L67.332 10.3633C67.7734 9.81641 68.3867 9.54297 69.1719 9.54297C69.9336 9.54297 70.5352 9.83008 70.9766 10.4043C71.4219 10.9785 71.6445 11.7773 71.6445 12.8008V12.9004ZM70.5605 12.7773C70.5605 12.0625 70.4082 11.498 70.1035 11.084C69.7988 10.6699 69.3809 10.4629 68.8496 10.4629C68.1934 10.4629 67.7012 10.7539 67.373 11.3359V14.3652C67.6973 14.9434 68.1934 15.2324 68.8613 15.2324C69.3809 15.2324 69.793 15.0273 70.0977 14.6172C70.4062 14.2031 70.5605 13.5898 70.5605 12.7773ZM75.6582 16.1172C74.7988 16.1172 74.0996 15.8359 73.5605 15.2734C73.0215 14.707 72.752 13.9512 72.752 13.0059V12.8066C72.752 12.1777 72.8711 11.6172 73.1094 11.125C73.3516 10.6289 73.6875 10.2422 74.1172 9.96484C74.5508 9.68359 75.0195 9.54297 75.5234 9.54297C76.3477 9.54297 76.9883 9.81445 77.4453 10.3574C77.9023 10.9004 78.1309 11.6777 78.1309 12.6895V13.1406H73.8359C73.8516 13.7656 74.0332 14.2715 74.3809 14.6582C74.7324 15.041 75.1777 15.2324 75.7168 15.2324C76.0996 15.2324 76.4238 15.1543 76.6895 14.998C76.9551 14.8418 77.1875 14.6348 77.3867 14.377L78.0488 14.8926C77.5176 15.709 76.7207 16.1172 75.6582 16.1172ZM75.5234 10.4336C75.0859 10.4336 74.7188 10.5938 74.4219 10.9141C74.125 11.2305 73.9414 11.6758 73.8711 12.25H77.0469V12.168C77.0156 11.6172 76.8672 11.1914 76.6016 10.8906C76.3359 10.5859 75.9766 10.4336 75.5234 10.4336Z" fill="black"/>
</g>
<defs>
<filter id="filter0_d" x="0.5" y="0" width="86" height="28" filterUnits="userSpaceOnUse" color-interpolation-filters="sRGB">
<feFlood flood-opacity="0" result="BackgroundImageFix"/>
<feColorMatrix in="SourceAlpha" type="matrix" values="0 0 0 0 0 0 0 0 0 0 0 0 0 0 0 0 0 0 127 0" result="hardAlpha"/>
<feOffset dy="2"/>
<feGaussianBlur stdDeviation="1"/>
<feComposite in2="hardAlpha" operator="out"/>
<feColorMatrix type="matrix" values="0 0 0 0 0 0 0 0 0 0 0 0 0 0 0 0 0 0 0.25 0"/>
<feBlend mode="normal" in2="BackgroundImageFix" result="effect1_dropShadow"/>
<feBlend mode="normal" in="SourceGraphic" in2="effect1_dropShadow" result="shape"/>
</filter>
<clipPath id="clip0">
<rect width="18" height="18" fill="white" transform="translate(7.5 3)"/>
</clipPath>
</defs>
</svg>
