<svg width="128" height="47" viewBox="0 0 128 47" fill="none" xmlns="http://www.w3.org/2000/svg">
<rect x="1" y="1" width="126" height="45" rx="4" fill="#22272E"/>
<g clip-path="url(#clip0_28_5006)">
<path d="M24.9033 14.6434C24.6266 14.639 24.3517 14.6901 24.0951 14.7938C23.8385 14.8975 23.6053 15.0516 23.4093 15.247L16.7909 22.0234C14.2833 24.5283 18.4137 24.3201 19.9049 25.2696C20.5962 25.7207 17.6898 26.2979 18.2821 26.8924C18.862 27.487 21.7713 28.0321 22.3484 28.612C22.9284 29.2037 21.1767 29.8309 21.7539 30.4255C22.3164 31.0201 23.6669 30.4576 23.9071 31.8053C24.0832 32.8015 26.3827 32.3065 27.4109 31.4538C28.0527 30.9059 26.3005 30.9059 26.8805 30.3113C28.3278 28.8494 29.6109 29.6549 30.1413 28.3043C30.4315 27.5838 27.956 27.0679 28.6147 26.6022C30.1908 25.4946 35.9739 24.9321 33.3082 22.2664L26.4468 15.247C26.0285 14.8554 25.4757 14.6393 24.9027 14.6434H24.9033ZM24.959 15.2881C25.3572 15.2909 25.756 15.4377 26.0429 15.7246L28.6619 18.3936C28.9049 18.6338 28.9049 19.1322 28.7587 19.2756L27.4576 18.2181L27.2 19.7768L26.125 19.1969L24.3729 20.3044L23.7957 17.9785L22.8642 20.0001L20.5321 19.9855C20.0838 19.9855 20.1485 19.5198 20.6142 19.054C21.5283 18.0404 23.3125 16.3236 23.875 15.7291C24.1653 15.4304 24.5607 15.2869 24.959 15.2898V15.2881ZM32.2777 27.4932C31.7208 27.5134 31.1555 27.7919 31.0092 28.3049C31.0092 28.6418 33.6282 28.8353 33.4848 28.2256C33.379 27.7097 32.8345 27.4724 32.2777 27.4932ZM20.7667 28.9523C20.0107 28.9962 19.2024 29.5469 19.8436 30.0863C20.4354 30.6021 21.3376 29.9749 21.625 29.2544C21.4462 29.017 21.1126 28.9321 20.7695 28.9557H20.7667V28.9523ZM30.6897 29.0108C29.9484 29.6847 30.8157 30.3934 31.5391 29.9277C31.7326 29.7961 31.5245 29.1717 30.6897 29.0108Z" fill="#ADBAC7"/>
</g>
<path d="M48.7812 30H47.4688V18.7969H48.7812V30ZM58.2031 30H56.9219V25.4375C56.9219 23.7396 56.3021 22.8906 55.0625 22.8906C54.4219 22.8906 53.8906 23.1328 53.4688 23.6172C53.0521 24.0964 52.8438 24.7031 52.8438 25.4375V30H51.5625V22H52.8438V23.3281H52.875C53.4792 22.3177 54.3542 21.8125 55.5 21.8125C56.375 21.8125 57.0443 22.0964 57.5078 22.6641C57.9714 23.2266 58.2031 24.0417 58.2031 25.1094V30ZM67.2656 30H65.4688L61.9375 26.1562H61.9062V30H60.625V18.1562H61.9062V25.6641H61.9375L65.2969 22H66.9766L63.2656 25.8594L67.2656 30ZM68.0938 29.7109V28.3359C68.7917 28.8516 69.5599 29.1094 70.3984 29.1094C71.5234 29.1094 72.0859 28.7344 72.0859 27.9844C72.0859 27.7708 72.0365 27.5911 71.9375 27.4453C71.8438 27.2943 71.7135 27.1615 71.5469 27.0469C71.3854 26.9323 71.1927 26.8307 70.9688 26.7422C70.75 26.6484 70.513 26.5521 70.2578 26.4531C69.9036 26.3125 69.5911 26.1719 69.3203 26.0312C69.0547 25.8854 68.8307 25.724 68.6484 25.5469C68.4714 25.3646 68.3359 25.1589 68.2422 24.9297C68.1536 24.7005 68.1094 24.4323 68.1094 24.125C68.1094 23.75 68.1953 23.4193 68.3672 23.1328C68.5391 22.8411 68.7682 22.599 69.0547 22.4062C69.3411 22.2083 69.6667 22.0599 70.0312 21.9609C70.401 21.862 70.7812 21.8125 71.1719 21.8125C71.8646 21.8125 72.4844 21.9323 73.0312 22.1719V23.4688C72.4427 23.0833 71.7656 22.8906 71 22.8906C70.7604 22.8906 70.5443 22.9193 70.3516 22.9766C70.1589 23.0286 69.9922 23.1042 69.8516 23.2031C69.7161 23.3021 69.6094 23.4219 69.5312 23.5625C69.4583 23.6979 69.4219 23.849 69.4219 24.0156C69.4219 24.224 69.4583 24.3984 69.5312 24.5391C69.6094 24.6797 69.7214 24.8047 69.8672 24.9141C70.013 25.0234 70.1901 25.1224 70.3984 25.2109C70.6068 25.2995 70.8438 25.3958 71.1094 25.5C71.4635 25.6354 71.7812 25.776 72.0625 25.9219C72.3438 26.0625 72.5833 26.224 72.7812 26.4062C72.9792 26.5833 73.1302 26.7891 73.2344 27.0234C73.3438 27.2578 73.3984 27.5365 73.3984 27.8594C73.3984 28.2552 73.3099 28.599 73.1328 28.8906C72.9609 29.1823 72.7292 29.4245 72.4375 29.6172C72.1458 29.8099 71.8099 29.9531 71.4297 30.0469C71.0495 30.1406 70.651 30.1875 70.2344 30.1875C69.4115 30.1875 68.6979 30.0286 68.0938 29.7109ZM80.8281 29.6328C80.2135 30.0026 79.4844 30.1875 78.6406 30.1875C77.5 30.1875 76.5781 29.8177 75.875 29.0781C75.1771 28.3333 74.8281 27.3698 74.8281 26.1875C74.8281 24.8698 75.2057 23.8125 75.9609 23.0156C76.7161 22.2135 77.724 21.8125 78.9844 21.8125C79.6875 21.8125 80.3073 21.9427 80.8438 22.2031V23.5156C80.25 23.099 79.6146 22.8906 78.9375 22.8906C78.1198 22.8906 77.4479 23.1849 76.9219 23.7734C76.401 24.3568 76.1406 25.125 76.1406 26.0781C76.1406 27.0156 76.3854 27.7552 76.875 28.2969C77.3698 28.8385 78.0312 29.1094 78.8594 29.1094C79.5573 29.1094 80.2135 28.8776 80.8281 28.4141V29.6328ZM88.4922 30H87.2109V28.75H87.1797C86.6224 29.7083 85.8021 30.1875 84.7188 30.1875C83.9219 30.1875 83.2969 29.9766 82.8438 29.5547C82.3958 29.1328 82.1719 28.5729 82.1719 27.875C82.1719 26.3802 83.0521 25.5104 84.8125 25.2656L87.2109 24.9297C87.2109 23.5703 86.6615 22.8906 85.5625 22.8906C84.599 22.8906 83.7292 23.2188 82.9531 23.875V22.5625C83.7396 22.0625 84.6458 21.8125 85.6719 21.8125C87.5521 21.8125 88.4922 22.8073 88.4922 24.7969V30ZM87.2109 25.9531L85.2812 26.2188C84.6875 26.3021 84.2396 26.4505 83.9375 26.6641C83.6354 26.8724 83.4844 27.2448 83.4844 27.7812C83.4844 28.1719 83.6224 28.4922 83.8984 28.7422C84.1797 28.987 84.5521 29.1094 85.0156 29.1094C85.651 29.1094 86.1745 28.888 86.5859 28.4453C87.0026 27.9974 87.2109 27.4323 87.2109 26.75V25.9531ZM92.2188 28.8438H92.1875V33.6797H90.9062V22H92.1875V23.4062H92.2188C92.849 22.3438 93.7708 21.8125 94.9844 21.8125C96.0156 21.8125 96.8203 22.1719 97.3984 22.8906C97.9766 23.6042 98.2656 24.5625 98.2656 25.7656C98.2656 27.1042 97.9401 28.1771 97.2891 28.9844C96.638 29.7865 95.7474 30.1875 94.6172 30.1875C93.5807 30.1875 92.7812 29.7396 92.2188 28.8438ZM92.1875 25.6172V26.7344C92.1875 27.3958 92.401 27.9583 92.8281 28.4219C93.2604 28.8802 93.8073 29.1094 94.4688 29.1094C95.2448 29.1094 95.8516 28.8125 96.2891 28.2188C96.7318 27.625 96.9531 26.7995 96.9531 25.7422C96.9531 24.8516 96.7474 24.1536 96.3359 23.6484C95.9245 23.1432 95.3672 22.8906 94.6641 22.8906C93.9193 22.8906 93.3203 23.151 92.8672 23.6719C92.4141 24.1875 92.1875 24.8359 92.1875 25.6172ZM106.742 26.3203H101.094C101.115 27.2109 101.354 27.8984 101.812 28.3828C102.271 28.8672 102.901 29.1094 103.703 29.1094C104.604 29.1094 105.432 28.8125 106.188 28.2188V29.4219C105.484 29.9323 104.555 30.1875 103.398 30.1875C102.268 30.1875 101.38 29.8255 100.734 29.1016C100.089 28.3724 99.7656 27.349 99.7656 26.0312C99.7656 24.7865 100.117 23.7734 100.82 22.9922C101.529 22.2057 102.406 21.8125 103.453 21.8125C104.5 21.8125 105.31 22.151 105.883 22.8281C106.456 23.5052 106.742 24.4453 106.742 25.6484V26.3203ZM105.43 25.2344C105.424 24.4948 105.245 23.9193 104.891 23.5078C104.542 23.0964 104.055 22.8906 103.43 22.8906C102.826 22.8906 102.312 23.1068 101.891 23.5391C101.469 23.9714 101.208 24.5365 101.109 25.2344H105.43Z" fill="#ADBAC7"/>
<rect x="1" y="1" width="126" height="45" rx="4" stroke="#444C56" stroke-width="2"/>
<defs>
<clipPath id="clip0_28_5006">
<rect width="18" height="18" fill="white" transform="translate(16 14.5)"/>
</clipPath>
</defs>
</svg>
