<svg width="19" height="18" viewBox="0 0 19 18" fill="none" xmlns="http://www.w3.org/2000/svg">
<g clip-path="url(#clip0)">
<path d="M9.89874 0.143425C9.62201 0.138981 9.34719 0.190109 9.09057 0.293782C8.83395 0.397455 8.60073 0.551565 8.40474 0.746987L1.78637 7.52342C-0.721258 10.0282 3.40918 9.82011 4.90037 10.7696C5.59168 11.2207 2.68524 11.7979 3.27755 12.3924C3.85749 12.987 6.76674 13.532 7.34387 14.112C7.9238 14.7037 6.17218 15.3309 6.7493 15.9255C7.3118 16.5201 8.66237 15.9575 8.90255 17.3053C9.07862 18.3015 11.3781 17.8065 12.4064 16.9537C13.0482 16.4059 11.296 16.4059 11.8759 15.8113C13.3232 14.3494 14.6063 15.1549 15.1367 13.8043C15.427 13.0837 12.9514 12.5679 13.6101 12.1022C15.1862 10.9946 20.9693 10.4321 18.3036 7.76642L11.4422 0.746987C11.0239 0.355376 10.4712 0.139323 9.89818 0.143425H9.89874ZM9.95443 0.78805C10.3527 0.790862 10.7515 0.937675 11.0384 1.22455L13.6574 3.89361C13.9004 4.1338 13.9004 4.63217 13.7541 4.77561L12.4531 3.71811L12.1954 5.2768L11.1205 4.69686L9.3683 5.80442L8.79118 3.47849L7.85968 5.50011L5.52755 5.48549C5.07924 5.48549 5.14393 5.01974 5.60968 4.55399C6.52374 3.54036 8.30799 1.82361 8.87049 1.22905C9.16074 0.930362 9.55618 0.786925 9.95443 0.789737V0.78805ZM17.2731 12.9932C16.7162 13.0134 16.1509 13.2919 16.0047 13.8049C16.0047 14.1418 18.6237 14.3353 18.4802 13.7255C18.3745 13.2097 17.83 12.9724 17.2731 12.9932ZM5.76212 14.4523C5.00612 14.4962 4.1978 15.0469 4.83905 15.5863C5.4308 16.1021 6.33305 15.4749 6.62049 14.7544C6.44162 14.517 6.10805 14.432 5.76493 14.4557H5.76212V14.4523ZM15.6852 14.5108C14.9438 15.1847 15.8112 15.8934 16.5346 15.4277C16.7281 15.296 16.5199 14.6717 15.6852 14.5108Z" fill="black"/>
</g>
<defs>
<clipPath id="clip0">
<rect width="18" height="18" fill="white" transform="translate(0.995483)"/>
</clipPath>
</defs>
</svg>
