<svg width="96" height="36" viewBox="0 0 96 36" fill="none" xmlns="http://www.w3.org/2000/svg">
<g filter="url(#filter0_d)">
<path d="M2.5 3C2.5 1.34315 3.84315 0 5.5 0H90.5C92.1569 0 93.5 1.34315 93.5 3V29C93.5 30.6569 92.1569 32 90.5 32H5.5C3.84315 32 2.5 30.6569 2.5 29V3Z" fill="#C9D1D9"/>
<g clip-path="url(#clip0)">
<path d="M19.4033 7.14344C19.1265 7.13899 18.8517 7.19012 18.5951 7.29379C18.3385 7.39747 18.1053 7.55158 17.9093 7.747L11.2909 14.5234C8.78326 17.0282 12.9137 16.8201 14.4049 17.7696C15.0962 18.2207 12.1898 18.7979 12.7821 19.3924C13.362 19.987 16.2713 20.5321 16.8484 21.112C17.4283 21.7037 15.6767 22.3309 16.2538 22.9255C16.8163 23.5201 18.1669 22.9576 18.4071 24.3053C18.5831 25.3015 20.8826 24.8065 21.9109 23.9537C22.5527 23.4059 20.8005 23.4059 21.3804 22.8113C22.8278 21.3494 24.1108 22.1549 24.6413 20.8043C24.9315 20.0837 22.4559 19.5679 23.1146 19.1022C24.6908 17.9946 30.4738 17.4321 27.8081 14.7664L20.9468 7.747C20.5284 7.35539 19.9757 7.13933 19.4027 7.14344H19.4033ZM19.4589 7.78806C19.8572 7.79087 20.256 7.93769 20.5429 8.22456L23.1619 10.8936C23.4049 11.1338 23.4049 11.6322 23.2586 11.7756L21.9576 10.7181L21.6999 12.2768L20.625 11.6969L18.8728 12.8044L18.2957 10.4785L17.3642 12.5001L15.0321 12.4855C14.5838 12.4855 14.6484 12.0197 15.1142 11.554C16.0283 10.5404 17.8125 8.82362 18.375 8.22906C18.6653 7.93037 19.0607 7.78694 19.4589 7.78975V7.78806ZM26.7776 19.9932C26.2208 20.0134 25.6554 20.2919 25.5092 20.8049C25.5092 21.1418 28.1282 21.3353 27.9848 20.7256C27.879 20.2097 27.3345 19.9724 26.7776 19.9932V19.9932ZM15.2666 21.4523C14.5106 21.4962 13.7023 22.0469 14.3436 22.5863C14.9353 23.1021 15.8376 22.4749 16.125 21.7544C15.9461 21.517 15.6126 21.4321 15.2694 21.4557H15.2666V21.4523ZM25.1897 21.5108C24.4483 22.1847 25.3157 22.8934 26.0391 22.4277C26.2326 22.2961 26.0244 21.6717 25.1897 21.5108Z" fill="black"/>
</g>
<path d="M38.6973 20H37.5723V11.4688H38.6973V20ZM41.6152 13.6602L41.6504 14.457C42.1348 13.8477 42.7676 13.543 43.5488 13.543C44.8887 13.543 45.5645 14.2988 45.5762 15.8105V20H44.4922V15.8047C44.4883 15.3477 44.3828 15.0098 44.1758 14.791C43.9727 14.5723 43.6543 14.4629 43.2207 14.4629C42.8691 14.4629 42.5605 14.5566 42.2949 14.7441C42.0293 14.9316 41.8223 15.1777 41.6738 15.4824V20H40.5898V13.6602H41.6152ZM48.9805 17.0645L48.3008 17.7734V20H47.2168V11H48.3008V16.4434L48.8809 15.7461L50.8555 13.6602H52.1738L49.707 16.3086L52.4609 20H51.1895L48.9805 17.0645ZM56.9844 18.3184C56.9844 18.0254 56.873 17.7988 56.6504 17.6387C56.4316 17.4746 56.0469 17.334 55.4961 17.2168C54.9492 17.0996 54.5137 16.959 54.1895 16.7949C53.8691 16.6309 53.6309 16.4355 53.4746 16.209C53.3223 15.9824 53.2461 15.7129 53.2461 15.4004C53.2461 14.8809 53.4648 14.4414 53.9023 14.082C54.3438 13.7227 54.9062 13.543 55.5898 13.543C56.3086 13.543 56.8906 13.7285 57.3359 14.0996C57.7852 14.4707 58.0098 14.9453 58.0098 15.5234H56.9199C56.9199 15.2266 56.793 14.9707 56.5391 14.7559C56.2891 14.541 55.9727 14.4336 55.5898 14.4336C55.1953 14.4336 54.8867 14.5195 54.6641 14.6914C54.4414 14.8633 54.3301 15.0879 54.3301 15.3652C54.3301 15.627 54.4336 15.8242 54.6406 15.957C54.8477 16.0898 55.2207 16.2168 55.7598 16.3379C56.3027 16.459 56.7422 16.6035 57.0781 16.7715C57.4141 16.9395 57.6621 17.1426 57.8223 17.3809C57.9863 17.6152 58.0684 17.9023 58.0684 18.2422C58.0684 18.8086 57.8418 19.2637 57.3887 19.6074C56.9355 19.9473 56.3477 20.1172 55.625 20.1172C55.1172 20.1172 54.668 20.0273 54.2773 19.8477C53.8867 19.668 53.5801 19.418 53.3574 19.0977C53.1387 18.7734 53.0293 18.4238 53.0293 18.0488H54.1133C54.1328 18.4121 54.2773 18.7012 54.5469 18.916C54.8203 19.127 55.1797 19.2324 55.625 19.2324C56.0352 19.2324 56.3633 19.1504 56.6094 18.9863C56.8594 18.8184 56.9844 18.5957 56.9844 18.3184ZM62.0234 19.2324C62.4102 19.2324 62.748 19.1152 63.0371 18.8809C63.3262 18.6465 63.4863 18.3535 63.5176 18.002H64.543C64.5234 18.3652 64.3984 18.7109 64.168 19.0391C63.9375 19.3672 63.6289 19.6289 63.2422 19.8242C62.8594 20.0195 62.4531 20.1172 62.0234 20.1172C61.1602 20.1172 60.4727 19.8301 59.9609 19.2559C59.4531 18.6777 59.1992 17.8887 59.1992 16.8887V16.707C59.1992 16.0898 59.3125 15.541 59.5391 15.0605C59.7656 14.5801 60.0898 14.207 60.5117 13.9414C60.9375 13.6758 61.4395 13.543 62.0176 13.543C62.7285 13.543 63.3184 13.7559 63.7871 14.1816C64.2598 14.6074 64.5117 15.1602 64.543 15.8398H63.5176C63.4863 15.4297 63.3301 15.0938 63.0488 14.832C62.7715 14.5664 62.4277 14.4336 62.0176 14.4336C61.4668 14.4336 61.0391 14.6328 60.7344 15.0312C60.4336 15.4258 60.2832 15.998 60.2832 16.748V16.9531C60.2832 17.6836 60.4336 18.2461 60.7344 18.6406C61.0352 19.0352 61.4648 19.2324 62.0234 19.2324ZM69.6758 20C69.6133 19.875 69.5625 19.6523 69.5234 19.332C69.0195 19.8555 68.418 20.1172 67.7188 20.1172C67.0938 20.1172 66.5801 19.9414 66.1777 19.5898C65.7793 19.2344 65.5801 18.7852 65.5801 18.2422C65.5801 17.582 65.8301 17.0703 66.3301 16.707C66.834 16.3398 67.541 16.1562 68.4512 16.1562H69.5059V15.6582C69.5059 15.2793 69.3926 14.9785 69.166 14.7559C68.9395 14.5293 68.6055 14.416 68.1641 14.416C67.7773 14.416 67.4531 14.5137 67.1914 14.709C66.9297 14.9043 66.7988 15.1406 66.7988 15.418H65.709C65.709 15.1016 65.8203 14.7969 66.043 14.5039C66.2695 14.207 66.5742 13.9727 66.957 13.8008C67.3438 13.6289 67.7676 13.543 68.2285 13.543C68.959 13.543 69.5312 13.7266 69.9453 14.0938C70.3594 14.457 70.5742 14.959 70.5898 15.5996V18.5176C70.5898 19.0996 70.6641 19.5625 70.8125 19.9062V20H69.6758ZM67.877 19.1738C68.2168 19.1738 68.5391 19.0859 68.8438 18.9102C69.1484 18.7344 69.3691 18.5059 69.5059 18.2246V16.9238H68.6562C67.3281 16.9238 66.6641 17.3125 66.6641 18.0898C66.6641 18.4297 66.7773 18.6953 67.0039 18.8867C67.2305 19.0781 67.5215 19.1738 67.877 19.1738ZM77.6445 16.9004C77.6445 17.8652 77.4238 18.6426 76.9824 19.2324C76.541 19.8223 75.9434 20.1172 75.1895 20.1172C74.4199 20.1172 73.8145 19.873 73.373 19.3848V22.4375H72.2891V13.6602H73.2793L73.332 14.3633C73.7734 13.8164 74.3867 13.543 75.1719 13.543C75.9336 13.543 76.5352 13.8301 76.9766 14.4043C77.4219 14.9785 77.6445 15.7773 77.6445 16.8008V16.9004ZM76.5605 16.7773C76.5605 16.0625 76.4082 15.498 76.1035 15.084C75.7988 14.6699 75.3809 14.4629 74.8496 14.4629C74.1934 14.4629 73.7012 14.7539 73.373 15.3359V18.3652C73.6973 18.9434 74.1934 19.2324 74.8613 19.2324C75.3809 19.2324 75.793 19.0273 76.0977 18.6172C76.4062 18.2031 76.5605 17.5898 76.5605 16.7773ZM81.6582 20.1172C80.7988 20.1172 80.0996 19.8359 79.5605 19.2734C79.0215 18.707 78.752 17.9512 78.752 17.0059V16.8066C78.752 16.1777 78.8711 15.6172 79.1094 15.125C79.3516 14.6289 79.6875 14.2422 80.1172 13.9648C80.5508 13.6836 81.0195 13.543 81.5234 13.543C82.3477 13.543 82.9883 13.8145 83.4453 14.3574C83.9023 14.9004 84.1309 15.6777 84.1309 16.6895V17.1406H79.8359C79.8516 17.7656 80.0332 18.2715 80.3809 18.6582C80.7324 19.041 81.1777 19.2324 81.7168 19.2324C82.0996 19.2324 82.4238 19.1543 82.6895 18.998C82.9551 18.8418 83.1875 18.6348 83.3867 18.377L84.0488 18.8926C83.5176 19.709 82.7207 20.1172 81.6582 20.1172ZM81.5234 14.4336C81.0859 14.4336 80.7188 14.5938 80.4219 14.9141C80.125 15.2305 79.9414 15.6758 79.8711 16.25H83.0469V16.168C83.0156 15.6172 82.8672 15.1914 82.6016 14.8906C82.3359 14.5859 81.9766 14.4336 81.5234 14.4336Z" fill="#22272E"/>
</g>
<defs>
<filter id="filter0_d" x="0.5" y="0" width="95" height="36" filterUnits="userSpaceOnUse" color-interpolation-filters="sRGB">
<feFlood flood-opacity="0" result="BackgroundImageFix"/>
<feColorMatrix in="SourceAlpha" type="matrix" values="0 0 0 0 0 0 0 0 0 0 0 0 0 0 0 0 0 0 127 0" result="hardAlpha"/>
<feOffset dy="2"/>
<feGaussianBlur stdDeviation="1"/>
<feComposite in2="hardAlpha" operator="out"/>
<feColorMatrix type="matrix" values="0 0 0 0 0 0 0 0 0 0 0 0 0 0 0 0 0 0 0.25 0"/>
<feBlend mode="normal" in2="BackgroundImageFix" result="effect1_dropShadow"/>
<feBlend mode="normal" in="SourceGraphic" in2="effect1_dropShadow" result="shape"/>
</filter>
<clipPath id="clip0">
<rect width="18" height="18" fill="white" transform="translate(10.5 7)"/>
</clipPath>
</defs>
</svg>
