<svg width="19" height="18" viewBox="0 0 19 18" fill="none" xmlns="http://www.w3.org/2000/svg">
<g clip-path="url(#clip0)">
<path d="M7.63124 13.9148C7.63124 13.9148 6.94464 14.3141 8.11989 14.4492C9.54371 14.6116 10.2714 14.5883 11.8404 14.2913C11.8404 14.2913 12.253 14.55 12.829 14.7741C9.31169 16.2815 4.8685 14.6867 7.63124 13.9148Z" fill="#5382A1"/>
<path d="M7.20142 11.9476C7.20142 11.9476 6.43132 12.5176 7.60746 12.6393C9.12841 12.7962 10.3295 12.809 12.4079 12.4088C12.4079 12.4088 12.6954 12.7002 13.1475 12.8596C8.89472 14.1032 4.15796 12.9577 7.20142 11.9476Z" fill="#5382A1"/>
<path d="M10.8248 8.61062C11.6916 9.60842 10.5971 10.5063 10.5971 10.5063C10.5971 10.5063 12.7978 9.37031 11.7871 7.94769C10.8432 6.6211 10.1193 5.96186 14.0381 3.68918C14.0381 3.68918 7.88694 5.22542 10.8248 8.61057" fill="#E76F00"/>
<path d="M15.4768 15.3698C15.4768 15.3698 15.985 15.7884 14.9172 16.1123C12.887 16.7274 6.46701 16.9131 4.68355 16.1368C4.04247 15.858 5.24473 15.4709 5.62288 15.3897C6.01727 15.3042 6.24269 15.3201 6.24269 15.3201C5.52971 14.8178 1.63432 16.3063 4.26404 16.7326C11.4356 17.8956 17.337 16.2089 15.4768 15.3698Z" fill="#5382A1"/>
<path d="M7.96138 9.90936C7.96138 9.90936 4.69584 10.685 6.80501 10.9666C7.69554 11.0859 9.47083 11.0589 11.1245 10.9203C12.4759 10.8064 13.833 10.564 13.833 10.564C13.833 10.564 13.3564 10.7681 13.0117 11.0035C9.69552 11.8756 3.28929 11.4699 5.13356 10.5778C6.69327 9.82383 7.96143 9.90936 7.96143 9.90936" fill="#5382A1"/>
<path d="M13.8195 13.1838C17.1906 11.4321 15.6319 9.74872 14.544 9.97554C14.2774 10.031 14.1585 10.0791 14.1585 10.0791C14.1585 10.0791 14.2575 9.92404 14.4465 9.85693C16.5987 9.10025 18.254 12.0886 13.7518 13.2721C13.7518 13.2721 13.8039 13.2255 13.8195 13.1838Z" fill="#5382A1"/>
<path d="M11.7871 0.0193086C11.7871 0.0193086 13.6541 1.88694 10.0164 4.75867C7.09942 7.06235 9.35124 8.37583 10.0152 9.87655C8.31249 8.3403 7.0629 6.98791 7.90125 5.72926C9.13165 3.88156 12.5404 2.98577 11.7871 0.0192566" fill="#E76F00"/>
<path d="M8.29265 17.9306C11.5284 18.1377 16.4973 17.8156 16.615 16.2845C16.615 16.2845 16.3888 16.865 13.9408 17.3259C11.179 17.8457 7.77273 17.785 5.75241 17.4519C5.75246 17.4519 6.16599 17.7942 8.2927 17.9306" fill="#5382A1"/>
</g>
<defs>
<clipPath id="clip0">
<rect width="13.32" height="18" fill="white" transform="translate(3.33548)"/>
</clipPath>
</defs>
</svg>
