<svg width="96" height="47" viewBox="0 0 96 47" fill="none" xmlns="http://www.w3.org/2000/svg">
<rect x="1" y="1" width="94" height="45" rx="4" fill="#22272E"/>
<g clip-path="url(#clip0_28_4971)">
<path d="M22.6392 28.4191C22.6392 28.4191 21.9507 28.8201 23.128 28.9546C24.5545 29.1188 25.2841 29.0957 26.8546 28.7965C26.8546 28.7965 27.2669 29.0575 27.8446 29.2831C24.3205 30.7922 19.87 29.1925 22.6386 28.4191H22.6392ZM22.2078 26.4503C22.2078 26.4503 21.4343 27.0212 22.6122 27.1411C24.1394 27.2991 25.3398 27.3143 27.4227 26.9132C27.4227 26.9132 27.7101 27.2035 28.1646 27.3638C23.9048 28.6086 19.1585 27.4606 22.2083 26.4503H22.2078ZM25.8376 23.1079C26.7044 24.1069 25.6086 25.0064 25.6086 25.0064C25.6086 25.0064 27.812 23.8662 26.8011 22.4431C25.8556 21.1127 25.1288 20.4541 29.054 18.1771C29.054 18.1771 22.8929 19.7155 25.837 23.1085L25.8376 23.1079ZM30.4962 29.8782C30.4962 29.8782 31.0064 30.2967 29.9365 30.6224C27.9031 31.2372 21.4726 31.4217 19.6855 30.6454C19.0443 30.367 20.248 29.9777 20.626 29.8984C21.0215 29.8107 21.247 29.8287 21.247 29.8287C20.5321 29.3247 16.63 30.8159 19.2642 31.2434C26.4507 32.4094 32.362 30.7191 30.4962 29.8782ZM22.97 24.4084C22.97 24.4084 19.6979 25.1847 21.8095 25.4659C22.7033 25.5857 24.482 25.5599 26.1402 25.4192C27.493 25.3045 28.8531 25.0615 28.8531 25.0615C28.8531 25.0615 28.3756 25.2662 28.0296 25.5042C24.707 26.3772 18.2888 25.9699 20.1372 25.0767C21.6987 24.3235 22.97 24.4084 22.97 24.4084ZM28.838 27.6895C32.213 25.9317 30.6515 24.247 29.5647 24.4759C29.2975 24.5282 29.1777 24.5789 29.1777 24.5789C29.1777 24.5789 29.2745 24.4231 29.4651 24.3561C31.6212 23.5973 33.2795 26.5909 28.7705 27.7778C28.7705 27.775 28.8239 27.7311 28.838 27.6901V27.6895ZM26.8017 14.5C26.8017 14.5 28.6715 16.3692 25.0265 19.2458C22.106 21.5543 24.361 22.87 25.0265 24.373C23.3215 22.8346 22.0705 21.4817 22.9086 20.2217C24.1416 18.3672 27.5549 17.4706 26.8017 14.5ZM23.3007 32.4443C26.5413 32.6491 31.5183 32.3273 31.6392 30.7951C31.6392 30.7951 31.4103 31.375 28.9578 31.8374C26.1925 32.3588 22.7793 32.2969 20.7548 31.9634C20.7548 31.9634 21.1711 32.3059 23.3001 32.4443H23.3007Z" fill="#ADBAC7"/>
</g>
<path d="M50.3359 25.9844C50.3359 27.3125 50.0547 28.3464 49.4922 29.0859C48.9297 29.8203 48.1771 30.1875 47.2344 30.1875C46.7969 30.1875 46.4375 30.125 46.1562 30V28.7031C46.4375 28.9062 46.8021 29.0078 47.25 29.0078C48.4323 29.0078 49.0234 28.0052 49.0234 26V18.7969H50.3359V25.9844ZM58.7422 30H57.4609V28.75H57.4297C56.8724 29.7083 56.0521 30.1875 54.9688 30.1875C54.1719 30.1875 53.5469 29.9766 53.0938 29.5547C52.6458 29.1328 52.4219 28.5729 52.4219 27.875C52.4219 26.3802 53.3021 25.5104 55.0625 25.2656L57.4609 24.9297C57.4609 23.5703 56.9115 22.8906 55.8125 22.8906C54.849 22.8906 53.9792 23.2188 53.2031 23.875V22.5625C53.9896 22.0625 54.8958 21.8125 55.9219 21.8125C57.8021 21.8125 58.7422 22.8073 58.7422 24.7969V30ZM57.4609 25.9531L55.5312 26.2188C54.9375 26.3021 54.4896 26.4505 54.1875 26.6641C53.8854 26.8724 53.7344 27.2448 53.7344 27.7812C53.7344 28.1719 53.8724 28.4922 54.1484 28.7422C54.4297 28.987 54.8021 29.1094 55.2656 29.1094C55.901 29.1094 56.4245 28.888 56.8359 28.4453C57.2526 27.9974 57.4609 27.4323 57.4609 26.75V25.9531ZM67.4453 22L64.2578 30H63L59.9688 22H61.375L63.4062 27.8125C63.5573 28.2396 63.651 28.612 63.6875 28.9297H63.7188C63.7708 28.5286 63.8542 28.1667 63.9688 27.8438L66.0938 22H67.4453ZM74.5547 30H73.2734V28.75H73.2422C72.6849 29.7083 71.8646 30.1875 70.7812 30.1875C69.9844 30.1875 69.3594 29.9766 68.9062 29.5547C68.4583 29.1328 68.2344 28.5729 68.2344 27.875C68.2344 26.3802 69.1146 25.5104 70.875 25.2656L73.2734 24.9297C73.2734 23.5703 72.724 22.8906 71.625 22.8906C70.6615 22.8906 69.7917 23.2188 69.0156 23.875V22.5625C69.8021 22.0625 70.7083 21.8125 71.7344 21.8125C73.6146 21.8125 74.5547 22.8073 74.5547 24.7969V30ZM73.2734 25.9531L71.3438 26.2188C70.75 26.3021 70.3021 26.4505 70 26.6641C69.6979 26.8724 69.5469 27.2448 69.5469 27.7812C69.5469 28.1719 69.6849 28.4922 69.9609 28.7422C70.2422 28.987 70.6146 29.1094 71.0781 29.1094C71.7135 29.1094 72.237 28.888 72.6484 28.4453C73.0651 27.9974 73.2734 27.4323 73.2734 26.75V25.9531Z" fill="#ADBAC7"/>
<rect x="1" y="1" width="94" height="45" rx="4" stroke="#444C56" stroke-width="2"/>
<defs>
<clipPath id="clip0_28_4971">
<rect width="18" height="18" fill="white" transform="translate(16 14.5)"/>
</clipPath>
</defs>
</svg>
