<svg width="70" height="34" viewBox="0 0 70 34" fill="none" xmlns="http://www.w3.org/2000/svg">
<path d="M1 4C1 2.34315 2.34315 1 4 1H66C67.6569 1 69 2.34315 69 4V30C69 31.6569 67.6569 33 66 33H4C2.34314 33 1 31.6569 1 30V4Z" fill="#C9D1D9"/>
<g clip-path="url(#clip0)">
<path d="M15.6358 21.9148C15.6358 21.9148 14.9492 22.3141 16.1244 22.4492C17.5482 22.6116 18.2759 22.5883 19.8449 22.2913C19.8449 22.2913 20.2575 22.55 20.8335 22.774C17.3162 24.2815 12.873 22.6867 15.6358 21.9148Z" fill="#5382A1"/>
<path d="M15.2059 19.9476C15.2059 19.9476 14.4358 20.5176 15.612 20.6393C17.1329 20.7962 18.334 20.809 20.4125 20.4088C20.4125 20.4088 20.6999 20.7002 21.152 20.8596C16.8992 22.1032 12.1625 20.9577 15.2059 19.9476Z" fill="#5382A1"/>
<path d="M18.8294 16.6106C19.6961 17.6084 18.6017 18.5063 18.6017 18.5063C18.6017 18.5063 20.8023 17.3703 19.7916 15.9477C18.8477 14.6211 18.1238 13.9618 22.0426 11.6892C22.0426 11.6892 15.8915 13.2254 18.8294 16.6106" fill="#E76F00"/>
<path d="M23.4814 23.3698C23.4814 23.3698 23.9895 23.7884 22.9217 24.1123C20.8915 24.7274 14.4715 24.9131 12.6881 24.1368C12.047 23.858 13.2492 23.4709 13.6274 23.3897C14.0218 23.3042 14.2472 23.3201 14.2472 23.3201C13.5342 22.8178 9.63884 24.3063 12.2686 24.7326C19.4401 25.8956 25.3415 24.2089 23.4814 23.3698Z" fill="#5382A1"/>
<path d="M15.9659 17.9094C15.9659 17.9094 12.7004 18.685 14.8095 18.9666C15.7001 19.0859 17.4753 19.0589 19.129 18.9203C20.4805 18.8064 21.8375 18.564 21.8375 18.564C21.8375 18.564 21.361 18.7681 21.0162 19.0035C17.7 19.8756 11.2938 19.4699 13.1381 18.5778C14.6978 17.8238 15.966 17.9094 15.966 17.9094" fill="#5382A1"/>
<path d="M21.824 21.1838C25.1951 19.4321 23.6365 17.7487 22.5485 17.9755C22.2819 18.031 22.163 18.0791 22.163 18.0791C22.163 18.0791 22.262 17.924 22.4511 17.8569C24.6033 17.1002 26.2585 20.0886 21.7563 21.2721C21.7563 21.2721 21.8085 21.2255 21.824 21.1838Z" fill="#5382A1"/>
<path d="M19.7916 8.01929C19.7916 8.01929 21.6586 9.88692 18.0209 12.7587C15.1039 15.0623 17.3558 16.3758 18.0197 17.8765C16.317 16.3403 15.0674 14.9879 15.9058 13.7292C17.1362 11.8815 20.5449 10.9858 19.7916 8.01924" fill="#E76F00"/>
<path d="M16.2972 25.9305C19.533 26.1377 24.5018 25.8156 24.6195 24.2845C24.6195 24.2845 24.3933 24.865 21.9453 25.3259C19.1835 25.8456 15.7772 25.785 13.7569 25.4519C13.757 25.4519 14.1705 25.7942 16.2972 25.9305" fill="#5382A1"/>
</g>
<path d="M39.5645 12.4688H40.6953V18.5098C40.6953 19.3262 40.4492 19.9648 39.957 20.4258C39.4688 20.8867 38.8164 21.1172 38 21.1172C37.1523 21.1172 36.4922 20.9004 36.0195 20.4668C35.5469 20.0332 35.3105 19.4258 35.3105 18.6445H36.4355C36.4355 19.1328 36.5684 19.5137 36.834 19.7871C37.1035 20.0605 37.4922 20.1973 38 20.1973C38.4648 20.1973 38.8398 20.0508 39.125 19.7578C39.4141 19.4648 39.5605 19.0547 39.5645 18.5273V12.4688ZM46.3555 21C46.293 20.875 46.2422 20.6523 46.2031 20.332C45.6992 20.8555 45.0977 21.1172 44.3984 21.1172C43.7734 21.1172 43.2598 20.9414 42.8574 20.5898C42.459 20.2344 42.2598 19.7852 42.2598 19.2422C42.2598 18.582 42.5098 18.0703 43.0098 17.707C43.5137 17.3398 44.2207 17.1562 45.1309 17.1562H46.1855V16.6582C46.1855 16.2793 46.0723 15.9785 45.8457 15.7559C45.6191 15.5293 45.2852 15.416 44.8438 15.416C44.457 15.416 44.1328 15.5137 43.8711 15.709C43.6094 15.9043 43.4785 16.1406 43.4785 16.418H42.3887C42.3887 16.1016 42.5 15.7969 42.7227 15.5039C42.9492 15.207 43.2539 14.9727 43.6367 14.8008C44.0234 14.6289 44.4473 14.543 44.9082 14.543C45.6387 14.543 46.2109 14.7266 46.625 15.0938C47.0391 15.457 47.2539 15.959 47.2695 16.5996V19.5176C47.2695 20.0996 47.3438 20.5625 47.4922 20.9062V21H46.3555ZM44.5566 20.1738C44.8965 20.1738 45.2188 20.0859 45.5234 19.9102C45.8281 19.7344 46.0488 19.5059 46.1855 19.2246V17.9238H45.3359C44.0078 17.9238 43.3438 18.3125 43.3438 19.0898C43.3438 19.4297 43.457 19.6953 43.6836 19.8867C43.9102 20.0781 44.2012 20.1738 44.5566 20.1738ZM50.9668 19.5293L52.5371 14.6602H53.6445L51.3711 21H50.5449L48.248 14.6602H49.3555L50.9668 19.5293ZM58.5078 21C58.4453 20.875 58.3945 20.6523 58.3555 20.332C57.8516 20.8555 57.25 21.1172 56.5508 21.1172C55.9258 21.1172 55.4121 20.9414 55.0098 20.5898C54.6113 20.2344 54.4121 19.7852 54.4121 19.2422C54.4121 18.582 54.6621 18.0703 55.1621 17.707C55.666 17.3398 56.373 17.1562 57.2832 17.1562H58.3379V16.6582C58.3379 16.2793 58.2246 15.9785 57.998 15.7559C57.7715 15.5293 57.4375 15.416 56.9961 15.416C56.6094 15.416 56.2852 15.5137 56.0234 15.709C55.7617 15.9043 55.6309 16.1406 55.6309 16.418H54.541C54.541 16.1016 54.6523 15.7969 54.875 15.5039C55.1016 15.207 55.4062 14.9727 55.7891 14.8008C56.1758 14.6289 56.5996 14.543 57.0605 14.543C57.791 14.543 58.3633 14.7266 58.7773 15.0938C59.1914 15.457 59.4062 15.959 59.4219 16.5996V19.5176C59.4219 20.0996 59.4961 20.5625 59.6445 20.9062V21H58.5078ZM56.709 20.1738C57.0488 20.1738 57.3711 20.0859 57.6758 19.9102C57.9805 19.7344 58.2012 19.5059 58.3379 19.2246V17.9238H57.4883C56.1602 17.9238 55.4961 18.3125 55.4961 19.0898C55.4961 19.4297 55.6094 19.6953 55.8359 19.8867C56.0625 20.0781 56.3535 20.1738 56.709 20.1738Z" fill="#22272E"/>
<path d="M4 2H66V0H4V2ZM68 4V30H70V4H68ZM66 32H4V34H66V32ZM2 30V4H0V30H2ZM4 32C2.89543 32 2 31.1046 2 30H0C0 32.2091 1.79086 34 4 34V32ZM68 30C68 31.1046 67.1046 32 66 32V34C68.2091 34 70 32.2091 70 30H68ZM66 2C67.1046 2 68 2.89543 68 4H70C70 1.79086 68.2091 0 66 0V2ZM4 0C1.79086 0 0 1.79086 0 4H2C2 2.89543 2.89543 2 4 2V0Z" fill="#30363D"/>
<defs>
<clipPath id="clip0">
<rect width="13.32" height="18" fill="white" transform="translate(11.34 8)"/>
</clipPath>
</defs>
</svg>
