<svg width="94" height="45" viewBox="0 0 94 45" fill="none" xmlns="http://www.w3.org/2000/svg">
<path d="M1 4C1 2.34314 2.34315 1 4 1H90C91.6569 1 93 2.34315 93 4V41C93 42.6569 91.6569 44 90 44H4C2.34315 44 1 42.6569 1 41V4Z" fill="#22272E"/>
<g clip-path="url(#clip0)">
<path d="M21.6392 27.4191C21.6392 27.4191 20.9507 27.8201 22.128 27.9546C23.5545 28.1188 24.2841 28.0957 25.8546 27.7965C25.8546 27.7965 26.2669 28.0575 26.8446 28.2831C23.3205 29.7922 18.87 28.1925 21.6386 27.4191H21.6392ZM21.2078 25.4503C21.2078 25.4503 20.4343 26.0212 21.6122 26.1411C23.1394 26.2991 24.3398 26.3143 26.4227 25.9132C26.4227 25.9132 26.7101 26.2035 27.1646 26.3638C22.9048 27.6086 18.1585 26.4606 21.2083 25.4503H21.2078ZM24.8376 22.1079C25.7044 23.1069 24.6086 24.0064 24.6086 24.0064C24.6086 24.0064 26.812 22.8662 25.8011 21.4431C24.8556 20.1127 24.1288 19.4541 28.054 17.1771C28.054 17.1771 21.8929 18.7155 24.837 22.1085L24.8376 22.1079ZM29.4962 28.8782C29.4962 28.8782 30.0064 29.2967 28.9365 29.6224C26.9031 30.2372 20.4726 30.4217 18.6855 29.6454C18.0443 29.367 19.248 28.9777 19.626 28.8984C20.0215 28.8107 20.247 28.8287 20.247 28.8287C19.5321 28.3247 15.63 29.8159 18.2642 30.2434C25.4507 31.4094 31.362 29.7191 29.4962 28.8782V28.8782ZM21.97 23.4084C21.97 23.4084 18.6979 24.1847 20.8095 24.4659C21.7033 24.5857 23.482 24.5599 25.1402 24.4192C26.493 24.3045 27.8531 24.0615 27.8531 24.0615C27.8531 24.0615 27.3756 24.2662 27.0296 24.5042C23.707 25.3772 17.2888 24.9699 19.1372 24.0767C20.6987 23.3235 21.97 23.4084 21.97 23.4084V23.4084ZM27.838 26.6895C31.213 24.9317 29.6515 23.247 28.5647 23.4759C28.2975 23.5282 28.1777 23.5789 28.1777 23.5789C28.1777 23.5789 28.2745 23.4231 28.4651 23.3561C30.6212 22.5973 32.2795 25.5909 27.7705 26.7778C27.7705 26.775 27.8239 26.7311 27.838 26.6901V26.6895ZM25.8017 13.5C25.8017 13.5 27.6715 15.3692 24.0265 18.2458C21.106 20.5543 23.361 21.87 24.0265 23.373C22.3215 21.8346 21.0705 20.4817 21.9086 19.2217C23.1416 17.3672 26.5549 16.4706 25.8017 13.5ZM22.3007 31.4443C25.5413 31.6491 30.5183 31.3273 30.6392 29.7951C30.6392 29.7951 30.4103 30.375 27.9578 30.8374C25.1925 31.3588 21.7793 31.2969 19.7548 30.9634C19.7548 30.9634 20.1711 31.3059 22.3001 31.4443H22.3007Z" fill="#ADBAC7"/>
</g>
<path d="M49.3359 24.9844C49.3359 26.3125 49.0547 27.3464 48.4922 28.0859C47.9297 28.8203 47.1771 29.1875 46.2344 29.1875C45.7969 29.1875 45.4375 29.125 45.1562 29V27.7031C45.4375 27.9062 45.8021 28.0078 46.25 28.0078C47.4323 28.0078 48.0234 27.0052 48.0234 25V17.7969H49.3359V24.9844ZM57.5234 29H56.2422V27.75H56.2109C55.6536 28.7083 54.8333 29.1875 53.75 29.1875C52.9531 29.1875 52.3281 28.9766 51.875 28.5547C51.4271 28.1328 51.2031 27.5729 51.2031 26.875C51.2031 25.3802 52.0833 24.5104 53.8438 24.2656L56.2422 23.9297C56.2422 22.5703 55.6927 21.8906 54.5938 21.8906C53.6302 21.8906 52.7604 22.2188 51.9844 22.875V21.5625C52.7708 21.0625 53.6771 20.8125 54.7031 20.8125C56.5833 20.8125 57.5234 21.8073 57.5234 23.7969V29ZM56.2422 24.9531L54.3125 25.2188C53.7188 25.3021 53.2708 25.4505 52.9688 25.6641C52.6667 25.8724 52.5156 26.2448 52.5156 26.7812C52.5156 27.1719 52.6536 27.4922 52.9297 27.7422C53.2109 27.987 53.5833 28.1094 54.0469 28.1094C54.6823 28.1094 55.2057 27.888 55.6172 27.4453C56.0339 26.9974 56.2422 26.4323 56.2422 25.75V24.9531ZM66.2266 21L63.0391 29H61.7812L58.75 21H60.1562L62.1875 26.8125C62.3385 27.2396 62.4323 27.612 62.4688 27.9297H62.5C62.5521 27.5286 62.6354 27.1667 62.75 26.8438L64.875 21H66.2266ZM73.0391 29H71.7578V27.75H71.7266C71.1693 28.7083 70.349 29.1875 69.2656 29.1875C68.4688 29.1875 67.8438 28.9766 67.3906 28.5547C66.9427 28.1328 66.7188 27.5729 66.7188 26.875C66.7188 25.3802 67.599 24.5104 69.3594 24.2656L71.7578 23.9297C71.7578 22.5703 71.2083 21.8906 70.1094 21.8906C69.1458 21.8906 68.276 22.2188 67.5 22.875V21.5625C68.2865 21.0625 69.1927 20.8125 70.2188 20.8125C72.099 20.8125 73.0391 21.8073 73.0391 23.7969V29ZM71.7578 24.9531L69.8281 25.2188C69.2344 25.3021 68.7865 25.4505 68.4844 25.6641C68.1823 25.8724 68.0312 26.2448 68.0312 26.7812C68.0312 27.1719 68.1693 27.4922 68.4453 27.7422C68.7266 27.987 69.099 28.1094 69.5625 28.1094C70.1979 28.1094 70.7214 27.888 71.1328 27.4453C71.5495 26.9974 71.7578 26.4323 71.7578 25.75V24.9531Z" fill="#ADBAC7"/>
<path d="M4 2H90V0H4V2ZM92 4V41H94V4H92ZM90 43H4V45H90V43ZM2 41V4H0V41H2ZM4 43C2.89543 43 2 42.1046 2 41H0C0 43.2091 1.79086 45 4 45V43ZM92 41C92 42.1046 91.1046 43 90 43V45C92.2091 45 94 43.2091 94 41H92ZM90 2C91.1046 2 92 2.89543 92 4H94C94 1.79086 92.2091 0 90 0V2ZM4 0C1.79086 0 0 1.79086 0 4H2C2 2.89543 2.89543 2 4 2V0Z" fill="#444C56"/>
<defs>
<clipPath id="clip0">
<rect width="18" height="18" fill="white" transform="translate(15 13.5)"/>
</clipPath>
</defs>
</svg>
