<svg width="78" height="39" viewBox="0 0 78 39" fill="none" xmlns="http://www.w3.org/2000/svg">
<path d="M1 4C1 2.34315 2.34315 1 4 1H74C75.6569 1 77 2.34315 77 4V35C77 36.6569 75.6569 38 74 38H4C2.34315 38 1 36.6569 1 35V4Z" fill="#22272E"/>
<g clip-path="url(#clip0)">
<path d="M17.6392 24.4191C17.6392 24.4191 16.9507 24.8201 18.128 24.9546C19.5545 25.1188 20.2841 25.0957 21.8546 24.7965C21.8546 24.7965 22.2669 25.0575 22.8446 25.2831C19.3205 26.7922 14.87 25.1925 17.6386 24.4191H17.6392ZM17.2078 22.4503C17.2078 22.4503 16.4343 23.0212 17.6122 23.1411C19.1394 23.2991 20.3398 23.3143 22.4227 22.9132C22.4227 22.9132 22.7101 23.2035 23.1646 23.3638C18.9048 24.6086 14.1585 23.4606 17.2083 22.4503H17.2078ZM20.8376 19.1079C21.7044 20.1069 20.6086 21.0064 20.6086 21.0064C20.6086 21.0064 22.812 19.8662 21.8011 18.4431C20.8556 17.1127 20.1288 16.4541 24.054 14.1771C24.054 14.1771 17.8929 15.7155 20.837 19.1085L20.8376 19.1079ZM25.4962 25.8782C25.4962 25.8782 26.0064 26.2967 24.9365 26.6224C22.9031 27.2372 16.4726 27.4217 14.6855 26.6454C14.0443 26.367 15.248 25.9777 15.626 25.8984C16.0215 25.8107 16.247 25.8287 16.247 25.8287C15.5321 25.3247 11.63 26.8159 14.2642 27.2434C21.4507 28.4094 27.362 26.7191 25.4962 25.8782V25.8782ZM17.97 20.4084C17.97 20.4084 14.6979 21.1847 16.8095 21.4659C17.7033 21.5857 19.482 21.5599 21.1402 21.4192C22.493 21.3045 23.8531 21.0615 23.8531 21.0615C23.8531 21.0615 23.3756 21.2662 23.0296 21.5042C19.707 22.3772 13.2888 21.9699 15.1372 21.0767C16.6987 20.3235 17.97 20.4084 17.97 20.4084V20.4084ZM23.838 23.6895C27.213 21.9317 25.6515 20.247 24.5647 20.4759C24.2975 20.5282 24.1777 20.5789 24.1777 20.5789C24.1777 20.5789 24.2745 20.4231 24.4651 20.3561C26.6212 19.5973 28.2795 22.5909 23.7705 23.7778C23.7705 23.775 23.8239 23.7311 23.838 23.6901V23.6895ZM21.8017 10.5C21.8017 10.5 23.6715 12.3692 20.0265 15.2458C17.106 17.5543 19.361 18.87 20.0265 20.373C18.3215 18.8346 17.0705 17.4817 17.9086 16.2217C19.1416 14.3672 22.5549 13.4706 21.8017 10.5ZM18.3007 28.4443C21.5413 28.6491 26.5183 28.3273 26.6392 26.7951C26.6392 26.7951 26.4103 27.375 23.9578 27.8374C21.1925 28.3588 17.7793 28.2969 15.7548 27.9634C15.7548 27.9634 16.1711 28.3059 18.3001 28.4443H18.3007Z" fill="#ADBAC7"/>
</g>
<path d="M44.7939 21.4863C44.7939 22.6484 44.5479 23.5531 44.0557 24.2002C43.5635 24.8428 42.9049 25.1641 42.0801 25.1641C41.6973 25.1641 41.3828 25.1094 41.1367 25V23.8652C41.3828 24.043 41.7018 24.1318 42.0938 24.1318C43.1283 24.1318 43.6455 23.2546 43.6455 21.5V15.1973H44.7939V21.4863ZM51.958 25H50.8369V23.9062H50.8096C50.3219 24.7448 49.6042 25.1641 48.6562 25.1641C47.959 25.1641 47.4121 24.9795 47.0156 24.6104C46.6237 24.2412 46.4277 23.7513 46.4277 23.1406C46.4277 21.8327 47.1979 21.0716 48.7383 20.8574L50.8369 20.5635C50.8369 19.374 50.3561 18.7793 49.3945 18.7793C48.5514 18.7793 47.7904 19.0664 47.1113 19.6406V18.4922C47.7995 18.0547 48.5924 17.8359 49.4902 17.8359C51.1354 17.8359 51.958 18.7064 51.958 20.4473V25ZM50.8369 21.459L49.1484 21.6914C48.6289 21.7643 48.237 21.8942 47.9727 22.0811C47.7083 22.2633 47.5762 22.5892 47.5762 23.0586C47.5762 23.4004 47.6969 23.6807 47.9385 23.8994C48.1846 24.1136 48.5104 24.2207 48.916 24.2207C49.472 24.2207 49.93 24.027 50.29 23.6396C50.6546 23.2477 50.8369 22.7533 50.8369 22.1562V21.459ZM59.5732 18L56.7842 25H55.6836L53.0312 18H54.2617L56.0391 23.0859C56.1712 23.4596 56.2533 23.7855 56.2852 24.0635H56.3125C56.3581 23.7126 56.431 23.3958 56.5312 23.1133L58.3906 18H59.5732ZM65.5342 25H64.4131V23.9062H64.3857C63.8981 24.7448 63.1803 25.1641 62.2324 25.1641C61.5352 25.1641 60.9883 24.9795 60.5918 24.6104C60.1999 24.2412 60.0039 23.7513 60.0039 23.1406C60.0039 21.8327 60.7741 21.0716 62.3145 20.8574L64.4131 20.5635C64.4131 19.374 63.9323 18.7793 62.9707 18.7793C62.1276 18.7793 61.3665 19.0664 60.6875 19.6406V18.4922C61.3757 18.0547 62.1686 17.8359 63.0664 17.8359C64.7116 17.8359 65.5342 18.7064 65.5342 20.4473V25ZM64.4131 21.459L62.7246 21.6914C62.2051 21.7643 61.8132 21.8942 61.5488 22.0811C61.2845 22.2633 61.1523 22.5892 61.1523 23.0586C61.1523 23.4004 61.2731 23.6807 61.5146 23.8994C61.7607 24.1136 62.0866 24.2207 62.4922 24.2207C63.0482 24.2207 63.5062 24.027 63.8662 23.6396C64.2308 23.2477 64.4131 22.7533 64.4131 22.1562V21.459Z" fill="#ADBAC7"/>
<path d="M4 2H74V0H4V2ZM76 4V35H78V4H76ZM74 37H4V39H74V37ZM2 35V4H0V35H2ZM4 37C2.89543 37 2 36.1046 2 35H0C0 37.2091 1.79086 39 4 39V37ZM76 35C76 36.1046 75.1046 37 74 37V39C76.2091 39 78 37.2091 78 35H76ZM74 2C75.1046 2 76 2.89543 76 4H78C78 1.79086 76.2091 0 74 0V2ZM4 0C1.79086 0 0 1.79086 0 4H2C2 2.89543 2.89543 2 4 2V0Z" fill="#ADBCA7"/>
<defs>
<clipPath id="clip0">
<rect width="18" height="18" fill="white" transform="translate(11 10.5)"/>
</clipPath>
</defs>
</svg>
