<svg width="72" height="36" viewBox="0 0 72 36" fill="none" xmlns="http://www.w3.org/2000/svg">
<g filter="url(#filter0_d)">
<path d="M2 3C2 1.34315 3.34315 0 5 0H67C68.6569 0 70 1.34315 70 3V29C70 30.6569 68.6569 32 67 32H5C3.34314 32 2 30.6569 2 29V3Z" fill="white"/>
<g clip-path="url(#clip0)">
<path d="M16.6358 20.9148C16.6358 20.9148 15.9492 21.3141 17.1244 21.4492C18.5482 21.6116 19.2759 21.5883 20.8449 21.2913C20.8449 21.2913 21.2575 21.55 21.8335 21.774C18.3162 23.2815 13.873 21.6867 16.6358 20.9148" fill="#5382A1"/>
<path d="M16.2059 18.9476C16.2059 18.9476 15.4358 19.5176 16.612 19.6393C18.1329 19.7962 19.334 19.809 21.4125 19.4088C21.4125 19.4088 21.6999 19.7002 22.152 19.8596C17.8992 21.1032 13.1625 19.9577 16.2059 18.9476" fill="#5382A1"/>
<path d="M19.8294 15.6106C20.6961 16.6084 19.6017 17.5063 19.6017 17.5063C19.6017 17.5063 21.8023 16.3703 20.7916 14.9477C19.8477 13.6211 19.1238 12.9618 23.0426 10.6892C23.0426 10.6892 16.8915 12.2254 19.8294 15.6106" fill="#E76F00"/>
<path d="M24.4814 22.3698C24.4814 22.3698 24.9895 22.7884 23.9217 23.1123C21.8915 23.7274 15.4715 23.9131 13.6881 23.1368C13.047 22.858 14.2492 22.4709 14.6274 22.3897C15.0218 22.3042 15.2472 22.3201 15.2472 22.3201C14.5342 21.8178 10.6388 23.3063 13.2686 23.7326C20.4401 24.8956 26.3415 23.2089 24.4814 22.3698Z" fill="#5382A1"/>
<path d="M16.9659 16.9094C16.9659 16.9094 13.7004 17.685 15.8095 17.9666C16.7001 18.0859 18.4753 18.0589 20.129 17.9203C21.4805 17.8064 22.8375 17.564 22.8375 17.564C22.8375 17.564 22.361 17.7681 22.0162 18.0035C18.7 18.8756 12.2938 18.4699 14.1381 17.5778C15.6978 16.8238 16.9659 16.9094 16.9659 16.9094" fill="#5382A1"/>
<path d="M22.824 20.1838C26.1951 18.4321 24.6365 16.7487 23.5485 16.9755C23.2819 17.031 23.163 17.0791 23.163 17.0791C23.163 17.0791 23.262 16.924 23.4511 16.8569C25.6033 16.1002 27.2585 19.0886 22.7563 20.2721C22.7563 20.2721 22.8085 20.2255 22.824 20.1838" fill="#5382A1"/>
<path d="M20.7916 7.01929C20.7916 7.01929 22.6586 8.88692 19.0209 11.7587C16.1039 14.0623 18.3558 15.3758 19.0197 16.8765C17.317 15.3403 16.0674 13.9879 16.9058 12.7292C18.1362 10.8815 21.5449 9.98576 20.7916 7.01924" fill="#E76F00"/>
<path d="M17.2972 24.9305C20.533 25.1377 25.5018 24.8156 25.6195 23.2845C25.6195 23.2845 25.3933 23.865 22.9453 24.3259C20.1835 24.8456 16.7772 24.785 14.7569 24.4519C14.757 24.4519 15.1705 24.7942 17.2972 24.9305" fill="#5382A1"/>
</g>
<path d="M40.5645 11.4688H41.6953V17.5098C41.6953 18.3262 41.4492 18.9648 40.957 19.4258C40.4688 19.8867 39.8164 20.1172 39 20.1172C38.1523 20.1172 37.4922 19.9004 37.0195 19.4668C36.5469 19.0332 36.3105 18.4258 36.3105 17.6445H37.4355C37.4355 18.1328 37.5684 18.5137 37.834 18.7871C38.1035 19.0605 38.4922 19.1973 39 19.1973C39.4648 19.1973 39.8398 19.0508 40.125 18.7578C40.4141 18.4648 40.5605 18.0547 40.5645 17.5273V11.4688ZM47.3555 20C47.293 19.875 47.2422 19.6523 47.2031 19.332C46.6992 19.8555 46.0977 20.1172 45.3984 20.1172C44.7734 20.1172 44.2598 19.9414 43.8574 19.5898C43.459 19.2344 43.2598 18.7852 43.2598 18.2422C43.2598 17.582 43.5098 17.0703 44.0098 16.707C44.5137 16.3398 45.2207 16.1562 46.1309 16.1562H47.1855V15.6582C47.1855 15.2793 47.0723 14.9785 46.8457 14.7559C46.6191 14.5293 46.2852 14.416 45.8438 14.416C45.457 14.416 45.1328 14.5137 44.8711 14.709C44.6094 14.9043 44.4785 15.1406 44.4785 15.418H43.3887C43.3887 15.1016 43.5 14.7969 43.7227 14.5039C43.9492 14.207 44.2539 13.9727 44.6367 13.8008C45.0234 13.6289 45.4473 13.543 45.9082 13.543C46.6387 13.543 47.2109 13.7266 47.625 14.0938C48.0391 14.457 48.2539 14.959 48.2695 15.5996V18.5176C48.2695 19.0996 48.3438 19.5625 48.4922 19.9062V20H47.3555ZM45.5566 19.1738C45.8965 19.1738 46.2188 19.0859 46.5234 18.9102C46.8281 18.7344 47.0488 18.5059 47.1855 18.2246V16.9238H46.3359C45.0078 16.9238 44.3438 17.3125 44.3438 18.0898C44.3438 18.4297 44.457 18.6953 44.6836 18.8867C44.9102 19.0781 45.2012 19.1738 45.5566 19.1738ZM51.9668 18.5293L53.5371 13.6602H54.6445L52.3711 20H51.5449L49.248 13.6602H50.3555L51.9668 18.5293ZM59.5078 20C59.4453 19.875 59.3945 19.6523 59.3555 19.332C58.8516 19.8555 58.25 20.1172 57.5508 20.1172C56.9258 20.1172 56.4121 19.9414 56.0098 19.5898C55.6113 19.2344 55.4121 18.7852 55.4121 18.2422C55.4121 17.582 55.6621 17.0703 56.1621 16.707C56.666 16.3398 57.373 16.1562 58.2832 16.1562H59.3379V15.6582C59.3379 15.2793 59.2246 14.9785 58.998 14.7559C58.7715 14.5293 58.4375 14.416 57.9961 14.416C57.6094 14.416 57.2852 14.5137 57.0234 14.709C56.7617 14.9043 56.6309 15.1406 56.6309 15.418H55.541C55.541 15.1016 55.6523 14.7969 55.875 14.5039C56.1016 14.207 56.4062 13.9727 56.7891 13.8008C57.1758 13.6289 57.5996 13.543 58.0605 13.543C58.791 13.543 59.3633 13.7266 59.7773 14.0938C60.1914 14.457 60.4062 14.959 60.4219 15.5996V18.5176C60.4219 19.0996 60.4961 19.5625 60.6445 19.9062V20H59.5078ZM57.709 19.1738C58.0488 19.1738 58.3711 19.0859 58.6758 18.9102C58.9805 18.7344 59.2012 18.5059 59.3379 18.2246V16.9238H58.4883C57.1602 16.9238 56.4961 17.3125 56.4961 18.0898C56.4961 18.4297 56.6094 18.6953 56.8359 18.8867C57.0625 19.0781 57.3535 19.1738 57.709 19.1738Z" fill="black"/>
</g>
<defs>
<filter id="filter0_d" x="0" y="0" width="72" height="36" filterUnits="userSpaceOnUse" color-interpolation-filters="sRGB">
<feFlood flood-opacity="0" result="BackgroundImageFix"/>
<feColorMatrix in="SourceAlpha" type="matrix" values="0 0 0 0 0 0 0 0 0 0 0 0 0 0 0 0 0 0 127 0" result="hardAlpha"/>
<feOffset dy="2"/>
<feGaussianBlur stdDeviation="1"/>
<feComposite in2="hardAlpha" operator="out"/>
<feColorMatrix type="matrix" values="0 0 0 0 0 0 0 0 0 0 0 0 0 0 0 0 0 0 0.25 0"/>
<feBlend mode="normal" in2="BackgroundImageFix" result="effect1_dropShadow"/>
<feBlend mode="normal" in="SourceGraphic" in2="effect1_dropShadow" result="shape"/>
</filter>
<clipPath id="clip0">
<rect width="13.32" height="18" fill="white" transform="translate(12.34 7)"/>
</clipPath>
</defs>
</svg>
