<svg xmlns="http://www.w3.org/2000/svg" width="126" height="56" fill="none"><rect width="108" height="48" x="9" y="4" fill="#E3F2FD" rx="4"/><g clip-path="url(#a)"><path fill="#5382A1" d="M36.848 34.553s-.916.532.651.713c1.898.216 2.869.185 4.96-.21 0 0 .55.344 1.319.643-4.69 2.01-10.614-.117-6.93-1.146M36.275 31.93s-1.027.76.541.922c2.028.21 3.63.227 6.4-.307 0 0 .384.389.987.601-5.67 1.658-11.986.13-7.928-1.216"/><path fill="#E76F00" d="M41.106 27.48c1.155 1.331-.304 2.528-.304 2.528s2.934-1.514 1.587-3.411c-1.259-1.769-2.224-2.648 3.001-5.678 0 0-8.201 2.048-4.284 6.562"/><path fill="#5382A1" d="M47.309 36.493s.677.558-.747.99c-2.707.82-11.267 1.068-13.645.033-.854-.372.749-.888 1.253-.996.526-.114.826-.093.826-.093-.95-.67-6.144 1.315-2.638 1.883 9.562 1.55 17.43-.698 14.95-1.817ZM37.288 29.212s-4.354 1.035-1.542 1.41c1.187.16 3.554.123 5.76-.062 1.801-.151 3.61-.475 3.61-.475s-.635.272-1.094.586c-4.422 1.163-12.964.622-10.505-.567 2.08-1.006 3.77-.892 3.77-.892M45.099 33.578c4.494-2.335 2.416-4.58.966-4.277-.356.074-.514.138-.514.138s.132-.207.384-.296c2.87-1.01 5.076 2.975-.927 4.553 0 0 .07-.062.09-.118"/><path fill="#E76F00" d="M42.389 16.026s2.49 2.49-2.361 6.319c-3.89 3.071-.887 4.823-.002 6.824-2.27-2.049-3.936-3.852-2.818-5.53 1.64-2.464 6.185-3.658 5.18-7.613"/><path fill="#5382A1" d="M37.73 39.907c4.314.277 10.94-.153 11.096-2.194 0 0-.301.774-3.566 1.388-3.682.693-8.224.612-10.917.168 0 0 .551.457 3.387.638"/></g><path fill="#000" d="M72.336 30.484c0 1.328-.281 2.362-.844 3.102-.562.734-1.315 1.102-2.258 1.102-.437 0-.796-.063-1.078-.188v-1.297c.281.203.646.305 1.094.305 1.182 0 1.773-1.003 1.773-3.008v-7.203h1.313v7.187Zm8.406 4.016h-1.281v-1.25h-.031c-.558.958-1.378 1.438-2.461 1.438-.797 0-1.422-.211-1.875-.633-.448-.422-.672-.982-.672-1.68 0-1.495.88-2.365 2.64-2.61l2.399-.335c0-1.36-.55-2.04-1.648-2.04-.964 0-1.834.329-2.61.985v-1.313c.787-.5 1.693-.75 2.719-.75 1.88 0 2.82.995 2.82 2.985V34.5Zm-1.281-4.047-1.93.266c-.594.083-1.041.232-1.344.445-.302.208-.453.58-.453 1.117 0 .39.138.711.414.961.282.245.654.367 1.118.367.635 0 1.158-.221 1.57-.664.417-.448.625-1.013.625-1.695v-.797Zm9.984-3.953-3.187 8H85l-3.031-8h1.406l2.031 5.813c.151.427.245.799.281 1.117h.032c.052-.401.135-.763.25-1.086l2.125-5.844h1.351Zm7.11 8h-1.282v-1.25h-.03c-.558.958-1.378 1.438-2.462 1.438-.797 0-1.422-.211-1.875-.633-.448-.422-.672-.982-.672-1.68 0-1.495.88-2.365 2.641-2.61l2.398-.335c0-1.36-.549-2.04-1.648-2.04-.963 0-1.833.329-2.61.985v-1.313c.787-.5 1.693-.75 2.72-.75 1.88 0 2.82.995 2.82 2.985V34.5Zm-1.282-4.047-1.93.266c-.593.083-1.04.232-1.343.445-.302.208-.453.58-.453 1.117 0 .39.138.711.414.961.281.245.654.367 1.117.367.635 0 1.159-.221 1.57-.664.417-.448.625-1.013.625-1.695v-.797Z"/><rect width="108" height="48" x="9" y="4" stroke="#2196F3" stroke-width="2" rx="4"/><defs><clipPath id="a"><path fill="#fff" d="M31.12 16h17.76v24H31.12z"/></clipPath></defs></svg>