<svg width="103" height="36" viewBox="0 0 103 36" fill="none" xmlns="http://www.w3.org/2000/svg">
<g filter="url(#filter0_d)">
<path d="M2.5 3C2.5 1.34315 3.84315 0 5.5 0H97.5C99.1569 0 100.5 1.34315 100.5 3V29C100.5 30.6569 99.1569 32 97.5 32H5.5C3.84314 32 2.5 30.6569 2.5 29V3Z" fill="#C9D1D9"/>
<path d="M11.625 8.125H27.375V23.875H11.625V8.125Z" fill="#F5DE19"/>
<path d="M22.2051 20.4297C22.3393 20.7023 22.5477 20.9314 22.8065 21.0906C23.0653 21.2499 23.3638 21.3327 23.6676 21.3297C24.2807 21.3297 24.6727 21.0231 24.6727 20.5984C24.6727 20.0922 24.27 19.9111 23.595 19.6157L23.2249 19.4571C22.1561 19.0021 21.4474 18.4322 21.4474 17.2274C21.4474 16.1176 22.2911 15.2721 23.6147 15.2721C24.0431 15.2412 24.4712 15.3371 24.8455 15.5478C25.2199 15.7586 25.5238 16.0749 25.7196 16.4573L24.5625 17.197C24.4871 17.0074 24.3559 16.8452 24.1862 16.7319C24.0166 16.6185 23.8165 16.5595 23.6124 16.5625C23.5234 16.5536 23.4335 16.5633 23.3485 16.5911C23.2635 16.6188 23.1851 16.664 23.1185 16.7237C23.0519 16.7834 22.9984 16.8563 22.9615 16.9378C22.9246 17.0193 22.9051 17.1076 22.9042 17.197C22.9042 17.6408 23.1793 17.8208 23.8144 18.097L24.1845 18.2556C25.4422 18.7951 26.1532 19.3446 26.1532 20.5804C26.1532 21.913 25.1064 22.6431 23.7007 22.6431C23.153 22.678 22.6069 22.5537 22.1283 22.2851C21.6497 22.0165 21.2591 21.6151 21.0036 21.1294L22.2051 20.4297ZM16.9766 20.5579C17.2089 20.9702 17.4204 21.319 17.9289 21.319C18.4149 21.319 18.7221 21.1289 18.7221 20.3892V15.3565H20.202V20.4089C20.202 21.9411 19.302 22.6386 17.9919 22.6386C17.5289 22.6639 17.069 22.5485 16.6727 22.3076C16.2764 22.0666 15.9624 21.7114 15.7717 21.2886L16.9766 20.5579Z" fill="black"/>
<path d="M41.0645 11.4688H42.1953V17.5098C42.1953 18.3262 41.9492 18.9648 41.457 19.4258C40.9688 19.8867 40.3164 20.1172 39.5 20.1172C38.6523 20.1172 37.9922 19.9004 37.5195 19.4668C37.0469 19.0332 36.8105 18.4258 36.8105 17.6445H37.9355C37.9355 18.1328 38.0684 18.5137 38.334 18.7871C38.6035 19.0605 38.9922 19.1973 39.5 19.1973C39.9648 19.1973 40.3398 19.0508 40.625 18.7578C40.9141 18.4648 41.0605 18.0547 41.0645 17.5273V11.4688ZM47.8555 20C47.793 19.875 47.7422 19.6523 47.7031 19.332C47.1992 19.8555 46.5977 20.1172 45.8984 20.1172C45.2734 20.1172 44.7598 19.9414 44.3574 19.5898C43.959 19.2344 43.7598 18.7852 43.7598 18.2422C43.7598 17.582 44.0098 17.0703 44.5098 16.707C45.0137 16.3398 45.7207 16.1562 46.6309 16.1562H47.6855V15.6582C47.6855 15.2793 47.5723 14.9785 47.3457 14.7559C47.1191 14.5293 46.7852 14.416 46.3438 14.416C45.957 14.416 45.6328 14.5137 45.3711 14.709C45.1094 14.9043 44.9785 15.1406 44.9785 15.418H43.8887C43.8887 15.1016 44 14.7969 44.2227 14.5039C44.4492 14.207 44.7539 13.9727 45.1367 13.8008C45.5234 13.6289 45.9473 13.543 46.4082 13.543C47.1387 13.543 47.7109 13.7266 48.125 14.0938C48.5391 14.457 48.7539 14.959 48.7695 15.5996V18.5176C48.7695 19.0996 48.8438 19.5625 48.9922 19.9062V20H47.8555ZM46.0566 19.1738C46.3965 19.1738 46.7188 19.0859 47.0234 18.9102C47.3281 18.7344 47.5488 18.5059 47.6855 18.2246V16.9238H46.8359C45.5078 16.9238 44.8438 17.3125 44.8438 18.0898C44.8438 18.4297 44.957 18.6953 45.1836 18.8867C45.4102 19.0781 45.7012 19.1738 46.0566 19.1738ZM52.4668 18.5293L54.0371 13.6602H55.1445L52.8711 20H52.0449L49.748 13.6602H50.8555L52.4668 18.5293ZM60.0078 20C59.9453 19.875 59.8945 19.6523 59.8555 19.332C59.3516 19.8555 58.75 20.1172 58.0508 20.1172C57.4258 20.1172 56.9121 19.9414 56.5098 19.5898C56.1113 19.2344 55.9121 18.7852 55.9121 18.2422C55.9121 17.582 56.1621 17.0703 56.6621 16.707C57.166 16.3398 57.873 16.1562 58.7832 16.1562H59.8379V15.6582C59.8379 15.2793 59.7246 14.9785 59.498 14.7559C59.2715 14.5293 58.9375 14.416 58.4961 14.416C58.1094 14.416 57.7852 14.5137 57.5234 14.709C57.2617 14.9043 57.1309 15.1406 57.1309 15.418H56.041C56.041 15.1016 56.1523 14.7969 56.375 14.5039C56.6016 14.207 56.9062 13.9727 57.2891 13.8008C57.6758 13.6289 58.0996 13.543 58.5605 13.543C59.291 13.543 59.8633 13.7266 60.2773 14.0938C60.6914 14.457 60.9062 14.959 60.9219 15.5996V18.5176C60.9219 19.0996 60.9961 19.5625 61.1445 19.9062V20H60.0078ZM58.209 19.1738C58.5488 19.1738 58.8711 19.0859 59.1758 18.9102C59.4805 18.7344 59.7012 18.5059 59.8379 18.2246V16.9238H58.9883C57.6602 16.9238 56.9961 17.3125 56.9961 18.0898C56.9961 18.4297 57.1094 18.6953 57.3359 18.8867C57.5625 19.0781 57.8535 19.1738 58.209 19.1738ZM66.3125 18.3184C66.3125 18.0254 66.2012 17.7988 65.9785 17.6387C65.7598 17.4746 65.375 17.334 64.8242 17.2168C64.2773 17.0996 63.8418 16.959 63.5176 16.7949C63.1973 16.6309 62.959 16.4355 62.8027 16.209C62.6504 15.9824 62.5742 15.7129 62.5742 15.4004C62.5742 14.8809 62.793 14.4414 63.2305 14.082C63.6719 13.7227 64.2344 13.543 64.918 13.543C65.6367 13.543 66.2188 13.7285 66.6641 14.0996C67.1133 14.4707 67.3379 14.9453 67.3379 15.5234H66.248C66.248 15.2266 66.1211 14.9707 65.8672 14.7559C65.6172 14.541 65.3008 14.4336 64.918 14.4336C64.5234 14.4336 64.2148 14.5195 63.9922 14.6914C63.7695 14.8633 63.6582 15.0879 63.6582 15.3652C63.6582 15.627 63.7617 15.8242 63.9688 15.957C64.1758 16.0898 64.5488 16.2168 65.0879 16.3379C65.6309 16.459 66.0703 16.6035 66.4062 16.7715C66.7422 16.9395 66.9902 17.1426 67.1504 17.3809C67.3145 17.6152 67.3965 17.9023 67.3965 18.2422C67.3965 18.8086 67.1699 19.2637 66.7168 19.6074C66.2637 19.9473 65.6758 20.1172 64.9531 20.1172C64.4453 20.1172 63.9961 20.0273 63.6055 19.8477C63.2148 19.668 62.9082 19.418 62.6855 19.0977C62.4668 18.7734 62.3574 18.4238 62.3574 18.0488H63.4414C63.4609 18.4121 63.6055 18.7012 63.875 18.916C64.1484 19.127 64.5078 19.2324 64.9531 19.2324C65.3633 19.2324 65.6914 19.1504 65.9375 18.9863C66.1875 18.8184 66.3125 18.5957 66.3125 18.3184ZM71.3516 19.2324C71.7383 19.2324 72.0762 19.1152 72.3652 18.8809C72.6543 18.6465 72.8145 18.3535 72.8457 18.002H73.8711C73.8516 18.3652 73.7266 18.7109 73.4961 19.0391C73.2656 19.3672 72.957 19.6289 72.5703 19.8242C72.1875 20.0195 71.7812 20.1172 71.3516 20.1172C70.4883 20.1172 69.8008 19.8301 69.2891 19.2559C68.7812 18.6777 68.5273 17.8887 68.5273 16.8887V16.707C68.5273 16.0898 68.6406 15.541 68.8672 15.0605C69.0938 14.5801 69.418 14.207 69.8398 13.9414C70.2656 13.6758 70.7676 13.543 71.3457 13.543C72.0566 13.543 72.6465 13.7559 73.1152 14.1816C73.5879 14.6074 73.8398 15.1602 73.8711 15.8398H72.8457C72.8145 15.4297 72.6582 15.0938 72.377 14.832C72.0996 14.5664 71.7559 14.4336 71.3457 14.4336C70.7949 14.4336 70.3672 14.6328 70.0625 15.0312C69.7617 15.4258 69.6113 15.998 69.6113 16.748V16.9531C69.6113 17.6836 69.7617 18.2461 70.0625 18.6406C70.3633 19.0352 70.793 19.2324 71.3516 19.2324ZM78.1543 14.6328C77.9902 14.6055 77.8125 14.5918 77.6211 14.5918C76.9102 14.5918 76.4277 14.8945 76.1738 15.5V20H75.0898V13.6602H76.1445L76.1621 14.3926C76.5176 13.8262 77.0215 13.543 77.6738 13.543C77.8848 13.543 78.0449 13.5703 78.1543 13.625V14.6328ZM80.334 20H79.25V13.6602H80.334V20ZM79.1621 11.9785C79.1621 11.8027 79.2148 11.6543 79.3203 11.5332C79.4297 11.4121 79.5898 11.3516 79.8008 11.3516C80.0117 11.3516 80.1719 11.4121 80.2812 11.5332C80.3906 11.6543 80.4453 11.8027 80.4453 11.9785C80.4453 12.1543 80.3906 12.3008 80.2812 12.418C80.1719 12.5352 80.0117 12.5938 79.8008 12.5938C79.5898 12.5938 79.4297 12.5352 79.3203 12.418C79.2148 12.3008 79.1621 12.1543 79.1621 11.9785ZM87.4297 16.9004C87.4297 17.8652 87.209 18.6426 86.7676 19.2324C86.3262 19.8223 85.7285 20.1172 84.9746 20.1172C84.2051 20.1172 83.5996 19.873 83.1582 19.3848V22.4375H82.0742V13.6602H83.0645L83.1172 14.3633C83.5586 13.8164 84.1719 13.543 84.957 13.543C85.7188 13.543 86.3203 13.8301 86.7617 14.4043C87.207 14.9785 87.4297 15.7773 87.4297 16.8008V16.9004ZM86.3457 16.7773C86.3457 16.0625 86.1934 15.498 85.8887 15.084C85.584 14.6699 85.166 14.4629 84.6348 14.4629C83.9785 14.4629 83.4863 14.7539 83.1582 15.3359V18.3652C83.4824 18.9434 83.9785 19.2324 84.6465 19.2324C85.166 19.2324 85.5781 19.0273 85.8828 18.6172C86.1914 18.2031 86.3457 17.5898 86.3457 16.7773ZM90.2832 12.125V13.6602H91.4668V14.498H90.2832V18.4297C90.2832 18.6836 90.3359 18.875 90.4414 19.0039C90.5469 19.1289 90.7266 19.1914 90.9805 19.1914C91.1055 19.1914 91.2773 19.168 91.4961 19.1211V20C91.2109 20.0781 90.9336 20.1172 90.6641 20.1172C90.1797 20.1172 89.8145 19.9707 89.5684 19.6777C89.3223 19.3848 89.1992 18.9688 89.1992 18.4297V14.498H88.0449V13.6602H89.1992V12.125H90.2832Z" fill="#22272E"/>
</g>
<defs>
<filter id="filter0_d" x="0.5" y="0" width="102" height="36" filterUnits="userSpaceOnUse" color-interpolation-filters="sRGB">
<feFlood flood-opacity="0" result="BackgroundImageFix"/>
<feColorMatrix in="SourceAlpha" type="matrix" values="0 0 0 0 0 0 0 0 0 0 0 0 0 0 0 0 0 0 127 0" result="hardAlpha"/>
<feOffset dy="2"/>
<feGaussianBlur stdDeviation="1"/>
<feComposite in2="hardAlpha" operator="out"/>
<feColorMatrix type="matrix" values="0 0 0 0 0 0 0 0 0 0 0 0 0 0 0 0 0 0 0.25 0"/>
<feBlend mode="normal" in2="BackgroundImageFix" result="effect1_dropShadow"/>
<feBlend mode="normal" in="SourceGraphic" in2="effect1_dropShadow" result="shape"/>
</filter>
</defs>
</svg>
