<svg width="132" height="45" viewBox="0 0 132 45" fill="none" xmlns="http://www.w3.org/2000/svg">
<path d="M1 4C1 2.34314 2.34315 1 4 1H128C129.657 1 131 2.34315 131 4V41C131 42.6569 129.657 44 128 44H4C2.34315 44 1 42.6569 1 41V4Z" fill="#22272E"/>
<path d="M16.125 14.625V30.375H31.875V14.625H16.125ZM24.6964 26.9083C24.6964 28.4411 23.7964 29.1409 22.4852 29.1409C21.3006 29.1409 20.6149 28.5294 20.2633 27.7875L21.4693 27.0596C21.7016 27.4708 21.9126 27.819 22.4222 27.819C22.9071 27.819 23.2164 27.6289 23.2164 26.8875V21.8565H24.6964V26.9083ZM28.1974 29.1409C26.8226 29.1409 25.9333 28.4873 25.5007 27.6289L26.7068 26.9331C27.0234 27.45 27.438 27.8331 28.1659 27.8331C28.7773 27.8331 29.1716 27.5271 29.1716 27.1018C29.1716 26.5956 28.7706 26.4161 28.0922 26.1174L27.7232 25.9594C26.6544 25.506 25.9479 24.9328 25.9479 23.7268C25.9479 22.6159 26.7951 21.7721 28.1136 21.7721C29.0557 21.7721 29.7308 22.0989 30.2162 22.9568L29.0631 23.6953C28.8099 23.2419 28.5354 23.0625 28.1102 23.0625C27.6782 23.0625 27.4037 23.337 27.4037 23.6953C27.4037 24.1386 27.6782 24.3174 28.3144 24.5953L28.6834 24.7534C29.9423 25.2911 30.6487 25.8435 30.6487 27.0804C30.6487 28.4096 29.6008 29.1403 28.1979 29.1403L28.1974 29.1409Z" fill="#ADBAC7"/>
<path d="M49.3359 24.9844C49.3359 26.3125 49.0547 27.3464 48.4922 28.0859C47.9297 28.8203 47.1771 29.1875 46.2344 29.1875C45.7969 29.1875 45.4375 29.125 45.1562 29V27.7031C45.4375 27.9062 45.8021 28.0078 46.25 28.0078C47.4323 28.0078 48.0234 27.0052 48.0234 25V17.7969H49.3359V24.9844ZM57.5234 29H56.2422V27.75H56.2109C55.6536 28.7083 54.8333 29.1875 53.75 29.1875C52.9531 29.1875 52.3281 28.9766 51.875 28.5547C51.4271 28.1328 51.2031 27.5729 51.2031 26.875C51.2031 25.3802 52.0833 24.5104 53.8438 24.2656L56.2422 23.9297C56.2422 22.5703 55.6927 21.8906 54.5938 21.8906C53.6302 21.8906 52.7604 22.2188 51.9844 22.875V21.5625C52.7708 21.0625 53.6771 20.8125 54.7031 20.8125C56.5833 20.8125 57.5234 21.8073 57.5234 23.7969V29ZM56.2422 24.9531L54.3125 25.2188C53.7188 25.3021 53.2708 25.4505 52.9688 25.6641C52.6667 25.8724 52.5156 26.2448 52.5156 26.7812C52.5156 27.1719 52.6536 27.4922 52.9297 27.7422C53.2109 27.987 53.5833 28.1094 54.0469 28.1094C54.6823 28.1094 55.2057 27.888 55.6172 27.4453C56.0339 26.9974 56.2422 26.4323 56.2422 25.75V24.9531ZM66.2266 21L63.0391 29H61.7812L58.75 21H60.1562L62.1875 26.8125C62.3385 27.2396 62.4323 27.612 62.4688 27.9297H62.5C62.5521 27.5286 62.6354 27.1667 62.75 26.8438L64.875 21H66.2266ZM73.0391 29H71.7578V27.75H71.7266C71.1693 28.7083 70.349 29.1875 69.2656 29.1875C68.4688 29.1875 67.8438 28.9766 67.3906 28.5547C66.9427 28.1328 66.7188 27.5729 66.7188 26.875C66.7188 25.3802 67.599 24.5104 69.3594 24.2656L71.7578 23.9297C71.7578 22.5703 71.2083 21.8906 70.1094 21.8906C69.1458 21.8906 68.276 22.2188 67.5 22.875V21.5625C68.2865 21.0625 69.1927 20.8125 70.2188 20.8125C72.099 20.8125 73.0391 21.8073 73.0391 23.7969V29ZM71.7578 24.9531L69.8281 25.2188C69.2344 25.3021 68.7865 25.4505 68.4844 25.6641C68.1823 25.8724 68.0312 26.2448 68.0312 26.7812C68.0312 27.1719 68.1693 27.4922 68.4453 27.7422C68.7266 27.987 69.099 28.1094 69.5625 28.1094C70.1979 28.1094 70.7214 27.888 71.1328 27.4453C71.5495 26.9974 71.7578 26.4323 71.7578 25.75V24.9531ZM74.9688 28.7109V27.3359C75.6667 27.8516 76.4349 28.1094 77.2734 28.1094C78.3984 28.1094 78.9609 27.7344 78.9609 26.9844C78.9609 26.7708 78.9115 26.5911 78.8125 26.4453C78.7188 26.2943 78.5885 26.1615 78.4219 26.0469C78.2604 25.9323 78.0677 25.8307 77.8438 25.7422C77.625 25.6484 77.388 25.5521 77.1328 25.4531C76.7786 25.3125 76.4661 25.1719 76.1953 25.0312C75.9297 24.8854 75.7057 24.724 75.5234 24.5469C75.3464 24.3646 75.2109 24.1589 75.1172 23.9297C75.0286 23.7005 74.9844 23.4323 74.9844 23.125C74.9844 22.75 75.0703 22.4193 75.2422 22.1328C75.4141 21.8411 75.6432 21.599 75.9297 21.4062C76.2161 21.2083 76.5417 21.0599 76.9062 20.9609C77.276 20.862 77.6562 20.8125 78.0469 20.8125C78.7396 20.8125 79.3594 20.9323 79.9062 21.1719V22.4688C79.3177 22.0833 78.6406 21.8906 77.875 21.8906C77.6354 21.8906 77.4193 21.9193 77.2266 21.9766C77.0339 22.0286 76.8672 22.1042 76.7266 22.2031C76.5911 22.3021 76.4844 22.4219 76.4062 22.5625C76.3333 22.6979 76.2969 22.849 76.2969 23.0156C76.2969 23.224 76.3333 23.3984 76.4062 23.5391C76.4844 23.6797 76.5964 23.8047 76.7422 23.9141C76.888 24.0234 77.0651 24.1224 77.2734 24.2109C77.4818 24.2995 77.7188 24.3958 77.9844 24.5C78.3385 24.6354 78.6562 24.776 78.9375 24.9219C79.2188 25.0625 79.4583 25.224 79.6562 25.4062C79.8542 25.5833 80.0052 25.7891 80.1094 26.0234C80.2188 26.2578 80.2734 26.5365 80.2734 26.8594C80.2734 27.2552 80.1849 27.599 80.0078 27.8906C79.8359 28.1823 79.6042 28.4245 79.3125 28.6172C79.0208 28.8099 78.6849 28.9531 78.3047 29.0469C77.9245 29.1406 77.526 29.1875 77.1094 29.1875C76.2865 29.1875 75.5729 29.0286 74.9688 28.7109ZM87.7031 28.6328C87.0885 29.0026 86.3594 29.1875 85.5156 29.1875C84.375 29.1875 83.4531 28.8177 82.75 28.0781C82.0521 27.3333 81.7031 26.3698 81.7031 25.1875C81.7031 23.8698 82.0807 22.8125 82.8359 22.0156C83.5911 21.2135 84.599 20.8125 85.8594 20.8125C86.5625 20.8125 87.1823 20.9427 87.7188 21.2031V22.5156C87.125 22.099 86.4896 21.8906 85.8125 21.8906C84.9948 21.8906 84.3229 22.1849 83.7969 22.7734C83.276 23.3568 83.0156 24.125 83.0156 25.0781C83.0156 26.0156 83.2604 26.7552 83.75 27.2969C84.2448 27.8385 84.9062 28.1094 85.7344 28.1094C86.4323 28.1094 87.0885 27.8776 87.7031 27.4141V28.6328ZM93.8125 22.2969C93.5885 22.125 93.2656 22.0391 92.8438 22.0391C92.2969 22.0391 91.8385 22.2969 91.4688 22.8125C91.1042 23.3281 90.9219 24.0312 90.9219 24.9219V29H89.6406V21H90.9219V22.6484H90.9531C91.1354 22.0859 91.4141 21.6484 91.7891 21.3359C92.1641 21.0182 92.5833 20.8594 93.0469 20.8594C93.3802 20.8594 93.6354 20.8958 93.8125 20.9688V22.2969ZM95.8594 18.9688C95.6302 18.9688 95.4349 18.8906 95.2734 18.7344C95.112 18.5781 95.0312 18.3802 95.0312 18.1406C95.0312 17.901 95.112 17.7031 95.2734 17.5469C95.4349 17.3854 95.6302 17.3047 95.8594 17.3047C96.0938 17.3047 96.2917 17.3854 96.4531 17.5469C96.6198 17.7031 96.7031 17.901 96.7031 18.1406C96.7031 18.3698 96.6198 18.5651 96.4531 18.7266C96.2917 18.888 96.0938 18.9688 95.8594 18.9688ZM96.4844 29H95.2031V21H96.4844V29ZM100.391 27.8438H100.359V32.6797H99.0781V21H100.359V22.4062H100.391C101.021 21.3438 101.943 20.8125 103.156 20.8125C104.188 20.8125 104.992 21.1719 105.57 21.8906C106.148 22.6042 106.438 23.5625 106.438 24.7656C106.438 26.1042 106.112 27.1771 105.461 27.9844C104.81 28.7865 103.919 29.1875 102.789 29.1875C101.753 29.1875 100.953 28.7396 100.391 27.8438ZM100.359 24.6172V25.7344C100.359 26.3958 100.573 26.9583 101 27.4219C101.432 27.8802 101.979 28.1094 102.641 28.1094C103.417 28.1094 104.023 27.8125 104.461 27.2188C104.904 26.625 105.125 25.7995 105.125 24.7422C105.125 23.8516 104.919 23.1536 104.508 22.6484C104.096 22.1432 103.539 21.8906 102.836 21.8906C102.091 21.8906 101.492 22.151 101.039 22.6719C100.586 23.1875 100.359 23.8359 100.359 24.6172ZM112.195 28.9219C111.893 29.0885 111.495 29.1719 111 29.1719C109.599 29.1719 108.898 28.3906 108.898 26.8281V22.0938H107.523V21H108.898V19.0469L110.18 18.6328V21H112.195V22.0938H110.18V26.6016C110.18 27.138 110.271 27.5208 110.453 27.75C110.635 27.9792 110.938 28.0938 111.359 28.0938C111.682 28.0938 111.961 28.0052 112.195 27.8281V28.9219Z" fill="#ADBAC7"/>
<path d="M4 2H128V0H4V2ZM130 4V41H132V4H130ZM128 43H4V45H128V43ZM2 41V4H0V41H2ZM4 43C2.89543 43 2 42.1046 2 41H0C0 43.2091 1.79087 45 4 45V43ZM130 41C130 42.1046 129.105 43 128 43V45C130.209 45 132 43.2091 132 41H130ZM128 2C129.105 2 130 2.89543 130 4H132C132 1.79086 130.209 0 128 0V2ZM4 0C1.79086 0 0 1.79086 0 4H2C2 2.89543 2.89543 2 4 2V0Z" fill="#444C56"/>
</svg>
