<svg width="112" height="39" viewBox="0 0 112 39" fill="none" xmlns="http://www.w3.org/2000/svg">
<path d="M1 4C1 2.34315 2.34315 1 4 1H108C109.657 1 111 2.34315 111 4V35C111 36.6569 109.657 38 108 38H4C2.34314 38 1 36.6569 1 35V4Z" fill="#22272E"/>
<path d="M12.125 11.625V27.375H27.875V11.625H12.125ZM20.6964 23.9083C20.6964 25.4411 19.7964 26.1409 18.4852 26.1409C17.3006 26.1409 16.6149 25.5294 16.2633 24.7875L17.4693 24.0596C17.7016 24.4708 17.9126 24.819 18.4222 24.819C18.9071 24.819 19.2164 24.6289 19.2164 23.8875V18.8565H20.6964V23.9083ZM24.1974 26.1409C22.8226 26.1409 21.9333 25.4873 21.5007 24.6289L22.7068 23.9331C23.0234 24.45 23.438 24.8331 24.1659 24.8331C24.7773 24.8331 25.1716 24.5271 25.1716 24.1018C25.1716 23.5956 24.7706 23.4161 24.0922 23.1174L23.7232 22.9594C22.6544 22.506 21.9479 21.9328 21.9479 20.7268C21.9479 19.6159 22.7951 18.7721 24.1136 18.7721C25.0557 18.7721 25.7308 19.0989 26.2162 19.9568L25.0631 20.6953C24.8099 20.2419 24.5354 20.0625 24.1102 20.0625C23.6782 20.0625 23.4037 20.337 23.4037 20.6953C23.4037 21.1386 23.6782 21.3174 24.3144 21.5953L24.6834 21.7534C25.9423 22.2911 26.6487 22.8435 26.6487 24.0804C26.6487 25.4096 25.6008 26.1403 24.1979 26.1403L24.1974 26.1409Z" fill="#ADBAC7"/>
<path d="M44.7939 21.4863C44.7939 22.6484 44.5479 23.5531 44.0557 24.2002C43.5635 24.8428 42.9049 25.1641 42.0801 25.1641C41.6973 25.1641 41.3828 25.1094 41.1367 25V23.8652C41.3828 24.043 41.7018 24.1318 42.0938 24.1318C43.1283 24.1318 43.6455 23.2546 43.6455 21.5V15.1973H44.7939V21.4863ZM51.958 25H50.8369V23.9062H50.8096C50.3219 24.7448 49.6042 25.1641 48.6562 25.1641C47.959 25.1641 47.4121 24.9795 47.0156 24.6104C46.6237 24.2412 46.4277 23.7513 46.4277 23.1406C46.4277 21.8327 47.1979 21.0716 48.7383 20.8574L50.8369 20.5635C50.8369 19.374 50.3561 18.7793 49.3945 18.7793C48.5514 18.7793 47.7904 19.0664 47.1113 19.6406V18.4922C47.7995 18.0547 48.5924 17.8359 49.4902 17.8359C51.1354 17.8359 51.958 18.7064 51.958 20.4473V25ZM50.8369 21.459L49.1484 21.6914C48.6289 21.7643 48.237 21.8942 47.9727 22.0811C47.7083 22.2633 47.5762 22.5892 47.5762 23.0586C47.5762 23.4004 47.6969 23.6807 47.9385 23.8994C48.1846 24.1136 48.5104 24.2207 48.916 24.2207C49.472 24.2207 49.93 24.027 50.29 23.6396C50.6546 23.2477 50.8369 22.7533 50.8369 22.1562V21.459ZM59.5732 18L56.7842 25H55.6836L53.0312 18H54.2617L56.0391 23.0859C56.1712 23.4596 56.2533 23.7855 56.2852 24.0635H56.3125C56.3581 23.7126 56.431 23.3958 56.5312 23.1133L58.3906 18H59.5732ZM65.5342 25H64.4131V23.9062H64.3857C63.8981 24.7448 63.1803 25.1641 62.2324 25.1641C61.5352 25.1641 60.9883 24.9795 60.5918 24.6104C60.1999 24.2412 60.0039 23.7513 60.0039 23.1406C60.0039 21.8327 60.7741 21.0716 62.3145 20.8574L64.4131 20.5635C64.4131 19.374 63.9323 18.7793 62.9707 18.7793C62.1276 18.7793 61.3665 19.0664 60.6875 19.6406V18.4922C61.3757 18.0547 62.1686 17.8359 63.0664 17.8359C64.7116 17.8359 65.5342 18.7064 65.5342 20.4473V25ZM64.4131 21.459L62.7246 21.6914C62.2051 21.7643 61.8132 21.8942 61.5488 22.0811C61.2845 22.2633 61.1523 22.5892 61.1523 23.0586C61.1523 23.4004 61.2731 23.6807 61.5146 23.8994C61.7607 24.1136 62.0866 24.2207 62.4922 24.2207C63.0482 24.2207 63.5062 24.027 63.8662 23.6396C64.2308 23.2477 64.4131 22.7533 64.4131 22.1562V21.459ZM67.2227 24.7471V23.5439C67.8333 23.9951 68.5055 24.2207 69.2393 24.2207C70.2236 24.2207 70.7158 23.8926 70.7158 23.2363C70.7158 23.0495 70.6725 22.8923 70.5859 22.7646C70.5039 22.6325 70.39 22.5163 70.2441 22.416C70.1029 22.3158 69.9342 22.2269 69.7383 22.1494C69.5469 22.0674 69.3395 21.9831 69.1162 21.8965C68.8063 21.7734 68.5329 21.6504 68.2959 21.5273C68.0635 21.3997 67.8675 21.2585 67.708 21.1035C67.5531 20.944 67.4346 20.764 67.3525 20.5635C67.2751 20.363 67.2363 20.1283 67.2363 19.8594C67.2363 19.5312 67.3115 19.2419 67.4619 18.9912C67.6123 18.736 67.8128 18.5241 68.0635 18.3555C68.3141 18.1823 68.599 18.0524 68.918 17.9658C69.2415 17.8792 69.5742 17.8359 69.916 17.8359C70.5221 17.8359 71.0645 17.9408 71.543 18.1504V19.2852C71.028 18.9479 70.4355 18.7793 69.7656 18.7793C69.556 18.7793 69.3669 18.8044 69.1982 18.8545C69.0296 18.9001 68.8838 18.9661 68.7607 19.0527C68.6423 19.1393 68.5488 19.2441 68.4805 19.3672C68.4167 19.4857 68.3848 19.6178 68.3848 19.7637C68.3848 19.946 68.4167 20.0986 68.4805 20.2217C68.5488 20.3447 68.6468 20.4541 68.7744 20.5498C68.902 20.6455 69.057 20.7321 69.2393 20.8096C69.4215 20.887 69.6289 20.9714 69.8613 21.0625C70.1712 21.181 70.4492 21.304 70.6953 21.4316C70.9414 21.5547 71.151 21.696 71.3242 21.8555C71.4974 22.0104 71.6296 22.1904 71.7207 22.3955C71.8164 22.6006 71.8643 22.8444 71.8643 23.127C71.8643 23.4733 71.7868 23.7741 71.6318 24.0293C71.4814 24.2845 71.2786 24.4964 71.0234 24.665C70.7682 24.8337 70.4743 24.959 70.1416 25.041C69.8089 25.123 69.4603 25.1641 69.0957 25.1641C68.3757 25.1641 67.7513 25.0251 67.2227 24.7471ZM78.3652 24.6787C77.8275 25.0023 77.1895 25.1641 76.4512 25.1641C75.4531 25.1641 74.6465 24.8405 74.0312 24.1934C73.4206 23.5417 73.1152 22.6986 73.1152 21.6641C73.1152 20.5111 73.4456 19.5859 74.1064 18.8887C74.7673 18.1868 75.6491 17.8359 76.752 17.8359C77.3672 17.8359 77.9095 17.9499 78.3789 18.1777V19.3262C77.8594 18.9616 77.3034 18.7793 76.7109 18.7793C75.9954 18.7793 75.4076 19.0368 74.9473 19.5518C74.4915 20.0622 74.2637 20.7344 74.2637 21.5684C74.2637 22.3887 74.4779 23.0358 74.9062 23.5098C75.3392 23.9837 75.918 24.2207 76.6426 24.2207C77.2533 24.2207 77.8275 24.0179 78.3652 23.6123V24.6787ZM83.7109 19.1348C83.515 18.9844 83.2324 18.9092 82.8633 18.9092C82.3848 18.9092 81.9837 19.1348 81.6602 19.5859C81.3411 20.0371 81.1816 20.6523 81.1816 21.4316V25H80.0605V18H81.1816V19.4424H81.209C81.3685 18.9502 81.6123 18.5674 81.9404 18.2939C82.2686 18.016 82.6354 17.877 83.041 17.877C83.3327 17.877 83.556 17.9089 83.7109 17.9727V19.1348ZM85.502 16.2227C85.3014 16.2227 85.1305 16.1543 84.9893 16.0176C84.848 15.8809 84.7773 15.7077 84.7773 15.498C84.7773 15.2884 84.848 15.1152 84.9893 14.9785C85.1305 14.8372 85.3014 14.7666 85.502 14.7666C85.707 14.7666 85.8802 14.8372 86.0215 14.9785C86.1673 15.1152 86.2402 15.2884 86.2402 15.498C86.2402 15.6986 86.1673 15.8695 86.0215 16.0107C85.8802 16.152 85.707 16.2227 85.502 16.2227ZM86.0488 25H84.9277V18H86.0488V25ZM89.4668 23.9883H89.4395V28.2197H88.3184V18H89.4395V19.2305H89.4668C90.0182 18.3008 90.8249 17.8359 91.8867 17.8359C92.7891 17.8359 93.4932 18.1504 93.999 18.7793C94.5049 19.4036 94.7578 20.2422 94.7578 21.2949C94.7578 22.4661 94.473 23.4049 93.9033 24.1113C93.3337 24.8132 92.5544 25.1641 91.5654 25.1641C90.6585 25.1641 89.959 24.7721 89.4668 23.9883ZM89.4395 21.165V22.1426C89.4395 22.7214 89.6263 23.2135 90 23.6191C90.3783 24.0202 90.8568 24.2207 91.4355 24.2207C92.1146 24.2207 92.6455 23.9609 93.0283 23.4414C93.4157 22.9219 93.6094 22.1995 93.6094 21.2744C93.6094 20.4951 93.4294 19.8844 93.0693 19.4424C92.7093 19.0003 92.2217 18.7793 91.6064 18.7793C90.9548 18.7793 90.4307 19.0072 90.0342 19.4629C89.6377 19.9141 89.4395 20.4814 89.4395 21.165ZM99.7959 24.9316C99.5316 25.0775 99.1829 25.1504 98.75 25.1504C97.5241 25.1504 96.9111 24.4668 96.9111 23.0996V18.957H95.708V18H96.9111V16.291L98.0322 15.9287V18H99.7959V18.957H98.0322V22.9014C98.0322 23.3708 98.112 23.7057 98.2715 23.9062C98.431 24.1068 98.6953 24.207 99.0645 24.207C99.347 24.207 99.5908 24.1296 99.7959 23.9746V24.9316Z" fill="#ADBAC7"/>
<path d="M4 2H108V0H4V2ZM110 4V35H112V4H110ZM108 37H4V39H108V37ZM2 35V4H0V35H2ZM4 37C2.89543 37 2 36.1046 2 35H0C0 37.2091 1.79086 39 4 39V37ZM110 35C110 36.1046 109.105 37 108 37V39C110.209 39 112 37.2091 112 35H110ZM108 2C109.105 2 110 2.89543 110 4H112C112 1.79086 110.209 0 108 0V2ZM4 0C1.79086 0 0 1.79086 0 4H2C2 2.89543 2.89543 2 4 2V0Z" fill="#444C56"/>
</svg>
