<svg xmlns="http://www.w3.org/2000/svg" width="165" height="56" fill="none"><rect width="147" height="48" x="9" y="4" fill="#FFEBEE" rx="4"/><path fill="#F5DE19" d="M29.5 17.5h21v21h-21v-21Z"/><path fill="#000" d="M43.607 33.906a2.15 2.15 0 0 0 1.95 1.2c.817 0 1.34-.409 1.34-.975 0-.675-.537-.916-1.437-1.31l-.494-.212c-1.425-.606-2.37-1.366-2.37-2.973 0-1.48 1.125-2.607 2.89-2.607a2.916 2.916 0 0 1 2.807 1.58l-1.543.987a1.342 1.342 0 0 0-1.267-.846.858.858 0 0 0-.944.846c0 .592.367.832 1.213 1.2l.494.212c1.677.719 2.625 1.451 2.625 3.1 0 1.776-1.396 2.75-3.27 2.75a3.792 3.792 0 0 1-3.596-2.019l1.602-.933Zm-6.972.171c.31.55.592 1.015 1.27 1.015.648 0 1.058-.253 1.058-1.24v-6.71h1.973v6.737c0 2.043-1.2 2.973-2.947 2.973a3.064 3.064 0 0 1-2.96-1.8l1.606-.975ZM72.336 30.484c0 1.328-.281 2.362-.844 3.102-.562.734-1.315 1.102-2.258 1.102-.437 0-.796-.063-1.078-.188v-1.297c.281.203.646.305 1.094.305 1.182 0 1.773-1.003 1.773-3.008v-7.203h1.313v7.187Zm8.406 4.016h-1.281v-1.25h-.031c-.558.958-1.378 1.438-2.461 1.438-.797 0-1.422-.211-1.875-.633-.448-.422-.672-.982-.672-1.68 0-1.495.88-2.365 2.64-2.61l2.399-.335c0-1.36-.55-2.04-1.648-2.04-.964 0-1.834.329-2.61.985v-1.313c.787-.5 1.693-.75 2.719-.75 1.88 0 2.82.995 2.82 2.985V34.5Zm-1.281-4.047-1.93.266c-.594.083-1.041.232-1.344.445-.302.208-.453.58-.453 1.117 0 .39.138.711.414.961.282.245.654.367 1.118.367.635 0 1.158-.221 1.57-.664.417-.448.625-1.013.625-1.695v-.797Zm9.984-3.953-3.187 8H85l-3.031-8h1.406l2.031 5.813c.151.427.245.799.281 1.117h.032c.052-.401.135-.763.25-1.086l2.125-5.844h1.351Zm7.11 8h-1.282v-1.25h-.03c-.558.958-1.378 1.438-2.462 1.438-.797 0-1.422-.211-1.875-.633-.448-.422-.672-.982-.672-1.68 0-1.495.88-2.365 2.641-2.61l2.398-.335c0-1.36-.549-2.04-1.648-2.04-.963 0-1.833.329-2.61.985v-1.313c.787-.5 1.693-.75 2.72-.75 1.88 0 2.82.995 2.82 2.985V34.5Zm-1.282-4.047-1.93.266c-.593.083-1.04.232-1.343.445-.302.208-.453.58-.453 1.117 0 .39.138.711.414.961.281.245.654.367 1.117.367.635 0 1.159-.221 1.57-.664.417-.448.625-1.013.625-1.695v-.797Zm3.211 3.758v-1.375a3.791 3.791 0 0 0 2.305.773c1.125 0 1.688-.375 1.688-1.125a.938.938 0 0 0-.149-.539 1.36 1.36 0 0 0-.39-.398 2.749 2.749 0 0 0-.579-.305c-.218-.094-.455-.19-.711-.289-.354-.14-.666-.281-.937-.422a3.093 3.093 0 0 1-.672-.484 1.926 1.926 0 0 1-.406-.617 2.228 2.228 0 0 1-.133-.805c0-.375.086-.706.258-.992.172-.292.4-.534.687-.727.287-.198.612-.346.977-.445.37-.099.75-.148 1.14-.148.693 0 1.313.12 1.86.359v1.297c-.589-.386-1.266-.578-2.031-.578-.24 0-.456.028-.649.086a1.575 1.575 0 0 0-.5.226 1.114 1.114 0 0 0-.32.36.94.94 0 0 0-.11.453c0 .208.037.382.11.523.078.14.19.266.336.375.146.11.323.208.531.297.208.088.445.185.711.289.354.135.672.276.953.422.281.14.521.302.719.484.198.177.349.383.453.617.109.235.164.513.164.836 0 .396-.088.74-.266 1.032a2.191 2.191 0 0 1-.695.726 3.2 3.2 0 0 1-1.008.43c-.38.094-.778.14-1.195.14-.823 0-1.537-.158-2.14-.476Zm12.735-.078c-.615.37-1.344.554-2.188.554-1.14 0-2.062-.37-2.765-1.109-.698-.745-1.047-1.708-1.047-2.89 0-1.318.377-2.375 1.133-3.172.755-.802 1.763-1.203 3.023-1.203.703 0 1.323.13 1.859.39v1.313c-.593-.417-1.229-.625-1.906-.625-.818 0-1.489.294-2.016.882-.52.584-.781 1.352-.781 2.305 0 .938.245 1.677.735 2.219.494.542 1.156.812 1.984.812.698 0 1.354-.231 1.969-.695v1.219Zm6.109-6.336c-.224-.172-.547-.258-.969-.258-.547 0-1.005.258-1.375.773-.364.516-.546 1.22-.546 2.11V34.5h-1.282v-8h1.282v1.648h.031c.182-.562.461-1 .836-1.312a1.896 1.896 0 0 1 1.257-.477c.334 0 .589.037.766.11v1.328Zm2.047-3.328a.813.813 0 0 1-.828-.828c0-.24.081-.438.242-.594a.8.8 0 0 1 .586-.242.81.81 0 0 1 .594.242.78.78 0 0 1 .25.594c0 .229-.084.424-.25.586a.81.81 0 0 1-.594.242ZM120 34.5h-1.281v-8H120v8Zm3.906-1.156h-.031v4.836h-1.281V26.5h1.281v1.406h.031c.63-1.062 1.552-1.593 2.766-1.593 1.031 0 1.836.359 2.414 1.078.578.713.867 1.672.867 2.875 0 1.338-.325 2.411-.976 3.218-.651.802-1.542 1.203-2.672 1.203-1.037 0-1.836-.447-2.399-1.343Zm-.031-3.227v1.117c0 .662.214 1.224.641 1.688.432.458.979.687 1.64.687.776 0 1.383-.297 1.821-.89.442-.594.664-1.42.664-2.477 0-.89-.206-1.588-.618-2.094-.411-.505-.968-.757-1.671-.757-.745 0-1.344.26-1.797.78-.453.517-.68 1.165-.68 1.946Zm11.836 4.305c-.302.167-.701.25-1.195.25-1.401 0-2.102-.781-2.102-2.344v-4.734h-1.375V26.5h1.375v-1.953l1.281-.414V26.5h2.016v1.094h-2.016v4.508c0 .536.091.919.274 1.148.182.23.484.344.906.344.323 0 .602-.089.836-.266v1.094Z"/><rect width="147" height="48" x="9" y="4" stroke="#F44336" stroke-width="2" rx="4"/></svg>