<svg width="94" height="28" viewBox="0 0 94 28" fill="none" xmlns="http://www.w3.org/2000/svg">
<g filter="url(#filter0_d)">
<path d="M2.5 5C2.5 2.23858 4.73858 0 7.5 0H86.5C89.2614 0 91.5 2.23858 91.5 5V19C91.5 21.7614 89.2614 24 86.5 24H7.5C4.73858 24 2.5 21.7614 2.5 19V5Z" fill="white"/>
<path d="M8.625 4.125H24.375V19.875H8.625V4.125Z" fill="#F5DE19"/>
<path d="M19.2051 16.4297C19.3393 16.7023 19.5477 16.9314 19.8065 17.0906C20.0653 17.2499 20.3638 17.3327 20.6676 17.3297C21.2807 17.3297 21.6727 17.0231 21.6727 16.5984C21.6727 16.0922 21.27 15.9111 20.595 15.6157L20.2249 15.4571C19.1561 15.0021 18.4474 14.4322 18.4474 13.2274C18.4474 12.1176 19.2911 11.2721 20.6147 11.2721C21.0431 11.2412 21.4712 11.3371 21.8455 11.5478C22.2199 11.7586 22.5238 12.0749 22.7196 12.4573L21.5625 13.197C21.4871 13.0074 21.3559 12.8452 21.1862 12.7319C21.0166 12.6185 20.8165 12.5595 20.6124 12.5625C20.5234 12.5536 20.4335 12.5633 20.3485 12.5911C20.2635 12.6188 20.1851 12.664 20.1185 12.7237C20.0519 12.7834 19.9984 12.8563 19.9615 12.9378C19.9246 13.0193 19.9051 13.1075 19.9042 13.197C19.9042 13.6408 20.1793 13.8208 20.8144 14.097L21.1845 14.2556C22.4422 14.7951 23.1532 15.3446 23.1532 16.5804C23.1532 17.913 22.1064 18.6431 20.7007 18.6431C20.153 18.678 19.6069 18.5537 19.1283 18.2851C18.6497 18.0165 18.2591 17.6151 18.0036 17.1294L19.2051 16.4297ZM13.9766 16.5579C14.2089 16.9702 14.4204 17.319 14.9289 17.319C15.4149 17.319 15.7221 17.1289 15.7221 16.3892V11.3565H17.202V16.4089C17.202 17.9411 16.302 18.6386 14.9919 18.6386C14.5289 18.6639 14.069 18.5485 13.6727 18.3076C13.2764 18.0666 12.9624 17.7114 12.7717 17.2886L13.9766 16.5579Z" fill="black"/>
<path d="M35.0645 7.46875H36.1953V13.5098C36.1953 14.3262 35.9492 14.9648 35.457 15.4258C34.9688 15.8867 34.3164 16.1172 33.5 16.1172C32.6523 16.1172 31.9922 15.9004 31.5195 15.4668C31.0469 15.0332 30.8105 14.4258 30.8105 13.6445H31.9355C31.9355 14.1328 32.0684 14.5137 32.334 14.7871C32.6035 15.0605 32.9922 15.1973 33.5 15.1973C33.9648 15.1973 34.3398 15.0508 34.625 14.7578C34.9141 14.4648 35.0605 14.0547 35.0645 13.5273V7.46875ZM41.8555 16C41.793 15.875 41.7422 15.6523 41.7031 15.332C41.1992 15.8555 40.5977 16.1172 39.8984 16.1172C39.2734 16.1172 38.7598 15.9414 38.3574 15.5898C37.959 15.2344 37.7598 14.7852 37.7598 14.2422C37.7598 13.582 38.0098 13.0703 38.5098 12.707C39.0137 12.3398 39.7207 12.1562 40.6309 12.1562H41.6855V11.6582C41.6855 11.2793 41.5723 10.9785 41.3457 10.7559C41.1191 10.5293 40.7852 10.416 40.3438 10.416C39.957 10.416 39.6328 10.5137 39.3711 10.709C39.1094 10.9043 38.9785 11.1406 38.9785 11.418H37.8887C37.8887 11.1016 38 10.7969 38.2227 10.5039C38.4492 10.207 38.7539 9.97266 39.1367 9.80078C39.5234 9.62891 39.9473 9.54297 40.4082 9.54297C41.1387 9.54297 41.7109 9.72656 42.125 10.0938C42.5391 10.457 42.7539 10.959 42.7695 11.5996V14.5176C42.7695 15.0996 42.8438 15.5625 42.9922 15.9062V16H41.8555ZM40.0566 15.1738C40.3965 15.1738 40.7188 15.0859 41.0234 14.9102C41.3281 14.7344 41.5488 14.5059 41.6855 14.2246V12.9238H40.8359C39.5078 12.9238 38.8438 13.3125 38.8438 14.0898C38.8438 14.4297 38.957 14.6953 39.1836 14.8867C39.4102 15.0781 39.7012 15.1738 40.0566 15.1738ZM46.4668 14.5293L48.0371 9.66016H49.1445L46.8711 16H46.0449L43.748 9.66016H44.8555L46.4668 14.5293ZM54.0078 16C53.9453 15.875 53.8945 15.6523 53.8555 15.332C53.3516 15.8555 52.75 16.1172 52.0508 16.1172C51.4258 16.1172 50.9121 15.9414 50.5098 15.5898C50.1113 15.2344 49.9121 14.7852 49.9121 14.2422C49.9121 13.582 50.1621 13.0703 50.6621 12.707C51.166 12.3398 51.873 12.1562 52.7832 12.1562H53.8379V11.6582C53.8379 11.2793 53.7246 10.9785 53.498 10.7559C53.2715 10.5293 52.9375 10.416 52.4961 10.416C52.1094 10.416 51.7852 10.5137 51.5234 10.709C51.2617 10.9043 51.1309 11.1406 51.1309 11.418H50.041C50.041 11.1016 50.1523 10.7969 50.375 10.5039C50.6016 10.207 50.9062 9.97266 51.2891 9.80078C51.6758 9.62891 52.0996 9.54297 52.5605 9.54297C53.291 9.54297 53.8633 9.72656 54.2773 10.0938C54.6914 10.457 54.9062 10.959 54.9219 11.5996V14.5176C54.9219 15.0996 54.9961 15.5625 55.1445 15.9062V16H54.0078ZM52.209 15.1738C52.5488 15.1738 52.8711 15.0859 53.1758 14.9102C53.4805 14.7344 53.7012 14.5059 53.8379 14.2246V12.9238H52.9883C51.6602 12.9238 50.9961 13.3125 50.9961 14.0898C50.9961 14.4297 51.1094 14.6953 51.3359 14.8867C51.5625 15.0781 51.8535 15.1738 52.209 15.1738ZM60.3125 14.3184C60.3125 14.0254 60.2012 13.7988 59.9785 13.6387C59.7598 13.4746 59.375 13.334 58.8242 13.2168C58.2773 13.0996 57.8418 12.959 57.5176 12.7949C57.1973 12.6309 56.959 12.4355 56.8027 12.209C56.6504 11.9824 56.5742 11.7129 56.5742 11.4004C56.5742 10.8809 56.793 10.4414 57.2305 10.082C57.6719 9.72266 58.2344 9.54297 58.918 9.54297C59.6367 9.54297 60.2188 9.72852 60.6641 10.0996C61.1133 10.4707 61.3379 10.9453 61.3379 11.5234H60.248C60.248 11.2266 60.1211 10.9707 59.8672 10.7559C59.6172 10.541 59.3008 10.4336 58.918 10.4336C58.5234 10.4336 58.2148 10.5195 57.9922 10.6914C57.7695 10.8633 57.6582 11.0879 57.6582 11.3652C57.6582 11.627 57.7617 11.8242 57.9688 11.957C58.1758 12.0898 58.5488 12.2168 59.0879 12.3379C59.6309 12.459 60.0703 12.6035 60.4062 12.7715C60.7422 12.9395 60.9902 13.1426 61.1504 13.3809C61.3145 13.6152 61.3965 13.9023 61.3965 14.2422C61.3965 14.8086 61.1699 15.2637 60.7168 15.6074C60.2637 15.9473 59.6758 16.1172 58.9531 16.1172C58.4453 16.1172 57.9961 16.0273 57.6055 15.8477C57.2148 15.668 56.9082 15.418 56.6855 15.0977C56.4668 14.7734 56.3574 14.4238 56.3574 14.0488H57.4414C57.4609 14.4121 57.6055 14.7012 57.875 14.916C58.1484 15.127 58.5078 15.2324 58.9531 15.2324C59.3633 15.2324 59.6914 15.1504 59.9375 14.9863C60.1875 14.8184 60.3125 14.5957 60.3125 14.3184ZM65.3516 15.2324C65.7383 15.2324 66.0762 15.1152 66.3652 14.8809C66.6543 14.6465 66.8145 14.3535 66.8457 14.002H67.8711C67.8516 14.3652 67.7266 14.7109 67.4961 15.0391C67.2656 15.3672 66.957 15.6289 66.5703 15.8242C66.1875 16.0195 65.7812 16.1172 65.3516 16.1172C64.4883 16.1172 63.8008 15.8301 63.2891 15.2559C62.7812 14.6777 62.5273 13.8887 62.5273 12.8887V12.707C62.5273 12.0898 62.6406 11.541 62.8672 11.0605C63.0938 10.5801 63.418 10.207 63.8398 9.94141C64.2656 9.67578 64.7676 9.54297 65.3457 9.54297C66.0566 9.54297 66.6465 9.75586 67.1152 10.1816C67.5879 10.6074 67.8398 11.1602 67.8711 11.8398H66.8457C66.8145 11.4297 66.6582 11.0938 66.377 10.832C66.0996 10.5664 65.7559 10.4336 65.3457 10.4336C64.7949 10.4336 64.3672 10.6328 64.0625 11.0312C63.7617 11.4258 63.6113 11.998 63.6113 12.748V12.9531C63.6113 13.6836 63.7617 14.2461 64.0625 14.6406C64.3633 15.0352 64.793 15.2324 65.3516 15.2324ZM72.1543 10.6328C71.9902 10.6055 71.8125 10.5918 71.6211 10.5918C70.9102 10.5918 70.4277 10.8945 70.1738 11.5V16H69.0898V9.66016H70.1445L70.1621 10.3926C70.5176 9.82617 71.0215 9.54297 71.6738 9.54297C71.8848 9.54297 72.0449 9.57031 72.1543 9.625V10.6328ZM74.334 16H73.25V9.66016H74.334V16ZM73.1621 7.97852C73.1621 7.80273 73.2148 7.6543 73.3203 7.5332C73.4297 7.41211 73.5898 7.35156 73.8008 7.35156C74.0117 7.35156 74.1719 7.41211 74.2812 7.5332C74.3906 7.6543 74.4453 7.80273 74.4453 7.97852C74.4453 8.1543 74.3906 8.30078 74.2812 8.41797C74.1719 8.53516 74.0117 8.59375 73.8008 8.59375C73.5898 8.59375 73.4297 8.53516 73.3203 8.41797C73.2148 8.30078 73.1621 8.1543 73.1621 7.97852ZM81.4297 12.9004C81.4297 13.8652 81.209 14.6426 80.7676 15.2324C80.3262 15.8223 79.7285 16.1172 78.9746 16.1172C78.2051 16.1172 77.5996 15.873 77.1582 15.3848V18.4375H76.0742V9.66016H77.0645L77.1172 10.3633C77.5586 9.81641 78.1719 9.54297 78.957 9.54297C79.7188 9.54297 80.3203 9.83008 80.7617 10.4043C81.207 10.9785 81.4297 11.7773 81.4297 12.8008V12.9004ZM80.3457 12.7773C80.3457 12.0625 80.1934 11.498 79.8887 11.084C79.584 10.6699 79.166 10.4629 78.6348 10.4629C77.9785 10.4629 77.4863 10.7539 77.1582 11.3359V14.3652C77.4824 14.9434 77.9785 15.2324 78.6465 15.2324C79.166 15.2324 79.5781 15.0273 79.8828 14.6172C80.1914 14.2031 80.3457 13.5898 80.3457 12.7773ZM84.2832 8.125V9.66016H85.4668V10.498H84.2832V14.4297C84.2832 14.6836 84.3359 14.875 84.4414 15.0039C84.5469 15.1289 84.7266 15.1914 84.9805 15.1914C85.1055 15.1914 85.2773 15.168 85.4961 15.1211V16C85.2109 16.0781 84.9336 16.1172 84.6641 16.1172C84.1797 16.1172 83.8145 15.9707 83.5684 15.6777C83.3223 15.3848 83.1992 14.9688 83.1992 14.4297V10.498H82.0449V9.66016H83.1992V8.125H84.2832Z" fill="black"/>
</g>
<defs>
<filter id="filter0_d" x="0.5" y="0" width="93" height="28" filterUnits="userSpaceOnUse" color-interpolation-filters="sRGB">
<feFlood flood-opacity="0" result="BackgroundImageFix"/>
<feColorMatrix in="SourceAlpha" type="matrix" values="0 0 0 0 0 0 0 0 0 0 0 0 0 0 0 0 0 0 127 0" result="hardAlpha"/>
<feOffset dy="2"/>
<feGaussianBlur stdDeviation="1"/>
<feComposite in2="hardAlpha" operator="out"/>
<feColorMatrix type="matrix" values="0 0 0 0 0 0 0 0 0 0 0 0 0 0 0 0 0 0 0.25 0"/>
<feBlend mode="normal" in2="BackgroundImageFix" result="effect1_dropShadow"/>
<feBlend mode="normal" in="SourceGraphic" in2="effect1_dropShadow" result="shape"/>
</filter>
</defs>
</svg>
