<svg width="101" height="34" viewBox="0 0 101 34" fill="none" xmlns="http://www.w3.org/2000/svg">
<path d="M1.5 4C1.5 2.34315 2.84315 1 4.5 1H96.5C98.1569 1 99.5 2.34315 99.5 4V30C99.5 31.6569 98.1569 33 96.5 33H4.5C2.84314 33 1.5 31.6569 1.5 30V4Z" fill="#C9D1D9"/>
<path d="M10.625 9.125H26.375V24.875H10.625V9.125Z" fill="#F5DE19"/>
<path d="M21.2051 21.4297C21.3393 21.7023 21.5477 21.9314 21.8065 22.0906C22.0653 22.2499 22.3638 22.3327 22.6676 22.3297C23.2807 22.3297 23.6727 22.0231 23.6727 21.5984C23.6727 21.0922 23.27 20.9111 22.595 20.6157L22.2249 20.4571C21.1561 20.0021 20.4474 19.4322 20.4474 18.2274C20.4474 17.1176 21.2911 16.2721 22.6147 16.2721C23.0431 16.2412 23.4712 16.3371 23.8455 16.5478C24.2199 16.7586 24.5238 17.0749 24.7196 17.4573L23.5625 18.197C23.4871 18.0074 23.3559 17.8452 23.1862 17.7319C23.0166 17.6185 22.8165 17.5595 22.6124 17.5625C22.5234 17.5536 22.4335 17.5633 22.3485 17.5911C22.2635 17.6188 22.1851 17.664 22.1185 17.7237C22.0519 17.7834 21.9984 17.8563 21.9615 17.9378C21.9246 18.0193 21.9051 18.1076 21.9042 18.197C21.9042 18.6408 22.1793 18.8208 22.8144 19.097L23.1845 19.2556C24.4422 19.7951 25.1532 20.3446 25.1532 21.5804C25.1532 22.913 24.1064 23.6431 22.7007 23.6431C22.153 23.678 21.6069 23.5537 21.1283 23.2851C20.6497 23.0165 20.2591 22.6151 20.0036 22.1294L21.2051 21.4297ZM15.9766 21.5579C16.2089 21.9703 16.4204 22.319 16.9289 22.319C17.4149 22.319 17.7221 22.1289 17.7221 21.3892V16.3565H19.202V21.4089C19.202 22.9411 18.302 23.6386 16.9919 23.6386C16.5289 23.6639 16.069 23.5485 15.6727 23.3076C15.2764 23.0666 14.9624 22.7114 14.7717 22.2886L15.9766 21.5579Z" fill="black"/>
<path d="M40.0645 12.4688H41.1953V18.5098C41.1953 19.3262 40.9492 19.9648 40.457 20.4258C39.9688 20.8867 39.3164 21.1172 38.5 21.1172C37.6523 21.1172 36.9922 20.9004 36.5195 20.4668C36.0469 20.0332 35.8105 19.4258 35.8105 18.6445H36.9355C36.9355 19.1328 37.0684 19.5137 37.334 19.7871C37.6035 20.0605 37.9922 20.1973 38.5 20.1973C38.9648 20.1973 39.3398 20.0508 39.625 19.7578C39.9141 19.4648 40.0605 19.0547 40.0645 18.5273V12.4688ZM46.8555 21C46.793 20.875 46.7422 20.6523 46.7031 20.332C46.1992 20.8555 45.5977 21.1172 44.8984 21.1172C44.2734 21.1172 43.7598 20.9414 43.3574 20.5898C42.959 20.2344 42.7598 19.7852 42.7598 19.2422C42.7598 18.582 43.0098 18.0703 43.5098 17.707C44.0137 17.3398 44.7207 17.1562 45.6309 17.1562H46.6855V16.6582C46.6855 16.2793 46.5723 15.9785 46.3457 15.7559C46.1191 15.5293 45.7852 15.416 45.3438 15.416C44.957 15.416 44.6328 15.5137 44.3711 15.709C44.1094 15.9043 43.9785 16.1406 43.9785 16.418H42.8887C42.8887 16.1016 43 15.7969 43.2227 15.5039C43.4492 15.207 43.7539 14.9727 44.1367 14.8008C44.5234 14.6289 44.9473 14.543 45.4082 14.543C46.1387 14.543 46.7109 14.7266 47.125 15.0938C47.5391 15.457 47.7539 15.959 47.7695 16.5996V19.5176C47.7695 20.0996 47.8438 20.5625 47.9922 20.9062V21H46.8555ZM45.0566 20.1738C45.3965 20.1738 45.7188 20.0859 46.0234 19.9102C46.3281 19.7344 46.5488 19.5059 46.6855 19.2246V17.9238H45.8359C44.5078 17.9238 43.8438 18.3125 43.8438 19.0898C43.8438 19.4297 43.957 19.6953 44.1836 19.8867C44.4102 20.0781 44.7012 20.1738 45.0566 20.1738ZM51.4668 19.5293L53.0371 14.6602H54.1445L51.8711 21H51.0449L48.748 14.6602H49.8555L51.4668 19.5293ZM59.0078 21C58.9453 20.875 58.8945 20.6523 58.8555 20.332C58.3516 20.8555 57.75 21.1172 57.0508 21.1172C56.4258 21.1172 55.9121 20.9414 55.5098 20.5898C55.1113 20.2344 54.9121 19.7852 54.9121 19.2422C54.9121 18.582 55.1621 18.0703 55.6621 17.707C56.166 17.3398 56.873 17.1562 57.7832 17.1562H58.8379V16.6582C58.8379 16.2793 58.7246 15.9785 58.498 15.7559C58.2715 15.5293 57.9375 15.416 57.4961 15.416C57.1094 15.416 56.7852 15.5137 56.5234 15.709C56.2617 15.9043 56.1309 16.1406 56.1309 16.418H55.041C55.041 16.1016 55.1523 15.7969 55.375 15.5039C55.6016 15.207 55.9062 14.9727 56.2891 14.8008C56.6758 14.6289 57.0996 14.543 57.5605 14.543C58.291 14.543 58.8633 14.7266 59.2773 15.0938C59.6914 15.457 59.9062 15.959 59.9219 16.5996V19.5176C59.9219 20.0996 59.9961 20.5625 60.1445 20.9062V21H59.0078ZM57.209 20.1738C57.5488 20.1738 57.8711 20.0859 58.1758 19.9102C58.4805 19.7344 58.7012 19.5059 58.8379 19.2246V17.9238H57.9883C56.6602 17.9238 55.9961 18.3125 55.9961 19.0898C55.9961 19.4297 56.1094 19.6953 56.3359 19.8867C56.5625 20.0781 56.8535 20.1738 57.209 20.1738ZM65.3125 19.3184C65.3125 19.0254 65.2012 18.7988 64.9785 18.6387C64.7598 18.4746 64.375 18.334 63.8242 18.2168C63.2773 18.0996 62.8418 17.959 62.5176 17.7949C62.1973 17.6309 61.959 17.4355 61.8027 17.209C61.6504 16.9824 61.5742 16.7129 61.5742 16.4004C61.5742 15.8809 61.793 15.4414 62.2305 15.082C62.6719 14.7227 63.2344 14.543 63.918 14.543C64.6367 14.543 65.2188 14.7285 65.6641 15.0996C66.1133 15.4707 66.3379 15.9453 66.3379 16.5234H65.248C65.248 16.2266 65.1211 15.9707 64.8672 15.7559C64.6172 15.541 64.3008 15.4336 63.918 15.4336C63.5234 15.4336 63.2148 15.5195 62.9922 15.6914C62.7695 15.8633 62.6582 16.0879 62.6582 16.3652C62.6582 16.627 62.7617 16.8242 62.9688 16.957C63.1758 17.0898 63.5488 17.2168 64.0879 17.3379C64.6309 17.459 65.0703 17.6035 65.4062 17.7715C65.7422 17.9395 65.9902 18.1426 66.1504 18.3809C66.3145 18.6152 66.3965 18.9023 66.3965 19.2422C66.3965 19.8086 66.1699 20.2637 65.7168 20.6074C65.2637 20.9473 64.6758 21.1172 63.9531 21.1172C63.4453 21.1172 62.9961 21.0273 62.6055 20.8477C62.2148 20.668 61.9082 20.418 61.6855 20.0977C61.4668 19.7734 61.3574 19.4238 61.3574 19.0488H62.4414C62.4609 19.4121 62.6055 19.7012 62.875 19.916C63.1484 20.127 63.5078 20.2324 63.9531 20.2324C64.3633 20.2324 64.6914 20.1504 64.9375 19.9863C65.1875 19.8184 65.3125 19.5957 65.3125 19.3184ZM70.3516 20.2324C70.7383 20.2324 71.0762 20.1152 71.3652 19.8809C71.6543 19.6465 71.8145 19.3535 71.8457 19.002H72.8711C72.8516 19.3652 72.7266 19.7109 72.4961 20.0391C72.2656 20.3672 71.957 20.6289 71.5703 20.8242C71.1875 21.0195 70.7812 21.1172 70.3516 21.1172C69.4883 21.1172 68.8008 20.8301 68.2891 20.2559C67.7812 19.6777 67.5273 18.8887 67.5273 17.8887V17.707C67.5273 17.0898 67.6406 16.541 67.8672 16.0605C68.0938 15.5801 68.418 15.207 68.8398 14.9414C69.2656 14.6758 69.7676 14.543 70.3457 14.543C71.0566 14.543 71.6465 14.7559 72.1152 15.1816C72.5879 15.6074 72.8398 16.1602 72.8711 16.8398H71.8457C71.8145 16.4297 71.6582 16.0938 71.377 15.832C71.0996 15.5664 70.7559 15.4336 70.3457 15.4336C69.7949 15.4336 69.3672 15.6328 69.0625 16.0312C68.7617 16.4258 68.6113 16.998 68.6113 17.748V17.9531C68.6113 18.6836 68.7617 19.2461 69.0625 19.6406C69.3633 20.0352 69.793 20.2324 70.3516 20.2324ZM77.1543 15.6328C76.9902 15.6055 76.8125 15.5918 76.6211 15.5918C75.9102 15.5918 75.4277 15.8945 75.1738 16.5V21H74.0898V14.6602H75.1445L75.1621 15.3926C75.5176 14.8262 76.0215 14.543 76.6738 14.543C76.8848 14.543 77.0449 14.5703 77.1543 14.625V15.6328ZM79.334 21H78.25V14.6602H79.334V21ZM78.1621 12.9785C78.1621 12.8027 78.2148 12.6543 78.3203 12.5332C78.4297 12.4121 78.5898 12.3516 78.8008 12.3516C79.0117 12.3516 79.1719 12.4121 79.2812 12.5332C79.3906 12.6543 79.4453 12.8027 79.4453 12.9785C79.4453 13.1543 79.3906 13.3008 79.2812 13.418C79.1719 13.5352 79.0117 13.5938 78.8008 13.5938C78.5898 13.5938 78.4297 13.5352 78.3203 13.418C78.2148 13.3008 78.1621 13.1543 78.1621 12.9785ZM86.4297 17.9004C86.4297 18.8652 86.209 19.6426 85.7676 20.2324C85.3262 20.8223 84.7285 21.1172 83.9746 21.1172C83.2051 21.1172 82.5996 20.873 82.1582 20.3848V23.4375H81.0742V14.6602H82.0645L82.1172 15.3633C82.5586 14.8164 83.1719 14.543 83.957 14.543C84.7188 14.543 85.3203 14.8301 85.7617 15.4043C86.207 15.9785 86.4297 16.7773 86.4297 17.8008V17.9004ZM85.3457 17.7773C85.3457 17.0625 85.1934 16.498 84.8887 16.084C84.584 15.6699 84.166 15.4629 83.6348 15.4629C82.9785 15.4629 82.4863 15.7539 82.1582 16.3359V19.3652C82.4824 19.9434 82.9785 20.2324 83.6465 20.2324C84.166 20.2324 84.5781 20.0273 84.8828 19.6172C85.1914 19.2031 85.3457 18.5898 85.3457 17.7773ZM89.2832 13.125V14.6602H90.4668V15.498H89.2832V19.4297C89.2832 19.6836 89.3359 19.875 89.4414 20.0039C89.5469 20.1289 89.7266 20.1914 89.9805 20.1914C90.1055 20.1914 90.2773 20.168 90.4961 20.1211V21C90.2109 21.0781 89.9336 21.1172 89.6641 21.1172C89.1797 21.1172 88.8145 20.9707 88.5684 20.6777C88.3223 20.3848 88.1992 19.9688 88.1992 19.4297V15.498H87.0449V14.6602H88.1992V13.125H89.2832Z" fill="#22272E"/>
<path d="M4.5 2H96.5V0H4.5V2ZM98.5 4V30H100.5V4H98.5ZM96.5 32H4.5V34H96.5V32ZM2.5 30V4H0.5V30H2.5ZM4.5 32C3.39543 32 2.5 31.1046 2.5 30H0.5C0.5 32.2091 2.29086 34 4.5 34V32ZM98.5 30C98.5 31.1046 97.6046 32 96.5 32V34C98.7091 34 100.5 32.2091 100.5 30H98.5ZM96.5 2C97.6046 2 98.5 2.89543 98.5 4H100.5C100.5 1.79086 98.7091 0 96.5 0V2ZM4.5 0C2.29086 0 0.5 1.79086 0.5 4H2.5C2.5 2.89543 3.39543 2 4.5 2V0Z" fill="#30363D"/>
</svg>
