<svg width="135" height="47" viewBox="0 0 135 47" fill="none" xmlns="http://www.w3.org/2000/svg">
<rect x="1" y="1" width="133" height="45" rx="4" fill="#22272E"/>
<path d="M17.125 15.625V31.375H32.875V15.625H17.125ZM25.6964 27.9083C25.6964 29.4411 24.7964 30.1409 23.4852 30.1409C22.3006 30.1409 21.6149 29.5294 21.2633 28.7875L22.4693 28.0596C22.7016 28.4708 22.9126 28.819 23.4222 28.819C23.9071 28.819 24.2164 28.6289 24.2164 27.8875V22.8565H25.6964V27.9083ZM29.1974 30.1409C27.8226 30.1409 26.9333 29.4873 26.5007 28.6289L27.7067 27.9331C28.0234 28.45 28.438 28.8331 29.1659 28.8331C29.7773 28.8331 30.1716 28.5271 30.1716 28.1018C30.1716 27.5956 29.7706 27.4161 29.0922 27.1174L28.7232 26.9594C27.6544 26.506 26.9479 25.9328 26.9479 24.7268C26.9479 23.6159 27.7951 22.7721 29.1136 22.7721C30.0557 22.7721 30.7308 23.0989 31.2162 23.9567L30.0631 24.6953C29.8099 24.2419 29.5354 24.0625 29.1102 24.0625C28.6782 24.0625 28.4037 24.337 28.4037 24.6953C28.4037 25.1386 28.6782 25.3174 29.3144 25.5953L29.6834 25.7534C30.9423 26.2911 31.6488 26.8435 31.6488 28.0804C31.6488 29.4096 30.6008 30.1403 29.1979 30.1403L29.1974 30.1409Z" fill="#ADBAC7"/>
<path d="M50.3359 25.9844C50.3359 27.3125 50.0547 28.3464 49.4922 29.0859C48.9297 29.8203 48.1771 30.1875 47.2344 30.1875C46.7969 30.1875 46.4375 30.125 46.1562 30V28.7031C46.4375 28.9062 46.8021 29.0078 47.25 29.0078C48.4323 29.0078 49.0234 28.0052 49.0234 26V18.7969H50.3359V25.9844ZM58.7422 30H57.4609V28.75H57.4297C56.8724 29.7083 56.0521 30.1875 54.9688 30.1875C54.1719 30.1875 53.5469 29.9766 53.0938 29.5547C52.6458 29.1328 52.4219 28.5729 52.4219 27.875C52.4219 26.3802 53.3021 25.5104 55.0625 25.2656L57.4609 24.9297C57.4609 23.5703 56.9115 22.8906 55.8125 22.8906C54.849 22.8906 53.9792 23.2188 53.2031 23.875V22.5625C53.9896 22.0625 54.8958 21.8125 55.9219 21.8125C57.8021 21.8125 58.7422 22.8073 58.7422 24.7969V30ZM57.4609 25.9531L55.5312 26.2188C54.9375 26.3021 54.4896 26.4505 54.1875 26.6641C53.8854 26.8724 53.7344 27.2448 53.7344 27.7812C53.7344 28.1719 53.8724 28.4922 54.1484 28.7422C54.4297 28.987 54.8021 29.1094 55.2656 29.1094C55.901 29.1094 56.4245 28.888 56.8359 28.4453C57.2526 27.9974 57.4609 27.4323 57.4609 26.75V25.9531ZM67.4453 22L64.2578 30H63L59.9688 22H61.375L63.4062 27.8125C63.5573 28.2396 63.651 28.612 63.6875 28.9297H63.7188C63.7708 28.5286 63.8542 28.1667 63.9688 27.8438L66.0938 22H67.4453ZM74.5547 30H73.2734V28.75H73.2422C72.6849 29.7083 71.8646 30.1875 70.7812 30.1875C69.9844 30.1875 69.3594 29.9766 68.9062 29.5547C68.4583 29.1328 68.2344 28.5729 68.2344 27.875C68.2344 26.3802 69.1146 25.5104 70.875 25.2656L73.2734 24.9297C73.2734 23.5703 72.724 22.8906 71.625 22.8906C70.6615 22.8906 69.7917 23.2188 69.0156 23.875V22.5625C69.8021 22.0625 70.7083 21.8125 71.7344 21.8125C73.6146 21.8125 74.5547 22.8073 74.5547 24.7969V30ZM73.2734 25.9531L71.3438 26.2188C70.75 26.3021 70.3021 26.4505 70 26.6641C69.6979 26.8724 69.5469 27.2448 69.5469 27.7812C69.5469 28.1719 69.6849 28.4922 69.9609 28.7422C70.2422 28.987 70.6146 29.1094 71.0781 29.1094C71.7135 29.1094 72.237 28.888 72.6484 28.4453C73.0651 27.9974 73.2734 27.4323 73.2734 26.75V25.9531ZM76.4844 29.7109V28.3359C77.1823 28.8516 77.9505 29.1094 78.7891 29.1094C79.9141 29.1094 80.4766 28.7344 80.4766 27.9844C80.4766 27.7708 80.4271 27.5911 80.3281 27.4453C80.2344 27.2943 80.1042 27.1615 79.9375 27.0469C79.776 26.9323 79.5833 26.8307 79.3594 26.7422C79.1406 26.6484 78.9036 26.5521 78.6484 26.4531C78.2943 26.3125 77.9818 26.1719 77.7109 26.0312C77.4453 25.8854 77.2214 25.724 77.0391 25.5469C76.862 25.3646 76.7266 25.1589 76.6328 24.9297C76.5443 24.7005 76.5 24.4323 76.5 24.125C76.5 23.75 76.5859 23.4193 76.7578 23.1328C76.9297 22.8411 77.1589 22.599 77.4453 22.4062C77.7318 22.2083 78.0573 22.0599 78.4219 21.9609C78.7917 21.862 79.1719 21.8125 79.5625 21.8125C80.2552 21.8125 80.875 21.9323 81.4219 22.1719V23.4688C80.8333 23.0833 80.1562 22.8906 79.3906 22.8906C79.151 22.8906 78.9349 22.9193 78.7422 22.9766C78.5495 23.0286 78.3828 23.1042 78.2422 23.2031C78.1068 23.3021 78 23.4219 77.9219 23.5625C77.849 23.6979 77.8125 23.849 77.8125 24.0156C77.8125 24.224 77.849 24.3984 77.9219 24.5391C78 24.6797 78.112 24.8047 78.2578 24.9141C78.4036 25.0234 78.5807 25.1224 78.7891 25.2109C78.9974 25.2995 79.2344 25.3958 79.5 25.5C79.8542 25.6354 80.1719 25.776 80.4531 25.9219C80.7344 26.0625 80.974 26.224 81.1719 26.4062C81.3698 26.5833 81.5208 26.7891 81.625 27.0234C81.7344 27.2578 81.7891 27.5365 81.7891 27.8594C81.7891 28.2552 81.7005 28.599 81.5234 28.8906C81.3516 29.1823 81.1198 29.4245 80.8281 29.6172C80.5365 29.8099 80.2005 29.9531 79.8203 30.0469C79.4401 30.1406 79.0417 30.1875 78.625 30.1875C77.8021 30.1875 77.0885 30.0286 76.4844 29.7109ZM89.2188 29.6328C88.6042 30.0026 87.875 30.1875 87.0312 30.1875C85.8906 30.1875 84.9688 29.8177 84.2656 29.0781C83.5677 28.3333 83.2188 27.3698 83.2188 26.1875C83.2188 24.8698 83.5964 23.8125 84.3516 23.0156C85.1068 22.2135 86.1146 21.8125 87.375 21.8125C88.0781 21.8125 88.6979 21.9427 89.2344 22.2031V23.5156C88.6406 23.099 88.0052 22.8906 87.3281 22.8906C86.5104 22.8906 85.8385 23.1849 85.3125 23.7734C84.7917 24.3568 84.5312 25.125 84.5312 26.0781C84.5312 27.0156 84.776 27.7552 85.2656 28.2969C85.7604 28.8385 86.4219 29.1094 87.25 29.1094C87.9479 29.1094 88.6042 28.8776 89.2188 28.4141V29.6328ZM95.3281 23.2969C95.1042 23.125 94.7812 23.0391 94.3594 23.0391C93.8125 23.0391 93.3542 23.2969 92.9844 23.8125C92.6198 24.3281 92.4375 25.0312 92.4375 25.9219V30H91.1562V22H92.4375V23.6484H92.4688C92.651 23.0859 92.9297 22.6484 93.3047 22.3359C93.6797 22.0182 94.099 21.8594 94.5625 21.8594C94.8958 21.8594 95.151 21.8958 95.3281 21.9688V23.2969ZM97.375 19.9688C97.1458 19.9688 96.9505 19.8906 96.7891 19.7344C96.6276 19.5781 96.5469 19.3802 96.5469 19.1406C96.5469 18.901 96.6276 18.7031 96.7891 18.5469C96.9505 18.3854 97.1458 18.3047 97.375 18.3047C97.6094 18.3047 97.8073 18.3854 97.9688 18.5469C98.1354 18.7031 98.2188 18.901 98.2188 19.1406C98.2188 19.3698 98.1354 19.5651 97.9688 19.7266C97.8073 19.888 97.6094 19.9688 97.375 19.9688ZM98 30H96.7188V22H98V30ZM101.906 28.8438H101.875V33.6797H100.594V22H101.875V23.4062H101.906C102.536 22.3438 103.458 21.8125 104.672 21.8125C105.703 21.8125 106.508 22.1719 107.086 22.8906C107.664 23.6042 107.953 24.5625 107.953 25.7656C107.953 27.1042 107.628 28.1771 106.977 28.9844C106.326 29.7865 105.435 30.1875 104.305 30.1875C103.268 30.1875 102.469 29.7396 101.906 28.8438ZM101.875 25.6172V26.7344C101.875 27.3958 102.089 27.9583 102.516 28.4219C102.948 28.8802 103.495 29.1094 104.156 29.1094C104.932 29.1094 105.539 28.8125 105.977 28.2188C106.419 27.625 106.641 26.7995 106.641 25.7422C106.641 24.8516 106.435 24.1536 106.023 23.6484C105.612 23.1432 105.055 22.8906 104.352 22.8906C103.607 22.8906 103.008 23.151 102.555 23.6719C102.102 24.1875 101.875 24.8359 101.875 25.6172ZM113.711 29.9219C113.409 30.0885 113.01 30.1719 112.516 30.1719C111.115 30.1719 110.414 29.3906 110.414 27.8281V23.0938H109.039V22H110.414V20.0469L111.695 19.6328V22H113.711V23.0938H111.695V27.6016C111.695 28.138 111.786 28.5208 111.969 28.75C112.151 28.9792 112.453 29.0938 112.875 29.0938C113.198 29.0938 113.477 29.0052 113.711 28.8281V29.9219Z" fill="#ADBAC7"/>
<rect x="1" y="1" width="133" height="45" rx="4" stroke="#444C56" stroke-width="2"/>
</svg>
