<svg xmlns="http://www.w3.org/2000/svg" width="148" height="56" fill="none"><rect width="130" height="48" x="9" y="4" fill="#F3E5F5" rx="4"/><g clip-path="url(#a)"><path fill="#4E4E4E" d="M30.607 28.513v-2.62h.57v2.82a1.705 1.705 0 0 1-.374 1.278c-.27.233-.616.359-.972.354l-.06-.426c.23 0 .452-.085.623-.239.153-.179.213-.422.213-1.167Zm4.257-.336c0 .32 0 .605.026.852h-.507l-.034-.507a1.18 1.18 0 0 1-1.035.58c-.495 0-1.083-.27-1.083-1.364v-1.82h.571v1.705c0 .592.183.988.699.988a.797.797 0 0 0 .805-.805v-1.909h.571v2.263l-.013.017Zm1.083-1.245c0-.396 0-.72-.026-1.014h.511l.026.533a1.236 1.236 0 0 1 1.116-.605c.758 0 1.33.635 1.33 1.58 0 1.117-.687 1.67-1.428 1.67a1.103 1.103 0 0 1-.967-.49v1.705h-.563v-3.379Zm.562.831c.001.077.01.154.025.23a.878.878 0 0 0 .852.66c.601 0 .955-.49.955-1.2 0-.623-.333-1.155-.933-1.155a.98.98 0 0 0-.9.933v.532Zm3.411-1.848.686 1.837c.074.21.14.42.2.635.06-.188.124-.427.2-.648l.623-1.823h.6l-.852 2.215c-.426 1.065-.686 1.615-1.078 1.947-.197.18-.438.306-.698.366l-.14-.477c.181-.06.35-.154.498-.277.207-.17.372-.385.481-.63a.428.428 0 0 0 .047-.137.49.49 0 0 0-.038-.149l-1.16-2.867h.623l.008.009Zm3.825-.893v.894h.818v.426h-.818v1.679c0 .383.11.605.426.605.112.002.224-.011.332-.038l.026.426a1.407 1.407 0 0 1-.507.076.793.793 0 0 1-.618-.238 1.146 1.146 0 0 1-.221-.81v-1.704h-.486v-.426h.494v-.758l.554-.132Zm1.87 2.55a1.002 1.002 0 0 0 1.078 1.078 2.08 2.08 0 0 0 .852-.162l.098.426c-.331.136-.687.201-1.044.191a1.448 1.448 0 0 1-1.542-1.567c0-.938.558-1.679 1.47-1.679 1.022 0 1.278.895 1.278 1.466.005.088.005.176 0 .264h-2.203l.013-.017Zm1.67-.426a.806.806 0 0 0-.793-.92.942.942 0 0 0-.873.92h1.666Zm1.386-.262c0-.366 0-.681-.026-.971h.511v.61h.026a.94.94 0 0 1 .852-.683.618.618 0 0 1 .162 0v.533a.857.857 0 0 0-.196 0 .797.797 0 0 0-.763.724 1.591 1.591 0 0 0-.025.264v1.658h-.563v-2.13l.022-.005Z"/><path fill="#767677" d="M48.42 17.357a1.444 1.444 0 1 1-1.503-1.355 1.426 1.426 0 0 1 1.504 1.355Z"/><path fill="#F37726" d="M39.996 34.043c-3.834 0-7.204-1.376-8.947-3.408a9.54 9.54 0 0 0 17.894 0c-1.738 2.032-5.095 3.408-8.947 3.408Zm0-13.215c3.835 0 7.205 1.377 8.947 3.409a9.539 9.539 0 0 0-17.894 0c1.743-2.037 5.096-3.409 8.947-3.409Z"/><path fill="#9E9E9E" d="M34.718 37.998a1.82 1.82 0 1 1-1.896-1.704 1.803 1.803 0 0 1 1.896 1.704Z"/><path fill="#616262" d="M31.485 20.365a1.049 1.049 0 1 1 1.018-1.09 1.06 1.06 0 0 1-1.018 1.09Z"/></g><path fill="#000" d="M72.336 30.484c0 1.328-.281 2.362-.844 3.102-.562.734-1.315 1.102-2.258 1.102-.437 0-.796-.063-1.078-.188v-1.297c.281.203.646.305 1.094.305 1.182 0 1.773-1.003 1.773-3.008v-7.203h1.313v7.187Zm9.148 4.016h-1.28v-1.266h-.032c-.531.97-1.354 1.453-2.469 1.453-1.906 0-2.86-1.135-2.86-3.406V26.5h1.274v4.578c0 1.688.646 2.531 1.938 2.531.625 0 1.138-.229 1.539-.687.406-.464.61-1.068.61-1.813V26.5h1.28v8Zm3.907-1.156h-.032v4.836h-1.28V26.5h1.28v1.406h.032c.63-1.062 1.552-1.593 2.765-1.593 1.031 0 1.836.359 2.414 1.078.578.713.868 1.672.868 2.875 0 1.338-.326 2.411-.977 3.218-.651.802-1.542 1.203-2.672 1.203-1.036 0-1.836-.447-2.398-1.343Zm-.032-3.227v1.117c0 .662.214 1.224.641 1.688.432.458.98.687 1.64.687.777 0 1.383-.297 1.82-.89.444-.594.665-1.42.665-2.477 0-.89-.206-1.588-.617-2.094-.412-.505-.969-.757-1.672-.757-.745 0-1.344.26-1.797.78-.453.517-.68 1.165-.68 1.946ZM99.852 26.5l-3.68 9.281c-.656 1.657-1.578 2.485-2.766 2.485-.333 0-.612-.034-.836-.102v-1.148c.276.093.529.14.758.14.646 0 1.13-.385 1.453-1.156l.64-1.516-3.124-7.984h1.422l2.164 6.156c.026.078.08.282.164.61h.047a9.12 9.12 0 0 1 .156-.594l2.273-6.172h1.329Zm5.093 7.922c-.302.167-.7.25-1.195.25-1.401 0-2.102-.781-2.102-2.344v-4.734h-1.375V26.5h1.375v-1.953l1.282-.414V26.5h2.015v1.094h-2.015v4.508c0 .536.091.919.273 1.148.182.23.485.344.906.344.323 0 .602-.089.836-.266v1.094Zm8.141-3.602h-5.648c.02.89.26 1.578.718 2.063.459.484 1.089.726 1.891.726.901 0 1.729-.297 2.484-.89v1.203c-.703.51-1.633.766-2.789.766-1.13 0-2.018-.363-2.664-1.086-.646-.73-.969-1.753-.969-3.07 0-1.245.352-2.259 1.055-3.04.708-.786 1.586-1.18 2.633-1.18s1.857.339 2.43 1.016c.572.677.859 1.617.859 2.82v.672Zm-1.313-1.086c-.005-.74-.184-1.315-.539-1.726-.349-.412-.836-.617-1.461-.617a2.07 2.07 0 0 0-1.539.648c-.422.432-.682.997-.781 1.695h4.32Zm7.43-1.937c-.224-.172-.547-.258-.969-.258-.546 0-1.005.258-1.375.773-.364.516-.547 1.22-.547 2.11V34.5h-1.281v-8h1.281v1.648h.032c.182-.562.461-1 .836-1.312a1.897 1.897 0 0 1 1.258-.477c.333 0 .588.037.765.11v1.328Z"/><rect width="130" height="48" x="9" y="4" stroke="#9C27B0" stroke-width="2" rx="4"/><defs><clipPath id="a"><path fill="#fff" d="M29.76 16h20.48v24H29.76z"/></clipPath></defs></svg>