<svg width="118" height="47" viewBox="0 0 118 47" fill="none" xmlns="http://www.w3.org/2000/svg">
<rect x="1" y="1" width="116" height="45" rx="4" fill="#22272E"/>
<path d="M30.6683 16.5182C30.6799 16.7066 30.6351 16.8942 30.5396 17.057C30.4442 17.2199 30.3025 17.3506 30.1325 17.4326C29.9625 17.5146 29.7719 17.5442 29.5851 17.5175C29.3982 17.4908 29.2236 17.4091 29.0833 17.2828C28.9431 17.1565 28.8436 16.9913 28.7976 16.8083C28.7515 16.6252 28.761 16.4326 28.8248 16.255C28.8886 16.0774 29.0039 15.9228 29.1559 15.8109C29.3079 15.699 29.4898 15.6348 29.6783 15.6267C29.8019 15.6198 29.9257 15.6375 30.0425 15.6787C30.1592 15.7199 30.2667 15.7837 30.3587 15.8666C30.4507 15.9494 30.5254 16.0497 30.5786 16.1615C30.6317 16.2733 30.6622 16.3946 30.6683 16.5182V16.5182ZM25.1232 27.4994C22.5993 27.4994 20.3813 26.5937 19.2344 25.2561C19.6794 26.4594 20.4824 27.4975 21.5352 28.2307C22.588 28.9639 23.8402 29.3569 25.1232 29.3569C26.4062 29.3569 27.6583 28.9639 28.7112 28.2307C29.764 27.4975 30.567 26.4594 31.012 25.2561C29.8679 26.5937 27.6584 27.4994 25.1232 27.4994ZM25.1232 18.8014C27.6471 18.8014 29.8651 19.707 31.012 21.0447C30.567 19.8414 29.764 18.8033 28.7112 18.0701C27.6583 17.3369 26.4062 16.9439 25.1232 16.9439C23.8402 16.9439 22.588 17.3369 21.5352 18.0701C20.4824 18.8033 19.6794 19.8414 19.2344 21.0447C20.3819 19.7048 22.5886 18.8014 25.1238 18.8014H25.1232ZM21.6492 30.102C21.6648 30.396 21.5705 30.6852 21.3847 30.9135C21.1989 31.1418 20.9348 31.2928 20.6438 31.3372C20.3528 31.3815 20.0557 31.316 19.8103 31.1535C19.5649 30.9909 19.3887 30.7429 19.316 30.4576C19.2434 30.1724 19.2794 29.8703 19.4172 29.6101C19.5549 29.35 19.7845 29.1504 20.0612 29.0501C20.338 28.9498 20.6421 28.9561 20.9145 29.0677C21.1869 29.1792 21.4081 29.3881 21.535 29.6537C21.6019 29.7945 21.6407 29.947 21.6492 30.1026V30.102ZM19.5213 18.4977C19.3854 18.5013 19.2514 18.4647 19.1362 18.3925C19.0211 18.3202 18.9298 18.2155 18.874 18.0916C18.8181 17.9676 18.8002 17.83 18.8223 17.6958C18.8445 17.5617 18.9058 17.4371 18.9986 17.3377C19.0914 17.2383 19.2114 17.1686 19.3437 17.1373C19.476 17.1059 19.6146 17.1144 19.7421 17.1616C19.8696 17.2087 19.9803 17.2926 20.0603 17.4025C20.1403 17.5124 20.186 17.6435 20.1918 17.7794C20.1969 17.9632 20.1294 18.1416 20.0039 18.276C19.8784 18.4103 19.705 18.4898 19.5213 18.4971V18.4977Z" fill="#ADBAC7"/>
<path d="M50.3359 25.9844C50.3359 27.3125 50.0547 28.3464 49.4922 29.0859C48.9297 29.8203 48.1771 30.1875 47.2344 30.1875C46.7969 30.1875 46.4375 30.125 46.1562 30V28.7031C46.4375 28.9062 46.8021 29.0078 47.25 29.0078C48.4323 29.0078 49.0234 28.0052 49.0234 26V18.7969H50.3359V25.9844ZM59.4844 30H58.2031V28.7344H58.1719C57.6406 29.7031 56.8177 30.1875 55.7031 30.1875C53.7969 30.1875 52.8438 29.0521 52.8438 26.7812V22H54.1172V26.5781C54.1172 28.2656 54.763 29.1094 56.0547 29.1094C56.6797 29.1094 57.1927 28.8802 57.5938 28.4219C58 27.9583 58.2031 27.3542 58.2031 26.6094V22H59.4844V30ZM63.3906 28.8438H63.3594V33.6797H62.0781V22H63.3594V23.4062H63.3906C64.0208 22.3438 64.9427 21.8125 66.1562 21.8125C67.1875 21.8125 67.9922 22.1719 68.5703 22.8906C69.1484 23.6042 69.4375 24.5625 69.4375 25.7656C69.4375 27.1042 69.112 28.1771 68.4609 28.9844C67.8099 29.7865 66.9193 30.1875 65.7891 30.1875C64.7526 30.1875 63.9531 29.7396 63.3906 28.8438ZM63.3594 25.6172V26.7344C63.3594 27.3958 63.5729 27.9583 64 28.4219C64.4323 28.8802 64.9792 29.1094 65.6406 29.1094C66.4167 29.1094 67.0234 28.8125 67.4609 28.2188C67.9036 27.625 68.125 26.7995 68.125 25.7422C68.125 24.8516 67.9193 24.1536 67.5078 23.6484C67.0964 23.1432 66.5391 22.8906 65.8359 22.8906C65.0911 22.8906 64.4922 23.151 64.0391 23.6719C63.5859 24.1875 63.3594 24.8359 63.3594 25.6172ZM77.8516 22L74.1719 31.2812C73.5156 32.9375 72.5938 33.7656 71.4062 33.7656C71.0729 33.7656 70.7943 33.7318 70.5703 33.6641V32.5156C70.8464 32.6094 71.099 32.6562 71.3281 32.6562C71.974 32.6562 72.4583 32.2708 72.7812 31.5L73.4219 29.9844L70.2969 22H71.7188L73.8828 28.1562C73.9089 28.2344 73.9635 28.4375 74.0469 28.7656H74.0938C74.1198 28.6406 74.1719 28.4427 74.25 28.1719L76.5234 22H77.8516ZM82.9453 29.9219C82.6432 30.0885 82.2448 30.1719 81.75 30.1719C80.349 30.1719 79.6484 29.3906 79.6484 27.8281V23.0938H78.2734V22H79.6484V20.0469L80.9297 19.6328V22H82.9453V23.0938H80.9297V27.6016C80.9297 28.138 81.0208 28.5208 81.2031 28.75C81.3854 28.9792 81.6875 29.0938 82.1094 29.0938C82.4323 29.0938 82.7109 29.0052 82.9453 28.8281V29.9219ZM91.0859 26.3203H85.4375C85.4583 27.2109 85.6979 27.8984 86.1562 28.3828C86.6146 28.8672 87.2448 29.1094 88.0469 29.1094C88.9479 29.1094 89.776 28.8125 90.5312 28.2188V29.4219C89.8281 29.9323 88.8984 30.1875 87.7422 30.1875C86.612 30.1875 85.724 29.8255 85.0781 29.1016C84.4323 28.3724 84.1094 27.349 84.1094 26.0312C84.1094 24.7865 84.4609 23.7734 85.1641 22.9922C85.8724 22.2057 86.75 21.8125 87.7969 21.8125C88.8438 21.8125 89.6536 22.151 90.2266 22.8281C90.7995 23.5052 91.0859 24.4453 91.0859 25.6484V26.3203ZM89.7734 25.2344C89.7682 24.4948 89.5885 23.9193 89.2344 23.5078C88.8854 23.0964 88.3984 22.8906 87.7734 22.8906C87.1693 22.8906 86.6562 23.1068 86.2344 23.5391C85.8125 23.9714 85.5521 24.5365 85.4531 25.2344H89.7734ZM97.2031 23.2969C96.9792 23.125 96.6562 23.0391 96.2344 23.0391C95.6875 23.0391 95.2292 23.2969 94.8594 23.8125C94.4948 24.3281 94.3125 25.0312 94.3125 25.9219V30H93.0312V22H94.3125V23.6484H94.3438C94.526 23.0859 94.8047 22.6484 95.1797 22.3359C95.5547 22.0182 95.974 21.8594 96.4375 21.8594C96.7708 21.8594 97.026 21.8958 97.2031 21.9688V23.2969Z" fill="#ADBAC7"/>
<rect x="1" y="1" width="116" height="45" rx="4" stroke="#444C56" stroke-width="2"/>
</svg>
