<svg xmlns="http://www.w3.org/2000/svg" width="134" height="56" fill="none"><rect width="116" height="48" x="9" y="4" fill="#F3E5F5" rx="4"/><g clip-path="url(#a)"><path fill="#D00000" d="M50.67 38.67H29.33V17.33h21.34v21.34Z"/><path fill="#fff" d="M35.015 33.885c0 .017.017.033.017.05l.367.367c.017.016.033.016.05.016h1.25c.017 0 .034-.016.05-.016l.367-.367c.017-.017.017-.033.017-.05v-3.968c0-.017.016-.033.016-.05l1.584-1.517c.017-.017.033-.017.033 0l4.018 5.935c.017.017.034.017.05.017h1.767c.017 0 .034-.017.05-.034l.317-.616v-.05l-4.685-6.786c-.016-.016 0-.033 0-.05l4.318-4.3c.017-.018.017-.034.017-.05v-.084c0-.017 0-.034-.017-.05l-.25-.567c0-.017-.016-.034-.033-.034h-1.75c-.017 0-.034.017-.05.017l-5.352 5.385c-.017.017-.017 0-.017-.017v-4.918c0-.016-.016-.033-.016-.05l-.367-.383c-.017-.017-.033-.017-.05-.017h-1.267c-.017 0-.033.017-.05.017l-.367.4c-.017.017-.017.033-.017.05v11.72Z"/></g><path fill="#000" d="M77.266 34.5h-1.829l-4.328-5.125a3.125 3.125 0 0 1-.296-.39h-.032V34.5H69.47V23.297h1.312v5.265h.031c.073-.114.172-.242.297-.382l4.188-4.883h1.633l-4.805 5.375 5.14 5.828Zm7.523-3.68h-5.648c.02.89.26 1.578.718 2.063.459.484 1.089.726 1.891.726.901 0 1.73-.297 2.484-.89v1.203c-.703.51-1.632.766-2.789.766-1.13 0-2.018-.363-2.664-1.086-.646-.73-.969-1.753-.969-3.07 0-1.245.352-2.259 1.055-3.04.709-.786 1.586-1.18 2.633-1.18s1.857.339 2.43 1.016c.573.677.86 1.617.86 2.82v.672Zm-1.312-1.086c-.006-.74-.185-1.315-.54-1.726-.349-.412-.835-.617-1.46-.617a2.07 2.07 0 0 0-1.54.648c-.421.432-.682.997-.78 1.695h4.32Zm7.43-1.937c-.225-.172-.548-.258-.97-.258-.546 0-1.005.258-1.374.773-.365.516-.547 1.22-.547 2.11V34.5h-1.282v-8h1.282v1.648h.03c.183-.562.462-1 .837-1.312a1.897 1.897 0 0 1 1.258-.477c.333 0 .588.037.765.11v1.328Zm7.116 6.703h-1.28v-1.25h-.032c-.557.958-1.378 1.438-2.461 1.438-.797 0-1.422-.211-1.875-.633-.448-.422-.672-.982-.672-1.68 0-1.495.88-2.365 2.64-2.61l2.4-.335c0-1.36-.55-2.04-1.65-2.04-.963 0-1.833.329-2.609.985v-1.313c.787-.5 1.693-.75 2.72-.75 1.88 0 2.82.995 2.82 2.985V34.5Zm-1.28-4.047-1.93.266c-.594.083-1.042.232-1.344.445-.302.208-.453.58-.453 1.117 0 .39.138.711.414.961.28.245.653.367 1.117.367.635 0 1.159-.221 1.57-.664.417-.448.625-1.013.625-1.695v-.797Zm3.21 3.758v-1.375a3.79 3.79 0 0 0 2.305.773c1.125 0 1.687-.375 1.687-1.125a.937.937 0 0 0-.148-.539 1.352 1.352 0 0 0-.391-.398 2.715 2.715 0 0 0-.578-.305c-.219-.094-.456-.19-.711-.289-.354-.14-.666-.281-.937-.422a3.077 3.077 0 0 1-.672-.484 1.914 1.914 0 0 1-.406-.617 2.217 2.217 0 0 1-.133-.805c0-.375.086-.706.258-.992.171-.292.401-.534.687-.727.287-.198.612-.346.977-.445a4.39 4.39 0 0 1 1.14-.148c.693 0 1.313.12 1.86.359v1.297c-.589-.386-1.266-.578-2.032-.578-.239 0-.455.028-.648.086a1.575 1.575 0 0 0-.5.226 1.112 1.112 0 0 0-.32.36.94.94 0 0 0-.11.453c0 .208.037.382.11.523.078.14.19.266.336.375a2.5 2.5 0 0 0 .531.297c.208.088.445.185.711.289.354.135.672.276.953.422.281.14.521.302.719.484.198.177.349.383.453.617.109.235.164.513.164.836 0 .396-.089.74-.266 1.032a2.201 2.201 0 0 1-.695.726 3.21 3.21 0 0 1-1.008.43c-.38.094-.779.14-1.195.14-.823 0-1.537-.158-2.14-.476Z"/><rect width="116" height="48" x="9" y="4" stroke="#9C27B0" stroke-width="2" rx="4"/><defs><clipPath id="a"><path fill="#fff" d="M29.33 17.33h21.34v21.34H29.33z"/></clipPath></defs></svg>