<svg xmlns="http://www.w3.org/2000/svg" width="176" height="56" fill="none"><rect width="158" height="48" x="9" y="4" fill="#EDE7F6" rx="4"/><g clip-path="url(#a)"><path fill="#326DE6" d="M35.695 39.29a1.826 1.826 0 0 1-1.44-.696l-5.419-6.736a1.818 1.818 0 0 1-.356-1.579l1.936-8.408a1.831 1.831 0 0 1 1.006-1.254l7.835-3.747c.248-.124.526-.186.805-.186s.557.062.805.186l7.835 3.732c.51.247.883.697 1.006 1.254l1.936 8.408c.124.557 0 1.13-.356 1.579l-5.42 6.735a1.875 1.875 0 0 1-1.44.697l-8.732.016Z"/><path fill="#fff" d="M40.046 17.071c.217 0 .434.047.635.14l7.835 3.731c.403.202.712.573.805 1.007l1.936 8.407c.108.45 0 .914-.294 1.27l-5.42 6.736a1.475 1.475 0 0 1-1.161.557h-8.687c-.449 0-.882-.201-1.16-.557l-5.42-6.736a1.55 1.55 0 0 1-.294-1.27l1.935-8.407c.108-.45.403-.82.805-1.007l7.835-3.747c.201-.077.434-.123.65-.123Zm0-.727c-.325 0-.65.077-.96.216l-7.834 3.748a2.193 2.193 0 0 0-1.208 1.501l-1.936 8.408c-.154.666 0 1.347.434 1.89l5.42 6.735c.417.526 1.052.82 1.718.82h8.686c.666 0 1.301-.294 1.72-.82l5.419-6.736a2.184 2.184 0 0 0 .433-1.889l-1.936-8.408a2.193 2.193 0 0 0-1.207-1.502L40.99 16.56a2.222 2.222 0 0 0-.945-.216Z"/><path fill="#fff" d="M47.897 29.69c-.016 0-.016 0 0 0h-.016c-.015 0-.03 0-.03-.015-.032 0-.063-.015-.094-.015-.108-.016-.2-.031-.294-.031-.046 0-.093 0-.155-.016h-.015c-.325-.03-.588-.062-.836-.139-.109-.047-.14-.108-.17-.17 0-.016-.016-.016-.016-.031l-.201-.062a6.124 6.124 0 0 0-.109-2.183 6.381 6.381 0 0 0-.867-2.029l.155-.14v-.03a.35.35 0 0 1 .077-.233c.186-.17.419-.31.697-.48.047-.03.093-.046.14-.077.092-.046.17-.093.263-.155.015-.015.046-.03.077-.061.016-.016.031-.016.031-.032.217-.185.263-.495.108-.696a.44.44 0 0 0-.356-.17.575.575 0 0 0-.34.123l-.031.031c-.031.016-.047.047-.078.062-.077.078-.139.14-.2.217-.032.03-.063.077-.11.108a3.933 3.933 0 0 1-.619.558.25.25 0 0 1-.139.046c-.03 0-.062 0-.093-.015h-.03l-.187.123c-.201-.216-.418-.402-.635-.588a6.184 6.184 0 0 0-3.236-1.285l-.015-.201-.031-.031c-.047-.047-.108-.093-.124-.202-.015-.247.016-.526.047-.836v-.015a.55.55 0 0 1 .03-.155c.016-.093.031-.186.047-.294v-.14c0-.278-.217-.51-.48-.51a.497.497 0 0 0-.34.154.49.49 0 0 0-.14.356v.124c0 .109.015.201.046.294.016.047.016.093.031.155v.016c.031.31.078.588.047.836-.016.108-.078.155-.124.201l-.031.031-.016.201c-.278.031-.557.062-.836.124a5.97 5.97 0 0 0-3.066 1.735l-.154-.109h-.031c-.031 0-.062.016-.093.016a.25.25 0 0 1-.14-.047c-.2-.14-.402-.34-.619-.573-.03-.03-.062-.077-.108-.108a2.57 2.57 0 0 0-.202-.217c-.015-.015-.046-.03-.077-.062-.016-.015-.03-.015-.03-.03a.542.542 0 0 0-.342-.125.44.44 0 0 0-.356.17c-.155.202-.108.512.109.697.015 0 .015.016.03.016.032.015.047.046.078.062.093.062.17.108.263.155a.627.627 0 0 1 .14.077c.278.17.51.31.696.48.078.078.078.155.078.232v.031l.155.14c-.031.046-.062.077-.078.123a6.031 6.031 0 0 0-.867 4.088l-.201.062c0 .016-.016.016-.016.031a.36.36 0 0 1-.17.17c-.232.078-.511.109-.836.14h-.016c-.046 0-.108 0-.154.015-.093 0-.186.016-.295.031-.03 0-.061.016-.093.016-.015 0-.03 0-.046.015a.508.508 0 0 0-.403.573c.047.217.248.356.496.356.046 0 .077 0 .124-.015.015 0 .03 0 .03-.016.032 0 .063-.015.094-.015.108-.031.186-.062.278-.108.047-.016.093-.047.14-.062h.015c.294-.109.558-.202.805-.233h.031c.093 0 .155.047.202.078.015 0 .015.015.03.015l.217-.03a6.124 6.124 0 0 0 2.029 2.91c.217.17.433.31.666.45l-.093.2c0 .016.015.016.015.031.031.062.062.14.031.248a4.369 4.369 0 0 1-.403.728v.016c-.03.046-.061.077-.092.123-.062.078-.109.155-.17.248-.016.016-.032.047-.047.078 0 .015-.016.03-.016.03-.123.264-.03.558.202.666.062.031.123.047.185.047a.557.557 0 0 0 .465-.295c0-.015.016-.03.016-.03a.339.339 0 0 1 .046-.078c.046-.108.062-.186.093-.279l.046-.139c.109-.31.186-.557.325-.774.062-.093.14-.108.202-.14.015 0 .015 0 .03-.015l.11-.201a6.048 6.048 0 0 0 2.167.402c.449 0 .913-.046 1.347-.154.273-.062.542-.14.805-.233l.093.17c.016 0 .016 0 .03.016.078.015.14.046.202.14.124.216.217.48.325.774v.015l.047.14c.03.092.046.185.093.278.015.031.03.047.046.078 0 .015.016.03.016.03a.526.526 0 0 0 .464.295.413.413 0 0 0 .186-.047.462.462 0 0 0 .232-.279.56.56 0 0 0-.03-.387c0-.015-.016-.015-.016-.03-.016-.031-.031-.062-.047-.078a1.403 1.403 0 0 0-.17-.248c-.03-.046-.062-.077-.093-.123v-.016c-.17-.263-.325-.495-.402-.728-.031-.108 0-.17.015-.248 0-.015.015-.015.015-.03l-.077-.186a6.001 6.001 0 0 0 2.044-1.998c.279-.433.495-.913.65-1.393l.186.03c.016 0 .016-.015.031-.015.062-.03.108-.077.201-.077h.031c.248.03.511.124.806.232h.015c.046.015.093.046.14.062.092.047.17.077.278.108.031 0 .062.016.093.016.015 0 .03 0 .046.015a.521.521 0 0 0 .62-.34c0-.186-.17-.434-.45-.511Zm-7.17-.758-.68.325-.682-.325-.17-.728.464-.588h.759l.465.588-.155.728Zm4.042-1.61c.12.512.157 1.04.108 1.564l-2.369-.682a.42.42 0 0 1-.294-.495.37.37 0 0 1 .093-.17l1.874-1.688c.263.433.464.929.588 1.47Zm-1.332-2.4-2.028 1.44a.413.413 0 0 1-.542-.093c-.046-.047-.062-.109-.077-.17l-.14-2.524a4.7 4.7 0 0 1 2.787 1.347Zm-4.49-1.27.495-.093-.139 2.477a.424.424 0 0 1-.418.403.369.369 0 0 1-.186-.046l-2.06-1.471a4.724 4.724 0 0 1 2.308-1.27Zm-3.05 2.199 1.842 1.64c.17.14.186.404.047.574a.309.309 0 0 1-.186.124l-2.4.697a4.984 4.984 0 0 1 .697-3.035Zm-.418 4.196 2.462-.418a.417.417 0 0 1 .433.325.442.442 0 0 1-.015.248l-.945 2.276a4.88 4.88 0 0 1-1.935-2.431Zm5.651 3.081a5.06 5.06 0 0 1-1.084.124 5.243 5.243 0 0 1-1.563-.248l1.223-2.214c.124-.14.325-.201.495-.108a.66.66 0 0 1 .186.17l1.192 2.152c-.14.047-.294.078-.449.124Zm3.02-2.152a4.915 4.915 0 0 1-1.487 1.502l-.975-2.338a.417.417 0 0 1 .216-.48.495.495 0 0 1 .217-.047l2.478.418c-.093.34-.248.65-.45.945Z"/></g><path fill="#000" d="M77.266 34.5h-1.829l-4.328-5.125a3.125 3.125 0 0 1-.296-.39h-.032V34.5H69.47V23.297h1.312v5.265h.031c.073-.114.172-.242.297-.382l4.188-4.883h1.633l-4.805 5.375 5.14 5.828Zm7.78 0h-1.28v-1.266h-.032c-.53.97-1.354 1.453-2.468 1.453-1.907 0-2.86-1.135-2.86-3.406V26.5h1.274v4.578c0 1.688.645 2.531 1.937 2.531.625 0 1.138-.229 1.54-.687.406-.464.609-1.068.609-1.813V26.5h1.28v8Zm3.907-1.156h-.031V34.5H87.64V22.656h1.28v5.25h.032c.63-1.062 1.552-1.593 2.766-1.593 1.026 0 1.828.359 2.406 1.078.583.713.875 1.672.875 2.875 0 1.338-.326 2.411-.977 3.218-.65.802-1.541 1.203-2.671 1.203-1.058 0-1.857-.447-2.399-1.343Zm-.031-3.227v1.117c0 .662.213 1.224.64 1.688.433.458.98.687 1.641.687.776 0 1.383-.297 1.82-.89.443-.594.665-1.42.665-2.477 0-.89-.206-1.588-.618-2.094-.411-.505-.968-.757-1.672-.757-.744 0-1.343.26-1.796.78-.454.517-.68 1.165-.68 1.946Zm14.555.703h-5.649c.021.89.26 1.578.719 2.063.458.484 1.088.726 1.891.726.901 0 1.729-.297 2.484-.89v1.203c-.703.51-1.633.766-2.789.766-1.13 0-2.018-.363-2.664-1.086-.646-.73-.969-1.753-.969-3.07 0-1.245.352-2.259 1.055-3.04.708-.786 1.586-1.18 2.633-1.18 1.046 0 1.856.339 2.429 1.016.573.677.86 1.617.86 2.82v.672Zm-1.313-1.086c-.005-.74-.185-1.315-.539-1.726-.349-.412-.836-.617-1.461-.617a2.07 2.07 0 0 0-1.539.648c-.422.432-.682.997-.781 1.695h4.32Zm7.43-1.937c-.224-.172-.547-.258-.969-.258-.547 0-1.005.258-1.375.773-.365.516-.547 1.22-.547 2.11V34.5h-1.281v-8h1.281v1.648h.031c.183-.562.461-1 .836-1.312a1.899 1.899 0 0 1 1.258-.477c.333 0 .589.037.766.11v1.328Zm8.031 6.703h-1.281v-4.563c0-1.697-.62-2.546-1.86-2.546-.64 0-1.172.242-1.593.726-.417.48-.625 1.086-.625 1.82V34.5h-1.282v-8h1.282v1.328h.031c.604-1.01 1.479-1.515 2.625-1.515.875 0 1.544.283 2.008.851.463.563.695 1.378.695 2.445V34.5Zm8.852-3.68h-5.649c.021.89.261 1.578.719 2.063.458.484 1.088.726 1.891.726.901 0 1.729-.297 2.484-.89v1.203c-.703.51-1.633.766-2.789.766-1.13 0-2.018-.363-2.664-1.086-.646-.73-.969-1.753-.969-3.07 0-1.245.352-2.259 1.055-3.04.708-.786 1.586-1.18 2.633-1.18 1.046 0 1.856.339 2.429 1.016.573.677.86 1.617.86 2.82v.672Zm-1.313-1.086c-.005-.74-.185-1.315-.539-1.726-.349-.412-.836-.617-1.461-.617a2.07 2.07 0 0 0-1.539.648c-.422.432-.682.997-.781 1.695h4.32Zm6.969 4.688c-.302.167-.701.25-1.195.25-1.402 0-2.102-.781-2.102-2.344v-4.734h-1.375V26.5h1.375v-1.953l1.281-.414V26.5h2.016v1.094h-2.016v4.508c0 .536.091.919.274 1.148.182.23.484.344.906.344.323 0 .601-.089.836-.266v1.094Zm8.14-3.602h-5.648c.021.89.26 1.578.719 2.063.458.484 1.088.726 1.89.726.901 0 1.73-.297 2.485-.89v1.203c-.703.51-1.633.766-2.789.766-1.131 0-2.019-.363-2.664-1.086-.646-.73-.969-1.753-.969-3.07 0-1.245.351-2.259 1.055-3.04.708-.786 1.586-1.18 2.632-1.18 1.047 0 1.857.339 2.43 1.016.573.677.859 1.617.859 2.82v.672Zm-1.312-1.086c-.005-.74-.185-1.315-.539-1.726-.349-.412-.836-.617-1.461-.617a2.07 2.07 0 0 0-1.539.648c-.422.432-.682.997-.781 1.695h4.32Zm2.773 4.477v-1.375a3.793 3.793 0 0 0 2.305.773c1.125 0 1.688-.375 1.688-1.125a.938.938 0 0 0-.149-.539 1.36 1.36 0 0 0-.39-.398 2.749 2.749 0 0 0-.579-.305c-.218-.094-.455-.19-.711-.289-.354-.14-.666-.281-.937-.422a3.077 3.077 0 0 1-.672-.484 1.93 1.93 0 0 1-.406-.617 2.217 2.217 0 0 1-.133-.805c0-.375.086-.706.258-.992.172-.292.401-.534.687-.727.287-.198.612-.346.977-.445.37-.099.75-.148 1.14-.148.693 0 1.313.12 1.86.359v1.297c-.589-.386-1.266-.578-2.031-.578-.24 0-.456.028-.649.086a1.575 1.575 0 0 0-.5.226 1.112 1.112 0 0 0-.32.36.94.94 0 0 0-.11.453c0 .208.037.382.11.523.078.14.19.266.336.375.146.11.323.208.531.297.208.088.445.185.711.289.354.135.672.276.953.422.281.14.521.302.719.484.198.177.349.383.453.617.109.235.164.513.164.836 0 .396-.088.74-.266 1.032a2.191 2.191 0 0 1-.695.726 3.2 3.2 0 0 1-1.008.43c-.38.094-.778.14-1.195.14-.823 0-1.536-.158-2.141-.476Z"/><rect width="158" height="48" x="9" y="4" stroke="#673AB7" stroke-width="2" rx="4"/><defs><clipPath id="a"><path fill="#fff" d="M28 16.328h24v23.344H28z"/></clipPath></defs></svg>