<svg width="18" height="18" viewBox="0 0 18 18" fill="none" xmlns="http://www.w3.org/2000/svg">
<g clip-path="url(#clip0)">
<path d="M12.469 12.3893C13.133 12.3206 13.6368 11.7481 13.6139 11.061C13.5911 10.374 13.0185 9.82441 12.3315 9.82441H12.2858C11.5758 9.84732 11.0262 10.4427 11.0491 11.1526C11.0721 11.4962 11.2094 11.7939 11.4155 12C10.6369 13.5344 9.44615 14.6565 7.65995 15.5954C6.44624 16.2366 5.18677 16.4657 3.9273 16.3054C2.89678 16.168 2.09528 15.71 1.5914 14.9542C0.85865 13.8321 0.789972 12.6183 1.40829 11.4046C1.84341 10.5343 2.53033 9.89309 2.96546 9.57247C2.87386 9.27477 2.73644 8.77097 2.66776 8.40459C-0.652758 10.8092 -0.309228 14.0611 0.698378 15.5954C1.45405 16.7405 2.98837 17.4504 4.68297 17.4504C5.14094 17.4504 5.59891 17.4046 6.05695 17.2901C8.98818 16.7176 11.2095 14.9771 12.469 12.3893ZM16.4994 9.54963C14.759 7.51143 12.1942 6.38931 9.26296 6.38931H8.89658C8.69048 5.9771 8.25535 5.70225 7.77446 5.70225H7.72863C7.0188 5.72517 6.46923 6.32056 6.49208 7.03054C6.51499 7.71753 7.08747 8.26717 7.77446 8.26717H7.82023C8.32403 8.24425 8.75915 7.92364 8.94234 7.48851H9.35455C11.095 7.48851 12.7437 7.99232 14.2323 8.97708C15.3773 9.73281 16.2017 10.7176 16.6597 11.9084C17.049 12.8702 17.026 13.8091 16.6138 14.6107C15.9727 15.8244 14.8964 16.4886 13.4766 16.4886C12.5606 16.4886 11.6904 16.2137 11.2323 16.0076C10.9805 16.2366 10.5224 16.603 10.2018 16.8321C11.1866 17.2901 12.1942 17.542 13.156 17.542C15.3544 17.542 16.9803 16.3282 17.5986 15.1145C18.2627 13.7862 18.2168 11.4962 16.4994 9.54963ZM4.86616 12.7785C4.88907 13.4656 5.46155 14.0152 6.14855 14.0152H6.19438C6.90429 13.9923 7.45385 13.3969 7.43093 12.687C7.40809 11.9999 6.83554 11.4503 6.14855 11.4503H6.10278C6.05695 11.4503 5.9882 11.4503 5.94251 11.4732C5.00358 9.91593 4.61429 8.22134 4.75172 6.38924C4.84324 5.01519 5.30128 3.82433 6.10278 2.83957C6.76686 1.99223 8.04925 1.58002 8.9195 1.55718C11.3468 1.51134 12.3773 4.53423 12.446 5.74801C12.7437 5.81669 13.2475 5.97703 13.5911 6.09154C13.3162 2.38166 11.0262 0.457977 8.8279 0.457977C6.76686 0.457977 4.86616 1.94654 4.11042 4.14501C3.05705 7.0763 3.74404 9.89309 5.02643 12.1145C4.91199 12.2747 4.84324 12.5267 4.86616 12.7786V12.7785Z" fill="#764ABC"/>
</g>
<defs>
<clipPath id="clip0">
<rect width="17.9955" height="18" fill="white"/>
</clipPath>
</defs>
</svg>
