<svg width="138" height="45" viewBox="0 0 138 45" fill="none" xmlns="http://www.w3.org/2000/svg">
<path d="M1 4C1 2.34314 2.34315 1 4 1H134C135.657 1 137 2.34315 137 4V41C137 42.6569 135.657 44 134 44H4C2.34315 44 1 42.6569 1 41V4Z" fill="#22272E"/>
<g clip-path="url(#clip0)">
<path d="M24 13.5C19.0335 13.5 15 17.5335 15 22.5C15 27.4665 19.0335 31.5 24 31.5C28.9665 31.5 33 27.4665 33 22.5C33 17.5335 28.9665 13.5 24 13.5V13.5ZM24 14.1922C28.5924 14.1922 32.3078 17.9076 32.3078 22.5C32.3078 27.0924 28.5924 30.8078 24 30.8078C19.4076 30.8078 15.6922 27.0924 15.6922 22.5C15.6922 17.9076 19.4076 14.1922 24 14.1922V14.1922Z" fill="#ADBAC7"/>
<path d="M24 17.8269C21.4232 17.8269 19.3269 19.9232 19.3269 22.5C19.3269 25.0767 21.4232 27.1731 24 27.1731C26.5767 27.1731 28.673 25.0767 28.673 22.5C28.673 19.9232 26.5767 17.8269 24 17.8269ZM24 18.5192C26.2026 18.5192 27.9808 20.2973 27.9808 22.5C27.9808 24.7027 26.2026 26.4808 24 26.4808C21.7973 26.4808 20.0191 24.7027 20.0191 22.5C20.0191 20.2973 21.7973 18.5192 24 18.5192Z" fill="#ADBAC7"/>
<path d="M24 13.8461V31.1539V13.8461ZM30.097 28.5971L17.9029 16.4029L30.097 28.5971ZM30.097 16.4029L17.9029 28.5971L30.097 16.4029ZM32.6539 22.5H15.3461H32.6539Z" fill="white"/>
<path d="M23.6539 13.8461V21.6645L18.1476 16.1582L17.6582 16.6476L23.1645 22.1539H15.3461V22.8461H23.1645L17.6582 28.3524L18.1476 28.8418L23.6539 23.3355V31.1539H24.3461V23.3355L29.8523 28.8418L30.3417 28.3524L24.8355 22.8461H32.6539V22.1539H24.8355L30.3417 16.6476L29.8523 16.1582L24.3461 21.6645V13.8461H23.6539Z" fill="#ADBAC7"/>
<path d="M24.0001 22.5L27.3437 18.2714C26.8957 17.9343 26.3981 17.6689 25.8686 17.4847L24.0001 22.5Z" fill="#ADBAC7"/>
<path d="M24.0001 22.5L18.2964 19.7465C17.7405 20.9435 17.5687 22.2832 17.8047 23.5817L24.0001 22.5Z" fill="#ADBAC7"/>
<path d="M24.0001 22.5L28.5238 28.2037C28.9611 27.8569 29.357 27.4609 29.7038 27.0236L24.0001 22.5Z" fill="#ADBAC7"/>
</g>
<path d="M57.8906 29H56.5859V21.4844C56.5859 20.8906 56.6224 20.1641 56.6953 19.3047H56.6641C56.5391 19.8099 56.4271 20.1719 56.3281 20.3906L52.5 29H51.8594L48.0391 20.4531C47.9297 20.2031 47.8177 19.8203 47.7031 19.3047H47.6719C47.7135 19.7526 47.7344 20.4844 47.7344 21.5V29H46.4688V17.7969H48.2031L51.6406 25.6094C51.9062 26.2083 52.0781 26.6562 52.1562 26.9531H52.2031C52.4271 26.3385 52.6068 25.8802 52.7422 25.5781L56.25 17.7969H57.8906V29ZM66.3984 29H65.1172V27.75H65.0859C64.5286 28.7083 63.7083 29.1875 62.625 29.1875C61.8281 29.1875 61.2031 28.9766 60.75 28.5547C60.3021 28.1328 60.0781 27.5729 60.0781 26.875C60.0781 25.3802 60.9583 24.5104 62.7188 24.2656L65.1172 23.9297C65.1172 22.5703 64.5677 21.8906 63.4688 21.8906C62.5052 21.8906 61.6354 22.2188 60.8594 22.875V21.5625C61.6458 21.0625 62.5521 20.8125 63.5781 20.8125C65.4583 20.8125 66.3984 21.8073 66.3984 23.7969V29ZM65.1172 24.9531L63.1875 25.2188C62.5938 25.3021 62.1458 25.4505 61.8438 25.6641C61.5417 25.8724 61.3906 26.2448 61.3906 26.7812C61.3906 27.1719 61.5286 27.4922 61.8047 27.7422C62.0859 27.987 62.4583 28.1094 62.9219 28.1094C63.5573 28.1094 64.0807 27.888 64.4922 27.4453C64.9089 26.9974 65.1172 26.4323 65.1172 25.75V24.9531ZM72.5234 28.9219C72.2214 29.0885 71.8229 29.1719 71.3281 29.1719C69.9271 29.1719 69.2266 28.3906 69.2266 26.8281V22.0938H67.8516V21H69.2266V19.0469L70.5078 18.6328V21H72.5234V22.0938H70.5078V26.6016C70.5078 27.138 70.599 27.5208 70.7812 27.75C70.9635 27.9792 71.2656 28.0938 71.6875 28.0938C72.0104 28.0938 72.2891 28.0052 72.5234 27.8281V28.9219ZM75.5469 27.8438H75.5156V32.6797H74.2344V21H75.5156V22.4062H75.5469C76.1771 21.3438 77.099 20.8125 78.3125 20.8125C79.3438 20.8125 80.1484 21.1719 80.7266 21.8906C81.3047 22.6042 81.5938 23.5625 81.5938 24.7656C81.5938 26.1042 81.2682 27.1771 80.6172 27.9844C79.9661 28.7865 79.0755 29.1875 77.9453 29.1875C76.9089 29.1875 76.1094 28.7396 75.5469 27.8438ZM75.5156 24.6172V25.7344C75.5156 26.3958 75.7292 26.9583 76.1562 27.4219C76.5885 27.8802 77.1354 28.1094 77.7969 28.1094C78.5729 28.1094 79.1797 27.8125 79.6172 27.2188C80.0599 26.625 80.2812 25.7995 80.2812 24.7422C80.2812 23.8516 80.0755 23.1536 79.6641 22.6484C79.2526 22.1432 78.6953 21.8906 77.9922 21.8906C77.2474 21.8906 76.6484 22.151 76.1953 22.6719C75.7422 23.1875 75.5156 23.8359 75.5156 24.6172ZM84.9219 29H83.6406V17.1562H84.9219V29ZM90.8594 29.1875C89.6771 29.1875 88.7318 28.8151 88.0234 28.0703C87.3203 27.3203 86.9688 26.3281 86.9688 25.0938C86.9688 23.75 87.3359 22.7005 88.0703 21.9453C88.8047 21.1901 89.7969 20.8125 91.0469 20.8125C92.2396 20.8125 93.1693 21.1797 93.8359 21.9141C94.5078 22.6484 94.8438 23.6667 94.8438 24.9688C94.8438 26.2448 94.4818 27.2682 93.7578 28.0391C93.0391 28.8047 92.0729 29.1875 90.8594 29.1875ZM90.9531 21.8906C90.1302 21.8906 89.4792 22.1719 89 22.7344C88.5208 23.2917 88.2812 24.0625 88.2812 25.0469C88.2812 25.9948 88.5234 26.7422 89.0078 27.2891C89.4922 27.8359 90.1406 28.1094 90.9531 28.1094C91.7812 28.1094 92.4167 27.8411 92.8594 27.3047C93.3073 26.7682 93.5312 26.0052 93.5312 25.0156C93.5312 24.0156 93.3073 23.2448 92.8594 22.7031C92.4167 22.1615 91.7812 21.8906 90.9531 21.8906ZM100.602 28.9219C100.299 29.0885 99.901 29.1719 99.4062 29.1719C98.0052 29.1719 97.3047 28.3906 97.3047 26.8281V22.0938H95.9297V21H97.3047V19.0469L98.5859 18.6328V21H100.602V22.0938H98.5859V26.6016C98.5859 27.138 98.6771 27.5208 98.8594 27.75C99.0417 27.9792 99.3438 28.0938 99.7656 28.0938C100.089 28.0938 100.367 28.0052 100.602 27.8281V28.9219ZM103.594 29H102.312V17.1562H103.594V29ZM106.844 18.9688C106.615 18.9688 106.419 18.8906 106.258 18.7344C106.096 18.5781 106.016 18.3802 106.016 18.1406C106.016 17.901 106.096 17.7031 106.258 17.5469C106.419 17.3854 106.615 17.3047 106.844 17.3047C107.078 17.3047 107.276 17.3854 107.438 17.5469C107.604 17.7031 107.688 17.901 107.688 18.1406C107.688 18.3698 107.604 18.5651 107.438 18.7266C107.276 18.888 107.078 18.9688 106.844 18.9688ZM107.469 29H106.188V21H107.469V29ZM111.375 27.8438H111.344V29H110.062V17.1562H111.344V22.4062H111.375C112.005 21.3438 112.927 20.8125 114.141 20.8125C115.167 20.8125 115.969 21.1719 116.547 21.8906C117.13 22.6042 117.422 23.5625 117.422 24.7656C117.422 26.1042 117.096 27.1771 116.445 27.9844C115.794 28.7865 114.904 29.1875 113.773 29.1875C112.716 29.1875 111.917 28.7396 111.375 27.8438ZM111.344 24.6172V25.7344C111.344 26.3958 111.557 26.9583 111.984 27.4219C112.417 27.8802 112.964 28.1094 113.625 28.1094C114.401 28.1094 115.008 27.8125 115.445 27.2188C115.888 26.625 116.109 25.7995 116.109 24.7422C116.109 23.8516 115.904 23.1536 115.492 22.6484C115.081 22.1432 114.523 21.8906 113.82 21.8906C113.076 21.8906 112.477 22.151 112.023 22.6719C111.57 23.1875 111.344 23.8359 111.344 24.6172Z" fill="#ADBAC7"/>
<path d="M4 2H134V0H4V2ZM136 4V41H138V4H136ZM134 43H4V45H134V43ZM2 41V4H0V41H2ZM4 43C2.89543 43 2 42.1046 2 41H0C0 43.2091 1.79087 45 4 45V43ZM136 41C136 42.1046 135.105 43 134 43V45C136.209 45 138 43.2091 138 41H136ZM134 2C135.105 2 136 2.89543 136 4H138C138 1.79086 136.209 0 134 0V2ZM4 0C1.79086 0 0 1.79086 0 4H2C2 2.89543 2.89543 2 4 2V0Z" fill="#444C56"/>
<defs>
<clipPath id="clip0">
<rect width="18" height="18" fill="white" transform="translate(15 13.5)"/>
</clipPath>
</defs>
</svg>
