<svg width="140" height="47" viewBox="0 0 140 47" fill="none" xmlns="http://www.w3.org/2000/svg">
<rect x="1" y="1" width="138" height="45" rx="4" fill="#22272E"/>
<g clip-path="url(#clip0_28_4967)">
<path d="M25 14.5C20.0335 14.5 16 18.5335 16 23.5C16 28.4665 20.0335 32.5 25 32.5C29.9665 32.5 34 28.4665 34 23.5C34 18.5335 29.9665 14.5 25 14.5ZM25 15.1922C29.5924 15.1922 33.3078 18.9076 33.3078 23.5C33.3078 28.0924 29.5924 31.8078 25 31.8078C20.4076 31.8078 16.6922 28.0924 16.6922 23.5C16.6922 18.9076 20.4076 15.1922 25 15.1922Z" fill="#ADBAC7"/>
<path d="M25 18.8269C22.4232 18.8269 20.3269 20.9232 20.3269 23.5C20.3269 26.0768 22.4232 28.1731 25 28.1731C27.5767 28.1731 29.673 26.0768 29.673 23.5C29.673 20.9232 27.5767 18.8269 25 18.8269ZM25 19.5192C27.2026 19.5192 28.9808 21.2973 28.9808 23.5C28.9808 25.7027 27.2026 27.4808 25 27.4808C22.7973 27.4808 21.0191 25.7027 21.0191 23.5C21.0191 21.2973 22.7973 19.5192 25 19.5192Z" fill="#ADBAC7"/>
<path d="M25 14.8461V32.1539V14.8461ZM31.097 29.5971L18.9029 17.4029L31.097 29.5971ZM31.097 17.4029L18.9029 29.5971L31.097 17.4029ZM33.6539 23.5H16.3461H33.6539Z" fill="white"/>
<path d="M24.6539 14.8461V22.6645L19.1476 17.1582L18.6582 17.6476L24.1645 23.1539H16.3461V23.8461H24.1645L18.6582 29.3524L19.1476 29.8418L24.6539 24.3355V32.1539H25.3461V24.3355L30.8523 29.8418L31.3417 29.3524L25.8355 23.8461H33.6539V23.1539H25.8355L31.3417 17.6476L30.8523 17.1582L25.3461 22.6645V14.8461H24.6539Z" fill="#ADBAC7"/>
<path d="M25.0001 23.5L28.3437 19.2714C27.8957 18.9343 27.3981 18.6689 26.8686 18.4847L25.0001 23.5Z" fill="#ADBAC7"/>
<path d="M25.0001 23.5L19.2964 20.7465C18.7405 21.9435 18.5687 23.2832 18.8047 24.5817L25.0001 23.5Z" fill="#ADBAC7"/>
<path d="M25.0001 23.5L29.5238 29.2037C29.9611 28.8569 30.357 28.4609 30.7038 28.0236L25.0001 23.5Z" fill="#ADBAC7"/>
</g>
<path d="M58.8906 30H57.5859V22.4844C57.5859 21.8906 57.6224 21.1641 57.6953 20.3047H57.6641C57.5391 20.8099 57.4271 21.1719 57.3281 21.3906L53.5 30H52.8594L49.0391 21.4531C48.9297 21.2031 48.8177 20.8203 48.7031 20.3047H48.6719C48.7135 20.7526 48.7344 21.4844 48.7344 22.5V30H47.4688V18.7969H49.2031L52.6406 26.6094C52.9062 27.2083 53.0781 27.6562 53.1562 27.9531H53.2031C53.4271 27.3385 53.6068 26.8802 53.7422 26.5781L57.25 18.7969H58.8906V30ZM67.3984 30H66.1172V28.75H66.0859C65.5286 29.7083 64.7083 30.1875 63.625 30.1875C62.8281 30.1875 62.2031 29.9766 61.75 29.5547C61.3021 29.1328 61.0781 28.5729 61.0781 27.875C61.0781 26.3802 61.9583 25.5104 63.7188 25.2656L66.1172 24.9297C66.1172 23.5703 65.5677 22.8906 64.4688 22.8906C63.5052 22.8906 62.6354 23.2188 61.8594 23.875V22.5625C62.6458 22.0625 63.5521 21.8125 64.5781 21.8125C66.4583 21.8125 67.3984 22.8073 67.3984 24.7969V30ZM66.1172 25.9531L64.1875 26.2188C63.5938 26.3021 63.1458 26.4505 62.8438 26.6641C62.5417 26.8724 62.3906 27.2448 62.3906 27.7812C62.3906 28.1719 62.5286 28.4922 62.8047 28.7422C63.0859 28.987 63.4583 29.1094 63.9219 29.1094C64.5573 29.1094 65.0807 28.888 65.4922 28.4453C65.9089 27.9974 66.1172 27.4323 66.1172 26.75V25.9531ZM73.5234 29.9219C73.2214 30.0885 72.8229 30.1719 72.3281 30.1719C70.9271 30.1719 70.2266 29.3906 70.2266 27.8281V23.0938H68.8516V22H70.2266V20.0469L71.5078 19.6328V22H73.5234V23.0938H71.5078V27.6016C71.5078 28.138 71.599 28.5208 71.7812 28.75C71.9635 28.9792 72.2656 29.0938 72.6875 29.0938C73.0104 29.0938 73.2891 29.0052 73.5234 28.8281V29.9219ZM76.5469 28.8438H76.5156V33.6797H75.2344V22H76.5156V23.4062H76.5469C77.1771 22.3438 78.099 21.8125 79.3125 21.8125C80.3438 21.8125 81.1484 22.1719 81.7266 22.8906C82.3047 23.6042 82.5938 24.5625 82.5938 25.7656C82.5938 27.1042 82.2682 28.1771 81.6172 28.9844C80.9661 29.7865 80.0755 30.1875 78.9453 30.1875C77.9089 30.1875 77.1094 29.7396 76.5469 28.8438ZM76.5156 25.6172V26.7344C76.5156 27.3958 76.7292 27.9583 77.1562 28.4219C77.5885 28.8802 78.1354 29.1094 78.7969 29.1094C79.5729 29.1094 80.1797 28.8125 80.6172 28.2188C81.0599 27.625 81.2812 26.7995 81.2812 25.7422C81.2812 24.8516 81.0755 24.1536 80.6641 23.6484C80.2526 23.1432 79.6953 22.8906 78.9922 22.8906C78.2474 22.8906 77.6484 23.151 77.1953 23.6719C76.7422 24.1875 76.5156 24.8359 76.5156 25.6172ZM85.9219 30H84.6406V18.1562H85.9219V30ZM91.8594 30.1875C90.6771 30.1875 89.7318 29.8151 89.0234 29.0703C88.3203 28.3203 87.9688 27.3281 87.9688 26.0938C87.9688 24.75 88.3359 23.7005 89.0703 22.9453C89.8047 22.1901 90.7969 21.8125 92.0469 21.8125C93.2396 21.8125 94.1693 22.1797 94.8359 22.9141C95.5078 23.6484 95.8438 24.6667 95.8438 25.9688C95.8438 27.2448 95.4818 28.2682 94.7578 29.0391C94.0391 29.8047 93.0729 30.1875 91.8594 30.1875ZM91.9531 22.8906C91.1302 22.8906 90.4792 23.1719 90 23.7344C89.5208 24.2917 89.2812 25.0625 89.2812 26.0469C89.2812 26.9948 89.5234 27.7422 90.0078 28.2891C90.4922 28.8359 91.1406 29.1094 91.9531 29.1094C92.7812 29.1094 93.4167 28.8411 93.8594 28.3047C94.3073 27.7682 94.5312 27.0052 94.5312 26.0156C94.5312 25.0156 94.3073 24.2448 93.8594 23.7031C93.4167 23.1615 92.7812 22.8906 91.9531 22.8906ZM101.602 29.9219C101.299 30.0885 100.901 30.1719 100.406 30.1719C99.0052 30.1719 98.3047 29.3906 98.3047 27.8281V23.0938H96.9297V22H98.3047V20.0469L99.5859 19.6328V22H101.602V23.0938H99.5859V27.6016C99.5859 28.138 99.6771 28.5208 99.8594 28.75C100.042 28.9792 100.344 29.0938 100.766 29.0938C101.089 29.0938 101.367 29.0052 101.602 28.8281V29.9219ZM104.594 30H103.312V18.1562H104.594V30ZM107.844 19.9688C107.615 19.9688 107.419 19.8906 107.258 19.7344C107.096 19.5781 107.016 19.3802 107.016 19.1406C107.016 18.901 107.096 18.7031 107.258 18.5469C107.419 18.3854 107.615 18.3047 107.844 18.3047C108.078 18.3047 108.276 18.3854 108.438 18.5469C108.604 18.7031 108.688 18.901 108.688 19.1406C108.688 19.3698 108.604 19.5651 108.438 19.7266C108.276 19.888 108.078 19.9688 107.844 19.9688ZM108.469 30H107.188V22H108.469V30ZM112.375 28.8438H112.344V30H111.062V18.1562H112.344V23.4062H112.375C113.005 22.3438 113.927 21.8125 115.141 21.8125C116.167 21.8125 116.969 22.1719 117.547 22.8906C118.13 23.6042 118.422 24.5625 118.422 25.7656C118.422 27.1042 118.096 28.1771 117.445 28.9844C116.794 29.7865 115.904 30.1875 114.773 30.1875C113.716 30.1875 112.917 29.7396 112.375 28.8438ZM112.344 25.6172V26.7344C112.344 27.3958 112.557 27.9583 112.984 28.4219C113.417 28.8802 113.964 29.1094 114.625 29.1094C115.401 29.1094 116.008 28.8125 116.445 28.2188C116.888 27.625 117.109 26.7995 117.109 25.7422C117.109 24.8516 116.904 24.1536 116.492 23.6484C116.081 23.1432 115.523 22.8906 114.82 22.8906C114.076 22.8906 113.477 23.151 113.023 23.6719C112.57 24.1875 112.344 24.8359 112.344 25.6172Z" fill="#ADBAC7"/>
<rect x="1" y="1" width="138" height="45" rx="4" stroke="#444C56" stroke-width="2"/>
<defs>
<clipPath id="clip0_28_4967">
<rect width="18" height="18" fill="white" transform="translate(16 14.5)"/>
</clipPath>
</defs>
</svg>
