<svg xmlns="http://www.w3.org/2000/svg" width="170" height="56" fill="none"><rect width="152" height="48" x="9" y="4" fill="#F3E5F5" rx="4"/><path fill="#fff" d="M49.78 28c0 5.402-4.378 9.78-9.78 9.78-5.402 0-9.78-4.378-9.78-9.78 0-5.402 4.378-9.78 9.78-9.78 5.402 0 9.78 4.378 9.78 9.78Z"/><path fill="gray" d="M40 18.108c-5.462 0-9.892 4.43-9.892 9.892s4.43 9.892 9.892 9.892 9.892-4.43 9.892-9.892-4.43-9.892-9.892-9.892Zm0 .222A9.668 9.668 0 0 1 49.67 28 9.668 9.668 0 0 1 40 37.67 9.668 9.668 0 0 1 30.33 28 9.668 9.668 0 0 1 40 18.33Z"/><path fill="#fff" d="M47.336 28a7.335 7.335 0 1 1-14.671 0 7.335 7.335 0 0 1 14.67 0Z"/><path fill="gray" d="M40 20.553A7.448 7.448 0 0 0 32.553 28 7.448 7.448 0 0 0 40 35.447 7.448 7.448 0 0 0 47.447 28 7.448 7.448 0 0 0 40 20.553Zm0 .223A7.223 7.223 0 0 1 47.224 28 7.223 7.223 0 0 1 40 35.224 7.223 7.223 0 0 1 32.776 28 7.223 7.223 0 0 1 40 20.776Z"/><path fill="#fff" d="M44.89 28a4.89 4.89 0 1 1-9.78 0 4.89 4.89 0 0 1 9.78 0Z"/><path fill="gray" d="M40 22.998A5.003 5.003 0 0 0 34.998 28c0 2.76 2.241 5.002 5.002 5.002A5.003 5.003 0 0 0 45.002 28c0-2.76-2.241-5.002-5.002-5.002Zm0 .223c2.64 0 4.78 2.138 4.78 4.779 0 2.64-2.14 4.78-4.78 4.78A4.778 4.778 0 0 1 35.22 28c0-2.64 2.14-4.78 4.78-4.78Z"/><path fill="#fff" d="M42.445 28a2.445 2.445 0 1 1-4.89 0 2.445 2.445 0 0 1 4.89 0Z"/><path fill="gray" d="M40 25.444A2.558 2.558 0 0 0 37.444 28 2.558 2.558 0 0 0 40 30.556 2.558 2.558 0 0 0 42.556 28 2.558 2.558 0 0 0 40 25.444Zm0 .222A2.332 2.332 0 0 1 42.334 28 2.332 2.332 0 0 1 40 30.334 2.332 2.332 0 0 1 37.666 28 2.332 2.332 0 0 1 40 25.666Z"/><path fill="#fff" d="M40 18.22v19.56-19.56Zm6.89 16.671L33.11 21.109l13.782 13.782Zm0-13.782L33.11 34.891l13.782-13.782ZM49.78 28H30.22Z"/><path fill="gray" d="M39.889 18.22v9.512l-6.701-6.701-.158.157 6.702 6.7h-9.513v.223h9.513l-6.702 6.701.158.158 6.7-6.702v9.513h.223v-9.513l6.701 6.702.157-.158-6.7-6.7h9.512v-.223h-9.513l6.701-6.701-.157-.157-6.7 6.7V18.22h-.223Z"/><g opacity=".8"><path fill="#44C" d="M40 28h2a2.005 2.005 0 0 0 0-.556L40 28Z"/><path fill="gray" d="m42.047 27.374-2.062.572.015.11h2.05l.006-.048c.027-.19.027-.382 0-.572l-.009-.062Zm-.101.143c.015.143.016.285 0 .428h-1.538l1.538-.428Z"/><path fill="#BC3" d="m40 28 3.779-4.78a6.113 6.113 0 0 0-1.667-.888L40 28Z"/><path fill="gray" d="m42.079 22.261-2.131 5.72.096.053 3.814-4.823-.046-.035a6.17 6.17 0 0 0-1.682-.897l-.051-.018Zm.064.145a6.05 6.05 0 0 1 1.554.829l-3.522 4.454 1.968-5.283Z"/><path fill="#D93" d="m40 28-1.778-8.002a8.224 8.224 0 0 0-3.446 1.667L40 28Z"/><path fill="gray" d="m38.264 19.931-.054.012a8.28 8.28 0 0 0-3.469 1.679l-.043.035 5.26 6.378.096-.047-1.79-8.057Zm-.084.136 1.715 7.718-5.038-6.11a8.166 8.166 0 0 1 3.323-1.608Z"/><path fill="#DB3" d="m40 28-6.446-3.112a7.225 7.225 0 0 0-.556 4.335L40 28Z"/><path fill="gray" d="m33.527 24.813-.024.052a7.28 7.28 0 0 0-.56 4.368l.01.054 7.227-1.262-.156-.075-6.497-3.137Zm.057.151 6.236 3.011-6.773 1.183a7.163 7.163 0 0 1 .537-4.194Z"/><path fill="#3BB" d="m40 28-3.668 1.778c.06.19.135.376.223.556L40 28Z"/><path fill="gray" d="m39.976 27.95-3.711 1.8.014.045c.062.193.137.381.226.563l.028.058 3.498-2.37-.055-.096Zm-.645.436-2.75 1.863a4.07 4.07 0 0 1-.178-.443l2.928-1.42Z"/><path fill="#3C9" d="m40 28-1.111 5c.66.133 1.34.133 2 0L40 28Z"/><path fill="gray" d="m39.946 27.988-1.124 5.057.056.011a5.167 5.167 0 0 0 2.022 0l.053-.01-.898-5.056-.11-.002Zm.048.296.83 4.669a5.053 5.053 0 0 1-1.868 0l1.038-4.67Z"/><path fill="#D73" d="m40 28 5.113 6.446c.494-.392.941-.84 1.334-1.333L40 28Z"/><path fill="gray" d="m40.035 27.956-.078.079 5.147 6.49.043-.035a8.28 8.28 0 0 0 1.343-1.343l.035-.044-6.49-5.147Zm.308.387 6.023 4.777c-.37.459-.787.876-1.246 1.246l-4.777-6.023Z"/></g><path fill="#000" d="M80.89 34.5h-1.304v-7.516c0-.593.036-1.32.11-2.18h-.032c-.125.506-.237.868-.336 1.087L75.5 34.5h-.64l-3.82-8.547c-.11-.25-.222-.633-.337-1.148h-.031c.041.448.062 1.18.062 2.195v7.5H69.47V23.297h1.734l3.438 7.812c.265.6.437 1.047.515 1.344h.047c.224-.615.404-1.073.54-1.375l3.507-7.781h1.64V34.5Zm8.508 0h-1.28v-1.25h-.032c-.557.958-1.378 1.438-2.461 1.438-.797 0-1.422-.211-1.875-.633-.448-.422-.672-.982-.672-1.68 0-1.495.88-2.365 2.64-2.61l2.4-.335c0-1.36-.55-2.04-1.65-2.04-.963 0-1.833.329-2.609.985v-1.313c.787-.5 1.693-.75 2.72-.75 1.88 0 2.82.995 2.82 2.985V34.5Zm-1.28-4.047-1.93.266c-.594.083-1.042.232-1.344.445-.302.208-.453.58-.453 1.117 0 .39.138.711.414.961.28.245.653.367 1.117.367.635 0 1.159-.221 1.57-.664.417-.448.625-1.013.625-1.695v-.797Zm7.405 3.969c-.302.167-.7.25-1.195.25-1.4 0-2.101-.781-2.101-2.344v-4.734h-1.375V26.5h1.375v-1.953l1.28-.414V26.5h2.016v1.094h-2.015v4.508c0 .536.091.919.273 1.148.182.23.485.344.906.344.323 0 .602-.089.836-.266v1.094Zm3.024-1.078h-.031v4.836h-1.282V26.5h1.282v1.406h.03c.631-1.062 1.553-1.593 2.766-1.593 1.032 0 1.836.359 2.415 1.078.578.713.867 1.672.867 2.875 0 1.338-.326 2.411-.977 3.218-.651.802-1.541 1.203-2.672 1.203-1.036 0-1.836-.447-2.398-1.343Zm-.031-3.227v1.117c0 .662.213 1.224.64 1.688.432.458.979.687 1.641.687.776 0 1.383-.297 1.82-.89.443-.594.664-1.42.664-2.477 0-.89-.205-1.588-.617-2.094-.411-.505-.969-.757-1.672-.757-.745 0-1.344.26-1.797.78-.453.517-.68 1.165-.68 1.946Zm9.406 4.383h-1.281V22.656h1.281V34.5Zm5.937.188c-1.182 0-2.127-.373-2.836-1.118-.703-.75-1.054-1.742-1.054-2.976 0-1.344.367-2.393 1.101-3.149.735-.755 1.727-1.133 2.977-1.133 1.193 0 2.122.368 2.789 1.102.672.734 1.008 1.753 1.008 3.055 0 1.276-.362 2.3-1.086 3.07-.719.766-1.685 1.148-2.899 1.148Zm.094-7.297c-.823 0-1.474.28-1.953.843-.479.558-.719 1.328-.719 2.313 0 .948.242 1.695.727 2.242.484.547 1.133.82 1.945.82.828 0 1.464-.268 1.906-.804.448-.537.672-1.3.672-2.29 0-1-.224-1.77-.672-2.312-.442-.541-1.078-.812-1.906-.812Zm9.649 7.03c-.303.168-.701.25-1.196.25-1.401 0-2.101-.78-2.101-2.343v-4.734h-1.375V26.5h1.375v-1.953l1.281-.414V26.5h2.016v1.094h-2.016v4.508c0 .536.091.919.273 1.148.183.23.485.344.907.344.323 0 .601-.089.836-.266v1.094Zm2.992.079h-1.282V22.656h1.282V34.5Zm3.25-10.031a.812.812 0 0 1-.586-.235.79.79 0 0 1-.242-.593c0-.24.08-.438.242-.594a.798.798 0 0 1 .586-.242.81.81 0 0 1 .594.242.78.78 0 0 1 .25.594c0 .229-.084.424-.25.586a.81.81 0 0 1-.594.242Zm.625 10.031h-1.281v-8h1.281v8Zm3.906-1.156h-.031V34.5h-1.282V22.656h1.282v5.25h.031c.63-1.062 1.552-1.593 2.766-1.593 1.026 0 1.828.359 2.406 1.078.583.713.875 1.672.875 2.875 0 1.338-.326 2.411-.977 3.218-.651.802-1.541 1.203-2.672 1.203-1.057 0-1.856-.447-2.398-1.343Zm-.031-3.227v1.117c0 .662.213 1.224.64 1.688.433.458.98.687 1.641.687.776 0 1.383-.297 1.82-.89.443-.594.664-1.42.664-2.477 0-.89-.205-1.588-.617-2.094-.411-.505-.969-.757-1.672-.757-.744 0-1.343.26-1.797.78-.453.517-.679 1.165-.679 1.946Z"/><rect width="152" height="48" x="9" y="4" stroke="#9C27B0" stroke-width="2" rx="4"/></svg>