<svg width="19" height="18" viewBox="0 0 19 18" fill="none" xmlns="http://www.w3.org/2000/svg">
<g clip-path="url(#clip0)">
<path d="M18.7955 9.00001C18.7955 13.8601 14.8556 17.8 9.9955 17.8C5.13539 17.8 1.1955 13.8601 1.1955 9.00001C1.1955 4.13991 5.13539 0.200012 9.9955 0.200012C14.8556 0.200012 18.7955 4.13991 18.7955 9.00001Z" fill="white"/>
<path d="M9.99549 0.100006C5.08134 0.100006 1.09549 4.08586 1.09549 9.00001C1.09549 13.9142 5.08134 17.9 9.99549 17.9C14.9096 17.9 18.8955 13.9142 18.8955 9.00001C18.8955 4.08586 14.9096 0.100006 9.99549 0.100006ZM9.99549 0.300006C14.8016 0.300006 18.6955 4.19394 18.6955 9.00001C18.6955 13.8061 14.8016 17.7 9.99549 17.7C5.18943 17.7 1.29549 13.8061 1.29549 9.00001C1.29549 4.19394 5.18943 0.300006 9.99549 0.300006Z" fill="#808080"/>
<path d="M16.5955 9.00003C16.5955 12.6451 13.6406 15.6 9.99549 15.6C6.35041 15.6 3.39549 12.6451 3.39549 9.00003C3.39549 5.35495 6.35041 2.40002 9.99549 2.40002C13.6406 2.40002 16.5955 5.35495 16.5955 9.00003Z" fill="white"/>
<path d="M9.99549 2.30002C6.29636 2.30002 3.29549 5.3009 3.29549 9.00002C3.29549 12.6991 6.29636 15.7 9.99549 15.7C13.6946 15.7 16.6955 12.6991 16.6955 9.00002C16.6955 5.3009 13.6946 2.30002 9.99549 2.30002ZM9.99549 2.50002C13.5865 2.50002 16.4955 5.40898 16.4955 9.00002C16.4955 12.5911 13.5865 15.5 9.99549 15.5C6.40445 15.5 3.49549 12.5911 3.49549 9.00002C3.49549 5.40898 6.40445 2.50002 9.99549 2.50002Z" fill="#808080"/>
<path d="M14.3955 9.00001C14.3955 11.4301 12.4255 13.4 9.99548 13.4C7.56542 13.4 5.59547 11.4301 5.59547 9.00001C5.59547 6.56995 7.56542 4.60001 9.99548 4.60001C12.4255 4.60001 14.3955 6.56995 14.3955 9.00001Z" fill="white"/>
<path d="M9.99548 4.5C7.51139 4.5 5.49548 6.5159 5.49548 9C5.49548 11.4841 7.51139 13.5 9.99548 13.5C12.4796 13.5 14.4955 11.4841 14.4955 9C14.4955 6.5159 12.4796 4.5 9.99548 4.5ZM9.99548 4.7C12.3715 4.7 14.2955 6.62399 14.2955 9C14.2955 11.376 12.3715 13.3 9.99548 13.3C7.61947 13.3 5.69548 11.376 5.69548 9C5.69548 6.62399 7.61947 4.7 9.99548 4.7Z" fill="#808080"/>
<path d="M12.1955 9.00001C12.1955 10.215 11.2105 11.2 9.9955 11.2C8.78047 11.2 7.7955 10.215 7.7955 9.00001C7.7955 7.78499 8.78047 6.80002 9.9955 6.80002C11.2105 6.80002 12.1955 7.78499 12.1955 9.00001Z" fill="white"/>
<path d="M9.9955 6.70001C8.72643 6.70001 7.6955 7.73094 7.6955 9.00002C7.6955 10.2691 8.72643 11.3 9.9955 11.3C11.2646 11.3 12.2955 10.2691 12.2955 9.00002C12.2955 7.73094 11.2646 6.70001 9.9955 6.70001ZM9.9955 6.90001C11.1565 6.90001 12.0955 7.83903 12.0955 9.00002C12.0955 10.161 11.1565 11.1 9.9955 11.1C8.83452 11.1 7.8955 10.161 7.8955 9.00002C7.8955 7.83903 8.83452 6.90001 9.9955 6.90001Z" fill="#808080"/>
<path d="M9.9955 0.200012V17.8V0.200012ZM16.1955 15.2L3.7955 2.80001L16.1955 15.2ZM16.1955 2.80001L3.7955 15.2L16.1955 2.80001ZM18.7955 9.00001H1.1955H18.7955Z" fill="white"/>
<path d="M9.8955 0.200012V8.75861L3.8662 2.72931L3.72479 2.87072L9.75409 8.90001H1.1955V9.10001H9.75409L3.72479 15.1293L3.8662 15.2707L9.8955 9.24142V17.8H10.0955V9.24142L16.1248 15.2707L16.2662 15.1293L10.2369 9.10001H18.7955V8.90001H10.2369L16.2662 2.87072L16.1248 2.72931L10.0955 8.75861V0.200012H9.8955Z" fill="#808080"/>
<g opacity="0.8">
<path d="M9.99472 9H11.7947C11.818 8.83415 11.818 8.66586 11.7947 8.5L9.99472 9Z" fill="#4444CC"/>
<path d="M11.8371 8.43652L9.98199 8.95176L9.99547 9.05001H11.839L11.8451 9.00704C11.869 8.83657 11.869 8.66343 11.8451 8.49297L11.8371 8.43652ZM11.7459 8.56582C11.7594 8.6937 11.7606 8.82222 11.7459 8.95001H10.3627L11.7459 8.56582Z" fill="#808080"/>
<path d="M9.99548 8.99999L13.3955 4.69999C12.94 4.3572 12.4339 4.08731 11.8955 3.89999L9.99548 8.99999Z" fill="#BBCC33"/>
<path d="M11.8658 3.8367L9.94861 8.9826L10.0347 9.03104L13.4664 4.6908L13.4256 4.65994C12.9659 4.31403 12.4552 4.04173 11.9119 3.85272L11.8658 3.8367ZM11.924 3.96678C12.424 4.14579 12.8945 4.397 13.3218 4.71229L10.1533 8.71971L11.924 3.96678Z" fill="#808080"/>
<path d="M9.99549 8.99999L8.39549 1.79999C7.25857 2.04924 6.19648 2.56315 5.29549 3.29999L9.99549 8.99999Z" fill="#DD9933"/>
<path d="M8.43357 1.74042L8.38474 1.75116C7.24014 2.00209 6.17092 2.5195 5.26384 3.26132L5.22498 3.29315L9.95681 9.03182L10.0443 8.98905L8.43357 1.74042ZM8.35818 1.86229L9.90134 8.80702L5.36794 3.30917C6.2414 2.60482 7.2638 2.11004 8.35818 1.86229Z" fill="#808080"/>
<path d="M9.99547 9.00001L4.19547 6.20001C3.63018 7.41722 3.45552 8.77957 3.69547 10.1L9.99547 9.00001Z" fill="#DDBB33"/>
<path d="M4.17145 6.13281L4.15016 6.17891C3.58053 7.40547 3.40446 8.77839 3.64626 10.109L3.65524 10.1578L10.1572 9.02246L10.0172 8.95488L4.17145 6.13281ZM4.22302 6.26875L9.83376 8.97754L3.73962 10.0416C3.51757 8.7635 3.68596 7.44959 4.22302 6.26875Z" fill="#808080"/>
<path d="M9.99548 9L6.69548 10.6C6.74991 10.7713 6.81676 10.9384 6.89548 11.1L9.99548 9Z" fill="#33BBBB"/>
<path d="M9.9736 8.95508L6.63474 10.5738L6.64782 10.6152C6.70299 10.7889 6.77077 10.9581 6.85056 11.1219L6.87575 11.1738L10.0236 9.04141L9.9736 8.95508ZM9.39313 9.34746L6.91872 11.0238C6.85797 10.8939 6.8042 10.7608 6.75915 10.6246L9.39313 9.34746Z" fill="#808080"/>
<path d="M9.99548 8.99939L8.99548 13.4994C9.58963 13.6179 10.2013 13.6179 10.7955 13.4994L9.99548 8.99939Z" fill="#33CC99"/>
<path d="M9.94665 8.98904L8.93552 13.5391L8.98571 13.549C9.58631 13.6688 10.2046 13.6688 10.8052 13.549L10.8533 13.5394L10.0447 8.99119L9.94665 8.98904ZM9.99001 9.25506L10.7369 13.4559C10.1813 13.5604 9.61201 13.5603 9.05641 13.456L9.99001 9.25506Z" fill="#808080"/>
<path d="M9.99548 8.99997L14.5955 14.8C15.0402 14.4473 15.4428 14.0447 15.7955 13.6L9.99548 8.99997Z" fill="#DD7733"/>
<path d="M10.0265 8.96072L9.95622 9.03104L14.5873 14.8703L14.6265 14.8392C15.0742 14.4842 15.4797 14.0787 15.8347 13.631L15.8658 13.5918L10.0265 8.96072ZM10.3043 9.30877L15.7228 13.6062C15.3906 14.0194 15.0149 14.3951 14.6017 14.7273L10.3043 9.30877Z" fill="#808080"/>
</g>
</g>
<defs>
<clipPath id="clip0">
<rect width="18" height="18" fill="white" transform="translate(0.995483)"/>
</clipPath>
</defs>
</svg>
