<svg width="101" height="36" viewBox="0 0 101 36" fill="none" xmlns="http://www.w3.org/2000/svg">
<g filter="url(#filter0_d)">
<path d="M2.5 3C2.5 1.34315 3.84315 0 5.5 0H95.5C97.1569 0 98.5 1.34315 98.5 3V29C98.5 30.6569 97.1569 32 95.5 32H5.5C3.84315 32 2.5 30.6569 2.5 29V3Z" fill="white"/>
<g clip-path="url(#clip0)">
<path d="M28.3 16C28.3 20.8601 24.3601 24.8 19.5 24.8C14.6399 24.8 10.7 20.8601 10.7 16C10.7 11.1399 14.6399 7.2 19.5 7.2C24.3601 7.2 28.3 11.1399 28.3 16Z" fill="white"/>
<path d="M19.5 7.1C14.5859 7.1 10.6 11.0859 10.6 16C10.6 20.9142 14.5859 24.9 19.5 24.9C24.4142 24.9 28.4 20.9142 28.4 16C28.4 11.0859 24.4142 7.1 19.5 7.1ZM19.5 7.3C24.3061 7.3 28.2 11.1939 28.2 16C28.2 20.8061 24.3061 24.7 19.5 24.7C14.6939 24.7 10.8 20.8061 10.8 16C10.8 11.1939 14.6939 7.3 19.5 7.3Z" fill="#808080"/>
<path d="M26.1 16C26.1 19.6451 23.1451 22.6 19.5 22.6C15.8549 22.6 12.9 19.6451 12.9 16C12.9 12.3549 15.8549 9.40001 19.5 9.40001C23.1451 9.40001 26.1 12.3549 26.1 16Z" fill="white"/>
<path d="M19.5 9.3C15.8009 9.3 12.8 12.3009 12.8 16C12.8 19.6991 15.8009 22.7 19.5 22.7C23.1991 22.7 26.2 19.6991 26.2 16C26.2 12.3009 23.1991 9.3 19.5 9.3ZM19.5 9.5C23.091 9.5 26 12.409 26 16C26 19.591 23.091 22.5 19.5 22.5C15.909 22.5 13 19.591 13 16C13 12.409 15.909 9.5 19.5 9.5Z" fill="#808080"/>
<path d="M23.9 16C23.9 18.4301 21.9301 20.4 19.5 20.4C17.0699 20.4 15.1 18.4301 15.1 16C15.1 13.5699 17.0699 11.6 19.5 11.6C21.9301 11.6 23.9 13.5699 23.9 16Z" fill="white"/>
<path d="M19.5 11.5C17.0159 11.5 15 13.5159 15 16C15 18.4841 17.0159 20.5 19.5 20.5C21.9841 20.5 24 18.4841 24 16C24 13.5159 21.9841 11.5 19.5 11.5ZM19.5 11.7C21.876 11.7 23.8 13.624 23.8 16C23.8 18.376 21.876 20.3 19.5 20.3C17.124 20.3 15.2 18.376 15.2 16C15.2 13.624 17.124 11.7 19.5 11.7Z" fill="#808080"/>
<path d="M21.7 16C21.7 17.215 20.715 18.2 19.5 18.2C18.285 18.2 17.3 17.215 17.3 16C17.3 14.785 18.285 13.8 19.5 13.8C20.715 13.8 21.7 14.785 21.7 16Z" fill="white"/>
<path d="M19.5 13.7C18.2309 13.7 17.2 14.7309 17.2 16C17.2 17.2691 18.2309 18.3 19.5 18.3C20.7691 18.3 21.8 17.2691 21.8 16C21.8 14.7309 20.7691 13.7 19.5 13.7ZM19.5 13.9C20.661 13.9 21.6 14.839 21.6 16C21.6 17.161 20.661 18.1 19.5 18.1C18.339 18.1 17.4 17.161 17.4 16C17.4 14.839 18.339 13.9 19.5 13.9Z" fill="#808080"/>
<path d="M19.5 7.2V24.8V7.2ZM25.7 22.2L13.3 9.8L25.7 22.2ZM25.7 9.8L13.3 22.2L25.7 9.8ZM28.3 16H10.7Z" fill="white"/>
<path d="M19.4 7.2V15.7586L13.3707 9.7293L13.2293 9.87071L19.2586 15.9H10.7V16.1H19.2586L13.2293 22.1293L13.3707 22.2707L19.4 16.2414V24.8H19.6V16.2414L25.6293 22.2707L25.7707 22.1293L19.7414 16.1H28.3V15.9H19.7414L25.7707 9.87071L25.6293 9.7293L19.6 15.7586V7.2H19.4Z" fill="#808080"/>
<g opacity="0.8">
<path d="M19.4992 16H21.2993C21.3225 15.8341 21.3225 15.6659 21.2993 15.5L19.4992 16Z" fill="#4444CC"/>
<path d="M21.3416 15.4365L19.4865 15.9518L19.5 16.05H21.3436L21.3496 16.007C21.3735 15.8366 21.3735 15.6634 21.3496 15.493L21.3416 15.4365ZM21.2504 15.5658C21.2639 15.6937 21.2651 15.8222 21.2504 15.95H19.8672L21.2504 15.5658Z" fill="#808080"/>
<path d="M19.5 16L22.9 11.7C22.4445 11.3572 21.9384 11.0873 21.4 10.9L19.5 16Z" fill="#BBCC33"/>
<path d="M21.3703 10.8367L19.4531 15.9826L19.5393 16.0311L22.9709 11.6908L22.9301 11.66C22.4704 11.3141 21.9597 11.0418 21.4164 10.8527L21.3703 10.8367ZM21.4285 10.9668C21.9285 11.1458 22.399 11.397 22.8264 11.7123L19.6578 15.7197L21.4285 10.9668Z" fill="#808080"/>
<path d="M19.5 16L17.9 8.8C16.7631 9.04925 15.701 9.56316 14.8 10.3L19.5 16Z" fill="#DD9933"/>
<path d="M17.9381 8.74043L17.8893 8.75117C16.7447 9.0021 15.6754 9.51951 14.7684 10.2613L14.7295 10.2932L19.4613 16.0318L19.5488 15.9891L17.9381 8.74043ZM17.8627 8.8623L19.4059 15.807L14.8725 10.3092C15.7459 9.60483 16.7683 9.11005 17.8627 8.8623Z" fill="#808080"/>
<path d="M19.5 16L13.7 13.2C13.1347 14.4172 12.96 15.7796 13.2 17.1L19.5 16Z" fill="#DDBB33"/>
<path d="M13.676 13.1328L13.6547 13.1789C13.085 14.4055 12.909 15.7784 13.1508 17.109L13.1598 17.1578L19.6617 16.0225L19.5217 15.9549L13.676 13.1328ZM13.7275 13.2687L19.3383 15.9775L13.2441 17.0416C13.0221 15.7635 13.1905 14.4496 13.7275 13.2687Z" fill="#808080"/>
<path d="M19.5 16L16.2 17.6C16.2544 17.7713 16.3213 17.9384 16.4 18.1L19.5 16Z" fill="#33BBBB"/>
<path d="M19.4781 15.9551L16.1393 17.5738L16.1523 17.6152C16.2075 17.7889 16.2753 17.9581 16.3551 18.1219L16.3803 18.1738L19.5281 16.0414L19.4781 15.9551ZM18.8976 16.3475L16.4232 18.0238C16.3625 17.8939 16.3087 17.7608 16.2637 17.6246L18.8976 16.3475Z" fill="#808080"/>
<path d="M19.5 15.9994L18.5 20.4994C19.0941 20.6179 19.7059 20.6179 20.3 20.4994L19.5 15.9994Z" fill="#33CC99"/>
<path d="M19.4512 15.9891L18.44 20.5391L18.4902 20.549C19.0908 20.6689 19.7092 20.6689 20.3098 20.549L20.3578 20.5395L19.5492 15.9912L19.4512 15.9891ZM19.4945 16.2551L20.2414 20.4559C19.6859 20.5605 19.1165 20.5604 18.5609 20.4561L19.4945 16.2551Z" fill="#808080"/>
<path d="M19.5 16L24.1 21.8C24.5447 21.4473 24.9473 21.0447 25.3 20.6L19.5 16Z" fill="#DD7733"/>
<path d="M19.5311 15.9607L19.4607 16.0311L24.0918 21.8703L24.1311 21.8393C24.5788 21.4842 24.9842 21.0788 25.3393 20.6311L25.3703 20.5918L19.5311 15.9607ZM19.8088 16.3088L25.2273 20.6063C24.8951 21.0194 24.5194 21.3951 24.1062 21.7273L19.8088 16.3088Z" fill="#808080"/>
</g>
</g>
<path d="M38.9434 11.4688L41.7324 18.4297L44.5215 11.4688H45.9805V20H44.8555V16.6777L44.9609 13.0918L42.1602 20H41.2988L38.5039 13.1094L38.6152 16.6777V20H37.4902V11.4688H38.9434ZM51.7109 20C51.6484 19.875 51.5977 19.6523 51.5586 19.332C51.0547 19.8555 50.4531 20.1172 49.7539 20.1172C49.1289 20.1172 48.6152 19.9414 48.2129 19.5898C47.8145 19.2344 47.6152 18.7852 47.6152 18.2422C47.6152 17.582 47.8652 17.0703 48.3652 16.707C48.8691 16.3398 49.5762 16.1562 50.4863 16.1562H51.541V15.6582C51.541 15.2793 51.4277 14.9785 51.2012 14.7559C50.9746 14.5293 50.6406 14.416 50.1992 14.416C49.8125 14.416 49.4883 14.5137 49.2266 14.709C48.9648 14.9043 48.834 15.1406 48.834 15.418H47.7441C47.7441 15.1016 47.8555 14.7969 48.0781 14.5039C48.3047 14.207 48.6094 13.9727 48.9922 13.8008C49.3789 13.6289 49.8027 13.543 50.2637 13.543C50.9941 13.543 51.5664 13.7266 51.9805 14.0938C52.3945 14.457 52.6094 14.959 52.625 15.5996V18.5176C52.625 19.0996 52.6992 19.5625 52.8477 19.9062V20H51.7109ZM49.9121 19.1738C50.252 19.1738 50.5742 19.0859 50.8789 18.9102C51.1836 18.7344 51.4043 18.5059 51.541 18.2246V16.9238H50.6914C49.3633 16.9238 48.6992 17.3125 48.6992 18.0898C48.6992 18.4297 48.8125 18.6953 49.0391 18.8867C49.2656 19.0781 49.5566 19.1738 49.9121 19.1738ZM55.7949 12.125V13.6602H56.9785V14.498H55.7949V18.4297C55.7949 18.6836 55.8477 18.875 55.9531 19.0039C56.0586 19.1289 56.2383 19.1914 56.4922 19.1914C56.6172 19.1914 56.7891 19.168 57.0078 19.1211V20C56.7227 20.0781 56.4453 20.1172 56.1758 20.1172C55.6914 20.1172 55.3262 19.9707 55.0801 19.6777C54.834 19.3848 54.7109 18.9688 54.7109 18.4297V14.498H53.5566V13.6602H54.7109V12.125H55.7949ZM63.6055 16.9004C63.6055 17.8652 63.3848 18.6426 62.9434 19.2324C62.502 19.8223 61.9043 20.1172 61.1504 20.1172C60.3809 20.1172 59.7754 19.873 59.334 19.3848V22.4375H58.25V13.6602H59.2402L59.293 14.3633C59.7344 13.8164 60.3477 13.543 61.1328 13.543C61.8945 13.543 62.4961 13.8301 62.9375 14.4043C63.3828 14.9785 63.6055 15.7773 63.6055 16.8008V16.9004ZM62.5215 16.7773C62.5215 16.0625 62.3691 15.498 62.0645 15.084C61.7598 14.6699 61.3418 14.4629 60.8105 14.4629C60.1543 14.4629 59.6621 14.7539 59.334 15.3359V18.3652C59.6582 18.9434 60.1543 19.2324 60.8223 19.2324C61.3418 19.2324 61.7539 19.0273 62.0586 18.6172C62.3672 18.2031 62.5215 17.5898 62.5215 16.7773ZM66.166 20H65.082V11H66.166V20ZM67.6191 16.7715C67.6191 16.1504 67.7402 15.5918 67.9824 15.0957C68.2285 14.5996 68.5684 14.2168 69.002 13.9473C69.4395 13.6777 69.9375 13.543 70.4961 13.543C71.3594 13.543 72.0566 13.8418 72.5879 14.4395C73.123 15.0371 73.3906 15.832 73.3906 16.8242V16.9004C73.3906 17.5176 73.2715 18.0723 73.0332 18.5645C72.7988 19.0527 72.4609 19.4336 72.0195 19.707C71.582 19.9805 71.0781 20.1172 70.5078 20.1172C69.6484 20.1172 68.9512 19.8184 68.416 19.2207C67.8848 18.623 67.6191 17.832 67.6191 16.8477V16.7715ZM68.709 16.9004C68.709 17.6035 68.8711 18.168 69.1953 18.5938C69.5234 19.0195 69.9609 19.2324 70.5078 19.2324C71.0586 19.2324 71.4961 19.0176 71.8203 18.5879C72.1445 18.1543 72.3066 17.5488 72.3066 16.7715C72.3066 16.0762 72.1406 15.5137 71.8086 15.084C71.4805 14.6504 71.043 14.4336 70.4961 14.4336C69.9609 14.4336 69.5293 14.6465 69.2012 15.0723C68.873 15.498 68.709 16.1074 68.709 16.9004ZM76.2207 12.125V13.6602H77.4043V14.498H76.2207V18.4297C76.2207 18.6836 76.2734 18.875 76.3789 19.0039C76.4844 19.1289 76.6641 19.1914 76.918 19.1914C77.043 19.1914 77.2148 19.168 77.4336 19.1211V20C77.1484 20.0781 76.8711 20.1172 76.6016 20.1172C76.1172 20.1172 75.752 19.9707 75.5059 19.6777C75.2598 19.3848 75.1367 18.9688 75.1367 18.4297V14.498H73.9824V13.6602H75.1367V12.125H76.2207ZM79.8535 20H78.7695V11H79.8535V20ZM82.7715 20H81.6875V13.6602H82.7715V20ZM81.5996 11.9785C81.5996 11.8027 81.6523 11.6543 81.7578 11.5332C81.8672 11.4121 82.0273 11.3516 82.2383 11.3516C82.4492 11.3516 82.6094 11.4121 82.7188 11.5332C82.8281 11.6543 82.8828 11.8027 82.8828 11.9785C82.8828 12.1543 82.8281 12.3008 82.7188 12.418C82.6094 12.5352 82.4492 12.5938 82.2383 12.5938C82.0273 12.5938 81.8672 12.5352 81.7578 12.418C81.6523 12.3008 81.5996 12.1543 81.5996 11.9785ZM89.8789 16.9004C89.8789 17.8691 89.6562 18.6484 89.2109 19.2383C88.7656 19.8242 88.168 20.1172 87.418 20.1172C86.6172 20.1172 85.998 19.834 85.5605 19.2676L85.5078 20H84.5117V11H85.5957V14.3574C86.0332 13.8145 86.6367 13.543 87.4062 13.543C88.1758 13.543 88.7793 13.834 89.2168 14.416C89.6582 14.998 89.8789 15.7949 89.8789 16.8066V16.9004ZM88.7949 16.7773C88.7949 16.0391 88.6523 15.4688 88.3672 15.0664C88.082 14.6641 87.6719 14.4629 87.1367 14.4629C86.4219 14.4629 85.9082 14.7949 85.5957 15.459V18.2012C85.9277 18.8652 86.4453 19.1973 87.1484 19.1973C87.668 19.1973 88.0723 18.9961 88.3613 18.5938C88.6504 18.1914 88.7949 17.5859 88.7949 16.7773Z" fill="black"/>
</g>
<defs>
<filter id="filter0_d" x="0.5" y="0" width="100" height="36" filterUnits="userSpaceOnUse" color-interpolation-filters="sRGB">
<feFlood flood-opacity="0" result="BackgroundImageFix"/>
<feColorMatrix in="SourceAlpha" type="matrix" values="0 0 0 0 0 0 0 0 0 0 0 0 0 0 0 0 0 0 127 0" result="hardAlpha"/>
<feOffset dy="2"/>
<feGaussianBlur stdDeviation="1"/>
<feComposite in2="hardAlpha" operator="out"/>
<feColorMatrix type="matrix" values="0 0 0 0 0 0 0 0 0 0 0 0 0 0 0 0 0 0 0.25 0"/>
<feBlend mode="normal" in2="BackgroundImageFix" result="effect1_dropShadow"/>
<feBlend mode="normal" in="SourceGraphic" in2="effect1_dropShadow" result="shape"/>
</filter>
<clipPath id="clip0">
<rect width="18" height="18" fill="white" transform="translate(10.5 7)"/>
</clipPath>
</defs>
</svg>
