<svg width="92" height="28" viewBox="0 0 92 28" fill="none" xmlns="http://www.w3.org/2000/svg">
<g filter="url(#filter0_d)">
<path d="M2.5 5C2.5 2.23858 4.73858 0 7.5 0H84.5C87.2614 0 89.5 2.23858 89.5 5V19C89.5 21.7614 87.2614 24 84.5 24H7.5C4.73858 24 2.5 21.7614 2.5 19V5Z" fill="white"/>
<g clip-path="url(#clip0)">
<path d="M25.3 12C25.3 16.8601 21.3601 20.8 16.5 20.8C11.6399 20.8 7.7 16.8601 7.7 12C7.7 7.1399 11.6399 3.2 16.5 3.2C21.3601 3.2 25.3 7.1399 25.3 12Z" fill="white"/>
<path d="M16.5 3.1C11.5859 3.1 7.6 7.08585 7.6 12C7.6 16.9142 11.5859 20.9 16.5 20.9C21.4142 20.9 25.4 16.9142 25.4 12C25.4 7.08585 21.4142 3.1 16.5 3.1ZM16.5 3.3C21.3061 3.3 25.2 7.19394 25.2 12C25.2 16.8061 21.3061 20.7 16.5 20.7C11.6939 20.7 7.8 16.8061 7.8 12C7.8 7.19394 11.6939 3.3 16.5 3.3Z" fill="#808080"/>
<path d="M23.1 12C23.1 15.6451 20.1451 18.6 16.5 18.6C12.8549 18.6 9.9 15.6451 9.9 12C9.9 8.35493 12.8549 5.40001 16.5 5.40001C20.1451 5.40001 23.1 8.35493 23.1 12Z" fill="white"/>
<path d="M16.5 5.3C12.8009 5.3 9.8 8.30088 9.8 12C9.8 15.6991 12.8009 18.7 16.5 18.7C20.1991 18.7 23.2 15.6991 23.2 12C23.2 8.30088 20.1991 5.3 16.5 5.3ZM16.5 5.5C20.091 5.5 23 8.40897 23 12C23 15.591 20.091 18.5 16.5 18.5C12.909 18.5 10 15.591 10 12C10 8.40897 12.909 5.5 16.5 5.5Z" fill="#808080"/>
<path d="M20.9 12C20.9 14.4301 18.9301 16.4 16.5 16.4C14.0699 16.4 12.1 14.4301 12.1 12C12.1 9.56995 14.0699 7.6 16.5 7.6C18.9301 7.6 20.9 9.56995 20.9 12Z" fill="white"/>
<path d="M16.5 7.5C14.0159 7.5 12 9.5159 12 12C12 14.4841 14.0159 16.5 16.5 16.5C18.9841 16.5 21 14.4841 21 12C21 9.5159 18.9841 7.5 16.5 7.5ZM16.5 7.7C18.876 7.7 20.8 9.62399 20.8 12C20.8 14.376 18.876 16.3 16.5 16.3C14.124 16.3 12.2 14.376 12.2 12C12.2 9.62399 14.124 7.7 16.5 7.7Z" fill="#808080"/>
<path d="M18.7 12C18.7 13.215 17.715 14.2 16.5 14.2C15.285 14.2 14.3 13.215 14.3 12C14.3 10.785 15.285 9.8 16.5 9.8C17.715 9.8 18.7 10.785 18.7 12Z" fill="white"/>
<path d="M16.5 9.7C15.2309 9.7 14.2 10.7309 14.2 12C14.2 13.2691 15.2309 14.3 16.5 14.3C17.7691 14.3 18.8 13.2691 18.8 12C18.8 10.7309 17.7691 9.7 16.5 9.7ZM16.5 9.9C17.661 9.9 18.6 10.839 18.6 12C18.6 13.161 17.661 14.1 16.5 14.1C15.339 14.1 14.4 13.161 14.4 12C14.4 10.839 15.339 9.9 16.5 9.9Z" fill="#808080"/>
<path d="M16.5 3.2V20.8V3.2ZM22.7 18.2L10.3 5.8L22.7 18.2ZM22.7 5.8L10.3 18.2L22.7 5.8ZM25.3 12H7.7Z" fill="white"/>
<path d="M16.4 3.2V11.7586L10.3707 5.7293L10.2293 5.87071L16.2586 11.9H7.7V12.1H16.2586L10.2293 18.1293L10.3707 18.2707L16.4 12.2414V20.8H16.6V12.2414L22.6293 18.2707L22.7707 18.1293L16.7414 12.1H25.3V11.9H16.7414L22.7707 5.87071L22.6293 5.7293L16.6 11.7586V3.2H16.4Z" fill="#808080"/>
<g opacity="0.8">
<path d="M16.4992 12H18.2993C18.3225 11.8341 18.3225 11.6659 18.2993 11.5L16.4992 12Z" fill="#4444CC"/>
<path d="M18.3416 11.4365L16.4865 11.9518L16.5 12.05H18.3436L18.3496 12.007C18.3735 11.8366 18.3735 11.6634 18.3496 11.493L18.3416 11.4365ZM18.2504 11.5658C18.2639 11.6937 18.2651 11.8222 18.2504 11.95H16.8672L18.2504 11.5658Z" fill="#808080"/>
<path d="M16.5 12L19.9 7.7C19.4445 7.35721 18.9384 7.08732 18.4 6.9L16.5 12Z" fill="#BBCC33"/>
<path d="M18.3703 6.83672L16.4531 11.9826L16.5393 12.0311L19.9709 7.69082L19.9301 7.65996C19.4704 7.31405 18.9597 7.04175 18.4164 6.85274L18.3703 6.83672ZM18.4285 6.9668C18.9285 7.14581 19.399 7.39702 19.8264 7.71231L16.6578 11.7197L18.4285 6.9668Z" fill="#808080"/>
<path d="M16.5 12L14.9 4.8C13.7631 5.04925 12.701 5.56316 11.8 6.3L16.5 12Z" fill="#DD9933"/>
<path d="M14.9381 4.74043L14.8893 4.75117C13.7447 5.0021 12.6754 5.51951 11.7684 6.26133L11.7295 6.29316L16.4613 12.0318L16.5488 11.9891L14.9381 4.74043ZM14.8627 4.8623L16.4059 11.807L11.8725 6.30918C12.7459 5.60483 13.7683 5.11005 14.8627 4.8623Z" fill="#808080"/>
<path d="M16.5 12L10.7 9.2C10.1347 10.4172 9.96005 11.7796 10.2 13.1L16.5 12Z" fill="#DDBB33"/>
<path d="M10.676 9.13281L10.6547 9.17891C10.085 10.4055 9.90898 11.7784 10.1508 13.109L10.1598 13.1578L16.6617 12.0225L16.5217 11.9549L10.676 9.13281ZM10.7275 9.26875L16.3383 11.9775L10.2441 13.0416C10.0221 11.7635 10.1905 10.4496 10.7275 9.26875Z" fill="#808080"/>
<path d="M16.5 12L13.2 13.6C13.2544 13.7713 13.3213 13.9384 13.4 14.1L16.5 12Z" fill="#33BBBB"/>
<path d="M16.4781 11.9551L13.1393 13.5738L13.1523 13.6152C13.2075 13.7889 13.2753 13.9581 13.3551 14.1219L13.3803 14.1738L16.5281 12.0414L16.4781 11.9551ZM15.8976 12.3475L13.4232 14.0238C13.3625 13.8939 13.3087 13.7608 13.2637 13.6246L15.8976 12.3475Z" fill="#808080"/>
<path d="M16.5 11.9994L15.5 16.4994C16.0941 16.6179 16.7059 16.6179 17.3 16.4994L16.5 11.9994Z" fill="#33CC99"/>
<path d="M16.4512 11.9891L15.44 16.5391L15.4902 16.549C16.0908 16.6689 16.7092 16.6689 17.3098 16.549L17.3578 16.5395L16.5492 11.9912L16.4512 11.9891ZM16.4945 12.2551L17.2414 16.4559C16.6859 16.5605 16.1165 16.5604 15.5609 16.4561L16.4945 12.2551Z" fill="#808080"/>
<path d="M16.5 12L21.1 17.8C21.5447 17.4473 21.9473 17.0447 22.3 16.6L16.5 12Z" fill="#DD7733"/>
<path d="M16.5311 11.9607L16.4607 12.0311L21.0918 17.8703L21.1311 17.8393C21.5788 17.4842 21.9842 17.0788 22.3393 16.6311L22.3703 16.5918L16.5311 11.9607ZM16.8088 12.3088L22.2273 16.6063C21.8951 17.0194 21.5194 17.3951 21.1062 17.7273L16.8088 12.3088Z" fill="#808080"/>
</g>
</g>
<path d="M32.9434 7.46875L35.7324 14.4297L38.5215 7.46875H39.9805V16H38.8555V12.6777L38.9609 9.0918L36.1602 16H35.2988L32.5039 9.10938L32.6152 12.6777V16H31.4902V7.46875H32.9434ZM45.7109 16C45.6484 15.875 45.5977 15.6523 45.5586 15.332C45.0547 15.8555 44.4531 16.1172 43.7539 16.1172C43.1289 16.1172 42.6152 15.9414 42.2129 15.5898C41.8145 15.2344 41.6152 14.7852 41.6152 14.2422C41.6152 13.582 41.8652 13.0703 42.3652 12.707C42.8691 12.3398 43.5762 12.1562 44.4863 12.1562H45.541V11.6582C45.541 11.2793 45.4277 10.9785 45.2012 10.7559C44.9746 10.5293 44.6406 10.416 44.1992 10.416C43.8125 10.416 43.4883 10.5137 43.2266 10.709C42.9648 10.9043 42.834 11.1406 42.834 11.418H41.7441C41.7441 11.1016 41.8555 10.7969 42.0781 10.5039C42.3047 10.207 42.6094 9.97266 42.9922 9.80078C43.3789 9.62891 43.8027 9.54297 44.2637 9.54297C44.9941 9.54297 45.5664 9.72656 45.9805 10.0938C46.3945 10.457 46.6094 10.959 46.625 11.5996V14.5176C46.625 15.0996 46.6992 15.5625 46.8477 15.9062V16H45.7109ZM43.9121 15.1738C44.252 15.1738 44.5742 15.0859 44.8789 14.9102C45.1836 14.7344 45.4043 14.5059 45.541 14.2246V12.9238H44.6914C43.3633 12.9238 42.6992 13.3125 42.6992 14.0898C42.6992 14.4297 42.8125 14.6953 43.0391 14.8867C43.2656 15.0781 43.5566 15.1738 43.9121 15.1738ZM49.7949 8.125V9.66016H50.9785V10.498H49.7949V14.4297C49.7949 14.6836 49.8477 14.875 49.9531 15.0039C50.0586 15.1289 50.2383 15.1914 50.4922 15.1914C50.6172 15.1914 50.7891 15.168 51.0078 15.1211V16C50.7227 16.0781 50.4453 16.1172 50.1758 16.1172C49.6914 16.1172 49.3262 15.9707 49.0801 15.6777C48.834 15.3848 48.7109 14.9688 48.7109 14.4297V10.498H47.5566V9.66016H48.7109V8.125H49.7949ZM57.6055 12.9004C57.6055 13.8652 57.3848 14.6426 56.9434 15.2324C56.502 15.8223 55.9043 16.1172 55.1504 16.1172C54.3809 16.1172 53.7754 15.873 53.334 15.3848V18.4375H52.25V9.66016H53.2402L53.293 10.3633C53.7344 9.81641 54.3477 9.54297 55.1328 9.54297C55.8945 9.54297 56.4961 9.83008 56.9375 10.4043C57.3828 10.9785 57.6055 11.7773 57.6055 12.8008V12.9004ZM56.5215 12.7773C56.5215 12.0625 56.3691 11.498 56.0645 11.084C55.7598 10.6699 55.3418 10.4629 54.8105 10.4629C54.1543 10.4629 53.6621 10.7539 53.334 11.3359V14.3652C53.6582 14.9434 54.1543 15.2324 54.8223 15.2324C55.3418 15.2324 55.7539 15.0273 56.0586 14.6172C56.3672 14.2031 56.5215 13.5898 56.5215 12.7773ZM60.166 16H59.082V7H60.166V16ZM61.6191 12.7715C61.6191 12.1504 61.7402 11.5918 61.9824 11.0957C62.2285 10.5996 62.5684 10.2168 63.002 9.94727C63.4395 9.67773 63.9375 9.54297 64.4961 9.54297C65.3594 9.54297 66.0566 9.8418 66.5879 10.4395C67.123 11.0371 67.3906 11.832 67.3906 12.8242V12.9004C67.3906 13.5176 67.2715 14.0723 67.0332 14.5645C66.7988 15.0527 66.4609 15.4336 66.0195 15.707C65.582 15.9805 65.0781 16.1172 64.5078 16.1172C63.6484 16.1172 62.9512 15.8184 62.416 15.2207C61.8848 14.623 61.6191 13.832 61.6191 12.8477V12.7715ZM62.709 12.9004C62.709 13.6035 62.8711 14.168 63.1953 14.5938C63.5234 15.0195 63.9609 15.2324 64.5078 15.2324C65.0586 15.2324 65.4961 15.0176 65.8203 14.5879C66.1445 14.1543 66.3066 13.5488 66.3066 12.7715C66.3066 12.0762 66.1406 11.5137 65.8086 11.084C65.4805 10.6504 65.043 10.4336 64.4961 10.4336C63.9609 10.4336 63.5293 10.6465 63.2012 11.0723C62.873 11.498 62.709 12.1074 62.709 12.9004ZM70.2207 8.125V9.66016H71.4043V10.498H70.2207V14.4297C70.2207 14.6836 70.2734 14.875 70.3789 15.0039C70.4844 15.1289 70.6641 15.1914 70.918 15.1914C71.043 15.1914 71.2148 15.168 71.4336 15.1211V16C71.1484 16.0781 70.8711 16.1172 70.6016 16.1172C70.1172 16.1172 69.752 15.9707 69.5059 15.6777C69.2598 15.3848 69.1367 14.9688 69.1367 14.4297V10.498H67.9824V9.66016H69.1367V8.125H70.2207ZM73.8535 16H72.7695V7H73.8535V16ZM76.7715 16H75.6875V9.66016H76.7715V16ZM75.5996 7.97852C75.5996 7.80273 75.6523 7.6543 75.7578 7.5332C75.8672 7.41211 76.0273 7.35156 76.2383 7.35156C76.4492 7.35156 76.6094 7.41211 76.7188 7.5332C76.8281 7.6543 76.8828 7.80273 76.8828 7.97852C76.8828 8.1543 76.8281 8.30078 76.7188 8.41797C76.6094 8.53516 76.4492 8.59375 76.2383 8.59375C76.0273 8.59375 75.8672 8.53516 75.7578 8.41797C75.6523 8.30078 75.5996 8.1543 75.5996 7.97852ZM83.8789 12.9004C83.8789 13.8691 83.6562 14.6484 83.2109 15.2383C82.7656 15.8242 82.168 16.1172 81.418 16.1172C80.6172 16.1172 79.998 15.834 79.5605 15.2676L79.5078 16H78.5117V7H79.5957V10.3574C80.0332 9.81445 80.6367 9.54297 81.4062 9.54297C82.1758 9.54297 82.7793 9.83398 83.2168 10.416C83.6582 10.998 83.8789 11.7949 83.8789 12.8066V12.9004ZM82.7949 12.7773C82.7949 12.0391 82.6523 11.4688 82.3672 11.0664C82.082 10.6641 81.6719 10.4629 81.1367 10.4629C80.4219 10.4629 79.9082 10.7949 79.5957 11.459V14.2012C79.9277 14.8652 80.4453 15.1973 81.1484 15.1973C81.668 15.1973 82.0723 14.9961 82.3613 14.5938C82.6504 14.1914 82.7949 13.5859 82.7949 12.7773Z" fill="black"/>
</g>
<defs>
<filter id="filter0_d" x="0.5" y="0" width="91" height="28" filterUnits="userSpaceOnUse" color-interpolation-filters="sRGB">
<feFlood flood-opacity="0" result="BackgroundImageFix"/>
<feColorMatrix in="SourceAlpha" type="matrix" values="0 0 0 0 0 0 0 0 0 0 0 0 0 0 0 0 0 0 127 0" result="hardAlpha"/>
<feOffset dy="2"/>
<feGaussianBlur stdDeviation="1"/>
<feComposite in2="hardAlpha" operator="out"/>
<feColorMatrix type="matrix" values="0 0 0 0 0 0 0 0 0 0 0 0 0 0 0 0 0 0 0.25 0"/>
<feBlend mode="normal" in2="BackgroundImageFix" result="effect1_dropShadow"/>
<feBlend mode="normal" in="SourceGraphic" in2="effect1_dropShadow" result="shape"/>
</filter>
<clipPath id="clip0">
<rect width="18" height="18" fill="white" transform="translate(7.5 3)"/>
</clipPath>
</defs>
</svg>
