<svg width="99" height="34" viewBox="0 0 99 34" fill="none" xmlns="http://www.w3.org/2000/svg">
<path d="M1.5 4C1.5 2.34315 2.84315 1 4.5 1H94.5C96.1569 1 97.5 2.34315 97.5 4V30C97.5 31.6569 96.1569 33 94.5 33H4.5C2.84315 33 1.5 31.6569 1.5 30V4Z" fill="#C9D1D9"/>
<g clip-path="url(#clip0)">
<path d="M27.3 17C27.3 21.8601 23.3601 25.8 18.5 25.8C13.6399 25.8 9.7 21.8601 9.7 17C9.7 12.1399 13.6399 8.2 18.5 8.2C23.3601 8.2 27.3 12.1399 27.3 17Z" fill="white"/>
<path d="M18.5 8.1C13.5859 8.1 9.6 12.0859 9.6 17C9.6 21.9142 13.5859 25.9 18.5 25.9C23.4142 25.9 27.4 21.9142 27.4 17C27.4 12.0859 23.4142 8.1 18.5 8.1ZM18.5 8.3C23.3061 8.3 27.2 12.1939 27.2 17C27.2 21.8061 23.3061 25.7 18.5 25.7C13.6939 25.7 9.8 21.8061 9.8 17C9.8 12.1939 13.6939 8.3 18.5 8.3Z" fill="#808080"/>
<path d="M25.1 17C25.1 20.6451 22.1451 23.6 18.5 23.6C14.8549 23.6 11.9 20.6451 11.9 17C11.9 13.3549 14.8549 10.4 18.5 10.4C22.1451 10.4 25.1 13.3549 25.1 17Z" fill="white"/>
<path d="M18.5 10.3C14.8009 10.3 11.8 13.3009 11.8 17C11.8 20.6991 14.8009 23.7 18.5 23.7C22.1991 23.7 25.2 20.6991 25.2 17C25.2 13.3009 22.1991 10.3 18.5 10.3ZM18.5 10.5C22.091 10.5 25 13.409 25 17C25 20.591 22.091 23.5 18.5 23.5C14.909 23.5 12 20.591 12 17C12 13.409 14.909 10.5 18.5 10.5Z" fill="#808080"/>
<path d="M22.9 17C22.9 19.4301 20.9301 21.4 18.5 21.4C16.0699 21.4 14.1 19.4301 14.1 17C14.1 14.5699 16.0699 12.6 18.5 12.6C20.9301 12.6 22.9 14.5699 22.9 17Z" fill="white"/>
<path d="M18.5 12.5C16.0159 12.5 14 14.5159 14 17C14 19.4841 16.0159 21.5 18.5 21.5C20.9841 21.5 23 19.4841 23 17C23 14.5159 20.9841 12.5 18.5 12.5ZM18.5 12.7C20.876 12.7 22.8 14.624 22.8 17C22.8 19.376 20.876 21.3 18.5 21.3C16.124 21.3 14.2 19.376 14.2 17C14.2 14.624 16.124 12.7 18.5 12.7Z" fill="#808080"/>
<path d="M20.7 17C20.7 18.215 19.715 19.2 18.5 19.2C17.285 19.2 16.3 18.215 16.3 17C16.3 15.785 17.285 14.8 18.5 14.8C19.715 14.8 20.7 15.785 20.7 17Z" fill="white"/>
<path d="M18.5 14.7C17.2309 14.7 16.2 15.7309 16.2 17C16.2 18.2691 17.2309 19.3 18.5 19.3C19.7691 19.3 20.8 18.2691 20.8 17C20.8 15.7309 19.7691 14.7 18.5 14.7ZM18.5 14.9C19.661 14.9 20.6 15.839 20.6 17C20.6 18.161 19.661 19.1 18.5 19.1C17.339 19.1 16.4 18.161 16.4 17C16.4 15.839 17.339 14.9 18.5 14.9Z" fill="#808080"/>
<path d="M18.5 8.2V25.8V8.2ZM24.7 23.2L12.3 10.8L24.7 23.2ZM24.7 10.8L12.3 23.2L24.7 10.8ZM27.3 17H9.7H27.3Z" fill="white"/>
<path d="M18.4 8.2V16.7586L12.3707 10.7293L12.2293 10.8707L18.2586 16.9H9.7V17.1H18.2586L12.2293 23.1293L12.3707 23.2707L18.4 17.2414V25.8H18.6V17.2414L24.6293 23.2707L24.7707 23.1293L18.7414 17.1H27.3V16.9H18.7414L24.7707 10.8707L24.6293 10.7293L18.6 16.7586V8.2H18.4Z" fill="#808080"/>
<g opacity="0.8">
<path d="M18.4992 17H20.2993C20.3225 16.8341 20.3225 16.6659 20.2993 16.5L18.4992 17Z" fill="#4444CC"/>
<path d="M20.3416 16.4365L18.4865 16.9518L18.5 17.05H20.3436L20.3496 17.007C20.3735 16.8366 20.3735 16.6634 20.3496 16.493L20.3416 16.4365ZM20.2504 16.5658C20.2639 16.6937 20.2651 16.8222 20.2504 16.95H18.8672L20.2504 16.5658Z" fill="#808080"/>
<path d="M18.5 17L21.9 12.7C21.4445 12.3572 20.9384 12.0873 20.4 11.9L18.5 17Z" fill="#BBCC33"/>
<path d="M20.3703 11.8367L18.4531 16.9826L18.5393 17.0311L21.9709 12.6908L21.9301 12.66C21.4704 12.3141 20.9597 12.0418 20.4164 11.8527L20.3703 11.8367ZM20.4285 11.9668C20.9285 12.1458 21.399 12.397 21.8264 12.7123L18.6578 16.7197L20.4285 11.9668Z" fill="#808080"/>
<path d="M18.5 17L16.9 9.8C15.7631 10.0492 14.701 10.5632 13.8 11.3L18.5 17Z" fill="#DD9933"/>
<path d="M16.9381 9.74043L16.8893 9.75117C15.7447 10.0021 14.6754 10.5195 13.7684 11.2613L13.7295 11.2932L18.4613 17.0318L18.5488 16.9891L16.9381 9.74043ZM16.8627 9.8623L18.4059 16.807L13.8725 11.3092C14.7459 10.6048 15.7683 10.11 16.8627 9.8623Z" fill="#808080"/>
<path d="M18.5 17L12.7 14.2C12.1347 15.4172 11.96 16.7796 12.2 18.1L18.5 17Z" fill="#DDBB33"/>
<path d="M12.676 14.1328L12.6547 14.1789C12.085 15.4055 11.909 16.7784 12.1508 18.109L12.1598 18.1578L18.6617 17.0225L18.5217 16.9549L12.676 14.1328ZM12.7275 14.2687L18.3383 16.9775L12.2441 18.0416C12.0221 16.7635 12.1905 15.4496 12.7275 14.2687Z" fill="#808080"/>
<path d="M18.5 17L15.2 18.6C15.2544 18.7713 15.3213 18.9384 15.4 19.1L18.5 17Z" fill="#33BBBB"/>
<path d="M18.4781 16.9551L15.1393 18.5738L15.1523 18.6152C15.2075 18.7889 15.2753 18.9581 15.3551 19.1219L15.3803 19.1738L18.5281 17.0414L18.4781 16.9551ZM17.8976 17.3475L15.4232 19.0238C15.3625 18.8939 15.3087 18.7608 15.2637 18.6246L17.8976 17.3475Z" fill="#808080"/>
<path d="M18.5 16.9994L17.5 21.4994C18.0941 21.6179 18.7059 21.6179 19.3 21.4994L18.5 16.9994Z" fill="#33CC99"/>
<path d="M18.4512 16.9891L17.44 21.5391L17.4902 21.549C18.0908 21.6689 18.7092 21.6689 19.3098 21.549L19.3578 21.5395L18.5492 16.9912L18.4512 16.9891ZM18.4945 17.2551L19.2414 21.4559C18.6859 21.5605 18.1165 21.5604 17.5609 21.4561L18.4945 17.2551Z" fill="#808080"/>
<path d="M18.5 17L23.1 22.8C23.5447 22.4473 23.9473 22.0447 24.3 21.6L18.5 17Z" fill="#DD7733"/>
<path d="M18.5311 16.9607L18.4607 17.0311L23.0918 22.8703L23.1311 22.8393C23.5788 22.4842 23.9842 22.0788 24.3393 21.6311L24.3703 21.5918L18.5311 16.9607ZM18.8088 17.3088L24.2273 21.6063C23.8951 22.0194 23.5194 22.3951 23.1062 22.7273L18.8088 17.3088Z" fill="#808080"/>
</g>
</g>
<path d="M37.9434 12.4688L40.7324 19.4297L43.5215 12.4688H44.9805V21H43.8555V17.6777L43.9609 14.0918L41.1602 21H40.2988L37.5039 14.1094L37.6152 17.6777V21H36.4902V12.4688H37.9434ZM50.7109 21C50.6484 20.875 50.5977 20.6523 50.5586 20.332C50.0547 20.8555 49.4531 21.1172 48.7539 21.1172C48.1289 21.1172 47.6152 20.9414 47.2129 20.5898C46.8145 20.2344 46.6152 19.7852 46.6152 19.2422C46.6152 18.582 46.8652 18.0703 47.3652 17.707C47.8691 17.3398 48.5762 17.1562 49.4863 17.1562H50.541V16.6582C50.541 16.2793 50.4277 15.9785 50.2012 15.7559C49.9746 15.5293 49.6406 15.416 49.1992 15.416C48.8125 15.416 48.4883 15.5137 48.2266 15.709C47.9648 15.9043 47.834 16.1406 47.834 16.418H46.7441C46.7441 16.1016 46.8555 15.7969 47.0781 15.5039C47.3047 15.207 47.6094 14.9727 47.9922 14.8008C48.3789 14.6289 48.8027 14.543 49.2637 14.543C49.9941 14.543 50.5664 14.7266 50.9805 15.0938C51.3945 15.457 51.6094 15.959 51.625 16.5996V19.5176C51.625 20.0996 51.6992 20.5625 51.8477 20.9062V21H50.7109ZM48.9121 20.1738C49.252 20.1738 49.5742 20.0859 49.8789 19.9102C50.1836 19.7344 50.4043 19.5059 50.541 19.2246V17.9238H49.6914C48.3633 17.9238 47.6992 18.3125 47.6992 19.0898C47.6992 19.4297 47.8125 19.6953 48.0391 19.8867C48.2656 20.0781 48.5566 20.1738 48.9121 20.1738ZM54.7949 13.125V14.6602H55.9785V15.498H54.7949V19.4297C54.7949 19.6836 54.8477 19.875 54.9531 20.0039C55.0586 20.1289 55.2383 20.1914 55.4922 20.1914C55.6172 20.1914 55.7891 20.168 56.0078 20.1211V21C55.7227 21.0781 55.4453 21.1172 55.1758 21.1172C54.6914 21.1172 54.3262 20.9707 54.0801 20.6777C53.834 20.3848 53.7109 19.9688 53.7109 19.4297V15.498H52.5566V14.6602H53.7109V13.125H54.7949ZM62.6055 17.9004C62.6055 18.8652 62.3848 19.6426 61.9434 20.2324C61.502 20.8223 60.9043 21.1172 60.1504 21.1172C59.3809 21.1172 58.7754 20.873 58.334 20.3848V23.4375H57.25V14.6602H58.2402L58.293 15.3633C58.7344 14.8164 59.3477 14.543 60.1328 14.543C60.8945 14.543 61.4961 14.8301 61.9375 15.4043C62.3828 15.9785 62.6055 16.7773 62.6055 17.8008V17.9004ZM61.5215 17.7773C61.5215 17.0625 61.3691 16.498 61.0645 16.084C60.7598 15.6699 60.3418 15.4629 59.8105 15.4629C59.1543 15.4629 58.6621 15.7539 58.334 16.3359V19.3652C58.6582 19.9434 59.1543 20.2324 59.8223 20.2324C60.3418 20.2324 60.7539 20.0273 61.0586 19.6172C61.3672 19.2031 61.5215 18.5898 61.5215 17.7773ZM65.166 21H64.082V12H65.166V21ZM66.6191 17.7715C66.6191 17.1504 66.7402 16.5918 66.9824 16.0957C67.2285 15.5996 67.5684 15.2168 68.002 14.9473C68.4395 14.6777 68.9375 14.543 69.4961 14.543C70.3594 14.543 71.0566 14.8418 71.5879 15.4395C72.123 16.0371 72.3906 16.832 72.3906 17.8242V17.9004C72.3906 18.5176 72.2715 19.0723 72.0332 19.5645C71.7988 20.0527 71.4609 20.4336 71.0195 20.707C70.582 20.9805 70.0781 21.1172 69.5078 21.1172C68.6484 21.1172 67.9512 20.8184 67.416 20.2207C66.8848 19.623 66.6191 18.832 66.6191 17.8477V17.7715ZM67.709 17.9004C67.709 18.6035 67.8711 19.168 68.1953 19.5938C68.5234 20.0195 68.9609 20.2324 69.5078 20.2324C70.0586 20.2324 70.4961 20.0176 70.8203 19.5879C71.1445 19.1543 71.3066 18.5488 71.3066 17.7715C71.3066 17.0762 71.1406 16.5137 70.8086 16.084C70.4805 15.6504 70.043 15.4336 69.4961 15.4336C68.9609 15.4336 68.5293 15.6465 68.2012 16.0723C67.873 16.498 67.709 17.1074 67.709 17.9004ZM75.2207 13.125V14.6602H76.4043V15.498H75.2207V19.4297C75.2207 19.6836 75.2734 19.875 75.3789 20.0039C75.4844 20.1289 75.6641 20.1914 75.918 20.1914C76.043 20.1914 76.2148 20.168 76.4336 20.1211V21C76.1484 21.0781 75.8711 21.1172 75.6016 21.1172C75.1172 21.1172 74.752 20.9707 74.5059 20.6777C74.2598 20.3848 74.1367 19.9688 74.1367 19.4297V15.498H72.9824V14.6602H74.1367V13.125H75.2207ZM78.8535 21H77.7695V12H78.8535V21ZM81.7715 21H80.6875V14.6602H81.7715V21ZM80.5996 12.9785C80.5996 12.8027 80.6523 12.6543 80.7578 12.5332C80.8672 12.4121 81.0273 12.3516 81.2383 12.3516C81.4492 12.3516 81.6094 12.4121 81.7188 12.5332C81.8281 12.6543 81.8828 12.8027 81.8828 12.9785C81.8828 13.1543 81.8281 13.3008 81.7188 13.418C81.6094 13.5352 81.4492 13.5938 81.2383 13.5938C81.0273 13.5938 80.8672 13.5352 80.7578 13.418C80.6523 13.3008 80.5996 13.1543 80.5996 12.9785ZM88.8789 17.9004C88.8789 18.8691 88.6562 19.6484 88.2109 20.2383C87.7656 20.8242 87.168 21.1172 86.418 21.1172C85.6172 21.1172 84.998 20.834 84.5605 20.2676L84.5078 21H83.5117V12H84.5957V15.3574C85.0332 14.8145 85.6367 14.543 86.4062 14.543C87.1758 14.543 87.7793 14.834 88.2168 15.416C88.6582 15.998 88.8789 16.7949 88.8789 17.8066V17.9004ZM87.7949 17.7773C87.7949 17.0391 87.6523 16.4688 87.3672 16.0664C87.082 15.6641 86.6719 15.4629 86.1367 15.4629C85.4219 15.4629 84.9082 15.7949 84.5957 16.459V19.2012C84.9277 19.8652 85.4453 20.1973 86.1484 20.1973C86.668 20.1973 87.0723 19.9961 87.3613 19.5938C87.6504 19.1914 87.7949 18.5859 87.7949 17.7773Z" fill="#22272E"/>
<path d="M4.5 2H94.5V0H4.5V2ZM96.5 4V30H98.5V4H96.5ZM94.5 32H4.5V34H94.5V32ZM2.5 30V4H0.5V30H2.5ZM4.5 32C3.39543 32 2.5 31.1046 2.5 30H0.5C0.5 32.2091 2.29086 34 4.5 34V32ZM96.5 30C96.5 31.1046 95.6046 32 94.5 32V34C96.7091 34 98.5 32.2091 98.5 30H96.5ZM94.5 2C95.6046 2 96.5 2.89543 96.5 4H98.5C98.5 1.79086 96.7091 0 94.5 0V2ZM4.5 0C2.29086 0 0.5 1.79086 0.5 4H2.5C2.5 2.89543 3.39543 2 4.5 2V0Z" fill="#30363D"/>
<defs>
<clipPath id="clip0">
<rect width="18" height="18" fill="white" transform="translate(9.5 8)"/>
</clipPath>
</defs>
</svg>
