<svg width="117" height="39" viewBox="0 0 117 39" fill="none" xmlns="http://www.w3.org/2000/svg">
<path d="M1 4C1 2.34315 2.34315 1 4 1H113C114.657 1 116 2.34315 116 4V35C116 36.6569 114.657 38 113 38H4C2.34315 38 1 36.6569 1 35V4Z" fill="#22272E"/>
<g clip-path="url(#clip0)">
<path d="M20 10.5C15.0335 10.5 11 14.5335 11 19.5C11 24.4665 15.0335 28.5 20 28.5C24.9665 28.5 29 24.4665 29 19.5C29 14.5335 24.9665 10.5 20 10.5V10.5ZM20 11.1922C24.5924 11.1922 28.3078 14.9076 28.3078 19.5C28.3078 24.0924 24.5924 27.8078 20 27.8078C15.4076 27.8078 11.6922 24.0924 11.6922 19.5C11.6922 14.9076 15.4076 11.1922 20 11.1922V11.1922Z" fill="#C9D1D9"/>
<path d="M20 14.8269C17.4232 14.8269 15.3269 16.9232 15.3269 19.5C15.3269 22.0767 17.4232 24.1731 20 24.1731C22.5767 24.1731 24.673 22.0767 24.673 19.5C24.673 16.9232 22.5767 14.8269 20 14.8269ZM20 15.5192C22.2026 15.5192 23.9808 17.2973 23.9808 19.5C23.9808 21.7027 22.2026 23.4808 20 23.4808C17.7973 23.4808 16.0191 21.7027 16.0191 19.5C16.0191 17.2973 17.7973 15.5192 20 15.5192Z" fill="#C9D1D9"/>
<path d="M20 10.8461V28.1539V10.8461ZM26.097 25.5971L13.9029 13.4029L26.097 25.5971ZM26.097 13.4029L13.9029 25.5971L26.097 13.4029ZM28.6539 19.5H11.3461Z" fill="white"/>
<path d="M19.6539 10.8461V18.6645L14.1476 13.1582L13.6582 13.6476L19.1645 19.1539H11.3461V19.8461H19.1645L13.6582 25.3524L14.1476 25.8418L19.6539 20.3355V28.1539H20.3461V20.3355L25.8523 25.8418L26.3417 25.3524L20.8355 19.8461H28.6539V19.1539H20.8355L26.3417 13.6476L25.8523 13.1582L20.3461 18.6645V10.8461H19.6539Z" fill="#C9D1D9"/>
<path d="M20.0001 19.5L23.3437 15.2714C22.8957 14.9343 22.3981 14.6689 21.8686 14.4847L20.0001 19.5Z" fill="#C9D1D9"/>
<path d="M20.0001 19.5L14.2964 16.7465C13.7405 17.9435 13.5687 19.2832 13.8047 20.5817L20.0001 19.5Z" fill="#C9D1D9"/>
<path d="M20.0001 19.5L24.5238 25.2037C24.9611 24.8569 25.357 24.4609 25.7038 24.0236L20.0001 19.5Z" fill="#C9D1D9"/>
</g>
<path d="M52.2793 25H51.1377V18.4238C51.1377 17.9043 51.1696 17.2686 51.2334 16.5166H51.2061C51.0967 16.9587 50.9987 17.2754 50.9121 17.4668L47.5625 25H47.002L43.6592 17.5215C43.5635 17.3027 43.4655 16.9678 43.3652 16.5166H43.3379C43.3743 16.9085 43.3926 17.5488 43.3926 18.4375V25H42.2852V15.1973H43.8027L46.8105 22.0332C47.043 22.5573 47.1934 22.9492 47.2617 23.209H47.3027C47.4987 22.6712 47.6559 22.2702 47.7744 22.0059L50.8438 15.1973H52.2793V25ZM59.7236 25H58.6025V23.9062H58.5752C58.0876 24.7448 57.3698 25.1641 56.4219 25.1641C55.7246 25.1641 55.1777 24.9795 54.7812 24.6104C54.3893 24.2412 54.1934 23.7513 54.1934 23.1406C54.1934 21.8327 54.9635 21.0716 56.5039 20.8574L58.6025 20.5635C58.6025 19.374 58.1217 18.7793 57.1602 18.7793C56.3171 18.7793 55.556 19.0664 54.877 19.6406V18.4922C55.5651 18.0547 56.3581 17.8359 57.2559 17.8359C58.901 17.8359 59.7236 18.7064 59.7236 20.4473V25ZM58.6025 21.459L56.9141 21.6914C56.3945 21.7643 56.0026 21.8942 55.7383 22.0811C55.474 22.2633 55.3418 22.5892 55.3418 23.0586C55.3418 23.4004 55.4626 23.6807 55.7041 23.8994C55.9502 24.1136 56.276 24.2207 56.6816 24.2207C57.2376 24.2207 57.6956 24.027 58.0557 23.6396C58.4202 23.2477 58.6025 22.7533 58.6025 22.1562V21.459ZM65.083 24.9316C64.8187 25.0775 64.4701 25.1504 64.0371 25.1504C62.8112 25.1504 62.1982 24.4668 62.1982 23.0996V18.957H60.9951V18H62.1982V16.291L63.3193 15.9287V18H65.083V18.957H63.3193V22.9014C63.3193 23.3708 63.3991 23.7057 63.5586 23.9062C63.7181 24.1068 63.9824 24.207 64.3516 24.207C64.6341 24.207 64.8779 24.1296 65.083 23.9746V24.9316ZM67.7285 23.9883H67.7012V28.2197H66.5801V18H67.7012V19.2305H67.7285C68.2799 18.3008 69.0866 17.8359 70.1484 17.8359C71.0508 17.8359 71.7549 18.1504 72.2607 18.7793C72.7666 19.4036 73.0195 20.2422 73.0195 21.2949C73.0195 22.4661 72.7347 23.4049 72.165 24.1113C71.5954 24.8132 70.8161 25.1641 69.8271 25.1641C68.9202 25.1641 68.2207 24.7721 67.7285 23.9883ZM67.7012 21.165V22.1426C67.7012 22.7214 67.888 23.2135 68.2617 23.6191C68.64 24.0202 69.1185 24.2207 69.6973 24.2207C70.3763 24.2207 70.9072 23.9609 71.29 23.4414C71.6774 22.9219 71.8711 22.1995 71.8711 21.2744C71.8711 20.4951 71.6911 19.8844 71.3311 19.4424C70.971 19.0003 70.4834 18.7793 69.8682 18.7793C69.2165 18.7793 68.6924 19.0072 68.2959 19.4629C67.8994 19.9141 67.7012 20.4814 67.7012 21.165ZM75.9316 25H74.8105V14.6367H75.9316V25ZM81.127 25.1641C80.0924 25.1641 79.2653 24.8382 78.6455 24.1865C78.0303 23.5303 77.7227 22.6621 77.7227 21.582C77.7227 20.4062 78.0439 19.488 78.6865 18.8271C79.3291 18.1663 80.1973 17.8359 81.291 17.8359C82.3346 17.8359 83.1481 18.1572 83.7314 18.7998C84.3193 19.4424 84.6133 20.3333 84.6133 21.4727C84.6133 22.5892 84.2965 23.4847 83.6631 24.1592C83.0342 24.8291 82.1888 25.1641 81.127 25.1641ZM81.209 18.7793C80.4889 18.7793 79.9193 19.0254 79.5 19.5176C79.0807 20.0052 78.8711 20.6797 78.8711 21.541C78.8711 22.3704 79.083 23.0244 79.5068 23.5029C79.9307 23.9814 80.498 24.2207 81.209 24.2207C81.9336 24.2207 82.4896 23.986 82.877 23.5166C83.2689 23.0472 83.4648 22.3796 83.4648 21.5137C83.4648 20.6387 83.2689 19.9642 82.877 19.4902C82.4896 19.0163 81.9336 18.7793 81.209 18.7793ZM89.6514 24.9316C89.387 25.0775 89.0384 25.1504 88.6055 25.1504C87.3796 25.1504 86.7666 24.4668 86.7666 23.0996V18.957H85.5635V18H86.7666V16.291L87.8877 15.9287V18H89.6514V18.957H87.8877V22.9014C87.8877 23.3708 87.9674 23.7057 88.127 23.9062C88.2865 24.1068 88.5508 24.207 88.9199 24.207C89.2025 24.207 89.4463 24.1296 89.6514 23.9746V24.9316ZM92.2695 25H91.1484V14.6367H92.2695V25ZM95.1133 16.2227C94.9128 16.2227 94.7419 16.1543 94.6006 16.0176C94.4593 15.8809 94.3887 15.7077 94.3887 15.498C94.3887 15.2884 94.4593 15.1152 94.6006 14.9785C94.7419 14.8372 94.9128 14.7666 95.1133 14.7666C95.3184 14.7666 95.4915 14.8372 95.6328 14.9785C95.7786 15.1152 95.8516 15.2884 95.8516 15.498C95.8516 15.6986 95.7786 15.8695 95.6328 16.0107C95.4915 16.152 95.3184 16.2227 95.1133 16.2227ZM95.6602 25H94.5391V18H95.6602V25ZM99.0781 23.9883H99.0508V25H97.9297V14.6367H99.0508V19.2305H99.0781C99.6296 18.3008 100.436 17.8359 101.498 17.8359C102.396 17.8359 103.098 18.1504 103.604 18.7793C104.114 19.4036 104.369 20.2422 104.369 21.2949C104.369 22.4661 104.084 23.4049 103.515 24.1113C102.945 24.8132 102.166 25.1641 101.177 25.1641C100.252 25.1641 99.5521 24.7721 99.0781 23.9883ZM99.0508 21.165V22.1426C99.0508 22.7214 99.2376 23.2135 99.6113 23.6191C99.9896 24.0202 100.468 24.2207 101.047 24.2207C101.726 24.2207 102.257 23.9609 102.64 23.4414C103.027 22.9219 103.221 22.1995 103.221 21.2744C103.221 20.4951 103.041 19.8844 102.681 19.4424C102.321 19.0003 101.833 18.7793 101.218 18.7793C100.566 18.7793 100.042 19.0072 99.6455 19.4629C99.249 19.9141 99.0508 20.4814 99.0508 21.165Z" fill="#C9D1D9"/>
<path d="M4 2H113V0H4V2ZM115 4V35H117V4H115ZM113 37H4V39H113V37ZM2 35V4H0V35H2ZM4 37C2.89543 37 2 36.1046 2 35H0C0 37.2091 1.79087 39 4 39V37ZM115 35C115 36.1046 114.105 37 113 37V39C115.209 39 117 37.2091 117 35H115ZM113 2C114.105 2 115 2.89543 115 4H117C117 1.79086 115.209 0 113 0V2ZM4 0C1.79086 0 0 1.79086 0 4H2C2 2.89543 2.89543 2 4 2V0Z" fill="#C9D1D9"/>
<defs>
<clipPath id="clip0">
<rect width="18" height="18" fill="white" transform="translate(11 10.5)"/>
</clipPath>
</defs>
</svg>
