<svg width="113" height="45" viewBox="0 0 113 45" fill="none" xmlns="http://www.w3.org/2000/svg">
<path d="M1 4C1 2.34314 2.34315 1 4 1H109C110.657 1 112 2.34315 112 4V41C112 42.6569 110.657 44 109 44H4C2.34314 44 1 42.6569 1 41V4Z" fill="#22272E"/>
<g clip-path="url(#clip0)">
<path d="M24.9942 18.8895C27.795 16.8277 24.3686 14.9516 24.9942 13.5C22.4166 16.1092 25.0799 16.8505 24.9942 18.8895ZM22.9011 19.0465C24.8017 17.6205 22.3329 16.2859 22.9011 15.4361C21.2095 17.2674 22.8743 17.4463 22.9011 19.0465ZM29.4418 20.4593C29.4418 20.1977 29.2325 19.9361 28.9186 19.9361H19.0814C18.8197 19.9361 18.5581 20.1453 18.5581 20.4593C18.5581 22.2384 18.8197 28.3605 21.436 31.343C21.5407 31.4477 21.6453 31.5 21.8023 31.5H26.1977C26.3546 31.5 26.4593 31.4477 26.564 31.343C29.1802 28.4128 29.4418 22.2907 29.4418 20.4593H29.4418ZM25.5697 29.9826H22.4825C22.3256 29.9826 22.2209 29.9302 22.1162 29.8256C20.3372 27.7326 20.1279 23.5465 20.0756 22.0814C20.0756 21.8198 20.2848 21.5581 20.5988 21.5581H27.5058C27.7674 21.5581 28.029 21.7674 28.029 22.0814C28.029 23.5465 27.7674 27.6802 25.9883 29.8256C25.8314 29.9302 25.7267 29.9826 25.5697 29.9826H25.5697ZM27.1918 25.1163C26.9825 26.5291 26.5639 28.1512 25.6744 29.1977C25.5697 29.3023 25.4651 29.3547 25.3605 29.3547H22.7441C22.6395 29.3547 22.4825 29.3023 22.4302 29.1977C21.8023 28.4128 21.3837 27.3663 21.1221 26.2674C23.8365 26.6185 26.6277 26.3487 27.1918 25.1163V25.1163Z" fill="#ADBAC7"/>
</g>
<path d="M57.8906 29H56.5859V21.4844C56.5859 20.8906 56.6224 20.1641 56.6953 19.3047H56.6641C56.5391 19.8099 56.4271 20.1719 56.3281 20.3906L52.5 29H51.8594L48.0391 20.4531C47.9297 20.2031 47.8177 19.8203 47.7031 19.3047H47.6719C47.7135 19.7526 47.7344 20.4844 47.7344 21.5V29H46.4688V17.7969H48.2031L51.6406 25.6094C51.9062 26.2083 52.0781 26.6562 52.1562 26.9531H52.2031C52.4271 26.3385 52.6068 25.8802 52.7422 25.5781L56.25 17.7969H57.8906V29ZM64.0156 29.1875C62.8333 29.1875 61.888 28.8151 61.1797 28.0703C60.4766 27.3203 60.125 26.3281 60.125 25.0938C60.125 23.75 60.4922 22.7005 61.2266 21.9453C61.9609 21.1901 62.9531 20.8125 64.2031 20.8125C65.3958 20.8125 66.3255 21.1797 66.9922 21.9141C67.6641 22.6484 68 23.6667 68 24.9688C68 26.2448 67.638 27.2682 66.9141 28.0391C66.1953 28.8047 65.2292 29.1875 64.0156 29.1875ZM64.1094 21.8906C63.2865 21.8906 62.6354 22.1719 62.1562 22.7344C61.6771 23.2917 61.4375 24.0625 61.4375 25.0469C61.4375 25.9948 61.6797 26.7422 62.1641 27.2891C62.6484 27.8359 63.2969 28.1094 64.1094 28.1094C64.9375 28.1094 65.5729 27.8411 66.0156 27.3047C66.4635 26.7682 66.6875 26.0052 66.6875 25.0156C66.6875 24.0156 66.4635 23.2448 66.0156 22.7031C65.5729 22.1615 64.9375 21.8906 64.1094 21.8906ZM75.5 28.6328C74.8854 29.0026 74.1562 29.1875 73.3125 29.1875C72.1719 29.1875 71.25 28.8177 70.5469 28.0781C69.849 27.3333 69.5 26.3698 69.5 25.1875C69.5 23.8698 69.8776 22.8125 70.6328 22.0156C71.388 21.2135 72.3958 20.8125 73.6562 20.8125C74.3594 20.8125 74.9792 20.9427 75.5156 21.2031V22.5156C74.9219 22.099 74.2865 21.8906 73.6094 21.8906C72.7917 21.8906 72.1198 22.1849 71.5938 22.7734C71.0729 23.3568 70.8125 24.125 70.8125 25.0781C70.8125 26.0156 71.0573 26.7552 71.5469 27.2969C72.0417 27.8385 72.7031 28.1094 73.5312 28.1094C74.2292 28.1094 74.8854 27.8776 75.5 27.4141V28.6328ZM84.0781 29H82.7969V24.3906C82.7969 22.724 82.1771 21.8906 80.9375 21.8906C80.3125 21.8906 79.7865 22.1328 79.3594 22.6172C78.9323 23.0964 78.7188 23.7135 78.7188 24.4688V29H77.4375V17.1562H78.7188V22.3281H78.75C79.3646 21.3177 80.2396 20.8125 81.375 20.8125C83.1771 20.8125 84.0781 21.8984 84.0781 24.0703V29ZM92.2266 29H90.9453V27.75H90.9141C90.3568 28.7083 89.5365 29.1875 88.4531 29.1875C87.6562 29.1875 87.0312 28.9766 86.5781 28.5547C86.1302 28.1328 85.9062 27.5729 85.9062 26.875C85.9062 25.3802 86.7865 24.5104 88.5469 24.2656L90.9453 23.9297C90.9453 22.5703 90.3958 21.8906 89.2969 21.8906C88.3333 21.8906 87.4635 22.2188 86.6875 22.875V21.5625C87.474 21.0625 88.3802 20.8125 89.4062 20.8125C91.2865 20.8125 92.2266 21.8073 92.2266 23.7969V29ZM90.9453 24.9531L89.0156 25.2188C88.4219 25.3021 87.974 25.4505 87.6719 25.6641C87.3698 25.8724 87.2188 26.2448 87.2188 26.7812C87.2188 27.1719 87.3568 27.4922 87.6328 27.7422C87.9141 27.987 88.2865 28.1094 88.75 28.1094C89.3854 28.1094 89.9089 27.888 90.3203 27.4453C90.737 26.9974 90.9453 26.4323 90.9453 25.75V24.9531Z" fill="#ADBAC7"/>
<path d="M4 2H109V0H4V2ZM111 4V41H113V4H111ZM109 43H4V45H109V43ZM2 41V4H0V41H2ZM4 43C2.89543 43 2 42.1046 2 41H0C0 43.2091 1.79086 45 4 45V43ZM111 41C111 42.1046 110.105 43 109 43V45C111.209 45 113 43.2091 113 41H111ZM109 2C110.105 2 111 2.89543 111 4H113C113 1.79086 111.209 0 109 0V2ZM4 0C1.79086 0 0 1.79086 0 4H2C2 2.89543 2.89543 2 4 2V0Z" fill="#444C56"/>
<defs>
<clipPath id="clip0">
<rect width="18" height="18" fill="white" transform="translate(15 13.5)"/>
</clipPath>
</defs>
</svg>
