<svg width="74" height="28" viewBox="0 0 74 28" fill="none" xmlns="http://www.w3.org/2000/svg">
<g filter="url(#filter0_d)">
<path d="M2 5C2 2.23858 4.23858 0 7 0H67C69.7614 0 72 2.23858 72 5V19C72 21.7614 69.7614 24 67 24H7C4.23858 24 2 21.7614 2 19V5Z" fill="white"/>
<path d="M16.9942 8.38952C19.795 6.32768 16.3686 4.4516 16.9942 3C14.4166 5.60916 17.08 6.3505 16.9942 8.38952ZM14.9012 8.54653C16.8017 7.12052 14.3329 5.78585 14.9012 4.93605C13.2096 6.76745 14.8743 6.94629 14.9012 8.54653ZM21.4418 9.95932C21.4418 9.69769 21.2326 9.43605 20.9186 9.43605H11.0814C10.8198 9.43605 10.5581 9.64534 10.5581 9.95932C10.5581 11.7384 10.8198 17.8605 13.436 20.843C13.5407 20.9477 13.6453 21 13.8024 21H18.1977C18.3547 21 18.4593 20.9477 18.564 20.843C21.1802 17.9128 21.4419 11.7907 21.4419 9.95932H21.4418ZM17.5697 19.4826H14.4826C14.3256 19.4826 14.2209 19.4302 14.1163 19.3256C12.3372 17.2326 12.1279 13.0465 12.0756 11.5814C12.0756 11.3198 12.2849 11.0581 12.5989 11.0581H19.5058C19.7674 11.0581 20.0291 11.2674 20.0291 11.5814C20.0291 13.0465 19.7674 17.1802 17.9884 19.3256C17.8314 19.4302 17.7267 19.4826 17.5698 19.4826H17.5697ZM19.1918 14.6163C18.9826 16.0291 18.564 17.6512 17.6744 18.6977C17.5698 18.8023 17.4651 18.8547 17.3605 18.8547H14.7442C14.6395 18.8547 14.4826 18.8023 14.4302 18.6977C13.8023 17.9128 13.3837 16.8663 13.1221 15.7674C15.8366 16.1185 18.6278 15.8487 19.1918 14.6163V14.6163Z" fill="#8D6748"/>
<path d="M32.4434 7.46875L35.2324 14.4297L38.0215 7.46875H39.4805V16H38.3555V12.6777L38.4609 9.0918L35.6602 16H34.7988L32.0039 9.10938L32.1152 12.6777V16H30.9902V7.46875H32.4434ZM41.0098 12.7715C41.0098 12.1504 41.1309 11.5918 41.373 11.0957C41.6191 10.5996 41.959 10.2168 42.3926 9.94727C42.8301 9.67773 43.3281 9.54297 43.8867 9.54297C44.75 9.54297 45.4473 9.8418 45.9785 10.4395C46.5137 11.0371 46.7812 11.832 46.7812 12.8242V12.9004C46.7812 13.5176 46.6621 14.0723 46.4238 14.5645C46.1895 15.0527 45.8516 15.4336 45.4102 15.707C44.9727 15.9805 44.4688 16.1172 43.8984 16.1172C43.0391 16.1172 42.3418 15.8184 41.8066 15.2207C41.2754 14.623 41.0098 13.832 41.0098 12.8477V12.7715ZM42.0996 12.9004C42.0996 13.6035 42.2617 14.168 42.5859 14.5938C42.9141 15.0195 43.3516 15.2324 43.8984 15.2324C44.4492 15.2324 44.8867 15.0176 45.2109 14.5879C45.5352 14.1543 45.6973 13.5488 45.6973 12.7715C45.6973 12.0762 45.5312 11.5137 45.1992 11.084C44.8711 10.6504 44.4336 10.4336 43.8867 10.4336C43.3516 10.4336 42.9199 10.6465 42.5918 11.0723C42.2637 11.498 42.0996 12.1074 42.0996 12.9004ZM50.6836 15.2324C51.0703 15.2324 51.4082 15.1152 51.6973 14.8809C51.9863 14.6465 52.1465 14.3535 52.1777 14.002H53.2031C53.1836 14.3652 53.0586 14.7109 52.8281 15.0391C52.5977 15.3672 52.2891 15.6289 51.9023 15.8242C51.5195 16.0195 51.1133 16.1172 50.6836 16.1172C49.8203 16.1172 49.1328 15.8301 48.6211 15.2559C48.1133 14.6777 47.8594 13.8887 47.8594 12.8887V12.707C47.8594 12.0898 47.9727 11.541 48.1992 11.0605C48.4258 10.5801 48.75 10.207 49.1719 9.94141C49.5977 9.67578 50.0996 9.54297 50.6777 9.54297C51.3887 9.54297 51.9785 9.75586 52.4473 10.1816C52.9199 10.6074 53.1719 11.1602 53.2031 11.8398H52.1777C52.1465 11.4297 51.9902 11.0938 51.709 10.832C51.4316 10.5664 51.0879 10.4336 50.6777 10.4336C50.127 10.4336 49.6992 10.6328 49.3945 11.0312C49.0938 11.4258 48.9434 11.998 48.9434 12.748V12.9531C48.9434 13.6836 49.0938 14.2461 49.3945 14.6406C49.6953 15.0352 50.125 15.2324 50.6836 15.2324ZM55.5059 10.4277C55.9863 9.83789 56.6113 9.54297 57.3809 9.54297C58.7207 9.54297 59.3965 10.2988 59.4082 11.8105V16H58.3242V11.8047C58.3203 11.3477 58.2148 11.0098 58.0078 10.791C57.8047 10.5723 57.4863 10.4629 57.0527 10.4629C56.7012 10.4629 56.3926 10.5566 56.127 10.7441C55.8613 10.9316 55.6543 11.1777 55.5059 11.4824V16H54.4219V7H55.5059V10.4277ZM64.9453 16C64.8828 15.875 64.832 15.6523 64.793 15.332C64.2891 15.8555 63.6875 16.1172 62.9883 16.1172C62.3633 16.1172 61.8496 15.9414 61.4473 15.5898C61.0488 15.2344 60.8496 14.7852 60.8496 14.2422C60.8496 13.582 61.0996 13.0703 61.5996 12.707C62.1035 12.3398 62.8105 12.1562 63.7207 12.1562H64.7754V11.6582C64.7754 11.2793 64.6621 10.9785 64.4355 10.7559C64.209 10.5293 63.875 10.416 63.4336 10.416C63.0469 10.416 62.7227 10.5137 62.4609 10.709C62.1992 10.9043 62.0684 11.1406 62.0684 11.418H60.9785C60.9785 11.1016 61.0898 10.7969 61.3125 10.5039C61.5391 10.207 61.8438 9.97266 62.2266 9.80078C62.6133 9.62891 63.0371 9.54297 63.498 9.54297C64.2285 9.54297 64.8008 9.72656 65.2148 10.0938C65.6289 10.457 65.8438 10.959 65.8594 11.5996V14.5176C65.8594 15.0996 65.9336 15.5625 66.082 15.9062V16H64.9453ZM63.1465 15.1738C63.4863 15.1738 63.8086 15.0859 64.1133 14.9102C64.418 14.7344 64.6387 14.5059 64.7754 14.2246V12.9238H63.9258C62.5977 12.9238 61.9336 13.3125 61.9336 14.0898C61.9336 14.4297 62.0469 14.6953 62.2734 14.8867C62.5 15.0781 62.791 15.1738 63.1465 15.1738Z" fill="black"/>
</g>
<defs>
<filter id="filter0_d" x="0" y="0" width="74" height="28" filterUnits="userSpaceOnUse" color-interpolation-filters="sRGB">
<feFlood flood-opacity="0" result="BackgroundImageFix"/>
<feColorMatrix in="SourceAlpha" type="matrix" values="0 0 0 0 0 0 0 0 0 0 0 0 0 0 0 0 0 0 127 0" result="hardAlpha"/>
<feOffset dy="2"/>
<feGaussianBlur stdDeviation="1"/>
<feComposite in2="hardAlpha" operator="out"/>
<feColorMatrix type="matrix" values="0 0 0 0 0 0 0 0 0 0 0 0 0 0 0 0 0 0 0.25 0"/>
<feBlend mode="normal" in2="BackgroundImageFix" result="effect1_dropShadow"/>
<feBlend mode="normal" in="SourceGraphic" in2="effect1_dropShadow" result="shape"/>
</filter>
</defs>
</svg>
