<svg xmlns="http://www.w3.org/2000/svg" width="145" height="56" fill="none"><rect width="127" height="48" x="9" y="4" fill="#FCE4EC" rx="4"/><path fill="#8D6748" d="M41.031 24.256c2.905-2.138-.649-4.084 0-5.59-2.673 2.706.089 3.475 0 5.59Zm-2.17.163c1.97-1.48-.59-2.863 0-3.745-1.755 1.9-.028 2.085 0 3.745Zm6.782 1.465a.544.544 0 0 0-.542-.543H34.899a.544.544 0 0 0-.542.543c0 1.845.27 8.194 2.984 11.286a.493.493 0 0 0 .38.163h4.558a.492.492 0 0 0 .38-.163c2.713-3.038 2.984-9.387 2.984-11.286Zm-4.015 9.876h-3.202a.493.493 0 0 1-.38-.163c-1.844-2.17-2.062-6.512-2.116-8.031 0-.271.217-.543.543-.543h7.163c.27 0 .542.217.542.543 0 1.52-.271 5.806-2.116 8.03-.163.11-.271.164-.434.164Zm1.682-5.047c-.217 1.465-.651 3.147-1.574 4.233-.108.108-.217.163-.325.163h-2.713c-.109 0-.272-.055-.326-.163-.651-.814-1.085-1.9-1.356-3.04 2.815.365 5.71.085 6.294-1.193Z"/><path fill="#000" d="M80.89 34.5h-1.304v-7.516c0-.593.036-1.32.11-2.18h-.032c-.125.506-.237.868-.336 1.087L75.5 34.5h-.64l-3.82-8.547c-.11-.25-.222-.633-.337-1.148h-.031c.041.448.062 1.18.062 2.195v7.5H69.47V23.297h1.734l3.438 7.812c.265.6.437 1.047.515 1.344h.047c.224-.615.404-1.073.54-1.375l3.507-7.781h1.64V34.5Zm6.126.188c-1.183 0-2.128-.373-2.836-1.118-.703-.75-1.055-1.742-1.055-2.976 0-1.344.367-2.393 1.102-3.149.734-.755 1.726-1.133 2.976-1.133 1.193 0 2.123.368 2.79 1.102.671.734 1.007 1.753 1.007 3.055 0 1.276-.362 2.3-1.086 3.07-.719.766-1.685 1.148-2.898 1.148Zm.093-7.297c-.822 0-1.474.28-1.953.843-.479.558-.719 1.328-.719 2.313 0 .948.243 1.695.727 2.242.484.547 1.133.82 1.945.82.829 0 1.464-.268 1.907-.804.447-.537.671-1.3.671-2.29 0-1-.224-1.77-.671-2.312-.443-.541-1.079-.812-1.907-.812ZM98.5 34.133c-.615.37-1.344.554-2.188.554-1.14 0-2.062-.37-2.765-1.109-.698-.745-1.047-1.708-1.047-2.89 0-1.318.378-2.375 1.133-3.172.755-.802 1.763-1.203 3.023-1.203.703 0 1.323.13 1.86.39v1.313c-.594-.417-1.23-.625-1.907-.625-.817 0-1.49.294-2.015.882-.521.584-.781 1.352-.781 2.305 0 .938.244 1.677.734 2.219.495.542 1.156.812 1.984.812.698 0 1.354-.231 1.969-.695v1.219Zm8.578.367h-1.281v-4.61c0-1.666-.62-2.5-1.859-2.5-.626 0-1.152.243-1.579.727-.427.48-.64 1.096-.64 1.852V34.5h-1.281V22.656h1.281v5.172h.031c.615-1.01 1.49-1.515 2.625-1.515 1.802 0 2.703 1.085 2.703 3.257v4.93Zm8.149 0h-1.282v-1.25h-.031c-.557.958-1.378 1.438-2.461 1.438-.797 0-1.422-.211-1.875-.633-.448-.422-.672-.982-.672-1.68 0-1.495.88-2.365 2.641-2.61l2.398-.335c0-1.36-.549-2.04-1.648-2.04-.964 0-1.833.329-2.609.985v-1.313c.786-.5 1.692-.75 2.718-.75 1.88 0 2.821.995 2.821 2.985V34.5Zm-1.282-4.047-1.929.266c-.594.083-1.042.232-1.344.445-.302.208-.453.58-.453 1.117 0 .39.138.711.414.961.281.245.653.367 1.117.367.635 0 1.159-.221 1.57-.664.417-.448.625-1.013.625-1.695v-.797Z"/><rect width="127" height="48" x="9" y="4" stroke="#E91E63" stroke-width="2" rx="4"/></svg>