<svg width="81" height="34" viewBox="0 0 81 34" fill="none" xmlns="http://www.w3.org/2000/svg">
<path d="M1 4C1 2.34315 2.34315 1 4 1H77C78.6569 1 80 2.34315 80 4V30C80 31.6569 78.6569 33 77 33H4C2.34314 33 1 31.6569 1 30V4Z" fill="#C9D1D9"/>
<path d="M18.9942 13.3895C21.795 11.3277 18.3686 9.4516 18.9942 8C16.4166 10.6092 19.08 11.3505 18.9942 13.3895ZM16.9012 13.5465C18.8017 12.1205 16.3329 10.7859 16.9012 9.93605C15.2096 11.7674 16.8743 11.9463 16.9012 13.5465ZM23.4418 14.9593C23.4418 14.6977 23.2326 14.4361 22.9186 14.4361H13.0814C12.8198 14.4361 12.5581 14.6453 12.5581 14.9593C12.5581 16.7384 12.8198 22.8605 15.436 25.843C15.5407 25.9477 15.6453 26 15.8024 26H20.1977C20.3547 26 20.4593 25.9477 20.564 25.843C23.1802 22.9128 23.4419 16.7907 23.4419 14.9593H23.4418ZM19.5697 24.4826H16.4826C16.3256 24.4826 16.2209 24.4302 16.1163 24.3256C14.3372 22.2326 14.1279 18.0465 14.0756 16.5814C14.0756 16.3198 14.2849 16.0581 14.5989 16.0581H21.5058C21.7674 16.0581 22.0291 16.2674 22.0291 16.5814C22.0291 18.0465 21.7674 22.1802 19.9884 24.3256C19.8314 24.4302 19.7267 24.4826 19.5698 24.4826H19.5697ZM21.1918 19.6163C20.9826 21.0291 20.564 22.6512 19.6744 23.6977C19.5698 23.8023 19.4651 23.8547 19.3605 23.8547H16.7442C16.6395 23.8547 16.4826 23.8023 16.4302 23.6977C15.8023 22.9128 15.3837 21.8663 15.1221 20.7674C17.8366 21.1185 20.6278 20.8487 21.1918 19.6163Z" fill="#8D6748"/>
<path d="M37.4434 12.4688L40.2324 19.4297L43.0215 12.4688H44.4805V21H43.3555V17.6777L43.4609 14.0918L40.6602 21H39.7988L37.0039 14.1094L37.1152 17.6777V21H35.9902V12.4688H37.4434ZM46.0098 17.7715C46.0098 17.1504 46.1309 16.5918 46.373 16.0957C46.6191 15.5996 46.959 15.2168 47.3926 14.9473C47.8301 14.6777 48.3281 14.543 48.8867 14.543C49.75 14.543 50.4473 14.8418 50.9785 15.4395C51.5137 16.0371 51.7812 16.832 51.7812 17.8242V17.9004C51.7812 18.5176 51.6621 19.0723 51.4238 19.5645C51.1895 20.0527 50.8516 20.4336 50.4102 20.707C49.9727 20.9805 49.4688 21.1172 48.8984 21.1172C48.0391 21.1172 47.3418 20.8184 46.8066 20.2207C46.2754 19.623 46.0098 18.832 46.0098 17.8477V17.7715ZM47.0996 17.9004C47.0996 18.6035 47.2617 19.168 47.5859 19.5938C47.9141 20.0195 48.3516 20.2324 48.8984 20.2324C49.4492 20.2324 49.8867 20.0176 50.2109 19.5879C50.5352 19.1543 50.6973 18.5488 50.6973 17.7715C50.6973 17.0762 50.5312 16.5137 50.1992 16.084C49.8711 15.6504 49.4336 15.4336 48.8867 15.4336C48.3516 15.4336 47.9199 15.6465 47.5918 16.0723C47.2637 16.498 47.0996 17.1074 47.0996 17.9004ZM55.6836 20.2324C56.0703 20.2324 56.4082 20.1152 56.6973 19.8809C56.9863 19.6465 57.1465 19.3535 57.1777 19.002H58.2031C58.1836 19.3652 58.0586 19.7109 57.8281 20.0391C57.5977 20.3672 57.2891 20.6289 56.9023 20.8242C56.5195 21.0195 56.1133 21.1172 55.6836 21.1172C54.8203 21.1172 54.1328 20.8301 53.6211 20.2559C53.1133 19.6777 52.8594 18.8887 52.8594 17.8887V17.707C52.8594 17.0898 52.9727 16.541 53.1992 16.0605C53.4258 15.5801 53.75 15.207 54.1719 14.9414C54.5977 14.6758 55.0996 14.543 55.6777 14.543C56.3887 14.543 56.9785 14.7559 57.4473 15.1816C57.9199 15.6074 58.1719 16.1602 58.2031 16.8398H57.1777C57.1465 16.4297 56.9902 16.0938 56.709 15.832C56.4316 15.5664 56.0879 15.4336 55.6777 15.4336C55.127 15.4336 54.6992 15.6328 54.3945 16.0312C54.0938 16.4258 53.9434 16.998 53.9434 17.748V17.9531C53.9434 18.6836 54.0938 19.2461 54.3945 19.6406C54.6953 20.0352 55.125 20.2324 55.6836 20.2324ZM60.5059 15.4277C60.9863 14.8379 61.6113 14.543 62.3809 14.543C63.7207 14.543 64.3965 15.2988 64.4082 16.8105V21H63.3242V16.8047C63.3203 16.3477 63.2148 16.0098 63.0078 15.791C62.8047 15.5723 62.4863 15.4629 62.0527 15.4629C61.7012 15.4629 61.3926 15.5566 61.127 15.7441C60.8613 15.9316 60.6543 16.1777 60.5059 16.4824V21H59.4219V12H60.5059V15.4277ZM69.9453 21C69.8828 20.875 69.832 20.6523 69.793 20.332C69.2891 20.8555 68.6875 21.1172 67.9883 21.1172C67.3633 21.1172 66.8496 20.9414 66.4473 20.5898C66.0488 20.2344 65.8496 19.7852 65.8496 19.2422C65.8496 18.582 66.0996 18.0703 66.5996 17.707C67.1035 17.3398 67.8105 17.1562 68.7207 17.1562H69.7754V16.6582C69.7754 16.2793 69.6621 15.9785 69.4355 15.7559C69.209 15.5293 68.875 15.416 68.4336 15.416C68.0469 15.416 67.7227 15.5137 67.4609 15.709C67.1992 15.9043 67.0684 16.1406 67.0684 16.418H65.9785C65.9785 16.1016 66.0898 15.7969 66.3125 15.5039C66.5391 15.207 66.8438 14.9727 67.2266 14.8008C67.6133 14.6289 68.0371 14.543 68.498 14.543C69.2285 14.543 69.8008 14.7266 70.2148 15.0938C70.6289 15.457 70.8438 15.959 70.8594 16.5996V19.5176C70.8594 20.0996 70.9336 20.5625 71.082 20.9062V21H69.9453ZM68.1465 20.1738C68.4863 20.1738 68.8086 20.0859 69.1133 19.9102C69.418 19.7344 69.6387 19.5059 69.7754 19.2246V17.9238H68.9258C67.5977 17.9238 66.9336 18.3125 66.9336 19.0898C66.9336 19.4297 67.0469 19.6953 67.2734 19.8867C67.5 20.0781 67.791 20.1738 68.1465 20.1738Z" fill="#22272E"/>
<path d="M4 2H77V0H4V2ZM79 4V30H81V4H79ZM77 32H4V34H77V32ZM2 30V4H0V30H2ZM4 32C2.89543 32 2 31.1046 2 30H0C0 32.2091 1.79086 34 4 34V32ZM79 30C79 31.1046 78.1046 32 77 32V34C79.2091 34 81 32.2091 81 30H79ZM77 2C78.1046 2 79 2.89543 79 4H81C81 1.79086 79.2091 0 77 0V2ZM4 0C1.79086 0 0 1.79086 0 4H2C2 2.89543 2.89543 2 4 2V0Z" fill="#30363D"/>
</svg>
