<svg width="83" height="36" viewBox="0 0 83 36" fill="none" xmlns="http://www.w3.org/2000/svg">
<g filter="url(#filter0_d)">
<path d="M2 3C2 1.34315 3.34315 0 5 0H78C79.6569 0 81 1.34315 81 3V29C81 30.6569 79.6569 32 78 32H5C3.34314 32 2 30.6569 2 29V3Z" fill="white"/>
<path d="M19.9942 12.3895C22.795 10.3277 19.3686 8.4516 19.9942 7C17.4166 9.60916 20.08 10.3505 19.9942 12.3895ZM17.9012 12.5465C19.8017 11.1205 17.3329 9.78585 17.9012 8.93605C16.2096 10.7674 17.8743 10.9463 17.9012 12.5465ZM24.4418 13.9593C24.4418 13.6977 24.2326 13.4361 23.9186 13.4361H14.0814C13.8198 13.4361 13.5581 13.6453 13.5581 13.9593C13.5581 15.7384 13.8198 21.8605 16.436 24.843C16.5407 24.9477 16.6453 25 16.8024 25H21.1977C21.3547 25 21.4593 24.9477 21.564 24.843C24.1802 21.9128 24.4419 15.7907 24.4419 13.9593H24.4418ZM20.5697 23.4826H17.4826C17.3256 23.4826 17.2209 23.4302 17.1163 23.3256C15.3372 21.2326 15.1279 17.0465 15.0756 15.5814C15.0756 15.3198 15.2849 15.0581 15.5989 15.0581H22.5058C22.7674 15.0581 23.0291 15.2674 23.0291 15.5814C23.0291 17.0465 22.7674 21.1802 20.9884 23.3256C20.8314 23.4302 20.7267 23.4826 20.5698 23.4826H20.5697ZM22.1918 18.6163C21.9826 20.0291 21.564 21.6512 20.6744 22.6977C20.5698 22.8023 20.4651 22.8547 20.3605 22.8547H17.7442C17.6395 22.8547 17.4826 22.8023 17.4302 22.6977C16.8023 21.9128 16.3837 20.8663 16.1221 19.7674C18.8366 20.1185 21.6278 19.8487 22.1918 18.6163Z" fill="#8D6748"/>
<path d="M38.4434 11.4688L41.2324 18.4297L44.0215 11.4688H45.4805V20H44.3555V16.6777L44.4609 13.0918L41.6602 20H40.7988L38.0039 13.1094L38.1152 16.6777V20H36.9902V11.4688H38.4434ZM47.0098 16.7715C47.0098 16.1504 47.1309 15.5918 47.373 15.0957C47.6191 14.5996 47.959 14.2168 48.3926 13.9473C48.8301 13.6777 49.3281 13.543 49.8867 13.543C50.75 13.543 51.4473 13.8418 51.9785 14.4395C52.5137 15.0371 52.7812 15.832 52.7812 16.8242V16.9004C52.7812 17.5176 52.6621 18.0723 52.4238 18.5645C52.1895 19.0527 51.8516 19.4336 51.4102 19.707C50.9727 19.9805 50.4688 20.1172 49.8984 20.1172C49.0391 20.1172 48.3418 19.8184 47.8066 19.2207C47.2754 18.623 47.0098 17.832 47.0098 16.8477V16.7715ZM48.0996 16.9004C48.0996 17.6035 48.2617 18.168 48.5859 18.5938C48.9141 19.0195 49.3516 19.2324 49.8984 19.2324C50.4492 19.2324 50.8867 19.0176 51.2109 18.5879C51.5352 18.1543 51.6973 17.5488 51.6973 16.7715C51.6973 16.0762 51.5312 15.5137 51.1992 15.084C50.8711 14.6504 50.4336 14.4336 49.8867 14.4336C49.3516 14.4336 48.9199 14.6465 48.5918 15.0723C48.2637 15.498 48.0996 16.1074 48.0996 16.9004ZM56.6836 19.2324C57.0703 19.2324 57.4082 19.1152 57.6973 18.8809C57.9863 18.6465 58.1465 18.3535 58.1777 18.002H59.2031C59.1836 18.3652 59.0586 18.7109 58.8281 19.0391C58.5977 19.3672 58.2891 19.6289 57.9023 19.8242C57.5195 20.0195 57.1133 20.1172 56.6836 20.1172C55.8203 20.1172 55.1328 19.8301 54.6211 19.2559C54.1133 18.6777 53.8594 17.8887 53.8594 16.8887V16.707C53.8594 16.0898 53.9727 15.541 54.1992 15.0605C54.4258 14.5801 54.75 14.207 55.1719 13.9414C55.5977 13.6758 56.0996 13.543 56.6777 13.543C57.3887 13.543 57.9785 13.7559 58.4473 14.1816C58.9199 14.6074 59.1719 15.1602 59.2031 15.8398H58.1777C58.1465 15.4297 57.9902 15.0938 57.709 14.832C57.4316 14.5664 57.0879 14.4336 56.6777 14.4336C56.127 14.4336 55.6992 14.6328 55.3945 15.0312C55.0938 15.4258 54.9434 15.998 54.9434 16.748V16.9531C54.9434 17.6836 55.0938 18.2461 55.3945 18.6406C55.6953 19.0352 56.125 19.2324 56.6836 19.2324ZM61.5059 14.4277C61.9863 13.8379 62.6113 13.543 63.3809 13.543C64.7207 13.543 65.3965 14.2988 65.4082 15.8105V20H64.3242V15.8047C64.3203 15.3477 64.2148 15.0098 64.0078 14.791C63.8047 14.5723 63.4863 14.4629 63.0527 14.4629C62.7012 14.4629 62.3926 14.5566 62.127 14.7441C61.8613 14.9316 61.6543 15.1777 61.5059 15.4824V20H60.4219V11H61.5059V14.4277ZM70.9453 20C70.8828 19.875 70.832 19.6523 70.793 19.332C70.2891 19.8555 69.6875 20.1172 68.9883 20.1172C68.3633 20.1172 67.8496 19.9414 67.4473 19.5898C67.0488 19.2344 66.8496 18.7852 66.8496 18.2422C66.8496 17.582 67.0996 17.0703 67.5996 16.707C68.1035 16.3398 68.8105 16.1562 69.7207 16.1562H70.7754V15.6582C70.7754 15.2793 70.6621 14.9785 70.4355 14.7559C70.209 14.5293 69.875 14.416 69.4336 14.416C69.0469 14.416 68.7227 14.5137 68.4609 14.709C68.1992 14.9043 68.0684 15.1406 68.0684 15.418H66.9785C66.9785 15.1016 67.0898 14.7969 67.3125 14.5039C67.5391 14.207 67.8438 13.9727 68.2266 13.8008C68.6133 13.6289 69.0371 13.543 69.498 13.543C70.2285 13.543 70.8008 13.7266 71.2148 14.0938C71.6289 14.457 71.8438 14.959 71.8594 15.5996V18.5176C71.8594 19.0996 71.9336 19.5625 72.082 19.9062V20H70.9453ZM69.1465 19.1738C69.4863 19.1738 69.8086 19.0859 70.1133 18.9102C70.418 18.7344 70.6387 18.5059 70.7754 18.2246V16.9238H69.9258C68.5977 16.9238 67.9336 17.3125 67.9336 18.0898C67.9336 18.4297 68.0469 18.6953 68.2734 18.8867C68.5 19.0781 68.791 19.1738 69.1465 19.1738Z" fill="black"/>
</g>
<defs>
<filter id="filter0_d" x="0" y="0" width="83" height="36" filterUnits="userSpaceOnUse" color-interpolation-filters="sRGB">
<feFlood flood-opacity="0" result="BackgroundImageFix"/>
<feColorMatrix in="SourceAlpha" type="matrix" values="0 0 0 0 0 0 0 0 0 0 0 0 0 0 0 0 0 0 127 0" result="hardAlpha"/>
<feOffset dy="2"/>
<feGaussianBlur stdDeviation="1"/>
<feComposite in2="hardAlpha" operator="out"/>
<feColorMatrix type="matrix" values="0 0 0 0 0 0 0 0 0 0 0 0 0 0 0 0 0 0 0.25 0"/>
<feBlend mode="normal" in2="BackgroundImageFix" result="effect1_dropShadow"/>
<feBlend mode="normal" in="SourceGraphic" in2="effect1_dropShadow" result="shape"/>
</filter>
</defs>
</svg>
