<svg width="95" height="39" viewBox="0 0 95 39" fill="none" xmlns="http://www.w3.org/2000/svg">
<path d="M1 4C1 2.34315 2.34315 1 4 1H91C92.6569 1 94 2.34315 94 4V35C94 36.6569 92.6569 38 91 38H4C2.34315 38 1 36.6569 1 35V4Z" fill="#22272E"/>
<g clip-path="url(#clip0)">
<path d="M20.9942 15.8895C23.795 13.8277 20.3686 11.9516 20.9942 10.5C18.4166 13.1092 21.0799 13.8505 20.9942 15.8895ZM18.9011 16.0465C20.8017 14.6205 18.3329 13.2859 18.9011 12.4361C17.2095 14.2674 18.8743 14.4463 18.9011 16.0465ZM25.4418 17.4593C25.4418 17.1977 25.2325 16.9361 24.9186 16.9361H15.0814C14.8197 16.9361 14.5581 17.1453 14.5581 17.4593C14.5581 19.2384 14.8197 25.3605 17.436 28.343C17.5407 28.4477 17.6453 28.5 17.8023 28.5H22.1977C22.3546 28.5 22.4593 28.4477 22.564 28.343C25.1802 25.4128 25.4418 19.2907 25.4418 17.4593H25.4418ZM21.5697 26.9826H18.4825C18.3256 26.9826 18.2209 26.9302 18.1162 26.8256C16.3372 24.7326 16.1279 20.5465 16.0756 19.0814C16.0756 18.8198 16.2848 18.5581 16.5988 18.5581H23.5058C23.7674 18.5581 24.029 18.7674 24.029 19.0814C24.029 20.5465 23.7674 24.6802 21.9883 26.8256C21.8314 26.9302 21.7267 26.9826 21.5697 26.9826H21.5697ZM23.1918 22.1163C22.9825 23.5291 22.5639 25.1512 21.6744 26.1977C21.5697 26.3023 21.4651 26.3547 21.3605 26.3547H18.7441C18.6395 26.3547 18.4825 26.3023 18.4302 26.1977C17.8023 25.4128 17.3837 24.3663 17.1221 23.2674C19.8365 23.6185 22.6277 23.3487 23.1918 22.1163V22.1163Z" fill="#ADBAC7"/>
</g>
<path d="M52.2793 25H51.1377V18.4238C51.1377 17.9043 51.1696 17.2686 51.2334 16.5166H51.2061C51.0967 16.9587 50.9987 17.2754 50.9121 17.4668L47.5625 25H47.002L43.6592 17.5215C43.5635 17.3027 43.4655 16.9678 43.3652 16.5166H43.3379C43.3743 16.9085 43.3926 17.5488 43.3926 18.4375V25H42.2852V15.1973H43.8027L46.8105 22.0332C47.043 22.5573 47.1934 22.9492 47.2617 23.209H47.3027C47.4987 22.6712 47.6559 22.2702 47.7744 22.0059L50.8438 15.1973H52.2793V25ZM57.6387 25.1641C56.6042 25.1641 55.777 24.8382 55.1572 24.1865C54.542 23.5303 54.2344 22.6621 54.2344 21.582C54.2344 20.4062 54.5557 19.488 55.1982 18.8271C55.8408 18.1663 56.709 17.8359 57.8027 17.8359C58.8464 17.8359 59.6598 18.1572 60.2432 18.7998C60.8311 19.4424 61.125 20.3333 61.125 21.4727C61.125 22.5892 60.8083 23.4847 60.1748 24.1592C59.5459 24.8291 58.7005 25.1641 57.6387 25.1641ZM57.7207 18.7793C57.0007 18.7793 56.431 19.0254 56.0117 19.5176C55.5924 20.0052 55.3828 20.6797 55.3828 21.541C55.3828 22.3704 55.5947 23.0244 56.0186 23.5029C56.4424 23.9814 57.0098 24.2207 57.7207 24.2207C58.4453 24.2207 59.0013 23.986 59.3887 23.5166C59.7806 23.0472 59.9766 22.3796 59.9766 21.5137C59.9766 20.6387 59.7806 19.9642 59.3887 19.4902C59.0013 19.0163 58.4453 18.7793 57.7207 18.7793ZM67.6875 24.6787C67.1497 25.0023 66.5117 25.1641 65.7734 25.1641C64.7754 25.1641 63.9688 24.8405 63.3535 24.1934C62.7428 23.5417 62.4375 22.6986 62.4375 21.6641C62.4375 20.5111 62.7679 19.5859 63.4287 18.8887C64.0895 18.1868 64.9714 17.8359 66.0742 17.8359C66.6895 17.8359 67.2318 17.9499 67.7012 18.1777V19.3262C67.1816 18.9616 66.6257 18.7793 66.0332 18.7793C65.3177 18.7793 64.7298 19.0368 64.2695 19.5518C63.8138 20.0622 63.5859 20.7344 63.5859 21.5684C63.5859 22.3887 63.8001 23.0358 64.2285 23.5098C64.6615 23.9837 65.2402 24.2207 65.9648 24.2207C66.5755 24.2207 67.1497 24.0179 67.6875 23.6123V24.6787ZM75.1934 25H74.0723V20.9668C74.0723 19.5085 73.5299 18.7793 72.4453 18.7793C71.8984 18.7793 71.4382 18.9912 71.0645 19.415C70.6908 19.8343 70.5039 20.3743 70.5039 21.0352V25H69.3828V14.6367H70.5039V19.1621H70.5312C71.069 18.278 71.8346 17.8359 72.8281 17.8359C74.4049 17.8359 75.1934 18.7861 75.1934 20.6865V25ZM82.3232 25H81.2021V23.9062H81.1748C80.6872 24.7448 79.9694 25.1641 79.0215 25.1641C78.3242 25.1641 77.7773 24.9795 77.3809 24.6104C76.9889 24.2412 76.793 23.7513 76.793 23.1406C76.793 21.8327 77.5632 21.0716 79.1035 20.8574L81.2021 20.5635C81.2021 19.374 80.7214 18.7793 79.7598 18.7793C78.9167 18.7793 78.1556 19.0664 77.4766 19.6406V18.4922C78.1647 18.0547 78.9577 17.8359 79.8555 17.8359C81.5007 17.8359 82.3232 18.7064 82.3232 20.4473V25ZM81.2021 21.459L79.5137 21.6914C78.9941 21.7643 78.6022 21.8942 78.3379 22.0811C78.0736 22.2633 77.9414 22.5892 77.9414 23.0586C77.9414 23.4004 78.0622 23.6807 78.3037 23.8994C78.5498 24.1136 78.8757 24.2207 79.2812 24.2207C79.8372 24.2207 80.2952 24.027 80.6553 23.6396C81.0199 23.2477 81.2021 22.7533 81.2021 22.1562V21.459Z" fill="#ADBAC7"/>
<path d="M4 2H91V0H4V2ZM93 4V35H95V4H93ZM91 37H4V39H91V37ZM2 35V4H0V35H2ZM4 37C2.89543 37 2 36.1046 2 35H0C0 37.2091 1.79086 39 4 39V37ZM93 35C93 36.1046 92.1046 37 91 37V39C93.2091 39 95 37.2091 95 35H93ZM91 2C92.1046 2 93 2.89543 93 4H95C95 1.79086 93.2091 0 91 0V2ZM4 0C1.79086 0 0 1.79086 0 4H2C2 2.89543 2.89543 2 4 2V0Z" fill="#444C56"/>
<defs>
<clipPath id="clip0">
<rect width="18" height="18" fill="white" transform="translate(11 10.5)"/>
</clipPath>
</defs>
</svg>
