<svg width="136" height="45" viewBox="0 0 136 45" fill="none" xmlns="http://www.w3.org/2000/svg">
<path d="M1 4C1 2.34314 2.34315 1 4 1H132C133.657 1 135 2.34315 135 4V41C135 42.6569 133.657 44 132 44H4C2.34314 44 1 42.6569 1 41V4Z" fill="#22272E"/>
<g clip-path="url(#clip0)">
<path d="M27.8846 20.6398C26.9385 16.4678 24.7031 15.0998 24.4629 14.5755C24.1991 14.2037 23.9151 13.5006 23.9151 13.5006C23.9122 13.5152 23.9122 13.5242 23.9094 13.5388V13.5478C23.9094 13.5596 23.9066 13.5653 23.9066 13.5771V13.5889H23.9038V13.6266H23.901C23.901 13.6322 23.901 13.6412 23.8982 13.644V13.6614C23.8982 13.6671 23.8982 13.6733 23.8954 13.6761V13.6907C23.8954 13.6997 23.8954 13.7081 23.8926 13.7143V13.7171C23.8921 13.73 23.8902 13.7429 23.8869 13.7554V13.761C23.8841 13.7638 23.8841 13.7666 23.8841 13.77V13.7818H23.8813V13.7993H23.8785V13.8111H23.8729V13.8285H23.8701V13.8431H23.8672V13.8549H23.8644V13.8668H23.8616V13.8786H23.8588V13.8904H23.856V13.8994H23.8532V13.9112H23.8504V13.923H23.8476C23.8447 13.923 23.8447 13.9258 23.8447 13.9258V13.9314L23.8419 13.9371C23.8419 13.9427 23.8391 13.9489 23.8363 13.9545C23.8335 13.9573 23.8335 13.9573 23.8335 13.9601V13.9658H23.8307V13.9714H23.8251V13.986H23.8194V13.995H23.8166V13.9978H23.8138V14.0034H23.811V14.0124H23.8082V14.0181H23.8026V14.0271H23.7997V14.0327H23.7969V14.0383H23.7941V14.0473H23.7913V14.0529H23.7885V14.0558H23.7857V14.0614H23.7801V14.0704H23.7772V14.0732H23.7744V14.0788H23.7716V14.0878H23.7688V14.0906H23.766V14.0963H23.7632V14.0991H23.7604V14.1081H23.7547V14.1109H23.7519V14.1165H23.7491V14.1193H23.7463V14.1249H23.7435V14.1306C23.7407 14.1306 23.7407 14.1334 23.7407 14.1334V14.1362H23.7379L23.7289 14.1508C23.7289 14.1508 23.7232 14.1564 23.7232 14.1598C23.7204 14.1598 23.7204 14.1626 23.7204 14.1626V14.1654H23.7176V14.1683H23.7148V14.1739H23.7092V14.1767H23.7064V14.1795H23.7036V14.1879H23.7007V14.1908H23.6979V14.1936H23.6951V14.1992H23.6923V14.1936H23.6867V14.1964H23.6839V14.202H23.6811V14.2076H23.6782V14.2104H23.6754V14.2133H23.6726V14.2161H23.6698V14.2217H23.6642V14.2245H23.6614V14.2301H23.6586V14.2329H23.6557V14.2358H23.6529V14.2448H23.6501V14.2476H23.6473V14.2504H23.6445V14.2532H23.6417V14.256H23.6361V14.2616H23.6332V14.2644H23.6304V14.2673H23.6276V14.2729H23.6248V14.2757H23.6192V14.2785H23.6164V14.2813H23.6136V14.2869H23.6107V14.2926H23.6079V14.2954H23.6051V14.2982H23.5995V14.301H23.5967V14.3038H23.5939V14.3094H23.5911V14.3123H23.5882V14.3179H23.5854V14.3207H23.5826V14.3235H23.5798V14.3263H23.577V14.3291H23.5714V14.3319C23.5686 14.3319 23.5686 14.3348 23.5686 14.3348L23.5657 14.3376L23.5629 14.3404V14.346H23.5601V14.3488H23.5573V14.3516H23.5545V14.3544H23.5517L23.5461 14.3601V14.3629C23.5404 14.3657 23.5404 14.3685 23.5342 14.3747C23.5342 14.3747 23.5286 14.3803 23.5252 14.3803C23.5162 14.3859 23.505 14.3978 23.496 14.4068C23.4904 14.4096 23.4842 14.4158 23.4786 14.4186C23.4667 14.4304 23.4549 14.4388 23.4431 14.4478C23.4257 14.4653 23.4077 14.4771 23.3874 14.4945H23.3846L23.2468 14.6149H23.244C23.118 14.7263 22.9684 14.8697 22.7985 15.0396L22.7839 15.0542C21.7641 16.1089 20.1559 18.3088 19.9888 21.8627C19.9714 22.1558 19.9742 22.4426 19.9916 22.7211V22.7267C20.0737 24.1273 20.5131 25.3226 21.0637 26.2952C21.2803 26.6822 21.5177 27.0338 21.7579 27.3499C22.5842 28.44 23.4279 29.0874 23.6417 29.2455C23.973 30.0099 23.9432 31.3284 23.9432 31.3284L24.4264 31.4893C24.4264 31.4893 24.3268 30.2147 24.4646 29.5965C24.5085 29.4058 24.6081 29.2421 24.7256 29.1015C24.8077 29.0458 25.0423 28.8759 25.3236 28.6183C25.3382 28.6037 25.3472 28.5919 25.359 28.5773C26.4986 27.5136 28.6288 24.8946 27.8992 20.6291L27.8846 20.6398Z" fill="#ADBAC7"/>
</g>
<path d="M57.8906 29H56.5859V21.4844C56.5859 20.8906 56.6224 20.1641 56.6953 19.3047H56.6641C56.5391 19.8099 56.4271 20.1719 56.3281 20.3906L52.5 29H51.8594L48.0391 20.4531C47.9297 20.2031 47.8177 19.8203 47.7031 19.3047H47.6719C47.7135 19.7526 47.7344 20.4844 47.7344 21.5V29H46.4688V17.7969H48.2031L51.6406 25.6094C51.9062 26.2083 52.0781 26.6562 52.1562 26.9531H52.2031C52.4271 26.3385 52.6068 25.8802 52.7422 25.5781L56.25 17.7969H57.8906V29ZM64.0156 29.1875C62.8333 29.1875 61.888 28.8151 61.1797 28.0703C60.4766 27.3203 60.125 26.3281 60.125 25.0938C60.125 23.75 60.4922 22.7005 61.2266 21.9453C61.9609 21.1901 62.9531 20.8125 64.2031 20.8125C65.3958 20.8125 66.3255 21.1797 66.9922 21.9141C67.6641 22.6484 68 23.6667 68 24.9688C68 26.2448 67.638 27.2682 66.9141 28.0391C66.1953 28.8047 65.2292 29.1875 64.0156 29.1875ZM64.1094 21.8906C63.2865 21.8906 62.6354 22.1719 62.1562 22.7344C61.6771 23.2917 61.4375 24.0625 61.4375 25.0469C61.4375 25.9948 61.6797 26.7422 62.1641 27.2891C62.6484 27.8359 63.2969 28.1094 64.1094 28.1094C64.9375 28.1094 65.5729 27.8411 66.0156 27.3047C66.4635 26.7682 66.6875 26.0052 66.6875 25.0156C66.6875 24.0156 66.4635 23.2448 66.0156 22.7031C65.5729 22.1615 64.9375 21.8906 64.1094 21.8906ZM76.6875 29H75.4062V24.4375C75.4062 22.7396 74.7865 21.8906 73.5469 21.8906C72.9062 21.8906 72.375 22.1328 71.9531 22.6172C71.5365 23.0964 71.3281 23.7031 71.3281 24.4375V29H70.0469V21H71.3281V22.3281H71.3594C71.9635 21.3177 72.8385 20.8125 73.9844 20.8125C74.8594 20.8125 75.5286 21.0964 75.9922 21.6641C76.4557 22.2266 76.6875 23.0417 76.6875 24.1094V29ZM85.9375 28.3594C85.9375 31.2969 84.5312 32.7656 81.7188 32.7656C80.7292 32.7656 79.8646 32.5781 79.125 32.2031V30.9219C80.026 31.4219 80.8854 31.6719 81.7031 31.6719C83.6719 31.6719 84.6562 30.625 84.6562 28.5312V27.6562H84.625C84.0156 28.6771 83.099 29.1875 81.875 29.1875C80.8802 29.1875 80.0781 28.8333 79.4688 28.125C78.8646 27.4115 78.5625 26.4557 78.5625 25.2578C78.5625 23.8984 78.888 22.8177 79.5391 22.0156C80.1953 21.2135 81.0911 20.8125 82.2266 20.8125C83.3047 20.8125 84.1042 21.2448 84.625 22.1094H84.6562V21H85.9375V28.3594ZM84.6562 25.3828V24.2031C84.6562 23.5677 84.4401 23.0234 84.0078 22.5703C83.5807 22.1172 83.0469 21.8906 82.4062 21.8906C81.6146 21.8906 80.9948 22.1797 80.5469 22.7578C80.099 23.3307 79.875 24.1354 79.875 25.1719C79.875 26.0625 80.0885 26.776 80.5156 27.3125C80.9479 27.8438 81.5182 28.1094 82.2266 28.1094C82.9453 28.1094 83.5286 27.8542 83.9766 27.3438C84.4297 26.8333 84.6562 26.1797 84.6562 25.3828ZM91.875 29.1875C90.6927 29.1875 89.7474 28.8151 89.0391 28.0703C88.3359 27.3203 87.9844 26.3281 87.9844 25.0938C87.9844 23.75 88.3516 22.7005 89.0859 21.9453C89.8203 21.1901 90.8125 20.8125 92.0625 20.8125C93.2552 20.8125 94.1849 21.1797 94.8516 21.9141C95.5234 22.6484 95.8594 23.6667 95.8594 24.9688C95.8594 26.2448 95.4974 27.2682 94.7734 28.0391C94.0547 28.8047 93.0885 29.1875 91.875 29.1875ZM91.9688 21.8906C91.1458 21.8906 90.4948 22.1719 90.0156 22.7344C89.5365 23.2917 89.2969 24.0625 89.2969 25.0469C89.2969 25.9948 89.5391 26.7422 90.0234 27.2891C90.5078 27.8359 91.1562 28.1094 91.9688 28.1094C92.7969 28.1094 93.4323 27.8411 93.875 27.3047C94.3229 26.7682 94.5469 26.0052 94.5469 25.0156C94.5469 24.0156 94.3229 23.2448 93.875 22.7031C93.4323 22.1615 92.7969 21.8906 91.9688 21.8906ZM98.0781 29V17.7969H101.172C105.12 17.7969 107.094 19.6172 107.094 23.2578C107.094 24.987 106.544 26.3776 105.445 27.4297C104.352 28.4766 102.885 29 101.047 29H98.0781ZM99.3906 18.9844V27.8125H101.062C102.531 27.8125 103.674 27.4193 104.492 26.6328C105.31 25.8464 105.719 24.7318 105.719 23.2891C105.719 20.4193 104.193 18.9844 101.141 18.9844H99.3906ZM109.297 29V17.7969H112.484C113.453 17.7969 114.221 18.0339 114.789 18.5078C115.357 18.9818 115.641 19.599 115.641 20.3594C115.641 20.9948 115.469 21.5469 115.125 22.0156C114.781 22.4844 114.307 22.8177 113.703 23.0156V23.0469C114.458 23.1354 115.062 23.4219 115.516 23.9062C115.969 24.3854 116.195 25.0104 116.195 25.7812C116.195 26.7396 115.852 27.5156 115.164 28.1094C114.477 28.7031 113.609 29 112.562 29H109.297ZM110.609 18.9844V22.6016H111.953C112.672 22.6016 113.237 22.4297 113.648 22.0859C114.06 21.737 114.266 21.2474 114.266 20.6172C114.266 19.5286 113.549 18.9844 112.117 18.9844H110.609ZM110.609 23.7812V27.8125H112.391C113.161 27.8125 113.758 27.6302 114.18 27.2656C114.607 26.901 114.82 26.401 114.82 25.7656C114.82 24.4427 113.919 23.7812 112.117 23.7812H110.609Z" fill="#ADBAC7"/>
<path d="M4 2H132V0H4V2ZM134 4V41H136V4H134ZM132 43H4V45H132V43ZM2 41V4H0V41H2ZM4 43C2.89543 43 2 42.1046 2 41H0C0 43.2091 1.79086 45 4 45V43ZM134 41C134 42.1046 133.105 43 132 43V45C134.209 45 136 43.2091 136 41H134ZM132 2C133.105 2 134 2.89543 134 4H136C136 1.79086 134.209 0 132 0V2ZM4 0C1.79086 0 0 1.79086 0 4H2C2 2.89543 2.89543 2 4 2V0Z" fill="#444C56"/>
<defs>
<clipPath id="clip0">
<rect width="18" height="18" fill="white" transform="translate(15 13.5)"/>
</clipPath>
</defs>
</svg>
