<svg width="91" height="28" viewBox="0 0 91 28" fill="none" xmlns="http://www.w3.org/2000/svg">
<g filter="url(#filter0_d)">
<path d="M2.5 5C2.5 2.23858 4.73858 0 7.5 0H83.5C86.2614 0 88.5 2.23858 88.5 5V19C88.5 21.7614 86.2614 24 83.5 24H7.5C4.73858 24 2.5 21.7614 2.5 19V5Z" fill="white"/>
<path d="M16.8488 19.875L16.4263 19.7349C16.4263 19.7349 16.4826 17.5974 15.7091 17.4473C15.2029 16.8578 15.7839 -7.71956 17.6346 17.3634C17.2834 17.5415 17.0148 17.8485 16.8848 18.2201C16.8151 18.769 16.803 19.3236 16.8488 19.875V19.875Z" fill="url(#paint0_linear)"/>
<path d="M17.0771 17.8101C18.2019 16.9634 19.0633 15.8149 19.5611 14.498C20.059 13.1811 20.1729 11.75 19.8896 10.371C19.0627 6.72319 17.1047 5.52394 16.8938 5.06606C16.7118 4.78095 16.5564 4.47967 16.4297 4.16606L16.5855 14.3299C16.5855 14.3299 16.2626 17.436 17.0771 17.8101Z" fill="url(#paint1_linear)"/>
<path d="M16.2114 17.9451C16.2114 17.9451 12.7684 15.6 12.9675 11.4516C12.9861 10.2009 13.2728 8.96884 13.8084 7.83852C14.3439 6.70821 15.1158 5.70599 16.0719 4.89956C16.1837 4.80464 16.2724 4.68563 16.3316 4.55148C16.3907 4.41732 16.4187 4.27151 16.4134 4.125C16.6277 4.58625 16.5928 11.0117 16.6153 11.7632C16.7025 14.6865 16.4528 17.3933 16.2114 17.9451V17.9451Z" fill="url(#paint2_linear)"/>
<path d="M32.9434 7.46875L35.7324 14.4297L38.5215 7.46875H39.9805V16H38.8555V12.6777L38.9609 9.0918L36.1602 16H35.2988L32.5039 9.10938L32.6152 12.6777V16H31.4902V7.46875H32.9434ZM41.5098 12.7715C41.5098 12.1504 41.6309 11.5918 41.873 11.0957C42.1191 10.5996 42.459 10.2168 42.8926 9.94727C43.3301 9.67773 43.8281 9.54297 44.3867 9.54297C45.25 9.54297 45.9473 9.8418 46.4785 10.4395C47.0137 11.0371 47.2812 11.832 47.2812 12.8242V12.9004C47.2812 13.5176 47.1621 14.0723 46.9238 14.5645C46.6895 15.0527 46.3516 15.4336 45.9102 15.707C45.4727 15.9805 44.9688 16.1172 44.3984 16.1172C43.5391 16.1172 42.8418 15.8184 42.3066 15.2207C41.7754 14.623 41.5098 13.832 41.5098 12.8477V12.7715ZM42.5996 12.9004C42.5996 13.6035 42.7617 14.168 43.0859 14.5938C43.4141 15.0195 43.8516 15.2324 44.3984 15.2324C44.9492 15.2324 45.3867 15.0176 45.7109 14.5879C46.0352 14.1543 46.1973 13.5488 46.1973 12.7715C46.1973 12.0762 46.0312 11.5137 45.6992 11.084C45.3711 10.6504 44.9336 10.4336 44.3867 10.4336C43.8516 10.4336 43.4199 10.6465 43.0918 11.0723C42.7637 11.498 42.5996 12.1074 42.5996 12.9004ZM49.666 9.66016L49.7012 10.457C50.1855 9.84766 50.8184 9.54297 51.5996 9.54297C52.9395 9.54297 53.6152 10.2988 53.627 11.8105V16H52.543V11.8047C52.5391 11.3477 52.4336 11.0098 52.2266 10.791C52.0234 10.5723 51.7051 10.4629 51.2715 10.4629C50.9199 10.4629 50.6113 10.5566 50.3457 10.7441C50.0801 10.9316 49.873 11.1777 49.7246 11.4824V16H48.6406V9.66016H49.666ZM55.0039 12.7773C55.0039 11.7891 55.2324 11.0039 55.6895 10.4219C56.1465 9.83594 56.752 9.54297 57.5059 9.54297C58.2793 9.54297 58.8828 9.81641 59.3164 10.3633L59.3691 9.66016H60.3594V15.8477C60.3594 16.668 60.1152 17.3145 59.627 17.7871C59.1426 18.2598 58.4902 18.4961 57.6699 18.4961C57.2129 18.4961 56.7656 18.3984 56.3281 18.2031C55.8906 18.0078 55.5566 17.7402 55.3262 17.4004L55.8887 16.75C56.3535 17.3242 56.9219 17.6113 57.5938 17.6113C58.1211 17.6113 58.5312 17.4629 58.8242 17.166C59.1211 16.8691 59.2695 16.4512 59.2695 15.9121V15.3672C58.8359 15.8672 58.2441 16.1172 57.4941 16.1172C56.752 16.1172 56.1504 15.8184 55.6895 15.2207C55.2324 14.623 55.0039 13.8086 55.0039 12.7773ZM56.0938 12.9004C56.0938 13.6152 56.2402 14.1777 56.5332 14.5879C56.8262 14.9941 57.2363 15.1973 57.7637 15.1973C58.4473 15.1973 58.9492 14.8867 59.2695 14.2656V11.3711C58.9375 10.7656 58.4395 10.4629 57.7754 10.4629C57.248 10.4629 56.8359 10.668 56.5391 11.0781C56.2422 11.4883 56.0938 12.0957 56.0938 12.9004ZM61.7129 12.7715C61.7129 12.1504 61.834 11.5918 62.0762 11.0957C62.3223 10.5996 62.6621 10.2168 63.0957 9.94727C63.5332 9.67773 64.0312 9.54297 64.5898 9.54297C65.4531 9.54297 66.1504 9.8418 66.6816 10.4395C67.2168 11.0371 67.4844 11.832 67.4844 12.8242V12.9004C67.4844 13.5176 67.3652 14.0723 67.127 14.5645C66.8926 15.0527 66.5547 15.4336 66.1133 15.707C65.6758 15.9805 65.1719 16.1172 64.6016 16.1172C63.7422 16.1172 63.0449 15.8184 62.5098 15.2207C61.9785 14.623 61.7129 13.832 61.7129 12.8477V12.7715ZM62.8027 12.9004C62.8027 13.6035 62.9648 14.168 63.2891 14.5938C63.6172 15.0195 64.0547 15.2324 64.6016 15.2324C65.1523 15.2324 65.5898 15.0176 65.9141 14.5879C66.2383 14.1543 66.4004 13.5488 66.4004 12.7715C66.4004 12.0762 66.2344 11.5137 65.9023 11.084C65.5742 10.6504 65.1367 10.4336 64.5898 10.4336C64.0547 10.4336 63.623 10.6465 63.2949 11.0723C62.9668 11.498 62.8027 12.1074 62.8027 12.9004ZM69.0137 16V7.46875H71.4219C72.1641 7.46875 72.8203 7.63281 73.3906 7.96094C73.9609 8.28906 74.4004 8.75586 74.709 9.36133C75.0215 9.9668 75.1797 10.6621 75.1836 11.4473V11.9922C75.1836 12.7969 75.0273 13.502 74.7148 14.1074C74.4062 14.7129 73.9629 15.1777 73.3848 15.502C72.8105 15.8262 72.1406 15.9922 71.375 16H69.0137ZM70.1387 8.39453V15.0801H71.3223C72.1895 15.0801 72.8633 14.8105 73.3438 14.2715C73.8281 13.7324 74.0703 12.9648 74.0703 11.9688V11.4707C74.0703 10.502 73.8418 9.75 73.3848 9.21484C72.9316 8.67578 72.2871 8.40234 71.4512 8.39453H70.1387ZM76.8887 16V7.46875H79.6777C80.6035 7.46875 81.2988 7.66016 81.7637 8.04297C82.2324 8.42578 82.4668 8.99219 82.4668 9.74219C82.4668 10.1406 82.3535 10.4941 82.127 10.8027C81.9004 11.1074 81.5918 11.3438 81.2012 11.5117C81.6621 11.6406 82.0254 11.8867 82.291 12.25C82.5605 12.6094 82.6953 13.0391 82.6953 13.5391C82.6953 14.3047 82.4473 14.9062 81.9512 15.3438C81.4551 15.7812 80.7539 16 79.8477 16H76.8887ZM78.0137 12.0098V15.0801H79.8711C80.3945 15.0801 80.8066 14.9453 81.1074 14.6758C81.4121 14.4023 81.5645 14.0273 81.5645 13.5508C81.5645 12.5234 81.0059 12.0098 79.8887 12.0098H78.0137ZM78.0137 11.1074H79.7129C80.2051 11.1074 80.5977 10.9844 80.8906 10.7383C81.1875 10.4922 81.3359 10.1582 81.3359 9.73633C81.3359 9.26758 81.1992 8.92773 80.9258 8.7168C80.6523 8.50195 80.2363 8.39453 79.6777 8.39453H78.0137V11.1074Z" fill="black"/>
</g>
<defs>
<filter id="filter0_d" x="0.5" y="0" width="90" height="28" filterUnits="userSpaceOnUse" color-interpolation-filters="sRGB">
<feFlood flood-opacity="0" result="BackgroundImageFix"/>
<feColorMatrix in="SourceAlpha" type="matrix" values="0 0 0 0 0 0 0 0 0 0 0 0 0 0 0 0 0 0 127 0" result="hardAlpha"/>
<feOffset dy="2"/>
<feGaussianBlur stdDeviation="1"/>
<feComposite in2="hardAlpha" operator="out"/>
<feColorMatrix type="matrix" values="0 0 0 0 0 0 0 0 0 0 0 0 0 0 0 0 0 0 0.25 0"/>
<feBlend mode="normal" in2="BackgroundImageFix" result="effect1_dropShadow"/>
<feBlend mode="normal" in="SourceGraphic" in2="effect1_dropShadow" result="shape"/>
</filter>
<linearGradient id="paint0_linear" x1="14.009" y1="12.1419" x2="18.8644" y2="13.7896" gradientUnits="userSpaceOnUse">
<stop offset="0.231" stop-color="#999875"/>
<stop offset="0.563" stop-color="#9B9977"/>
<stop offset="0.683" stop-color="#A09F7E"/>
<stop offset="0.768" stop-color="#A9A889"/>
<stop offset="0.837" stop-color="#B7B69A"/>
<stop offset="0.896" stop-color="#C9C7B0"/>
<stop offset="0.948" stop-color="#DEDDCB"/>
<stop offset="0.994" stop-color="#F8F6EB"/>
<stop offset="1" stop-color="#FBF9EF"/>
</linearGradient>
<linearGradient id="paint1_linear" x1="15.7895" y1="4.09343" x2="17.9361" y2="17.4972" gradientUnits="userSpaceOnUse">
<stop stop-color="#48A547"/>
<stop offset="1" stop-color="#3F9143"/>
</linearGradient>
<linearGradient id="paint2_linear" x1="12.6713" y1="11.8622" x2="18.4317" y2="9.93306" gradientUnits="userSpaceOnUse">
<stop stop-color="#41A247"/>
<stop offset="0.352" stop-color="#4BA74B"/>
<stop offset="0.956" stop-color="#67B554"/>
<stop offset="1" stop-color="#69B655"/>
</linearGradient>
</defs>
</svg>
