<svg width="100" height="36" viewBox="0 0 100 36" fill="none" xmlns="http://www.w3.org/2000/svg">
<g filter="url(#filter0_d)">
<path d="M2.5 3C2.5 1.34315 3.84315 0 5.5 0H94.5C96.1569 0 97.5 1.34315 97.5 3V29C97.5 30.6569 96.1569 32 94.5 32H5.5C3.84315 32 2.5 30.6569 2.5 29V3Z" fill="white"/>
<path d="M19.8488 23.875L19.4263 23.7349C19.4263 23.7349 19.4826 21.5974 18.7091 21.4473C18.2029 20.8578 18.7839 -3.71956 20.6346 21.3634C20.2834 21.5415 20.0148 21.8485 19.8848 22.2201C19.8151 22.769 19.803 23.3236 19.8488 23.875V23.875Z" fill="url(#paint0_linear)"/>
<path d="M20.0771 21.8101C21.2019 20.9634 22.0633 19.8149 22.5611 18.498C23.059 17.1811 23.1729 15.75 22.8896 14.371C22.0627 10.7232 20.1047 9.52394 19.8938 9.06606C19.7118 8.78095 19.5564 8.47967 19.4297 8.16606L19.5855 18.3299C19.5855 18.3299 19.2626 21.436 20.0771 21.8101Z" fill="url(#paint1_linear)"/>
<path d="M19.2114 21.9451C19.2114 21.9451 15.7684 19.6 15.9675 15.4516C15.9861 14.2009 16.2728 12.9688 16.8084 11.8385C17.3439 10.7082 18.1158 9.70599 19.0719 8.89956C19.1837 8.80464 19.2724 8.68563 19.3316 8.55148C19.3907 8.41732 19.4187 8.27151 19.4134 8.125C19.6277 8.58625 19.5928 15.0117 19.6153 15.7632C19.7025 18.6865 19.4528 21.3933 19.2114 21.9451V21.9451Z" fill="url(#paint2_linear)"/>
<path d="M38.9434 11.4688L41.7324 18.4297L44.5215 11.4688H45.9805V20H44.8555V16.6777L44.9609 13.0918L42.1602 20H41.2988L38.5039 13.1094L38.6152 16.6777V20H37.4902V11.4688H38.9434ZM47.5098 16.7715C47.5098 16.1504 47.6309 15.5918 47.873 15.0957C48.1191 14.5996 48.459 14.2168 48.8926 13.9473C49.3301 13.6777 49.8281 13.543 50.3867 13.543C51.25 13.543 51.9473 13.8418 52.4785 14.4395C53.0137 15.0371 53.2812 15.832 53.2812 16.8242V16.9004C53.2812 17.5176 53.1621 18.0723 52.9238 18.5645C52.6895 19.0527 52.3516 19.4336 51.9102 19.707C51.4727 19.9805 50.9688 20.1172 50.3984 20.1172C49.5391 20.1172 48.8418 19.8184 48.3066 19.2207C47.7754 18.623 47.5098 17.832 47.5098 16.8477V16.7715ZM48.5996 16.9004C48.5996 17.6035 48.7617 18.168 49.0859 18.5938C49.4141 19.0195 49.8516 19.2324 50.3984 19.2324C50.9492 19.2324 51.3867 19.0176 51.7109 18.5879C52.0352 18.1543 52.1973 17.5488 52.1973 16.7715C52.1973 16.0762 52.0312 15.5137 51.6992 15.084C51.3711 14.6504 50.9336 14.4336 50.3867 14.4336C49.8516 14.4336 49.4199 14.6465 49.0918 15.0723C48.7637 15.498 48.5996 16.1074 48.5996 16.9004ZM55.666 13.6602L55.7012 14.457C56.1855 13.8477 56.8184 13.543 57.5996 13.543C58.9395 13.543 59.6152 14.2988 59.627 15.8105V20H58.543V15.8047C58.5391 15.3477 58.4336 15.0098 58.2266 14.791C58.0234 14.5723 57.7051 14.4629 57.2715 14.4629C56.9199 14.4629 56.6113 14.5566 56.3457 14.7441C56.0801 14.9316 55.873 15.1777 55.7246 15.4824V20H54.6406V13.6602H55.666ZM61.0039 16.7773C61.0039 15.7891 61.2324 15.0039 61.6895 14.4219C62.1465 13.8359 62.752 13.543 63.5059 13.543C64.2793 13.543 64.8828 13.8164 65.3164 14.3633L65.3691 13.6602H66.3594V19.8477C66.3594 20.668 66.1152 21.3145 65.627 21.7871C65.1426 22.2598 64.4902 22.4961 63.6699 22.4961C63.2129 22.4961 62.7656 22.3984 62.3281 22.2031C61.8906 22.0078 61.5566 21.7402 61.3262 21.4004L61.8887 20.75C62.3535 21.3242 62.9219 21.6113 63.5938 21.6113C64.1211 21.6113 64.5312 21.4629 64.8242 21.166C65.1211 20.8691 65.2695 20.4512 65.2695 19.9121V19.3672C64.8359 19.8672 64.2441 20.1172 63.4941 20.1172C62.752 20.1172 62.1504 19.8184 61.6895 19.2207C61.2324 18.623 61.0039 17.8086 61.0039 16.7773ZM62.0938 16.9004C62.0938 17.6152 62.2402 18.1777 62.5332 18.5879C62.8262 18.9941 63.2363 19.1973 63.7637 19.1973C64.4473 19.1973 64.9492 18.8867 65.2695 18.2656V15.3711C64.9375 14.7656 64.4395 14.4629 63.7754 14.4629C63.248 14.4629 62.8359 14.668 62.5391 15.0781C62.2422 15.4883 62.0938 16.0957 62.0938 16.9004ZM67.7129 16.7715C67.7129 16.1504 67.834 15.5918 68.0762 15.0957C68.3223 14.5996 68.6621 14.2168 69.0957 13.9473C69.5332 13.6777 70.0312 13.543 70.5898 13.543C71.4531 13.543 72.1504 13.8418 72.6816 14.4395C73.2168 15.0371 73.4844 15.832 73.4844 16.8242V16.9004C73.4844 17.5176 73.3652 18.0723 73.127 18.5645C72.8926 19.0527 72.5547 19.4336 72.1133 19.707C71.6758 19.9805 71.1719 20.1172 70.6016 20.1172C69.7422 20.1172 69.0449 19.8184 68.5098 19.2207C67.9785 18.623 67.7129 17.832 67.7129 16.8477V16.7715ZM68.8027 16.9004C68.8027 17.6035 68.9648 18.168 69.2891 18.5938C69.6172 19.0195 70.0547 19.2324 70.6016 19.2324C71.1523 19.2324 71.5898 19.0176 71.9141 18.5879C72.2383 18.1543 72.4004 17.5488 72.4004 16.7715C72.4004 16.0762 72.2344 15.5137 71.9023 15.084C71.5742 14.6504 71.1367 14.4336 70.5898 14.4336C70.0547 14.4336 69.623 14.6465 69.2949 15.0723C68.9668 15.498 68.8027 16.1074 68.8027 16.9004ZM75.0137 20V11.4688H77.4219C78.1641 11.4688 78.8203 11.6328 79.3906 11.9609C79.9609 12.2891 80.4004 12.7559 80.709 13.3613C81.0215 13.9668 81.1797 14.6621 81.1836 15.4473V15.9922C81.1836 16.7969 81.0273 17.502 80.7148 18.1074C80.4062 18.7129 79.9629 19.1777 79.3848 19.502C78.8105 19.8262 78.1406 19.9922 77.375 20H75.0137ZM76.1387 12.3945V19.0801H77.3223C78.1895 19.0801 78.8633 18.8105 79.3438 18.2715C79.8281 17.7324 80.0703 16.9648 80.0703 15.9688V15.4707C80.0703 14.502 79.8418 13.75 79.3848 13.2148C78.9316 12.6758 78.2871 12.4023 77.4512 12.3945H76.1387ZM82.8887 20V11.4688H85.6777C86.6035 11.4688 87.2988 11.6602 87.7637 12.043C88.2324 12.4258 88.4668 12.9922 88.4668 13.7422C88.4668 14.1406 88.3535 14.4941 88.127 14.8027C87.9004 15.1074 87.5918 15.3438 87.2012 15.5117C87.6621 15.6406 88.0254 15.8867 88.291 16.25C88.5605 16.6094 88.6953 17.0391 88.6953 17.5391C88.6953 18.3047 88.4473 18.9062 87.9512 19.3438C87.4551 19.7812 86.7539 20 85.8477 20H82.8887ZM84.0137 16.0098V19.0801H85.8711C86.3945 19.0801 86.8066 18.9453 87.1074 18.6758C87.4121 18.4023 87.5645 18.0273 87.5645 17.5508C87.5645 16.5234 87.0059 16.0098 85.8887 16.0098H84.0137ZM84.0137 15.1074H85.7129C86.2051 15.1074 86.5977 14.9844 86.8906 14.7383C87.1875 14.4922 87.3359 14.1582 87.3359 13.7363C87.3359 13.2676 87.1992 12.9277 86.9258 12.7168C86.6523 12.502 86.2363 12.3945 85.6777 12.3945H84.0137V15.1074Z" fill="black"/>
</g>
<defs>
<filter id="filter0_d" x="0.5" y="0" width="99" height="36" filterUnits="userSpaceOnUse" color-interpolation-filters="sRGB">
<feFlood flood-opacity="0" result="BackgroundImageFix"/>
<feColorMatrix in="SourceAlpha" type="matrix" values="0 0 0 0 0 0 0 0 0 0 0 0 0 0 0 0 0 0 127 0" result="hardAlpha"/>
<feOffset dy="2"/>
<feGaussianBlur stdDeviation="1"/>
<feComposite in2="hardAlpha" operator="out"/>
<feColorMatrix type="matrix" values="0 0 0 0 0 0 0 0 0 0 0 0 0 0 0 0 0 0 0.25 0"/>
<feBlend mode="normal" in2="BackgroundImageFix" result="effect1_dropShadow"/>
<feBlend mode="normal" in="SourceGraphic" in2="effect1_dropShadow" result="shape"/>
</filter>
<linearGradient id="paint0_linear" x1="17.009" y1="16.1419" x2="21.8644" y2="17.7896" gradientUnits="userSpaceOnUse">
<stop offset="0.231" stop-color="#999875"/>
<stop offset="0.563" stop-color="#9B9977"/>
<stop offset="0.683" stop-color="#A09F7E"/>
<stop offset="0.768" stop-color="#A9A889"/>
<stop offset="0.837" stop-color="#B7B69A"/>
<stop offset="0.896" stop-color="#C9C7B0"/>
<stop offset="0.948" stop-color="#DEDDCB"/>
<stop offset="0.994" stop-color="#F8F6EB"/>
<stop offset="1" stop-color="#FBF9EF"/>
</linearGradient>
<linearGradient id="paint1_linear" x1="18.7895" y1="8.09343" x2="20.9361" y2="21.4972" gradientUnits="userSpaceOnUse">
<stop stop-color="#48A547"/>
<stop offset="1" stop-color="#3F9143"/>
</linearGradient>
<linearGradient id="paint2_linear" x1="15.6713" y1="15.8622" x2="21.4317" y2="13.9331" gradientUnits="userSpaceOnUse">
<stop stop-color="#41A247"/>
<stop offset="0.352" stop-color="#4BA74B"/>
<stop offset="0.956" stop-color="#67B554"/>
<stop offset="1" stop-color="#69B655"/>
</linearGradient>
</defs>
</svg>
