<svg width="98" height="34" viewBox="0 0 98 34" fill="none" xmlns="http://www.w3.org/2000/svg">
<path d="M1.5 4C1.5 2.34315 2.84315 1 4.5 1H93.5C95.1569 1 96.5 2.34315 96.5 4V30C96.5 31.6569 95.1569 33 93.5 33H4.5C2.84315 33 1.5 31.6569 1.5 30V4Z" fill="#C9D1D9"/>
<path d="M18.8488 24.875L18.4263 24.7349C18.4263 24.7349 18.4826 22.5974 17.7091 22.4473C17.2029 21.8578 17.7839 -2.71956 19.6346 22.3634C19.2834 22.5415 19.0148 22.8485 18.8848 23.2201C18.8151 23.769 18.803 24.3236 18.8488 24.875Z" fill="url(#paint0_linear)"/>
<path d="M19.0771 22.8101C20.2019 21.9634 21.0633 20.8149 21.5611 19.498C22.059 18.1811 22.1729 16.75 21.8896 15.371C21.0627 11.7232 19.1047 10.5239 18.8938 10.0661C18.7118 9.78095 18.5564 9.47967 18.4297 9.16606L18.5855 19.3299C18.5855 19.3299 18.2626 22.436 19.0771 22.8101Z" fill="url(#paint1_linear)"/>
<path d="M18.2114 22.9451C18.2114 22.9451 14.7684 20.6 14.9675 16.4516C14.9861 15.2009 15.2728 13.9688 15.8084 12.8385C16.3439 11.7082 17.1158 10.706 18.0719 9.89956C18.1837 9.80464 18.2724 9.68563 18.3316 9.55148C18.3907 9.41732 18.4187 9.27151 18.4134 9.125C18.6277 9.58625 18.5928 16.0117 18.6153 16.7632C18.7025 19.6865 18.4528 22.3933 18.2114 22.9451Z" fill="url(#paint2_linear)"/>
<path d="M37.9434 12.4688L40.7324 19.4297L43.5215 12.4688H44.9805V21H43.8555V17.6777L43.9609 14.0918L41.1602 21H40.2988L37.5039 14.1094L37.6152 17.6777V21H36.4902V12.4688H37.9434ZM46.5098 17.7715C46.5098 17.1504 46.6309 16.5918 46.873 16.0957C47.1191 15.5996 47.459 15.2168 47.8926 14.9473C48.3301 14.6777 48.8281 14.543 49.3867 14.543C50.25 14.543 50.9473 14.8418 51.4785 15.4395C52.0137 16.0371 52.2812 16.832 52.2812 17.8242V17.9004C52.2812 18.5176 52.1621 19.0723 51.9238 19.5645C51.6895 20.0527 51.3516 20.4336 50.9102 20.707C50.4727 20.9805 49.9688 21.1172 49.3984 21.1172C48.5391 21.1172 47.8418 20.8184 47.3066 20.2207C46.7754 19.623 46.5098 18.832 46.5098 17.8477V17.7715ZM47.5996 17.9004C47.5996 18.6035 47.7617 19.168 48.0859 19.5938C48.4141 20.0195 48.8516 20.2324 49.3984 20.2324C49.9492 20.2324 50.3867 20.0176 50.7109 19.5879C51.0352 19.1543 51.1973 18.5488 51.1973 17.7715C51.1973 17.0762 51.0312 16.5137 50.6992 16.084C50.3711 15.6504 49.9336 15.4336 49.3867 15.4336C48.8516 15.4336 48.4199 15.6465 48.0918 16.0723C47.7637 16.498 47.5996 17.1074 47.5996 17.9004ZM54.666 14.6602L54.7012 15.457C55.1855 14.8477 55.8184 14.543 56.5996 14.543C57.9395 14.543 58.6152 15.2988 58.627 16.8105V21H57.543V16.8047C57.5391 16.3477 57.4336 16.0098 57.2266 15.791C57.0234 15.5723 56.7051 15.4629 56.2715 15.4629C55.9199 15.4629 55.6113 15.5566 55.3457 15.7441C55.0801 15.9316 54.873 16.1777 54.7246 16.4824V21H53.6406V14.6602H54.666ZM60.0039 17.7773C60.0039 16.7891 60.2324 16.0039 60.6895 15.4219C61.1465 14.8359 61.752 14.543 62.5059 14.543C63.2793 14.543 63.8828 14.8164 64.3164 15.3633L64.3691 14.6602H65.3594V20.8477C65.3594 21.668 65.1152 22.3145 64.627 22.7871C64.1426 23.2598 63.4902 23.4961 62.6699 23.4961C62.2129 23.4961 61.7656 23.3984 61.3281 23.2031C60.8906 23.0078 60.5566 22.7402 60.3262 22.4004L60.8887 21.75C61.3535 22.3242 61.9219 22.6113 62.5938 22.6113C63.1211 22.6113 63.5312 22.4629 63.8242 22.166C64.1211 21.8691 64.2695 21.4512 64.2695 20.9121V20.3672C63.8359 20.8672 63.2441 21.1172 62.4941 21.1172C61.752 21.1172 61.1504 20.8184 60.6895 20.2207C60.2324 19.623 60.0039 18.8086 60.0039 17.7773ZM61.0938 17.9004C61.0938 18.6152 61.2402 19.1777 61.5332 19.5879C61.8262 19.9941 62.2363 20.1973 62.7637 20.1973C63.4473 20.1973 63.9492 19.8867 64.2695 19.2656V16.3711C63.9375 15.7656 63.4395 15.4629 62.7754 15.4629C62.248 15.4629 61.8359 15.668 61.5391 16.0781C61.2422 16.4883 61.0938 17.0957 61.0938 17.9004ZM66.7129 17.7715C66.7129 17.1504 66.834 16.5918 67.0762 16.0957C67.3223 15.5996 67.6621 15.2168 68.0957 14.9473C68.5332 14.6777 69.0312 14.543 69.5898 14.543C70.4531 14.543 71.1504 14.8418 71.6816 15.4395C72.2168 16.0371 72.4844 16.832 72.4844 17.8242V17.9004C72.4844 18.5176 72.3652 19.0723 72.127 19.5645C71.8926 20.0527 71.5547 20.4336 71.1133 20.707C70.6758 20.9805 70.1719 21.1172 69.6016 21.1172C68.7422 21.1172 68.0449 20.8184 67.5098 20.2207C66.9785 19.623 66.7129 18.832 66.7129 17.8477V17.7715ZM67.8027 17.9004C67.8027 18.6035 67.9648 19.168 68.2891 19.5938C68.6172 20.0195 69.0547 20.2324 69.6016 20.2324C70.1523 20.2324 70.5898 20.0176 70.9141 19.5879C71.2383 19.1543 71.4004 18.5488 71.4004 17.7715C71.4004 17.0762 71.2344 16.5137 70.9023 16.084C70.5742 15.6504 70.1367 15.4336 69.5898 15.4336C69.0547 15.4336 68.623 15.6465 68.2949 16.0723C67.9668 16.498 67.8027 17.1074 67.8027 17.9004ZM74.0137 21V12.4688H76.4219C77.1641 12.4688 77.8203 12.6328 78.3906 12.9609C78.9609 13.2891 79.4004 13.7559 79.709 14.3613C80.0215 14.9668 80.1797 15.6621 80.1836 16.4473V16.9922C80.1836 17.7969 80.0273 18.502 79.7148 19.1074C79.4062 19.7129 78.9629 20.1777 78.3848 20.502C77.8105 20.8262 77.1406 20.9922 76.375 21H74.0137ZM75.1387 13.3945V20.0801H76.3223C77.1895 20.0801 77.8633 19.8105 78.3438 19.2715C78.8281 18.7324 79.0703 17.9648 79.0703 16.9688V16.4707C79.0703 15.502 78.8418 14.75 78.3848 14.2148C77.9316 13.6758 77.2871 13.4023 76.4512 13.3945H75.1387ZM81.8887 21V12.4688H84.6777C85.6035 12.4688 86.2988 12.6602 86.7637 13.043C87.2324 13.4258 87.4668 13.9922 87.4668 14.7422C87.4668 15.1406 87.3535 15.4941 87.127 15.8027C86.9004 16.1074 86.5918 16.3438 86.2012 16.5117C86.6621 16.6406 87.0254 16.8867 87.291 17.25C87.5605 17.6094 87.6953 18.0391 87.6953 18.5391C87.6953 19.3047 87.4473 19.9062 86.9512 20.3438C86.4551 20.7812 85.7539 21 84.8477 21H81.8887ZM83.0137 17.0098V20.0801H84.8711C85.3945 20.0801 85.8066 19.9453 86.1074 19.6758C86.4121 19.4023 86.5645 19.0273 86.5645 18.5508C86.5645 17.5234 86.0059 17.0098 84.8887 17.0098H83.0137ZM83.0137 16.1074H84.7129C85.2051 16.1074 85.5977 15.9844 85.8906 15.7383C86.1875 15.4922 86.3359 15.1582 86.3359 14.7363C86.3359 14.2676 86.1992 13.9277 85.9258 13.7168C85.6523 13.502 85.2363 13.3945 84.6777 13.3945H83.0137V16.1074Z" fill="#22272E"/>
<path d="M4.5 2H93.5V0H4.5V2ZM95.5 4V30H97.5V4H95.5ZM93.5 32H4.5V34H93.5V32ZM2.5 30V4H0.5V30H2.5ZM4.5 32C3.39543 32 2.5 31.1046 2.5 30H0.5C0.5 32.2091 2.29086 34 4.5 34V32ZM95.5 30C95.5 31.1046 94.6046 32 93.5 32V34C95.7091 34 97.5 32.2091 97.5 30H95.5ZM93.5 2C94.6046 2 95.5 2.89543 95.5 4H97.5C97.5 1.79086 95.7091 0 93.5 0V2ZM4.5 0C2.29086 0 0.5 1.79086 0.5 4H2.5C2.5 2.89543 3.39543 2 4.5 2V0Z" fill="#30363D"/>
<defs>
<linearGradient id="paint0_linear" x1="16.009" y1="17.1419" x2="20.8644" y2="18.7896" gradientUnits="userSpaceOnUse">
<stop offset="0.231" stop-color="#999875"/>
<stop offset="0.563" stop-color="#9B9977"/>
<stop offset="0.683" stop-color="#A09F7E"/>
<stop offset="0.768" stop-color="#A9A889"/>
<stop offset="0.837" stop-color="#B7B69A"/>
<stop offset="0.896" stop-color="#C9C7B0"/>
<stop offset="0.948" stop-color="#DEDDCB"/>
<stop offset="0.994" stop-color="#F8F6EB"/>
<stop offset="1" stop-color="#FBF9EF"/>
</linearGradient>
<linearGradient id="paint1_linear" x1="17.7895" y1="9.09343" x2="19.9361" y2="22.4972" gradientUnits="userSpaceOnUse">
<stop stop-color="#48A547"/>
<stop offset="1" stop-color="#3F9143"/>
</linearGradient>
<linearGradient id="paint2_linear" x1="14.6713" y1="16.8622" x2="20.4317" y2="14.9331" gradientUnits="userSpaceOnUse">
<stop stop-color="#41A247"/>
<stop offset="0.352" stop-color="#4BA74B"/>
<stop offset="0.956" stop-color="#67B554"/>
<stop offset="1" stop-color="#69B655"/>
</linearGradient>
</defs>
</svg>
