<svg width="103" height="36" viewBox="0 0 103 36" fill="none" xmlns="http://www.w3.org/2000/svg">
<g filter="url(#filter0_d)">
<path d="M2 3C2 1.34315 3.34315 0 5 0H98C99.6569 0 101 1.34315 101 3V29C101 30.6569 99.6569 32 98 32H5C3.34314 32 2 30.6569 2 29V3Z" fill="#C9D1D9"/>
<path d="M10.971 19.7734V7.87994H12.3873V9.66744C12.3873 9.66744 13.1772 7.60767 16.233 7.60767C18.9793 7.60767 19.557 9.91919 19.557 9.91919C19.557 9.91919 20.4958 7.60361 23.4813 7.60361C26.9983 7.60361 27.0655 10.9521 27.0655 10.9521V19.7734H25.7678V10.8281C25.7678 10.8281 25.6873 8.79618 23.3529 8.79618C19.9026 8.79618 19.7858 12.3349 19.7858 12.3349V19.7734H18.318V11.096C18.318 11.096 18.5379 8.84152 15.837 8.84152C12.5395 8.84152 12.3884 12.4464 12.3884 12.4464L12.4215 19.7734H10.971Z" fill="#880000"/>
<path d="M38.4434 11.4688L41.2324 18.4297L44.0215 11.4688H45.4805V20H44.3555V16.6777L44.4609 13.0918L41.6602 20H40.7988L38.0039 13.1094L38.1152 16.6777V20H36.9902V11.4688H38.4434ZM47.0098 16.7715C47.0098 16.1504 47.1309 15.5918 47.373 15.0957C47.6191 14.5996 47.959 14.2168 48.3926 13.9473C48.8301 13.6777 49.3281 13.543 49.8867 13.543C50.75 13.543 51.4473 13.8418 51.9785 14.4395C52.5137 15.0371 52.7812 15.832 52.7812 16.8242V16.9004C52.7812 17.5176 52.6621 18.0723 52.4238 18.5645C52.1895 19.0527 51.8516 19.4336 51.4102 19.707C50.9727 19.9805 50.4688 20.1172 49.8984 20.1172C49.0391 20.1172 48.3418 19.8184 47.8066 19.2207C47.2754 18.623 47.0098 17.832 47.0098 16.8477V16.7715ZM48.0996 16.9004C48.0996 17.6035 48.2617 18.168 48.5859 18.5938C48.9141 19.0195 49.3516 19.2324 49.8984 19.2324C50.4492 19.2324 50.8867 19.0176 51.2109 18.5879C51.5352 18.1543 51.6973 17.5488 51.6973 16.7715C51.6973 16.0762 51.5312 15.5137 51.1992 15.084C50.8711 14.6504 50.4336 14.4336 49.8867 14.4336C49.3516 14.4336 48.9199 14.6465 48.5918 15.0723C48.2637 15.498 48.0996 16.1074 48.0996 16.9004ZM55.166 13.6602L55.2012 14.457C55.6855 13.8477 56.3184 13.543 57.0996 13.543C58.4395 13.543 59.1152 14.2988 59.127 15.8105V20H58.043V15.8047C58.0391 15.3477 57.9336 15.0098 57.7266 14.791C57.5234 14.5723 57.2051 14.4629 56.7715 14.4629C56.4199 14.4629 56.1113 14.5566 55.8457 14.7441C55.5801 14.9316 55.373 15.1777 55.2246 15.4824V20H54.1406V13.6602H55.166ZM60.5039 16.7773C60.5039 15.7891 60.7324 15.0039 61.1895 14.4219C61.6465 13.8359 62.252 13.543 63.0059 13.543C63.7793 13.543 64.3828 13.8164 64.8164 14.3633L64.8691 13.6602H65.8594V19.8477C65.8594 20.668 65.6152 21.3145 65.127 21.7871C64.6426 22.2598 63.9902 22.4961 63.1699 22.4961C62.7129 22.4961 62.2656 22.3984 61.8281 22.2031C61.3906 22.0078 61.0566 21.7402 60.8262 21.4004L61.3887 20.75C61.8535 21.3242 62.4219 21.6113 63.0938 21.6113C63.6211 21.6113 64.0312 21.4629 64.3242 21.166C64.6211 20.8691 64.7695 20.4512 64.7695 19.9121V19.3672C64.3359 19.8672 63.7441 20.1172 62.9941 20.1172C62.252 20.1172 61.6504 19.8184 61.1895 19.2207C60.7324 18.623 60.5039 17.8086 60.5039 16.7773ZM61.5938 16.9004C61.5938 17.6152 61.7402 18.1777 62.0332 18.5879C62.3262 18.9941 62.7363 19.1973 63.2637 19.1973C63.9473 19.1973 64.4492 18.8867 64.7695 18.2656V15.3711C64.4375 14.7656 63.9395 14.4629 63.2754 14.4629C62.748 14.4629 62.3359 14.668 62.0391 15.0781C61.7422 15.4883 61.5938 16.0957 61.5938 16.9004ZM67.2129 16.7715C67.2129 16.1504 67.334 15.5918 67.5762 15.0957C67.8223 14.5996 68.1621 14.2168 68.5957 13.9473C69.0332 13.6777 69.5312 13.543 70.0898 13.543C70.9531 13.543 71.6504 13.8418 72.1816 14.4395C72.7168 15.0371 72.9844 15.832 72.9844 16.8242V16.9004C72.9844 17.5176 72.8652 18.0723 72.627 18.5645C72.3926 19.0527 72.0547 19.4336 71.6133 19.707C71.1758 19.9805 70.6719 20.1172 70.1016 20.1172C69.2422 20.1172 68.5449 19.8184 68.0098 19.2207C67.4785 18.623 67.2129 17.832 67.2129 16.8477V16.7715ZM68.3027 16.9004C68.3027 17.6035 68.4648 18.168 68.7891 18.5938C69.1172 19.0195 69.5547 19.2324 70.1016 19.2324C70.6523 19.2324 71.0898 19.0176 71.4141 18.5879C71.7383 18.1543 71.9004 17.5488 71.9004 16.7715C71.9004 16.0762 71.7344 15.5137 71.4023 15.084C71.0742 14.6504 70.6367 14.4336 70.0898 14.4336C69.5547 14.4336 69.123 14.6465 68.7949 15.0723C68.4668 15.498 68.3027 16.1074 68.3027 16.9004ZM74.0566 16.7715C74.0566 16.1504 74.1777 15.5918 74.4199 15.0957C74.666 14.5996 75.0059 14.2168 75.4395 13.9473C75.877 13.6777 76.375 13.543 76.9336 13.543C77.7969 13.543 78.4941 13.8418 79.0254 14.4395C79.5605 15.0371 79.8281 15.832 79.8281 16.8242V16.9004C79.8281 17.5176 79.709 18.0723 79.4707 18.5645C79.2363 19.0527 78.8984 19.4336 78.457 19.707C78.0195 19.9805 77.5156 20.1172 76.9453 20.1172C76.0859 20.1172 75.3887 19.8184 74.8535 19.2207C74.3223 18.623 74.0566 17.832 74.0566 16.8477V16.7715ZM75.1465 16.9004C75.1465 17.6035 75.3086 18.168 75.6328 18.5938C75.9609 19.0195 76.3984 19.2324 76.9453 19.2324C77.4961 19.2324 77.9336 19.0176 78.2578 18.5879C78.582 18.1543 78.7441 17.5488 78.7441 16.7715C78.7441 16.0762 78.5781 15.5137 78.2461 15.084C77.918 14.6504 77.4805 14.4336 76.9336 14.4336C76.3984 14.4336 75.9668 14.6465 75.6387 15.0723C75.3105 15.498 75.1465 16.1074 75.1465 16.9004ZM84.8789 18.3184C84.8789 18.0254 84.7676 17.7988 84.5449 17.6387C84.3262 17.4746 83.9414 17.334 83.3906 17.2168C82.8438 17.0996 82.4082 16.959 82.084 16.7949C81.7637 16.6309 81.5254 16.4355 81.3691 16.209C81.2168 15.9824 81.1406 15.7129 81.1406 15.4004C81.1406 14.8809 81.3594 14.4414 81.7969 14.082C82.2383 13.7227 82.8008 13.543 83.4844 13.543C84.2031 13.543 84.7852 13.7285 85.2305 14.0996C85.6797 14.4707 85.9043 14.9453 85.9043 15.5234H84.8145C84.8145 15.2266 84.6875 14.9707 84.4336 14.7559C84.1836 14.541 83.8672 14.4336 83.4844 14.4336C83.0898 14.4336 82.7812 14.5195 82.5586 14.6914C82.3359 14.8633 82.2246 15.0879 82.2246 15.3652C82.2246 15.627 82.3281 15.8242 82.5352 15.957C82.7422 16.0898 83.1152 16.2168 83.6543 16.3379C84.1973 16.459 84.6367 16.6035 84.9727 16.7715C85.3086 16.9395 85.5566 17.1426 85.7168 17.3809C85.8809 17.6152 85.9629 17.9023 85.9629 18.2422C85.9629 18.8086 85.7363 19.2637 85.2832 19.6074C84.8301 19.9473 84.2422 20.1172 83.5195 20.1172C83.0117 20.1172 82.5625 20.0273 82.1719 19.8477C81.7812 19.668 81.4746 19.418 81.252 19.0977C81.0332 18.7734 80.9238 18.4238 80.9238 18.0488H82.0078C82.0273 18.4121 82.1719 18.7012 82.4414 18.916C82.7148 19.127 83.0742 19.2324 83.5195 19.2324C83.9297 19.2324 84.2578 19.1504 84.5039 18.9863C84.7539 18.8184 84.8789 18.5957 84.8789 18.3184ZM90.0059 20.1172C89.1465 20.1172 88.4473 19.8359 87.9082 19.2734C87.3691 18.707 87.0996 17.9512 87.0996 17.0059V16.8066C87.0996 16.1777 87.2188 15.6172 87.457 15.125C87.6992 14.6289 88.0352 14.2422 88.4648 13.9648C88.8984 13.6836 89.3672 13.543 89.8711 13.543C90.6953 13.543 91.3359 13.8145 91.793 14.3574C92.25 14.9004 92.4785 15.6777 92.4785 16.6895V17.1406H88.1836C88.1992 17.7656 88.3809 18.2715 88.7285 18.6582C89.0801 19.041 89.5254 19.2324 90.0645 19.2324C90.4473 19.2324 90.7715 19.1543 91.0371 18.998C91.3027 18.8418 91.5352 18.6348 91.7344 18.377L92.3965 18.8926C91.8652 19.709 91.0684 20.1172 90.0059 20.1172ZM89.8711 14.4336C89.4336 14.4336 89.0664 14.5938 88.7695 14.9141C88.4727 15.2305 88.2891 15.6758 88.2188 16.25H91.3945V16.168C91.3633 15.6172 91.2148 15.1914 90.9492 14.8906C90.6836 14.5859 90.3242 14.4336 89.8711 14.4336Z" fill="#22272E"/>
</g>
<defs>
<filter id="filter0_d" x="0" y="0" width="103" height="36" filterUnits="userSpaceOnUse" color-interpolation-filters="sRGB">
<feFlood flood-opacity="0" result="BackgroundImageFix"/>
<feColorMatrix in="SourceAlpha" type="matrix" values="0 0 0 0 0 0 0 0 0 0 0 0 0 0 0 0 0 0 127 0" result="hardAlpha"/>
<feOffset dy="2"/>
<feGaussianBlur stdDeviation="1"/>
<feComposite in2="hardAlpha" operator="out"/>
<feColorMatrix type="matrix" values="0 0 0 0 0 0 0 0 0 0 0 0 0 0 0 0 0 0 0.25 0"/>
<feBlend mode="normal" in2="BackgroundImageFix" result="effect1_dropShadow"/>
<feBlend mode="normal" in="SourceGraphic" in2="effect1_dropShadow" result="shape"/>
</filter>
</defs>
</svg>
