<svg width="115" height="39" viewBox="0 0 115 39" fill="none" xmlns="http://www.w3.org/2000/svg">
<path d="M1 4C1 2.34315 2.34315 1 4 1H111C112.657 1 114 2.34315 114 4V35C114 36.6569 112.657 38 111 38H4C2.34315 38 1 36.6569 1 35V4Z" fill="#22272E"/>
<g clip-path="url(#clip0)">
<path d="M23.8846 17.6398C22.9385 13.4678 20.7031 12.0998 20.4629 11.5755C20.1991 11.2037 19.9151 10.5006 19.9151 10.5006C19.9122 10.5152 19.9122 10.5242 19.9094 10.5388V10.5478C19.9094 10.5596 19.9066 10.5653 19.9066 10.5771V10.5889H19.9038V10.6266H19.901C19.901 10.6322 19.901 10.6412 19.8982 10.644V10.6614C19.8982 10.6671 19.8982 10.6733 19.8954 10.6761V10.6907C19.8954 10.6997 19.8954 10.7081 19.8926 10.7143V10.7171C19.8921 10.73 19.8902 10.7429 19.8869 10.7554V10.761C19.8841 10.7638 19.8841 10.7666 19.8841 10.77V10.7818H19.8813V10.7993H19.8785V10.8111H19.8729V10.8285H19.8701V10.8431H19.8672V10.8549H19.8644V10.8668H19.8616V10.8786H19.8588V10.8904H19.856V10.8994H19.8532V10.9112H19.8504V10.923H19.8476C19.8447 10.923 19.8447 10.9258 19.8447 10.9258V10.9314L19.8419 10.9371C19.8419 10.9427 19.8391 10.9489 19.8363 10.9545C19.8335 10.9573 19.8335 10.9573 19.8335 10.9601V10.9658H19.8307V10.9714H19.8251V10.986H19.8194V10.995H19.8166V10.9978H19.8138V11.0034H19.811V11.0124H19.8082V11.0181H19.8026V11.0271H19.7997V11.0327H19.7969V11.0383H19.7941V11.0473H19.7913V11.0529H19.7885V11.0558H19.7857V11.0614H19.7801V11.0704H19.7772V11.0732H19.7744V11.0788H19.7716V11.0878H19.7688V11.0906H19.766V11.0963H19.7632V11.0991H19.7604V11.1081H19.7547V11.1109H19.7519V11.1165H19.7491V11.1193H19.7463V11.1249H19.7435V11.1306C19.7407 11.1306 19.7407 11.1334 19.7407 11.1334V11.1362H19.7379L19.7289 11.1508C19.7289 11.1508 19.7232 11.1564 19.7232 11.1598C19.7204 11.1598 19.7204 11.1626 19.7204 11.1626V11.1654H19.7176V11.1683H19.7148V11.1739H19.7092V11.1767H19.7064V11.1795H19.7036V11.1879H19.7007V11.1908H19.6979V11.1936H19.6951V11.1992H19.6923V11.1936H19.6867V11.1964H19.6839V11.202H19.6811V11.2076H19.6782V11.2104H19.6754V11.2133H19.6726V11.2161H19.6698V11.2217H19.6642V11.2245H19.6614V11.2301H19.6586V11.2329H19.6557V11.2358H19.6529V11.2448H19.6501V11.2476H19.6473V11.2504H19.6445V11.2532H19.6417V11.256H19.6361V11.2616H19.6332V11.2644H19.6304V11.2673H19.6276V11.2729H19.6248V11.2757H19.6192V11.2785H19.6164V11.2813H19.6136V11.2869H19.6107V11.2926H19.6079V11.2954H19.6051V11.2982H19.5995V11.301H19.5967V11.3038H19.5939V11.3094H19.5911V11.3123H19.5882V11.3179H19.5854V11.3207H19.5826V11.3235H19.5798V11.3263H19.577V11.3291H19.5714V11.3319C19.5686 11.3319 19.5686 11.3348 19.5686 11.3348L19.5657 11.3376L19.5629 11.3404V11.346H19.5601V11.3488H19.5573V11.3516H19.5545V11.3544H19.5517L19.5461 11.3601V11.3629C19.5404 11.3657 19.5404 11.3685 19.5342 11.3747C19.5342 11.3747 19.5286 11.3803 19.5252 11.3803C19.5162 11.3859 19.505 11.3978 19.496 11.4068C19.4904 11.4096 19.4842 11.4158 19.4786 11.4186C19.4667 11.4304 19.4549 11.4388 19.4431 11.4478C19.4257 11.4653 19.4077 11.4771 19.3874 11.4945H19.3846L19.2468 11.6149H19.244C19.118 11.7263 18.9684 11.8697 18.7985 12.0396L18.7839 12.0542C17.7641 13.1089 16.1559 15.3088 15.9888 18.8627C15.9714 19.1558 15.9742 19.4426 15.9916 19.7211V19.7267C16.0737 21.1273 16.5131 22.3226 17.0637 23.2952C17.2803 23.6822 17.5177 24.0338 17.7579 24.3499C18.5842 25.44 19.4279 26.0874 19.6417 26.2455C19.973 27.0099 19.9432 28.3284 19.9432 28.3284L20.4264 28.4893C20.4264 28.4893 20.3268 27.2147 20.4646 26.5965C20.5085 26.4058 20.6081 26.2421 20.7256 26.1015C20.8077 26.0458 21.0423 25.8759 21.3236 25.6183C21.3382 25.6037 21.3472 25.5919 21.359 25.5773C22.4986 24.5136 24.6288 21.8946 23.8992 17.6291L23.8846 17.6398Z" fill="#ADBAC7"/>
</g>
<path d="M52.2793 25H51.1377V18.4238C51.1377 17.9043 51.1696 17.2686 51.2334 16.5166H51.2061C51.0967 16.9587 50.9987 17.2754 50.9121 17.4668L47.5625 25H47.002L43.6592 17.5215C43.5635 17.3027 43.4655 16.9678 43.3652 16.5166H43.3379C43.3743 16.9085 43.3926 17.5488 43.3926 18.4375V25H42.2852V15.1973H43.8027L46.8105 22.0332C47.043 22.5573 47.1934 22.9492 47.2617 23.209H47.3027C47.4987 22.6712 47.6559 22.2702 47.7744 22.0059L50.8438 15.1973H52.2793V25ZM57.6387 25.1641C56.6042 25.1641 55.777 24.8382 55.1572 24.1865C54.542 23.5303 54.2344 22.6621 54.2344 21.582C54.2344 20.4062 54.5557 19.488 55.1982 18.8271C55.8408 18.1663 56.709 17.8359 57.8027 17.8359C58.8464 17.8359 59.6598 18.1572 60.2432 18.7998C60.8311 19.4424 61.125 20.3333 61.125 21.4727C61.125 22.5892 60.8083 23.4847 60.1748 24.1592C59.5459 24.8291 58.7005 25.1641 57.6387 25.1641ZM57.7207 18.7793C57.0007 18.7793 56.431 19.0254 56.0117 19.5176C55.5924 20.0052 55.3828 20.6797 55.3828 21.541C55.3828 22.3704 55.5947 23.0244 56.0186 23.5029C56.4424 23.9814 57.0098 24.2207 57.7207 24.2207C58.4453 24.2207 59.0013 23.986 59.3887 23.5166C59.7806 23.0472 59.9766 22.3796 59.9766 21.5137C59.9766 20.6387 59.7806 19.9642 59.3887 19.4902C59.0013 19.0163 58.4453 18.7793 57.7207 18.7793ZM68.7266 25H67.6055V21.0078C67.6055 19.5221 67.0632 18.7793 65.9785 18.7793C65.418 18.7793 64.9531 18.9912 64.584 19.415C64.2194 19.8343 64.0371 20.3652 64.0371 21.0078V25H62.916V18H64.0371V19.1621H64.0645C64.5931 18.278 65.3587 17.8359 66.3613 17.8359C67.127 17.8359 67.7126 18.0843 68.1182 18.5811C68.5238 19.0732 68.7266 19.7865 68.7266 20.7207V25ZM76.8203 24.4395C76.8203 27.0098 75.5898 28.2949 73.1289 28.2949C72.263 28.2949 71.5065 28.1309 70.8594 27.8027V26.6816C71.6478 27.1191 72.3997 27.3379 73.1152 27.3379C74.8379 27.3379 75.6992 26.4219 75.6992 24.5898V23.8242H75.6719C75.1387 24.7174 74.3366 25.1641 73.2656 25.1641C72.3952 25.1641 71.6934 24.8542 71.1602 24.2344C70.6315 23.61 70.3672 22.7738 70.3672 21.7256C70.3672 20.5361 70.652 19.5905 71.2217 18.8887C71.7959 18.1868 72.5798 17.8359 73.5732 17.8359C74.5166 17.8359 75.2161 18.2142 75.6719 18.9707H75.6992V18H76.8203V24.4395ZM75.6992 21.835V20.8027C75.6992 20.2467 75.5101 19.7705 75.1318 19.374C74.7581 18.9775 74.291 18.7793 73.7305 18.7793C73.0378 18.7793 72.4954 19.0322 72.1035 19.5381C71.7116 20.0394 71.5156 20.7435 71.5156 21.6504C71.5156 22.4297 71.7025 23.054 72.0762 23.5234C72.4544 23.9883 72.9535 24.2207 73.5732 24.2207C74.2021 24.2207 74.7126 23.9974 75.1045 23.5508C75.501 23.1042 75.6992 22.5322 75.6992 21.835ZM82.0156 25.1641C80.9811 25.1641 80.154 24.8382 79.5342 24.1865C78.9189 23.5303 78.6113 22.6621 78.6113 21.582C78.6113 20.4062 78.9326 19.488 79.5752 18.8271C80.2178 18.1663 81.0859 17.8359 82.1797 17.8359C83.2233 17.8359 84.0368 18.1572 84.6201 18.7998C85.208 19.4424 85.502 20.3333 85.502 21.4727C85.502 22.5892 85.1852 23.4847 84.5518 24.1592C83.9229 24.8291 83.0775 25.1641 82.0156 25.1641ZM82.0977 18.7793C81.3776 18.7793 80.8079 19.0254 80.3887 19.5176C79.9694 20.0052 79.7598 20.6797 79.7598 21.541C79.7598 22.3704 79.9717 23.0244 80.3955 23.5029C80.8193 23.9814 81.3867 24.2207 82.0977 24.2207C82.8223 24.2207 83.3783 23.986 83.7656 23.5166C84.1576 23.0472 84.3535 22.3796 84.3535 21.5137C84.3535 20.6387 84.1576 19.9642 83.7656 19.4902C83.3783 19.0163 82.8223 18.7793 82.0977 18.7793ZM87.4434 25V15.1973H90.1504C93.6048 15.1973 95.332 16.79 95.332 19.9756C95.332 21.4886 94.8512 22.7054 93.8896 23.626C92.9326 24.542 91.6497 25 90.041 25H87.4434ZM88.5918 16.2363V23.9609H90.0547C91.3398 23.9609 92.3402 23.6169 93.0557 22.9287C93.7712 22.2406 94.1289 21.2653 94.1289 20.0029C94.1289 17.4919 92.7936 16.2363 90.123 16.2363H88.5918ZM97.2598 25V15.1973H100.049C100.896 15.1973 101.569 15.4046 102.065 15.8193C102.562 16.234 102.811 16.7741 102.811 17.4395C102.811 17.9954 102.66 18.4785 102.359 18.8887C102.059 19.2988 101.644 19.5905 101.115 19.7637V19.791C101.776 19.8685 102.305 20.1191 102.701 20.543C103.098 20.9622 103.296 21.5091 103.296 22.1836C103.296 23.0221 102.995 23.7012 102.394 24.2207C101.792 24.7402 101.033 25 100.117 25H97.2598ZM98.4082 16.2363V19.4014H99.584C100.213 19.4014 100.707 19.251 101.067 18.9502C101.427 18.6449 101.607 18.2165 101.607 17.665C101.607 16.7126 100.981 16.2363 99.7275 16.2363H98.4082ZM98.4082 20.4336V23.9609H99.9668C100.641 23.9609 101.163 23.8014 101.532 23.4824C101.906 23.1634 102.093 22.7259 102.093 22.1699C102.093 21.0124 101.304 20.4336 99.7275 20.4336H98.4082Z" fill="#ADBAC7"/>
<path d="M4 2H111V0H4V2ZM113 4V35H115V4H113ZM111 37H4V39H111V37ZM2 35V4H0V35H2ZM4 37C2.89543 37 2 36.1046 2 35H0C0 37.2091 1.79086 39 4 39V37ZM113 35C113 36.1046 112.105 37 111 37V39C113.209 39 115 37.2091 115 35H113ZM111 2C112.105 2 113 2.89543 113 4H115C115 1.79086 113.209 0 111 0V2ZM4 0C1.79086 0 0 1.79086 0 4H2C2 2.89543 2.89543 2 4 2V0Z" fill="#ADBCA7"/>
<defs>
<clipPath id="clip0">
<rect width="18" height="18" fill="white" transform="translate(11 10.5)"/>
</clipPath>
</defs>
</svg>
