<svg width="94" height="28" viewBox="0 0 94 28" fill="none" xmlns="http://www.w3.org/2000/svg">
<g filter="url(#filter0_d)">
<path d="M2 5C2 2.23858 4.23858 0 7 0H87C89.7614 0 92 2.23858 92 5V19C92 21.7614 89.7614 24 87 24H7C4.23858 24 2 21.7614 2 19V5Z" fill="white"/>
<path d="M7.97098 15.7734V3.87994H9.38727V5.66744C9.38727 5.66744 10.1772 3.60767 13.233 3.60767C15.9793 3.60767 16.557 5.91919 16.557 5.91919C16.557 5.91919 17.4958 3.60361 20.4813 3.60361C23.9983 3.60361 24.0655 6.95214 24.0655 6.95214V15.7734H22.7678V6.82813C22.7678 6.82813 22.6873 4.79618 20.3529 4.79618C16.9026 4.79618 16.7858 8.33487 16.7858 8.33487V15.7734H15.318V7.09598C15.318 7.09598 15.5379 4.84152 12.837 4.84152C9.53954 4.84152 9.38839 8.44643 9.38839 8.44643L9.42154 15.7734H7.97098Z" fill="#880000"/>
<path d="M32.4434 7.46875L35.2324 14.4297L38.0215 7.46875H39.4805V16H38.3555V12.6777L38.4609 9.0918L35.6602 16H34.7988L32.0039 9.10938L32.1152 12.6777V16H30.9902V7.46875H32.4434ZM41.0098 12.7715C41.0098 12.1504 41.1309 11.5918 41.373 11.0957C41.6191 10.5996 41.959 10.2168 42.3926 9.94727C42.8301 9.67773 43.3281 9.54297 43.8867 9.54297C44.75 9.54297 45.4473 9.8418 45.9785 10.4395C46.5137 11.0371 46.7812 11.832 46.7812 12.8242V12.9004C46.7812 13.5176 46.6621 14.0723 46.4238 14.5645C46.1895 15.0527 45.8516 15.4336 45.4102 15.707C44.9727 15.9805 44.4688 16.1172 43.8984 16.1172C43.0391 16.1172 42.3418 15.8184 41.8066 15.2207C41.2754 14.623 41.0098 13.832 41.0098 12.8477V12.7715ZM42.0996 12.9004C42.0996 13.6035 42.2617 14.168 42.5859 14.5938C42.9141 15.0195 43.3516 15.2324 43.8984 15.2324C44.4492 15.2324 44.8867 15.0176 45.2109 14.5879C45.5352 14.1543 45.6973 13.5488 45.6973 12.7715C45.6973 12.0762 45.5312 11.5137 45.1992 11.084C44.8711 10.6504 44.4336 10.4336 43.8867 10.4336C43.3516 10.4336 42.9199 10.6465 42.5918 11.0723C42.2637 11.498 42.0996 12.1074 42.0996 12.9004ZM49.166 9.66016L49.2012 10.457C49.6855 9.84766 50.3184 9.54297 51.0996 9.54297C52.4395 9.54297 53.1152 10.2988 53.127 11.8105V16H52.043V11.8047C52.0391 11.3477 51.9336 11.0098 51.7266 10.791C51.5234 10.5723 51.2051 10.4629 50.7715 10.4629C50.4199 10.4629 50.1113 10.5566 49.8457 10.7441C49.5801 10.9316 49.373 11.1777 49.2246 11.4824V16H48.1406V9.66016H49.166ZM54.5039 12.7773C54.5039 11.7891 54.7324 11.0039 55.1895 10.4219C55.6465 9.83594 56.252 9.54297 57.0059 9.54297C57.7793 9.54297 58.3828 9.81641 58.8164 10.3633L58.8691 9.66016H59.8594V15.8477C59.8594 16.668 59.6152 17.3145 59.127 17.7871C58.6426 18.2598 57.9902 18.4961 57.1699 18.4961C56.7129 18.4961 56.2656 18.3984 55.8281 18.2031C55.3906 18.0078 55.0566 17.7402 54.8262 17.4004L55.3887 16.75C55.8535 17.3242 56.4219 17.6113 57.0938 17.6113C57.6211 17.6113 58.0312 17.4629 58.3242 17.166C58.6211 16.8691 58.7695 16.4512 58.7695 15.9121V15.3672C58.3359 15.8672 57.7441 16.1172 56.9941 16.1172C56.252 16.1172 55.6504 15.8184 55.1895 15.2207C54.7324 14.623 54.5039 13.8086 54.5039 12.7773ZM55.5938 12.9004C55.5938 13.6152 55.7402 14.1777 56.0332 14.5879C56.3262 14.9941 56.7363 15.1973 57.2637 15.1973C57.9473 15.1973 58.4492 14.8867 58.7695 14.2656V11.3711C58.4375 10.7656 57.9395 10.4629 57.2754 10.4629C56.748 10.4629 56.3359 10.668 56.0391 11.0781C55.7422 11.4883 55.5938 12.0957 55.5938 12.9004ZM61.2129 12.7715C61.2129 12.1504 61.334 11.5918 61.5762 11.0957C61.8223 10.5996 62.1621 10.2168 62.5957 9.94727C63.0332 9.67773 63.5312 9.54297 64.0898 9.54297C64.9531 9.54297 65.6504 9.8418 66.1816 10.4395C66.7168 11.0371 66.9844 11.832 66.9844 12.8242V12.9004C66.9844 13.5176 66.8652 14.0723 66.627 14.5645C66.3926 15.0527 66.0547 15.4336 65.6133 15.707C65.1758 15.9805 64.6719 16.1172 64.1016 16.1172C63.2422 16.1172 62.5449 15.8184 62.0098 15.2207C61.4785 14.623 61.2129 13.832 61.2129 12.8477V12.7715ZM62.3027 12.9004C62.3027 13.6035 62.4648 14.168 62.7891 14.5938C63.1172 15.0195 63.5547 15.2324 64.1016 15.2324C64.6523 15.2324 65.0898 15.0176 65.4141 14.5879C65.7383 14.1543 65.9004 13.5488 65.9004 12.7715C65.9004 12.0762 65.7344 11.5137 65.4023 11.084C65.0742 10.6504 64.6367 10.4336 64.0898 10.4336C63.5547 10.4336 63.123 10.6465 62.7949 11.0723C62.4668 11.498 62.3027 12.1074 62.3027 12.9004ZM68.0566 12.7715C68.0566 12.1504 68.1777 11.5918 68.4199 11.0957C68.666 10.5996 69.0059 10.2168 69.4395 9.94727C69.877 9.67773 70.375 9.54297 70.9336 9.54297C71.7969 9.54297 72.4941 9.8418 73.0254 10.4395C73.5605 11.0371 73.8281 11.832 73.8281 12.8242V12.9004C73.8281 13.5176 73.709 14.0723 73.4707 14.5645C73.2363 15.0527 72.8984 15.4336 72.457 15.707C72.0195 15.9805 71.5156 16.1172 70.9453 16.1172C70.0859 16.1172 69.3887 15.8184 68.8535 15.2207C68.3223 14.623 68.0566 13.832 68.0566 12.8477V12.7715ZM69.1465 12.9004C69.1465 13.6035 69.3086 14.168 69.6328 14.5938C69.9609 15.0195 70.3984 15.2324 70.9453 15.2324C71.4961 15.2324 71.9336 15.0176 72.2578 14.5879C72.582 14.1543 72.7441 13.5488 72.7441 12.7715C72.7441 12.0762 72.5781 11.5137 72.2461 11.084C71.918 10.6504 71.4805 10.4336 70.9336 10.4336C70.3984 10.4336 69.9668 10.6465 69.6387 11.0723C69.3105 11.498 69.1465 12.1074 69.1465 12.9004ZM78.8789 14.3184C78.8789 14.0254 78.7676 13.7988 78.5449 13.6387C78.3262 13.4746 77.9414 13.334 77.3906 13.2168C76.8438 13.0996 76.4082 12.959 76.084 12.7949C75.7637 12.6309 75.5254 12.4355 75.3691 12.209C75.2168 11.9824 75.1406 11.7129 75.1406 11.4004C75.1406 10.8809 75.3594 10.4414 75.7969 10.082C76.2383 9.72266 76.8008 9.54297 77.4844 9.54297C78.2031 9.54297 78.7852 9.72852 79.2305 10.0996C79.6797 10.4707 79.9043 10.9453 79.9043 11.5234H78.8145C78.8145 11.2266 78.6875 10.9707 78.4336 10.7559C78.1836 10.541 77.8672 10.4336 77.4844 10.4336C77.0898 10.4336 76.7812 10.5195 76.5586 10.6914C76.3359 10.8633 76.2246 11.0879 76.2246 11.3652C76.2246 11.627 76.3281 11.8242 76.5352 11.957C76.7422 12.0898 77.1152 12.2168 77.6543 12.3379C78.1973 12.459 78.6367 12.6035 78.9727 12.7715C79.3086 12.9395 79.5566 13.1426 79.7168 13.3809C79.8809 13.6152 79.9629 13.9023 79.9629 14.2422C79.9629 14.8086 79.7363 15.2637 79.2832 15.6074C78.8301 15.9473 78.2422 16.1172 77.5195 16.1172C77.0117 16.1172 76.5625 16.0273 76.1719 15.8477C75.7812 15.668 75.4746 15.418 75.252 15.0977C75.0332 14.7734 74.9238 14.4238 74.9238 14.0488H76.0078C76.0273 14.4121 76.1719 14.7012 76.4414 14.916C76.7148 15.127 77.0742 15.2324 77.5195 15.2324C77.9297 15.2324 78.2578 15.1504 78.5039 14.9863C78.7539 14.8184 78.8789 14.5957 78.8789 14.3184ZM84.0059 16.1172C83.1465 16.1172 82.4473 15.8359 81.9082 15.2734C81.3691 14.707 81.0996 13.9512 81.0996 13.0059V12.8066C81.0996 12.1777 81.2188 11.6172 81.457 11.125C81.6992 10.6289 82.0352 10.2422 82.4648 9.96484C82.8984 9.68359 83.3672 9.54297 83.8711 9.54297C84.6953 9.54297 85.3359 9.81445 85.793 10.3574C86.25 10.9004 86.4785 11.6777 86.4785 12.6895V13.1406H82.1836C82.1992 13.7656 82.3809 14.2715 82.7285 14.6582C83.0801 15.041 83.5254 15.2324 84.0645 15.2324C84.4473 15.2324 84.7715 15.1543 85.0371 14.998C85.3027 14.8418 85.5352 14.6348 85.7344 14.377L86.3965 14.8926C85.8652 15.709 85.0684 16.1172 84.0059 16.1172ZM83.8711 10.4336C83.4336 10.4336 83.0664 10.5938 82.7695 10.9141C82.4727 11.2305 82.2891 11.6758 82.2188 12.25H85.3945V12.168C85.3633 11.6172 85.2148 11.1914 84.9492 10.8906C84.6836 10.5859 84.3242 10.4336 83.8711 10.4336Z" fill="black"/>
</g>
<defs>
<filter id="filter0_d" x="0" y="0" width="94" height="28" filterUnits="userSpaceOnUse" color-interpolation-filters="sRGB">
<feFlood flood-opacity="0" result="BackgroundImageFix"/>
<feColorMatrix in="SourceAlpha" type="matrix" values="0 0 0 0 0 0 0 0 0 0 0 0 0 0 0 0 0 0 127 0" result="hardAlpha"/>
<feOffset dy="2"/>
<feGaussianBlur stdDeviation="1"/>
<feComposite in2="hardAlpha" operator="out"/>
<feColorMatrix type="matrix" values="0 0 0 0 0 0 0 0 0 0 0 0 0 0 0 0 0 0 0.25 0"/>
<feBlend mode="normal" in2="BackgroundImageFix" result="effect1_dropShadow"/>
<feBlend mode="normal" in="SourceGraphic" in2="effect1_dropShadow" result="shape"/>
</filter>
</defs>
</svg>
