<svg xmlns="http://www.w3.org/2000/svg" width="168" height="56" fill="none"><rect width="150" height="48" x="9" y="4" fill="#FCE4EC" rx="4"/><path fill="url(#a)" d="m40.465 38.5-.563-.187s.075-2.85-.956-3.05c-.675-.786.1-33.556 2.567-.112a2.034 2.034 0 0 0-1 1.142 10.576 10.576 0 0 0-.048 2.207Z"/><path fill="url(#b)" d="M40.77 35.747a9.917 9.917 0 0 0 3.75-9.919c-1.103-4.864-3.714-6.463-3.995-7.073a7.348 7.348 0 0 1-.619-1.2l.208 13.552s-.43 4.141.656 4.64Z"/><path fill="url(#c)" d="M39.615 35.927s-4.59-3.127-4.325-8.658a11.655 11.655 0 0 1 4.14-8.736 1.294 1.294 0 0 0 .455-1.033c.285.615.239 9.182.269 10.184.116 3.898-.217 7.507-.539 8.243Z"/><path fill="#000" d="M80.89 34.5h-1.304v-7.516c0-.593.036-1.32.11-2.18h-.032c-.125.506-.237.868-.336 1.087L75.5 34.5h-.64l-3.82-8.547c-.11-.25-.222-.633-.337-1.148h-.031c.041.448.062 1.18.062 2.195v7.5H69.47V23.297h1.734l3.438 7.812c.265.6.437 1.047.515 1.344h.047c.224-.615.404-1.073.54-1.375l3.507-7.781h1.64V34.5Zm6.126.188c-1.183 0-2.128-.373-2.836-1.118-.703-.75-1.055-1.742-1.055-2.976 0-1.344.367-2.393 1.102-3.149.734-.755 1.726-1.133 2.976-1.133 1.193 0 2.123.368 2.79 1.102.671.734 1.007 1.753 1.007 3.055 0 1.276-.362 2.3-1.086 3.07-.719.766-1.685 1.148-2.898 1.148Zm.093-7.297c-.822 0-1.474.28-1.953.843-.479.558-.719 1.328-.719 2.313 0 .948.243 1.695.727 2.242.484.547 1.133.82 1.945.82.829 0 1.464-.268 1.907-.804.447-.537.671-1.3.671-2.29 0-1-.224-1.77-.671-2.312-.443-.541-1.079-.812-1.907-.812ZM99.688 34.5h-1.282v-4.563c0-1.697-.62-2.546-1.86-2.546-.64 0-1.171.242-1.593.726-.416.48-.625 1.086-.625 1.82V34.5h-1.281v-8h1.281v1.328h.031c.605-1.01 1.48-1.515 2.625-1.515.875 0 1.545.283 2.008.851.464.563.695 1.378.695 2.445V34.5Zm9.25-.64c0 2.937-1.407 4.406-4.219 4.406-.99 0-1.854-.188-2.594-.563v-1.281c.901.5 1.76.75 2.578.75 1.969 0 2.953-1.047 2.953-3.14v-.876h-.031c-.609 1.021-1.526 1.532-2.75 1.532-.995 0-1.797-.355-2.406-1.063-.604-.714-.907-1.67-.907-2.867 0-1.36.326-2.44.977-3.242.656-.802 1.552-1.203 2.688-1.203 1.078 0 1.877.432 2.398 1.296h.031V26.5h1.282v7.36Zm-1.282-2.977v-1.18c0-.635-.216-1.18-.648-1.633-.427-.453-.961-.68-1.602-.68-.791 0-1.411.29-1.859.868-.448.573-.672 1.377-.672 2.414 0 .89.214 1.604.641 2.14.432.532 1.002.797 1.711.797.718 0 1.302-.255 1.75-.765.453-.51.679-1.164.679-1.961Zm7.219 3.805c-1.182 0-2.128-.373-2.836-1.118-.703-.75-1.055-1.742-1.055-2.976 0-1.344.368-2.393 1.102-3.149.734-.755 1.726-1.133 2.976-1.133 1.193 0 2.123.368 2.79 1.102.671.734 1.007 1.753 1.007 3.055 0 1.276-.362 2.3-1.086 3.07-.718.766-1.684 1.148-2.898 1.148Zm.094-7.297c-.823 0-1.474.28-1.953.843-.48.558-.719 1.328-.719 2.313 0 .948.242 1.695.726 2.242.485.547 1.133.82 1.946.82.828 0 1.463-.268 1.906-.804.448-.537.672-1.3.672-2.29 0-1-.224-1.77-.672-2.312-.443-.541-1.078-.812-1.906-.812Zm6.109 7.109V23.297h3.094c3.948 0 5.922 1.82 5.922 5.46 0 1.73-.55 3.12-1.649 4.173-1.093 1.047-2.56 1.57-4.398 1.57h-2.969Zm1.313-10.016v8.828h1.671c1.469 0 2.612-.393 3.43-1.18.818-.786 1.227-1.9 1.227-3.343 0-2.87-1.526-4.305-4.578-4.305h-1.75Zm9.906 10.016V23.297h3.187c.969 0 1.737.237 2.305.71.568.475.852 1.092.852 1.852 0 .636-.172 1.188-.516 1.657-.344.468-.818.802-1.422 1v.03c.755.09 1.359.376 1.813.86.453.48.679 1.104.679 1.875 0 .959-.343 1.735-1.031 2.328-.687.594-1.555.891-2.602.891h-3.265Zm1.312-10.016v3.618h1.344c.719 0 1.284-.172 1.695-.516.412-.349.618-.839.618-1.469 0-1.088-.717-1.633-2.149-1.633h-1.508Zm0 4.797v4.032h1.782c.77 0 1.367-.183 1.789-.547.427-.365.64-.865.64-1.5 0-1.323-.901-1.985-2.703-1.985h-1.508Z"/><rect width="150" height="48" x="9" y="4" stroke="#E91E63" stroke-width="2" rx="4"/><defs><linearGradient id="a" x1="36.679" x2="43.153" y1="28.189" y2="30.386" gradientUnits="userSpaceOnUse"><stop offset=".231" stop-color="#999875"/><stop offset=".563" stop-color="#9B9977"/><stop offset=".683" stop-color="#A09F7E"/><stop offset=".768" stop-color="#A9A889"/><stop offset=".837" stop-color="#B7B69A"/><stop offset=".896" stop-color="#C9C7B0"/><stop offset=".948" stop-color="#DEDDCB"/><stop offset=".994" stop-color="#F8F6EB"/><stop offset="1" stop-color="#FBF9EF"/></linearGradient><linearGradient id="b" x1="39.053" x2="41.915" y1="17.458" y2="35.33" gradientUnits="userSpaceOnUse"><stop stop-color="#48A547"/><stop offset="1" stop-color="#3F9143"/></linearGradient><linearGradient id="c" x1="34.895" x2="42.576" y1="27.816" y2="25.244" gradientUnits="userSpaceOnUse"><stop stop-color="#41A247"/><stop offset=".352" stop-color="#4BA74B"/><stop offset=".956" stop-color="#67B554"/><stop offset="1" stop-color="#69B655"/></linearGradient></defs></svg>