<svg xmlns="http://www.w3.org/2000/svg" width="173" height="56" fill="none"><rect width="155" height="48" x="9" y="4" fill="#FCE4EC" rx="4"/><path fill="#800" d="M30.481 32.474v-14.1h1.68v2.119s.936-2.442 4.559-2.442c3.255 0 3.94 2.74 3.94 2.74s1.113-2.745 4.653-2.745c4.17 0 4.249 3.97 4.249 3.97v10.458h-1.539V21.869s-.095-2.41-2.863-2.41c-4.09 0-4.228 4.196-4.228 4.196v8.819h-1.74V22.186s.26-2.672-2.942-2.672c-3.91 0-4.088 4.273-4.088 4.273l.039 8.687h-1.72Z"/><path fill="#000" d="M80.89 34.5h-1.304v-7.516c0-.593.036-1.32.11-2.18h-.032c-.125.506-.237.868-.336 1.087L75.5 34.5h-.64l-3.82-8.547c-.11-.25-.222-.633-.337-1.148h-.031c.041.448.062 1.18.062 2.195v7.5H69.47V23.297h1.734l3.438 7.812c.265.6.437 1.047.515 1.344h.047c.224-.615.404-1.073.54-1.375l3.507-7.781h1.64V34.5Zm6.126.188c-1.183 0-2.128-.373-2.836-1.118-.703-.75-1.055-1.742-1.055-2.976 0-1.344.367-2.393 1.102-3.149.734-.755 1.726-1.133 2.976-1.133 1.193 0 2.123.368 2.79 1.102.671.734 1.007 1.753 1.007 3.055 0 1.276-.362 2.3-1.086 3.07-.719.766-1.685 1.148-2.898 1.148Zm.093-7.297c-.822 0-1.474.28-1.953.843-.479.558-.719 1.328-.719 2.313 0 .948.243 1.695.727 2.242.484.547 1.133.82 1.945.82.829 0 1.464-.268 1.907-.804.447-.537.671-1.3.671-2.29 0-1-.224-1.77-.671-2.312-.443-.541-1.079-.812-1.907-.812ZM99.688 34.5h-1.282v-4.563c0-1.697-.62-2.546-1.86-2.546-.64 0-1.171.242-1.593.726-.416.48-.625 1.086-.625 1.82V34.5h-1.281v-8h1.281v1.328h.031c.605-1.01 1.48-1.515 2.625-1.515.875 0 1.545.283 2.008.851.464.563.695 1.378.695 2.445V34.5Zm9.25-.64c0 2.937-1.407 4.406-4.219 4.406-.99 0-1.854-.188-2.594-.563v-1.281c.901.5 1.76.75 2.578.75 1.969 0 2.953-1.047 2.953-3.14v-.876h-.031c-.609 1.021-1.526 1.532-2.75 1.532-.995 0-1.797-.355-2.406-1.063-.604-.714-.907-1.67-.907-2.867 0-1.36.326-2.44.977-3.242.656-.802 1.552-1.203 2.688-1.203 1.078 0 1.877.432 2.398 1.296h.031V26.5h1.282v7.36Zm-1.282-2.977v-1.18c0-.635-.216-1.18-.648-1.633-.427-.453-.961-.68-1.602-.68-.791 0-1.411.29-1.859.868-.448.573-.672 1.377-.672 2.414 0 .89.214 1.604.641 2.14.432.532 1.002.797 1.711.797.718 0 1.302-.255 1.75-.765.453-.51.679-1.164.679-1.961Zm7.219 3.805c-1.182 0-2.128-.373-2.836-1.118-.703-.75-1.055-1.742-1.055-2.976 0-1.344.368-2.393 1.102-3.149.734-.755 1.726-1.133 2.976-1.133 1.193 0 2.123.368 2.79 1.102.671.734 1.007 1.753 1.007 3.055 0 1.276-.362 2.3-1.086 3.07-.718.766-1.684 1.148-2.898 1.148Zm.094-7.297c-.823 0-1.474.28-1.953.843-.48.558-.719 1.328-.719 2.313 0 .948.242 1.695.726 2.242.485.547 1.133.82 1.946.82.828 0 1.463-.268 1.906-.804.448-.537.672-1.3.672-2.29 0-1-.224-1.77-.672-2.312-.443-.541-1.078-.812-1.906-.812Zm9.281 7.297c-1.182 0-2.128-.373-2.836-1.118-.703-.75-1.055-1.742-1.055-2.976 0-1.344.368-2.393 1.102-3.149.734-.755 1.727-1.133 2.977-1.133 1.192 0 2.122.368 2.789 1.102.671.734 1.007 1.753 1.007 3.055 0 1.276-.362 2.3-1.086 3.07-.718.766-1.684 1.148-2.898 1.148Zm.094-7.297c-.823 0-1.474.28-1.953.843-.48.558-.719 1.328-.719 2.313 0 .948.242 1.695.726 2.242.485.547 1.133.82 1.946.82.828 0 1.463-.268 1.906-.804.448-.537.672-1.3.672-2.29 0-1-.224-1.77-.672-2.312-.443-.541-1.078-.812-1.906-.812Zm5.453 6.82v-1.375a3.791 3.791 0 0 0 2.305.773c1.125 0 1.687-.375 1.687-1.125a.937.937 0 0 0-.148-.539 1.352 1.352 0 0 0-.391-.398 2.715 2.715 0 0 0-.578-.305c-.219-.094-.456-.19-.711-.289-.354-.14-.667-.281-.938-.422a3.094 3.094 0 0 1-.671-.484 1.917 1.917 0 0 1-.407-.617 2.239 2.239 0 0 1-.133-.805c0-.375.086-.706.258-.992.172-.292.401-.534.688-.727.286-.198.612-.346.976-.445.37-.099.75-.148 1.141-.148.693 0 1.313.12 1.859.359v1.297c-.588-.386-1.265-.578-2.031-.578-.239 0-.456.028-.648.086-.193.052-.36.127-.5.226a1.104 1.104 0 0 0-.321.36.94.94 0 0 0-.109.453c0 .208.036.382.109.523.078.14.19.266.336.375.146.11.323.208.532.297.208.088.445.185.71.289.355.135.672.276.954.422.281.14.52.302.718.484.198.177.349.383.454.617.109.235.164.513.164.836 0 .396-.089.74-.266 1.032a2.211 2.211 0 0 1-.695.726 3.21 3.21 0 0 1-1.008.43c-.38.094-.779.14-1.195.14-.823 0-1.537-.158-2.141-.476Zm13.711-3.39h-5.649c.021.89.261 1.577.719 2.062.458.484 1.089.726 1.891.726.901 0 1.729-.297 2.484-.89v1.203c-.703.51-1.633.766-2.789.766-1.13 0-2.018-.363-2.664-1.086-.646-.73-.969-1.753-.969-3.07 0-1.245.352-2.259 1.055-3.04.708-.786 1.586-1.18 2.633-1.18s1.857.339 2.429 1.016c.573.677.86 1.617.86 2.82v.672Zm-1.313-1.087c-.005-.74-.185-1.315-.539-1.726-.349-.412-.836-.617-1.461-.617a2.07 2.07 0 0 0-1.539.648c-.422.432-.682.997-.781 1.695h4.32Z"/><rect width="155" height="48" x="9" y="4" stroke="#E91E63" stroke-width="2" rx="4"/></svg>