<svg width="119" height="39" viewBox="0 0 119 39" fill="none" xmlns="http://www.w3.org/2000/svg">
<path d="M1 4C1 2.34315 2.34315 1 4 1H115C116.657 1 118 2.34315 118 4V35C118 36.6569 116.657 38 115 38H4C2.34315 38 1 36.6569 1 35V4Z" fill="#22272E"/>
<path d="M11.971 23.2734V11.3799H13.3873V13.1674C13.3873 13.1674 14.1773 11.1077 17.233 11.1077C19.9793 11.1077 20.557 13.4192 20.557 13.4192C20.557 13.4192 21.4958 11.1036 24.4813 11.1036C27.9983 11.1036 28.0656 14.4521 28.0656 14.4521V23.2734H26.7679V14.3281C26.7679 14.3281 26.6874 12.2962 24.353 12.2962C20.9027 12.2962 20.7859 15.8349 20.7859 15.8349V23.2734H19.318V14.596C19.318 14.596 19.538 12.3415 16.8371 12.3415C13.5396 12.3415 13.3884 15.9464 13.3884 15.9464L13.4216 23.2734H11.971Z" fill="#C9D1D9"/>
<path d="M52.2793 25H51.1377V18.4238C51.1377 17.9043 51.1696 17.2686 51.2334 16.5166H51.2061C51.0967 16.9587 50.9987 17.2754 50.9121 17.4668L47.5625 25H47.002L43.6592 17.5215C43.5635 17.3027 43.4655 16.9678 43.3652 16.5166H43.3379C43.3743 16.9085 43.3926 17.5488 43.3926 18.4375V25H42.2852V15.1973H43.8027L46.8105 22.0332C47.043 22.5573 47.1934 22.9492 47.2617 23.209H47.3027C47.4987 22.6712 47.6559 22.2702 47.7744 22.0059L50.8438 15.1973H52.2793V25ZM57.6387 25.1641C56.6042 25.1641 55.777 24.8382 55.1572 24.1865C54.542 23.5303 54.2344 22.6621 54.2344 21.582C54.2344 20.4062 54.5557 19.488 55.1982 18.8271C55.8408 18.1663 56.709 17.8359 57.8027 17.8359C58.8464 17.8359 59.6598 18.1572 60.2432 18.7998C60.8311 19.4424 61.125 20.3333 61.125 21.4727C61.125 22.5892 60.8083 23.4847 60.1748 24.1592C59.5459 24.8291 58.7005 25.1641 57.6387 25.1641ZM57.7207 18.7793C57.0007 18.7793 56.431 19.0254 56.0117 19.5176C55.5924 20.0052 55.3828 20.6797 55.3828 21.541C55.3828 22.3704 55.5947 23.0244 56.0186 23.5029C56.4424 23.9814 57.0098 24.2207 57.7207 24.2207C58.4453 24.2207 59.0013 23.986 59.3887 23.5166C59.7806 23.0472 59.9766 22.3796 59.9766 21.5137C59.9766 20.6387 59.7806 19.9642 59.3887 19.4902C59.0013 19.0163 58.4453 18.7793 57.7207 18.7793ZM68.7266 25H67.6055V21.0078C67.6055 19.5221 67.0632 18.7793 65.9785 18.7793C65.418 18.7793 64.9531 18.9912 64.584 19.415C64.2194 19.8343 64.0371 20.3652 64.0371 21.0078V25H62.916V18H64.0371V19.1621H64.0645C64.5931 18.278 65.3587 17.8359 66.3613 17.8359C67.127 17.8359 67.7126 18.0843 68.1182 18.5811C68.5238 19.0732 68.7266 19.7865 68.7266 20.7207V25ZM76.8203 24.4395C76.8203 27.0098 75.5898 28.2949 73.1289 28.2949C72.263 28.2949 71.5065 28.1309 70.8594 27.8027V26.6816C71.6478 27.1191 72.3997 27.3379 73.1152 27.3379C74.8379 27.3379 75.6992 26.4219 75.6992 24.5898V23.8242H75.6719C75.1387 24.7174 74.3366 25.1641 73.2656 25.1641C72.3952 25.1641 71.6934 24.8542 71.1602 24.2344C70.6315 23.61 70.3672 22.7738 70.3672 21.7256C70.3672 20.5361 70.652 19.5905 71.2217 18.8887C71.7959 18.1868 72.5798 17.8359 73.5732 17.8359C74.5166 17.8359 75.2161 18.2142 75.6719 18.9707H75.6992V18H76.8203V24.4395ZM75.6992 21.835V20.8027C75.6992 20.2467 75.5101 19.7705 75.1318 19.374C74.7581 18.9775 74.291 18.7793 73.7305 18.7793C73.0378 18.7793 72.4954 19.0322 72.1035 19.5381C71.7116 20.0394 71.5156 20.7435 71.5156 21.6504C71.5156 22.4297 71.7025 23.054 72.0762 23.5234C72.4544 23.9883 72.9535 24.2207 73.5732 24.2207C74.2021 24.2207 74.7126 23.9974 75.1045 23.5508C75.501 23.1042 75.6992 22.5322 75.6992 21.835ZM82.0156 25.1641C80.9811 25.1641 80.154 24.8382 79.5342 24.1865C78.9189 23.5303 78.6113 22.6621 78.6113 21.582C78.6113 20.4062 78.9326 19.488 79.5752 18.8271C80.2178 18.1663 81.0859 17.8359 82.1797 17.8359C83.2233 17.8359 84.0368 18.1572 84.6201 18.7998C85.208 19.4424 85.502 20.3333 85.502 21.4727C85.502 22.5892 85.1852 23.4847 84.5518 24.1592C83.9229 24.8291 83.0775 25.1641 82.0156 25.1641ZM82.0977 18.7793C81.3776 18.7793 80.8079 19.0254 80.3887 19.5176C79.9694 20.0052 79.7598 20.6797 79.7598 21.541C79.7598 22.3704 79.9717 23.0244 80.3955 23.5029C80.8193 23.9814 81.3867 24.2207 82.0977 24.2207C82.8223 24.2207 83.3783 23.986 83.7656 23.5166C84.1576 23.0472 84.3535 22.3796 84.3535 21.5137C84.3535 20.6387 84.1576 19.9642 83.7656 19.4902C83.3783 19.0163 82.8223 18.7793 82.0977 18.7793ZM90.2188 25.1641C89.1842 25.1641 88.3571 24.8382 87.7373 24.1865C87.1221 23.5303 86.8145 22.6621 86.8145 21.582C86.8145 20.4062 87.1357 19.488 87.7783 18.8271C88.4209 18.1663 89.2891 17.8359 90.3828 17.8359C91.4264 17.8359 92.2399 18.1572 92.8232 18.7998C93.4111 19.4424 93.7051 20.3333 93.7051 21.4727C93.7051 22.5892 93.3883 23.4847 92.7549 24.1592C92.126 24.8291 91.2806 25.1641 90.2188 25.1641ZM90.3008 18.7793C89.5807 18.7793 89.0111 19.0254 88.5918 19.5176C88.1725 20.0052 87.9629 20.6797 87.9629 21.541C87.9629 22.3704 88.1748 23.0244 88.5986 23.5029C89.0225 23.9814 89.5898 24.2207 90.3008 24.2207C91.0254 24.2207 91.5814 23.986 91.9688 23.5166C92.3607 23.0472 92.5566 22.3796 92.5566 21.5137C92.5566 20.6387 92.3607 19.9642 91.9688 19.4902C91.5814 19.0163 91.0254 18.7793 90.3008 18.7793ZM95.0723 24.7471V23.5439C95.6829 23.9951 96.3551 24.2207 97.0889 24.2207C98.0732 24.2207 98.5654 23.8926 98.5654 23.2363C98.5654 23.0495 98.5221 22.8923 98.4355 22.7646C98.3535 22.6325 98.2396 22.5163 98.0938 22.416C97.9525 22.3158 97.7839 22.2269 97.5879 22.1494C97.3965 22.0674 97.1891 21.9831 96.9658 21.8965C96.6559 21.7734 96.3825 21.6504 96.1455 21.5273C95.9131 21.3997 95.7171 21.2585 95.5576 21.1035C95.4027 20.944 95.2842 20.764 95.2021 20.5635C95.1247 20.363 95.0859 20.1283 95.0859 19.8594C95.0859 19.5312 95.1611 19.2419 95.3115 18.9912C95.4619 18.736 95.6624 18.5241 95.9131 18.3555C96.1637 18.1823 96.4486 18.0524 96.7676 17.9658C97.0911 17.8792 97.4238 17.8359 97.7656 17.8359C98.3717 17.8359 98.9141 17.9408 99.3926 18.1504V19.2852C98.8776 18.9479 98.2852 18.7793 97.6152 18.7793C97.4056 18.7793 97.2165 18.8044 97.0479 18.8545C96.8792 18.9001 96.7334 18.9661 96.6104 19.0527C96.4919 19.1393 96.3984 19.2441 96.3301 19.3672C96.2663 19.4857 96.2344 19.6178 96.2344 19.7637C96.2344 19.946 96.2663 20.0986 96.3301 20.2217C96.3984 20.3447 96.4964 20.4541 96.624 20.5498C96.7516 20.6455 96.9066 20.7321 97.0889 20.8096C97.2712 20.887 97.4785 20.9714 97.7109 21.0625C98.0208 21.181 98.2988 21.304 98.5449 21.4316C98.791 21.5547 99.0007 21.696 99.1738 21.8555C99.347 22.0104 99.4792 22.1904 99.5703 22.3955C99.666 22.6006 99.7139 22.8444 99.7139 23.127C99.7139 23.4733 99.6364 23.7741 99.4814 24.0293C99.3311 24.2845 99.1283 24.4964 98.873 24.665C98.6178 24.8337 98.3239 24.959 97.9912 25.041C97.6585 25.123 97.3099 25.1641 96.9453 25.1641C96.2253 25.1641 95.6009 25.0251 95.0723 24.7471ZM107.069 21.7803H102.127C102.145 22.5596 102.355 23.1611 102.756 23.585C103.157 24.0088 103.708 24.2207 104.41 24.2207C105.199 24.2207 105.923 23.9609 106.584 23.4414V24.4941C105.969 24.9408 105.155 25.1641 104.144 25.1641C103.155 25.1641 102.378 24.8473 101.812 24.2139C101.247 23.5758 100.965 22.6803 100.965 21.5273C100.965 20.4382 101.272 19.5518 101.888 18.8682C102.507 18.18 103.275 17.8359 104.191 17.8359C105.107 17.8359 105.816 18.1322 106.317 18.7246C106.819 19.3171 107.069 20.1396 107.069 21.1924V21.7803ZM105.921 20.8301C105.916 20.1829 105.759 19.6794 105.449 19.3193C105.144 18.9593 104.718 18.7793 104.171 18.7793C103.642 18.7793 103.193 18.9684 102.824 19.3467C102.455 19.7249 102.227 20.2194 102.141 20.8301H105.921Z" fill="#C9D1D9"/>
<path d="M4 2H115V0H4V2ZM117 4V35H119V4H117ZM115 37H4V39H115V37ZM2 35V4H0V35H2ZM4 37C2.89543 37 2 36.1046 2 35H0C0 37.2091 1.79086 39 4 39V37ZM117 35C117 36.1046 116.105 37 115 37V39C117.209 39 119 37.2091 119 35H117ZM115 2C116.105 2 117 2.89543 117 4H119C119 1.79086 117.209 0 115 0V2ZM4 0C1.79086 0 0 1.79086 0 4H2C2 2.89543 2.89543 2 4 2V0Z" fill="#C9D1D9"/>
</svg>
