<svg width="138" height="47" viewBox="0 0 138 47" fill="none" xmlns="http://www.w3.org/2000/svg">
<rect x="1" y="1" width="136" height="45" rx="4" fill="#22272E"/>
<g clip-path="url(#clip0_28_4931)">
<path d="M28.8846 21.6398C27.9385 17.4677 25.7031 16.0997 25.4629 15.5755C25.1991 15.2037 24.9151 14.5006 24.9151 14.5006C24.9122 14.5152 24.9122 14.5242 24.9094 14.5388V14.5478C24.9094 14.5596 24.9066 14.5652 24.9066 14.5771V14.5889H24.9038V14.6266H24.901C24.901 14.6322 24.901 14.6412 24.8982 14.644V14.6614C24.8982 14.6671 24.8982 14.6732 24.8954 14.6761V14.6907C24.8954 14.6997 24.8954 14.7081 24.8926 14.7143V14.7171C24.8921 14.73 24.8902 14.7429 24.8869 14.7554V14.761C24.8841 14.7638 24.8841 14.7666 24.8841 14.77V14.7818H24.8813V14.7992H24.8785V14.8111H24.8729V14.8285H24.8701V14.8431H24.8672V14.8549H24.8644V14.8667H24.8616V14.8786H24.8588V14.8904H24.856V14.8994H24.8532V14.9112H24.8504V14.923H24.8476C24.8447 14.923 24.8447 14.9258 24.8447 14.9258V14.9314L24.8419 14.9371C24.8419 14.9427 24.8391 14.9489 24.8363 14.9545C24.8335 14.9573 24.8335 14.9573 24.8335 14.9601V14.9657H24.8307V14.9714H24.8251V14.986H24.8194V14.995H24.8166V14.9978H24.8138V15.0034H24.811V15.0124H24.8082V15.0181H24.8026V15.0271H24.7997V15.0327H24.7969V15.0383H24.7941V15.0473H24.7913V15.0529H24.7885V15.0557H24.7857V15.0614H24.7801V15.0704H24.7772V15.0732H24.7744V15.0788H24.7716V15.0878H24.7688V15.0906H24.766V15.0962H24.7632V15.0991H24.7604V15.1081H24.7547V15.1109H24.7519V15.1165H24.7491V15.1193H24.7463V15.1249H24.7435V15.1306C24.7407 15.1306 24.7407 15.1334 24.7407 15.1334V15.1362H24.7379L24.7289 15.1508C24.7289 15.1508 24.7232 15.1564 24.7232 15.1598C24.7204 15.1598 24.7204 15.1626 24.7204 15.1626V15.1654H24.7176V15.1682H24.7148V15.1739H24.7092V15.1767H24.7064V15.1795H24.7036V15.1879H24.7007V15.1907H24.6979V15.1936H24.6951V15.1992H24.6923V15.1936H24.6867V15.1964H24.6839V15.202H24.6811V15.2076H24.6782V15.2104H24.6754V15.2132H24.6726V15.2161H24.6698V15.2217H24.6642V15.2245H24.6614V15.2301H24.6586V15.2329H24.6557V15.2357H24.6529V15.2447H24.6501V15.2476H24.6473V15.2504H24.6445V15.2532H24.6417V15.256H24.6361V15.2616H24.6332V15.2644H24.6304V15.2672H24.6276V15.2729H24.6248V15.2757H24.6192V15.2785H24.6164V15.2813H24.6136V15.2869H24.6107V15.2926H24.6079V15.2954H24.6051V15.2982H24.5995V15.301H24.5967V15.3038H24.5939V15.3094H24.5911V15.3122H24.5882V15.3179H24.5854V15.3207H24.5826V15.3235H24.5798V15.3263H24.577V15.3291H24.5714V15.3319C24.5686 15.3319 24.5686 15.3347 24.5686 15.3347L24.5657 15.3376L24.5629 15.3404V15.346H24.5601V15.3488H24.5573V15.3516H24.5545V15.3544H24.5517L24.5461 15.3601V15.3629C24.5404 15.3657 24.5404 15.3685 24.5342 15.3747C24.5342 15.3747 24.5286 15.3803 24.5252 15.3803C24.5162 15.3859 24.505 15.3977 24.496 15.4067C24.4904 15.4096 24.4842 15.4157 24.4786 15.4186C24.4667 15.4304 24.4549 15.4388 24.4431 15.4478C24.4257 15.4652 24.4077 15.4771 24.3874 15.4945H24.3846L24.2468 15.6149H24.244C24.118 15.7262 23.9684 15.8697 23.7985 16.0396L23.7839 16.0542C22.7641 17.1089 21.1559 19.3088 20.9888 22.8627C20.9714 23.1557 20.9742 23.4426 20.9916 23.7211V23.7267C21.0737 25.1273 21.5131 26.3226 22.0637 27.2952C22.2803 27.6822 22.5177 28.0337 22.7579 28.3499C23.5842 29.44 24.4279 30.0874 24.6417 30.2455C24.973 31.0099 24.9432 32.3284 24.9432 32.3284L25.4264 32.4893C25.4264 32.4893 25.3268 31.2147 25.4646 30.5965C25.5085 30.4058 25.6081 30.2421 25.7256 30.1015C25.8077 30.0458 26.0423 29.8759 26.3236 29.6183C26.3382 29.6037 26.3472 29.5919 26.359 29.5772C27.4986 28.5136 29.6288 25.8946 28.8992 21.6291L28.8846 21.6398Z" fill="#ADBAC7"/>
</g>
<path d="M58.8906 30H57.5859V22.4844C57.5859 21.8906 57.6224 21.1641 57.6953 20.3047H57.6641C57.5391 20.8099 57.4271 21.1719 57.3281 21.3906L53.5 30H52.8594L49.0391 21.4531C48.9297 21.2031 48.8177 20.8203 48.7031 20.3047H48.6719C48.7135 20.7526 48.7344 21.4844 48.7344 22.5V30H47.4688V18.7969H49.2031L52.6406 26.6094C52.9062 27.2083 53.0781 27.6562 53.1562 27.9531H53.2031C53.4271 27.3385 53.6068 26.8802 53.7422 26.5781L57.25 18.7969H58.8906V30ZM65.0156 30.1875C63.8333 30.1875 62.888 29.8151 62.1797 29.0703C61.4766 28.3203 61.125 27.3281 61.125 26.0938C61.125 24.75 61.4922 23.7005 62.2266 22.9453C62.9609 22.1901 63.9531 21.8125 65.2031 21.8125C66.3958 21.8125 67.3255 22.1797 67.9922 22.9141C68.6641 23.6484 69 24.6667 69 25.9688C69 27.2448 68.638 28.2682 67.9141 29.0391C67.1953 29.8047 66.2292 30.1875 65.0156 30.1875ZM65.1094 22.8906C64.2865 22.8906 63.6354 23.1719 63.1562 23.7344C62.6771 24.2917 62.4375 25.0625 62.4375 26.0469C62.4375 26.9948 62.6797 27.7422 63.1641 28.2891C63.6484 28.8359 64.2969 29.1094 65.1094 29.1094C65.9375 29.1094 66.5729 28.8411 67.0156 28.3047C67.4635 27.7682 67.6875 27.0052 67.6875 26.0156C67.6875 25.0156 67.4635 24.2448 67.0156 23.7031C66.5729 23.1615 65.9375 22.8906 65.1094 22.8906ZM77.6875 30H76.4062V25.4375C76.4062 23.7396 75.7865 22.8906 74.5469 22.8906C73.9062 22.8906 73.375 23.1328 72.9531 23.6172C72.5365 24.0964 72.3281 24.7031 72.3281 25.4375V30H71.0469V22H72.3281V23.3281H72.3594C72.9635 22.3177 73.8385 21.8125 74.9844 21.8125C75.8594 21.8125 76.5286 22.0964 76.9922 22.6641C77.4557 23.2266 77.6875 24.0417 77.6875 25.1094V30ZM86.9375 29.3594C86.9375 32.2969 85.5312 33.7656 82.7188 33.7656C81.7292 33.7656 80.8646 33.5781 80.125 33.2031V31.9219C81.026 32.4219 81.8854 32.6719 82.7031 32.6719C84.6719 32.6719 85.6562 31.625 85.6562 29.5312V28.6562H85.625C85.0156 29.6771 84.099 30.1875 82.875 30.1875C81.8802 30.1875 81.0781 29.8333 80.4688 29.125C79.8646 28.4115 79.5625 27.4557 79.5625 26.2578C79.5625 24.8984 79.888 23.8177 80.5391 23.0156C81.1953 22.2135 82.0911 21.8125 83.2266 21.8125C84.3047 21.8125 85.1042 22.2448 85.625 23.1094H85.6562V22H86.9375V29.3594ZM85.6562 26.3828V25.2031C85.6562 24.5677 85.4401 24.0234 85.0078 23.5703C84.5807 23.1172 84.0469 22.8906 83.4062 22.8906C82.6146 22.8906 81.9948 23.1797 81.5469 23.7578C81.099 24.3307 80.875 25.1354 80.875 26.1719C80.875 27.0625 81.0885 27.776 81.5156 28.3125C81.9479 28.8438 82.5182 29.1094 83.2266 29.1094C83.9453 29.1094 84.5286 28.8542 84.9766 28.3438C85.4297 27.8333 85.6562 27.1797 85.6562 26.3828ZM92.875 30.1875C91.6927 30.1875 90.7474 29.8151 90.0391 29.0703C89.3359 28.3203 88.9844 27.3281 88.9844 26.0938C88.9844 24.75 89.3516 23.7005 90.0859 22.9453C90.8203 22.1901 91.8125 21.8125 93.0625 21.8125C94.2552 21.8125 95.1849 22.1797 95.8516 22.9141C96.5234 23.6484 96.8594 24.6667 96.8594 25.9688C96.8594 27.2448 96.4974 28.2682 95.7734 29.0391C95.0547 29.8047 94.0885 30.1875 92.875 30.1875ZM92.9688 22.8906C92.1458 22.8906 91.4948 23.1719 91.0156 23.7344C90.5365 24.2917 90.2969 25.0625 90.2969 26.0469C90.2969 26.9948 90.5391 27.7422 91.0234 28.2891C91.5078 28.8359 92.1562 29.1094 92.9688 29.1094C93.7969 29.1094 94.4323 28.8411 94.875 28.3047C95.3229 27.7682 95.5469 27.0052 95.5469 26.0156C95.5469 25.0156 95.3229 24.2448 94.875 23.7031C94.4323 23.1615 93.7969 22.8906 92.9688 22.8906ZM99.0781 30V18.7969H102.172C106.12 18.7969 108.094 20.6172 108.094 24.2578C108.094 25.987 107.544 27.3776 106.445 28.4297C105.352 29.4766 103.885 30 102.047 30H99.0781ZM100.391 19.9844V28.8125H102.062C103.531 28.8125 104.674 28.4193 105.492 27.6328C106.31 26.8464 106.719 25.7318 106.719 24.2891C106.719 21.4193 105.193 19.9844 102.141 19.9844H100.391ZM110.297 30V18.7969H113.484C114.453 18.7969 115.221 19.0339 115.789 19.5078C116.357 19.9818 116.641 20.599 116.641 21.3594C116.641 21.9948 116.469 22.5469 116.125 23.0156C115.781 23.4844 115.307 23.8177 114.703 24.0156V24.0469C115.458 24.1354 116.062 24.4219 116.516 24.9062C116.969 25.3854 117.195 26.0104 117.195 26.7812C117.195 27.7396 116.852 28.5156 116.164 29.1094C115.477 29.7031 114.609 30 113.562 30H110.297ZM111.609 19.9844V23.6016H112.953C113.672 23.6016 114.237 23.4297 114.648 23.0859C115.06 22.737 115.266 22.2474 115.266 21.6172C115.266 20.5286 114.549 19.9844 113.117 19.9844H111.609ZM111.609 24.7812V28.8125H113.391C114.161 28.8125 114.758 28.6302 115.18 28.2656C115.607 27.901 115.82 27.401 115.82 26.7656C115.82 25.4427 114.919 24.7812 113.117 24.7812H111.609Z" fill="#ADBAC7"/>
<rect x="1" y="1" width="136" height="45" rx="4" stroke="#444C56" stroke-width="2"/>
<defs>
<clipPath id="clip0_28_4931">
<rect width="18" height="18" fill="white" transform="translate(16 14.5)"/>
</clipPath>
</defs>
</svg>
