<svg width="141" height="45" viewBox="0 0 141 45" fill="none" xmlns="http://www.w3.org/2000/svg">
<path d="M1 4C1 2.34314 2.34315 1 4 1H137C138.657 1 140 2.34315 140 4V41C140 42.6569 138.657 44 137 44H4C2.34314 44 1 42.6569 1 41V4Z" fill="#22272E"/>
<path d="M15.971 26.2734V14.3799H17.3873V16.1674C17.3873 16.1674 18.1773 14.1077 21.233 14.1077C23.9793 14.1077 24.557 16.4192 24.557 16.4192C24.557 16.4192 25.4958 14.1036 28.4813 14.1036C31.9983 14.1036 32.0656 17.4521 32.0656 17.4521V26.2734H30.7679V17.3281C30.7679 17.3281 30.6874 15.2962 28.353 15.2962C24.9027 15.2962 24.7859 18.8349 24.7859 18.8349V26.2734H23.318V17.596C23.318 17.596 23.538 15.3415 20.8371 15.3415C17.5396 15.3415 17.3884 18.9464 17.3884 18.9464L17.4216 26.2734H15.971Z" fill="#ADBAC7"/>
<path d="M57.8906 29H56.5859V21.4844C56.5859 20.8906 56.6224 20.1641 56.6953 19.3047H56.6641C56.5391 19.8099 56.4271 20.1719 56.3281 20.3906L52.5 29H51.8594L48.0391 20.4531C47.9297 20.2031 47.8177 19.8203 47.7031 19.3047H47.6719C47.7135 19.7526 47.7344 20.4844 47.7344 21.5V29H46.4688V17.7969H48.2031L51.6406 25.6094C51.9062 26.2083 52.0781 26.6562 52.1562 26.9531H52.2031C52.4271 26.3385 52.6068 25.8802 52.7422 25.5781L56.25 17.7969H57.8906V29ZM64.0156 29.1875C62.8333 29.1875 61.888 28.8151 61.1797 28.0703C60.4766 27.3203 60.125 26.3281 60.125 25.0938C60.125 23.75 60.4922 22.7005 61.2266 21.9453C61.9609 21.1901 62.9531 20.8125 64.2031 20.8125C65.3958 20.8125 66.3255 21.1797 66.9922 21.9141C67.6641 22.6484 68 23.6667 68 24.9688C68 26.2448 67.638 27.2682 66.9141 28.0391C66.1953 28.8047 65.2292 29.1875 64.0156 29.1875ZM64.1094 21.8906C63.2865 21.8906 62.6354 22.1719 62.1562 22.7344C61.6771 23.2917 61.4375 24.0625 61.4375 25.0469C61.4375 25.9948 61.6797 26.7422 62.1641 27.2891C62.6484 27.8359 63.2969 28.1094 64.1094 28.1094C64.9375 28.1094 65.5729 27.8411 66.0156 27.3047C66.4635 26.7682 66.6875 26.0052 66.6875 25.0156C66.6875 24.0156 66.4635 23.2448 66.0156 22.7031C65.5729 22.1615 64.9375 21.8906 64.1094 21.8906ZM76.6875 29H75.4062V24.4375C75.4062 22.7396 74.7865 21.8906 73.5469 21.8906C72.9062 21.8906 72.375 22.1328 71.9531 22.6172C71.5365 23.0964 71.3281 23.7031 71.3281 24.4375V29H70.0469V21H71.3281V22.3281H71.3594C71.9635 21.3177 72.8385 20.8125 73.9844 20.8125C74.8594 20.8125 75.5286 21.0964 75.9922 21.6641C76.4557 22.2266 76.6875 23.0417 76.6875 24.1094V29ZM85.9375 28.3594C85.9375 31.2969 84.5312 32.7656 81.7188 32.7656C80.7292 32.7656 79.8646 32.5781 79.125 32.2031V30.9219C80.026 31.4219 80.8854 31.6719 81.7031 31.6719C83.6719 31.6719 84.6562 30.625 84.6562 28.5312V27.6562H84.625C84.0156 28.6771 83.099 29.1875 81.875 29.1875C80.8802 29.1875 80.0781 28.8333 79.4688 28.125C78.8646 27.4115 78.5625 26.4557 78.5625 25.2578C78.5625 23.8984 78.888 22.8177 79.5391 22.0156C80.1953 21.2135 81.0911 20.8125 82.2266 20.8125C83.3047 20.8125 84.1042 21.2448 84.625 22.1094H84.6562V21H85.9375V28.3594ZM84.6562 25.3828V24.2031C84.6562 23.5677 84.4401 23.0234 84.0078 22.5703C83.5807 22.1172 83.0469 21.8906 82.4062 21.8906C81.6146 21.8906 80.9948 22.1797 80.5469 22.7578C80.099 23.3307 79.875 24.1354 79.875 25.1719C79.875 26.0625 80.0885 26.776 80.5156 27.3125C80.9479 27.8438 81.5182 28.1094 82.2266 28.1094C82.9453 28.1094 83.5286 27.8542 83.9766 27.3438C84.4297 26.8333 84.6562 26.1797 84.6562 25.3828ZM91.875 29.1875C90.6927 29.1875 89.7474 28.8151 89.0391 28.0703C88.3359 27.3203 87.9844 26.3281 87.9844 25.0938C87.9844 23.75 88.3516 22.7005 89.0859 21.9453C89.8203 21.1901 90.8125 20.8125 92.0625 20.8125C93.2552 20.8125 94.1849 21.1797 94.8516 21.9141C95.5234 22.6484 95.8594 23.6667 95.8594 24.9688C95.8594 26.2448 95.4974 27.2682 94.7734 28.0391C94.0547 28.8047 93.0885 29.1875 91.875 29.1875ZM91.9688 21.8906C91.1458 21.8906 90.4948 22.1719 90.0156 22.7344C89.5365 23.2917 89.2969 24.0625 89.2969 25.0469C89.2969 25.9948 89.5391 26.7422 90.0234 27.2891C90.5078 27.8359 91.1562 28.1094 91.9688 28.1094C92.7969 28.1094 93.4323 27.8411 93.875 27.3047C94.3229 26.7682 94.5469 26.0052 94.5469 25.0156C94.5469 24.0156 94.3229 23.2448 93.875 22.7031C93.4323 22.1615 92.7969 21.8906 91.9688 21.8906ZM101.25 29.1875C100.068 29.1875 99.1224 28.8151 98.4141 28.0703C97.7109 27.3203 97.3594 26.3281 97.3594 25.0938C97.3594 23.75 97.7266 22.7005 98.4609 21.9453C99.1953 21.1901 100.188 20.8125 101.438 20.8125C102.63 20.8125 103.56 21.1797 104.227 21.9141C104.898 22.6484 105.234 23.6667 105.234 24.9688C105.234 26.2448 104.872 27.2682 104.148 28.0391C103.43 28.8047 102.464 29.1875 101.25 29.1875ZM101.344 21.8906C100.521 21.8906 99.8698 22.1719 99.3906 22.7344C98.9115 23.2917 98.6719 24.0625 98.6719 25.0469C98.6719 25.9948 98.9141 26.7422 99.3984 27.2891C99.8828 27.8359 100.531 28.1094 101.344 28.1094C102.172 28.1094 102.807 27.8411 103.25 27.3047C103.698 26.7682 103.922 26.0052 103.922 25.0156C103.922 24.0156 103.698 23.2448 103.25 22.7031C102.807 22.1615 102.172 21.8906 101.344 21.8906ZM106.797 28.7109V27.3359C107.495 27.8516 108.263 28.1094 109.102 28.1094C110.227 28.1094 110.789 27.7344 110.789 26.9844C110.789 26.7708 110.74 26.5911 110.641 26.4453C110.547 26.2943 110.417 26.1615 110.25 26.0469C110.089 25.9323 109.896 25.8307 109.672 25.7422C109.453 25.6484 109.216 25.5521 108.961 25.4531C108.607 25.3125 108.294 25.1719 108.023 25.0312C107.758 24.8854 107.534 24.724 107.352 24.5469C107.174 24.3646 107.039 24.1589 106.945 23.9297C106.857 23.7005 106.812 23.4323 106.812 23.125C106.812 22.75 106.898 22.4193 107.07 22.1328C107.242 21.8411 107.471 21.599 107.758 21.4062C108.044 21.2083 108.37 21.0599 108.734 20.9609C109.104 20.862 109.484 20.8125 109.875 20.8125C110.568 20.8125 111.188 20.9323 111.734 21.1719V22.4688C111.146 22.0833 110.469 21.8906 109.703 21.8906C109.464 21.8906 109.247 21.9193 109.055 21.9766C108.862 22.0286 108.695 22.1042 108.555 22.2031C108.419 22.3021 108.312 22.4219 108.234 22.5625C108.161 22.6979 108.125 22.849 108.125 23.0156C108.125 23.224 108.161 23.3984 108.234 23.5391C108.312 23.6797 108.424 23.8047 108.57 23.9141C108.716 24.0234 108.893 24.1224 109.102 24.2109C109.31 24.2995 109.547 24.3958 109.812 24.5C110.167 24.6354 110.484 24.776 110.766 24.9219C111.047 25.0625 111.286 25.224 111.484 25.4062C111.682 25.5833 111.833 25.7891 111.938 26.0234C112.047 26.2578 112.102 26.5365 112.102 26.8594C112.102 27.2552 112.013 27.599 111.836 27.8906C111.664 28.1823 111.432 28.4245 111.141 28.6172C110.849 28.8099 110.513 28.9531 110.133 29.0469C109.753 29.1406 109.354 29.1875 108.938 29.1875C108.115 29.1875 107.401 29.0286 106.797 28.7109ZM120.508 25.3203H114.859C114.88 26.2109 115.12 26.8984 115.578 27.3828C116.036 27.8672 116.667 28.1094 117.469 28.1094C118.37 28.1094 119.198 27.8125 119.953 27.2188V28.4219C119.25 28.9323 118.32 29.1875 117.164 29.1875C116.034 29.1875 115.146 28.8255 114.5 28.1016C113.854 27.3724 113.531 26.349 113.531 25.0312C113.531 23.7865 113.883 22.7734 114.586 21.9922C115.294 21.2057 116.172 20.8125 117.219 20.8125C118.266 20.8125 119.076 21.151 119.648 21.8281C120.221 22.5052 120.508 23.4453 120.508 24.6484V25.3203ZM119.195 24.2344C119.19 23.4948 119.01 22.9193 118.656 22.5078C118.307 22.0964 117.82 21.8906 117.195 21.8906C116.591 21.8906 116.078 22.1068 115.656 22.5391C115.234 22.9714 114.974 23.5365 114.875 24.2344H119.195Z" fill="#ADBAC7"/>
<path d="M4 2H137V0H4V2ZM139 4V41H141V4H139ZM137 43H4V45H137V43ZM2 41V4H0V41H2ZM4 43C2.89543 43 2 42.1046 2 41H0C0 43.2091 1.79086 45 4 45V43ZM139 41C139 42.1046 138.105 43 137 43V45C139.209 45 141 43.2091 141 41H139ZM137 2C138.105 2 139 2.89543 139 4H141C141 1.79086 139.209 0 137 0V2ZM4 0C1.79086 0 0 1.79086 0 4H2C2 2.89543 2.89543 2 4 2V0Z" fill="#444C56"/>
</svg>
