<svg width="19" height="18" viewBox="0 0 19 18" fill="none" xmlns="http://www.w3.org/2000/svg">
<g clip-path="url(#clip0)">
<path d="M1.96647 12.7734V0.87994H3.38276V2.66744C3.38276 2.66744 4.17273 0.607672 7.22844 0.607672C9.9748 0.607672 10.5525 2.91919 10.5525 2.91919C10.5525 2.91919 11.4913 0.603607 14.4768 0.603607C17.9938 0.603607 18.061 3.95214 18.061 3.95214V12.7734H16.7633V3.82813C16.7633 3.82813 16.6828 1.79618 14.3484 1.79618C10.8981 1.79618 10.7813 5.33487 10.7813 5.33487V12.7734H9.31346V4.09598C9.31346 4.09598 9.53343 1.84152 6.83254 1.84152C3.53503 1.84152 3.38388 5.44643 3.38388 5.44643L3.41703 12.7734H1.96647Z" fill="#880000"/>
</g>
<defs>
<clipPath id="clip0">
<rect width="18" height="18" fill="white" transform="translate(0.995483)"/>
</clipPath>
</defs>
</svg>
