<svg width="143" height="47" viewBox="0 0 143 47" fill="none" xmlns="http://www.w3.org/2000/svg">
<rect x="1" y="1" width="141" height="45" rx="4" fill="#22272E"/>
<path d="M16.971 27.2734V15.3799H18.3873V17.1674C18.3873 17.1674 19.1773 15.1077 22.233 15.1077C24.9793 15.1077 25.557 17.4192 25.557 17.4192C25.557 17.4192 26.4958 15.1036 29.4813 15.1036C32.9983 15.1036 33.0656 18.4521 33.0656 18.4521V27.2734H31.7679V18.3281C31.7679 18.3281 31.6874 16.2962 29.353 16.2962C25.9027 16.2962 25.7859 19.8349 25.7859 19.8349V27.2734H24.318V18.596C24.318 18.596 24.538 16.3415 21.8371 16.3415C18.5396 16.3415 18.3884 19.9464 18.3884 19.9464L18.4216 27.2734H16.971Z" fill="#ADBAC7"/>
<path d="M58.8906 30H57.5859V22.4844C57.5859 21.8906 57.6224 21.1641 57.6953 20.3047H57.6641C57.5391 20.8099 57.4271 21.1719 57.3281 21.3906L53.5 30H52.8594L49.0391 21.4531C48.9297 21.2031 48.8177 20.8203 48.7031 20.3047H48.6719C48.7135 20.7526 48.7344 21.4844 48.7344 22.5V30H47.4688V18.7969H49.2031L52.6406 26.6094C52.9062 27.2083 53.0781 27.6562 53.1562 27.9531H53.2031C53.4271 27.3385 53.6068 26.8802 53.7422 26.5781L57.25 18.7969H58.8906V30ZM65.0156 30.1875C63.8333 30.1875 62.888 29.8151 62.1797 29.0703C61.4766 28.3203 61.125 27.3281 61.125 26.0938C61.125 24.75 61.4922 23.7005 62.2266 22.9453C62.9609 22.1901 63.9531 21.8125 65.2031 21.8125C66.3958 21.8125 67.3255 22.1797 67.9922 22.9141C68.6641 23.6484 69 24.6667 69 25.9688C69 27.2448 68.638 28.2682 67.9141 29.0391C67.1953 29.8047 66.2292 30.1875 65.0156 30.1875ZM65.1094 22.8906C64.2865 22.8906 63.6354 23.1719 63.1562 23.7344C62.6771 24.2917 62.4375 25.0625 62.4375 26.0469C62.4375 26.9948 62.6797 27.7422 63.1641 28.2891C63.6484 28.8359 64.2969 29.1094 65.1094 29.1094C65.9375 29.1094 66.5729 28.8411 67.0156 28.3047C67.4635 27.7682 67.6875 27.0052 67.6875 26.0156C67.6875 25.0156 67.4635 24.2448 67.0156 23.7031C66.5729 23.1615 65.9375 22.8906 65.1094 22.8906ZM77.6875 30H76.4062V25.4375C76.4062 23.7396 75.7865 22.8906 74.5469 22.8906C73.9062 22.8906 73.375 23.1328 72.9531 23.6172C72.5365 24.0964 72.3281 24.7031 72.3281 25.4375V30H71.0469V22H72.3281V23.3281H72.3594C72.9635 22.3177 73.8385 21.8125 74.9844 21.8125C75.8594 21.8125 76.5286 22.0964 76.9922 22.6641C77.4557 23.2266 77.6875 24.0417 77.6875 25.1094V30ZM86.9375 29.3594C86.9375 32.2969 85.5312 33.7656 82.7188 33.7656C81.7292 33.7656 80.8646 33.5781 80.125 33.2031V31.9219C81.026 32.4219 81.8854 32.6719 82.7031 32.6719C84.6719 32.6719 85.6562 31.625 85.6562 29.5312V28.6562H85.625C85.0156 29.6771 84.099 30.1875 82.875 30.1875C81.8802 30.1875 81.0781 29.8333 80.4688 29.125C79.8646 28.4115 79.5625 27.4557 79.5625 26.2578C79.5625 24.8984 79.888 23.8177 80.5391 23.0156C81.1953 22.2135 82.0911 21.8125 83.2266 21.8125C84.3047 21.8125 85.1042 22.2448 85.625 23.1094H85.6562V22H86.9375V29.3594ZM85.6562 26.3828V25.2031C85.6562 24.5677 85.4401 24.0234 85.0078 23.5703C84.5807 23.1172 84.0469 22.8906 83.4062 22.8906C82.6146 22.8906 81.9948 23.1797 81.5469 23.7578C81.099 24.3307 80.875 25.1354 80.875 26.1719C80.875 27.0625 81.0885 27.776 81.5156 28.3125C81.9479 28.8438 82.5182 29.1094 83.2266 29.1094C83.9453 29.1094 84.5286 28.8542 84.9766 28.3438C85.4297 27.8333 85.6562 27.1797 85.6562 26.3828ZM92.875 30.1875C91.6927 30.1875 90.7474 29.8151 90.0391 29.0703C89.3359 28.3203 88.9844 27.3281 88.9844 26.0938C88.9844 24.75 89.3516 23.7005 90.0859 22.9453C90.8203 22.1901 91.8125 21.8125 93.0625 21.8125C94.2552 21.8125 95.1849 22.1797 95.8516 22.9141C96.5234 23.6484 96.8594 24.6667 96.8594 25.9688C96.8594 27.2448 96.4974 28.2682 95.7734 29.0391C95.0547 29.8047 94.0885 30.1875 92.875 30.1875ZM92.9688 22.8906C92.1458 22.8906 91.4948 23.1719 91.0156 23.7344C90.5365 24.2917 90.2969 25.0625 90.2969 26.0469C90.2969 26.9948 90.5391 27.7422 91.0234 28.2891C91.5078 28.8359 92.1562 29.1094 92.9688 29.1094C93.7969 29.1094 94.4323 28.8411 94.875 28.3047C95.3229 27.7682 95.5469 27.0052 95.5469 26.0156C95.5469 25.0156 95.3229 24.2448 94.875 23.7031C94.4323 23.1615 93.7969 22.8906 92.9688 22.8906ZM102.25 30.1875C101.068 30.1875 100.122 29.8151 99.4141 29.0703C98.7109 28.3203 98.3594 27.3281 98.3594 26.0938C98.3594 24.75 98.7266 23.7005 99.4609 22.9453C100.195 22.1901 101.188 21.8125 102.438 21.8125C103.63 21.8125 104.56 22.1797 105.227 22.9141C105.898 23.6484 106.234 24.6667 106.234 25.9688C106.234 27.2448 105.872 28.2682 105.148 29.0391C104.43 29.8047 103.464 30.1875 102.25 30.1875ZM102.344 22.8906C101.521 22.8906 100.87 23.1719 100.391 23.7344C99.9115 24.2917 99.6719 25.0625 99.6719 26.0469C99.6719 26.9948 99.9141 27.7422 100.398 28.2891C100.883 28.8359 101.531 29.1094 102.344 29.1094C103.172 29.1094 103.807 28.8411 104.25 28.3047C104.698 27.7682 104.922 27.0052 104.922 26.0156C104.922 25.0156 104.698 24.2448 104.25 23.7031C103.807 23.1615 103.172 22.8906 102.344 22.8906ZM107.797 29.7109V28.3359C108.495 28.8516 109.263 29.1094 110.102 29.1094C111.227 29.1094 111.789 28.7344 111.789 27.9844C111.789 27.7708 111.74 27.5911 111.641 27.4453C111.547 27.2943 111.417 27.1615 111.25 27.0469C111.089 26.9323 110.896 26.8307 110.672 26.7422C110.453 26.6484 110.216 26.5521 109.961 26.4531C109.607 26.3125 109.294 26.1719 109.023 26.0312C108.758 25.8854 108.534 25.724 108.352 25.5469C108.174 25.3646 108.039 25.1589 107.945 24.9297C107.857 24.7005 107.812 24.4323 107.812 24.125C107.812 23.75 107.898 23.4193 108.07 23.1328C108.242 22.8411 108.471 22.599 108.758 22.4062C109.044 22.2083 109.37 22.0599 109.734 21.9609C110.104 21.862 110.484 21.8125 110.875 21.8125C111.568 21.8125 112.188 21.9323 112.734 22.1719V23.4688C112.146 23.0833 111.469 22.8906 110.703 22.8906C110.464 22.8906 110.247 22.9193 110.055 22.9766C109.862 23.0286 109.695 23.1042 109.555 23.2031C109.419 23.3021 109.312 23.4219 109.234 23.5625C109.161 23.6979 109.125 23.849 109.125 24.0156C109.125 24.224 109.161 24.3984 109.234 24.5391C109.312 24.6797 109.424 24.8047 109.57 24.9141C109.716 25.0234 109.893 25.1224 110.102 25.2109C110.31 25.2995 110.547 25.3958 110.812 25.5C111.167 25.6354 111.484 25.776 111.766 25.9219C112.047 26.0625 112.286 26.224 112.484 26.4062C112.682 26.5833 112.833 26.7891 112.938 27.0234C113.047 27.2578 113.102 27.5365 113.102 27.8594C113.102 28.2552 113.013 28.599 112.836 28.8906C112.664 29.1823 112.432 29.4245 112.141 29.6172C111.849 29.8099 111.513 29.9531 111.133 30.0469C110.753 30.1406 110.354 30.1875 109.938 30.1875C109.115 30.1875 108.401 30.0286 107.797 29.7109ZM121.508 26.3203H115.859C115.88 27.2109 116.12 27.8984 116.578 28.3828C117.036 28.8672 117.667 29.1094 118.469 29.1094C119.37 29.1094 120.198 28.8125 120.953 28.2188V29.4219C120.25 29.9323 119.32 30.1875 118.164 30.1875C117.034 30.1875 116.146 29.8255 115.5 29.1016C114.854 28.3724 114.531 27.349 114.531 26.0312C114.531 24.7865 114.883 23.7734 115.586 22.9922C116.294 22.2057 117.172 21.8125 118.219 21.8125C119.266 21.8125 120.076 22.151 120.648 22.8281C121.221 23.5052 121.508 24.4453 121.508 25.6484V26.3203ZM120.195 25.2344C120.19 24.4948 120.01 23.9193 119.656 23.5078C119.307 23.0964 118.82 22.8906 118.195 22.8906C117.591 22.8906 117.078 23.1068 116.656 23.5391C116.234 23.9714 115.974 24.5365 115.875 25.2344H120.195Z" fill="#ADBAC7"/>
<rect x="1" y="1" width="141" height="45" rx="4" stroke="#444C56" stroke-width="2"/>
</svg>
