<svg width="101" height="34" viewBox="0 0 101 34" fill="none" xmlns="http://www.w3.org/2000/svg">
<path d="M1 4C1 2.34315 2.34315 1 4 1H97C98.6569 1 100 2.34315 100 4V30C100 31.6569 98.6569 33 97 33H4C2.34314 33 1 31.6569 1 30V4Z" fill="#C9D1D9"/>
<path d="M9.97098 20.7734V8.87994H11.3873V10.6674C11.3873 10.6674 12.1772 8.60767 15.233 8.60767C17.9793 8.60767 18.557 10.9192 18.557 10.9192C18.557 10.9192 19.4958 8.60361 22.4813 8.60361C25.9983 8.60361 26.0655 11.9521 26.0655 11.9521V20.7734H24.7678V11.8281C24.7678 11.8281 24.6873 9.79618 22.3529 9.79618C18.9026 9.79618 18.7858 13.3349 18.7858 13.3349V20.7734H17.318V12.096C17.318 12.096 17.5379 9.84152 14.837 9.84152C11.5395 9.84152 11.3884 13.4464 11.3884 13.4464L11.4215 20.7734H9.97098Z" fill="#880000"/>
<path d="M37.4434 12.4688L40.2324 19.4297L43.0215 12.4688H44.4805V21H43.3555V17.6777L43.4609 14.0918L40.6602 21H39.7988L37.0039 14.1094L37.1152 17.6777V21H35.9902V12.4688H37.4434ZM46.0098 17.7715C46.0098 17.1504 46.1309 16.5918 46.373 16.0957C46.6191 15.5996 46.959 15.2168 47.3926 14.9473C47.8301 14.6777 48.3281 14.543 48.8867 14.543C49.75 14.543 50.4473 14.8418 50.9785 15.4395C51.5137 16.0371 51.7812 16.832 51.7812 17.8242V17.9004C51.7812 18.5176 51.6621 19.0723 51.4238 19.5645C51.1895 20.0527 50.8516 20.4336 50.4102 20.707C49.9727 20.9805 49.4688 21.1172 48.8984 21.1172C48.0391 21.1172 47.3418 20.8184 46.8066 20.2207C46.2754 19.623 46.0098 18.832 46.0098 17.8477V17.7715ZM47.0996 17.9004C47.0996 18.6035 47.2617 19.168 47.5859 19.5938C47.9141 20.0195 48.3516 20.2324 48.8984 20.2324C49.4492 20.2324 49.8867 20.0176 50.2109 19.5879C50.5352 19.1543 50.6973 18.5488 50.6973 17.7715C50.6973 17.0762 50.5312 16.5137 50.1992 16.084C49.8711 15.6504 49.4336 15.4336 48.8867 15.4336C48.3516 15.4336 47.9199 15.6465 47.5918 16.0723C47.2637 16.498 47.0996 17.1074 47.0996 17.9004ZM54.166 14.6602L54.2012 15.457C54.6855 14.8477 55.3184 14.543 56.0996 14.543C57.4395 14.543 58.1152 15.2988 58.127 16.8105V21H57.043V16.8047C57.0391 16.3477 56.9336 16.0098 56.7266 15.791C56.5234 15.5723 56.2051 15.4629 55.7715 15.4629C55.4199 15.4629 55.1113 15.5566 54.8457 15.7441C54.5801 15.9316 54.373 16.1777 54.2246 16.4824V21H53.1406V14.6602H54.166ZM59.5039 17.7773C59.5039 16.7891 59.7324 16.0039 60.1895 15.4219C60.6465 14.8359 61.252 14.543 62.0059 14.543C62.7793 14.543 63.3828 14.8164 63.8164 15.3633L63.8691 14.6602H64.8594V20.8477C64.8594 21.668 64.6152 22.3145 64.127 22.7871C63.6426 23.2598 62.9902 23.4961 62.1699 23.4961C61.7129 23.4961 61.2656 23.3984 60.8281 23.2031C60.3906 23.0078 60.0566 22.7402 59.8262 22.4004L60.3887 21.75C60.8535 22.3242 61.4219 22.6113 62.0938 22.6113C62.6211 22.6113 63.0312 22.4629 63.3242 22.166C63.6211 21.8691 63.7695 21.4512 63.7695 20.9121V20.3672C63.3359 20.8672 62.7441 21.1172 61.9941 21.1172C61.252 21.1172 60.6504 20.8184 60.1895 20.2207C59.7324 19.623 59.5039 18.8086 59.5039 17.7773ZM60.5938 17.9004C60.5938 18.6152 60.7402 19.1777 61.0332 19.5879C61.3262 19.9941 61.7363 20.1973 62.2637 20.1973C62.9473 20.1973 63.4492 19.8867 63.7695 19.2656V16.3711C63.4375 15.7656 62.9395 15.4629 62.2754 15.4629C61.748 15.4629 61.3359 15.668 61.0391 16.0781C60.7422 16.4883 60.5938 17.0957 60.5938 17.9004ZM66.2129 17.7715C66.2129 17.1504 66.334 16.5918 66.5762 16.0957C66.8223 15.5996 67.1621 15.2168 67.5957 14.9473C68.0332 14.6777 68.5312 14.543 69.0898 14.543C69.9531 14.543 70.6504 14.8418 71.1816 15.4395C71.7168 16.0371 71.9844 16.832 71.9844 17.8242V17.9004C71.9844 18.5176 71.8652 19.0723 71.627 19.5645C71.3926 20.0527 71.0547 20.4336 70.6133 20.707C70.1758 20.9805 69.6719 21.1172 69.1016 21.1172C68.2422 21.1172 67.5449 20.8184 67.0098 20.2207C66.4785 19.623 66.2129 18.832 66.2129 17.8477V17.7715ZM67.3027 17.9004C67.3027 18.6035 67.4648 19.168 67.7891 19.5938C68.1172 20.0195 68.5547 20.2324 69.1016 20.2324C69.6523 20.2324 70.0898 20.0176 70.4141 19.5879C70.7383 19.1543 70.9004 18.5488 70.9004 17.7715C70.9004 17.0762 70.7344 16.5137 70.4023 16.084C70.0742 15.6504 69.6367 15.4336 69.0898 15.4336C68.5547 15.4336 68.123 15.6465 67.7949 16.0723C67.4668 16.498 67.3027 17.1074 67.3027 17.9004ZM73.0566 17.7715C73.0566 17.1504 73.1777 16.5918 73.4199 16.0957C73.666 15.5996 74.0059 15.2168 74.4395 14.9473C74.877 14.6777 75.375 14.543 75.9336 14.543C76.7969 14.543 77.4941 14.8418 78.0254 15.4395C78.5605 16.0371 78.8281 16.832 78.8281 17.8242V17.9004C78.8281 18.5176 78.709 19.0723 78.4707 19.5645C78.2363 20.0527 77.8984 20.4336 77.457 20.707C77.0195 20.9805 76.5156 21.1172 75.9453 21.1172C75.0859 21.1172 74.3887 20.8184 73.8535 20.2207C73.3223 19.623 73.0566 18.832 73.0566 17.8477V17.7715ZM74.1465 17.9004C74.1465 18.6035 74.3086 19.168 74.6328 19.5938C74.9609 20.0195 75.3984 20.2324 75.9453 20.2324C76.4961 20.2324 76.9336 20.0176 77.2578 19.5879C77.582 19.1543 77.7441 18.5488 77.7441 17.7715C77.7441 17.0762 77.5781 16.5137 77.2461 16.084C76.918 15.6504 76.4805 15.4336 75.9336 15.4336C75.3984 15.4336 74.9668 15.6465 74.6387 16.0723C74.3105 16.498 74.1465 17.1074 74.1465 17.9004ZM83.8789 19.3184C83.8789 19.0254 83.7676 18.7988 83.5449 18.6387C83.3262 18.4746 82.9414 18.334 82.3906 18.2168C81.8438 18.0996 81.4082 17.959 81.084 17.7949C80.7637 17.6309 80.5254 17.4355 80.3691 17.209C80.2168 16.9824 80.1406 16.7129 80.1406 16.4004C80.1406 15.8809 80.3594 15.4414 80.7969 15.082C81.2383 14.7227 81.8008 14.543 82.4844 14.543C83.2031 14.543 83.7852 14.7285 84.2305 15.0996C84.6797 15.4707 84.9043 15.9453 84.9043 16.5234H83.8145C83.8145 16.2266 83.6875 15.9707 83.4336 15.7559C83.1836 15.541 82.8672 15.4336 82.4844 15.4336C82.0898 15.4336 81.7812 15.5195 81.5586 15.6914C81.3359 15.8633 81.2246 16.0879 81.2246 16.3652C81.2246 16.627 81.3281 16.8242 81.5352 16.957C81.7422 17.0898 82.1152 17.2168 82.6543 17.3379C83.1973 17.459 83.6367 17.6035 83.9727 17.7715C84.3086 17.9395 84.5566 18.1426 84.7168 18.3809C84.8809 18.6152 84.9629 18.9023 84.9629 19.2422C84.9629 19.8086 84.7363 20.2637 84.2832 20.6074C83.8301 20.9473 83.2422 21.1172 82.5195 21.1172C82.0117 21.1172 81.5625 21.0273 81.1719 20.8477C80.7812 20.668 80.4746 20.418 80.252 20.0977C80.0332 19.7734 79.9238 19.4238 79.9238 19.0488H81.0078C81.0273 19.4121 81.1719 19.7012 81.4414 19.916C81.7148 20.127 82.0742 20.2324 82.5195 20.2324C82.9297 20.2324 83.2578 20.1504 83.5039 19.9863C83.7539 19.8184 83.8789 19.5957 83.8789 19.3184ZM89.0059 21.1172C88.1465 21.1172 87.4473 20.8359 86.9082 20.2734C86.3691 19.707 86.0996 18.9512 86.0996 18.0059V17.8066C86.0996 17.1777 86.2188 16.6172 86.457 16.125C86.6992 15.6289 87.0352 15.2422 87.4648 14.9648C87.8984 14.6836 88.3672 14.543 88.8711 14.543C89.6953 14.543 90.3359 14.8145 90.793 15.3574C91.25 15.9004 91.4785 16.6777 91.4785 17.6895V18.1406H87.1836C87.1992 18.7656 87.3809 19.2715 87.7285 19.6582C88.0801 20.041 88.5254 20.2324 89.0645 20.2324C89.4473 20.2324 89.7715 20.1543 90.0371 19.998C90.3027 19.8418 90.5352 19.6348 90.7344 19.377L91.3965 19.8926C90.8652 20.709 90.0684 21.1172 89.0059 21.1172ZM88.8711 15.4336C88.4336 15.4336 88.0664 15.5938 87.7695 15.9141C87.4727 16.2305 87.2891 16.6758 87.2188 17.25H90.3945V17.168C90.3633 16.6172 90.2148 16.1914 89.9492 15.8906C89.6836 15.5859 89.3242 15.4336 88.8711 15.4336Z" fill="#22272E"/>
<path d="M4 2H97V0H4V2ZM99 4V30H101V4H99ZM97 32H4V34H97V32ZM2 30V4H0V30H2ZM4 32C2.89543 32 2 31.1046 2 30H0C0 32.2091 1.79086 34 4 34V32ZM99 30C99 31.1046 98.1046 32 97 32V34C99.2091 34 101 32.2091 101 30H99ZM97 2C98.1046 2 99 2.89543 99 4H101C101 1.79086 99.2091 0 97 0V2ZM4 0C1.79086 0 0 1.79086 0 4H2C2 2.89543 2.89543 2 4 2V0Z" fill="#30363D"/>
</svg>
