<svg xmlns="http://www.w3.org/2000/svg" width="128" height="56" fill="none"><rect width="110" height="48" x="9" y="4" fill="#E3F2FD" rx="4"/><g clip-path="url(#a)"><path fill="#512BD4" d="M29.333 17.333h21.334v21.334H29.333V17.333Z"/><path fill="#fff" d="M33.136 30.963a.537.537 0 0 1-.385-.15.496.496 0 0 1-.158-.368.5.5 0 0 1 .158-.371.53.53 0 0 1 .385-.155c.153 0 .282.052.388.155a.495.495 0 0 1 .162.37.49.49 0 0 1-.162.368.542.542 0 0 1-.388.151Zm6.03-.085h-.98l-2.584-4.076a1.818 1.818 0 0 1-.162-.32h-.023l.004.025.004.03.003.032.003.036.004.062.004.069.003.078.002.085.002.094v.067l.002.183v3.635h-.868v-5.545h1.045l2.496 3.979.062.097.04.064.034.057.028.048.016.028.013.025.01.021h.016l-.003-.017-.005-.038-.005-.04-.005-.046-.002-.023-.004-.05-.003-.054-.003-.058-.003-.093-.003-.1-.001-.11v-3.69h.863v5.545Zm4.224 0h-3.036v-5.545h2.915v.781H41.25v1.57h1.86v.777h-1.86v1.64h2.139v.777Zm4.314-4.764H46.15v4.764h-.897v-4.764h-1.55v-.78h4v.78Z"/></g><path fill="#000" d="M69.742 34.672a.842.842 0 0 1-.617-.258.855.855 0 0 1-.25-.617c0-.24.083-.445.25-.617a.83.83 0 0 1 .617-.266c.245 0 .453.089.625.266a.842.842 0 0 1 .258.617c0 .24-.086.445-.258.617a.851.851 0 0 1-.625.258ZM81.97 34.5h-1.61l-5.765-8.93a3.722 3.722 0 0 1-.36-.703h-.046c.041.24.062.753.062 1.54V34.5h-1.313V23.297h1.704l5.609 8.789c.234.364.385.614.453.75h.031c-.052-.323-.078-.872-.078-1.648v-7.891h1.313V34.5Zm8.875 0h-5.938V23.297h5.688v1.187h-4.375v3.727h4.047v1.18h-4.047v3.922h4.625V34.5Zm8.781-10.016h-3.234V34.5h-1.313V24.484h-3.226v-1.187h7.773v1.187Z"/><rect width="110" height="48" x="9" y="4" stroke="#2196F3" stroke-width="2" rx="4"/><defs><clipPath id="a"><path fill="#fff" d="M29.333 17.333h21.333v21.333H29.333z"/></clipPath></defs></svg>