<svg width="98" height="47" viewBox="0 0 98 47" fill="none" xmlns="http://www.w3.org/2000/svg">
<rect x="1" y="1" width="96" height="45" rx="4" fill="#22272E"/>
<g clip-path="url(#clip0_101_661)">
<path d="M18.3759 20.175V26.7377H19.1438V21.9914C19.1501 21.691 19.1373 21.3906 19.1055 21.0919H19.1348C19.1904 21.2354 19.2608 21.3732 19.3429 21.502L22.7179 26.7344H23.6584V20.175H22.8939V24.7892C22.8849 25.1115 22.9029 25.4339 22.9406 25.7534H22.9232C22.8391 25.6041 22.7502 25.4575 22.6566 25.314L19.3721 20.1756L18.3759 20.175ZM25.3605 20.175V26.7377H28.8497L28.8525 26.0172H26.1452V23.7407H28.5156V23.0494H26.1452V20.8697H28.6883V20.1756L25.3605 20.175ZM29.4386 20.175V20.8692H31.3253V26.7372H32.0931V20.8692H34.0005V20.175H29.4386ZM16.4893 25.8C16.4247 25.8017 16.3612 25.8164 16.3023 25.843C16.2435 25.8697 16.1906 25.9079 16.1468 25.9553C16.0524 26.0516 15.9999 26.1811 16.0005 26.3159C15.9996 26.4167 16.0289 26.5156 16.0845 26.5997C16.1401 26.6839 16.2196 26.7495 16.3128 26.7883C16.4059 26.827 16.5085 26.837 16.6074 26.8171C16.7063 26.7972 16.797 26.7482 16.8679 26.6764C16.9646 26.5825 17.0203 26.4509 17.0203 26.3159C17.0203 26.1809 16.9646 26.0492 16.8679 25.9553C16.8216 25.9061 16.7658 25.8669 16.7037 25.8402C16.6417 25.8135 16.5749 25.7998 16.5073 25.8H16.4899H16.4893Z" fill="#ADBAC7"/>
</g>
<path d="M47.7422 30.1719C47.5026 30.1719 47.2969 30.0859 47.125 29.9141C46.9583 29.7422 46.875 29.5365 46.875 29.2969C46.875 29.0573 46.9583 28.8516 47.125 28.6797C47.2969 28.5026 47.5026 28.4141 47.7422 28.4141C47.987 28.4141 48.1953 28.5026 48.3672 28.6797C48.5391 28.8516 48.625 29.0573 48.625 29.2969C48.625 29.5365 48.5391 29.7422 48.3672 29.9141C48.1953 30.0859 47.987 30.1719 47.7422 30.1719ZM59.9688 30H58.3594L52.5938 21.0703C52.4479 20.8464 52.3281 20.612 52.2344 20.3672H52.1875C52.2292 20.6068 52.25 21.1198 52.25 21.9062V30H50.9375V18.7969H52.6406L58.25 27.5859C58.4844 27.9505 58.6354 28.2005 58.7031 28.3359H58.7344C58.6823 28.013 58.6562 27.4635 58.6562 26.6875V18.7969H59.9688V30ZM68.8438 30H62.9062V18.7969H68.5938V19.9844H64.2188V23.7109H68.2656V24.8906H64.2188V28.8125H68.8438V30ZM77.625 19.9844H74.3906V30H73.0781V19.9844H69.8516V18.7969H77.625V19.9844Z" fill="#ADBAC7"/>
<rect x="1" y="1" width="96" height="45" rx="4" stroke="#444C56" stroke-width="2"/>
<defs>
<clipPath id="clip0_101_661">
<rect width="18" height="18" fill="white" transform="translate(16 14.5)"/>
</clipPath>
</defs>
</svg>
