<svg width="74" height="34" viewBox="0 0 74 34" fill="none" xmlns="http://www.w3.org/2000/svg">
<path d="M1.5 4C1.5 2.34315 2.84315 1 4.5 1H69.5C71.1569 1 72.5 2.34315 72.5 4V30C72.5 31.6569 71.1569 33 69.5 33H4.5C2.84314 33 1.5 31.6569 1.5 30V4Z" fill="#C9D1D9"/>
<path d="M18.5 24.875C18.2875 24.8751 18.0788 24.8192 17.8948 24.713L15.9688 23.5728C15.6813 23.4119 15.8214 23.3551 15.9165 23.3219C16.2222 23.2275 16.5149 23.0952 16.7878 22.9282C16.8106 22.9176 16.8358 22.913 16.8609 22.9149C16.886 22.9168 16.9102 22.925 16.9312 22.9389L18.4111 23.8181C18.4387 23.8326 18.4694 23.8403 18.5006 23.8403C18.5318 23.8403 18.5625 23.8326 18.59 23.8181L24.3613 20.4869C24.3883 20.4708 24.4106 20.4478 24.4261 20.4204C24.4416 20.393 24.4497 20.362 24.4496 20.3306V13.6672C24.4496 13.6352 24.4414 13.6038 24.4257 13.5759C24.41 13.548 24.3875 13.5246 24.3601 13.508L18.5889 10.1797C18.5617 10.1644 18.531 10.1563 18.4997 10.1563C18.4685 10.1563 18.4378 10.1644 18.4106 10.1797L12.6427 13.5091C12.6152 13.5254 12.5923 13.5485 12.5764 13.5762C12.5604 13.6039 12.5519 13.6352 12.5516 13.6672V20.3277C12.5517 20.3592 12.5601 20.39 12.576 20.4171C12.5919 20.4441 12.6147 20.4665 12.6421 20.4819L14.225 21.3954C15.0828 21.824 15.6082 21.3189 15.6082 20.8115V14.2353C15.6082 14.1906 15.626 14.1476 15.6576 14.116C15.6893 14.0843 15.7322 14.0666 15.777 14.0666H16.5082C16.553 14.0666 16.5959 14.0843 16.6275 14.116C16.6592 14.1476 16.6769 14.1906 16.6769 14.2353V20.8121C16.6769 21.9567 16.0537 22.6121 14.9681 22.6121C14.4997 22.6202 14.0387 22.495 13.6389 22.2509L12.1218 21.3807C11.9377 21.2735 11.7848 21.1198 11.6786 20.935C11.5724 20.7503 11.5166 20.5409 11.5166 20.3277V13.6672C11.516 13.4537 11.5717 13.2439 11.6779 13.0588C11.7842 12.8736 11.9373 12.7197 12.1218 12.6125L17.8936 9.28024C18.0796 9.17853 18.2881 9.12521 18.5 9.12521C18.7119 9.12521 18.9205 9.17853 19.1064 9.28024L24.8776 12.6125C25.0618 12.7195 25.2146 12.873 25.3209 13.0576C25.4272 13.2421 25.4833 13.4514 25.4834 13.6644V20.3277C25.4831 20.5409 25.4271 20.7502 25.3208 20.9349C25.2145 21.1197 25.0617 21.2734 24.8776 21.3807L19.1064 24.713C18.922 24.8194 18.7129 24.8752 18.5 24.875Z" fill="#83CD29"/>
<path d="M17.4054 18.0986C17.4054 18.0538 17.4231 18.0109 17.4548 17.9792C17.4864 17.9476 17.5294 17.9298 17.5741 17.9298H18.3206C18.3604 17.9299 18.399 17.9442 18.4294 17.97C18.4597 17.9959 18.48 18.0317 18.4865 18.071C18.599 18.8309 18.9365 19.214 20.4626 19.214C21.6781 19.214 22.1962 18.9389 22.1962 18.2938C22.1962 17.9219 22.0494 17.6458 20.1599 17.4607C18.5804 17.3043 17.6039 16.9544 17.6039 15.6922C17.6039 14.5278 18.5855 13.8331 20.2308 13.8331C22.0797 13.8331 22.9949 14.4749 23.1108 15.8519C23.1126 15.8749 23.1096 15.898 23.1021 15.9198C23.0946 15.9416 23.0827 15.9617 23.0672 15.9787C23.0516 15.9957 23.0327 16.0094 23.0117 16.0188C22.9907 16.0283 22.9679 16.0333 22.9449 16.0336H22.1934C22.1557 16.0331 22.1192 16.02 22.0899 15.9963C22.0605 15.9727 22.0399 15.9399 22.0314 15.9031C21.8519 15.1038 21.4126 14.8484 20.2314 14.8484C18.9039 14.8484 18.7497 15.3108 18.7497 15.6573C18.7497 16.0769 18.932 16.1996 20.7241 16.4364C22.4977 16.6709 23.3403 17.0028 23.3403 18.2493C23.3403 19.5071 22.2918 20.2271 20.4631 20.2271C17.9347 20.2304 17.4054 19.0711 17.4054 18.0986Z" fill="#83CD29"/>
<path d="M43.0469 21H41.916L37.6211 14.4258V21H36.4902V12.4688H37.6211L41.9277 19.0723V12.4688H43.0469V21ZM44.5879 17.7715C44.5879 17.1504 44.709 16.5918 44.9512 16.0957C45.1973 15.5996 45.5371 15.2168 45.9707 14.9473C46.4082 14.6777 46.9062 14.543 47.4648 14.543C48.3281 14.543 49.0254 14.8418 49.5566 15.4395C50.0918 16.0371 50.3594 16.832 50.3594 17.8242V17.9004C50.3594 18.5176 50.2402 19.0723 50.002 19.5645C49.7676 20.0527 49.4297 20.4336 48.9883 20.707C48.5508 20.9805 48.0469 21.1172 47.4766 21.1172C46.6172 21.1172 45.9199 20.8184 45.3848 20.2207C44.8535 19.623 44.5879 18.832 44.5879 17.8477V17.7715ZM45.6777 17.9004C45.6777 18.6035 45.8398 19.168 46.1641 19.5938C46.4922 20.0195 46.9297 20.2324 47.4766 20.2324C48.0273 20.2324 48.4648 20.0176 48.7891 19.5879C49.1133 19.1543 49.2754 18.5488 49.2754 17.7715C49.2754 17.0762 49.1094 16.5137 48.7773 16.084C48.4492 15.6504 48.0117 15.4336 47.4648 15.4336C46.9297 15.4336 46.498 15.6465 46.1699 16.0723C45.8418 16.498 45.6777 17.1074 45.6777 17.9004ZM51.4551 17.7773C51.4551 16.8047 51.6855 16.0234 52.1465 15.4336C52.6074 14.8398 53.2109 14.543 53.957 14.543C54.6992 14.543 55.2871 14.7969 55.7207 15.3047V12H56.8047V21H55.8086L55.7559 20.3203C55.3223 20.8516 54.7188 21.1172 53.9453 21.1172C53.2109 21.1172 52.6113 20.8164 52.1465 20.2148C51.6855 19.6133 51.4551 18.8281 51.4551 17.8594V17.7773ZM52.5391 17.9004C52.5391 18.6191 52.6875 19.1816 52.9844 19.5879C53.2812 19.9941 53.6914 20.1973 54.2148 20.1973C54.9023 20.1973 55.4043 19.8887 55.7207 19.2715V16.3594C55.3965 15.7617 54.8984 15.4629 54.2266 15.4629C53.6953 15.4629 53.2812 15.668 52.9844 16.0781C52.6875 16.4883 52.5391 17.0957 52.5391 17.9004ZM61.123 21.1172C60.2637 21.1172 59.5645 20.8359 59.0254 20.2734C58.4863 19.707 58.2168 18.9512 58.2168 18.0059V17.8066C58.2168 17.1777 58.3359 16.6172 58.5742 16.125C58.8164 15.6289 59.1523 15.2422 59.582 14.9648C60.0156 14.6836 60.4844 14.543 60.9883 14.543C61.8125 14.543 62.4531 14.8145 62.9102 15.3574C63.3672 15.9004 63.5957 16.6777 63.5957 17.6895V18.1406H59.3008C59.3164 18.7656 59.498 19.2715 59.8457 19.6582C60.1973 20.041 60.6426 20.2324 61.1816 20.2324C61.5645 20.2324 61.8887 20.1543 62.1543 19.998C62.4199 19.8418 62.6523 19.6348 62.8516 19.377L63.5137 19.8926C62.9824 20.709 62.1855 21.1172 61.123 21.1172ZM60.9883 15.4336C60.5508 15.4336 60.1836 15.5938 59.8867 15.9141C59.5898 16.2305 59.4062 16.6758 59.3359 17.25H62.5117V17.168C62.4805 16.6172 62.332 16.1914 62.0664 15.8906C61.8008 15.5859 61.4414 15.4336 60.9883 15.4336Z" fill="#22272E"/>
<path d="M4.5 2H69.5V0H4.5V2ZM71.5 4V30H73.5V4H71.5ZM69.5 32H4.5V34H69.5V32ZM2.5 30V4H0.5V30H2.5ZM4.5 32C3.39543 32 2.5 31.1046 2.5 30H0.5C0.5 32.2091 2.29086 34 4.5 34V32ZM71.5 30C71.5 31.1046 70.6046 32 69.5 32V34C71.7091 34 73.5 32.2091 73.5 30H71.5ZM69.5 2C70.6046 2 71.5 2.89543 71.5 4H73.5C73.5 1.79086 71.7091 0 69.5 0V2ZM4.5 0C2.29086 0 0.5 1.79086 0.5 4H2.5C2.5 2.89543 3.39543 2 4.5 2V0Z" fill="#30363D"/>
</svg>
