<svg width="67" height="28" viewBox="0 0 67 28" fill="none" xmlns="http://www.w3.org/2000/svg">
<g filter="url(#filter0_d)">
<path d="M2.5 5C2.5 2.23858 4.73858 0 7.5 0H59.5C62.2614 0 64.5 2.23858 64.5 5V19C64.5 21.7614 62.2614 24 59.5 24H7.5C4.73858 24 2.5 21.7614 2.5 19V5Z" fill="white"/>
<path d="M16.5 19.875C16.2875 19.8751 16.0788 19.8192 15.8948 19.713L13.9688 18.5728C13.6813 18.4119 13.8214 18.3551 13.9164 18.3219C14.2222 18.2275 14.5149 18.0952 14.7878 17.9282C14.8106 17.9176 14.8358 17.913 14.8609 17.9149C14.886 17.9168 14.9102 17.925 14.9312 17.9389L16.4111 18.8181C16.4387 18.8326 16.4694 18.8403 16.5006 18.8403C16.5318 18.8403 16.5625 18.8326 16.59 18.8181L22.3613 15.4869C22.3883 15.4708 22.4106 15.4478 22.4261 15.4204C22.4416 15.393 22.4497 15.362 22.4496 15.3306V8.66718C22.4496 8.6352 22.4414 8.60375 22.4257 8.57587C22.41 8.54799 22.3875 8.52461 22.3601 8.50799L16.5889 5.17968C16.5617 5.16436 16.531 5.1563 16.4997 5.1563C16.4685 5.1563 16.4378 5.16436 16.4106 5.17968L10.6427 8.50912C10.6152 8.52539 10.5923 8.54849 10.5764 8.57618C10.5604 8.60387 10.5519 8.63522 10.5516 8.66718V15.3277C10.5517 15.3592 10.5601 15.39 10.576 15.4171C10.5919 15.4441 10.6147 15.4665 10.6421 15.4819L12.225 16.3954C13.0828 16.824 13.6082 16.3189 13.6082 15.8115V9.23531C13.6082 9.19055 13.626 9.14763 13.6576 9.11598C13.6893 9.08434 13.7322 9.06656 13.777 9.06656H14.5082C14.553 9.06656 14.5959 9.08434 14.6275 9.11598C14.6592 9.14763 14.6769 9.19055 14.6769 9.23531V15.8121C14.6769 16.9567 14.0537 17.6121 12.9681 17.6121C12.4997 17.6202 12.0387 17.495 11.6389 17.2509L10.1218 16.3807C9.93766 16.2735 9.78484 16.1198 9.67864 15.935C9.57243 15.7503 9.51655 15.5409 9.51658 15.3277V8.66718C9.51603 8.45373 9.57167 8.24389 9.67791 8.05876C9.78416 7.87362 9.93725 7.71971 10.1218 7.61249L15.8936 4.28024C16.0796 4.17853 16.2881 4.12521 16.5 4.12521C16.7119 4.12521 16.9205 4.17853 17.1064 4.28024L22.8776 7.61249C23.0618 7.71953 23.2146 7.873 23.3209 8.05757C23.4272 8.24215 23.4833 8.45137 23.4835 8.66437V15.3277C23.4831 15.5409 23.4271 15.7502 23.3208 15.9349C23.2145 16.1197 23.0617 16.2734 22.8776 16.3807L17.1064 19.713C16.922 19.8194 16.7129 19.8752 16.5 19.875V19.875Z" fill="#83CD29"/>
<path d="M15.4054 13.0986C15.4054 13.0538 15.4231 13.0109 15.4548 12.9792C15.4864 12.9476 15.5294 12.9298 15.5741 12.9298H16.3206C16.3604 12.9299 16.399 12.9442 16.4294 12.97C16.4597 12.9959 16.48 13.0317 16.4865 13.071C16.599 13.8309 16.9365 14.214 18.4626 14.214C19.6781 14.214 20.1962 13.9389 20.1962 13.2938C20.1962 12.9219 20.0494 12.6458 18.1599 12.4607C16.5804 12.3043 15.6039 11.9544 15.6039 10.6922C15.6039 9.52782 16.5855 8.83313 18.2308 8.83313C20.0797 8.83313 20.9949 9.47494 21.1108 10.8519C21.1126 10.8749 21.1096 10.898 21.1021 10.9198C21.0946 10.9416 21.0827 10.9617 21.0672 10.9787C21.0516 10.9957 21.0327 11.0094 21.0117 11.0188C20.9907 11.0283 20.9679 11.0333 20.9449 11.0336H20.1934C20.1557 11.0331 20.1192 11.02 20.0899 10.9963C20.0605 10.9727 20.0399 10.9399 20.0314 10.9031C19.8519 10.1038 19.4126 9.84844 18.2314 9.84844C16.9039 9.84844 16.7497 10.3108 16.7497 10.6573C16.7497 11.0769 16.932 11.1996 18.7241 11.4364C20.4977 11.6709 21.3403 12.0028 21.3403 13.2493C21.3403 14.5071 20.2918 15.2271 18.4631 15.2271C15.9347 15.2304 15.4054 14.0711 15.4054 13.0986V13.0986Z" fill="#83CD29"/>
<path d="M38.0469 16H36.916L32.6211 9.42578V16H31.4902V7.46875H32.6211L36.9277 14.0723V7.46875H38.0469V16ZM39.5879 12.7715C39.5879 12.1504 39.709 11.5918 39.9512 11.0957C40.1973 10.5996 40.5371 10.2168 40.9707 9.94727C41.4082 9.67773 41.9062 9.54297 42.4648 9.54297C43.3281 9.54297 44.0254 9.8418 44.5566 10.4395C45.0918 11.0371 45.3594 11.832 45.3594 12.8242V12.9004C45.3594 13.5176 45.2402 14.0723 45.002 14.5645C44.7676 15.0527 44.4297 15.4336 43.9883 15.707C43.5508 15.9805 43.0469 16.1172 42.4766 16.1172C41.6172 16.1172 40.9199 15.8184 40.3848 15.2207C39.8535 14.623 39.5879 13.832 39.5879 12.8477V12.7715ZM40.6777 12.9004C40.6777 13.6035 40.8398 14.168 41.1641 14.5938C41.4922 15.0195 41.9297 15.2324 42.4766 15.2324C43.0273 15.2324 43.4648 15.0176 43.7891 14.5879C44.1133 14.1543 44.2754 13.5488 44.2754 12.7715C44.2754 12.0762 44.1094 11.5137 43.7773 11.084C43.4492 10.6504 43.0117 10.4336 42.4648 10.4336C41.9297 10.4336 41.498 10.6465 41.1699 11.0723C40.8418 11.498 40.6777 12.1074 40.6777 12.9004ZM46.4551 12.7773C46.4551 11.8047 46.6855 11.0234 47.1465 10.4336C47.6074 9.83984 48.2109 9.54297 48.957 9.54297C49.6992 9.54297 50.2871 9.79688 50.7207 10.3047V7H51.8047V16H50.8086L50.7559 15.3203C50.3223 15.8516 49.7188 16.1172 48.9453 16.1172C48.2109 16.1172 47.6113 15.8164 47.1465 15.2148C46.6855 14.6133 46.4551 13.8281 46.4551 12.8594V12.7773ZM47.5391 12.9004C47.5391 13.6191 47.6875 14.1816 47.9844 14.5879C48.2812 14.9941 48.6914 15.1973 49.2148 15.1973C49.9023 15.1973 50.4043 14.8887 50.7207 14.2715V11.3594C50.3965 10.7617 49.8984 10.4629 49.2266 10.4629C48.6953 10.4629 48.2812 10.668 47.9844 11.0781C47.6875 11.4883 47.5391 12.0957 47.5391 12.9004ZM56.123 16.1172C55.2637 16.1172 54.5645 15.8359 54.0254 15.2734C53.4863 14.707 53.2168 13.9512 53.2168 13.0059V12.8066C53.2168 12.1777 53.3359 11.6172 53.5742 11.125C53.8164 10.6289 54.1523 10.2422 54.582 9.96484C55.0156 9.68359 55.4844 9.54297 55.9883 9.54297C56.8125 9.54297 57.4531 9.81445 57.9102 10.3574C58.3672 10.9004 58.5957 11.6777 58.5957 12.6895V13.1406H54.3008C54.3164 13.7656 54.498 14.2715 54.8457 14.6582C55.1973 15.041 55.6426 15.2324 56.1816 15.2324C56.5645 15.2324 56.8887 15.1543 57.1543 14.998C57.4199 14.8418 57.6523 14.6348 57.8516 14.377L58.5137 14.8926C57.9824 15.709 57.1855 16.1172 56.123 16.1172ZM55.9883 10.4336C55.5508 10.4336 55.1836 10.5938 54.8867 10.9141C54.5898 11.2305 54.4062 11.6758 54.3359 12.25H57.5117V12.168C57.4805 11.6172 57.332 11.1914 57.0664 10.8906C56.8008 10.5859 56.4414 10.4336 55.9883 10.4336Z" fill="black"/>
</g>
<defs>
<filter id="filter0_d" x="0.5" y="0" width="66" height="28" filterUnits="userSpaceOnUse" color-interpolation-filters="sRGB">
<feFlood flood-opacity="0" result="BackgroundImageFix"/>
<feColorMatrix in="SourceAlpha" type="matrix" values="0 0 0 0 0 0 0 0 0 0 0 0 0 0 0 0 0 0 127 0" result="hardAlpha"/>
<feOffset dy="2"/>
<feGaussianBlur stdDeviation="1"/>
<feComposite in2="hardAlpha" operator="out"/>
<feColorMatrix type="matrix" values="0 0 0 0 0 0 0 0 0 0 0 0 0 0 0 0 0 0 0.25 0"/>
<feBlend mode="normal" in2="BackgroundImageFix" result="effect1_dropShadow"/>
<feBlend mode="normal" in="SourceGraphic" in2="effect1_dropShadow" result="shape"/>
</filter>
</defs>
</svg>
