<svg width="76" height="36" viewBox="0 0 76 36" fill="none" xmlns="http://www.w3.org/2000/svg">
<g filter="url(#filter0_d)">
<path d="M2.5 3C2.5 1.34315 3.84315 0 5.5 0H70.5C72.1569 0 73.5 1.34315 73.5 3V29C73.5 30.6569 72.1569 32 70.5 32H5.5C3.84314 32 2.5 30.6569 2.5 29V3Z" fill="#C9D1D9"/>
<path d="M19.5 23.875C19.2875 23.8751 19.0788 23.8192 18.8948 23.713L16.9688 22.5728C16.6813 22.4119 16.8214 22.3551 16.9164 22.3219C17.2222 22.2275 17.5149 22.0952 17.7878 21.9282C17.8106 21.9176 17.8358 21.913 17.8609 21.9149C17.886 21.9168 17.9102 21.925 17.9312 21.9389L19.4111 22.8181C19.4387 22.8326 19.4694 22.8403 19.5006 22.8403C19.5318 22.8403 19.5625 22.8326 19.59 22.8181L25.3613 19.4869C25.3883 19.4708 25.4106 19.4478 25.4261 19.4204C25.4416 19.393 25.4497 19.362 25.4496 19.3306V12.6672C25.4496 12.6352 25.4414 12.6038 25.4257 12.5759C25.41 12.548 25.3875 12.5246 25.3601 12.508L19.5889 9.17968C19.5617 9.16436 19.531 9.1563 19.4997 9.1563C19.4685 9.1563 19.4378 9.16436 19.4106 9.17968L13.6427 12.5091C13.6152 12.5254 13.5923 12.5485 13.5764 12.5762C13.5604 12.6039 13.5519 12.6352 13.5516 12.6672V19.3277C13.5517 19.3592 13.5601 19.39 13.576 19.4171C13.5919 19.4441 13.6147 19.4665 13.6421 19.4819L15.225 20.3954C16.0828 20.824 16.6082 20.3189 16.6082 19.8115V13.2353C16.6082 13.1906 16.626 13.1476 16.6576 13.116C16.6893 13.0843 16.7322 13.0666 16.777 13.0666H17.5082C17.553 13.0666 17.5959 13.0843 17.6275 13.116C17.6592 13.1476 17.6769 13.1906 17.6769 13.2353V19.8121C17.6769 20.9567 17.0537 21.6121 15.9681 21.6121C15.4997 21.6202 15.0387 21.495 14.6389 21.2509L13.1218 20.3807C12.9377 20.2735 12.7848 20.1198 12.6786 19.935C12.5724 19.7503 12.5166 19.5409 12.5166 19.3277V12.6672C12.516 12.4537 12.5717 12.2439 12.6779 12.0588C12.7842 11.8736 12.9373 11.7197 13.1218 11.6125L18.8936 8.28024C19.0796 8.17853 19.2881 8.12521 19.5 8.12521C19.7119 8.12521 19.9205 8.17853 20.1064 8.28024L25.8776 11.6125C26.0618 11.7195 26.2146 11.873 26.3209 12.0576C26.4272 12.2421 26.4833 12.4514 26.4835 12.6644V19.3277C26.4831 19.5409 26.4271 19.7502 26.3208 19.9349C26.2145 20.1197 26.0617 20.2734 25.8776 20.3807L20.1064 23.713C19.922 23.8194 19.7129 23.8752 19.5 23.875V23.875Z" fill="#83CD29"/>
<path d="M18.4054 17.0986C18.4054 17.0538 18.4231 17.0109 18.4548 16.9792C18.4864 16.9476 18.5294 16.9298 18.5741 16.9298H19.3206C19.3604 16.9299 19.399 16.9442 19.4294 16.97C19.4597 16.9959 19.48 17.0317 19.4865 17.071C19.599 17.8309 19.9365 18.214 21.4626 18.214C22.6781 18.214 23.1962 17.9389 23.1962 17.2938C23.1962 16.9219 23.0494 16.6458 21.1599 16.4607C19.5804 16.3043 18.6039 15.9544 18.6039 14.6922C18.6039 13.5278 19.5855 12.8331 21.2308 12.8331C23.0797 12.8331 23.9949 13.4749 24.1108 14.8519C24.1126 14.8749 24.1096 14.898 24.1021 14.9198C24.0946 14.9416 24.0827 14.9617 24.0672 14.9787C24.0516 14.9957 24.0327 15.0094 24.0117 15.0188C23.9907 15.0283 23.9679 15.0333 23.9449 15.0336H23.1934C23.1557 15.0331 23.1192 15.02 23.0899 14.9963C23.0605 14.9727 23.0399 14.9399 23.0314 14.9031C22.8519 14.1038 22.4126 13.8484 21.2314 13.8484C19.9039 13.8484 19.7497 14.3108 19.7497 14.6573C19.7497 15.0769 19.932 15.1996 21.7241 15.4364C23.4977 15.6709 24.3403 16.0028 24.3403 17.2493C24.3403 18.5071 23.2918 19.2271 21.4631 19.2271C18.9347 19.2304 18.4054 18.0711 18.4054 17.0986V17.0986Z" fill="#83CD29"/>
<path d="M44.0469 20H42.916L38.6211 13.4258V20H37.4902V11.4688H38.6211L42.9277 18.0723V11.4688H44.0469V20ZM45.5879 16.7715C45.5879 16.1504 45.709 15.5918 45.9512 15.0957C46.1973 14.5996 46.5371 14.2168 46.9707 13.9473C47.4082 13.6777 47.9062 13.543 48.4648 13.543C49.3281 13.543 50.0254 13.8418 50.5566 14.4395C51.0918 15.0371 51.3594 15.832 51.3594 16.8242V16.9004C51.3594 17.5176 51.2402 18.0723 51.002 18.5645C50.7676 19.0527 50.4297 19.4336 49.9883 19.707C49.5508 19.9805 49.0469 20.1172 48.4766 20.1172C47.6172 20.1172 46.9199 19.8184 46.3848 19.2207C45.8535 18.623 45.5879 17.832 45.5879 16.8477V16.7715ZM46.6777 16.9004C46.6777 17.6035 46.8398 18.168 47.1641 18.5938C47.4922 19.0195 47.9297 19.2324 48.4766 19.2324C49.0273 19.2324 49.4648 19.0176 49.7891 18.5879C50.1133 18.1543 50.2754 17.5488 50.2754 16.7715C50.2754 16.0762 50.1094 15.5137 49.7773 15.084C49.4492 14.6504 49.0117 14.4336 48.4648 14.4336C47.9297 14.4336 47.498 14.6465 47.1699 15.0723C46.8418 15.498 46.6777 16.1074 46.6777 16.9004ZM52.4551 16.7773C52.4551 15.8047 52.6855 15.0234 53.1465 14.4336C53.6074 13.8398 54.2109 13.543 54.957 13.543C55.6992 13.543 56.2871 13.7969 56.7207 14.3047V11H57.8047V20H56.8086L56.7559 19.3203C56.3223 19.8516 55.7188 20.1172 54.9453 20.1172C54.2109 20.1172 53.6113 19.8164 53.1465 19.2148C52.6855 18.6133 52.4551 17.8281 52.4551 16.8594V16.7773ZM53.5391 16.9004C53.5391 17.6191 53.6875 18.1816 53.9844 18.5879C54.2812 18.9941 54.6914 19.1973 55.2148 19.1973C55.9023 19.1973 56.4043 18.8887 56.7207 18.2715V15.3594C56.3965 14.7617 55.8984 14.4629 55.2266 14.4629C54.6953 14.4629 54.2812 14.668 53.9844 15.0781C53.6875 15.4883 53.5391 16.0957 53.5391 16.9004ZM62.123 20.1172C61.2637 20.1172 60.5645 19.8359 60.0254 19.2734C59.4863 18.707 59.2168 17.9512 59.2168 17.0059V16.8066C59.2168 16.1777 59.3359 15.6172 59.5742 15.125C59.8164 14.6289 60.1523 14.2422 60.582 13.9648C61.0156 13.6836 61.4844 13.543 61.9883 13.543C62.8125 13.543 63.4531 13.8145 63.9102 14.3574C64.3672 14.9004 64.5957 15.6777 64.5957 16.6895V17.1406H60.3008C60.3164 17.7656 60.498 18.2715 60.8457 18.6582C61.1973 19.041 61.6426 19.2324 62.1816 19.2324C62.5645 19.2324 62.8887 19.1543 63.1543 18.998C63.4199 18.8418 63.6523 18.6348 63.8516 18.377L64.5137 18.8926C63.9824 19.709 63.1855 20.1172 62.123 20.1172ZM61.9883 14.4336C61.5508 14.4336 61.1836 14.5938 60.8867 14.9141C60.5898 15.2305 60.4062 15.6758 60.3359 16.25H63.5117V16.168C63.4805 15.6172 63.332 15.1914 63.0664 14.8906C62.8008 14.5859 62.4414 14.4336 61.9883 14.4336Z" fill="#22272E"/>
</g>
<defs>
<filter id="filter0_d" x="0.5" y="0" width="75" height="36" filterUnits="userSpaceOnUse" color-interpolation-filters="sRGB">
<feFlood flood-opacity="0" result="BackgroundImageFix"/>
<feColorMatrix in="SourceAlpha" type="matrix" values="0 0 0 0 0 0 0 0 0 0 0 0 0 0 0 0 0 0 127 0" result="hardAlpha"/>
<feOffset dy="2"/>
<feGaussianBlur stdDeviation="1"/>
<feComposite in2="hardAlpha" operator="out"/>
<feColorMatrix type="matrix" values="0 0 0 0 0 0 0 0 0 0 0 0 0 0 0 0 0 0 0.25 0"/>
<feBlend mode="normal" in2="BackgroundImageFix" result="effect1_dropShadow"/>
<feBlend mode="normal" in="SourceGraphic" in2="effect1_dropShadow" result="shape"/>
</filter>
</defs>
</svg>
