<svg width="19" height="18" viewBox="0 0 19 18" fill="none" xmlns="http://www.w3.org/2000/svg">
<path d="M9.99548 16.875C9.783 16.8751 9.57425 16.8192 9.39023 16.713L7.46423 15.5728C7.17679 15.4119 7.31685 15.3551 7.41191 15.3219C7.71762 15.2275 8.01032 15.0952 8.28323 14.9282C8.30607 14.9176 8.33123 14.913 8.35633 14.9149C8.38143 14.9168 8.40564 14.925 8.42666 14.9389L9.9066 15.8181C9.93416 15.8326 9.96486 15.8403 9.99604 15.8403C10.0272 15.8403 10.0579 15.8326 10.0855 15.8181L15.8567 12.4869C15.8837 12.4708 15.9061 12.4478 15.9216 12.4204C15.937 12.393 15.9451 12.362 15.945 12.3306V5.66718C15.9451 5.6352 15.9368 5.60375 15.9212 5.57587C15.9055 5.54799 15.8829 5.52461 15.8556 5.50799L10.0844 2.17968C10.0571 2.16436 10.0264 2.1563 9.9952 2.1563C9.96396 2.1563 9.93325 2.16436 9.90604 2.17968L4.13816 5.50912C4.11065 5.52539 4.08781 5.54849 4.07184 5.57618C4.05588 5.60387 4.04733 5.63522 4.04704 5.66718V12.3277C4.04712 12.3592 4.05555 12.39 4.07146 12.4171C4.08737 12.4441 4.1102 12.4665 4.1376 12.4819L5.72048 13.3954C6.57829 13.824 7.10366 13.3189 7.10366 12.8115V6.23531C7.10366 6.19055 7.12144 6.14763 7.15309 6.11598C7.18474 6.08434 7.22766 6.06656 7.27241 6.06656H8.00366C8.04842 6.06656 8.09134 6.08434 8.12299 6.11598C8.15463 6.14763 8.17241 6.19055 8.17241 6.23531V12.8121C8.17241 13.9567 7.54916 14.6121 6.46354 14.6121C5.99519 14.6202 5.53418 14.495 5.13435 14.2509L3.61729 13.3807C3.43312 13.2735 3.28031 13.1198 3.1741 12.935C3.06789 12.7503 3.01201 12.5409 3.01204 12.3277V5.66718C3.01149 5.45373 3.06714 5.24389 3.17338 5.05876C3.27962 4.87362 3.43272 4.71971 3.61729 4.61249L9.3891 1.28024C9.57502 1.17853 9.78355 1.12521 9.99548 1.12521C10.2074 1.12521 10.4159 1.17853 10.6019 1.28024L16.3731 4.61249C16.5572 4.71953 16.7101 4.873 16.8164 5.05757C16.9227 5.24215 16.9787 5.45137 16.9789 5.66437V12.3277C16.9786 12.5409 16.9225 12.7502 16.8162 12.9349C16.71 13.1197 16.5572 13.2734 16.3731 13.3807L10.6019 16.713C10.4175 16.8194 10.2083 16.8752 9.99548 16.875Z" fill="#83CD29"/>
<path d="M8.90085 10.0986C8.90085 10.0538 8.91863 10.0109 8.95028 9.97924C8.98192 9.9476 9.02485 9.92982 9.0696 9.92982H9.81604C9.85592 9.92995 9.89447 9.9442 9.92485 9.97004C9.95522 9.99589 9.97546 10.0317 9.98198 10.071C10.0945 10.8309 10.432 11.214 11.958 11.214C13.1736 11.214 13.6917 10.9389 13.6917 10.2938C13.6917 9.92194 13.5449 9.64576 11.6554 9.46069C10.0759 9.30432 9.09941 8.95444 9.09941 7.69219C9.09941 6.52782 10.081 5.83313 11.7263 5.83313C13.5752 5.83313 14.4904 6.47494 14.6063 7.85194C14.6081 7.87493 14.6051 7.89804 14.5976 7.91984C14.5901 7.94164 14.5782 7.96167 14.5626 7.9787C14.5471 7.99572 14.5282 8.00938 14.5072 8.01883C14.4862 8.02828 14.4634 8.03331 14.4404 8.03363H13.6889C13.6512 8.0331 13.6147 8.01996 13.5854 7.99631C13.556 7.97266 13.5354 7.93985 13.5269 7.90313C13.3474 7.10382 12.9081 6.84844 11.7269 6.84844C10.3994 6.84844 10.2452 7.31082 10.2452 7.65732C10.2452 8.07694 10.4275 8.19957 12.2196 8.43638C13.9932 8.67094 14.8358 9.00282 14.8358 10.2493C14.8358 11.5071 13.7873 12.2271 11.9586 12.2271C9.43016 12.2304 8.90085 11.0711 8.90085 10.0986Z" fill="#83CD29"/>
</svg>
