<svg width="87" height="39" viewBox="0 0 87 39" fill="none" xmlns="http://www.w3.org/2000/svg">
<path d="M1 4C1 2.34315 2.34315 1 4 1H83C84.6569 1 86 2.34315 86 4V35C86 36.6569 84.6569 38 83 38H4C2.34315 38 1 36.6569 1 35V4Z" fill="#22272E"/>
<g clip-path="url(#clip0)">
<path d="M20 28.467C19.7435 28.467 19.505 28.4003 19.2823 28.2848L17.0105 26.9813C16.6692 26.7998 16.8402 26.7338 16.943 26.7008C17.4035 26.5523 17.489 26.5193 17.9675 26.2545C18.0185 26.2215 18.0875 26.238 18.1385 26.271L19.8807 27.2783C19.9482 27.3113 20.0345 27.3113 20.0855 27.2783L26.9008 23.4653C26.9683 23.4323 27.0027 23.3663 27.0027 23.2838V15.6743C27.0027 15.5918 26.969 15.5258 26.9008 15.4928L20.0855 11.697C20.0173 11.664 19.9317 11.664 19.8807 11.697L13.0655 15.4928C12.9972 15.5258 12.9628 15.6083 12.9628 15.6743V23.2838C12.9628 23.3498 12.9972 23.4323 13.0655 23.4653L14.927 24.5055C15.935 25.0005 16.5665 24.423 16.5665 23.8455V16.335C16.5665 16.236 16.652 16.137 16.772 16.137H17.6428C17.7455 16.137 17.8475 16.2195 17.8475 16.335V23.8448C17.8475 25.149 17.1132 25.908 15.8322 25.908C15.4392 25.908 15.1318 25.908 14.261 25.4955L12.4678 24.5055C12.2517 24.3867 12.0712 24.2123 11.945 24.0005C11.8189 23.7886 11.7515 23.5469 11.75 23.3003V15.6908C11.75 15.1958 12.023 14.7338 12.4678 14.4863L19.283 10.6725C19.5049 10.5587 19.7506 10.4994 20 10.4994C20.2494 10.4994 20.4951 10.5587 20.717 10.6725L27.533 14.4855C27.977 14.733 28.25 15.195 28.25 15.69V23.2995C28.25 23.7945 27.977 24.2565 27.533 24.5048L20.717 28.317C20.4907 28.4151 20.2467 28.4657 20 28.4655V28.467ZM22.1007 23.2343C19.112 23.2343 18.497 21.9143 18.497 20.7915C18.497 20.6925 18.5825 20.5935 18.7018 20.5935H19.5898C19.6925 20.5935 19.7773 20.6595 19.7773 20.7585C19.9145 21.633 20.3075 22.062 22.118 22.062C23.5528 22.062 24.1677 21.7485 24.1677 21.006C24.1677 20.577 23.9967 20.2635 21.7595 20.049C19.8972 19.8668 18.7362 19.4715 18.7362 18.0353C18.7362 16.698 19.8973 15.9053 21.845 15.9053C24.0312 15.9053 25.1075 16.632 25.244 18.2168C25.2425 18.2704 25.2244 18.3223 25.1923 18.3653C25.1585 18.3983 25.1075 18.4313 25.0557 18.4313H24.1677C24.1246 18.4302 24.083 18.4152 24.0492 18.3884C24.0153 18.3616 23.9911 18.3245 23.9802 18.2828C23.7747 17.3753 23.2453 17.0775 21.845 17.0775C20.273 17.0775 20.0855 17.6055 20.0855 18.0015C20.0855 18.4808 20.3075 18.6293 22.4255 18.8933C24.5263 19.1573 25.517 19.5368 25.517 20.9558C25.4998 22.4093 24.2705 23.2343 22.1007 23.2343V23.2343Z" fill="#C9D1D9"/>
</g>
<path d="M50.1875 25H48.7793L43.7344 17.1865C43.6068 16.9906 43.502 16.7855 43.4199 16.5713H43.3789C43.4154 16.7809 43.4336 17.2298 43.4336 17.918V25H42.2852V15.1973H43.7754L48.6836 22.8877C48.8887 23.2067 49.0208 23.4255 49.0801 23.5439H49.1074C49.0618 23.2614 49.0391 22.7806 49.0391 22.1016V15.1973H50.1875V25ZM55.5332 25.1641C54.4987 25.1641 53.6715 24.8382 53.0518 24.1865C52.4365 23.5303 52.1289 22.6621 52.1289 21.582C52.1289 20.4062 52.4502 19.488 53.0928 18.8271C53.7354 18.1663 54.6035 17.8359 55.6973 17.8359C56.7409 17.8359 57.5544 18.1572 58.1377 18.7998C58.7256 19.4424 59.0195 20.3333 59.0195 21.4727C59.0195 22.5892 58.7028 23.4847 58.0693 24.1592C57.4404 24.8291 56.5951 25.1641 55.5332 25.1641ZM55.6152 18.7793C54.8952 18.7793 54.3255 19.0254 53.9062 19.5176C53.487 20.0052 53.2773 20.6797 53.2773 21.541C53.2773 22.3704 53.4893 23.0244 53.9131 23.5029C54.3369 23.9814 54.9043 24.2207 55.6152 24.2207C56.3398 24.2207 56.8958 23.986 57.2832 23.5166C57.6751 23.0472 57.8711 22.3796 57.8711 21.5137C57.8711 20.6387 57.6751 19.9642 57.2832 19.4902C56.8958 19.0163 56.3398 18.7793 55.6152 18.7793ZM66.7852 25H65.6641V23.8105H65.6367C65.1172 24.7129 64.3151 25.1641 63.2305 25.1641C62.3509 25.1641 61.6468 24.8519 61.1182 24.2275C60.5941 23.5986 60.332 22.7441 60.332 21.6641C60.332 20.5065 60.6237 19.5791 61.207 18.8818C61.7904 18.1846 62.5674 17.8359 63.5381 17.8359C64.4997 17.8359 65.1992 18.2142 65.6367 18.9707H65.6641V14.6367H66.7852V25ZM65.6641 21.835V20.8027C65.6641 20.2376 65.4772 19.7591 65.1035 19.3672C64.7298 18.9753 64.2559 18.7793 63.6816 18.7793C62.998 18.7793 62.4603 19.0299 62.0684 19.5312C61.6764 20.0326 61.4805 20.7253 61.4805 21.6094C61.4805 22.416 61.6673 23.054 62.041 23.5234C62.4193 23.9883 62.9251 24.2207 63.5586 24.2207C64.1829 24.2207 64.6888 23.9951 65.0762 23.5439C65.4681 23.0928 65.6641 22.5231 65.6641 21.835ZM74.6807 21.7803H69.7383C69.7565 22.5596 69.9661 23.1611 70.3672 23.585C70.7682 24.0088 71.3197 24.2207 72.0215 24.2207C72.8099 24.2207 73.5345 23.9609 74.1953 23.4414V24.4941C73.5801 24.9408 72.7666 25.1641 71.7549 25.1641C70.766 25.1641 69.9889 24.8473 69.4238 24.2139C68.8587 23.5758 68.5762 22.6803 68.5762 21.5273C68.5762 20.4382 68.8838 19.5518 69.499 18.8682C70.1188 18.18 70.8867 17.8359 71.8027 17.8359C72.7188 17.8359 73.4274 18.1322 73.9287 18.7246C74.43 19.3171 74.6807 20.1396 74.6807 21.1924V21.7803ZM73.5322 20.8301C73.5277 20.1829 73.3704 19.6794 73.0605 19.3193C72.7552 18.9593 72.3291 18.7793 71.7822 18.7793C71.2536 18.7793 70.8047 18.9684 70.4355 19.3467C70.0664 19.7249 69.8385 20.2194 69.752 20.8301H73.5322Z" fill="#C9D1D9"/>
<path d="M4 2H83V0H4V2ZM85 4V35H87V4H85ZM83 37H4V39H83V37ZM2 35V4H0V35H2ZM4 37C2.89543 37 2 36.1046 2 35H0C0 37.2091 1.79086 39 4 39V37ZM85 35C85 36.1046 84.1046 37 83 37V39C85.2091 39 87 37.2091 87 35H85ZM83 2C84.1046 2 85 2.89543 85 4H87C87 1.79086 85.2091 0 83 0V2ZM4 0C1.79086 0 0 1.79086 0 4H2C2 2.89543 2.89543 2 4 2V0Z" fill="#C9D1D9"/>
<defs>
<clipPath id="clip0">
<rect width="18" height="18" fill="white" transform="translate(11 10.5)"/>
</clipPath>
</defs>
</svg>
