<svg width="104" height="45" viewBox="0 0 104 45" fill="none" xmlns="http://www.w3.org/2000/svg">
<path d="M1 4C1 2.34314 2.34315 1 4 1H100C101.657 1 103 2.34315 103 4V41C103 42.6569 101.657 44 100 44H4C2.34315 44 1 42.6569 1 41V4Z" fill="#22272E"/>
<g clip-path="url(#clip0)">
<path d="M24 31.467C23.7435 31.467 23.505 31.4003 23.2823 31.2848L21.0105 29.9813C20.6692 29.7998 20.8402 29.7338 20.943 29.7008C21.4035 29.5523 21.489 29.5193 21.9675 29.2545C22.0185 29.2215 22.0875 29.238 22.1385 29.271L23.8807 30.2783C23.9482 30.3113 24.0345 30.3113 24.0855 30.2783L30.9008 26.4653C30.9683 26.4323 31.0027 26.3663 31.0027 26.2838V18.6743C31.0027 18.5918 30.969 18.5258 30.9008 18.4928L24.0855 14.697C24.0173 14.664 23.9317 14.664 23.8807 14.697L17.0655 18.4928C16.9972 18.5258 16.9628 18.6083 16.9628 18.6743V26.2838C16.9628 26.3498 16.9972 26.4323 17.0655 26.4653L18.927 27.5055C19.935 28.0005 20.5665 27.423 20.5665 26.8455V19.335C20.5665 19.236 20.652 19.137 20.772 19.137H21.6428C21.7455 19.137 21.8475 19.2195 21.8475 19.335V26.8448C21.8475 28.149 21.1132 28.908 19.8322 28.908C19.4392 28.908 19.1318 28.908 18.261 28.4955L16.4678 27.5055C16.2517 27.3867 16.0712 27.2123 15.945 27.0005C15.8189 26.7886 15.7515 26.5469 15.75 26.3003V18.6908C15.75 18.1958 16.023 17.7338 16.4678 17.4863L23.283 13.6725C23.5049 13.5587 23.7506 13.4994 24 13.4994C24.2494 13.4994 24.4951 13.5587 24.717 13.6725L31.533 17.4855C31.977 17.733 32.25 18.195 32.25 18.69V26.2995C32.25 26.7945 31.977 27.2565 31.533 27.5048L24.717 31.317C24.4907 31.4151 24.2467 31.4657 24 31.4655V31.467ZM26.1007 26.2343C23.112 26.2343 22.497 24.9143 22.497 23.7915C22.497 23.6925 22.5825 23.5935 22.7018 23.5935H23.5898C23.6925 23.5935 23.7773 23.6595 23.7773 23.7585C23.9145 24.633 24.3075 25.062 26.118 25.062C27.5528 25.062 28.1677 24.7485 28.1677 24.006C28.1677 23.577 27.9967 23.2635 25.7595 23.049C23.8972 22.8668 22.7362 22.4715 22.7362 21.0353C22.7362 19.698 23.8973 18.9053 25.845 18.9053C28.0312 18.9053 29.1075 19.632 29.244 21.2168C29.2425 21.2704 29.2244 21.3223 29.1923 21.3653C29.1585 21.3983 29.1075 21.4313 29.0557 21.4313H28.1677C28.1246 21.4302 28.083 21.4152 28.0492 21.3884C28.0153 21.3616 27.9911 21.3245 27.9802 21.2828C27.7747 20.3753 27.2453 20.0775 25.845 20.0775C24.273 20.0775 24.0855 20.6055 24.0855 21.0015C24.0855 21.4808 24.3075 21.6293 26.4255 21.8933C28.5263 22.1573 29.517 22.5368 29.517 23.9558C29.4998 25.4093 28.2705 26.2343 26.1007 26.2343V26.2343Z" fill="#ADBAC7"/>
</g>
<path d="M55.5 29H53.8906L48.125 20.0703C47.9792 19.8464 47.8594 19.612 47.7656 19.3672H47.7188C47.7604 19.6068 47.7812 20.1198 47.7812 20.9062V29H46.4688V17.7969H48.1719L53.7812 26.5859C54.0156 26.9505 54.1667 27.2005 54.2344 27.3359H54.2656C54.2135 27.013 54.1875 26.4635 54.1875 25.6875V17.7969H55.5V29ZM61.6094 29.1875C60.4271 29.1875 59.4818 28.8151 58.7734 28.0703C58.0703 27.3203 57.7188 26.3281 57.7188 25.0938C57.7188 23.75 58.0859 22.7005 58.8203 21.9453C59.5547 21.1901 60.5469 20.8125 61.7969 20.8125C62.9896 20.8125 63.9193 21.1797 64.5859 21.9141C65.2578 22.6484 65.5938 23.6667 65.5938 24.9688C65.5938 26.2448 65.2318 27.2682 64.5078 28.0391C63.7891 28.8047 62.8229 29.1875 61.6094 29.1875ZM61.7031 21.8906C60.8802 21.8906 60.2292 22.1719 59.75 22.7344C59.2708 23.2917 59.0312 24.0625 59.0312 25.0469C59.0312 25.9948 59.2734 26.7422 59.7578 27.2891C60.2422 27.8359 60.8906 28.1094 61.7031 28.1094C62.5312 28.1094 63.1667 27.8411 63.6094 27.3047C64.0573 26.7682 64.2812 26.0052 64.2812 25.0156C64.2812 24.0156 64.0573 23.2448 63.6094 22.7031C63.1667 22.1615 62.5312 21.8906 61.7031 21.8906ZM74.4688 29H73.1875V27.6406H73.1562C72.5625 28.6719 71.6458 29.1875 70.4062 29.1875C69.401 29.1875 68.5964 28.8307 67.9922 28.1172C67.3932 27.3984 67.0938 26.4219 67.0938 25.1875C67.0938 23.8646 67.4271 22.8047 68.0938 22.0078C68.7604 21.2109 69.6484 20.8125 70.7578 20.8125C71.8568 20.8125 72.6562 21.2448 73.1562 22.1094H73.1875V17.1562H74.4688V29ZM73.1875 25.3828V24.2031C73.1875 23.5573 72.974 23.0104 72.5469 22.5625C72.1198 22.1146 71.5781 21.8906 70.9219 21.8906C70.1406 21.8906 69.526 22.1771 69.0781 22.75C68.6302 23.3229 68.4062 24.1146 68.4062 25.125C68.4062 26.0469 68.6198 26.776 69.0469 27.3125C69.4792 27.8438 70.0573 28.1094 70.7812 28.1094C71.4948 28.1094 72.0729 27.8516 72.5156 27.3359C72.9635 26.8203 73.1875 26.1693 73.1875 25.3828ZM83.4922 25.3203H77.8438C77.8646 26.2109 78.1042 26.8984 78.5625 27.3828C79.0208 27.8672 79.651 28.1094 80.4531 28.1094C81.3542 28.1094 82.1823 27.8125 82.9375 27.2188V28.4219C82.2344 28.9323 81.3047 29.1875 80.1484 29.1875C79.0182 29.1875 78.1302 28.8255 77.4844 28.1016C76.8385 27.3724 76.5156 26.349 76.5156 25.0312C76.5156 23.7865 76.8672 22.7734 77.5703 21.9922C78.2786 21.2057 79.1562 20.8125 80.2031 20.8125C81.25 20.8125 82.0599 21.151 82.6328 21.8281C83.2057 22.5052 83.4922 23.4453 83.4922 24.6484V25.3203ZM82.1797 24.2344C82.1745 23.4948 81.9948 22.9193 81.6406 22.5078C81.2917 22.0964 80.8047 21.8906 80.1797 21.8906C79.5755 21.8906 79.0625 22.1068 78.6406 22.5391C78.2188 22.9714 77.9583 23.5365 77.8594 24.2344H82.1797Z" fill="#ADBAC7"/>
<path d="M4 2H100V0H4V2ZM102 4V41H104V4H102ZM100 43H4V45H100V43ZM2 41V4H0V41H2ZM4 43C2.89543 43 2 42.1046 2 41H0C0 43.2091 1.79087 45 4 45V43ZM102 41C102 42.1046 101.105 43 100 43V45C102.209 45 104 43.2091 104 41H102ZM100 2C101.105 2 102 2.89543 102 4H104C104 1.79086 102.209 0 100 0V2ZM4 0C1.79086 0 0 1.79086 0 4H2C2 2.89543 2.89543 2 4 2V0Z" fill="#444C56"/>
<defs>
<clipPath id="clip0">
<rect width="18" height="18" fill="white" transform="translate(15 13.5)"/>
</clipPath>
</defs>
</svg>
