<svg width="106" height="47" viewBox="0 0 106 47" fill="none" xmlns="http://www.w3.org/2000/svg">
<rect x="1" y="1" width="104" height="45" rx="4" fill="#22272E"/>
<g clip-path="url(#clip0_28_4923)">
<path d="M25 32.467C24.7435 32.467 24.505 32.4003 24.2823 32.2848L22.0105 30.9813C21.6693 30.7998 21.8403 30.7338 21.943 30.7008C22.4035 30.5523 22.489 30.5193 22.9675 30.2545C23.0185 30.2215 23.0875 30.238 23.1385 30.271L24.8807 31.2783C24.9482 31.3113 25.0345 31.3113 25.0855 31.2783L31.9008 27.4653C31.9683 27.4323 32.0028 27.3663 32.0028 27.2838V19.6743C32.0028 19.5918 31.969 19.5258 31.9008 19.4928L25.0855 15.697C25.0173 15.664 24.9317 15.664 24.8807 15.697L18.0655 19.4928C17.9972 19.5258 17.9628 19.6083 17.9628 19.6743V27.2838C17.9628 27.3498 17.9972 27.4323 18.0655 27.4653L19.927 28.5055C20.935 29.0005 21.5665 28.423 21.5665 27.8455V20.335C21.5665 20.236 21.652 20.137 21.772 20.137H22.6428C22.7455 20.137 22.8475 20.2195 22.8475 20.335V27.8448C22.8475 29.149 22.1132 29.908 20.8322 29.908C20.4392 29.908 20.1318 29.908 19.261 29.4955L17.4678 28.5055C17.2517 28.3867 17.0712 28.2123 16.945 28.0004C16.8189 27.7886 16.7515 27.5468 16.75 27.3003V19.6908C16.75 19.1958 17.023 18.7338 17.4678 18.4863L24.283 14.6725C24.5049 14.5587 24.7506 14.4994 25 14.4994C25.2494 14.4994 25.4951 14.5587 25.717 14.6725L32.533 18.4855C32.977 18.733 33.25 19.195 33.25 19.69V27.2995C33.25 27.7945 32.977 28.2565 32.533 28.5048L25.717 32.317C25.4907 32.4151 25.2466 32.4656 25 32.4655V32.467ZM27.1007 27.2343C24.112 27.2343 23.497 25.9143 23.497 24.7915C23.497 24.6925 23.5825 24.5935 23.7017 24.5935H24.5898C24.6925 24.5935 24.7773 24.6595 24.7773 24.7585C24.9145 25.633 25.3075 26.062 27.118 26.062C28.5528 26.062 29.1677 25.7485 29.1677 25.006C29.1677 24.577 28.9967 24.2635 26.7595 24.049C24.8973 23.8668 23.7362 23.4715 23.7362 22.0353C23.7362 20.698 24.8973 19.9053 26.845 19.9053C29.0312 19.9053 30.1075 20.632 30.244 22.2168C30.2425 22.2704 30.2244 22.3223 30.1923 22.3653C30.1585 22.3983 30.1075 22.4313 30.0557 22.4313H29.1677C29.1246 22.4302 29.083 22.4152 29.0492 22.3884C29.0153 22.3616 28.9911 22.3245 28.9802 22.2828C28.7747 21.3753 28.2452 21.0775 26.845 21.0775C25.273 21.0775 25.0855 21.6055 25.0855 22.0015C25.0855 22.4808 25.3075 22.6293 27.4255 22.8933C29.5262 23.1573 30.517 23.5368 30.517 24.9558C30.4998 26.4093 29.2705 27.2343 27.1007 27.2343Z" fill="#ADBAC7"/>
</g>
<path d="M56.5 30H54.8906L49.125 21.0703C48.9792 20.8464 48.8594 20.612 48.7656 20.3672H48.7188C48.7604 20.6068 48.7812 21.1198 48.7812 21.9062V30H47.4688V18.7969H49.1719L54.7812 27.5859C55.0156 27.9505 55.1667 28.2005 55.2344 28.3359H55.2656C55.2135 28.013 55.1875 27.4635 55.1875 26.6875V18.7969H56.5V30ZM62.6094 30.1875C61.4271 30.1875 60.4818 29.8151 59.7734 29.0703C59.0703 28.3203 58.7188 27.3281 58.7188 26.0938C58.7188 24.75 59.0859 23.7005 59.8203 22.9453C60.5547 22.1901 61.5469 21.8125 62.7969 21.8125C63.9896 21.8125 64.9193 22.1797 65.5859 22.9141C66.2578 23.6484 66.5938 24.6667 66.5938 25.9688C66.5938 27.2448 66.2318 28.2682 65.5078 29.0391C64.7891 29.8047 63.8229 30.1875 62.6094 30.1875ZM62.7031 22.8906C61.8802 22.8906 61.2292 23.1719 60.75 23.7344C60.2708 24.2917 60.0312 25.0625 60.0312 26.0469C60.0312 26.9948 60.2734 27.7422 60.7578 28.2891C61.2422 28.8359 61.8906 29.1094 62.7031 29.1094C63.5312 29.1094 64.1667 28.8411 64.6094 28.3047C65.0573 27.7682 65.2812 27.0052 65.2812 26.0156C65.2812 25.0156 65.0573 24.2448 64.6094 23.7031C64.1667 23.1615 63.5312 22.8906 62.7031 22.8906ZM75.4688 30H74.1875V28.6406H74.1562C73.5625 29.6719 72.6458 30.1875 71.4062 30.1875C70.401 30.1875 69.5964 29.8307 68.9922 29.1172C68.3932 28.3984 68.0938 27.4219 68.0938 26.1875C68.0938 24.8646 68.4271 23.8047 69.0938 23.0078C69.7604 22.2109 70.6484 21.8125 71.7578 21.8125C72.8568 21.8125 73.6562 22.2448 74.1562 23.1094H74.1875V18.1562H75.4688V30ZM74.1875 26.3828V25.2031C74.1875 24.5573 73.974 24.0104 73.5469 23.5625C73.1198 23.1146 72.5781 22.8906 71.9219 22.8906C71.1406 22.8906 70.526 23.1771 70.0781 23.75C69.6302 24.3229 69.4062 25.1146 69.4062 26.125C69.4062 27.0469 69.6198 27.776 70.0469 28.3125C70.4792 28.8438 71.0573 29.1094 71.7812 29.1094C72.4948 29.1094 73.0729 28.8516 73.5156 28.3359C73.9635 27.8203 74.1875 27.1693 74.1875 26.3828ZM84.4922 26.3203H78.8438C78.8646 27.2109 79.1042 27.8984 79.5625 28.3828C80.0208 28.8672 80.651 29.1094 81.4531 29.1094C82.3542 29.1094 83.1823 28.8125 83.9375 28.2188V29.4219C83.2344 29.9323 82.3047 30.1875 81.1484 30.1875C80.0182 30.1875 79.1302 29.8255 78.4844 29.1016C77.8385 28.3724 77.5156 27.349 77.5156 26.0312C77.5156 24.7865 77.8672 23.7734 78.5703 22.9922C79.2786 22.2057 80.1562 21.8125 81.2031 21.8125C82.25 21.8125 83.0599 22.151 83.6328 22.8281C84.2057 23.5052 84.4922 24.4453 84.4922 25.6484V26.3203ZM83.1797 25.2344C83.1745 24.4948 82.9948 23.9193 82.6406 23.5078C82.2917 23.0964 81.8047 22.8906 81.1797 22.8906C80.5755 22.8906 80.0625 23.1068 79.6406 23.5391C79.2188 23.9714 78.9583 24.5365 78.8594 25.2344H83.1797Z" fill="#ADBAC7"/>
<rect x="1" y="1" width="104" height="45" rx="4" stroke="#444C56" stroke-width="2"/>
<defs>
<clipPath id="clip0_28_4923">
<rect width="18" height="18" fill="white" transform="translate(16 14.5)"/>
</clipPath>
</defs>
</svg>
