<svg xmlns="http://www.w3.org/2000/svg" width="136" height="56" fill="none"><rect width="118" height="48" x="9" y="4" fill="#FCE4EC" rx="4"/><path fill="#83CD29" d="M40 38.5c-.283 0-.562-.074-.807-.216l-2.568-1.52c-.383-.215-.196-.29-.07-.335a5.12 5.12 0 0 0 1.162-.525.197.197 0 0 1 .191.014l1.974 1.173a.255.255 0 0 0 .238 0l7.695-4.442a.242.242 0 0 0 .118-.208v-8.885a.248.248 0 0 0-.12-.212l-7.694-4.438a.243.243 0 0 0-.238 0l-7.69 4.44a.248.248 0 0 0-.122.21v8.881a.237.237 0 0 0 .12.206L34.3 33.86c1.144.571 1.844-.102 1.844-.779v-8.768a.225.225 0 0 1 .225-.225h.975a.225.225 0 0 1 .225.225v8.769c0 1.526-.83 2.4-2.278 2.4A3.291 3.291 0 0 1 33.519 35l-2.023-1.16a1.625 1.625 0 0 1-.807-1.404v-8.88a1.621 1.621 0 0 1 .807-1.407l7.696-4.443a1.685 1.685 0 0 1 1.617 0l7.695 4.443a1.625 1.625 0 0 1 .807 1.402v8.885a1.628 1.628 0 0 1-.807 1.404l-7.695 4.443A1.613 1.613 0 0 1 40 38.5Z"/><path fill="#83CD29" d="M38.54 29.465a.225.225 0 0 1 .226-.225h.995a.225.225 0 0 1 .221.188c.15 1.013.6 1.524 2.635 1.524 1.62 0 2.311-.367 2.311-1.227 0-.496-.195-.864-2.715-1.11-2.106-.21-3.408-.676-3.408-2.359 0-1.552 1.309-2.479 3.503-2.479 2.465 0 3.685.856 3.84 2.692a.227.227 0 0 1-.132.223.224.224 0 0 1-.09.02h-1.002a.225.225 0 0 1-.215-.174c-.24-1.066-.826-1.407-2.4-1.407-1.77 0-1.976.617-1.976 1.079 0 .56.243.723 2.633 1.038 2.364.313 3.488.756 3.488 2.418 0 1.677-1.398 2.637-3.837 2.637-3.37.004-4.076-1.541-4.076-2.838Z"/><path fill="#000" d="M78.5 34.5h-1.61l-5.765-8.93a3.734 3.734 0 0 1-.36-.703h-.046c.041.24.062.753.062 1.54V34.5H69.47V23.297h1.703l5.61 8.789c.234.364.385.614.452.75h.032c-.053-.323-.079-.872-.079-1.648v-7.891H78.5V34.5Zm6.11.188c-1.183 0-2.128-.373-2.837-1.118-.703-.75-1.054-1.742-1.054-2.976 0-1.344.367-2.393 1.101-3.149.735-.755 1.727-1.133 2.977-1.133 1.193 0 2.122.368 2.789 1.102.672.734 1.008 1.753 1.008 3.055 0 1.276-.362 2.3-1.086 3.07-.719.766-1.685 1.148-2.899 1.148Zm.093-7.297c-.823 0-1.474.28-1.953.843-.48.558-.719 1.328-.719 2.313 0 .948.242 1.695.727 2.242.484.547 1.133.82 1.945.82.828 0 1.464-.268 1.906-.804.448-.537.672-1.3.672-2.29 0-1-.224-1.77-.672-2.312-.442-.541-1.078-.812-1.906-.812ZM97.47 34.5h-1.281v-1.36h-.032c-.594 1.032-1.51 1.547-2.75 1.547-1.005 0-1.81-.356-2.414-1.07-.599-.719-.898-1.695-.898-2.93 0-1.322.333-2.382 1-3.18.666-.796 1.554-1.195 2.664-1.195 1.099 0 1.898.433 2.398 1.297h.031v-4.953h1.282V34.5Zm-1.281-3.617v-1.18c0-.646-.214-1.193-.641-1.64-.427-.448-.969-.672-1.625-.672-.781 0-1.396.286-1.844.859-.448.573-.672 1.365-.672 2.375 0 .922.214 1.651.64 2.188.433.53 1.011.796 1.735.796.714 0 1.292-.257 1.735-.773.447-.516.671-1.167.671-1.953Zm10.304-.063h-5.648c.021.89.26 1.578.718 2.063.459.484 1.089.726 1.891.726.901 0 1.729-.297 2.485-.89v1.203c-.704.51-1.633.766-2.79.766-1.13 0-2.018-.363-2.664-1.086-.645-.73-.968-1.753-.968-3.07 0-1.245.351-2.259 1.054-3.04.709-.786 1.586-1.18 2.633-1.18s1.857.339 2.43 1.016c.573.677.859 1.617.859 2.82v.672Zm-1.312-1.086c-.006-.74-.185-1.315-.539-1.726-.349-.412-.836-.617-1.461-.617-.604 0-1.118.216-1.539.648-.422.432-.683.997-.782 1.695h4.321Z"/><rect width="118" height="48" x="9" y="4" stroke="#E91E63" stroke-width="2" rx="4"/></svg>