<svg width="76" height="28" viewBox="0 0 76 28" fill="none" xmlns="http://www.w3.org/2000/svg">
<g filter="url(#filter0_d)">
<path d="M2 5C2 2.23858 4.23858 0 7 0H69C71.7614 0 74 2.23858 74 5V19C74 21.7614 71.7614 24 69 24H7C4.23857 24 2 21.7614 2 19V5Z" fill="white"/>
<g clip-path="url(#clip0)">
<path d="M20.1747 15.2382L20.1786 19.2139L16.6506 20.9745V17.0005L20.1747 15.2382V15.2382ZM24.4088 13.1133V17.1029L21.3997 18.6047L21.3975 14.6333L24.4088 13.1133ZM20.1694 9.91666L20.1733 13.8507L16.6505 15.6012V11.6659L20.1694 9.91666V9.91666ZM24.4088 7.80909V11.7184L21.3966 13.2497L21.394 9.30775L24.4088 7.80909V7.80909ZM16.1142 7.34661L19.2631 8.93606L15.9961 10.5768L12.9066 9.02507L16.1142 7.34661ZM11.7342 5.13576L14.7376 6.65177L11.5227 8.32977L8.4381 6.78072L11.7342 5.13576ZM20.3197 5.15875L23.5546 6.78072L20.6615 8.23386L17.5061 6.64224L20.3197 5.15875H20.3197ZM16.0153 3L18.9275 4.46004L16.1351 5.95088L13.1343 4.43737L16.0152 3H16.0153Z" fill="#4DABCF"/>
<path d="M15.4051 11.6659L13.0287 10.4712V15.6351C13.0287 15.6351 10.1226 9.45156 9.85332 8.89612C9.81863 8.82445 9.67575 8.74581 9.63922 8.72676C9.11814 8.45315 7.59123 7.67967 7.59123 7.67967V16.8028L9.70354 17.932V13.1633C9.70354 13.1633 12.5788 18.6884 12.6079 18.7488C12.637 18.8093 12.9259 19.3916 13.2342 19.5961C13.6449 19.868 15.4055 20.9267 15.4055 20.9267L15.4051 11.6659V11.6659Z" fill="#4D77CF"/>
</g>
<path d="M37.5469 16H36.416L32.1211 9.42578V16H30.9902V7.46875H32.1211L36.4277 14.0723V7.46875H37.5469V16ZM43.2891 15.373C42.8672 15.8691 42.248 16.1172 41.4316 16.1172C40.7559 16.1172 40.2402 15.9219 39.8848 15.5312C39.5332 15.1367 39.3555 14.5547 39.3516 13.7852V9.66016H40.4355V13.7559C40.4355 14.7168 40.8262 15.1973 41.6074 15.1973C42.4355 15.1973 42.9863 14.8887 43.2598 14.2715V9.66016H44.3438V16H43.3125L43.2891 15.373ZM47.0156 9.66016L47.0449 10.3633C47.5098 9.81641 48.1367 9.54297 48.9258 9.54297C49.8125 9.54297 50.416 9.88281 50.7363 10.5625C50.9473 10.2578 51.2207 10.0117 51.5566 9.82422C51.8965 9.63672 52.2969 9.54297 52.7578 9.54297C54.1484 9.54297 54.8555 10.2793 54.8789 11.752V16H53.7949V11.8164C53.7949 11.3633 53.6914 11.0254 53.4844 10.8027C53.2773 10.5762 52.9297 10.4629 52.4414 10.4629C52.0391 10.4629 51.7051 10.584 51.4395 10.8262C51.1738 11.0645 51.0195 11.3867 50.9766 11.793V16H49.8867V11.8457C49.8867 10.9238 49.4355 10.4629 48.5332 10.4629C47.8223 10.4629 47.3359 10.7656 47.0742 11.3711V16H45.9902V9.66016H47.0156ZM61.875 12.9004C61.875 13.8652 61.6543 14.6426 61.2129 15.2324C60.7715 15.8223 60.1738 16.1172 59.4199 16.1172C58.6504 16.1172 58.0449 15.873 57.6035 15.3848V18.4375H56.5195V9.66016H57.5098L57.5625 10.3633C58.0039 9.81641 58.6172 9.54297 59.4023 9.54297C60.1641 9.54297 60.7656 9.83008 61.207 10.4043C61.6523 10.9785 61.875 11.7773 61.875 12.8008V12.9004ZM60.791 12.7773C60.791 12.0625 60.6387 11.498 60.334 11.084C60.0293 10.6699 59.6113 10.4629 59.0801 10.4629C58.4238 10.4629 57.9316 10.7539 57.6035 11.3359V14.3652C57.9277 14.9434 58.4238 15.2324 59.0918 15.2324C59.6113 15.2324 60.0234 15.0273 60.3281 14.6172C60.6367 14.2031 60.791 13.5898 60.791 12.7773ZM65.2617 14.4121L66.7383 9.66016H67.8984L65.3496 16.9785C64.9551 18.0332 64.3281 18.5605 63.4688 18.5605L63.2637 18.543L62.8594 18.4668V17.5879L63.1523 17.6113C63.5195 17.6113 63.8047 17.5371 64.0078 17.3887C64.2148 17.2402 64.3848 16.9688 64.5176 16.5742L64.7578 15.9297L62.4961 9.66016H63.6797L65.2617 14.4121Z" fill="black"/>
</g>
<defs>
<filter id="filter0_d" x="0" y="0" width="76" height="28" filterUnits="userSpaceOnUse" color-interpolation-filters="sRGB">
<feFlood flood-opacity="0" result="BackgroundImageFix"/>
<feColorMatrix in="SourceAlpha" type="matrix" values="0 0 0 0 0 0 0 0 0 0 0 0 0 0 0 0 0 0 127 0" result="hardAlpha"/>
<feOffset dy="2"/>
<feGaussianBlur stdDeviation="1"/>
<feComposite in2="hardAlpha" operator="out"/>
<feColorMatrix type="matrix" values="0 0 0 0 0 0 0 0 0 0 0 0 0 0 0 0 0 0 0.25 0"/>
<feBlend mode="normal" in2="BackgroundImageFix" result="effect1_dropShadow"/>
<feBlend mode="normal" in="SourceGraphic" in2="effect1_dropShadow" result="shape"/>
</filter>
<clipPath id="clip0">
<rect width="16.82" height="18" fill="white" transform="translate(7.59 3)"/>
</clipPath>
</defs>
</svg>
