<svg width="98" height="39" viewBox="0 0 98 39" fill="none" xmlns="http://www.w3.org/2000/svg">
<path d="M1 4C1 2.34315 2.34315 1 4 1H94C95.6569 1 97 2.34315 97 4V35C97 36.6569 95.6569 38 94 38H4C2.34315 38 1 36.6569 1 35V4Z" fill="#22272E"/>
<g clip-path="url(#clip0)">
<path d="M18.7364 14.1573L15.7301 12.6396L12.4295 14.2869L15.5178 15.8377L18.7364 14.1573ZM20.1154 14.8531L23.2677 16.4453L19.9973 18.0875L16.9041 16.5344L20.1154 14.8531V14.8531ZM24.3259 12.6623L27.5648 14.2869L24.6677 15.7416L21.509 14.1477L24.3259 12.6623V12.6623ZM22.9316 11.9626L20.0157 10.5L17.1317 11.94L20.1364 13.4552L22.9316 11.9626V11.9626ZM20.6523 24.5202V28.5L24.1843 26.7369L24.1811 22.7555L20.6523 24.5202ZM24.1795 21.366L24.1753 17.4267L20.6523 19.1786V23.1193L24.1795 21.3661V21.366ZM28.4199 20.6282V24.6233L25.407 26.1264L25.4045 22.1498L28.4199 20.6282V20.6282ZM28.4199 19.2312V15.3163L25.4038 16.8168V20.7642L28.4199 19.2312ZM19.4053 19.1786L17.0263 17.9815V23.1518L13.8473 16.4031C13.8126 16.3311 13.67 16.2525 13.6335 16.2331L11.5801 15.1851V24.3228L13.6952 25.4566V20.6783L16.6037 26.2722C16.6336 26.3327 16.9211 26.9152 17.2304 27.1199C17.6409 27.393 19.4037 28.453 19.4037 28.453L19.4053 19.1786V19.1786Z" fill="#ADBAC7"/>
</g>
<path d="M50.1875 25H48.7793L43.7344 17.1865C43.6068 16.9906 43.502 16.7855 43.4199 16.5713H43.3789C43.4154 16.7809 43.4336 17.2298 43.4336 17.918V25H42.2852V15.1973H43.7754L48.6836 22.8877C48.8887 23.2067 49.0208 23.4255 49.0801 23.5439H49.1074C49.0618 23.2614 49.0391 22.7806 49.0391 22.1016V15.1973H50.1875V25ZM58.2676 25H57.1465V23.8926H57.1191C56.6543 24.7402 55.9342 25.1641 54.959 25.1641C53.291 25.1641 52.457 24.1706 52.457 22.1836V18H53.5713V22.0059C53.5713 23.4824 54.1364 24.2207 55.2666 24.2207C55.8135 24.2207 56.2624 24.0202 56.6133 23.6191C56.9688 23.2135 57.1465 22.6849 57.1465 22.0332V18H58.2676V25ZM70.4766 25H69.3555V20.9805C69.3555 20.2057 69.2347 19.6452 68.9932 19.2988C68.7562 18.9525 68.3551 18.7793 67.79 18.7793C67.3115 18.7793 66.9036 18.998 66.5664 19.4355C66.2337 19.873 66.0674 20.3971 66.0674 21.0078V25H64.9463V20.8438C64.9463 19.4674 64.4154 18.7793 63.3535 18.7793C62.8613 18.7793 62.4557 18.9867 62.1367 19.4014C61.8177 19.8115 61.6582 20.347 61.6582 21.0078V25H60.5371V18H61.6582V19.1074H61.6855C62.1823 18.2598 62.9069 17.8359 63.8594 17.8359C64.3379 17.8359 64.7549 17.9704 65.1104 18.2393C65.4658 18.5036 65.7096 18.8522 65.8418 19.2852C66.3613 18.319 67.1361 17.8359 68.166 17.8359C69.7064 17.8359 70.4766 18.7861 70.4766 20.6865V25ZM73.7441 23.9883H73.7168V28.2197H72.5957V18H73.7168V19.2305H73.7441C74.2956 18.3008 75.1022 17.8359 76.1641 17.8359C77.0664 17.8359 77.7705 18.1504 78.2764 18.7793C78.7822 19.4036 79.0352 20.2422 79.0352 21.2949C79.0352 22.4661 78.7503 23.4049 78.1807 24.1113C77.611 24.8132 76.8317 25.1641 75.8428 25.1641C74.9359 25.1641 74.2363 24.7721 73.7441 23.9883ZM73.7168 21.165V22.1426C73.7168 22.7214 73.9036 23.2135 74.2773 23.6191C74.6556 24.0202 75.1341 24.2207 75.7129 24.2207C76.3919 24.2207 76.9229 23.9609 77.3057 23.4414C77.693 22.9219 77.8867 22.1995 77.8867 21.2744C77.8867 20.4951 77.7067 19.8844 77.3467 19.4424C76.9867 19.0003 76.499 18.7793 75.8838 18.7793C75.2321 18.7793 74.708 19.0072 74.3115 19.4629C73.915 19.9141 73.7168 20.4814 73.7168 21.165ZM86.3975 18L83.1777 26.1211C82.6035 27.5703 81.7969 28.2949 80.7578 28.2949C80.4661 28.2949 80.2223 28.2653 80.0264 28.2061V27.2012C80.2679 27.2832 80.4889 27.3242 80.6895 27.3242C81.2546 27.3242 81.6784 26.987 81.9609 26.3125L82.5215 24.9863L79.7871 18H81.0312L82.9248 23.3867C82.9476 23.4551 82.9954 23.6328 83.0684 23.9199H83.1094C83.1322 23.8105 83.1777 23.6374 83.2461 23.4004L85.2354 18H86.3975Z" fill="#ADBAC7"/>
<path d="M4 2H94V0H4V2ZM96 4V35H98V4H96ZM94 37H4V39H94V37ZM2 35V4H0V35H2ZM4 37C2.89543 37 2 36.1046 2 35H0C0 37.2091 1.79086 39 4 39V37ZM96 35C96 36.1046 95.1046 37 94 37V39C96.2091 39 98 37.2091 98 35H96ZM94 2C95.1046 2 96 2.89543 96 4H98C98 1.79086 96.2091 0 94 0V2ZM4 0C1.79086 0 0 1.79086 0 4H2C2 2.89543 2.89543 2 4 2V0Z" fill="#ADBCA7"/>
<defs>
<clipPath id="clip0">
<rect width="18" height="18" fill="white" transform="translate(11 10.5)"/>
</clipPath>
</defs>
</svg>
