<svg width="118" height="47" viewBox="0 0 118 47" fill="none" xmlns="http://www.w3.org/2000/svg">
<rect x="1" y="1" width="116" height="45" rx="4" fill="#22272E"/>
<g clip-path="url(#clip0_28_4936)">
<path d="M23.7364 18.1573L20.7301 16.6396L17.4295 18.2869L20.5178 19.8377L23.7364 18.1573ZM25.1154 18.8531L28.2677 20.4453L24.9973 22.0875L21.9041 20.5344L25.1154 18.8531ZM29.3259 16.6623L32.5648 18.2869L29.6677 19.7416L26.509 18.1477L29.3259 16.6623ZM27.9316 15.9626L25.0157 14.5L22.1317 15.94L25.1364 17.4552L27.9316 15.9626ZM25.6523 28.5202V32.5L29.1843 30.7369L29.1811 26.7555L25.6523 28.5202ZM29.1795 25.366L29.1753 21.4267L25.6523 23.1786V27.1193L29.1795 25.3661V25.366ZM33.4199 24.6282V28.6233L30.407 30.1264L30.4045 26.1498L33.4199 24.6282V24.6282ZM33.4199 23.2312V19.3163L30.4038 20.8168V24.7642L33.4199 23.2312ZM24.4053 23.1786L22.0263 21.9815V27.1518L18.8473 20.4031C18.8126 20.3311 18.67 20.2525 18.6335 20.2331L16.5801 19.1851V28.3228L18.6952 29.4566V24.6783L21.6037 30.2722C21.6336 30.3327 21.9211 30.9152 22.2304 31.1199C22.6409 31.393 24.4037 32.453 24.4037 32.453L24.4053 23.1786V23.1786Z" fill="#ADBAC7"/>
</g>
<path d="M56.5 30H54.8906L49.125 21.0703C48.9792 20.8464 48.8594 20.612 48.7656 20.3672H48.7188C48.7604 20.6068 48.7812 21.1198 48.7812 21.9062V30H47.4688V18.7969H49.1719L54.7812 27.5859C55.0156 27.9505 55.1667 28.2005 55.2344 28.3359H55.2656C55.2135 28.013 55.1875 27.4635 55.1875 26.6875V18.7969H56.5V30ZM65.7344 30H64.4531V28.7344H64.4219C63.8906 29.7031 63.0677 30.1875 61.9531 30.1875C60.0469 30.1875 59.0938 29.0521 59.0938 26.7812V22H60.3672V26.5781C60.3672 28.2656 61.013 29.1094 62.3047 29.1094C62.9297 29.1094 63.4427 28.8802 63.8438 28.4219C64.25 27.9583 64.4531 27.3542 64.4531 26.6094V22H65.7344V30ZM79.6875 30H78.4062V25.4062C78.4062 24.5208 78.2682 23.8802 77.9922 23.4844C77.7214 23.0885 77.263 22.8906 76.6172 22.8906C76.0703 22.8906 75.6042 23.1406 75.2188 23.6406C74.8385 24.1406 74.6484 24.7396 74.6484 25.4375V30H73.3672V25.25C73.3672 23.6771 72.7604 22.8906 71.5469 22.8906C70.9844 22.8906 70.5208 23.1276 70.1562 23.6016C69.7917 24.0703 69.6094 24.6823 69.6094 25.4375V30H68.3281V22H69.6094V23.2656H69.6406C70.2083 22.2969 71.0365 21.8125 72.125 21.8125C72.6719 21.8125 73.1484 21.9661 73.5547 22.2734C73.9609 22.5755 74.2396 22.974 74.3906 23.4688C74.9844 22.3646 75.8698 21.8125 77.0469 21.8125C78.8073 21.8125 79.6875 22.8984 79.6875 25.0703V30ZM83.4219 28.8438H83.3906V33.6797H82.1094V22H83.3906V23.4062H83.4219C84.0521 22.3438 84.974 21.8125 86.1875 21.8125C87.2188 21.8125 88.0234 22.1719 88.6016 22.8906C89.1797 23.6042 89.4688 24.5625 89.4688 25.7656C89.4688 27.1042 89.1432 28.1771 88.4922 28.9844C87.8411 29.7865 86.9505 30.1875 85.8203 30.1875C84.7839 30.1875 83.9844 29.7396 83.4219 28.8438ZM83.3906 25.6172V26.7344C83.3906 27.3958 83.6042 27.9583 84.0312 28.4219C84.4635 28.8802 85.0104 29.1094 85.6719 29.1094C86.4479 29.1094 87.0547 28.8125 87.4922 28.2188C87.9349 27.625 88.1562 26.7995 88.1562 25.7422C88.1562 24.8516 87.9505 24.1536 87.5391 23.6484C87.1276 23.1432 86.5703 22.8906 85.8672 22.8906C85.1224 22.8906 84.5234 23.151 84.0703 23.6719C83.6172 24.1875 83.3906 24.8359 83.3906 25.6172ZM97.8828 22L94.2031 31.2812C93.5469 32.9375 92.625 33.7656 91.4375 33.7656C91.1042 33.7656 90.8255 33.7318 90.6016 33.6641V32.5156C90.8776 32.6094 91.1302 32.6562 91.3594 32.6562C92.0052 32.6562 92.4896 32.2708 92.8125 31.5L93.4531 29.9844L90.3281 22H91.75L93.9141 28.1562C93.9401 28.2344 93.9948 28.4375 94.0781 28.7656H94.125C94.151 28.6406 94.2031 28.4427 94.2812 28.1719L96.5547 22H97.8828Z" fill="#ADBAC7"/>
<rect x="1" y="1" width="116" height="45" rx="4" stroke="#444C56" stroke-width="2"/>
<defs>
<clipPath id="clip0_28_4936">
<rect width="18" height="18" fill="white" transform="translate(16 14.5)"/>
</clipPath>
</defs>
</svg>
