<svg width="83" height="34" viewBox="0 0 83 34" fill="none" xmlns="http://www.w3.org/2000/svg">
<path d="M1 4C1 2.34315 2.34315 1 4 1H79C80.6569 1 82 2.34315 82 4V30C82 31.6569 80.6569 33 79 33H4C2.34314 33 1 31.6569 1 30V4Z" fill="#C9D1D9"/>
<g clip-path="url(#clip0)">
<path d="M22.1747 20.2382L22.1786 24.2139L18.6506 25.9745V22.0005L22.1747 20.2382ZM26.4088 18.1133V22.1029L23.3997 23.6047L23.3975 19.6333L26.4088 18.1133ZM22.1694 14.9167L22.1733 18.8507L18.6505 20.6012V16.6659L22.1694 14.9167ZM26.4088 12.8091V16.7184L23.3966 18.2497L23.394 14.3078L26.4088 12.8091ZM18.1142 12.3466L21.2631 13.9361L17.9961 15.5768L14.9066 14.0251L18.1142 12.3466ZM13.7342 10.1358L16.7376 11.6518L13.5227 13.3298L10.4381 11.7807L13.7342 10.1358ZM22.3197 10.1588L25.5546 11.7807L22.6615 13.2339L19.5061 11.6422L22.3197 10.1588H22.3197ZM18.0153 8L20.9275 9.46004L18.1351 10.9509L15.1343 9.43737L18.0152 8H18.0153Z" fill="#4DABCF"/>
<path d="M17.4051 16.6659L15.0287 15.4712V20.6351C15.0287 20.6351 12.1226 14.4516 11.8533 13.8961C11.8186 13.8244 11.6758 13.7458 11.6392 13.7268C11.1181 13.4531 9.59123 12.6797 9.59123 12.6797V21.8028L11.7035 22.932V18.1633C11.7035 18.1633 14.5788 23.6884 14.6079 23.7488C14.637 23.8093 14.9259 24.3916 15.2342 24.5961C15.6449 24.868 17.4055 25.9267 17.4055 25.9267L17.4051 16.6659Z" fill="#4D77CF"/>
</g>
<path d="M42.5469 21H41.416L37.1211 14.4258V21H35.9902V12.4688H37.1211L41.4277 19.0723V12.4688H42.5469V21ZM48.2891 20.373C47.8672 20.8691 47.248 21.1172 46.4316 21.1172C45.7559 21.1172 45.2402 20.9219 44.8848 20.5312C44.5332 20.1367 44.3555 19.5547 44.3516 18.7852V14.6602H45.4355V18.7559C45.4355 19.7168 45.8262 20.1973 46.6074 20.1973C47.4355 20.1973 47.9863 19.8887 48.2598 19.2715V14.6602H49.3438V21H48.3125L48.2891 20.373ZM52.0156 14.6602L52.0449 15.3633C52.5098 14.8164 53.1367 14.543 53.9258 14.543C54.8125 14.543 55.416 14.8828 55.7363 15.5625C55.9473 15.2578 56.2207 15.0117 56.5566 14.8242C56.8965 14.6367 57.2969 14.543 57.7578 14.543C59.1484 14.543 59.8555 15.2793 59.8789 16.752V21H58.7949V16.8164C58.7949 16.3633 58.6914 16.0254 58.4844 15.8027C58.2773 15.5762 57.9297 15.4629 57.4414 15.4629C57.0391 15.4629 56.7051 15.584 56.4395 15.8262C56.1738 16.0645 56.0195 16.3867 55.9766 16.793V21H54.8867V16.8457C54.8867 15.9238 54.4355 15.4629 53.5332 15.4629C52.8223 15.4629 52.3359 15.7656 52.0742 16.3711V21H50.9902V14.6602H52.0156ZM66.875 17.9004C66.875 18.8652 66.6543 19.6426 66.2129 20.2324C65.7715 20.8223 65.1738 21.1172 64.4199 21.1172C63.6504 21.1172 63.0449 20.873 62.6035 20.3848V23.4375H61.5195V14.6602H62.5098L62.5625 15.3633C63.0039 14.8164 63.6172 14.543 64.4023 14.543C65.1641 14.543 65.7656 14.8301 66.207 15.4043C66.6523 15.9785 66.875 16.7773 66.875 17.8008V17.9004ZM65.791 17.7773C65.791 17.0625 65.6387 16.498 65.334 16.084C65.0293 15.6699 64.6113 15.4629 64.0801 15.4629C63.4238 15.4629 62.9316 15.7539 62.6035 16.3359V19.3652C62.9277 19.9434 63.4238 20.2324 64.0918 20.2324C64.6113 20.2324 65.0234 20.0273 65.3281 19.6172C65.6367 19.2031 65.791 18.5898 65.791 17.7773ZM70.2617 19.4121L71.7383 14.6602H72.8984L70.3496 21.9785C69.9551 23.0332 69.3281 23.5605 68.4688 23.5605L68.2637 23.543L67.8594 23.4668V22.5879L68.1523 22.6113C68.5195 22.6113 68.8047 22.5371 69.0078 22.3887C69.2148 22.2402 69.3848 21.9688 69.5176 21.5742L69.7578 20.9297L67.4961 14.6602H68.6797L70.2617 19.4121Z" fill="#22272E"/>
<path d="M4 2H79V0H4V2ZM81 4V30H83V4H81ZM79 32H4V34H79V32ZM2 30V4H0V30H2ZM4 32C2.89543 32 2 31.1046 2 30H0C0 32.2091 1.79086 34 4 34V32ZM81 30C81 31.1046 80.1046 32 79 32V34C81.2091 34 83 32.2091 83 30H81ZM79 2C80.1046 2 81 2.89543 81 4H83C83 1.79086 81.2091 0 79 0V2ZM4 0C1.79086 0 0 1.79086 0 4H2C2 2.89543 2.89543 2 4 2V0Z" fill="#30363D"/>
<defs>
<clipPath id="clip0">
<rect width="16.82" height="18" fill="white" transform="translate(9.59 8)"/>
</clipPath>
</defs>
</svg>
