<svg width="116" height="45" viewBox="0 0 116 45" fill="none" xmlns="http://www.w3.org/2000/svg">
<path d="M1 4C1 2.34314 2.34315 1 4 1H112C113.657 1 115 2.34315 115 4V41C115 42.6569 113.657 44 112 44H4C2.34315 44 1 42.6569 1 41V4Z" fill="#22272E"/>
<g clip-path="url(#clip0)">
<path d="M22.7364 17.1573L19.7301 15.6396L16.4295 17.2869L19.5178 18.8377L22.7364 17.1573ZM24.1154 17.8531L27.2677 19.4453L23.9973 21.0875L20.9041 19.5344L24.1154 17.8531V17.8531ZM28.3259 15.6623L31.5648 17.2869L28.6677 18.7416L25.509 17.1477L28.3259 15.6623V15.6623ZM26.9316 14.9626L24.0157 13.5L21.1317 14.94L24.1364 16.4552L26.9316 14.9626V14.9626ZM24.6523 27.5202V31.5L28.1843 29.7369L28.1811 25.7555L24.6523 27.5202ZM28.1795 24.366L28.1753 20.4267L24.6523 22.1786V26.1193L28.1795 24.3661V24.366ZM32.4199 23.6282V27.6233L29.407 29.1264L29.4045 25.1498L32.4199 23.6282V23.6282ZM32.4199 22.2312V18.3163L29.4038 19.8168V23.7642L32.4199 22.2312ZM23.4053 22.1786L21.0263 20.9815V26.1518L17.8473 19.4031C17.8126 19.3311 17.67 19.2525 17.6335 19.2331L15.5801 18.1851V27.3228L17.6952 28.4566V23.6783L20.6037 29.2722C20.6336 29.3327 20.9211 29.9152 21.2304 30.1199C21.6409 30.393 23.4037 31.453 23.4037 31.453L23.4053 22.1786V22.1786Z" fill="#ADBAC7"/>
</g>
<path d="M55.5 29H53.8906L48.125 20.0703C47.9792 19.8464 47.8594 19.612 47.7656 19.3672H47.7188C47.7604 19.6068 47.7812 20.1198 47.7812 20.9062V29H46.4688V17.7969H48.1719L53.7812 26.5859C54.0156 26.9505 54.1667 27.2005 54.2344 27.3359H54.2656C54.2135 27.013 54.1875 26.4635 54.1875 25.6875V17.7969H55.5V29ZM64.7344 29H63.4531V27.7344H63.4219C62.8906 28.7031 62.0677 29.1875 60.9531 29.1875C59.0469 29.1875 58.0938 28.0521 58.0938 25.7812V21H59.3672V25.5781C59.3672 27.2656 60.013 28.1094 61.3047 28.1094C61.9297 28.1094 62.4427 27.8802 62.8438 27.4219C63.25 26.9583 63.4531 26.3542 63.4531 25.6094V21H64.7344V29ZM78.6875 29H77.4062V24.4062C77.4062 23.5208 77.2682 22.8802 76.9922 22.4844C76.7214 22.0885 76.263 21.8906 75.6172 21.8906C75.0703 21.8906 74.6042 22.1406 74.2188 22.6406C73.8385 23.1406 73.6484 23.7396 73.6484 24.4375V29H72.3672V24.25C72.3672 22.6771 71.7604 21.8906 70.5469 21.8906C69.9844 21.8906 69.5208 22.1276 69.1562 22.6016C68.7917 23.0703 68.6094 23.6823 68.6094 24.4375V29H67.3281V21H68.6094V22.2656H68.6406C69.2083 21.2969 70.0365 20.8125 71.125 20.8125C71.6719 20.8125 72.1484 20.9661 72.5547 21.2734C72.9609 21.5755 73.2396 21.974 73.3906 22.4688C73.9844 21.3646 74.8698 20.8125 76.0469 20.8125C77.8073 20.8125 78.6875 21.8984 78.6875 24.0703V29ZM82.4219 27.8438H82.3906V32.6797H81.1094V21H82.3906V22.4062H82.4219C83.0521 21.3438 83.974 20.8125 85.1875 20.8125C86.2188 20.8125 87.0234 21.1719 87.6016 21.8906C88.1797 22.6042 88.4688 23.5625 88.4688 24.7656C88.4688 26.1042 88.1432 27.1771 87.4922 27.9844C86.8411 28.7865 85.9505 29.1875 84.8203 29.1875C83.7839 29.1875 82.9844 28.7396 82.4219 27.8438ZM82.3906 24.6172V25.7344C82.3906 26.3958 82.6042 26.9583 83.0312 27.4219C83.4635 27.8802 84.0104 28.1094 84.6719 28.1094C85.4479 28.1094 86.0547 27.8125 86.4922 27.2188C86.9349 26.625 87.1562 25.7995 87.1562 24.7422C87.1562 23.8516 86.9505 23.1536 86.5391 22.6484C86.1276 22.1432 85.5703 21.8906 84.8672 21.8906C84.1224 21.8906 83.5234 22.151 83.0703 22.6719C82.6172 23.1875 82.3906 23.8359 82.3906 24.6172ZM96.8828 21L93.2031 30.2812C92.5469 31.9375 91.625 32.7656 90.4375 32.7656C90.1042 32.7656 89.8255 32.7318 89.6016 32.6641V31.5156C89.8776 31.6094 90.1302 31.6562 90.3594 31.6562C91.0052 31.6562 91.4896 31.2708 91.8125 30.5L92.4531 28.9844L89.3281 21H90.75L92.9141 27.1562C92.9401 27.2344 92.9948 27.4375 93.0781 27.7656H93.125C93.151 27.6406 93.2031 27.4427 93.2812 27.1719L95.5547 21H96.8828Z" fill="#ADBAC7"/>
<path d="M4 2H112V0H4V2ZM114 4V41H116V4H114ZM112 43H4V45H112V43ZM2 41V4H0V41H2ZM4 43C2.89543 43 2 42.1046 2 41H0C0 43.2091 1.79086 45 4 45V43ZM114 41C114 42.1046 113.105 43 112 43V45C114.209 45 116 43.2091 116 41H114ZM112 2C113.105 2 114 2.89543 114 4H116C116 1.79086 114.209 0 112 0V2ZM4 0C1.79086 0 0 1.79086 0 4H2C2 2.89543 2.89543 2 4 2V0Z" fill="#444C56"/>
<defs>
<clipPath id="clip0">
<rect width="18" height="18" fill="white" transform="translate(15 13.5)"/>
</clipPath>
</defs>
</svg>
