<svg width="19" height="18" viewBox="0 0 19 18" fill="none" xmlns="http://www.w3.org/2000/svg">
<g clip-path="url(#clip0)">
<path d="M14.1702 12.2382L14.1741 16.2139L10.646 17.9745V14.0005L14.1702 12.2382ZM18.4042 10.1133V14.1029L15.3952 15.6047L15.393 11.6333L18.4042 10.1133ZM14.1648 6.91666L14.1688 10.8507L10.646 12.6012V8.66588L14.1648 6.91666ZM18.4042 4.80909V8.71844L15.3921 10.2497L15.3895 6.30775L18.4042 4.80909ZM10.1097 4.34661L13.2585 5.93606L9.99154 7.57675L6.90211 6.02507L10.1097 4.34661ZM5.72968 2.13576L8.73305 3.65177L5.51815 5.32977L2.43358 3.78072L5.72968 2.13576ZM14.3152 2.15875L17.5501 3.78072L14.657 5.23386L11.5016 3.64224L14.3152 2.15875H14.3152ZM10.0108 0L12.923 1.46004L10.1306 2.95088L7.12974 1.43737L10.0107 0H10.0108Z" fill="#4DABCF"/>
<path d="M9.40056 8.66587L7.02416 7.47117V12.6351C7.02416 12.6351 4.11808 6.45154 3.8488 5.8961C3.81412 5.82443 3.67123 5.7458 3.63471 5.72674C3.11363 5.45313 1.58672 4.67966 1.58672 4.67966V13.8028L3.69902 14.932V10.1633C3.69902 10.1633 6.57429 15.6884 6.60339 15.7488C6.6325 15.8092 6.92135 16.3915 7.22965 16.5961C7.64043 16.868 9.40101 17.9267 9.40101 17.9267L9.40056 8.66587Z" fill="#4D77CF"/>
</g>
<defs>
<clipPath id="clip0">
<rect width="16.82" height="18" fill="white" transform="translate(1.58548)"/>
</clipPath>
</defs>
</svg>
