<svg width="85" height="36" viewBox="0 0 85 36" fill="none" xmlns="http://www.w3.org/2000/svg">
<g filter="url(#filter0_d)">
<path d="M2 3C2 1.34315 3.34315 0 5 0H80C81.6569 0 83 1.34315 83 3V29C83 30.6569 81.6569 32 80 32H5C3.34314 32 2 30.6569 2 29V3Z" fill="#C9D1D9"/>
<g clip-path="url(#clip0)">
<path d="M23.1747 19.2382L23.1786 23.2139L19.6506 24.9745V21.0005L23.1747 19.2382ZM27.4088 17.1133V21.1029L24.3997 22.6047L24.3975 18.6333L27.4088 17.1133ZM23.1694 13.9167L23.1733 17.8507L19.6505 19.6012V15.6659L23.1694 13.9167ZM27.4088 11.8091V15.7184L24.3966 17.2497L24.394 13.3078L27.4088 11.8091ZM19.1142 11.3466L22.2631 12.9361L18.9961 14.5768L15.9066 13.0251L19.1142 11.3466ZM14.7342 9.13576L17.7376 10.6518L14.5227 12.3298L11.4381 10.7807L14.7342 9.13576ZM23.3197 9.15875L26.5546 10.7807L23.6615 12.2339L20.5061 10.6422L23.3197 9.15875H23.3197ZM19.0153 7L21.9275 8.46004L19.1351 9.95088L16.1343 8.43737L19.0152 7H19.0153Z" fill="#4DABCF"/>
<path d="M18.4051 15.6659L16.0287 14.4712V19.6351C16.0287 19.6351 13.1226 13.4516 12.8533 12.8961C12.8186 12.8244 12.6758 12.7458 12.6392 12.7268C12.1181 12.4531 10.5912 11.6797 10.5912 11.6797V20.8028L12.7035 21.932V17.1633C12.7035 17.1633 15.5788 22.6884 15.6079 22.7488C15.637 22.8093 15.9259 23.3916 16.2342 23.5961C16.6449 23.868 18.4055 24.9267 18.4055 24.9267L18.4051 15.6659Z" fill="#4D77CF"/>
</g>
<path d="M43.5469 20H42.416L38.1211 13.4258V20H36.9902V11.4688H38.1211L42.4277 18.0723V11.4688H43.5469V20ZM49.2891 19.373C48.8672 19.8691 48.248 20.1172 47.4316 20.1172C46.7559 20.1172 46.2402 19.9219 45.8848 19.5312C45.5332 19.1367 45.3555 18.5547 45.3516 17.7852V13.6602H46.4355V17.7559C46.4355 18.7168 46.8262 19.1973 47.6074 19.1973C48.4355 19.1973 48.9863 18.8887 49.2598 18.2715V13.6602H50.3438V20H49.3125L49.2891 19.373ZM53.0156 13.6602L53.0449 14.3633C53.5098 13.8164 54.1367 13.543 54.9258 13.543C55.8125 13.543 56.416 13.8828 56.7363 14.5625C56.9473 14.2578 57.2207 14.0117 57.5566 13.8242C57.8965 13.6367 58.2969 13.543 58.7578 13.543C60.1484 13.543 60.8555 14.2793 60.8789 15.752V20H59.7949V15.8164C59.7949 15.3633 59.6914 15.0254 59.4844 14.8027C59.2773 14.5762 58.9297 14.4629 58.4414 14.4629C58.0391 14.4629 57.7051 14.584 57.4395 14.8262C57.1738 15.0645 57.0195 15.3867 56.9766 15.793V20H55.8867V15.8457C55.8867 14.9238 55.4355 14.4629 54.5332 14.4629C53.8223 14.4629 53.3359 14.7656 53.0742 15.3711V20H51.9902V13.6602H53.0156ZM67.875 16.9004C67.875 17.8652 67.6543 18.6426 67.2129 19.2324C66.7715 19.8223 66.1738 20.1172 65.4199 20.1172C64.6504 20.1172 64.0449 19.873 63.6035 19.3848V22.4375H62.5195V13.6602H63.5098L63.5625 14.3633C64.0039 13.8164 64.6172 13.543 65.4023 13.543C66.1641 13.543 66.7656 13.8301 67.207 14.4043C67.6523 14.9785 67.875 15.7773 67.875 16.8008V16.9004ZM66.791 16.7773C66.791 16.0625 66.6387 15.498 66.334 15.084C66.0293 14.6699 65.6113 14.4629 65.0801 14.4629C64.4238 14.4629 63.9316 14.7539 63.6035 15.3359V18.3652C63.9277 18.9434 64.4238 19.2324 65.0918 19.2324C65.6113 19.2324 66.0234 19.0273 66.3281 18.6172C66.6367 18.2031 66.791 17.5898 66.791 16.7773ZM71.2617 18.4121L72.7383 13.6602H73.8984L71.3496 20.9785C70.9551 22.0332 70.3281 22.5605 69.4688 22.5605L69.2637 22.543L68.8594 22.4668V21.5879L69.1523 21.6113C69.5195 21.6113 69.8047 21.5371 70.0078 21.3887C70.2148 21.2402 70.3848 20.9688 70.5176 20.5742L70.7578 19.9297L68.4961 13.6602H69.6797L71.2617 18.4121Z" fill="#22272E"/>
</g>
<defs>
<filter id="filter0_d" x="0" y="0" width="85" height="36" filterUnits="userSpaceOnUse" color-interpolation-filters="sRGB">
<feFlood flood-opacity="0" result="BackgroundImageFix"/>
<feColorMatrix in="SourceAlpha" type="matrix" values="0 0 0 0 0 0 0 0 0 0 0 0 0 0 0 0 0 0 127 0" result="hardAlpha"/>
<feOffset dy="2"/>
<feGaussianBlur stdDeviation="1"/>
<feComposite in2="hardAlpha" operator="out"/>
<feColorMatrix type="matrix" values="0 0 0 0 0 0 0 0 0 0 0 0 0 0 0 0 0 0 0.25 0"/>
<feBlend mode="normal" in2="BackgroundImageFix" result="effect1_dropShadow"/>
<feBlend mode="normal" in="SourceGraphic" in2="effect1_dropShadow" result="shape"/>
</filter>
<clipPath id="clip0">
<rect width="16.82" height="18" fill="white" transform="translate(10.59 7)"/>
</clipPath>
</defs>
</svg>
