<svg width="86" height="34" viewBox="0 0 86 34" fill="none" xmlns="http://www.w3.org/2000/svg">
<path d="M1.5 4C1.5 2.34315 2.84315 1 4.5 1H81.5C83.1569 1 84.5 2.34315 84.5 4V30C84.5 31.6569 83.1569 33 81.5 33H4.5C2.84314 33 1.5 31.6569 1.5 30V4Z" fill="#C9D1D9"/>
<path d="M16.0017 9.06425H17.969V13.1487H16.0025L16.0017 9.06425Z" fill="black"/>
<path d="M16.0017 17.4545H17.969V21.5397H16.0025L16.0017 17.4545Z" fill="black"/>
<path d="M16.0017 14.3412H17.969V16.2687H16.0025L16.0017 14.3412Z" fill="#FFCA00"/>
<path d="M12.842 12.422H14.8085V26H12.8412L12.842 12.422Z" fill="black"/>
<path d="M19.097 20.825H21.0642V24.9095H19.097V20.825Z" fill="black"/>
<path d="M19.097 12.4272H21.0642V16.5117H19.097V12.4272Z" fill="black"/>
<path d="M19.097 17.705H21.0642V19.6325H19.097V17.705Z" fill="#E70488"/>
<path d="M22.1915 8H24.1587V21.578H22.1915V8Z" fill="black"/>
<path d="M37.6152 17.6602V21H36.4902V12.4688H39.6367C40.5703 12.4688 41.3008 12.707 41.8281 13.1836C42.3594 13.6602 42.625 14.291 42.625 15.0762C42.625 15.9043 42.3652 16.543 41.8457 16.9922C41.3301 17.4375 40.5898 17.6602 39.625 17.6602H37.6152ZM37.6152 16.7402H39.6367C40.2383 16.7402 40.6992 16.5996 41.0195 16.3184C41.3398 16.0332 41.5 15.623 41.5 15.0879C41.5 14.5801 41.3398 14.1738 41.0195 13.8691C40.6992 13.5645 40.2598 13.4062 39.7012 13.3945H37.6152V16.7402ZM47.7344 21C47.6719 20.875 47.6211 20.6523 47.582 20.332C47.0781 20.8555 46.4766 21.1172 45.7773 21.1172C45.1523 21.1172 44.6387 20.9414 44.2363 20.5898C43.8379 20.2344 43.6387 19.7852 43.6387 19.2422C43.6387 18.582 43.8887 18.0703 44.3887 17.707C44.8926 17.3398 45.5996 17.1562 46.5098 17.1562H47.5645V16.6582C47.5645 16.2793 47.4512 15.9785 47.2246 15.7559C46.998 15.5293 46.6641 15.416 46.2227 15.416C45.8359 15.416 45.5117 15.5137 45.25 15.709C44.9883 15.9043 44.8574 16.1406 44.8574 16.418H43.7676C43.7676 16.1016 43.8789 15.7969 44.1016 15.5039C44.3281 15.207 44.6328 14.9727 45.0156 14.8008C45.4023 14.6289 45.8262 14.543 46.2871 14.543C47.0176 14.543 47.5898 14.7266 48.0039 15.0938C48.418 15.457 48.6328 15.959 48.6484 16.5996V19.5176C48.6484 20.0996 48.7227 20.5625 48.8711 20.9062V21H47.7344ZM45.9355 20.1738C46.2754 20.1738 46.5977 20.0859 46.9023 19.9102C47.207 19.7344 47.4277 19.5059 47.5645 19.2246V17.9238H46.7148C45.3867 17.9238 44.7227 18.3125 44.7227 19.0898C44.7227 19.4297 44.8359 19.6953 45.0625 19.8867C45.2891 20.0781 45.5801 20.1738 45.9355 20.1738ZM51.373 14.6602L51.4082 15.457C51.8926 14.8477 52.5254 14.543 53.3066 14.543C54.6465 14.543 55.3223 15.2988 55.334 16.8105V21H54.25V16.8047C54.2461 16.3477 54.1406 16.0098 53.9336 15.791C53.7305 15.5723 53.4121 15.4629 52.9785 15.4629C52.627 15.4629 52.3184 15.5566 52.0527 15.7441C51.7871 15.9316 51.5801 16.1777 51.4316 16.4824V21H50.3477V14.6602H51.373ZM56.7051 17.7773C56.7051 16.8047 56.9355 16.0234 57.3965 15.4336C57.8574 14.8398 58.4609 14.543 59.207 14.543C59.9492 14.543 60.5371 14.7969 60.9707 15.3047V12H62.0547V21H61.0586L61.0059 20.3203C60.5723 20.8516 59.9688 21.1172 59.1953 21.1172C58.4609 21.1172 57.8613 20.8164 57.3965 20.2148C56.9355 19.6133 56.7051 18.8281 56.7051 17.8594V17.7773ZM57.7891 17.9004C57.7891 18.6191 57.9375 19.1816 58.2344 19.5879C58.5312 19.9941 58.9414 20.1973 59.4648 20.1973C60.1523 20.1973 60.6543 19.8887 60.9707 19.2715V16.3594C60.6465 15.7617 60.1484 15.4629 59.4766 15.4629C58.9453 15.4629 58.5312 15.668 58.2344 16.0781C57.9375 16.4883 57.7891 17.0957 57.7891 17.9004ZM67.6562 21C67.5938 20.875 67.543 20.6523 67.5039 20.332C67 20.8555 66.3984 21.1172 65.6992 21.1172C65.0742 21.1172 64.5605 20.9414 64.1582 20.5898C63.7598 20.2344 63.5605 19.7852 63.5605 19.2422C63.5605 18.582 63.8105 18.0703 64.3105 17.707C64.8145 17.3398 65.5215 17.1562 66.4316 17.1562H67.4863V16.6582C67.4863 16.2793 67.373 15.9785 67.1465 15.7559C66.9199 15.5293 66.5859 15.416 66.1445 15.416C65.7578 15.416 65.4336 15.5137 65.1719 15.709C64.9102 15.9043 64.7793 16.1406 64.7793 16.418H63.6895C63.6895 16.1016 63.8008 15.7969 64.0234 15.5039C64.25 15.207 64.5547 14.9727 64.9375 14.8008C65.3242 14.6289 65.748 14.543 66.209 14.543C66.9395 14.543 67.5117 14.7266 67.9258 15.0938C68.3398 15.457 68.5547 15.959 68.5703 16.5996V19.5176C68.5703 20.0996 68.6445 20.5625 68.793 20.9062V21H67.6562ZM65.8574 20.1738C66.1973 20.1738 66.5195 20.0859 66.8242 19.9102C67.1289 19.7344 67.3496 19.5059 67.4863 19.2246V17.9238H66.6367C65.3086 17.9238 64.6445 18.3125 64.6445 19.0898C64.6445 19.4297 64.7578 19.6953 64.9844 19.8867C65.2109 20.0781 65.502 20.1738 65.8574 20.1738ZM73.9609 19.3184C73.9609 19.0254 73.8496 18.7988 73.627 18.6387C73.4082 18.4746 73.0234 18.334 72.4727 18.2168C71.9258 18.0996 71.4902 17.959 71.166 17.7949C70.8457 17.6309 70.6074 17.4355 70.4512 17.209C70.2988 16.9824 70.2227 16.7129 70.2227 16.4004C70.2227 15.8809 70.4414 15.4414 70.8789 15.082C71.3203 14.7227 71.8828 14.543 72.5664 14.543C73.2852 14.543 73.8672 14.7285 74.3125 15.0996C74.7617 15.4707 74.9863 15.9453 74.9863 16.5234H73.8965C73.8965 16.2266 73.7695 15.9707 73.5156 15.7559C73.2656 15.541 72.9492 15.4336 72.5664 15.4336C72.1719 15.4336 71.8633 15.5195 71.6406 15.6914C71.418 15.8633 71.3066 16.0879 71.3066 16.3652C71.3066 16.627 71.4102 16.8242 71.6172 16.957C71.8242 17.0898 72.1973 17.2168 72.7363 17.3379C73.2793 17.459 73.7188 17.6035 74.0547 17.7715C74.3906 17.9395 74.6387 18.1426 74.7988 18.3809C74.9629 18.6152 75.0449 18.9023 75.0449 19.2422C75.0449 19.8086 74.8184 20.2637 74.3652 20.6074C73.9121 20.9473 73.3242 21.1172 72.6016 21.1172C72.0938 21.1172 71.6445 21.0273 71.2539 20.8477C70.8633 20.668 70.5566 20.418 70.334 20.0977C70.1152 19.7734 70.0059 19.4238 70.0059 19.0488H71.0898C71.1094 19.4121 71.2539 19.7012 71.5234 19.916C71.7969 20.127 72.1562 20.2324 72.6016 20.2324C73.0117 20.2324 73.3398 20.1504 73.5859 19.9863C73.8359 19.8184 73.9609 19.5957 73.9609 19.3184Z" fill="#22272E"/>
<path d="M4.5 2H81.5V0H4.5V2ZM83.5 4V30H85.5V4H83.5ZM81.5 32H4.5V34H81.5V32ZM2.5 30V4H0.5V30H2.5ZM4.5 32C3.39543 32 2.5 31.1046 2.5 30H0.5C0.5 32.2091 2.29086 34 4.5 34V32ZM83.5 30C83.5 31.1046 82.6046 32 81.5 32V34C83.7091 34 85.5 32.2091 85.5 30H83.5ZM81.5 2C82.6046 2 83.5 2.89543 83.5 4H85.5C85.5 1.79086 83.7091 0 81.5 0V2ZM4.5 0C2.29086 0 0.5 1.79086 0.5 4H2.5C2.5 2.89543 3.39543 2 4.5 2V0Z" fill="#30363D"/>
</svg>
