<svg width="79" height="28" viewBox="0 0 79 28" fill="none" xmlns="http://www.w3.org/2000/svg">
<g filter="url(#filter0_d)">
<path d="M2.5 5C2.5 2.23858 4.73858 0 7.5 0H71.5C74.2614 0 76.5 2.23858 76.5 5V19C76.5 21.7614 74.2614 24 71.5 24H7.5C4.73858 24 2.5 21.7614 2.5 19V5Z" fill="white"/>
<path d="M14.0017 4.06425H15.969V8.14875H14.0025L14.0017 4.06425Z" fill="black"/>
<path d="M14.0017 12.4545H15.969V16.5397H14.0025L14.0017 12.4545Z" fill="black"/>
<path d="M14.0017 9.34125H15.969V11.2687H14.0025L14.0017 9.34125Z" fill="#FFCA00"/>
<path d="M10.842 7.422H12.8085V21H10.8412L10.842 7.422Z" fill="black"/>
<path d="M17.097 15.825H19.0642V19.9095H17.097V15.825Z" fill="black"/>
<path d="M17.097 7.42725H19.0642V11.5117H17.097V7.42725Z" fill="black"/>
<path d="M17.097 12.705H19.0642V14.6325H17.097V12.705Z" fill="#E70488"/>
<path d="M20.1915 3H22.1587V16.578H20.1915V3Z" fill="black"/>
<path d="M32.6152 12.6602V16H31.4902V7.46875H34.6367C35.5703 7.46875 36.3008 7.70703 36.8281 8.18359C37.3594 8.66016 37.625 9.29102 37.625 10.0762C37.625 10.9043 37.3652 11.543 36.8457 11.9922C36.3301 12.4375 35.5898 12.6602 34.625 12.6602H32.6152ZM32.6152 11.7402H34.6367C35.2383 11.7402 35.6992 11.5996 36.0195 11.3184C36.3398 11.0332 36.5 10.623 36.5 10.0879C36.5 9.58008 36.3398 9.17383 36.0195 8.86914C35.6992 8.56445 35.2598 8.40625 34.7012 8.39453H32.6152V11.7402ZM42.7344 16C42.6719 15.875 42.6211 15.6523 42.582 15.332C42.0781 15.8555 41.4766 16.1172 40.7773 16.1172C40.1523 16.1172 39.6387 15.9414 39.2363 15.5898C38.8379 15.2344 38.6387 14.7852 38.6387 14.2422C38.6387 13.582 38.8887 13.0703 39.3887 12.707C39.8926 12.3398 40.5996 12.1562 41.5098 12.1562H42.5645V11.6582C42.5645 11.2793 42.4512 10.9785 42.2246 10.7559C41.998 10.5293 41.6641 10.416 41.2227 10.416C40.8359 10.416 40.5117 10.5137 40.25 10.709C39.9883 10.9043 39.8574 11.1406 39.8574 11.418H38.7676C38.7676 11.1016 38.8789 10.7969 39.1016 10.5039C39.3281 10.207 39.6328 9.97266 40.0156 9.80078C40.4023 9.62891 40.8262 9.54297 41.2871 9.54297C42.0176 9.54297 42.5898 9.72656 43.0039 10.0938C43.418 10.457 43.6328 10.959 43.6484 11.5996V14.5176C43.6484 15.0996 43.7227 15.5625 43.8711 15.9062V16H42.7344ZM40.9355 15.1738C41.2754 15.1738 41.5977 15.0859 41.9023 14.9102C42.207 14.7344 42.4277 14.5059 42.5645 14.2246V12.9238H41.7148C40.3867 12.9238 39.7227 13.3125 39.7227 14.0898C39.7227 14.4297 39.8359 14.6953 40.0625 14.8867C40.2891 15.0781 40.5801 15.1738 40.9355 15.1738ZM46.373 9.66016L46.4082 10.457C46.8926 9.84766 47.5254 9.54297 48.3066 9.54297C49.6465 9.54297 50.3223 10.2988 50.334 11.8105V16H49.25V11.8047C49.2461 11.3477 49.1406 11.0098 48.9336 10.791C48.7305 10.5723 48.4121 10.4629 47.9785 10.4629C47.627 10.4629 47.3184 10.5566 47.0527 10.7441C46.7871 10.9316 46.5801 11.1777 46.4316 11.4824V16H45.3477V9.66016H46.373ZM51.7051 12.7773C51.7051 11.8047 51.9355 11.0234 52.3965 10.4336C52.8574 9.83984 53.4609 9.54297 54.207 9.54297C54.9492 9.54297 55.5371 9.79688 55.9707 10.3047V7H57.0547V16H56.0586L56.0059 15.3203C55.5723 15.8516 54.9688 16.1172 54.1953 16.1172C53.4609 16.1172 52.8613 15.8164 52.3965 15.2148C51.9355 14.6133 51.7051 13.8281 51.7051 12.8594V12.7773ZM52.7891 12.9004C52.7891 13.6191 52.9375 14.1816 53.2344 14.5879C53.5312 14.9941 53.9414 15.1973 54.4648 15.1973C55.1523 15.1973 55.6543 14.8887 55.9707 14.2715V11.3594C55.6465 10.7617 55.1484 10.4629 54.4766 10.4629C53.9453 10.4629 53.5312 10.668 53.2344 11.0781C52.9375 11.4883 52.7891 12.0957 52.7891 12.9004ZM62.6562 16C62.5938 15.875 62.543 15.6523 62.5039 15.332C62 15.8555 61.3984 16.1172 60.6992 16.1172C60.0742 16.1172 59.5605 15.9414 59.1582 15.5898C58.7598 15.2344 58.5605 14.7852 58.5605 14.2422C58.5605 13.582 58.8105 13.0703 59.3105 12.707C59.8145 12.3398 60.5215 12.1562 61.4316 12.1562H62.4863V11.6582C62.4863 11.2793 62.373 10.9785 62.1465 10.7559C61.9199 10.5293 61.5859 10.416 61.1445 10.416C60.7578 10.416 60.4336 10.5137 60.1719 10.709C59.9102 10.9043 59.7793 11.1406 59.7793 11.418H58.6895C58.6895 11.1016 58.8008 10.7969 59.0234 10.5039C59.25 10.207 59.5547 9.97266 59.9375 9.80078C60.3242 9.62891 60.748 9.54297 61.209 9.54297C61.9395 9.54297 62.5117 9.72656 62.9258 10.0938C63.3398 10.457 63.5547 10.959 63.5703 11.5996V14.5176C63.5703 15.0996 63.6445 15.5625 63.793 15.9062V16H62.6562ZM60.8574 15.1738C61.1973 15.1738 61.5195 15.0859 61.8242 14.9102C62.1289 14.7344 62.3496 14.5059 62.4863 14.2246V12.9238H61.6367C60.3086 12.9238 59.6445 13.3125 59.6445 14.0898C59.6445 14.4297 59.7578 14.6953 59.9844 14.8867C60.2109 15.0781 60.502 15.1738 60.8574 15.1738ZM68.9609 14.3184C68.9609 14.0254 68.8496 13.7988 68.627 13.6387C68.4082 13.4746 68.0234 13.334 67.4727 13.2168C66.9258 13.0996 66.4902 12.959 66.166 12.7949C65.8457 12.6309 65.6074 12.4355 65.4512 12.209C65.2988 11.9824 65.2227 11.7129 65.2227 11.4004C65.2227 10.8809 65.4414 10.4414 65.8789 10.082C66.3203 9.72266 66.8828 9.54297 67.5664 9.54297C68.2852 9.54297 68.8672 9.72852 69.3125 10.0996C69.7617 10.4707 69.9863 10.9453 69.9863 11.5234H68.8965C68.8965 11.2266 68.7695 10.9707 68.5156 10.7559C68.2656 10.541 67.9492 10.4336 67.5664 10.4336C67.1719 10.4336 66.8633 10.5195 66.6406 10.6914C66.418 10.8633 66.3066 11.0879 66.3066 11.3652C66.3066 11.627 66.4102 11.8242 66.6172 11.957C66.8242 12.0898 67.1973 12.2168 67.7363 12.3379C68.2793 12.459 68.7188 12.6035 69.0547 12.7715C69.3906 12.9395 69.6387 13.1426 69.7988 13.3809C69.9629 13.6152 70.0449 13.9023 70.0449 14.2422C70.0449 14.8086 69.8184 15.2637 69.3652 15.6074C68.9121 15.9473 68.3242 16.1172 67.6016 16.1172C67.0938 16.1172 66.6445 16.0273 66.2539 15.8477C65.8633 15.668 65.5566 15.418 65.334 15.0977C65.1152 14.7734 65.0059 14.4238 65.0059 14.0488H66.0898C66.1094 14.4121 66.2539 14.7012 66.5234 14.916C66.7969 15.127 67.1562 15.2324 67.6016 15.2324C68.0117 15.2324 68.3398 15.1504 68.5859 14.9863C68.8359 14.8184 68.9609 14.5957 68.9609 14.3184Z" fill="black"/>
</g>
<defs>
<filter id="filter0_d" x="0.5" y="0" width="78" height="28" filterUnits="userSpaceOnUse" color-interpolation-filters="sRGB">
<feFlood flood-opacity="0" result="BackgroundImageFix"/>
<feColorMatrix in="SourceAlpha" type="matrix" values="0 0 0 0 0 0 0 0 0 0 0 0 0 0 0 0 0 0 127 0" result="hardAlpha"/>
<feOffset dy="2"/>
<feGaussianBlur stdDeviation="1"/>
<feComposite in2="hardAlpha" operator="out"/>
<feColorMatrix type="matrix" values="0 0 0 0 0 0 0 0 0 0 0 0 0 0 0 0 0 0 0.25 0"/>
<feBlend mode="normal" in2="BackgroundImageFix" result="effect1_dropShadow"/>
<feBlend mode="normal" in="SourceGraphic" in2="effect1_dropShadow" result="shape"/>
</filter>
</defs>
</svg>
