<svg width="116" height="47" viewBox="0 0 116 47" fill="none" xmlns="http://www.w3.org/2000/svg">
<rect x="1" y="1" width="114" height="45" rx="4" fill="#22272E"/>
<g clip-path="url(#clip0_28_4937)">
<path d="M28.6916 14.5H30.6588V28.078H28.6916V14.5ZM25.5971 24.205H27.5643V26.1325H25.5971V24.205ZM25.5971 18.9272H27.5643V23.0118H25.5971V18.9272ZM25.5971 27.325H27.5643V31.4095H25.5971V27.325ZM19.3421 18.922H21.3086V32.5H19.3413L19.3421 18.922ZM22.5018 20.8412H24.4691V22.7687H22.5026L22.5018 20.8412ZM22.5018 23.9545H24.4691V28.0397H22.5026L22.5018 23.9545ZM22.5018 15.5642H24.4691V19.6487H22.5026L22.5018 15.5642Z" fill="#ADBAC7"/>
</g>
<path d="M48.7812 25.7656V30H47.4688V18.7969H50.5469C51.7448 18.7969 52.6719 19.0885 53.3281 19.6719C53.9896 20.2552 54.3203 21.0781 54.3203 22.1406C54.3203 23.2031 53.9531 24.0729 53.2188 24.75C52.4896 25.4271 51.5026 25.7656 50.2578 25.7656H48.7812ZM48.7812 19.9844V24.5781H50.1562C51.0625 24.5781 51.7526 24.3724 52.2266 23.9609C52.7057 23.5443 52.9453 22.9583 52.9453 22.2031C52.9453 20.724 52.0703 19.9844 50.3203 19.9844H48.7812ZM61.4453 30H60.1641V28.75H60.1328C59.5755 29.7083 58.7552 30.1875 57.6719 30.1875C56.875 30.1875 56.25 29.9766 55.7969 29.5547C55.349 29.1328 55.125 28.5729 55.125 27.875C55.125 26.3802 56.0052 25.5104 57.7656 25.2656L60.1641 24.9297C60.1641 23.5703 59.6146 22.8906 58.5156 22.8906C57.5521 22.8906 56.6823 23.2188 55.9062 23.875V22.5625C56.6927 22.0625 57.599 21.8125 58.625 21.8125C60.5052 21.8125 61.4453 22.8073 61.4453 24.7969V30ZM60.1641 25.9531L58.2344 26.2188C57.6406 26.3021 57.1927 26.4505 56.8906 26.6641C56.5885 26.8724 56.4375 27.2448 56.4375 27.7812C56.4375 28.1719 56.5755 28.4922 56.8516 28.7422C57.1328 28.987 57.5052 29.1094 57.9688 29.1094C58.6042 29.1094 59.1276 28.888 59.5391 28.4453C59.9557 27.9974 60.1641 27.4323 60.1641 26.75V25.9531ZM70.5 30H69.2188V25.4375C69.2188 23.7396 68.599 22.8906 67.3594 22.8906C66.7188 22.8906 66.1875 23.1328 65.7656 23.6172C65.349 24.0964 65.1406 24.7031 65.1406 25.4375V30H63.8594V22H65.1406V23.3281H65.1719C65.776 22.3177 66.651 21.8125 67.7969 21.8125C68.6719 21.8125 69.3411 22.0964 69.8047 22.6641C70.2682 23.2266 70.5 24.0417 70.5 25.1094V30ZM79.75 30H78.4688V28.6406H78.4375C77.8438 29.6719 76.9271 30.1875 75.6875 30.1875C74.6823 30.1875 73.8776 29.8307 73.2734 29.1172C72.6745 28.3984 72.375 27.4219 72.375 26.1875C72.375 24.8646 72.7083 23.8047 73.375 23.0078C74.0417 22.2109 74.9297 21.8125 76.0391 21.8125C77.138 21.8125 77.9375 22.2448 78.4375 23.1094H78.4688V18.1562H79.75V30ZM78.4688 26.3828V25.2031C78.4688 24.5573 78.2552 24.0104 77.8281 23.5625C77.401 23.1146 76.8594 22.8906 76.2031 22.8906C75.4219 22.8906 74.8073 23.1771 74.3594 23.75C73.9115 24.3229 73.6875 25.1146 73.6875 26.125C73.6875 27.0469 73.901 27.776 74.3281 28.3125C74.7604 28.8438 75.3385 29.1094 76.0625 29.1094C76.776 29.1094 77.3542 28.8516 77.7969 28.3359C78.2448 27.8203 78.4688 27.1693 78.4688 26.3828ZM88.0703 30H86.7891V28.75H86.7578C86.2005 29.7083 85.3802 30.1875 84.2969 30.1875C83.5 30.1875 82.875 29.9766 82.4219 29.5547C81.974 29.1328 81.75 28.5729 81.75 27.875C81.75 26.3802 82.6302 25.5104 84.3906 25.2656L86.7891 24.9297C86.7891 23.5703 86.2396 22.8906 85.1406 22.8906C84.1771 22.8906 83.3073 23.2188 82.5312 23.875V22.5625C83.3177 22.0625 84.224 21.8125 85.25 21.8125C87.1302 21.8125 88.0703 22.8073 88.0703 24.7969V30ZM86.7891 25.9531L84.8594 26.2188C84.2656 26.3021 83.8177 26.4505 83.5156 26.6641C83.2135 26.8724 83.0625 27.2448 83.0625 27.7812C83.0625 28.1719 83.2005 28.4922 83.4766 28.7422C83.7578 28.987 84.1302 29.1094 84.5938 29.1094C85.2292 29.1094 85.7526 28.888 86.1641 28.4453C86.5807 27.9974 86.7891 27.4323 86.7891 26.75V25.9531ZM90 29.7109V28.3359C90.6979 28.8516 91.4661 29.1094 92.3047 29.1094C93.4297 29.1094 93.9922 28.7344 93.9922 27.9844C93.9922 27.7708 93.9427 27.5911 93.8438 27.4453C93.75 27.2943 93.6198 27.1615 93.4531 27.0469C93.2917 26.9323 93.099 26.8307 92.875 26.7422C92.6562 26.6484 92.4193 26.5521 92.1641 26.4531C91.8099 26.3125 91.4974 26.1719 91.2266 26.0312C90.9609 25.8854 90.737 25.724 90.5547 25.5469C90.3776 25.3646 90.2422 25.1589 90.1484 24.9297C90.0599 24.7005 90.0156 24.4323 90.0156 24.125C90.0156 23.75 90.1016 23.4193 90.2734 23.1328C90.4453 22.8411 90.6745 22.599 90.9609 22.4062C91.2474 22.2083 91.5729 22.0599 91.9375 21.9609C92.3073 21.862 92.6875 21.8125 93.0781 21.8125C93.7708 21.8125 94.3906 21.9323 94.9375 22.1719V23.4688C94.349 23.0833 93.6719 22.8906 92.9062 22.8906C92.6667 22.8906 92.4505 22.9193 92.2578 22.9766C92.0651 23.0286 91.8984 23.1042 91.7578 23.2031C91.6224 23.3021 91.5156 23.4219 91.4375 23.5625C91.3646 23.6979 91.3281 23.849 91.3281 24.0156C91.3281 24.224 91.3646 24.3984 91.4375 24.5391C91.5156 24.6797 91.6276 24.8047 91.7734 24.9141C91.9193 25.0234 92.0964 25.1224 92.3047 25.2109C92.513 25.2995 92.75 25.3958 93.0156 25.5C93.3698 25.6354 93.6875 25.776 93.9688 25.9219C94.25 26.0625 94.4896 26.224 94.6875 26.4062C94.8854 26.5833 95.0365 26.7891 95.1406 27.0234C95.25 27.2578 95.3047 27.5365 95.3047 27.8594C95.3047 28.2552 95.2161 28.599 95.0391 28.8906C94.8672 29.1823 94.6354 29.4245 94.3438 29.6172C94.0521 29.8099 93.7161 29.9531 93.3359 30.0469C92.9557 30.1406 92.5573 30.1875 92.1406 30.1875C91.3177 30.1875 90.6042 30.0286 90 29.7109Z" fill="#ADBAC7"/>
<rect x="1" y="1" width="114" height="45" rx="4" stroke="#444C56" stroke-width="2"/>
<defs>
<clipPath id="clip0_28_4937">
<rect width="18" height="18" fill="white" transform="translate(16 14.5)"/>
</clipPath>
</defs>
</svg>
