<svg width="88" height="36" viewBox="0 0 88 36" fill="none" xmlns="http://www.w3.org/2000/svg">
<g filter="url(#filter0_d)">
<path d="M2.5 3C2.5 1.34315 3.84315 0 5.5 0H82.5C84.1569 0 85.5 1.34315 85.5 3V29C85.5 30.6569 84.1569 32 82.5 32H5.5C3.84314 32 2.5 30.6569 2.5 29V3Z" fill="#C9D1D9"/>
<path d="M17.0017 8.06425H18.969V12.1487H17.0025L17.0017 8.06425Z" fill="black"/>
<path d="M17.0017 16.4545H18.969V20.5397H17.0025L17.0017 16.4545Z" fill="black"/>
<path d="M17.0017 13.3412H18.969V15.2687H17.0025L17.0017 13.3412Z" fill="#FFCA00"/>
<path d="M13.842 11.422H15.8085V25H13.8412L13.842 11.422Z" fill="black"/>
<path d="M20.097 19.825H22.0642V23.9095H20.097V19.825Z" fill="black"/>
<path d="M20.097 11.4272H22.0642V15.5117H20.097V11.4272Z" fill="black"/>
<path d="M20.097 16.705H22.0642V18.6325H20.097V16.705Z" fill="#E70488"/>
<path d="M23.1915 7H25.1587V20.578H23.1915V7Z" fill="black"/>
<path d="M38.6152 16.6602V20H37.4902V11.4688H40.6367C41.5703 11.4688 42.3008 11.707 42.8281 12.1836C43.3594 12.6602 43.625 13.291 43.625 14.0762C43.625 14.9043 43.3652 15.543 42.8457 15.9922C42.3301 16.4375 41.5898 16.6602 40.625 16.6602H38.6152ZM38.6152 15.7402H40.6367C41.2383 15.7402 41.6992 15.5996 42.0195 15.3184C42.3398 15.0332 42.5 14.623 42.5 14.0879C42.5 13.5801 42.3398 13.1738 42.0195 12.8691C41.6992 12.5645 41.2598 12.4062 40.7012 12.3945H38.6152V15.7402ZM48.7344 20C48.6719 19.875 48.6211 19.6523 48.582 19.332C48.0781 19.8555 47.4766 20.1172 46.7773 20.1172C46.1523 20.1172 45.6387 19.9414 45.2363 19.5898C44.8379 19.2344 44.6387 18.7852 44.6387 18.2422C44.6387 17.582 44.8887 17.0703 45.3887 16.707C45.8926 16.3398 46.5996 16.1562 47.5098 16.1562H48.5645V15.6582C48.5645 15.2793 48.4512 14.9785 48.2246 14.7559C47.998 14.5293 47.6641 14.416 47.2227 14.416C46.8359 14.416 46.5117 14.5137 46.25 14.709C45.9883 14.9043 45.8574 15.1406 45.8574 15.418H44.7676C44.7676 15.1016 44.8789 14.7969 45.1016 14.5039C45.3281 14.207 45.6328 13.9727 46.0156 13.8008C46.4023 13.6289 46.8262 13.543 47.2871 13.543C48.0176 13.543 48.5898 13.7266 49.0039 14.0938C49.418 14.457 49.6328 14.959 49.6484 15.5996V18.5176C49.6484 19.0996 49.7227 19.5625 49.8711 19.9062V20H48.7344ZM46.9355 19.1738C47.2754 19.1738 47.5977 19.0859 47.9023 18.9102C48.207 18.7344 48.4277 18.5059 48.5645 18.2246V16.9238H47.7148C46.3867 16.9238 45.7227 17.3125 45.7227 18.0898C45.7227 18.4297 45.8359 18.6953 46.0625 18.8867C46.2891 19.0781 46.5801 19.1738 46.9355 19.1738ZM52.373 13.6602L52.4082 14.457C52.8926 13.8477 53.5254 13.543 54.3066 13.543C55.6465 13.543 56.3223 14.2988 56.334 15.8105V20H55.25V15.8047C55.2461 15.3477 55.1406 15.0098 54.9336 14.791C54.7305 14.5723 54.4121 14.4629 53.9785 14.4629C53.627 14.4629 53.3184 14.5566 53.0527 14.7441C52.7871 14.9316 52.5801 15.1777 52.4316 15.4824V20H51.3477V13.6602H52.373ZM57.7051 16.7773C57.7051 15.8047 57.9355 15.0234 58.3965 14.4336C58.8574 13.8398 59.4609 13.543 60.207 13.543C60.9492 13.543 61.5371 13.7969 61.9707 14.3047V11H63.0547V20H62.0586L62.0059 19.3203C61.5723 19.8516 60.9688 20.1172 60.1953 20.1172C59.4609 20.1172 58.8613 19.8164 58.3965 19.2148C57.9355 18.6133 57.7051 17.8281 57.7051 16.8594V16.7773ZM58.7891 16.9004C58.7891 17.6191 58.9375 18.1816 59.2344 18.5879C59.5312 18.9941 59.9414 19.1973 60.4648 19.1973C61.1523 19.1973 61.6543 18.8887 61.9707 18.2715V15.3594C61.6465 14.7617 61.1484 14.4629 60.4766 14.4629C59.9453 14.4629 59.5312 14.668 59.2344 15.0781C58.9375 15.4883 58.7891 16.0957 58.7891 16.9004ZM68.6562 20C68.5938 19.875 68.543 19.6523 68.5039 19.332C68 19.8555 67.3984 20.1172 66.6992 20.1172C66.0742 20.1172 65.5605 19.9414 65.1582 19.5898C64.7598 19.2344 64.5605 18.7852 64.5605 18.2422C64.5605 17.582 64.8105 17.0703 65.3105 16.707C65.8145 16.3398 66.5215 16.1562 67.4316 16.1562H68.4863V15.6582C68.4863 15.2793 68.373 14.9785 68.1465 14.7559C67.9199 14.5293 67.5859 14.416 67.1445 14.416C66.7578 14.416 66.4336 14.5137 66.1719 14.709C65.9102 14.9043 65.7793 15.1406 65.7793 15.418H64.6895C64.6895 15.1016 64.8008 14.7969 65.0234 14.5039C65.25 14.207 65.5547 13.9727 65.9375 13.8008C66.3242 13.6289 66.748 13.543 67.209 13.543C67.9395 13.543 68.5117 13.7266 68.9258 14.0938C69.3398 14.457 69.5547 14.959 69.5703 15.5996V18.5176C69.5703 19.0996 69.6445 19.5625 69.793 19.9062V20H68.6562ZM66.8574 19.1738C67.1973 19.1738 67.5195 19.0859 67.8242 18.9102C68.1289 18.7344 68.3496 18.5059 68.4863 18.2246V16.9238H67.6367C66.3086 16.9238 65.6445 17.3125 65.6445 18.0898C65.6445 18.4297 65.7578 18.6953 65.9844 18.8867C66.2109 19.0781 66.502 19.1738 66.8574 19.1738ZM74.9609 18.3184C74.9609 18.0254 74.8496 17.7988 74.627 17.6387C74.4082 17.4746 74.0234 17.334 73.4727 17.2168C72.9258 17.0996 72.4902 16.959 72.166 16.7949C71.8457 16.6309 71.6074 16.4355 71.4512 16.209C71.2988 15.9824 71.2227 15.7129 71.2227 15.4004C71.2227 14.8809 71.4414 14.4414 71.8789 14.082C72.3203 13.7227 72.8828 13.543 73.5664 13.543C74.2852 13.543 74.8672 13.7285 75.3125 14.0996C75.7617 14.4707 75.9863 14.9453 75.9863 15.5234H74.8965C74.8965 15.2266 74.7695 14.9707 74.5156 14.7559C74.2656 14.541 73.9492 14.4336 73.5664 14.4336C73.1719 14.4336 72.8633 14.5195 72.6406 14.6914C72.418 14.8633 72.3066 15.0879 72.3066 15.3652C72.3066 15.627 72.4102 15.8242 72.6172 15.957C72.8242 16.0898 73.1973 16.2168 73.7363 16.3379C74.2793 16.459 74.7188 16.6035 75.0547 16.7715C75.3906 16.9395 75.6387 17.1426 75.7988 17.3809C75.9629 17.6152 76.0449 17.9023 76.0449 18.2422C76.0449 18.8086 75.8184 19.2637 75.3652 19.6074C74.9121 19.9473 74.3242 20.1172 73.6016 20.1172C73.0938 20.1172 72.6445 20.0273 72.2539 19.8477C71.8633 19.668 71.5566 19.418 71.334 19.0977C71.1152 18.7734 71.0059 18.4238 71.0059 18.0488H72.0898C72.1094 18.4121 72.2539 18.7012 72.5234 18.916C72.7969 19.127 73.1562 19.2324 73.6016 19.2324C74.0117 19.2324 74.3398 19.1504 74.5859 18.9863C74.8359 18.8184 74.9609 18.5957 74.9609 18.3184Z" fill="#22272E"/>
</g>
<defs>
<filter id="filter0_d" x="0.5" y="0" width="87" height="36" filterUnits="userSpaceOnUse" color-interpolation-filters="sRGB">
<feFlood flood-opacity="0" result="BackgroundImageFix"/>
<feColorMatrix in="SourceAlpha" type="matrix" values="0 0 0 0 0 0 0 0 0 0 0 0 0 0 0 0 0 0 127 0" result="hardAlpha"/>
<feOffset dy="2"/>
<feGaussianBlur stdDeviation="1"/>
<feComposite in2="hardAlpha" operator="out"/>
<feColorMatrix type="matrix" values="0 0 0 0 0 0 0 0 0 0 0 0 0 0 0 0 0 0 0.25 0"/>
<feBlend mode="normal" in2="BackgroundImageFix" result="effect1_dropShadow"/>
<feBlend mode="normal" in="SourceGraphic" in2="effect1_dropShadow" result="shape"/>
</filter>
</defs>
</svg>
