<svg width="96" height="39" viewBox="0 0 96 39" fill="none" xmlns="http://www.w3.org/2000/svg">
<path d="M1 4C1 2.34315 2.34315 1 4 1H92C93.6569 1 95 2.34315 95 4V35C95 36.6569 93.6569 38 92 38H4C2.34315 38 1 36.6569 1 35V4Z" fill="#22272E"/>
<g clip-path="url(#clip0)">
<path d="M23.6915 10.5H25.6587V24.078H23.6915V10.5ZM20.597 20.205H22.5642V22.1325H20.597V20.205ZM20.597 14.9272H22.5642V19.0117H20.597V14.9272ZM20.597 23.325H22.5642V27.4095H20.597V23.325ZM14.342 14.922H16.3085V28.5H14.3412L14.342 14.922ZM17.5017 16.8412H19.469V18.7687H17.5025L17.5017 16.8412ZM17.5017 19.9545H19.469V24.0397H17.5025L17.5017 19.9545ZM17.5017 11.5643H19.469V15.6487H17.5025L17.5017 11.5643Z" fill="#ADBAC7"/>
</g>
<path d="M43.4336 21.2949V25H42.2852V15.1973H44.9785C46.0267 15.1973 46.8379 15.4525 47.4121 15.9629C47.9909 16.4733 48.2803 17.1934 48.2803 18.123C48.2803 19.0527 47.959 19.8138 47.3164 20.4062C46.6784 20.9987 45.8148 21.2949 44.7256 21.2949H43.4336ZM43.4336 16.2363V20.2559H44.6367C45.4297 20.2559 46.0335 20.0758 46.4482 19.7158C46.8675 19.3512 47.0771 18.8385 47.0771 18.1777C47.0771 16.8835 46.3115 16.2363 44.7803 16.2363H43.4336ZM54.542 25H53.4209V23.9062H53.3936C52.9059 24.7448 52.1882 25.1641 51.2402 25.1641C50.543 25.1641 49.9961 24.9795 49.5996 24.6104C49.2077 24.2412 49.0117 23.7513 49.0117 23.1406C49.0117 21.8327 49.7819 21.0716 51.3223 20.8574L53.4209 20.5635C53.4209 19.374 52.9401 18.7793 51.9785 18.7793C51.1354 18.7793 50.3743 19.0664 49.6953 19.6406V18.4922C50.3835 18.0547 51.1764 17.8359 52.0742 17.8359C53.7194 17.8359 54.542 18.7064 54.542 20.4473V25ZM53.4209 21.459L51.7324 21.6914C51.2129 21.7643 50.821 21.8942 50.5566 22.0811C50.2923 22.2633 50.1602 22.5892 50.1602 23.0586C50.1602 23.4004 50.2809 23.6807 50.5225 23.8994C50.7686 24.1136 51.0944 24.2207 51.5 24.2207C52.056 24.2207 52.514 24.027 52.874 23.6396C53.2386 23.2477 53.4209 22.7533 53.4209 22.1562V21.459ZM62.4648 25H61.3438V21.0078C61.3438 19.5221 60.8014 18.7793 59.7168 18.7793C59.1562 18.7793 58.6914 18.9912 58.3223 19.415C57.9577 19.8343 57.7754 20.3652 57.7754 21.0078V25H56.6543V18H57.7754V19.1621H57.8027C58.3314 18.278 59.097 17.8359 60.0996 17.8359C60.8652 17.8359 61.4508 18.0843 61.8564 18.5811C62.262 19.0732 62.4648 19.7865 62.4648 20.7207V25ZM70.5586 25H69.4375V23.8105H69.4102C68.8906 24.7129 68.0885 25.1641 67.0039 25.1641C66.1243 25.1641 65.4202 24.8519 64.8916 24.2275C64.3675 23.5986 64.1055 22.7441 64.1055 21.6641C64.1055 20.5065 64.3971 19.5791 64.9805 18.8818C65.5638 18.1846 66.3408 17.8359 67.3115 17.8359C68.2731 17.8359 68.9727 18.2142 69.4102 18.9707H69.4375V14.6367H70.5586V25ZM69.4375 21.835V20.8027C69.4375 20.2376 69.2507 19.7591 68.877 19.3672C68.5033 18.9753 68.0293 18.7793 67.4551 18.7793C66.7715 18.7793 66.2337 19.0299 65.8418 19.5312C65.4499 20.0326 65.2539 20.7253 65.2539 21.6094C65.2539 22.416 65.4408 23.054 65.8145 23.5234C66.1927 23.9883 66.6986 24.2207 67.332 24.2207C67.9564 24.2207 68.4622 23.9951 68.8496 23.5439C69.2415 23.0928 69.4375 22.5231 69.4375 21.835ZM77.8389 25H76.7178V23.9062H76.6904C76.2028 24.7448 75.485 25.1641 74.5371 25.1641C73.8398 25.1641 73.293 24.9795 72.8965 24.6104C72.5046 24.2412 72.3086 23.7513 72.3086 23.1406C72.3086 21.8327 73.0788 21.0716 74.6191 20.8574L76.7178 20.5635C76.7178 19.374 76.237 18.7793 75.2754 18.7793C74.4323 18.7793 73.6712 19.0664 72.9922 19.6406V18.4922C73.6803 18.0547 74.4733 17.8359 75.3711 17.8359C77.0163 17.8359 77.8389 18.7064 77.8389 20.4473V25ZM76.7178 21.459L75.0293 21.6914C74.5098 21.7643 74.1178 21.8942 73.8535 22.0811C73.5892 22.2633 73.457 22.5892 73.457 23.0586C73.457 23.4004 73.5778 23.6807 73.8193 23.8994C74.0654 24.1136 74.3913 24.2207 74.7969 24.2207C75.3529 24.2207 75.8109 24.027 76.1709 23.6396C76.5355 23.2477 76.7178 22.7533 76.7178 22.1562V21.459ZM79.5273 24.7471V23.5439C80.138 23.9951 80.8102 24.2207 81.5439 24.2207C82.5283 24.2207 83.0205 23.8926 83.0205 23.2363C83.0205 23.0495 82.9772 22.8923 82.8906 22.7646C82.8086 22.6325 82.6947 22.5163 82.5488 22.416C82.4076 22.3158 82.2389 22.2269 82.043 22.1494C81.8516 22.0674 81.6442 21.9831 81.4209 21.8965C81.111 21.7734 80.8376 21.6504 80.6006 21.5273C80.3682 21.3997 80.1722 21.2585 80.0127 21.1035C79.8577 20.944 79.7393 20.764 79.6572 20.5635C79.5798 20.363 79.541 20.1283 79.541 19.8594C79.541 19.5312 79.6162 19.2419 79.7666 18.9912C79.917 18.736 80.1175 18.5241 80.3682 18.3555C80.6188 18.1823 80.9036 18.0524 81.2227 17.9658C81.5462 17.8792 81.8789 17.8359 82.2207 17.8359C82.8268 17.8359 83.3691 17.9408 83.8477 18.1504V19.2852C83.3327 18.9479 82.7402 18.7793 82.0703 18.7793C81.8607 18.7793 81.6715 18.8044 81.5029 18.8545C81.3343 18.9001 81.1885 18.9661 81.0654 19.0527C80.9469 19.1393 80.8535 19.2441 80.7852 19.3672C80.7214 19.4857 80.6895 19.6178 80.6895 19.7637C80.6895 19.946 80.7214 20.0986 80.7852 20.2217C80.8535 20.3447 80.9515 20.4541 81.0791 20.5498C81.2067 20.6455 81.3617 20.7321 81.5439 20.8096C81.7262 20.887 81.9336 20.9714 82.166 21.0625C82.4759 21.181 82.7539 21.304 83 21.4316C83.2461 21.5547 83.4557 21.696 83.6289 21.8555C83.8021 22.0104 83.9342 22.1904 84.0254 22.3955C84.1211 22.6006 84.1689 22.8444 84.1689 23.127C84.1689 23.4733 84.0915 23.7741 83.9365 24.0293C83.7861 24.2845 83.5833 24.4964 83.3281 24.665C83.0729 24.8337 82.779 24.959 82.4463 25.041C82.1136 25.123 81.765 25.1641 81.4004 25.1641C80.6803 25.1641 80.056 25.0251 79.5273 24.7471Z" fill="#ADBAC7"/>
<path d="M4 2H92V0H4V2ZM94 4V35H96V4H94ZM92 37H4V39H92V37ZM2 35V4H0V35H2ZM4 37C2.89543 37 2 36.1046 2 35H0C0 37.2091 1.79086 39 4 39V37ZM94 35C94 36.1046 93.1046 37 92 37V39C94.2091 39 96 37.2091 96 35H94ZM92 2C93.1046 2 94 2.89543 94 4H96C96 1.79086 94.2091 0 92 0V2ZM4 0C1.79086 0 0 1.79086 0 4H2C2 2.89543 2.89543 2 4 2V0Z" fill="#444C56"/>
<defs>
<clipPath id="clip0">
<rect width="18" height="18" fill="white" transform="translate(11 10.5)"/>
</clipPath>
</defs>
</svg>
