<svg xmlns="http://www.w3.org/2000/svg" width="146" height="56" fill="none"><rect width="128" height="48" x="9" y="4" fill="#F3E5F5" rx="4"/><g clip-path="url(#a)"><path fill="#000" d="M37.223 19.18h2.187v4.54h-2.186v-4.54ZM37.223 28.505h2.187v4.54h-2.186v-4.54Z"/><path fill="#FFCA00" d="M37.223 25.045h2.187v2.142h-2.186v-2.142Z"/><path fill="#000" d="M33.712 22.912h2.185v15.091h-2.186V22.912ZM40.664 32.251h2.186v4.54h-2.186v-4.54ZM40.664 22.918h2.186v4.54h-2.186v-4.54Z"/><path fill="#E70488" d="M40.664 28.784h2.186v2.142h-2.186v-2.142Z"/><path fill="#000" d="M44.103 17.997h2.186v15.091h-2.186V17.997Z"/></g><path fill="#000" d="M70.781 30.266V34.5H69.47V23.297h3.078c1.198 0 2.125.291 2.781.875.662.583.992 1.406.992 2.469 0 1.062-.367 1.932-1.101 2.609-.73.677-1.716 1.016-2.961 1.016H70.78Zm0-5.782v4.594h1.375c.906 0 1.597-.206 2.07-.617.48-.417.72-1.003.72-1.758 0-1.479-.876-2.219-2.626-2.219h-1.539ZM83.445 34.5h-1.28v-1.25h-.032c-.557.958-1.378 1.438-2.461 1.438-.797 0-1.422-.211-1.875-.633-.448-.422-.672-.982-.672-1.68 0-1.495.88-2.365 2.64-2.61l2.4-.335c0-1.36-.55-2.04-1.65-2.04-.963 0-1.833.329-2.609.985v-1.313c.787-.5 1.693-.75 2.719-.75 1.88 0 2.82.995 2.82 2.985V34.5Zm-1.28-4.047-1.93.266c-.594.083-1.042.232-1.344.445-.303.208-.454.58-.454 1.117 0 .39.139.711.415.961.28.245.653.367 1.117.367.635 0 1.159-.221 1.57-.664.417-.448.625-1.013.625-1.695v-.797ZM92.5 34.5h-1.281v-4.563c0-1.697-.62-2.546-1.86-2.546-.64 0-1.171.242-1.593.726-.417.48-.625 1.086-.625 1.82V34.5h-1.282v-8h1.282v1.328h.03c.605-1.01 1.48-1.515 2.626-1.515.875 0 1.544.283 2.008.851.463.563.695 1.378.695 2.445V34.5Zm9.25 0h-1.281v-1.36h-.031c-.594 1.032-1.51 1.547-2.75 1.547-1.006 0-1.81-.356-2.415-1.07-.599-.719-.898-1.695-.898-2.93 0-1.322.333-2.382 1-3.18.667-.796 1.555-1.195 2.664-1.195 1.099 0 1.898.433 2.399 1.297h.031v-4.953h1.281V34.5Zm-1.281-3.617v-1.18c0-.646-.214-1.193-.64-1.64-.428-.448-.97-.672-1.626-.672-.781 0-1.396.286-1.844.859-.447.573-.671 1.365-.671 2.375 0 .922.213 1.651.64 2.188.432.53 1.01.796 1.734.796.714 0 1.292-.257 1.735-.773.448-.516.672-1.167.672-1.953Zm9.601 3.617h-1.281v-1.25h-.031c-.557.958-1.378 1.438-2.461 1.438-.797 0-1.422-.211-1.875-.633-.448-.422-.672-.982-.672-1.68 0-1.495.88-2.365 2.641-2.61l2.398-.335c0-1.36-.549-2.04-1.648-2.04-.964 0-1.834.329-2.61.985v-1.313c.787-.5 1.693-.75 2.719-.75 1.88 0 2.82.995 2.82 2.985V34.5Zm-1.281-4.047-1.93.266c-.593.083-1.041.232-1.343.445-.302.208-.454.58-.454 1.117 0 .39.139.711.415.961.281.245.653.367 1.117.367.635 0 1.159-.221 1.57-.664.417-.448.625-1.013.625-1.695v-.797ZM112 34.211v-1.375a3.791 3.791 0 0 0 2.305.773c1.125 0 1.687-.375 1.687-1.125a.937.937 0 0 0-.148-.539 1.352 1.352 0 0 0-.391-.398 2.715 2.715 0 0 0-.578-.305c-.219-.094-.456-.19-.711-.289-.354-.14-.667-.281-.937-.422a3.077 3.077 0 0 1-.672-.484 1.933 1.933 0 0 1-.407-.617 2.24 2.24 0 0 1-.132-.805c0-.375.086-.706.257-.992.172-.292.401-.534.688-.727.286-.198.612-.346.977-.445a4.39 4.39 0 0 1 1.14-.148c.693 0 1.313.12 1.86.359v1.297c-.589-.386-1.266-.578-2.032-.578-.239 0-.455.028-.648.086-.193.052-.36.127-.5.226a1.1 1.1 0 0 0-.32.36.94.94 0 0 0-.11.453c0 .208.037.382.11.523.078.14.19.266.335.375.146.11.323.208.532.297.208.088.445.185.711.289.354.135.672.276.953.422.281.14.521.302.719.484.197.177.348.383.453.617.109.235.164.513.164.836 0 .396-.089.74-.266 1.032a2.211 2.211 0 0 1-.695.726 3.21 3.21 0 0 1-1.008.43c-.38.094-.779.14-1.195.14-.823 0-1.537-.158-2.141-.476Z"/><rect width="128" height="48" x="9" y="4" stroke="#9C27B0" stroke-width="2" rx="4"/><defs><clipPath id="a"><path fill="#fff" d="M29.997 17.997h20.006v20.006H29.997z"/></clipPath></defs></svg>