<svg width="115" height="45" viewBox="0 0 115 45" fill="none" xmlns="http://www.w3.org/2000/svg">
<path d="M1 4C1 2.34314 2.34315 1 4 1H111C112.657 1 114 2.34315 114 4V41C114 42.6569 112.657 44 111 44H4C2.34315 44 1 42.6569 1 41V4Z" fill="#22272E"/>
<g clip-path="url(#clip0)">
<path d="M27.6915 13.5H29.6587V27.078H27.6915V13.5ZM24.597 23.205H26.5642V25.1325H24.597V23.205ZM24.597 17.9272H26.5642V22.0117H24.597V17.9272ZM24.597 26.325H26.5642V30.4095H24.597V26.325ZM18.342 17.922H20.3085V31.5H18.3412L18.342 17.922ZM21.5017 19.8412H23.469V21.7687H21.5025L21.5017 19.8412ZM21.5017 22.9545H23.469V27.0397H21.5025L21.5017 22.9545ZM21.5017 14.5643H23.469V18.6487H21.5025L21.5017 14.5643Z" fill="#ADBAC7"/>
</g>
<path d="M47.7812 24.7656V29H46.4688V17.7969H49.5469C50.7448 17.7969 51.6719 18.0885 52.3281 18.6719C52.9896 19.2552 53.3203 20.0781 53.3203 21.1406C53.3203 22.2031 52.9531 23.0729 52.2188 23.75C51.4896 24.4271 50.5026 24.7656 49.2578 24.7656H47.7812ZM47.7812 18.9844V23.5781H49.1562C50.0625 23.5781 50.7526 23.3724 51.2266 22.9609C51.7057 22.5443 51.9453 21.9583 51.9453 21.2031C51.9453 19.724 51.0703 18.9844 49.3203 18.9844H47.7812ZM60.4766 29H59.1953V27.75H59.1641C58.6068 28.7083 57.7865 29.1875 56.7031 29.1875C55.9062 29.1875 55.2812 28.9766 54.8281 28.5547C54.3802 28.1328 54.1562 27.5729 54.1562 26.875C54.1562 25.3802 55.0365 24.5104 56.7969 24.2656L59.1953 23.9297C59.1953 22.5703 58.6458 21.8906 57.5469 21.8906C56.5833 21.8906 55.7135 22.2188 54.9375 22.875V21.5625C55.724 21.0625 56.6302 20.8125 57.6562 20.8125C59.5365 20.8125 60.4766 21.8073 60.4766 23.7969V29ZM59.1953 24.9531L57.2656 25.2188C56.6719 25.3021 56.224 25.4505 55.9219 25.6641C55.6198 25.8724 55.4688 26.2448 55.4688 26.7812C55.4688 27.1719 55.6068 27.4922 55.8828 27.7422C56.1641 27.987 56.5365 28.1094 57 28.1094C57.6354 28.1094 58.1589 27.888 58.5703 27.4453C58.987 26.9974 59.1953 26.4323 59.1953 25.75V24.9531ZM69.5312 29H68.25V24.4375C68.25 22.7396 67.6302 21.8906 66.3906 21.8906C65.75 21.8906 65.2188 22.1328 64.7969 22.6172C64.3802 23.0964 64.1719 23.7031 64.1719 24.4375V29H62.8906V21H64.1719V22.3281H64.2031C64.8073 21.3177 65.6823 20.8125 66.8281 20.8125C67.7031 20.8125 68.3724 21.0964 68.8359 21.6641C69.2995 22.2266 69.5312 23.0417 69.5312 24.1094V29ZM78.7812 29H77.5V27.6406H77.4688C76.875 28.6719 75.9583 29.1875 74.7188 29.1875C73.7135 29.1875 72.9089 28.8307 72.3047 28.1172C71.7057 27.3984 71.4062 26.4219 71.4062 25.1875C71.4062 23.8646 71.7396 22.8047 72.4062 22.0078C73.0729 21.2109 73.9609 20.8125 75.0703 20.8125C76.1693 20.8125 76.9688 21.2448 77.4688 22.1094H77.5V17.1562H78.7812V29ZM77.5 25.3828V24.2031C77.5 23.5573 77.2865 23.0104 76.8594 22.5625C76.4323 22.1146 75.8906 21.8906 75.2344 21.8906C74.4531 21.8906 73.8385 22.1771 73.3906 22.75C72.9427 23.3229 72.7188 24.1146 72.7188 25.125C72.7188 26.0469 72.9323 26.776 73.3594 27.3125C73.7917 27.8438 74.3698 28.1094 75.0938 28.1094C75.8073 28.1094 76.3854 27.8516 76.8281 27.3359C77.276 26.8203 77.5 26.1693 77.5 25.3828ZM87.1016 29H85.8203V27.75H85.7891C85.2318 28.7083 84.4115 29.1875 83.3281 29.1875C82.5312 29.1875 81.9062 28.9766 81.4531 28.5547C81.0052 28.1328 80.7812 27.5729 80.7812 26.875C80.7812 25.3802 81.6615 24.5104 83.4219 24.2656L85.8203 23.9297C85.8203 22.5703 85.2708 21.8906 84.1719 21.8906C83.2083 21.8906 82.3385 22.2188 81.5625 22.875V21.5625C82.349 21.0625 83.2552 20.8125 84.2812 20.8125C86.1615 20.8125 87.1016 21.8073 87.1016 23.7969V29ZM85.8203 24.9531L83.8906 25.2188C83.2969 25.3021 82.849 25.4505 82.5469 25.6641C82.2448 25.8724 82.0938 26.2448 82.0938 26.7812C82.0938 27.1719 82.2318 27.4922 82.5078 27.7422C82.7891 27.987 83.1615 28.1094 83.625 28.1094C84.2604 28.1094 84.7839 27.888 85.1953 27.4453C85.612 26.9974 85.8203 26.4323 85.8203 25.75V24.9531ZM89.0312 28.7109V27.3359C89.7292 27.8516 90.4974 28.1094 91.3359 28.1094C92.4609 28.1094 93.0234 27.7344 93.0234 26.9844C93.0234 26.7708 92.974 26.5911 92.875 26.4453C92.7812 26.2943 92.651 26.1615 92.4844 26.0469C92.3229 25.9323 92.1302 25.8307 91.9062 25.7422C91.6875 25.6484 91.4505 25.5521 91.1953 25.4531C90.8411 25.3125 90.5286 25.1719 90.2578 25.0312C89.9922 24.8854 89.7682 24.724 89.5859 24.5469C89.4089 24.3646 89.2734 24.1589 89.1797 23.9297C89.0911 23.7005 89.0469 23.4323 89.0469 23.125C89.0469 22.75 89.1328 22.4193 89.3047 22.1328C89.4766 21.8411 89.7057 21.599 89.9922 21.4062C90.2786 21.2083 90.6042 21.0599 90.9688 20.9609C91.3385 20.862 91.7188 20.8125 92.1094 20.8125C92.8021 20.8125 93.4219 20.9323 93.9688 21.1719V22.4688C93.3802 22.0833 92.7031 21.8906 91.9375 21.8906C91.6979 21.8906 91.4818 21.9193 91.2891 21.9766C91.0964 22.0286 90.9297 22.1042 90.7891 22.2031C90.6536 22.3021 90.5469 22.4219 90.4688 22.5625C90.3958 22.6979 90.3594 22.849 90.3594 23.0156C90.3594 23.224 90.3958 23.3984 90.4688 23.5391C90.5469 23.6797 90.6589 23.8047 90.8047 23.9141C90.9505 24.0234 91.1276 24.1224 91.3359 24.2109C91.5443 24.2995 91.7812 24.3958 92.0469 24.5C92.401 24.6354 92.7188 24.776 93 24.9219C93.2812 25.0625 93.5208 25.224 93.7188 25.4062C93.9167 25.5833 94.0677 25.7891 94.1719 26.0234C94.2812 26.2578 94.3359 26.5365 94.3359 26.8594C94.3359 27.2552 94.2474 27.599 94.0703 27.8906C93.8984 28.1823 93.6667 28.4245 93.375 28.6172C93.0833 28.8099 92.7474 28.9531 92.3672 29.0469C91.987 29.1406 91.5885 29.1875 91.1719 29.1875C90.349 29.1875 89.6354 29.0286 89.0312 28.7109Z" fill="#ADBAC7"/>
<path d="M4 2H111V0H4V2ZM113 4V41H115V4H113ZM111 43H4V45H111V43ZM2 41V4H0V41H2ZM4 43C2.89543 43 2 42.1046 2 41H0C0 43.2091 1.79086 45 4 45V43ZM113 41C113 42.1046 112.105 43 111 43V45C113.209 45 115 43.2091 115 41H113ZM111 2C112.105 2 113 2.89543 113 4H115C115 1.79086 113.209 0 111 0V2ZM4 0C1.79086 0 0 1.79086 0 4H2C2 2.89543 2.89543 2 4 2V0Z" fill="#444C56"/>
<defs>
<clipPath id="clip0">
<rect width="18" height="18" fill="white" transform="translate(15 13.5)"/>
</clipPath>
</defs>
</svg>
