<svg xmlns="http://www.w3.org/2000/svg" width="173" height="56" fill="none"><rect width="155" height="48" x="9" y="4" fill="#E8EAF6" rx="4"/><path fill="#D06E35" d="m44.018 22.166.632-2.202a1.242 1.242 0 0 0 1.154-1.22 1.268 1.268 0 0 0-2.535 0 1.217 1.217 0 0 0 .615 1.05l-.621 2.161c-1.071-.263-2.169-.4-3.271-.405l-.278.12v16.74l.278.09c1.672 0 8.99-4.887 9.008-10.132 0-3.757-2.583-5.444-4.982-6.201Z"/><path fill="#fff" d="M42.256 32.95c-1.425-2.205-.825-7.337 2.905-8.07a2.43 2.43 0 0 1 2.643 1.934c.93 3.061-4.548 7.346-5.548 6.136Z"/><path fill="#D06E35" d="M44.494 28.225a1.118 1.118 0 1 0 1.155 1.117 1.138 1.138 0 0 0-1.155-1.117Z"/><path fill="#fff" d="M44.839 29.256a.282.282 0 1 1 .292-.282.287.287 0 0 1-.292.282Z"/><path fill="#F17B36" d="m36.708 22.006-.618-2.246a1.213 1.213 0 0 0 .588-1.034 1.268 1.268 0 0 0-2.535 0 1.246 1.246 0 0 0 1.261 1.226l.619 2.25c-2.41.773-5.023 2.466-5.023 6.166.053 5.349 7.32 10.132 8.992 10.132V21.55c-1.109.024-2.211.177-3.284.456Z"/><path fill="#fff" d="M37.982 32.95c-1 1.212-6.479-3.075-5.55-6.137a2.43 2.43 0 0 1 2.648-1.934c3.729.734 4.332 5.866 2.905 8.073l-.003-.002Z"/><path fill="#F17B36" d="M35.672 28.259a1.117 1.117 0 1 0 1.155 1.116 1.138 1.138 0 0 0-1.155-1.116Z"/><path fill="#fff" d="M35.328 29.29a.282.282 0 1 1 .268-.173.288.288 0 0 1-.268.172Z"/><path fill="#000" d="M70.781 30.266V34.5H69.47V23.297h3.078c1.198 0 2.125.291 2.781.875.662.583.992 1.406.992 2.469 0 1.062-.367 1.932-1.101 2.609-.73.677-1.716 1.016-2.961 1.016H70.78Zm0-5.782v4.594h1.375c.906 0 1.597-.206 2.07-.617.48-.417.72-1.003.72-1.758 0-1.479-.876-2.219-2.626-2.219h-1.539ZM79.547 34.5h-1.281V22.656h1.28V34.5Zm8.32 0h-1.281v-1.25h-.031c-.558.958-1.378 1.438-2.461 1.438-.797 0-1.422-.211-1.875-.633-.448-.422-.672-.982-.672-1.68 0-1.495.88-2.365 2.64-2.61l2.399-.335c0-1.36-.55-2.04-1.648-2.04-.964 0-1.834.329-2.61.985v-1.313c.787-.5 1.693-.75 2.719-.75 1.88 0 2.82.995 2.82 2.985V34.5Zm-1.281-4.047-1.93.266c-.594.083-1.041.232-1.344.445-.302.208-.453.58-.453 1.117 0 .39.138.711.414.961.282.245.654.367 1.118.367.635 0 1.158-.221 1.57-.664.417-.448.625-1.013.625-1.695v-.797Zm7.406 3.969c-.302.167-.7.25-1.195.25-1.401 0-2.102-.781-2.102-2.344v-4.734H89.32V26.5h1.375v-1.953l1.282-.414V26.5h2.015v1.094h-2.015v4.508c0 .536.09.919.273 1.148.182.23.484.344.906.344.323 0 .602-.089.836-.266v1.094Zm5.664-10.64c-.25-.141-.534-.212-.851-.212-.896 0-1.344.565-1.344 1.696V26.5h1.875v1.094H97.46V34.5h-1.273v-6.906H94.82V26.5h1.368v-1.297c0-.838.242-1.5.726-1.984.484-.49 1.089-.735 1.813-.735.39 0 .7.047.93.141v1.156Zm4.406 10.905c-1.182 0-2.127-.372-2.835-1.117-.704-.75-1.055-1.742-1.055-2.976 0-1.344.367-2.393 1.101-3.149.735-.755 1.727-1.133 2.977-1.133 1.193 0 2.122.368 2.789 1.102.672.734 1.008 1.753 1.008 3.055 0 1.276-.362 2.3-1.086 3.07-.719.766-1.685 1.148-2.899 1.148Zm.094-7.296c-.823 0-1.474.28-1.953.843-.479.558-.719 1.328-.719 2.313 0 .948.243 1.695.727 2.242.484.547 1.133.82 1.945.82.828 0 1.464-.268 1.906-.804.448-.537.672-1.3.672-2.29 0-1-.224-1.77-.672-2.312-.442-.541-1.078-.812-1.906-.812Zm10.11.406c-.224-.172-.547-.258-.969-.258-.547 0-1.005.258-1.375.773-.365.516-.547 1.22-.547 2.11V34.5h-1.281v-8h1.281v1.648h.031c.183-.562.461-1 .836-1.312a1.897 1.897 0 0 1 1.258-.477c.333 0 .589.037.766.11v1.328Zm12.75 6.703h-1.282v-4.594c0-.885-.138-1.526-.414-1.922-.271-.396-.729-.593-1.375-.593-.547 0-1.013.25-1.398.75-.38.5-.57 1.099-.57 1.797V34.5h-1.282v-4.75c0-1.573-.606-2.36-1.82-2.36-.563 0-1.026.238-1.391.712-.364.468-.546 1.08-.546 1.835V34.5h-1.282v-8h1.282v1.266h.031c.567-.97 1.396-1.453 2.484-1.453.547 0 1.024.153 1.43.46.406.303.685.701.836 1.196.593-1.104 1.479-1.657 2.656-1.657 1.76 0 2.641 1.086 2.641 3.258v4.93Zm2.867.172a.841.841 0 0 1-.617-.258.854.854 0 0 1-.25-.617c0-.24.083-.445.25-.617a.829.829 0 0 1 .617-.266c.245 0 .453.089.625.266a.842.842 0 0 1 .258.617c0 .24-.086.445-.258.617a.851.851 0 0 1-.625.258Zm3.679-10.203a.81.81 0 0 1-.585-.235.79.79 0 0 1-.243-.593.79.79 0 0 1 .243-.594.795.795 0 0 1 .585-.242c.235 0 .433.08.594.242.167.156.25.354.25.594 0 .229-.083.424-.25.586a.806.806 0 0 1-.594.242Zm.626 10.031h-1.282v-8h1.282v8Zm5.937.188c-1.182 0-2.128-.373-2.836-1.118-.703-.75-1.055-1.742-1.055-2.976 0-1.344.368-2.393 1.102-3.149.734-.755 1.726-1.133 2.976-1.133 1.193 0 2.123.368 2.79 1.102.671.734 1.007 1.753 1.007 3.055 0 1.276-.362 2.3-1.086 3.07-.718.766-1.684 1.148-2.898 1.148Zm.094-7.297c-.823 0-1.474.28-1.953.843-.48.558-.719 1.328-.719 2.313 0 .948.242 1.695.726 2.242.485.547 1.133.82 1.946.82.828 0 1.463-.268 1.906-.804.448-.537.672-1.3.672-2.29 0-1-.224-1.77-.672-2.312-.443-.541-1.078-.812-1.906-.812Z"/><rect width="155" height="48" x="9" y="4" stroke="#3F51B5" stroke-width="2" rx="4"/></svg>