<svg xmlns="http://www.w3.org/2000/svg" width="178" height="56" fill="none"><rect width="160" height="48" x="9" y="4" fill="#FCE4EC" rx="4"/><g clip-path="url(#a)"><path fill="#000" d="M51.466 30.371c-.139-.422-.502-.717-.971-.787a2.207 2.207 0 0 0-.775.043c-.523.109-.91.15-1.194.158 1.069-1.817 1.938-3.889 2.438-5.839.809-3.154.377-4.59-.128-5.24-1.337-1.72-3.288-2.644-5.64-2.672a9.93 9.93 0 0 0-2.932.413 10.863 10.863 0 0 0-1.715-.158c-1.131-.018-2.131.23-2.986.741a13.538 13.538 0 0 0-2.109-.533c-2.062-.34-3.724-.075-4.94.79-1.472 1.047-2.154 2.866-2.028 5.407.04.807.488 3.261 1.194 5.59.405 1.337.838 2.448 1.285 3.302.634 1.21 1.313 1.923 2.075 2.18.428.142 1.203.243 2.02-.442.103.126.241.252.424.368.233.148.517.269.802.34 1.023.258 1.982.193 2.8-.168.006.147.01.287.013.408.005.196.01.388.018.568.048 1.216.13 2.161.374 2.822l.05.151c.122.374.325 1.001.841 1.492.535.508 1.182.664 1.775.664.297 0 .58-.039.83-.093.886-.19 1.892-.482 2.62-1.527.69-.987 1.024-2.474 1.085-4.817l.022-.19.014-.124.163.015.041.003c.903.041 2.007-.152 2.685-.469.536-.25 2.253-1.163 1.849-2.396Z"/><path fill="#336791" d="M49.922 30.611c-2.685.558-2.87-.358-2.87-.358 2.835-4.235 4.02-9.612 2.998-10.928-2.79-3.59-7.62-1.892-7.7-1.848l-.026.005a9.511 9.511 0 0 0-1.791-.188c-1.215-.02-2.137.32-2.836.855 0 0-8.615-3.574-8.214 4.495.085 1.716 2.443 12.988 5.255 9.584 1.028-1.245 2.022-2.298 2.022-2.298.493.33 1.084.498 1.703.438l.048-.041c-.015.154-.008.305.019.484-.725.816-.512.959-1.96 1.259-1.466.304-.605.846-.042.987.681.172 2.258.415 3.323-1.087l-.043.172c.284.229.484 1.489.45 2.632-.033 1.142-.056 1.927.168 2.54.224.612.447 1.99 2.35 1.58 1.592-.343 2.416-1.233 2.531-2.717.081-1.056.266-.9.277-1.843l.148-.446c.17-1.43.027-1.892 1.007-1.677l.239.02c.721.034 1.665-.116 2.22-.376 1.193-.557 1.9-1.489.724-1.244Z"/><path fill="#fff" d="M38.201 23.411c-.242-.034-.46-.002-.572.082a.211.211 0 0 0-.087.14c-.013.101.056.212.1.27a.747.747 0 0 0 .474.298c.026.003.051.005.076.005.293 0 .56-.23.583-.4.03-.212-.277-.353-.574-.395Zm8.016.007c-.024-.166-.318-.214-.597-.175-.279.04-.549.166-.526.333.018.13.25.351.526.351a.51.51 0 0 0 .07-.005.678.678 0 0 0 .383-.21c.097-.104.154-.22.144-.294Z"/><path fill="#fff" d="M50.815 30.548c-.102-.312-.431-.412-.979-.298-1.625.337-2.207.103-2.399-.038 1.264-1.939 2.303-4.281 2.864-6.467.265-1.036.412-1.997.424-2.781.014-.86-.132-1.493-.432-1.879-1.21-1.557-2.986-2.392-5.135-2.415-1.478-.016-2.727.364-2.969.471a7.348 7.348 0 0 0-1.67-.215c-1.11-.019-2.068.249-2.862.794a12.72 12.72 0 0 0-2.326-.614c-1.884-.306-3.382-.074-4.45.688-1.275.91-1.864 2.536-1.75 4.833.038.773.476 3.15 1.166 5.427.908 2.997 1.896 4.693 2.935 5.042.121.04.261.07.416.07.38 0 .844-.172 1.327-.758.59-.712 1.2-1.407 1.83-2.084.408.22.856.344 1.315.356l.003.037a10.72 10.72 0 0 0-.232.288c-.317.407-.384.491-1.407.704-.291.06-1.065.22-1.076.766-.012.597.914.847 1.02.874.367.092.722.138 1.06.138.822 0 1.545-.272 2.123-.798-.018 2.126.07 4.22.323 4.859.208.523.715 1.8 2.317 1.8.235 0 .494-.028.779-.09 1.672-.36 2.398-1.105 2.679-2.745.15-.877.408-2.97.53-4.094.255.08.585.117.941.117.743 0 1.601-.159 2.139-.41.604-.283 1.694-.976 1.496-1.578Zm-3.981-7.59a6.86 6.86 0 0 1-.1.947 8.798 8.798 0 0 0-.118 1.112c-.013.413.038.842.087 1.257.1.838.203 1.7-.194 2.552a3.339 3.339 0 0 1-.176-.364c-.05-.12-.157-.314-.305-.582-.578-1.044-1.93-3.487-1.238-4.484.206-.297.73-.602 2.044-.437Zm-1.593-5.616c1.926.043 3.45.768 4.528 2.156.827 1.065-.084 5.909-2.721 10.088a15.49 15.49 0 0 0-.08-.101l-.034-.042c.682-1.134.549-2.255.43-3.25-.049-.407-.095-.793-.083-1.155.012-.383.063-.712.111-1.03.06-.393.121-.798.104-1.277a.533.533 0 0 0 .011-.18c-.042-.458-.563-1.83-1.622-3.073a7.315 7.315 0 0 0-2.58-1.953 8.643 8.643 0 0 1 1.936-.183ZM34.464 31.98c-.533.645-.9.521-1.022.48-.788-.264-1.703-1.942-2.509-4.602-.697-2.301-1.105-4.616-1.137-5.265-.102-2.052.392-3.483 1.468-4.251 1.752-1.251 4.632-.503 5.79-.123-.017.017-.035.032-.051.049-1.9 1.931-1.854 5.23-1.85 5.433 0 .077.007.188.016.34.032.554.093 1.587-.07 2.757-.15 1.087.183 2.15.914 2.919.075.078.153.153.236.224a49.106 49.106 0 0 0-1.785 2.039Zm2.029-2.727c-.59-.619-.857-1.48-.734-2.363.171-1.235.108-2.311.074-2.89-.005-.08-.01-.151-.012-.207.278-.248 1.564-.942 2.48-.73.419.096.674.383.78.877.548 2.555.072 3.62-.31 4.475-.079.176-.154.343-.217.515l-.05.134c-.124.337-.24.65-.312.947-.627-.002-1.236-.271-1.7-.758Zm.096 3.446a1.465 1.465 0 0 1-.444-.192c.08-.039.224-.09.473-.142 1.204-.25 1.39-.426 1.796-.945.093-.12.199-.254.345-.419.218-.245.317-.204.498-.128.146.06.289.245.346.449.028.096.059.278-.042.42-.848 1.196-2.084 1.18-2.972.957Zm6.301 5.904c-1.473.318-1.994-.439-2.338-1.304-.222-.558-.33-3.077-.253-5.859a.338.338 0 0 0-.015-.106 1.414 1.414 0 0 0-.04-.197c-.116-.404-.396-.743-.733-.883-.133-.056-.378-.158-.673-.082.063-.261.172-.555.29-.874l.05-.134c.055-.152.126-.308.2-.474.4-.895.948-2.122.353-4.892-.223-1.037-.967-1.544-2.095-1.426-.676.07-1.295.345-1.603.502a4.977 4.977 0 0 0-.184.099c.086-1.046.412-3 1.629-4.236.766-.778 1.786-1.162 3.03-1.142 2.45.04 4.021 1.307 4.908 2.362.764.91 1.178 1.825 1.343 2.32-1.242-.128-2.086.119-2.514.735-.932 1.34.51 3.943 1.202 5.194.127.229.236.427.27.511.226.55.518.918.731 1.186.066.082.13.162.177.232-.376.109-1.051.361-.99 1.622-.05.633-.402 3.595-.582 4.642-.237 1.383-.742 1.898-2.163 2.204Zm6.149-7.085c-.385.18-1.029.315-1.64.344-.675.032-1.019-.076-1.1-.143-.038-.786.253-.868.56-.955.048-.013.096-.027.141-.043.028.024.06.047.093.07.543.36 1.511.399 2.878.115l.015-.003a3.68 3.68 0 0 1-.947.615Z"/></g><path fill="#000" d="M70.781 30.266V34.5H69.47V23.297h3.078c1.198 0 2.125.291 2.781.875.662.583.992 1.406.992 2.469 0 1.062-.367 1.932-1.101 2.609-.73.677-1.716 1.016-2.961 1.016H70.78Zm0-5.782v4.594h1.375c.906 0 1.597-.206 2.07-.617.48-.417.72-1.003.72-1.758 0-1.479-.876-2.219-2.626-2.219h-1.539Zm10.235 10.203c-1.183 0-2.128-.372-2.836-1.117-.703-.75-1.055-1.742-1.055-2.976 0-1.344.367-2.393 1.102-3.149.734-.755 1.726-1.133 2.976-1.133 1.193 0 2.123.368 2.79 1.102.671.734 1.007 1.753 1.007 3.055 0 1.276-.362 2.3-1.086 3.07-.719.766-1.685 1.148-2.898 1.148Zm.093-7.296c-.822 0-1.474.28-1.953.843-.479.558-.719 1.328-.719 2.313 0 .948.243 1.695.727 2.242.484.547 1.133.82 1.945.82.829 0 1.464-.268 1.907-.804.447-.537.671-1.3.671-2.29 0-1-.224-1.77-.671-2.312-.443-.541-1.079-.812-1.907-.812Zm5.454 6.82v-1.375a3.791 3.791 0 0 0 2.304.773c1.125 0 1.688-.375 1.688-1.125a.938.938 0 0 0-.149-.539 1.35 1.35 0 0 0-.39-.398 2.726 2.726 0 0 0-.579-.305c-.218-.094-.455-.19-.71-.289a10.24 10.24 0 0 1-.938-.422 3.091 3.091 0 0 1-.672-.484 1.926 1.926 0 0 1-.406-.617 2.228 2.228 0 0 1-.133-.805c0-.375.086-.706.258-.992.172-.292.401-.534.687-.727a3.16 3.16 0 0 1 .977-.445c.37-.099.75-.148 1.14-.148.693 0 1.313.12 1.86.359v1.297c-.588-.386-1.266-.578-2.031-.578-.24 0-.456.028-.649.086-.192.052-.36.127-.5.226a1.11 1.11 0 0 0-.32.36.94.94 0 0 0-.11.453c0 .208.037.382.11.523.078.14.19.266.336.375.146.11.323.208.531.297.209.088.445.185.711.289.354.135.672.276.953.422.281.14.521.302.719.484.198.177.349.383.453.617.11.235.164.513.164.836 0 .396-.088.74-.265 1.032a2.204 2.204 0 0 1-.696.726 3.203 3.203 0 0 1-1.008.43c-.38.094-.778.14-1.195.14-.823 0-1.536-.158-2.14-.476Zm10.992.21c-.302.168-.7.25-1.196.25-1.4 0-2.101-.78-2.101-2.343v-4.734h-1.375V26.5h1.375v-1.953l1.281-.414V26.5h2.016v1.094h-2.016v4.508c0 .536.091.919.273 1.148.183.23.485.344.907.344.323 0 .601-.089.836-.266v1.094Zm8.539-.562c0 2.938-1.406 4.407-4.219 4.407-.99 0-1.854-.188-2.594-.563v-1.281c.901.5 1.761.75 2.578.75 1.969 0 2.953-1.047 2.953-3.14v-.876h-.031c-.609 1.021-1.526 1.532-2.75 1.532-.995 0-1.797-.355-2.406-1.063-.604-.714-.906-1.67-.906-2.867 0-1.36.325-2.44.976-3.242.657-.802 1.552-1.203 2.688-1.203 1.078 0 1.877.432 2.398 1.296h.031V26.5h1.282v7.36Zm-1.282-2.976v-1.18c0-.635-.216-1.18-.648-1.633-.427-.453-.961-.68-1.602-.68-.791 0-1.411.29-1.859.868-.448.573-.672 1.377-.672 2.414 0 .89.214 1.604.641 2.14.432.532 1.002.797 1.711.797.719 0 1.302-.255 1.75-.765.453-.51.679-1.164.679-1.961Zm8.047-3.086c-.224-.172-.547-.258-.968-.258-.547 0-1.006.258-1.375.773-.365.516-.547 1.22-.547 2.11V34.5h-1.281v-8h1.281v1.648H110c.182-.562.461-1 .836-1.312a1.897 1.897 0 0 1 1.258-.477c.333 0 .588.037.765.11v1.328Zm7.821 3.023h-5.649c.021.89.261 1.578.719 2.063.458.484 1.089.726 1.891.726.901 0 1.729-.297 2.484-.89v1.203c-.703.51-1.633.766-2.789.766-1.13 0-2.018-.363-2.664-1.086-.646-.73-.969-1.753-.969-3.07 0-1.245.352-2.259 1.055-3.04.708-.786 1.586-1.18 2.633-1.18s1.856.339 2.429 1.016c.573.677.86 1.617.86 2.82v.672Zm-1.313-1.086c-.005-.74-.185-1.315-.539-1.726-.349-.412-.836-.617-1.461-.617a2.07 2.07 0 0 0-1.539.648c-.422.432-.682.997-.781 1.695h4.32Zm2.906 4.313V32.5c.178.156.388.297.633.422.25.125.511.232.782.32.276.084.552.149.828.196.276.046.531.07.765.07.808 0 1.409-.149 1.805-.446.401-.302.602-.734.602-1.296a1.49 1.49 0 0 0-.204-.79 2.137 2.137 0 0 0-.546-.609 5.094 5.094 0 0 0-.836-.531 44.436 44.436 0 0 0-1.032-.54c-.39-.197-.755-.398-1.093-.6a4.725 4.725 0 0 1-.883-.673 2.885 2.885 0 0 1-.594-.828 2.638 2.638 0 0 1-.211-1.093c0-.51.112-.954.336-1.329.224-.38.518-.692.883-.937a3.995 3.995 0 0 1 1.242-.547c.469-.12.945-.18 1.43-.18 1.104 0 1.909.133 2.414.399v1.476c-.662-.458-1.511-.687-2.547-.687a4.01 4.01 0 0 0-.859.094 2.36 2.36 0 0 0-.766.289 1.7 1.7 0 0 0-.547.523c-.141.214-.211.474-.211.781 0 .287.052.534.156.743.11.208.269.398.477.57.208.172.461.338.758.5.302.161.648.338 1.039.531.401.198.781.406 1.14.625.36.219.675.461.946.727.271.265.484.56.64.883.162.322.242.692.242 1.109 0 .552-.109 1.02-.328 1.406-.213.38-.505.69-.875.93-.364.24-.786.411-1.265.515-.479.11-.985.164-1.516.164a5.65 5.65 0 0 1-.656-.046 7.39 7.39 0 0 1-.797-.125 6.662 6.662 0 0 1-.773-.196 2.509 2.509 0 0 1-.579-.273Zm13.539.64c-1.583 0-2.856-.523-3.82-1.57-.953-1.047-1.43-2.409-1.43-4.086 0-1.807.487-3.244 1.461-4.312.98-1.073 2.305-1.61 3.977-1.61 1.542 0 2.786.521 3.734 1.563.948 1.041 1.422 2.404 1.422 4.086 0 1.828-.484 3.273-1.453 4.336a4.32 4.32 0 0 1-.734.656l3.148 2.258h-2.383l-2.109-1.578a6.072 6.072 0 0 1-1.813.258Zm.094-10.39c-1.177 0-2.133.424-2.867 1.273-.734.85-1.101 1.964-1.101 3.344 0 1.375.356 2.487 1.07 3.336.719.839 1.653 1.258 2.804 1.258 1.23 0 2.198-.401 2.907-1.203.708-.802 1.062-1.925 1.062-3.367 0-1.485-.343-2.628-1.031-3.43-.688-.807-1.635-1.211-2.844-1.211ZM149.172 34.5h-5.813V23.297h1.313v10.015h4.5V34.5Z"/><rect width="160" height="48" x="9" y="4" stroke="#E91E63" stroke-width="2" rx="4"/><defs><clipPath id="a"><path fill="#fff" d="M28.444 16h23.111v24h-23.11z"/></clipPath></defs></svg>