<svg width="148" height="47" viewBox="0 0 148 47" fill="none" xmlns="http://www.w3.org/2000/svg">
<rect x="1" y="1" width="146" height="45" rx="4" fill="#22272E"/>
<path d="M28.6038 15.25C27.9435 15.2548 27.2869 15.3482 26.6515 15.5275L26.6065 15.541C26.2062 15.4725 25.8013 15.4346 25.3953 15.4277C24.5605 15.4135 23.8428 15.61 23.2653 15.9378C22.6953 15.7458 21.5133 15.415 20.2675 15.481C19.3998 15.5267 18.4533 15.7825 17.752 16.501C17.0523 17.2195 16.6825 18.331 16.7605 19.8438C16.7815 20.2615 16.9038 20.9418 17.1078 21.8238C17.3103 22.705 17.5968 23.7362 17.953 24.6775C18.3093 25.6195 18.7 26.4655 19.3105 27.04C19.615 27.328 20.0343 27.5702 20.5285 27.55C20.8758 27.5365 21.19 27.3887 21.4608 27.1705C21.5928 27.3392 21.7338 27.4128 21.862 27.481C22.0233 27.5665 22.1808 27.625 22.3435 27.664C22.7942 27.7794 23.2636 27.8026 23.7235 27.7322C23.9238 27.7 24.1345 27.637 24.3445 27.547C24.352 27.7735 24.361 27.9955 24.3708 28.2205C24.3993 28.933 24.418 29.5907 24.6385 30.1675C24.6738 30.262 24.7705 30.7472 25.1538 31.1755C25.5363 31.6045 26.2863 31.8715 27.1398 31.6945C27.742 31.5693 28.5085 31.3435 29.017 30.6415C29.5195 29.947 29.7468 28.9503 29.7918 27.3348C29.803 27.2478 29.8165 27.1735 29.8308 27.1038L29.9508 27.1143H29.9643C30.607 27.1428 31.3045 27.0542 31.8873 26.7917C32.4033 26.5592 32.7933 26.3252 33.0775 25.909C33.1488 25.8062 33.2268 25.6817 33.2478 25.4665C33.2688 25.2527 33.1428 24.9167 32.932 24.7622C32.5098 24.4517 32.245 24.5695 31.9608 24.6273C31.681 24.6873 31.396 24.7202 31.1088 24.727C31.9285 23.389 32.5158 21.967 32.851 20.7085C33.049 19.966 33.1608 19.2813 33.1698 18.6828C33.1788 18.0843 33.1285 17.554 32.7588 17.095C31.603 15.6625 29.9778 15.2665 28.7208 15.253C28.6818 15.2522 28.6428 15.2515 28.6038 15.2523V15.25ZM28.5708 15.6903C29.7595 15.679 31.279 16.003 32.3695 17.3552C32.6148 17.659 32.6875 18.103 32.6793 18.6505C32.6703 19.1972 32.566 19.8512 32.3755 20.5682C32.0058 21.9572 31.3068 23.5757 30.322 25.0292C30.3571 25.0533 30.3948 25.0732 30.4345 25.0885C30.64 25.171 31.108 25.2415 32.0433 25.0555C32.278 25.0068 32.4505 24.9745 32.629 25.1065C32.6718 25.1419 32.7058 25.1867 32.7283 25.2375C32.7508 25.2882 32.7613 25.3435 32.7588 25.399C32.749 25.4828 32.7172 25.5625 32.6665 25.63C32.4865 25.8933 32.1295 26.143 31.672 26.3485C31.2678 26.5315 30.6873 26.6268 30.1728 26.6328C29.9148 26.635 29.677 26.6155 29.4753 26.5547L29.4618 26.5502C29.3838 27.2785 29.2045 28.7178 29.0883 29.374C28.9945 29.9035 28.831 30.3242 28.5183 30.6392C28.2063 30.9542 27.7653 31.144 27.1713 31.2678C26.4355 31.4208 25.8993 31.2558 25.5535 30.973C25.2085 30.6918 25.0503 30.3175 24.955 30.088C24.8898 29.9305 24.856 29.7258 24.823 29.452C24.7868 29.1242 24.7625 28.7953 24.7503 28.4658C24.7286 27.8878 24.7216 27.3093 24.7293 26.731C24.4218 27.004 24.0393 27.1855 23.629 27.2537C23.1415 27.334 22.705 27.2553 22.4448 27.1923C22.3172 27.1609 22.1938 27.1143 22.0773 27.0535C21.9558 26.9913 21.841 26.9208 21.7645 26.7812C21.7194 26.7016 21.705 26.6083 21.724 26.5187C21.7485 26.4278 21.8029 26.3477 21.8785 26.2915C22.0195 26.1805 22.2048 26.119 22.4845 26.062C22.9945 25.9608 23.1723 25.891 23.2803 25.8077C23.3725 25.7365 23.4768 25.5925 23.6613 25.3802C23.6604 25.371 23.6596 25.3618 23.659 25.3525C23.33 25.3436 23.0075 25.2591 22.7163 25.1057C22.6105 25.2145 22.0675 25.7718 21.4053 26.5443C21.127 26.8675 20.8195 27.0527 20.4948 27.0662C20.17 27.0797 19.8768 26.9208 19.6278 26.6868C19.129 26.2173 18.7315 25.4095 18.385 24.4968C18.04 23.5833 17.758 22.5663 17.5585 21.7C17.3575 20.8338 17.239 20.1355 17.2225 19.7988C17.1475 18.367 17.4925 17.4025 18.085 16.7943C18.6775 16.186 19.489 15.9557 20.281 15.9115C21.7015 15.832 23.0508 16.3128 23.3238 16.4163C23.8495 16.0698 24.5268 15.8537 25.3735 15.8672C25.7749 15.8727 26.1743 15.923 26.5645 16.0173L26.5788 16.0113C26.7505 15.9528 26.9253 15.9033 27.1023 15.8643C27.5841 15.7553 28.0761 15.6975 28.57 15.6917V15.6903H28.5708ZM28.678 16.1507H28.5753C28.1695 16.1562 27.7651 16.2004 27.3678 16.2828C28.1566 16.6263 28.8497 17.1571 29.3868 17.8293C29.712 18.2314 29.9819 18.6754 30.1893 19.1492C30.2673 19.3307 30.3198 19.4845 30.349 19.603C30.364 19.663 30.3745 19.7132 30.3775 19.7657C30.3804 19.799 30.3776 19.8325 30.3693 19.8647L30.3648 19.8737C30.3865 20.476 30.2328 20.884 30.214 21.4585C30.1998 21.8755 30.3093 22.3652 30.3363 22.8985C30.3618 23.401 30.2995 23.9522 29.9635 24.4937C29.992 24.5267 30.0175 24.5597 30.0445 24.5927C30.9333 23.2352 31.5745 21.7322 31.9158 20.452C32.098 19.762 32.1955 19.1372 32.2038 18.6422C32.2113 18.1472 32.116 17.788 31.9945 17.6387C31.0435 16.459 29.7573 16.1583 28.678 16.15V16.1507ZM25.2843 16.327C24.4465 16.3285 23.845 16.5745 23.3898 16.942C22.9195 17.3223 22.6045 17.842 22.3975 18.3752C22.1971 18.9081 22.0746 19.4671 22.0338 20.035L22.0435 20.0298C22.2963 19.8918 22.6285 19.7545 22.984 19.675C23.3403 19.5955 23.7235 19.5707 24.0708 19.7012C24.418 19.8325 24.7053 20.1392 24.8095 20.6057C25.3083 22.8452 24.6543 23.6778 24.4128 24.3055C24.3214 24.5331 24.243 24.7657 24.178 25.0023C24.2088 24.9948 24.2395 24.9873 24.2695 24.9843C24.4013 24.9771 24.5327 25.0029 24.652 25.0593C24.895 25.1568 25.0615 25.3608 25.1515 25.5948C25.1748 25.6563 25.192 25.7223 25.2018 25.7898C25.2123 25.8183 25.2168 25.8475 25.216 25.8775C25.1891 26.7338 25.1921 27.5909 25.225 28.447C25.2415 28.8175 25.2655 29.143 25.2963 29.4003C25.3263 29.6568 25.3698 29.8517 25.3975 29.9177C25.4875 30.1382 25.6203 30.4263 25.8603 30.622C26.1003 30.817 26.443 30.9475 27.0708 30.817C27.6153 30.7038 27.9513 30.547 28.1763 30.3198C28.3998 30.094 28.534 29.7797 28.6195 29.2975C28.7478 28.5752 29.0058 26.482 29.0365 26.0875C29.023 25.7912 29.068 25.5625 29.1655 25.3885C29.2668 25.21 29.4228 25.1005 29.557 25.0413C29.6245 25.0113 29.6875 24.9918 29.7393 24.9775C29.6843 24.901 29.6268 24.8265 29.5668 24.754C29.3734 24.5267 29.2145 24.2722 29.095 23.9987C29.038 23.886 28.9772 23.7752 28.9128 23.6665C28.819 23.5015 28.6998 23.2953 28.5753 23.0635C28.3255 22.5993 28.054 22.0367 27.913 21.4885C27.7728 20.9417 27.7518 20.3755 28.1118 19.9758C28.4313 19.621 28.9908 19.474 29.8315 19.5565C29.8068 19.4845 29.7918 19.4245 29.7498 19.3285C29.559 18.8933 29.3111 18.4854 29.0125 18.1158C28.3 17.2323 27.1473 16.3563 25.3653 16.3278H25.2843V16.327V16.327ZM20.5773 16.3623C20.4873 16.3623 20.3973 16.3653 20.3073 16.3698C19.5918 16.4095 18.9153 16.6113 18.4315 17.1093C17.9463 17.6065 17.6275 18.4225 17.6965 19.774C17.7108 20.029 17.8255 20.746 18.022 21.5965C18.2185 22.4485 18.4975 23.4498 18.832 24.334C19.1665 25.219 19.573 25.9893 19.9585 26.3538C20.1528 26.536 20.3215 26.6095 20.4745 26.6035C20.6283 26.596 20.8128 26.5105 21.0393 26.2473C21.4518 25.7646 21.8795 25.2951 22.3218 24.8395C22.0094 24.5773 21.7689 24.24 21.6228 23.8593C21.4786 23.4819 21.4346 23.0736 21.4953 22.6743C21.568 22.1658 21.5778 21.6902 21.5695 21.3152C21.5605 20.9492 21.5335 20.7062 21.5335 20.554V20.533C21.5328 19.7404 21.6749 18.9541 21.9528 18.2117C22.1508 17.7002 22.4463 17.1805 22.8895 16.7598C22.4545 16.621 21.682 16.4095 20.8458 16.3698C20.7558 16.3651 20.6658 16.3626 20.5758 16.3623H20.5773V16.3623ZM29.3628 19.9937C28.882 19.9997 28.612 20.1205 28.4703 20.278C28.2693 20.5015 28.2505 20.893 28.375 21.376C28.4988 21.859 28.7553 22.3997 28.9968 22.8482C29.1168 23.0732 29.2338 23.2757 29.3283 23.4392C29.4235 23.6042 29.4933 23.7212 29.5353 23.8217C29.5743 23.9132 29.6178 23.9943 29.6613 24.07C29.8473 23.6883 29.881 23.314 29.8615 22.9232C29.8368 22.4402 29.7213 21.946 29.7385 21.4457C29.7573 20.8607 29.8765 20.479 29.887 20.0267C29.7131 20.0049 29.538 19.9939 29.3628 19.9937V19.9937ZM23.5278 20.0725C23.3809 20.0739 23.2345 20.091 23.0913 20.1235C22.8065 20.1906 22.5317 20.2944 22.2738 20.4325C22.1875 20.4775 22.1043 20.53 22.0263 20.5893L22.0113 20.6028C22.0158 20.7033 22.036 20.947 22.045 21.3047C22.0525 21.697 22.0435 22.1972 21.9655 22.7372C21.796 23.9132 22.675 24.8867 23.7085 24.8882C23.7685 24.6467 23.8683 24.4023 23.9673 24.1443C24.2553 23.392 24.8215 22.8438 24.3445 20.7025C24.2665 20.3523 24.112 20.2105 23.899 20.1302C23.7796 20.0893 23.6539 20.0698 23.5278 20.0725V20.0725ZM29.1378 20.2128H29.1738C29.2203 20.2143 29.2638 20.2195 29.3013 20.2278C29.3358 20.2346 29.3688 20.2476 29.3988 20.266C29.4123 20.2742 29.4241 20.285 29.4332 20.2979C29.4424 20.3108 29.4488 20.3255 29.452 20.341V20.347C29.4532 20.3799 29.4443 20.4123 29.4265 20.44C29.4055 20.4777 29.3792 20.5123 29.3485 20.5428C29.276 20.6201 29.1801 20.6714 29.0755 20.689C28.9731 20.7011 28.8697 20.6758 28.7845 20.6177C28.75 20.5953 28.719 20.5681 28.6923 20.5367C28.6693 20.5126 28.6537 20.4824 28.6473 20.4498C28.6457 20.4337 28.6475 20.4175 28.6527 20.4023C28.6579 20.387 28.6663 20.373 28.6773 20.3613C28.7008 20.3356 28.7291 20.3147 28.7605 20.2997C28.879 20.2443 29.0077 20.2142 29.1385 20.2112V20.2128H29.1378ZM23.5968 20.3282C23.6343 20.3282 23.674 20.332 23.7145 20.3372C23.8225 20.3522 23.9193 20.38 23.9928 20.4212C24.0288 20.44 24.0603 20.464 24.0873 20.494C24.1013 20.51 24.112 20.5286 24.1188 20.5487C24.1255 20.5688 24.1278 20.59 24.1255 20.611C24.1185 20.6507 24.1 20.6875 24.0723 20.7167C24.0432 20.7516 24.0091 20.782 23.971 20.8068C23.8779 20.8702 23.7649 20.8977 23.653 20.884C23.5394 20.866 23.435 20.8109 23.356 20.7273C23.3227 20.694 23.2945 20.6561 23.272 20.6147C23.2487 20.5788 23.2383 20.5359 23.2428 20.4933C23.2533 20.4183 23.317 20.3807 23.3778 20.3582C23.4481 20.3366 23.5217 20.3275 23.5953 20.3313L23.5968 20.3282ZM30.0168 25.3773H30.0145C29.9103 25.4148 29.8248 25.4297 29.752 25.4597C29.6797 25.4868 29.6196 25.5393 29.5833 25.6075C29.5383 25.6863 29.5008 25.8265 29.512 26.065C29.5443 26.0864 29.5797 26.1026 29.617 26.113C29.7378 26.149 29.941 26.173 30.1683 26.1693C30.6198 26.164 31.1763 26.062 31.4718 25.9285C31.714 25.819 31.939 25.6765 32.14 25.5055C31.1523 25.7035 30.595 25.651 30.2523 25.5138C30.1675 25.4797 30.0881 25.4335 30.0168 25.3765V25.3773ZM24.3258 25.4417H24.3108C24.2733 25.4447 24.2185 25.4567 24.1135 25.5707C23.866 25.8392 23.7805 26.0073 23.5765 26.1648C23.374 26.3223 23.1093 26.4055 22.5813 26.5105C22.414 26.5435 22.3188 26.5802 22.2543 26.6095C22.2753 26.626 22.273 26.6305 22.3038 26.6462C22.381 26.6875 22.4808 26.7235 22.5603 26.7438C22.7875 26.7985 23.1603 26.863 23.5495 26.7985C23.938 26.734 24.343 26.5532 24.688 26.0837C24.748 26.0027 24.754 25.8828 24.7053 25.7538C24.655 25.6263 24.547 25.5153 24.4705 25.4838C24.4247 25.4626 24.3759 25.449 24.3258 25.4432V25.4417V25.4417Z" fill="#ADBAC7"/>
<path d="M48.7812 25.7656V30H47.4688V18.7969H50.5469C51.7448 18.7969 52.6719 19.0885 53.3281 19.6719C53.9896 20.2552 54.3203 21.0781 54.3203 22.1406C54.3203 23.2031 53.9531 24.0729 53.2188 24.75C52.4896 25.4271 51.5026 25.7656 50.2578 25.7656H48.7812ZM48.7812 19.9844V24.5781H50.1562C51.0625 24.5781 51.7526 24.3724 52.2266 23.9609C52.7057 23.5443 52.9453 22.9583 52.9453 22.2031C52.9453 20.724 52.0703 19.9844 50.3203 19.9844H48.7812ZM59.0156 30.1875C57.8333 30.1875 56.888 29.8151 56.1797 29.0703C55.4766 28.3203 55.125 27.3281 55.125 26.0938C55.125 24.75 55.4922 23.7005 56.2266 22.9453C56.9609 22.1901 57.9531 21.8125 59.2031 21.8125C60.3958 21.8125 61.3255 22.1797 61.9922 22.9141C62.6641 23.6484 63 24.6667 63 25.9688C63 27.2448 62.638 28.2682 61.9141 29.0391C61.1953 29.8047 60.2292 30.1875 59.0156 30.1875ZM59.1094 22.8906C58.2865 22.8906 57.6354 23.1719 57.1562 23.7344C56.6771 24.2917 56.4375 25.0625 56.4375 26.0469C56.4375 26.9948 56.6797 27.7422 57.1641 28.2891C57.6484 28.8359 58.2969 29.1094 59.1094 29.1094C59.9375 29.1094 60.5729 28.8411 61.0156 28.3047C61.4635 27.7682 61.6875 27.0052 61.6875 26.0156C61.6875 25.0156 61.4635 24.2448 61.0156 23.7031C60.5729 23.1615 59.9375 22.8906 59.1094 22.8906ZM64.5625 29.7109V28.3359C65.2604 28.8516 66.0286 29.1094 66.8672 29.1094C67.9922 29.1094 68.5547 28.7344 68.5547 27.9844C68.5547 27.7708 68.5052 27.5911 68.4062 27.4453C68.3125 27.2943 68.1823 27.1615 68.0156 27.0469C67.8542 26.9323 67.6615 26.8307 67.4375 26.7422C67.2188 26.6484 66.9818 26.5521 66.7266 26.4531C66.3724 26.3125 66.0599 26.1719 65.7891 26.0312C65.5234 25.8854 65.2995 25.724 65.1172 25.5469C64.9401 25.3646 64.8047 25.1589 64.7109 24.9297C64.6224 24.7005 64.5781 24.4323 64.5781 24.125C64.5781 23.75 64.6641 23.4193 64.8359 23.1328C65.0078 22.8411 65.237 22.599 65.5234 22.4062C65.8099 22.2083 66.1354 22.0599 66.5 21.9609C66.8698 21.862 67.25 21.8125 67.6406 21.8125C68.3333 21.8125 68.9531 21.9323 69.5 22.1719V23.4688C68.9115 23.0833 68.2344 22.8906 67.4688 22.8906C67.2292 22.8906 67.013 22.9193 66.8203 22.9766C66.6276 23.0286 66.4609 23.1042 66.3203 23.2031C66.1849 23.3021 66.0781 23.4219 66 23.5625C65.9271 23.6979 65.8906 23.849 65.8906 24.0156C65.8906 24.224 65.9271 24.3984 66 24.5391C66.0781 24.6797 66.1901 24.8047 66.3359 24.9141C66.4818 25.0234 66.6589 25.1224 66.8672 25.2109C67.0755 25.2995 67.3125 25.3958 67.5781 25.5C67.9323 25.6354 68.25 25.776 68.5312 25.9219C68.8125 26.0625 69.0521 26.224 69.25 26.4062C69.4479 26.5833 69.599 26.7891 69.7031 27.0234C69.8125 27.2578 69.8672 27.5365 69.8672 27.8594C69.8672 28.2552 69.7786 28.599 69.6016 28.8906C69.4297 29.1823 69.1979 29.4245 68.9062 29.6172C68.6146 29.8099 68.2786 29.9531 67.8984 30.0469C67.5182 30.1406 67.1198 30.1875 66.7031 30.1875C65.8802 30.1875 65.1667 30.0286 64.5625 29.7109ZM75.5547 29.9219C75.2526 30.0885 74.8542 30.1719 74.3594 30.1719C72.9583 30.1719 72.2578 29.3906 72.2578 27.8281V23.0938H70.8828V22H72.2578V20.0469L73.5391 19.6328V22H75.5547V23.0938H73.5391V27.6016C73.5391 28.138 73.6302 28.5208 73.8125 28.75C73.9948 28.9792 74.2969 29.0938 74.7188 29.0938C75.0417 29.0938 75.3203 29.0052 75.5547 28.8281V29.9219ZM84.0938 29.3594C84.0938 32.2969 82.6875 33.7656 79.875 33.7656C78.8854 33.7656 78.0208 33.5781 77.2812 33.2031V31.9219C78.1823 32.4219 79.0417 32.6719 79.8594 32.6719C81.8281 32.6719 82.8125 31.625 82.8125 29.5312V28.6562H82.7812C82.1719 29.6771 81.2552 30.1875 80.0312 30.1875C79.0365 30.1875 78.2344 29.8333 77.625 29.125C77.0208 28.4115 76.7188 27.4557 76.7188 26.2578C76.7188 24.8984 77.0443 23.8177 77.6953 23.0156C78.3516 22.2135 79.2474 21.8125 80.3828 21.8125C81.4609 21.8125 82.2604 22.2448 82.7812 23.1094H82.8125V22H84.0938V29.3594ZM82.8125 26.3828V25.2031C82.8125 24.5677 82.5964 24.0234 82.1641 23.5703C81.737 23.1172 81.2031 22.8906 80.5625 22.8906C79.7708 22.8906 79.151 23.1797 78.7031 23.7578C78.2552 24.3307 78.0312 25.1354 78.0312 26.1719C78.0312 27.0625 78.2448 27.776 78.6719 28.3125C79.1042 28.8438 79.6745 29.1094 80.3828 29.1094C81.1016 29.1094 81.6849 28.8542 82.1328 28.3438C82.5859 27.8333 82.8125 27.1797 82.8125 26.3828ZM90.8594 23.2969C90.6354 23.125 90.3125 23.0391 89.8906 23.0391C89.3438 23.0391 88.8854 23.2969 88.5156 23.8125C88.151 24.3281 87.9688 25.0312 87.9688 25.9219V30H86.6875V22H87.9688V23.6484H88C88.1823 23.0859 88.4609 22.6484 88.8359 22.3359C89.2109 22.0182 89.6302 21.8594 90.0938 21.8594C90.4271 21.8594 90.6823 21.8958 90.8594 21.9688V23.2969ZM98.6797 26.3203H93.0312C93.0521 27.2109 93.2917 27.8984 93.75 28.3828C94.2083 28.8672 94.8385 29.1094 95.6406 29.1094C96.5417 29.1094 97.3698 28.8125 98.125 28.2188V29.4219C97.4219 29.9323 96.4922 30.1875 95.3359 30.1875C94.2057 30.1875 93.3177 29.8255 92.6719 29.1016C92.026 28.3724 91.7031 27.349 91.7031 26.0312C91.7031 24.7865 92.0547 23.7734 92.7578 22.9922C93.4661 22.2057 94.3438 21.8125 95.3906 21.8125C96.4375 21.8125 97.2474 22.151 97.8203 22.8281C98.3932 23.5052 98.6797 24.4453 98.6797 25.6484V26.3203ZM97.3672 25.2344C97.362 24.4948 97.1823 23.9193 96.8281 23.5078C96.4792 23.0964 95.9922 22.8906 95.3672 22.8906C94.763 22.8906 94.25 23.1068 93.8281 23.5391C93.4062 23.9714 93.1458 24.5365 93.0469 25.2344H97.3672ZM100.273 29.5469V28C100.451 28.1562 100.661 28.2969 100.906 28.4219C101.156 28.5469 101.417 28.6536 101.688 28.7422C101.964 28.8255 102.24 28.8906 102.516 28.9375C102.792 28.9844 103.047 29.0078 103.281 29.0078C104.089 29.0078 104.69 28.8594 105.086 28.5625C105.487 28.2604 105.688 27.8281 105.688 27.2656C105.688 26.9635 105.62 26.7005 105.484 26.4766C105.354 26.2526 105.172 26.0495 104.938 25.8672C104.703 25.6797 104.424 25.5026 104.102 25.3359C103.784 25.1641 103.44 24.9844 103.07 24.7969C102.68 24.599 102.315 24.3984 101.977 24.1953C101.638 23.9922 101.344 23.7682 101.094 23.5234C100.844 23.2786 100.646 23.0026 100.5 22.6953C100.359 22.3828 100.289 22.0182 100.289 21.6016C100.289 21.0911 100.401 20.6484 100.625 20.2734C100.849 19.8932 101.143 19.5807 101.508 19.3359C101.872 19.0911 102.286 18.9089 102.75 18.7891C103.219 18.6693 103.695 18.6094 104.18 18.6094C105.284 18.6094 106.089 18.7422 106.594 19.0078V20.4844C105.932 20.026 105.083 19.7969 104.047 19.7969C103.76 19.7969 103.474 19.8281 103.188 19.8906C102.901 19.9479 102.646 20.0443 102.422 20.1797C102.198 20.3151 102.016 20.4896 101.875 20.7031C101.734 20.9167 101.664 21.1771 101.664 21.4844C101.664 21.7708 101.716 22.0182 101.82 22.2266C101.93 22.4349 102.089 22.625 102.297 22.7969C102.505 22.9688 102.758 23.1354 103.055 23.2969C103.357 23.4583 103.703 23.6354 104.094 23.8281C104.495 24.026 104.875 24.2344 105.234 24.4531C105.594 24.6719 105.909 24.9141 106.18 25.1797C106.451 25.4453 106.664 25.7396 106.82 26.0625C106.982 26.3854 107.062 26.7552 107.062 27.1719C107.062 27.724 106.953 28.1927 106.734 28.5781C106.521 28.9583 106.229 29.2682 105.859 29.5078C105.495 29.7474 105.073 29.9193 104.594 30.0234C104.115 30.1328 103.609 30.1875 103.078 30.1875C102.901 30.1875 102.682 30.1719 102.422 30.1406C102.161 30.1146 101.896 30.0729 101.625 30.0156C101.354 29.9635 101.096 29.8984 100.852 29.8203C100.612 29.737 100.419 29.6458 100.273 29.5469ZM113.812 30.1875C112.229 30.1875 110.956 29.6641 109.992 28.6172C109.039 27.5703 108.562 26.2083 108.562 24.5312C108.562 22.724 109.049 21.2865 110.023 20.2188C111.003 19.1458 112.328 18.6094 114 18.6094C115.542 18.6094 116.786 19.1302 117.734 20.1719C118.682 21.2135 119.156 22.5755 119.156 24.2578C119.156 26.0859 118.672 27.5312 117.703 28.5938C117.474 28.849 117.229 29.0677 116.969 29.25L120.117 31.5078H117.734L115.625 29.9297C115.073 30.1016 114.469 30.1875 113.812 30.1875ZM113.906 19.7969C112.729 19.7969 111.773 20.2214 111.039 21.0703C110.305 21.9193 109.938 23.0339 109.938 24.4141C109.938 25.7891 110.294 26.901 111.008 27.75C111.727 28.5885 112.661 29.0078 113.812 29.0078C115.042 29.0078 116.01 28.6068 116.719 27.8047C117.427 27.0026 117.781 25.8802 117.781 24.4375C117.781 22.9531 117.438 21.8099 116.75 21.0078C116.062 20.2005 115.115 19.7969 113.906 19.7969ZM127.172 30H121.359V18.7969H122.672V28.8125H127.172V30Z" fill="#ADBAC7"/>
<rect x="1" y="1" width="146" height="45" rx="4" stroke="#444C56" stroke-width="2"/>
</svg>
