<svg width="116" height="47" viewBox="0 0 116 47" fill="none" xmlns="http://www.w3.org/2000/svg">
<rect x="1" y="1" width="114" height="45" rx="4" fill="#22272E"/>
<g clip-path="url(#clip0_28_4973)">
<path d="M24.9355 14.5C20.365 14.5 20.65 16.492 20.65 16.492L20.6552 18.556H25.0157V19.1755H18.925C18.925 19.1755 16 18.8418 16 23.4767C16 28.1117 18.5523 27.9468 18.5523 27.9468H20.0747V25.7965C20.0747 25.7965 19.993 23.2315 22.5872 23.2315H26.9117C26.9117 23.2315 29.3417 23.2705 29.3417 20.8705V16.9015C29.3417 16.9015 29.71 14.5 24.9347 14.5H24.9355ZM22.531 15.8875C22.9645 15.8875 23.3155 16.24 23.3155 16.6765C23.3155 17.1122 22.9645 17.4648 22.531 17.4648C22.0968 17.4648 21.7465 17.1122 21.7465 16.6765C21.7465 16.24 22.0968 15.8875 22.531 15.8875Z" fill="#ADBAC7"/>
<path d="M25.0653 32.5C29.6343 32.5 29.3493 30.508 29.3493 30.508L29.344 28.444H24.9835V27.8245H31.0758C31.0758 27.8245 34.0008 28.1582 34.0008 23.5232C34.0008 18.8882 31.4478 19.0532 31.4478 19.0532H29.9253V21.2035C29.9253 21.2035 30.007 23.7685 27.4128 23.7685H23.089C23.089 23.7685 20.659 23.7295 20.659 26.1295V30.0985C20.659 30.0985 20.29 32.5 25.0653 32.5ZM27.4698 31.1125C27.0355 31.1125 26.6853 30.76 26.6853 30.3235C26.6853 29.8877 27.0355 29.5352 27.4698 29.5352C27.9033 29.5352 28.2543 29.8877 28.2543 30.3235C28.2543 30.76 27.9033 31.1125 27.4698 31.1125Z" fill="#ADBAC7"/>
</g>
<path d="M48.7812 25.7656V30H47.4688V18.7969H50.5469C51.7448 18.7969 52.6719 19.0885 53.3281 19.6719C53.9896 20.2552 54.3203 21.0781 54.3203 22.1406C54.3203 23.2031 53.9531 24.0729 53.2188 24.75C52.4896 25.4271 51.5026 25.7656 50.2578 25.7656H48.7812ZM48.7812 19.9844V24.5781H50.1562C51.0625 24.5781 51.7526 24.3724 52.2266 23.9609C52.7057 23.5443 52.9453 22.9583 52.9453 22.2031C52.9453 20.724 52.0703 19.9844 50.3203 19.9844H48.7812ZM62.6328 22L58.9531 31.2812C58.2969 32.9375 57.375 33.7656 56.1875 33.7656C55.8542 33.7656 55.5755 33.7318 55.3516 33.6641V32.5156C55.6276 32.6094 55.8802 32.6562 56.1094 32.6562C56.7552 32.6562 57.2396 32.2708 57.5625 31.5L58.2031 29.9844L55.0781 22H56.5L58.6641 28.1562C58.6901 28.2344 58.7448 28.4375 58.8281 28.7656H58.875C58.901 28.6406 58.9531 28.4427 59.0312 28.1719L61.3047 22H62.6328ZM67.7266 29.9219C67.4245 30.0885 67.026 30.1719 66.5312 30.1719C65.1302 30.1719 64.4297 29.3906 64.4297 27.8281V23.0938H63.0547V22H64.4297V20.0469L65.7109 19.6328V22H67.7266V23.0938H65.7109V27.6016C65.7109 28.138 65.8021 28.5208 65.9844 28.75C66.1667 28.9792 66.4688 29.0938 66.8906 29.0938C67.2135 29.0938 67.4922 29.0052 67.7266 28.8281V29.9219ZM76.0781 30H74.7969V25.3906C74.7969 23.724 74.1771 22.8906 72.9375 22.8906C72.3125 22.8906 71.7865 23.1328 71.3594 23.6172C70.9323 24.0964 70.7188 24.7135 70.7188 25.4688V30H69.4375V18.1562H70.7188V23.3281H70.75C71.3646 22.3177 72.2396 21.8125 73.375 21.8125C75.1771 21.8125 76.0781 22.8984 76.0781 25.0703V30ZM81.8438 30.1875C80.6615 30.1875 79.7161 29.8151 79.0078 29.0703C78.3047 28.3203 77.9531 27.3281 77.9531 26.0938C77.9531 24.75 78.3203 23.7005 79.0547 22.9453C79.7891 22.1901 80.7812 21.8125 82.0312 21.8125C83.224 21.8125 84.1536 22.1797 84.8203 22.9141C85.4922 23.6484 85.8281 24.6667 85.8281 25.9688C85.8281 27.2448 85.4661 28.2682 84.7422 29.0391C84.0234 29.8047 83.0573 30.1875 81.8438 30.1875ZM81.9375 22.8906C81.1146 22.8906 80.4635 23.1719 79.9844 23.7344C79.5052 24.2917 79.2656 25.0625 79.2656 26.0469C79.2656 26.9948 79.5078 27.7422 79.9922 28.2891C80.4766 28.8359 81.125 29.1094 81.9375 29.1094C82.7656 29.1094 83.401 28.8411 83.8438 28.3047C84.2917 27.7682 84.5156 27.0052 84.5156 26.0156C84.5156 25.0156 84.2917 24.2448 83.8438 23.7031C83.401 23.1615 82.7656 22.8906 81.9375 22.8906ZM94.5156 30H93.2344V25.4375C93.2344 23.7396 92.6146 22.8906 91.375 22.8906C90.7344 22.8906 90.2031 23.1328 89.7812 23.6172C89.3646 24.0964 89.1562 24.7031 89.1562 25.4375V30H87.875V22H89.1562V23.3281H89.1875C89.7917 22.3177 90.6667 21.8125 91.8125 21.8125C92.6875 21.8125 93.3568 22.0964 93.8203 22.6641C94.2839 23.2266 94.5156 24.0417 94.5156 25.1094V30Z" fill="#ADBAC7"/>
<rect x="1" y="1" width="114" height="45" rx="4" stroke="#444C56" stroke-width="2"/>
<defs>
<clipPath id="clip0_28_4973">
<rect width="18" height="18" fill="white" transform="translate(16 14.5)"/>
</clipPath>
</defs>
</svg>
