<svg width="75" height="28" viewBox="0 0 75 28" fill="none" xmlns="http://www.w3.org/2000/svg">
<g filter="url(#filter0_d)">
<path d="M2 5C2 2.23858 4.23858 0 7 0H68C70.7614 0 73 2.23858 73 5V19C73 21.7614 70.7614 24 68 24H7C4.23858 24 2 21.7614 2 19V5Z" fill="white"/>
<path d="M15.9239 3.00508C11.3678 3.00508 11.6522 4.98967 11.6522 4.98967L11.6573 7.04576H16.0051V7.66306H9.9304C9.9304 7.66306 7.01494 7.33094 7.01494 11.9485C7.01494 16.5661 9.55963 16.4024 9.55963 16.4024H11.0783V14.2596C11.0783 14.2596 10.9964 11.7036 13.5824 11.7036H17.8946C17.8946 11.7036 20.3174 11.7429 20.3174 9.35167V5.39788C20.3174 5.39788 20.6854 3.00508 15.9239 3.00508ZM13.5265 4.38776C13.6292 4.38767 13.731 4.40793 13.8259 4.44738C13.9209 4.48683 14.0071 4.54469 14.0798 4.61767C14.1524 4.69064 14.21 4.77729 14.2493 4.87265C14.2886 4.96801 14.3088 5.07021 14.3087 5.17341C14.3088 5.27661 14.2886 5.37881 14.2493 5.47417C14.21 5.56954 14.1524 5.65618 14.0798 5.72915C14.0071 5.80213 13.9209 5.85999 13.8259 5.89944C13.731 5.93889 13.6292 5.95915 13.5265 5.95906C13.4238 5.95915 13.322 5.93889 13.2271 5.89944C13.1321 5.85999 13.0459 5.80213 12.9732 5.72915C12.9006 5.65618 12.8429 5.56954 12.8037 5.47417C12.7644 5.37881 12.7442 5.27661 12.7443 5.17341C12.7442 5.07021 12.7644 4.96801 12.8037 4.87265C12.8429 4.77729 12.9006 4.69064 12.9732 4.61767C13.0459 4.54469 13.1321 4.48683 13.2271 4.44738C13.322 4.40793 13.4238 4.38767 13.5265 4.38776V4.38776Z" fill="url(#paint0_linear)"/>
<path d="M16.0532 20.9383C20.6093 20.9383 20.3249 18.9537 20.3249 18.9537L20.3198 16.8977H15.9719V16.2804H22.0466C22.0466 16.2804 24.9621 16.6125 24.9621 11.9948C24.9621 7.37725 22.4174 7.54101 22.4174 7.54101H20.8987V9.68372C20.8987 9.68372 20.9806 12.2397 18.3947 12.2397H14.0824C14.0824 12.2397 11.6596 12.2004 11.6596 14.5917V18.5456C11.6596 18.5456 11.2917 20.9383 16.0531 20.9383H16.0532ZM18.4506 19.5558C18.3479 19.5559 18.2461 19.5356 18.1512 19.4962C18.0562 19.4567 17.97 19.3988 17.8973 19.3259C17.8247 19.2529 17.767 19.1662 17.7278 19.0709C17.6885 18.9755 17.6683 18.8733 17.6684 18.7701C17.6683 18.6669 17.6885 18.5647 17.7278 18.4693C17.767 18.374 17.8246 18.2873 17.8973 18.2143C17.9699 18.1413 18.0562 18.0835 18.1511 18.044C18.2461 18.0046 18.3478 17.9843 18.4506 17.9844C18.5533 17.9843 18.6551 18.0046 18.75 18.044C18.845 18.0835 18.9312 18.1413 19.0039 18.2143C19.0765 18.2873 19.1341 18.3739 19.1734 18.4693C19.2127 18.5646 19.2329 18.6668 19.2328 18.77C19.2329 18.8732 19.2127 18.9754 19.1734 19.0708C19.1341 19.1662 19.0765 19.2528 19.0039 19.3258C18.9312 19.3988 18.845 19.4566 18.75 19.4961C18.6551 19.5355 18.5533 19.5558 18.4506 19.5557V19.5558Z" fill="url(#paint1_linear)"/>
<path d="M32.1152 12.6602V16H30.9902V7.46875H34.1367C35.0703 7.46875 35.8008 7.70703 36.3281 8.18359C36.8594 8.66016 37.125 9.29102 37.125 10.0762C37.125 10.9043 36.8652 11.543 36.3457 11.9922C35.8301 12.4375 35.0898 12.6602 34.125 12.6602H32.1152ZM32.1152 11.7402H34.1367C34.7383 11.7402 35.1992 11.5996 35.5195 11.3184C35.8398 11.0332 36 10.623 36 10.0879C36 9.58008 35.8398 9.17383 35.5195 8.86914C35.1992 8.56445 34.7598 8.40625 34.2012 8.39453H32.1152V11.7402ZM40.5586 14.4121L42.0352 9.66016H43.1953L40.6465 16.9785C40.252 18.0332 39.625 18.5605 38.7656 18.5605L38.5605 18.543L38.1562 18.4668V17.5879L38.4492 17.6113C38.8164 17.6113 39.1016 17.5371 39.3047 17.3887C39.5117 17.2402 39.6816 16.9688 39.8145 16.5742L40.0547 15.9297L37.793 9.66016H38.9766L40.5586 14.4121ZM45.6387 8.125V9.66016H46.8223V10.498H45.6387V14.4297C45.6387 14.6836 45.6914 14.875 45.7969 15.0039C45.9023 15.1289 46.082 15.1914 46.3359 15.1914C46.4609 15.1914 46.6328 15.168 46.8516 15.1211V16C46.5664 16.0781 46.2891 16.1172 46.0195 16.1172C45.5352 16.1172 45.1699 15.9707 44.9238 15.6777C44.6777 15.3848 44.5547 14.9688 44.5547 14.4297V10.498H43.4004V9.66016H44.5547V8.125H45.6387ZM49.1777 10.4277C49.6582 9.83789 50.2832 9.54297 51.0527 9.54297C52.3926 9.54297 53.0684 10.2988 53.0801 11.8105V16H51.9961V11.8047C51.9922 11.3477 51.8867 11.0098 51.6797 10.791C51.4766 10.5723 51.1582 10.4629 50.7246 10.4629C50.373 10.4629 50.0645 10.5566 49.7988 10.7441C49.5332 10.9316 49.3262 11.1777 49.1777 11.4824V16H48.0938V7H49.1777V10.4277ZM54.416 12.7715C54.416 12.1504 54.5371 11.5918 54.7793 11.0957C55.0254 10.5996 55.3652 10.2168 55.7988 9.94727C56.2363 9.67773 56.7344 9.54297 57.293 9.54297C58.1562 9.54297 58.8535 9.8418 59.3848 10.4395C59.9199 11.0371 60.1875 11.832 60.1875 12.8242V12.9004C60.1875 13.5176 60.0684 14.0723 59.8301 14.5645C59.5957 15.0527 59.2578 15.4336 58.8164 15.707C58.3789 15.9805 57.875 16.1172 57.3047 16.1172C56.4453 16.1172 55.748 15.8184 55.2129 15.2207C54.6816 14.623 54.416 13.832 54.416 12.8477V12.7715ZM55.5059 12.9004C55.5059 13.6035 55.668 14.168 55.9922 14.5938C56.3203 15.0195 56.7578 15.2324 57.3047 15.2324C57.8555 15.2324 58.293 15.0176 58.6172 14.5879C58.9414 14.1543 59.1035 13.5488 59.1035 12.7715C59.1035 12.0762 58.9375 11.5137 58.6055 11.084C58.2773 10.6504 57.8398 10.4336 57.293 10.4336C56.7578 10.4336 56.3262 10.6465 55.998 11.0723C55.6699 11.498 55.5059 12.1074 55.5059 12.9004ZM62.5723 9.66016L62.6074 10.457C63.0918 9.84766 63.7246 9.54297 64.5059 9.54297C65.8457 9.54297 66.5215 10.2988 66.5332 11.8105V16H65.4492V11.8047C65.4453 11.3477 65.3398 11.0098 65.1328 10.791C64.9297 10.5723 64.6113 10.4629 64.1777 10.4629C63.8262 10.4629 63.5176 10.5566 63.252 10.7441C62.9863 10.9316 62.7793 11.1777 62.6309 11.4824V16H61.5469V9.66016H62.5723Z" fill="black"/>
</g>
<defs>
<filter id="filter0_d" x="0" y="0" width="75" height="28" filterUnits="userSpaceOnUse" color-interpolation-filters="sRGB">
<feFlood flood-opacity="0" result="BackgroundImageFix"/>
<feColorMatrix in="SourceAlpha" type="matrix" values="0 0 0 0 0 0 0 0 0 0 0 0 0 0 0 0 0 0 127 0" result="hardAlpha"/>
<feOffset dy="2"/>
<feGaussianBlur stdDeviation="1"/>
<feComposite in2="hardAlpha" operator="out"/>
<feColorMatrix type="matrix" values="0 0 0 0 0 0 0 0 0 0 0 0 0 0 0 0 0 0 0.25 0"/>
<feBlend mode="normal" in2="BackgroundImageFix" result="effect1_dropShadow"/>
<feBlend mode="normal" in="SourceGraphic" in2="effect1_dropShadow" result="shape"/>
</filter>
<linearGradient id="paint0_linear" x1="8.73966" y1="4.61807" x2="17.6728" y2="13.4229" gradientUnits="userSpaceOnUse">
<stop stop-color="#387EB8"/>
<stop offset="1" stop-color="#366994"/>
</linearGradient>
<linearGradient id="paint1_linear" x1="14.1988" y1="10.2975" x2="23.79" y2="19.3242" gradientUnits="userSpaceOnUse">
<stop stop-color="#FFE052"/>
<stop offset="1" stop-color="#FFC331"/>
</linearGradient>
</defs>
</svg>
