<svg width="96" height="39" viewBox="0 0 96 39" fill="none" xmlns="http://www.w3.org/2000/svg">
<path d="M1 4C1 2.34315 2.34315 1 4 1H92C93.6569 1 95 2.34315 95 4V35C95 36.6569 93.6569 38 92 38H4C2.34315 38 1 36.6569 1 35V4Z" fill="#22272E"/>
<g clip-path="url(#clip0)">
<path d="M19.9355 10.5C15.365 10.5 15.65 12.492 15.65 12.492L15.6552 14.556H20.0157V15.1755H13.925C13.925 15.1755 11 14.8418 11 19.4767C11 24.1117 13.5523 23.9468 13.5523 23.9468H15.0748V21.7965C15.0748 21.7965 14.993 19.2315 17.5872 19.2315H21.9117C21.9117 19.2315 24.3417 19.2705 24.3417 16.8705V12.9015C24.3417 12.9015 24.71 10.5 19.9348 10.5H19.9355ZM17.531 11.8875C17.9645 11.8875 18.3155 12.24 18.3155 12.6765C18.3155 13.1122 17.9645 13.4648 17.531 13.4648C17.0968 13.4648 16.7465 13.1122 16.7465 12.6765C16.7465 12.24 17.0968 11.8875 17.531 11.8875Z" fill="#ADBAC7"/>
<path d="M20.0652 28.5C24.6342 28.5 24.3492 26.508 24.3492 26.508L24.344 24.444H19.9835V23.8245H26.0757C26.0757 23.8245 29.0007 24.1582 29.0007 19.5232C29.0007 14.8882 26.4477 15.0532 26.4477 15.0532H24.9252V17.2035C24.9252 17.2035 25.007 19.7685 22.4127 19.7685H18.089C18.089 19.7685 15.659 19.7295 15.659 22.1295V26.0985C15.659 26.0985 15.29 28.5 20.0652 28.5ZM22.4697 27.1125C22.0355 27.1125 21.6852 26.76 21.6852 26.3235C21.6852 25.8877 22.0355 25.5353 22.4697 25.5353C22.9032 25.5353 23.2542 25.8877 23.2542 26.3235C23.2542 26.76 22.9032 27.1125 22.4697 27.1125Z" fill="#ADBAC7"/>
</g>
<path d="M43.4336 21.2949V25H42.2852V15.1973H44.9785C46.0267 15.1973 46.8379 15.4525 47.4121 15.9629C47.9909 16.4733 48.2803 17.1934 48.2803 18.123C48.2803 19.0527 47.959 19.8138 47.3164 20.4062C46.6784 20.9987 45.8148 21.2949 44.7256 21.2949H43.4336ZM43.4336 16.2363V20.2559H44.6367C45.4297 20.2559 46.0335 20.0758 46.4482 19.7158C46.8675 19.3512 47.0771 18.8385 47.0771 18.1777C47.0771 16.8835 46.3115 16.2363 44.7803 16.2363H43.4336ZM55.5537 18L52.334 26.1211C51.7598 27.5703 50.9531 28.2949 49.9141 28.2949C49.6224 28.2949 49.3786 28.2653 49.1826 28.2061V27.2012C49.4242 27.2832 49.6452 27.3242 49.8457 27.3242C50.4108 27.3242 50.8346 26.987 51.1172 26.3125L51.6777 24.9863L48.9434 18H50.1875L52.0811 23.3867C52.1038 23.4551 52.1517 23.6328 52.2246 23.9199H52.2656C52.2884 23.8105 52.334 23.6374 52.4023 23.4004L54.3916 18H55.5537ZM60.0518 24.9316C59.7874 25.0775 59.4388 25.1504 59.0059 25.1504C57.7799 25.1504 57.167 24.4668 57.167 23.0996V18.957H55.9639V18H57.167V16.291L58.2881 15.9287V18H60.0518V18.957H58.2881V22.9014C58.2881 23.3708 58.3678 23.7057 58.5273 23.9062C58.6868 24.1068 58.9512 24.207 59.3203 24.207C59.6029 24.207 59.8467 24.1296 60.0518 23.9746V24.9316ZM67.3594 25H66.2383V20.9668C66.2383 19.5085 65.696 18.7793 64.6113 18.7793C64.0645 18.7793 63.6042 18.9912 63.2305 19.415C62.8568 19.8343 62.6699 20.3743 62.6699 21.0352V25H61.5488V14.6367H62.6699V19.1621H62.6973C63.235 18.278 64.0007 17.8359 64.9941 17.8359C66.571 17.8359 67.3594 18.7861 67.3594 20.6865V25ZM72.4043 25.1641C71.3698 25.1641 70.5426 24.8382 69.9229 24.1865C69.3076 23.5303 69 22.6621 69 21.582C69 20.4062 69.3213 19.488 69.9639 18.8271C70.6064 18.1663 71.4746 17.8359 72.5684 17.8359C73.612 17.8359 74.4255 18.1572 75.0088 18.7998C75.5967 19.4424 75.8906 20.3333 75.8906 21.4727C75.8906 22.5892 75.5739 23.4847 74.9404 24.1592C74.3115 24.8291 73.4661 25.1641 72.4043 25.1641ZM72.4863 18.7793C71.7663 18.7793 71.1966 19.0254 70.7773 19.5176C70.3581 20.0052 70.1484 20.6797 70.1484 21.541C70.1484 22.3704 70.3604 23.0244 70.7842 23.5029C71.208 23.9814 71.7754 24.2207 72.4863 24.2207C73.2109 24.2207 73.7669 23.986 74.1543 23.5166C74.5462 23.0472 74.7422 22.3796 74.7422 21.5137C74.7422 20.6387 74.5462 19.9642 74.1543 19.4902C73.7669 19.0163 73.2109 18.7793 72.4863 18.7793ZM83.4922 25H82.3711V21.0078C82.3711 19.5221 81.8288 18.7793 80.7441 18.7793C80.1836 18.7793 79.7188 18.9912 79.3496 19.415C78.985 19.8343 78.8027 20.3652 78.8027 21.0078V25H77.6816V18H78.8027V19.1621H78.8301C79.3587 18.278 80.1243 17.8359 81.127 17.8359C81.8926 17.8359 82.4782 18.0843 82.8838 18.5811C83.2894 19.0732 83.4922 19.7865 83.4922 20.7207V25Z" fill="#ADBAC7"/>
<path d="M4 2H92V0H4V2ZM94 4V35H96V4H94ZM92 37H4V39H92V37ZM2 35V4H0V35H2ZM4 37C2.89543 37 2 36.1046 2 35H0C0 37.2091 1.79086 39 4 39V37ZM94 35C94 36.1046 93.1046 37 92 37V39C94.2091 39 96 37.2091 96 35H94ZM92 2C93.1046 2 94 2.89543 94 4H96C96 1.79086 94.2091 0 92 0V2ZM4 0C1.79086 0 0 1.79086 0 4H2C2 2.89543 2.89543 2 4 2V0Z" fill="#ADBCA7"/>
<defs>
<clipPath id="clip0">
<rect width="18" height="18" fill="white" transform="translate(11 10.5)"/>
</clipPath>
</defs>
</svg>
