<svg width="84" height="36" viewBox="0 0 84 36" fill="none" xmlns="http://www.w3.org/2000/svg">
<g filter="url(#filter0_d)">
<path d="M2 3C2 1.34315 3.34315 0 5 0H79C80.6569 0 82 1.34315 82 3V29C82 30.6569 80.6569 32 79 32H5C3.34315 32 2 30.6569 2 29V3Z" fill="white"/>
<path d="M18.9239 7.00508C14.3678 7.00508 14.6522 8.98967 14.6522 8.98967L14.6573 11.0458H19.0051V11.6631H12.9304C12.9304 11.6631 10.0149 11.3309 10.0149 15.9485C10.0149 20.5661 12.5596 20.4024 12.5596 20.4024H14.0783V18.2596C14.0783 18.2596 13.9964 15.7036 16.5824 15.7036H20.8946C20.8946 15.7036 23.3174 15.7429 23.3174 13.3517V9.39788C23.3174 9.39788 23.6854 7.00508 18.9239 7.00508ZM16.5265 8.38776C16.6292 8.38767 16.731 8.40793 16.8259 8.44738C16.9209 8.48683 17.0071 8.54469 17.0798 8.61767C17.1524 8.69064 17.21 8.77729 17.2493 8.87265C17.2886 8.96801 17.3088 9.07021 17.3087 9.17341C17.3088 9.27661 17.2886 9.37881 17.2493 9.47417C17.21 9.56954 17.1524 9.65618 17.0798 9.72915C17.0071 9.80213 16.9209 9.85999 16.8259 9.89944C16.731 9.93889 16.6292 9.95915 16.5265 9.95906C16.4238 9.95915 16.322 9.93889 16.2271 9.89944C16.1321 9.85999 16.0459 9.80213 15.9732 9.72915C15.9006 9.65618 15.8429 9.56954 15.8037 9.47417C15.7644 9.37881 15.7442 9.27661 15.7443 9.17341C15.7442 9.07021 15.7644 8.96801 15.8037 8.87265C15.8429 8.77729 15.9006 8.69064 15.9732 8.61767C16.0459 8.54469 16.1321 8.48683 16.2271 8.44738C16.322 8.40793 16.4238 8.38767 16.5265 8.38776V8.38776Z" fill="url(#paint0_linear)"/>
<path d="M19.0532 24.9383C23.6093 24.9383 23.3249 22.9537 23.3249 22.9537L23.3198 20.8977H18.9719V20.2804H25.0466C25.0466 20.2804 27.9621 20.6125 27.9621 15.9948C27.9621 11.3772 25.4174 11.541 25.4174 11.541H23.8987V13.6837C23.8987 13.6837 23.9806 16.2397 21.3947 16.2397H17.0824C17.0824 16.2397 14.6596 16.2004 14.6596 18.5917V22.5456C14.6596 22.5456 14.2917 24.9383 19.0531 24.9383H19.0532ZM21.4506 23.5558C21.3479 23.5559 21.2461 23.5356 21.1512 23.4962C21.0562 23.4567 20.97 23.3988 20.8973 23.3259C20.8247 23.2529 20.767 23.1662 20.7278 23.0709C20.6885 22.9755 20.6683 22.8733 20.6684 22.7701C20.6683 22.6669 20.6885 22.5647 20.7278 22.4693C20.767 22.374 20.8246 22.2873 20.8973 22.2143C20.9699 22.1413 21.0562 22.0835 21.1511 22.044C21.2461 22.0046 21.3478 21.9843 21.4506 21.9844C21.5533 21.9843 21.6551 22.0046 21.75 22.044C21.845 22.0835 21.9312 22.1413 22.0039 22.2143C22.0765 22.2873 22.1341 22.3739 22.1734 22.4693C22.2127 22.5646 22.2329 22.6668 22.2328 22.77C22.2329 22.8732 22.2127 22.9754 22.1734 23.0708C22.1341 23.1662 22.0765 23.2528 22.0039 23.3258C21.9312 23.3988 21.845 23.4566 21.75 23.4961C21.6551 23.5355 21.5533 23.5558 21.4506 23.5557V23.5558Z" fill="url(#paint1_linear)"/>
<path d="M38.1152 16.6602V20H36.9902V11.4688H40.1367C41.0703 11.4688 41.8008 11.707 42.3281 12.1836C42.8594 12.6602 43.125 13.291 43.125 14.0762C43.125 14.9043 42.8652 15.543 42.3457 15.9922C41.8301 16.4375 41.0898 16.6602 40.125 16.6602H38.1152ZM38.1152 15.7402H40.1367C40.7383 15.7402 41.1992 15.5996 41.5195 15.3184C41.8398 15.0332 42 14.623 42 14.0879C42 13.5801 41.8398 13.1738 41.5195 12.8691C41.1992 12.5645 40.7598 12.4062 40.2012 12.3945H38.1152V15.7402ZM46.5586 18.4121L48.0352 13.6602H49.1953L46.6465 20.9785C46.252 22.0332 45.625 22.5605 44.7656 22.5605L44.5605 22.543L44.1562 22.4668V21.5879L44.4492 21.6113C44.8164 21.6113 45.1016 21.5371 45.3047 21.3887C45.5117 21.2402 45.6816 20.9688 45.8145 20.5742L46.0547 19.9297L43.793 13.6602H44.9766L46.5586 18.4121ZM51.6387 12.125V13.6602H52.8223V14.498H51.6387V18.4297C51.6387 18.6836 51.6914 18.875 51.7969 19.0039C51.9023 19.1289 52.082 19.1914 52.3359 19.1914C52.4609 19.1914 52.6328 19.168 52.8516 19.1211V20C52.5664 20.0781 52.2891 20.1172 52.0195 20.1172C51.5352 20.1172 51.1699 19.9707 50.9238 19.6777C50.6777 19.3848 50.5547 18.9688 50.5547 18.4297V14.498H49.4004V13.6602H50.5547V12.125H51.6387ZM55.1777 14.4277C55.6582 13.8379 56.2832 13.543 57.0527 13.543C58.3926 13.543 59.0684 14.2988 59.0801 15.8105V20H57.9961V15.8047C57.9922 15.3477 57.8867 15.0098 57.6797 14.791C57.4766 14.5723 57.1582 14.4629 56.7246 14.4629C56.373 14.4629 56.0645 14.5566 55.7988 14.7441C55.5332 14.9316 55.3262 15.1777 55.1777 15.4824V20H54.0938V11H55.1777V14.4277ZM60.416 16.7715C60.416 16.1504 60.5371 15.5918 60.7793 15.0957C61.0254 14.5996 61.3652 14.2168 61.7988 13.9473C62.2363 13.6777 62.7344 13.543 63.293 13.543C64.1562 13.543 64.8535 13.8418 65.3848 14.4395C65.9199 15.0371 66.1875 15.832 66.1875 16.8242V16.9004C66.1875 17.5176 66.0684 18.0723 65.8301 18.5645C65.5957 19.0527 65.2578 19.4336 64.8164 19.707C64.3789 19.9805 63.875 20.1172 63.3047 20.1172C62.4453 20.1172 61.748 19.8184 61.2129 19.2207C60.6816 18.623 60.416 17.832 60.416 16.8477V16.7715ZM61.5059 16.9004C61.5059 17.6035 61.668 18.168 61.9922 18.5938C62.3203 19.0195 62.7578 19.2324 63.3047 19.2324C63.8555 19.2324 64.293 19.0176 64.6172 18.5879C64.9414 18.1543 65.1035 17.5488 65.1035 16.7715C65.1035 16.0762 64.9375 15.5137 64.6055 15.084C64.2773 14.6504 63.8398 14.4336 63.293 14.4336C62.7578 14.4336 62.3262 14.6465 61.998 15.0723C61.6699 15.498 61.5059 16.1074 61.5059 16.9004ZM68.5723 13.6602L68.6074 14.457C69.0918 13.8477 69.7246 13.543 70.5059 13.543C71.8457 13.543 72.5215 14.2988 72.5332 15.8105V20H71.4492V15.8047C71.4453 15.3477 71.3398 15.0098 71.1328 14.791C70.9297 14.5723 70.6113 14.4629 70.1777 14.4629C69.8262 14.4629 69.5176 14.5566 69.252 14.7441C68.9863 14.9316 68.7793 15.1777 68.6309 15.4824V20H67.5469V13.6602H68.5723Z" fill="black"/>
</g>
<defs>
<filter id="filter0_d" x="0" y="0" width="84" height="36" filterUnits="userSpaceOnUse" color-interpolation-filters="sRGB">
<feFlood flood-opacity="0" result="BackgroundImageFix"/>
<feColorMatrix in="SourceAlpha" type="matrix" values="0 0 0 0 0 0 0 0 0 0 0 0 0 0 0 0 0 0 127 0" result="hardAlpha"/>
<feOffset dy="2"/>
<feGaussianBlur stdDeviation="1"/>
<feComposite in2="hardAlpha" operator="out"/>
<feColorMatrix type="matrix" values="0 0 0 0 0 0 0 0 0 0 0 0 0 0 0 0 0 0 0.25 0"/>
<feBlend mode="normal" in2="BackgroundImageFix" result="effect1_dropShadow"/>
<feBlend mode="normal" in="SourceGraphic" in2="effect1_dropShadow" result="shape"/>
</filter>
<linearGradient id="paint0_linear" x1="11.7397" y1="8.61807" x2="20.6728" y2="17.4229" gradientUnits="userSpaceOnUse">
<stop stop-color="#387EB8"/>
<stop offset="1" stop-color="#366994"/>
</linearGradient>
<linearGradient id="paint1_linear" x1="17.1988" y1="14.2975" x2="26.79" y2="23.3242" gradientUnits="userSpaceOnUse">
<stop stop-color="#FFE052"/>
<stop offset="1" stop-color="#FFC331"/>
</linearGradient>
</defs>
</svg>
