<svg xmlns="http://www.w3.org/2000/svg" width="146" height="56" fill="none"><rect width="128" height="48" x="9" y="4" fill="#E3F2FD" rx="4"/><g clip-path="url(#a)"><path fill="url(#b)" d="M39.898 16.007c-6.074 0-5.695 2.646-5.695 2.646l.007 2.741h5.797v.823h-8.1s-3.887-.442-3.887 5.714c0 6.157 3.393 5.939 3.393 5.939h2.025v-2.857s-.11-3.408 3.338-3.408h5.75s3.23.052 3.23-3.136v-5.272s.491-3.19-5.858-3.19Zm-3.196 1.843a1.038 1.038 0 0 1 .964.647 1.051 1.051 0 0 1-.565 1.369 1.038 1.038 0 0 1-1.137-.227 1.048 1.048 0 0 1-.226-1.142 1.047 1.047 0 0 1 .964-.647Z"/><path fill="url(#c)" d="M40.071 39.918c6.075 0 5.696-2.646 5.696-2.646l-.007-2.742h-5.797v-.823h8.1s3.886.443 3.886-5.714-3.392-5.938-3.392-5.938h-2.025v2.857s.109 3.408-3.34 3.408h-5.749s-3.23-.053-3.23 3.136v5.271s-.49 3.19 5.858 3.19Zm3.197-1.844a1.036 1.036 0 0 1-.964-.646 1.05 1.05 0 0 1 .963-1.449 1.039 1.039 0 0 1 .964.647 1.052 1.052 0 0 1-.564 1.369c-.127.052-.263.08-.4.08Z"/></g><path fill="#000" d="M70.781 30.266V34.5H69.47V23.297h3.078c1.198 0 2.125.291 2.781.875.662.583.992 1.406.992 2.469 0 1.062-.367 1.932-1.101 2.609-.73.677-1.716 1.016-2.961 1.016H70.78Zm0-5.782v4.594h1.375c.906 0 1.597-.206 2.07-.617.48-.417.72-1.003.72-1.758 0-1.479-.876-2.219-2.626-2.219h-1.539ZM84.633 26.5l-3.68 9.281c-.656 1.657-1.578 2.485-2.766 2.485-.333 0-.611-.034-.835-.102v-1.148c.276.093.528.14.757.14.646 0 1.13-.385 1.454-1.156l.64-1.516-3.125-7.984H78.5l2.164 6.156c.026.078.08.282.164.61h.047a9.12 9.12 0 0 1 .156-.594l2.274-6.172h1.328Zm5.094 7.922c-.303.167-.701.25-1.196.25-1.4 0-2.101-.781-2.101-2.344v-4.734h-1.375V26.5h1.375v-1.953l1.28-.414V26.5h2.017v1.094H87.71v4.508c0 .536.091.919.273 1.148.183.23.485.344.907.344.322 0 .601-.089.836-.266v1.094Zm8.351.078h-1.281v-4.61c0-1.666-.62-2.5-1.86-2.5-.624 0-1.15.243-1.578.727-.427.48-.64 1.096-.64 1.852V34.5h-1.281V22.656h1.28v5.172h.032c.615-1.01 1.49-1.515 2.625-1.515 1.802 0 2.703 1.085 2.703 3.257v4.93Zm5.766.188c-1.183 0-2.128-.373-2.836-1.118-.703-.75-1.055-1.742-1.055-2.976 0-1.344.367-2.393 1.102-3.149.734-.755 1.726-1.133 2.976-1.133 1.193 0 2.123.368 2.789 1.102.672.734 1.008 1.753 1.008 3.055 0 1.276-.362 2.3-1.086 3.07-.719.766-1.685 1.148-2.898 1.148Zm.094-7.297c-.823 0-1.474.28-1.954.843-.479.558-.718 1.328-.718 2.313 0 .948.242 1.695.726 2.242.485.547 1.133.82 1.946.82.828 0 1.463-.268 1.906-.804.448-.537.672-1.3.672-2.29 0-1-.224-1.77-.672-2.312-.443-.541-1.078-.812-1.906-.812Zm12.578 7.109h-1.282v-4.563c0-1.697-.619-2.546-1.859-2.546-.641 0-1.172.242-1.594.726-.416.48-.625 1.086-.625 1.82V34.5h-1.281v-8h1.281v1.328h.032c.604-1.01 1.479-1.515 2.624-1.515.876 0 1.545.283 2.008.851.464.563.696 1.378.696 2.445V34.5Z"/><rect width="128" height="48" x="9" y="4" stroke="#2196F3" stroke-width="2" rx="4"/><defs><linearGradient id="b" x1="30.32" x2="42.23" y1="18.157" y2="29.897" gradientUnits="userSpaceOnUse"><stop stop-color="#387EB8"/><stop offset="1" stop-color="#366994"/></linearGradient><linearGradient id="c" x1="37.598" x2="50.387" y1="25.73" y2="37.766" gradientUnits="userSpaceOnUse"><stop stop-color="#FFE052"/><stop offset="1" stop-color="#FFC331"/></linearGradient><clipPath id="a"><path fill="#fff" d="M28 16h24v24H28z"/></clipPath></defs></svg>