<svg width="82" height="34" viewBox="0 0 82 34" fill="none" xmlns="http://www.w3.org/2000/svg">
<path d="M1 4C1 2.34315 2.34315 1 4 1H78C79.6569 1 81 2.34315 81 4V30C81 31.6569 79.6569 33 78 33H4C2.34315 33 1 31.6569 1 30V4Z" fill="#C9D1D9"/>
<path d="M17.9239 8.00508C13.3678 8.00508 13.6522 9.98967 13.6522 9.98967L13.6573 12.0458H18.0051V12.6631H11.9304C11.9304 12.6631 9.01494 12.3309 9.01494 16.9485C9.01494 21.5661 11.5596 21.4024 11.5596 21.4024H13.0783V19.2596C13.0783 19.2596 12.9964 16.7036 15.5824 16.7036H19.8946C19.8946 16.7036 22.3174 16.7429 22.3174 14.3517V10.3979C22.3174 10.3979 22.6854 8.00508 17.9239 8.00508ZM15.5265 9.38776C15.6292 9.38767 15.731 9.40793 15.8259 9.44738C15.9209 9.48683 16.0071 9.54469 16.0798 9.61767C16.1524 9.69064 16.21 9.77729 16.2493 9.87265C16.2886 9.96801 16.3088 10.0702 16.3087 10.1734C16.3088 10.2766 16.2886 10.3788 16.2493 10.4742C16.21 10.5695 16.1524 10.6562 16.0798 10.7292C16.0071 10.8021 15.9209 10.86 15.8259 10.8994C15.731 10.9389 15.6292 10.9592 15.5265 10.9591C15.4238 10.9592 15.322 10.9389 15.2271 10.8994C15.1321 10.86 15.0459 10.8021 14.9732 10.7292C14.9006 10.6562 14.8429 10.5695 14.8037 10.4742C14.7644 10.3788 14.7442 10.2766 14.7443 10.1734C14.7442 10.0702 14.7644 9.96801 14.8037 9.87265C14.8429 9.77729 14.9006 9.69064 14.9732 9.61767C15.0459 9.54469 15.1321 9.48683 15.2271 9.44738C15.322 9.40793 15.4238 9.38767 15.5265 9.38776Z" fill="url(#paint0_linear)"/>
<path d="M18.0532 25.9383C22.6093 25.9383 22.3249 23.9537 22.3249 23.9537L22.3198 21.8977H17.9719V21.2804H24.0466C24.0466 21.2804 26.9621 21.6125 26.9621 16.9948C26.9621 12.3772 24.4174 12.541 24.4174 12.541H22.8987V14.6837C22.8987 14.6837 22.9806 17.2397 20.3947 17.2397H16.0824C16.0824 17.2397 13.6596 17.2004 13.6596 19.5917V23.5456C13.6596 23.5456 13.2917 25.9383 18.0531 25.9383H18.0532ZM20.4506 24.5558C20.3479 24.5559 20.2461 24.5356 20.1512 24.4962C20.0562 24.4567 19.97 24.3988 19.8973 24.3259C19.8247 24.2529 19.767 24.1662 19.7278 24.0709C19.6885 23.9755 19.6683 23.8733 19.6684 23.7701C19.6683 23.6669 19.6885 23.5647 19.7278 23.4693C19.767 23.374 19.8246 23.2873 19.8973 23.2143C19.9699 23.1413 20.0562 23.0835 20.1511 23.044C20.2461 23.0046 20.3478 22.9843 20.4506 22.9844C20.5533 22.9843 20.6551 23.0046 20.75 23.044C20.845 23.0835 20.9312 23.1413 21.0039 23.2143C21.0765 23.2873 21.1341 23.3739 21.1734 23.4693C21.2127 23.5646 21.2329 23.6668 21.2328 23.77C21.2329 23.8732 21.2127 23.9754 21.1734 24.0708C21.1341 24.1662 21.0765 24.2528 21.0039 24.3258C20.9312 24.3988 20.845 24.4566 20.75 24.4961C20.6551 24.5355 20.5533 24.5558 20.4506 24.5557V24.5558Z" fill="url(#paint1_linear)"/>
<path d="M37.1152 17.6602V21H35.9902V12.4688H39.1367C40.0703 12.4688 40.8008 12.707 41.3281 13.1836C41.8594 13.6602 42.125 14.291 42.125 15.0762C42.125 15.9043 41.8652 16.543 41.3457 16.9922C40.8301 17.4375 40.0898 17.6602 39.125 17.6602H37.1152ZM37.1152 16.7402H39.1367C39.7383 16.7402 40.1992 16.5996 40.5195 16.3184C40.8398 16.0332 41 15.623 41 15.0879C41 14.5801 40.8398 14.1738 40.5195 13.8691C40.1992 13.5645 39.7598 13.4062 39.2012 13.3945H37.1152V16.7402ZM45.5586 19.4121L47.0352 14.6602H48.1953L45.6465 21.9785C45.252 23.0332 44.625 23.5605 43.7656 23.5605L43.5605 23.543L43.1562 23.4668V22.5879L43.4492 22.6113C43.8164 22.6113 44.1016 22.5371 44.3047 22.3887C44.5117 22.2402 44.6816 21.9688 44.8145 21.5742L45.0547 20.9297L42.793 14.6602H43.9766L45.5586 19.4121ZM50.6387 13.125V14.6602H51.8223V15.498H50.6387V19.4297C50.6387 19.6836 50.6914 19.875 50.7969 20.0039C50.9023 20.1289 51.082 20.1914 51.3359 20.1914C51.4609 20.1914 51.6328 20.168 51.8516 20.1211V21C51.5664 21.0781 51.2891 21.1172 51.0195 21.1172C50.5352 21.1172 50.1699 20.9707 49.9238 20.6777C49.6777 20.3848 49.5547 19.9688 49.5547 19.4297V15.498H48.4004V14.6602H49.5547V13.125H50.6387ZM54.1777 15.4277C54.6582 14.8379 55.2832 14.543 56.0527 14.543C57.3926 14.543 58.0684 15.2988 58.0801 16.8105V21H56.9961V16.8047C56.9922 16.3477 56.8867 16.0098 56.6797 15.791C56.4766 15.5723 56.1582 15.4629 55.7246 15.4629C55.373 15.4629 55.0645 15.5566 54.7988 15.7441C54.5332 15.9316 54.3262 16.1777 54.1777 16.4824V21H53.0938V12H54.1777V15.4277ZM59.416 17.7715C59.416 17.1504 59.5371 16.5918 59.7793 16.0957C60.0254 15.5996 60.3652 15.2168 60.7988 14.9473C61.2363 14.6777 61.7344 14.543 62.293 14.543C63.1562 14.543 63.8535 14.8418 64.3848 15.4395C64.9199 16.0371 65.1875 16.832 65.1875 17.8242V17.9004C65.1875 18.5176 65.0684 19.0723 64.8301 19.5645C64.5957 20.0527 64.2578 20.4336 63.8164 20.707C63.3789 20.9805 62.875 21.1172 62.3047 21.1172C61.4453 21.1172 60.748 20.8184 60.2129 20.2207C59.6816 19.623 59.416 18.832 59.416 17.8477V17.7715ZM60.5059 17.9004C60.5059 18.6035 60.668 19.168 60.9922 19.5938C61.3203 20.0195 61.7578 20.2324 62.3047 20.2324C62.8555 20.2324 63.293 20.0176 63.6172 19.5879C63.9414 19.1543 64.1035 18.5488 64.1035 17.7715C64.1035 17.0762 63.9375 16.5137 63.6055 16.084C63.2773 15.6504 62.8398 15.4336 62.293 15.4336C61.7578 15.4336 61.3262 15.6465 60.998 16.0723C60.6699 16.498 60.5059 17.1074 60.5059 17.9004ZM67.5723 14.6602L67.6074 15.457C68.0918 14.8477 68.7246 14.543 69.5059 14.543C70.8457 14.543 71.5215 15.2988 71.5332 16.8105V21H70.4492V16.8047C70.4453 16.3477 70.3398 16.0098 70.1328 15.791C69.9297 15.5723 69.6113 15.4629 69.1777 15.4629C68.8262 15.4629 68.5176 15.5566 68.252 15.7441C67.9863 15.9316 67.7793 16.1777 67.6309 16.4824V21H66.5469V14.6602H67.5723Z" fill="#22272E"/>
<path d="M4 2H78V0H4V2ZM80 4V30H82V4H80ZM78 32H4V34H78V32ZM2 30V4H0V30H2ZM4 32C2.89543 32 2 31.1046 2 30H0C0 32.2091 1.79086 34 4 34V32ZM80 30C80 31.1046 79.1046 32 78 32V34C80.2091 34 82 32.2091 82 30H80ZM78 2C79.1046 2 80 2.89543 80 4H82C82 1.79086 80.2091 0 78 0V2ZM4 0C1.79086 0 0 1.79086 0 4H2C2 2.89543 2.89543 2 4 2V0Z" fill="#30363D"/>
<defs>
<linearGradient id="paint0_linear" x1="10.7397" y1="9.61807" x2="19.6728" y2="18.4229" gradientUnits="userSpaceOnUse">
<stop stop-color="#387EB8"/>
<stop offset="1" stop-color="#366994"/>
</linearGradient>
<linearGradient id="paint1_linear" x1="16.1988" y1="15.2975" x2="25.79" y2="24.3242" gradientUnits="userSpaceOnUse">
<stop stop-color="#FFE052"/>
<stop offset="1" stop-color="#FFC331"/>
</linearGradient>
</defs>
</svg>
