<svg width="114" height="45" viewBox="0 0 114 45" fill="none" xmlns="http://www.w3.org/2000/svg">
<path d="M1 4C1 2.34314 2.34315 1 4 1H110C111.657 1 113 2.34315 113 4V41C113 42.6569 111.657 44 110 44H4C2.34315 44 1 42.6569 1 41V4Z" fill="#22272E"/>
<g clip-path="url(#clip0)">
<path d="M23.9355 13.5C19.365 13.5 19.65 15.492 19.65 15.492L19.6552 17.556H24.0157V18.1755H17.925C17.925 18.1755 15 17.8418 15 22.4767C15 27.1117 17.5523 26.9468 17.5523 26.9468H19.0748V24.7965C19.0748 24.7965 18.993 22.2315 21.5872 22.2315H25.9117C25.9117 22.2315 28.3417 22.2705 28.3417 19.8705V15.9015C28.3417 15.9015 28.71 13.5 23.9348 13.5H23.9355ZM21.531 14.8875C21.9645 14.8875 22.3155 15.24 22.3155 15.6765C22.3155 16.1122 21.9645 16.4648 21.531 16.4648C21.0968 16.4648 20.7465 16.1122 20.7465 15.6765C20.7465 15.24 21.0968 14.8875 21.531 14.8875Z" fill="#ADBAC7"/>
<path d="M24.0652 31.5C28.6342 31.5 28.3492 29.508 28.3492 29.508L28.344 27.444H23.9835V26.8245H30.0757C30.0757 26.8245 33.0007 27.1582 33.0007 22.5232C33.0007 17.8882 30.4477 18.0532 30.4477 18.0532H28.9252V20.2035C28.9252 20.2035 29.007 22.7685 26.4127 22.7685H22.089C22.089 22.7685 19.659 22.7295 19.659 25.1295V29.0985C19.659 29.0985 19.29 31.5 24.0652 31.5ZM26.4697 30.1125C26.0355 30.1125 25.6852 29.76 25.6852 29.3235C25.6852 28.8877 26.0355 28.5353 26.4697 28.5353C26.9032 28.5353 27.2542 28.8877 27.2542 29.3235C27.2542 29.76 26.9032 30.1125 26.4697 30.1125Z" fill="#ADBAC7"/>
</g>
<path d="M47.7812 24.7656V29H46.4688V17.7969H49.5469C50.7448 17.7969 51.6719 18.0885 52.3281 18.6719C52.9896 19.2552 53.3203 20.0781 53.3203 21.1406C53.3203 22.2031 52.9531 23.0729 52.2188 23.75C51.4896 24.4271 50.5026 24.7656 49.2578 24.7656H47.7812ZM47.7812 18.9844V23.5781H49.1562C50.0625 23.5781 50.7526 23.3724 51.2266 22.9609C51.7057 22.5443 51.9453 21.9583 51.9453 21.2031C51.9453 19.724 51.0703 18.9844 49.3203 18.9844H47.7812ZM61.6328 21L57.9531 30.2812C57.2969 31.9375 56.375 32.7656 55.1875 32.7656C54.8542 32.7656 54.5755 32.7318 54.3516 32.6641V31.5156C54.6276 31.6094 54.8802 31.6562 55.1094 31.6562C55.7552 31.6562 56.2396 31.2708 56.5625 30.5L57.2031 28.9844L54.0781 21H55.5L57.6641 27.1562C57.6901 27.2344 57.7448 27.4375 57.8281 27.7656H57.875C57.901 27.6406 57.9531 27.4427 58.0312 27.1719L60.3047 21H61.6328ZM66.7734 28.9219C66.4714 29.0885 66.0729 29.1719 65.5781 29.1719C64.1771 29.1719 63.4766 28.3906 63.4766 26.8281V22.0938H62.1016V21H63.4766V19.0469L64.7578 18.6328V21H66.7734V22.0938H64.7578V26.6016C64.7578 27.138 64.849 27.5208 65.0312 27.75C65.2135 27.9792 65.5156 28.0938 65.9375 28.0938C66.2604 28.0938 66.5391 28.0052 66.7734 27.8281V28.9219ZM75.125 29H73.8438V24.3906C73.8438 22.724 73.224 21.8906 71.9844 21.8906C71.3594 21.8906 70.8333 22.1328 70.4062 22.6172C69.9792 23.0964 69.7656 23.7135 69.7656 24.4688V29H68.4844V17.1562H69.7656V22.3281H69.7969C70.4115 21.3177 71.2865 20.8125 72.4219 20.8125C74.224 20.8125 75.125 21.8984 75.125 24.0703V29ZM80.8906 29.1875C79.7083 29.1875 78.763 28.8151 78.0547 28.0703C77.3516 27.3203 77 26.3281 77 25.0938C77 23.75 77.3672 22.7005 78.1016 21.9453C78.8359 21.1901 79.8281 20.8125 81.0781 20.8125C82.2708 20.8125 83.2005 21.1797 83.8672 21.9141C84.5391 22.6484 84.875 23.6667 84.875 24.9688C84.875 26.2448 84.513 27.2682 83.7891 28.0391C83.0703 28.8047 82.1042 29.1875 80.8906 29.1875ZM80.9844 21.8906C80.1615 21.8906 79.5104 22.1719 79.0312 22.7344C78.5521 23.2917 78.3125 24.0625 78.3125 25.0469C78.3125 25.9948 78.5547 26.7422 79.0391 27.2891C79.5234 27.8359 80.1719 28.1094 80.9844 28.1094C81.8125 28.1094 82.4479 27.8411 82.8906 27.3047C83.3385 26.7682 83.5625 26.0052 83.5625 25.0156C83.5625 24.0156 83.3385 23.2448 82.8906 22.7031C82.4479 22.1615 81.8125 21.8906 80.9844 21.8906ZM93.5625 29H92.2812V24.4375C92.2812 22.7396 91.6615 21.8906 90.4219 21.8906C89.7812 21.8906 89.25 22.1328 88.8281 22.6172C88.4115 23.0964 88.2031 23.7031 88.2031 24.4375V29H86.9219V21H88.2031V22.3281H88.2344C88.8385 21.3177 89.7135 20.8125 90.8594 20.8125C91.7344 20.8125 92.4036 21.0964 92.8672 21.6641C93.3307 22.2266 93.5625 23.0417 93.5625 24.1094V29Z" fill="#ADBAC7"/>
<path d="M4 2H110V0H4V2ZM112 4V41H114V4H112ZM110 43H4V45H110V43ZM2 41V4H0V41H2ZM4 43C2.89543 43 2 42.1046 2 41H0C0 43.2091 1.79086 45 4 45V43ZM112 41C112 42.1046 111.105 43 110 43V45C112.209 45 114 43.2091 114 41H112ZM110 2C111.105 2 112 2.89543 112 4H114C114 1.79086 112.209 0 110 0V2ZM4 0C1.79086 0 0 1.79086 0 4H2C2 2.89543 2.89543 2 4 2V0Z" fill="#444C56"/>
<defs>
<clipPath id="clip0">
<rect width="18" height="18" fill="white" transform="translate(15 13.5)"/>
</clipPath>
</defs>
</svg>
