<svg width="19" height="18" viewBox="0 0 19 18" fill="none" xmlns="http://www.w3.org/2000/svg">
<g clip-path="url(#clip0)">
<path d="M9.91938 0.00509644C5.36326 0.00509644 5.64773 1.98968 5.64773 1.98968L5.65279 4.04578H10.0006V4.66307H3.9259C3.9259 4.66307 1.01044 4.33096 1.01044 8.94849C1.01044 13.5662 3.55513 13.4024 3.55513 13.4024H5.07379V11.2596C5.07379 11.2596 4.99192 8.70362 7.57786 8.70362H11.8901C11.8901 8.70362 14.3129 8.74293 14.3129 6.35169V2.3979C14.3129 2.3979 14.6809 0.00509644 9.91938 0.00509644ZM7.52199 1.38778C7.62473 1.38769 7.72649 1.40794 7.82142 1.44739C7.91636 1.48684 8.00263 1.54471 8.07528 1.61768C8.14793 1.69065 8.20554 1.7773 8.24481 1.87266C8.28409 1.96802 8.30425 2.07023 8.30416 2.17343C8.30425 2.27662 8.28409 2.37883 8.24481 2.47419C8.20554 2.56955 8.14793 2.6562 8.07528 2.72917C8.00263 2.80214 7.91636 2.86001 7.82142 2.89946C7.72649 2.93891 7.62473 2.95917 7.52199 2.95907C7.41925 2.95917 7.3175 2.93891 7.22256 2.89946C7.12762 2.86001 7.04136 2.80214 6.96871 2.72917C6.89606 2.6562 6.83845 2.56955 6.79917 2.47419C6.7599 2.37883 6.73973 2.27662 6.73982 2.17343C6.73973 2.07023 6.7599 1.96802 6.79917 1.87266C6.83845 1.7773 6.89606 1.69065 6.96871 1.61768C7.04136 1.54471 7.12762 1.48684 7.22256 1.44739C7.3175 1.40794 7.41925 1.38769 7.52199 1.38778Z" fill="url(#paint0_linear)"/>
<path d="M10.0487 17.9383C14.6048 17.9383 14.3203 15.9537 14.3203 15.9537L14.3153 13.8977H9.96736V13.2804H16.0421C16.0421 13.2804 18.9575 13.6125 18.9575 8.99484C18.9575 4.37724 16.4129 4.541 16.4129 4.541H14.8942V6.68371C14.8942 6.68371 14.9761 9.23971 12.3901 9.23971H8.07785C8.07785 9.23971 5.65509 9.20039 5.65509 11.5917V15.5456C5.65509 15.5456 5.2872 17.9383 10.0486 17.9383H10.0487ZM12.4461 16.5558C12.3433 16.5558 12.2416 16.5356 12.1466 16.4961C12.0517 16.4567 11.9654 16.3988 11.8928 16.3259C11.8201 16.2529 11.7625 16.1662 11.7232 16.0709C11.684 15.9755 11.6638 15.8733 11.6639 15.7701C11.6638 15.6669 11.6839 15.5647 11.7232 15.4693C11.7625 15.374 11.8201 15.2873 11.8928 15.2143C11.9654 15.1413 12.0517 15.0835 12.1466 15.044C12.2416 15.0046 12.3433 14.9843 12.4461 14.9844C12.5488 14.9843 12.6506 15.0046 12.7455 15.044C12.8404 15.0835 12.9267 15.1413 12.9993 15.2143C13.072 15.2873 13.1296 15.3739 13.1689 15.4693C13.2082 15.5646 13.2283 15.6668 13.2282 15.77C13.2283 15.8732 13.2082 15.9754 13.1689 16.0708C13.1296 16.1662 13.072 16.2528 12.9993 16.3258C12.9267 16.3988 12.8404 16.4566 12.7455 16.4961C12.6506 16.5355 12.5488 16.5558 12.4461 16.5557V16.5558Z" fill="url(#paint1_linear)"/>
</g>
<defs>
<linearGradient id="paint0_linear" x1="2.73516" y1="1.61808" x2="11.6683" y2="10.423" gradientUnits="userSpaceOnUse">
<stop stop-color="#387EB8"/>
<stop offset="1" stop-color="#366994"/>
</linearGradient>
<linearGradient id="paint1_linear" x1="8.19425" y1="7.29746" x2="17.7854" y2="16.3242" gradientUnits="userSpaceOnUse">
<stop stop-color="#FFE052"/>
<stop offset="1" stop-color="#FFC331"/>
</linearGradient>
<clipPath id="clip0">
<rect width="18" height="18" fill="white" transform="translate(0.995483)"/>
</clipPath>
</defs>
</svg>
