<svg width="84" height="47" viewBox="0 0 84 47" fill="none" xmlns="http://www.w3.org/2000/svg">
<rect x="1" y="1" width="82" height="45" rx="4" fill="#22272E"/>
<path fill-rule="evenodd" clip-rule="evenodd" d="M18.474 16.8961H34V27.6022L31.4913 30.1039H16V19.3658L18.474 16.8961V16.8961ZM20.7677 19.6752C21.3571 19.2852 22.0861 19.1866 22.7792 19.1928C23.4392 19.201 24.132 19.3167 24.679 19.7106C25.0764 19.99 25.3347 20.4213 25.5069 20.8674C25.7855 21.5999 25.8673 22.3908 25.8766 23.1692C25.8778 23.9531 25.8423 24.7541 25.5829 25.501C25.4091 26.0091 25.0783 26.4602 24.6419 26.7735C24.956 27.2823 25.2762 27.7873 25.5903 28.2961C25.1956 28.478 24.8021 28.6612 24.407 28.8423C24.0708 28.2875 23.7361 27.7315 23.3987 27.1775C22.9425 27.2523 22.4757 27.2465 22.0171 27.1958C21.4678 27.13 20.908 26.9625 20.484 26.5927C20.1583 26.3106 19.9538 25.916 19.8139 25.5146C19.5848 24.836 19.5233 24.1136 19.5127 23.4014C19.5073 22.6316 19.5563 21.8496 19.7886 21.1109C19.9682 20.5553 20.2654 20.0009 20.7677 19.6752V19.6752ZM27.4588 25.0027V22.3533H26.5955V21.2894H27.4588V19.6503H28.6721V21.2894H30.2831L30.2543 22.3534H28.6721V25.0394C28.6599 26.2294 29.1265 26.0268 30.2254 25.9686L30.2831 26.9461C28.5104 27.2084 27.4024 27.323 27.4588 25.0027V25.0027ZM20.9134 24.5352C20.7583 23.5939 20.7209 22.6199 20.9328 21.684C21.1171 19.692 24.6742 19.5788 24.4947 22.5474C24.5391 23.2105 24.5328 23.8798 24.4413 24.5391C24.4389 26.6838 20.911 26.6799 20.9134 24.5352Z" fill="#ADBAC7"/>
<path d="M51.9844 30.1875C50.401 30.1875 49.1276 29.6641 48.1641 28.6172C47.2109 27.5703 46.7344 26.2083 46.7344 24.5312C46.7344 22.724 47.2214 21.2865 48.1953 20.2188C49.1745 19.1458 50.5 18.6094 52.1719 18.6094C53.7135 18.6094 54.9583 19.1302 55.9062 20.1719C56.8542 21.2135 57.3281 22.5755 57.3281 24.2578C57.3281 26.0859 56.8438 27.5312 55.875 28.5938C55.6458 28.849 55.401 29.0677 55.1406 29.25L58.2891 31.5078H55.9062L53.7969 29.9297C53.2448 30.1016 52.6406 30.1875 51.9844 30.1875ZM52.0781 19.7969C50.901 19.7969 49.9453 20.2214 49.2109 21.0703C48.4766 21.9193 48.1094 23.0339 48.1094 24.4141C48.1094 25.7891 48.4661 26.901 49.1797 27.75C49.8984 28.5885 50.8333 29.0078 51.9844 29.0078C53.2135 29.0078 54.1823 28.6068 54.8906 27.8047C55.599 27.0026 55.9531 25.8802 55.9531 24.4375C55.9531 22.9531 55.6094 21.8099 54.9219 21.0078C54.2344 20.2005 53.2865 19.7969 52.0781 19.7969ZM63.0703 29.9219C62.7682 30.0885 62.3698 30.1719 61.875 30.1719C60.474 30.1719 59.7734 29.3906 59.7734 27.8281V23.0938H58.3984V22H59.7734V20.0469L61.0547 19.6328V22H63.0703V23.0938H61.0547V27.6016C61.0547 28.138 61.1458 28.5208 61.3281 28.75C61.5104 28.9792 61.8125 29.0938 62.2344 29.0938C62.5573 29.0938 62.8359 29.0052 63.0703 28.8281V29.9219Z" fill="#ADBAC7"/>
<rect x="1" y="1" width="82" height="45" rx="4" stroke="#444C56" stroke-width="2"/>
</svg>
