<svg xmlns="http://www.w3.org/2000/svg" width="114" height="56" fill="none"><rect width="96" height="48" x="9" y="4" fill="#E3F2FD" rx="4"/><g clip-path="url(#a)"><path fill="#41CD52" d="M49.693 19H31.329L28 22.383v14.579h20.67L52 33.579V19h-2.307Z"/><path fill="#fff" d="M36.949 22.142c1.562 0 2.658.449 3.28 1.355.63.897.94 2.285.94 4.164 0 1.238-.13 2.236-.384 2.992-.262.765-.679 1.347-1.268 1.746l1.268 2.086-1.562.74-1.35-2.253c-.196.058-.499.091-.924.091-1.58 0-2.683-.432-3.305-1.296-.622-.865-.932-2.236-.932-4.098 0-1.87.319-3.258.948-4.164.63-.906 1.726-1.363 3.289-1.363Zm7.967.598v2.245h2.094v1.437h-2.094v3.4c0 .631.049 1.047.139 1.247.09.207.327.307.695.307l1.243-.05.074 1.347c-.67.133-1.186.2-1.546.2-.859 0-1.448-.2-1.767-.6-.319-.398-.482-1.155-.482-2.268v-3.59H42.11v-1.43h1.162V22.74h1.644Zm-7.937.79c-.947 0-1.6.322-1.96.973-.35.65-.53 1.683-.53 3.112 0 1.42.172 2.444.515 3.052.342.61 1.003.922 1.975.922.97 0 1.624-.304 1.967-.905.334-.6.506-1.623.506-3.052 0-1.438-.172-2.478-.523-3.13-.35-.65-1.004-.972-1.95-.972Z"/></g><path fill="#000" d="M73.984 34.688c-1.583 0-2.856-.524-3.82-1.57-.953-1.048-1.43-2.41-1.43-4.087 0-1.807.487-3.244 1.461-4.312.98-1.073 2.305-1.61 3.977-1.61 1.541 0 2.786.521 3.734 1.563.948 1.041 1.422 2.404 1.422 4.086 0 1.828-.484 3.273-1.453 4.336-.23.255-.474.474-.734.656l3.148 2.258h-2.383l-2.11-1.578a6.072 6.072 0 0 1-1.812.258Zm.094-10.391c-1.177 0-2.133.424-2.867 1.273-.734.85-1.102 1.964-1.102 3.344 0 1.375.357 2.487 1.07 3.336.72.839 1.654 1.258 2.805 1.258 1.23 0 2.198-.401 2.907-1.203.708-.802 1.062-1.925 1.062-3.367 0-1.485-.344-2.628-1.031-3.43-.688-.807-1.635-1.211-2.844-1.211ZM85.07 34.422c-.302.167-.7.25-1.195.25-1.401 0-2.102-.781-2.102-2.344v-4.734h-1.375V26.5h1.375v-1.953l1.282-.414V26.5h2.015v1.094h-2.015v4.508c0 .536.09.919.273 1.148.182.23.484.344.906.344.323 0 .602-.089.836-.266v1.094Z"/><rect width="96" height="48" x="9" y="4" stroke="#2196F3" stroke-width="2" rx="4"/><defs><clipPath id="a"><path fill="#fff" d="M28 19h24v18H28z"/></clipPath></defs></svg>