<svg width="86" height="39" viewBox="0 0 86 39" fill="none" xmlns="http://www.w3.org/2000/svg">
<path d="M1 4C1 2.34315 2.34315 1 4 1H82C83.6569 1 85 2.34315 85 4V35C85 36.6569 83.6569 38 82 38H4C2.34314 38 1 36.6569 1 35V4Z" fill="#22272E"/>
<path d="M29 19.2668C29 18.0743 27.5067 16.944 25.217 16.2435C25.7457 13.9102 25.511 12.0532 24.476 11.4585C24.2252 11.318 23.9414 11.2473 23.654 11.2537V12.0713C23.8227 12.0713 23.9585 12.105 24.0725 12.1673C24.5713 12.4538 24.788 13.5428 24.6193 14.9445C24.5788 15.2895 24.5128 15.6525 24.4318 16.023C23.665 15.8382 22.8868 15.7047 22.1023 15.6232C21.6349 14.9785 21.125 14.3656 20.576 13.7888C21.7722 12.6773 22.895 12.0683 23.6585 12.0683V11.25C22.649 11.25 21.3282 11.9692 19.9925 13.2165C18.6575 11.9775 17.336 11.265 16.3273 11.265V12.0825C17.087 12.0825 18.2135 12.6885 19.4098 13.7925C18.896 14.3325 18.3823 14.9445 17.894 15.6232C17.1079 15.7038 16.3283 15.8386 15.5607 16.0267C15.476 15.66 15.4138 15.3045 15.3695 14.9633C15.197 13.5608 15.41 12.4718 15.9057 12.1823C16.0152 12.1163 16.1585 12.0863 16.3273 12.0863V11.2687C16.0198 11.2687 15.74 11.3347 15.4985 11.4735C14.4673 12.0682 14.2363 13.9208 14.768 16.2473C12.4858 16.9523 11 18.078 11 19.2668C11 20.4593 12.4933 21.5895 14.783 22.2892C14.2543 24.6232 14.489 26.4803 15.524 27.0743C15.7625 27.2138 16.0415 27.2797 16.349 27.2797C17.3585 27.2797 18.6793 26.5605 20.015 25.3132C21.35 26.553 22.6707 27.2648 23.6802 27.2648C23.9698 27.2709 24.2558 27.1999 24.509 27.0593C25.5402 26.4653 25.7713 24.6128 25.2395 22.2863C27.5143 21.5858 29 20.4555 29 19.2668ZM24.2225 16.8195C24.08 17.3099 23.9148 17.7934 23.7275 18.2685C23.4209 17.6721 23.0842 17.0916 22.7188 16.5292C23.24 16.6065 23.7425 16.7017 24.2233 16.8195H24.2225ZM22.5425 20.727C22.2568 21.222 21.9628 21.6923 21.6583 22.1288C20.5574 22.2258 19.4503 22.227 18.3492 22.1325C17.7177 21.2304 17.1654 20.2753 16.6985 19.278C17.1647 18.2783 17.7147 17.3199 18.3425 16.413C19.443 16.3158 20.5499 16.3143 21.6508 16.4085C21.9553 16.845 22.253 17.3115 22.5388 17.8035C22.8178 18.2835 23.0712 18.771 23.3022 19.263C23.0687 19.761 22.8152 20.2494 22.5425 20.727V20.727ZM23.7275 20.25C23.9255 20.7412 24.095 21.2332 24.2338 21.7102C23.7538 21.828 23.2468 21.927 22.7225 22.0035C23.0864 21.4361 23.4218 20.8508 23.7275 20.25V20.25ZM20.0075 24.165C19.6663 23.8125 19.325 23.4202 18.9875 22.9905C19.3175 23.0055 19.655 23.0167 19.9962 23.0167C20.3412 23.0167 20.6825 23.0092 21.0162 22.9905C20.6862 23.4202 20.345 23.8125 20.0075 24.165ZM17.2775 22.0035C16.7718 21.9302 16.2698 21.8336 15.773 21.714C15.9087 21.2407 16.0775 20.7525 16.268 20.265C16.4188 20.5575 16.577 20.8515 16.7495 21.1455C16.922 21.4388 17.0975 21.7253 17.2775 22.0035ZM19.9887 14.3685C20.33 14.721 20.6713 15.1132 21.0088 15.543C20.6788 15.528 20.3413 15.5168 20 15.5168C19.655 15.5168 19.3138 15.5242 18.98 15.543C19.31 15.1132 19.6512 14.721 19.9887 14.3685ZM17.2737 16.53C16.9099 17.0962 16.5745 17.6802 16.2688 18.2798C16.0762 17.8016 15.9072 17.3143 15.7625 16.8195C16.2425 16.7055 16.7495 16.6065 17.2737 16.53ZM13.9535 21.123C12.6545 20.5695 11.8145 19.8428 11.8145 19.2668C11.8145 18.6908 12.6545 17.9602 13.9535 17.4105C14.2685 17.2747 14.6135 17.1533 14.9698 17.04C15.179 17.7585 15.4543 18.507 15.7948 19.2743C15.4733 19.9959 15.2014 20.7386 14.981 21.4973C14.6326 21.3894 14.2897 21.2645 13.9535 21.123V21.123ZM15.9275 26.3655C15.4288 26.0805 15.212 24.99 15.3808 23.589C15.4213 23.244 15.4873 22.8803 15.5683 22.5098C16.2868 22.686 17.072 22.8218 17.8977 22.9103C18.3651 23.555 18.875 24.1679 19.424 24.7448C18.2278 25.8563 17.105 26.4653 16.3415 26.4653C16.1975 26.4668 16.0553 26.4328 15.9275 26.3663V26.3655ZM24.6305 23.5703C24.803 24.972 24.59 26.0618 24.0942 26.3513C23.9847 26.4173 23.8415 26.4465 23.6727 26.4465C22.913 26.4465 21.7865 25.8413 20.5902 24.7365C21.104 24.198 21.6177 23.5852 22.106 22.9065C22.8921 22.826 23.6717 22.6912 24.4393 22.503C24.524 22.8735 24.5892 23.229 24.6305 23.5703V23.5703ZM26.0427 21.123C25.7277 21.2587 25.3827 21.3802 25.0265 21.4935C24.8022 20.731 24.5266 19.9845 24.2015 19.2592C24.539 18.4965 24.8098 17.7518 25.0153 17.0363C25.379 17.1495 25.7233 17.2747 26.0465 17.4105C27.3455 17.964 28.1855 18.6908 28.1855 19.2668C28.1817 19.8428 27.3417 20.5732 26.0427 21.123V21.123Z" fill="#C9D1D9"/>
<path d="M19.9963 20.9438C20.441 20.9438 20.8676 20.7671 21.1821 20.4526C21.4966 20.1381 21.6733 19.7115 21.6733 19.2668C21.6733 18.822 21.4966 18.3954 21.1821 18.0809C20.8676 17.7664 20.441 17.5898 19.9963 17.5898C19.5515 17.5898 19.125 17.7664 18.8105 18.0809C18.496 18.3954 18.3193 18.822 18.3193 19.2668C18.3193 19.7115 18.496 20.1381 18.8105 20.4526C19.125 20.7671 19.5515 20.9438 19.9963 20.9438V20.9438Z" fill="#C9D1D9"/>
<path d="M49.3125 25H47.9453L46.3047 22.252C46.1543 21.9967 46.0085 21.7803 45.8672 21.6025C45.7259 21.4202 45.5801 21.2721 45.4297 21.1582C45.2839 21.0443 45.1243 20.9622 44.9512 20.9121C44.7826 20.8574 44.5911 20.8301 44.377 20.8301H43.4336V25H42.2852V15.1973H45.2109C45.6393 15.1973 46.0335 15.252 46.3936 15.3613C46.7581 15.4661 47.0726 15.6279 47.3369 15.8467C47.6058 16.0654 47.8154 16.3389 47.9658 16.667C48.1162 16.9906 48.1914 17.3711 48.1914 17.8086C48.1914 18.1504 48.139 18.4648 48.0342 18.752C47.9339 19.0345 47.7881 19.2874 47.5967 19.5107C47.4098 19.734 47.182 19.9255 46.9131 20.085C46.6488 20.2399 46.3503 20.3607 46.0176 20.4473V20.4746C46.1816 20.5475 46.3229 20.6318 46.4414 20.7275C46.5645 20.8187 46.6807 20.9281 46.79 21.0557C46.8994 21.1833 47.0065 21.3291 47.1113 21.4932C47.2207 21.6527 47.3415 21.8395 47.4736 22.0537L49.3125 25ZM43.4336 16.2363V19.791H44.9922C45.2793 19.791 45.5436 19.7477 45.7852 19.6611C46.0312 19.5745 46.2432 19.4515 46.4209 19.292C46.5986 19.1279 46.7376 18.9297 46.8379 18.6973C46.9382 18.4603 46.9883 18.196 46.9883 17.9043C46.9883 17.3802 46.8174 16.9723 46.4756 16.6807C46.1383 16.3844 45.6484 16.2363 45.0059 16.2363H43.4336ZM55.7451 21.7803H50.8027C50.821 22.5596 51.0306 23.1611 51.4316 23.585C51.8327 24.0088 52.3841 24.2207 53.0859 24.2207C53.8743 24.2207 54.599 23.9609 55.2598 23.4414V24.4941C54.6445 24.9408 53.8311 25.1641 52.8193 25.1641C51.8304 25.1641 51.0534 24.8473 50.4883 24.2139C49.9232 23.5758 49.6406 22.6803 49.6406 21.5273C49.6406 20.4382 49.9482 19.5518 50.5635 18.8682C51.1833 18.18 51.9512 17.8359 52.8672 17.8359C53.7832 17.8359 54.4919 18.1322 54.9932 18.7246C55.4945 19.3171 55.7451 20.1396 55.7451 21.1924V21.7803ZM54.5967 20.8301C54.5921 20.1829 54.4349 19.6794 54.125 19.3193C53.8197 18.9593 53.3936 18.7793 52.8467 18.7793C52.318 18.7793 51.8691 18.9684 51.5 19.3467C51.1309 19.7249 50.903 20.2194 50.8164 20.8301H54.5967ZM62.458 25H61.3369V23.9062H61.3096C60.8219 24.7448 60.1042 25.1641 59.1562 25.1641C58.459 25.1641 57.9121 24.9795 57.5156 24.6104C57.1237 24.2412 56.9277 23.7513 56.9277 23.1406C56.9277 21.8327 57.6979 21.0716 59.2383 20.8574L61.3369 20.5635C61.3369 19.374 60.8561 18.7793 59.8945 18.7793C59.0514 18.7793 58.2904 19.0664 57.6113 19.6406V18.4922C58.2995 18.0547 59.0924 17.8359 59.9902 17.8359C61.6354 17.8359 62.458 18.7064 62.458 20.4473V25ZM61.3369 21.459L59.6484 21.6914C59.1289 21.7643 58.737 21.8942 58.4727 22.0811C58.2083 22.2633 58.0762 22.5892 58.0762 23.0586C58.0762 23.4004 58.1969 23.6807 58.4385 23.8994C58.6846 24.1136 59.0104 24.2207 59.416 24.2207C59.972 24.2207 60.43 24.027 60.79 23.6396C61.1546 23.2477 61.3369 22.7533 61.3369 22.1562V21.459ZM69.3418 24.6787C68.804 25.0023 68.166 25.1641 67.4277 25.1641C66.4297 25.1641 65.623 24.8405 65.0078 24.1934C64.3971 23.5417 64.0918 22.6986 64.0918 21.6641C64.0918 20.5111 64.4222 19.5859 65.083 18.8887C65.7438 18.1868 66.6257 17.8359 67.7285 17.8359C68.3438 17.8359 68.8861 17.9499 69.3555 18.1777V19.3262C68.8359 18.9616 68.2799 18.7793 67.6875 18.7793C66.972 18.7793 66.3841 19.0368 65.9238 19.5518C65.4681 20.0622 65.2402 20.7344 65.2402 21.5684C65.2402 22.3887 65.4544 23.0358 65.8828 23.5098C66.3158 23.9837 66.8945 24.2207 67.6191 24.2207C68.2298 24.2207 68.804 24.0179 69.3418 23.6123V24.6787ZM74.2842 24.9316C74.0199 25.0775 73.6712 25.1504 73.2383 25.1504C72.0124 25.1504 71.3994 24.4668 71.3994 23.0996V18.957H70.1963V18H71.3994V16.291L72.5205 15.9287V18H74.2842V18.957H72.5205V22.9014C72.5205 23.3708 72.6003 23.7057 72.7598 23.9062C72.9193 24.1068 73.1836 24.207 73.5527 24.207C73.8353 24.207 74.0791 24.1296 74.2842 23.9746V24.9316Z" fill="#C9D1D9"/>
<path d="M4 2H82V0H4V2ZM84 4V35H86V4H84ZM82 37H4V39H82V37ZM2 35V4H0V35H2ZM4 37C2.89543 37 2 36.1046 2 35H0C0 37.2091 1.79086 39 4 39V37ZM84 35C84 36.1046 83.1046 37 82 37V39C84.2091 39 86 37.2091 86 35H84ZM82 2C83.1046 2 84 2.89543 84 4H86C86 1.79086 84.2091 0 82 0V2ZM4 0C1.79086 0 0 1.79086 0 4H2C2 2.89543 2.89543 2 4 2V0Z" fill="#C9D1D9"/>
</svg>
