<svg width="68" height="28" viewBox="0 0 68 28" fill="none" xmlns="http://www.w3.org/2000/svg">
<g filter="url(#filter0_d)">
<path d="M2 5C2 2.23858 4.23858 0 7 0H61C63.7614 0 66 2.23858 66 5V19C66 21.7614 63.7614 24 61 24H7C4.23858 24 2 21.7614 2 19V5Z" fill="white"/>
<path d="M21.7996 9.18331C21.608 9.11758 21.4148 9.0567 21.2202 9.0007C21.2529 8.86711 21.283 8.73513 21.3097 8.60548C21.7483 6.47635 21.4616 4.76107 20.4822 4.19632C19.5432 3.65492 18.0075 4.21946 16.4565 5.56924C16.3037 5.70251 16.1542 5.83962 16.0083 5.98043C15.9106 5.88679 15.8112 5.79497 15.7101 5.70502C14.0846 4.26178 12.4553 3.65351 11.477 4.21988C10.5388 4.76297 10.261 6.37545 10.6559 8.39328C10.6952 8.59312 10.7395 8.79193 10.7889 8.98953C10.5583 9.05506 10.3358 9.12481 10.1228 9.19906C8.21704 9.86351 7 10.9048 7 11.9848C7 13.1003 8.30655 14.2192 10.2915 14.8977C10.4524 14.9525 10.6147 15.0032 10.7781 15.0499C10.725 15.2627 10.6779 15.477 10.6368 15.6924C10.2603 17.6752 10.5543 19.2496 11.4899 19.7892C12.4563 20.3465 14.0783 19.7738 15.6576 18.3932C15.7856 18.2809 15.9109 18.1655 16.0332 18.047C16.1912 18.1995 16.3535 18.3476 16.5198 18.491C18.0496 19.8074 19.5605 20.3389 20.4952 19.7978C21.4607 19.2389 21.7745 17.5476 21.3671 15.4899C21.335 15.3287 21.299 15.1683 21.2592 15.0088C21.3731 14.9751 21.4849 14.9404 21.5939 14.9042C23.6574 14.2206 25 13.1153 25 11.9848C25 10.9008 23.7437 9.85254 21.7996 9.18331V9.18331ZM21.352 14.1744C21.2536 14.2069 21.1526 14.2384 21.0497 14.2689C20.8219 13.5477 20.5145 12.7809 20.1382 11.9886C20.4973 11.2151 20.7929 10.4581 21.0143 9.74159C21.1984 9.79488 21.3771 9.85106 21.5493 9.91034C23.215 10.4838 24.2311 11.3316 24.2311 11.9848C24.2311 12.6806 23.1338 13.584 21.352 14.1744V14.1744ZM20.6128 15.6393C20.7929 16.5491 20.8186 17.3718 20.6993 18.0149C20.5921 18.5928 20.3765 18.978 20.1099 19.1324C19.5427 19.4607 18.3296 19.0339 17.0213 17.9081C16.8666 17.7747 16.7157 17.6371 16.5687 17.4954C17.0759 16.9407 17.5828 16.2958 18.0775 15.5796C18.9477 15.5024 19.7698 15.3762 20.5153 15.2038C20.552 15.352 20.5847 15.4972 20.6128 15.6393V15.6393ZM13.1366 19.0756C12.5824 19.2713 12.141 19.2769 11.8741 19.1231C11.3064 18.7957 11.0703 17.5315 11.3923 15.8359C11.4306 15.6355 11.4744 15.4362 11.5237 15.2383C12.261 15.4014 13.0771 15.5187 13.9493 15.5894C14.4474 16.2902 14.9689 16.9343 15.4945 17.4984C15.3828 17.6065 15.2685 17.7118 15.1516 17.8142C14.4532 18.4247 13.7534 18.8578 13.1366 19.0756V19.0756ZM10.5402 14.1701C9.66252 13.8701 8.93767 13.4802 8.44084 13.0547C7.99436 12.6724 7.76901 12.2928 7.76901 11.9848C7.76901 11.3294 8.74614 10.4934 10.3759 9.92517C10.5737 9.85627 10.7807 9.79123 10.9955 9.7302C11.2208 10.4629 11.5162 11.2289 11.8728 12.0035C11.5116 12.7896 11.2119 13.5679 10.9845 14.3092C10.8353 14.2665 10.6872 14.2201 10.5402 14.1701V14.1701ZM11.4106 8.24555C11.0723 6.51678 11.2969 5.21269 11.8623 4.88538C12.4645 4.53678 13.7961 5.03381 15.1996 6.28003C15.2911 6.36148 15.3811 6.44458 15.4696 6.52929C14.9466 7.09088 14.4299 7.73023 13.9363 8.42688C13.0897 8.50535 12.2793 8.63135 11.5343 8.80017C11.4884 8.61639 11.4471 8.43148 11.4106 8.24562V8.24555ZM19.175 10.1628C18.999 9.85886 18.8165 9.55872 18.6276 9.26262C19.2019 9.33525 19.7522 9.43165 20.2689 9.54949C20.1138 10.0467 19.9204 10.5666 19.6928 11.0995C19.5264 10.7839 19.3538 10.4716 19.175 10.1628V10.1628ZM16.0086 7.07885C16.3633 7.46311 16.7185 7.89209 17.0679 8.35756C16.3592 8.32408 15.6492 8.32394 14.9405 8.35713C15.2902 7.89596 15.6484 7.46754 16.0086 7.07885ZM12.822 10.1681C12.6454 10.4744 12.476 10.7847 12.3139 11.0989C12.09 10.5678 11.8984 10.0456 11.7419 9.54134C12.2555 9.42645 12.8032 9.33251 13.3738 9.26121C13.1828 9.55913 12.9988 9.86148 12.822 10.168V10.1681ZM13.3902 14.7632C12.8006 14.6974 12.2448 14.6083 11.7313 14.4965C11.8902 13.9832 12.0861 13.4499 12.3148 12.9074C12.4775 13.2218 12.6477 13.5324 12.825 13.8388C13.0074 14.1538 13.1963 14.4623 13.3902 14.7632ZM16.0299 16.945C15.6654 16.5518 15.3019 16.1168 14.9469 15.6489C15.2915 15.6624 15.6429 15.6693 16 15.6693C16.3669 15.6693 16.7296 15.6611 17.0865 15.6452C16.736 16.1215 16.3821 16.5571 16.0299 16.945ZM19.7001 12.8797C19.9407 13.4281 20.1434 13.9586 20.3045 14.4631C19.7826 14.5823 19.2191 14.6782 18.6254 14.7494C18.8156 14.4478 18.9999 14.1424 19.178 13.8335C19.3591 13.5195 19.5331 13.2015 19.7001 12.8797V12.8797ZM18.5119 13.4493C18.2393 13.923 17.9513 14.3876 17.6484 14.8425C17.0998 14.8814 16.55 14.9007 16 14.9004C15.4398 14.9004 14.895 14.883 14.3703 14.8489C14.0595 14.3951 13.766 13.9296 13.4905 13.4535H13.4905C13.2163 12.98 12.9601 12.4962 12.7225 12.0032C12.9595 11.5101 13.2149 11.0261 13.4882 10.5521L13.4882 10.5522C13.7614 10.0782 14.0525 9.61471 14.3609 9.16277C14.8962 9.12227 15.4452 9.10118 15.9999 9.10118H16C16.5573 9.10118 17.1069 9.12249 17.6421 9.16327C17.9474 9.61452 18.2367 10.0764 18.5094 10.5481C18.7836 11.0209 19.0424 11.5026 19.2854 11.9923C19.0449 12.487 18.7869 12.973 18.5119 13.4493V13.4493ZM20.0982 4.86246C20.7009 5.21009 20.9353 6.61191 20.5566 8.45023C20.5324 8.56751 20.5053 8.68697 20.4757 8.80812C19.7289 8.63571 18.918 8.50753 18.0689 8.42787C17.5744 7.72355 17.0619 7.08321 16.5474 6.52887C16.6822 6.3989 16.8203 6.2723 16.9614 6.14918C18.2903 4.99275 19.5323 4.53614 20.0982 4.86246V4.86246ZM16 10.3775C16.8877 10.3775 17.6073 11.0971 17.6073 11.9848C17.6073 12.8725 16.8877 13.5922 16 13.5922C15.1123 13.5922 14.3927 12.8725 14.3927 11.9848C14.3927 11.0971 15.1123 10.3775 16 10.3775V10.3775Z" fill="#00D8FF"/>
<path d="M34.1191 12.5488H32.1152V16H30.9844V7.46875H33.8086C34.7695 7.46875 35.5078 7.6875 36.0234 8.125C36.543 8.5625 36.8027 9.19922 36.8027 10.0352C36.8027 10.5664 36.6582 11.0293 36.3691 11.4238C36.084 11.8184 35.6855 12.1133 35.1738 12.3086L37.1777 15.9297V16H35.9707L34.1191 12.5488ZM32.1152 11.6289H33.8438C34.4023 11.6289 34.8457 11.4844 35.1738 11.1953C35.5059 10.9062 35.6719 10.5195 35.6719 10.0352C35.6719 9.50781 35.5137 9.10352 35.1973 8.82227C34.8848 8.54102 34.4316 8.39844 33.8379 8.39453H32.1152V11.6289ZM40.8457 16.1172C39.9863 16.1172 39.2871 15.8359 38.748 15.2734C38.209 14.707 37.9395 13.9512 37.9395 13.0059V12.8066C37.9395 12.1777 38.0586 11.6172 38.2969 11.125C38.5391 10.6289 38.875 10.2422 39.3047 9.96484C39.7383 9.68359 40.207 9.54297 40.7109 9.54297C41.5352 9.54297 42.1758 9.81445 42.6328 10.3574C43.0898 10.9004 43.3184 11.6777 43.3184 12.6895V13.1406H39.0234C39.0391 13.7656 39.2207 14.2715 39.5684 14.6582C39.9199 15.041 40.3652 15.2324 40.9043 15.2324C41.2871 15.2324 41.6113 15.1543 41.877 14.998C42.1426 14.8418 42.375 14.6348 42.5742 14.377L43.2363 14.8926C42.7051 15.709 41.9082 16.1172 40.8457 16.1172ZM40.7109 10.4336C40.2734 10.4336 39.9062 10.5938 39.6094 10.9141C39.3125 11.2305 39.1289 11.6758 39.0586 12.25H42.2344V12.168C42.2031 11.6172 42.0547 11.1914 41.7891 10.8906C41.5234 10.5859 41.1641 10.4336 40.7109 10.4336ZM48.4922 16C48.4297 15.875 48.3789 15.6523 48.3398 15.332C47.8359 15.8555 47.2344 16.1172 46.5352 16.1172C45.9102 16.1172 45.3965 15.9414 44.9941 15.5898C44.5957 15.2344 44.3965 14.7852 44.3965 14.2422C44.3965 13.582 44.6465 13.0703 45.1465 12.707C45.6504 12.3398 46.3574 12.1562 47.2676 12.1562H48.3223V11.6582C48.3223 11.2793 48.209 10.9785 47.9824 10.7559C47.7559 10.5293 47.4219 10.416 46.9805 10.416C46.5938 10.416 46.2695 10.5137 46.0078 10.709C45.7461 10.9043 45.6152 11.1406 45.6152 11.418H44.5254C44.5254 11.1016 44.6367 10.7969 44.8594 10.5039C45.0859 10.207 45.3906 9.97266 45.7734 9.80078C46.1602 9.62891 46.584 9.54297 47.0449 9.54297C47.7754 9.54297 48.3477 9.72656 48.7617 10.0938C49.1758 10.457 49.3906 10.959 49.4062 11.5996V14.5176C49.4062 15.0996 49.4805 15.5625 49.6289 15.9062V16H48.4922ZM46.6934 15.1738C47.0332 15.1738 47.3555 15.0859 47.6602 14.9102C47.9648 14.7344 48.1855 14.5059 48.3223 14.2246V12.9238H47.4727C46.1445 12.9238 45.4805 13.3125 45.4805 14.0898C45.4805 14.4297 45.5938 14.6953 45.8203 14.8867C46.0469 15.0781 46.3379 15.1738 46.6934 15.1738ZM53.6484 15.2324C54.0352 15.2324 54.373 15.1152 54.6621 14.8809C54.9512 14.6465 55.1113 14.3535 55.1426 14.002H56.168C56.1484 14.3652 56.0234 14.7109 55.793 15.0391C55.5625 15.3672 55.2539 15.6289 54.8672 15.8242C54.4844 16.0195 54.0781 16.1172 53.6484 16.1172C52.7852 16.1172 52.0977 15.8301 51.5859 15.2559C51.0781 14.6777 50.8242 13.8887 50.8242 12.8887V12.707C50.8242 12.0898 50.9375 11.541 51.1641 11.0605C51.3906 10.5801 51.7148 10.207 52.1367 9.94141C52.5625 9.67578 53.0645 9.54297 53.6426 9.54297C54.3535 9.54297 54.9434 9.75586 55.4121 10.1816C55.8848 10.6074 56.1367 11.1602 56.168 11.8398H55.1426C55.1113 11.4297 54.9551 11.0938 54.6738 10.832C54.3965 10.5664 54.0527 10.4336 53.6426 10.4336C53.0918 10.4336 52.6641 10.6328 52.3594 11.0312C52.0586 11.4258 51.9082 11.998 51.9082 12.748V12.9531C51.9082 13.6836 52.0586 14.2461 52.3594 14.6406C52.6602 15.0352 53.0898 15.2324 53.6484 15.2324ZM58.8574 8.125V9.66016H60.041V10.498H58.8574V14.4297C58.8574 14.6836 58.9102 14.875 59.0156 15.0039C59.1211 15.1289 59.3008 15.1914 59.5547 15.1914C59.6797 15.1914 59.8516 15.168 60.0703 15.1211V16C59.7852 16.0781 59.5078 16.1172 59.2383 16.1172C58.7539 16.1172 58.3887 15.9707 58.1426 15.6777C57.8965 15.3848 57.7734 14.9688 57.7734 14.4297V10.498H56.6191V9.66016H57.7734V8.125H58.8574Z" fill="black"/>
</g>
<defs>
<filter id="filter0_d" x="0" y="0" width="68" height="28" filterUnits="userSpaceOnUse" color-interpolation-filters="sRGB">
<feFlood flood-opacity="0" result="BackgroundImageFix"/>
<feColorMatrix in="SourceAlpha" type="matrix" values="0 0 0 0 0 0 0 0 0 0 0 0 0 0 0 0 0 0 127 0" result="hardAlpha"/>
<feOffset dy="2"/>
<feGaussianBlur stdDeviation="1"/>
<feComposite in2="hardAlpha" operator="out"/>
<feColorMatrix type="matrix" values="0 0 0 0 0 0 0 0 0 0 0 0 0 0 0 0 0 0 0.25 0"/>
<feBlend mode="normal" in2="BackgroundImageFix" result="effect1_dropShadow"/>
<feBlend mode="normal" in="SourceGraphic" in2="effect1_dropShadow" result="shape"/>
</filter>
</defs>
</svg>
