<svg xmlns="http://www.w3.org/2000/svg" width="135" height="56" fill="none"><rect width="117" height="48" x="9" y="4" fill="#FFEBEE" rx="4"/><path fill="#00D8FF" d="M47.733 24.244a16.158 16.158 0 0 0-.773-.243c.044-.178.084-.354.12-.527.584-2.839.202-5.126-1.104-5.879-1.252-.722-3.3.03-5.367 1.83-.204.178-.403.361-.598.549-.13-.125-.263-.247-.398-.367-2.167-1.925-4.34-2.736-5.644-1.98-1.25.724-1.621 2.874-1.095 5.564.053.267.112.532.178.795-.308.087-.604.18-.888.28C29.623 25.15 28 26.54 28 27.98c0 1.487 1.742 2.979 4.389 3.884.214.073.43.14.648.202-.07.284-.133.57-.188.857-.502 2.644-.11 4.743 1.138 5.463 1.288.743 3.45-.021 5.556-1.862.171-.15.338-.303.501-.461.211.203.427.4.649.592 2.04 1.755 4.054 2.464 5.3 1.742 1.288-.745 1.706-3 1.163-5.744a13.65 13.65 0 0 0-.144-.641c.152-.045.301-.091.447-.14C50.209 30.961 52 29.487 52 27.98c0-1.446-1.675-2.843-4.267-3.736Zm-.597 6.655c-.131.044-.266.085-.403.126a24.047 24.047 0 0 0-1.215-3.04 24.06 24.06 0 0 0 1.168-2.996c.245.07.483.146.713.225 2.221.764 3.576 1.895 3.576 2.766 0 .927-1.463 2.132-3.839 2.92Zm-.986 1.953c.24 1.214.275 2.31.116 3.168-.143.77-.43 1.284-.786 1.49-.756.438-2.374-.131-4.118-1.633a14.746 14.746 0 0 1-.604-.55c.677-.74 1.352-1.6 2.012-2.554a23.934 23.934 0 0 0 3.25-.501c.05.197.093.391.13.58Zm-9.968 4.582c-.739.261-1.327.269-1.683.064-.757-.437-1.072-2.123-.643-4.383.051-.268.11-.533.176-.797.983.217 2.07.374 3.234.468.664.934 1.36 1.793 2.06 2.545-.149.144-.301.285-.457.421-.931.814-1.864 1.392-2.687 1.682Zm-3.462-6.54c-1.17-.4-2.136-.92-2.799-1.488-.595-.51-.896-1.016-.896-1.426 0-.874 1.303-1.989 3.476-2.746.264-.092.54-.179.826-.26.3.977.695 1.998 1.17 3.03a24.976 24.976 0 0 0-1.184 3.075 12.65 12.65 0 0 1-.593-.186Zm1.16-7.9c-.45-2.305-.15-4.044.603-4.48.803-.465 2.578.198 4.45 1.86.122.108.242.219.36.332a24.594 24.594 0 0 0-2.045 2.53c-1.128.104-2.209.273-3.202.498a15.078 15.078 0 0 1-.165-.74Zm10.353 2.556a32.728 32.728 0 0 0-.73-1.2c.766.097 1.5.226 2.189.383a21.878 21.878 0 0 1-.768 2.066c-.222-.42-.452-.837-.69-1.249Zm-4.221-4.111c.472.512.946 1.084 1.412 1.704a30.22 30.22 0 0 0-2.837 0c.467-.615.944-1.186 1.424-1.704Zm-4.25 4.119c-.235.408-.46.822-.677 1.24a22.635 22.635 0 0 1-.762-2.076 23.132 23.132 0 0 1 2.175-.374c-.254.398-.5.8-.735 1.21Zm.758 6.126a21.797 21.797 0 0 1-2.212-.355c.212-.685.473-1.396.778-2.12a30.115 30.115 0 0 0 1.434 2.475Zm3.52 2.91a23.011 23.011 0 0 1-1.444-1.729c.46.018.928.027 1.404.027.49 0 .973-.01 1.449-.032a21.79 21.79 0 0 1-1.41 1.733Zm4.893-5.421c.321.731.592 1.439.806 2.111-.695.159-1.447.287-2.238.382.253-.402.499-.81.736-1.221.242-.419.474-.843.696-1.272Zm-1.584.76a33.62 33.62 0 0 1-1.151 1.857c-.732.052-1.465.078-2.198.077a33.61 33.61 0 0 1-2.173-.068 28.852 28.852 0 0 1-2.197-3.794 28.833 28.833 0 0 1 2.185-3.787 28.85 28.85 0 0 1 4.375 0c.407.601.792 1.217 1.156 1.846.366.63.71 1.273 1.035 1.926-.321.66-.665 1.307-1.032 1.942Zm2.115-11.45c.804.464 1.116 2.333.611 4.784-.032.156-.068.316-.107.477-.996-.23-2.077-.4-3.21-.507a24.067 24.067 0 0 0-2.028-2.532c.18-.173.364-.342.552-.506 1.772-1.542 3.428-2.15 4.182-1.716ZM40 25.837a2.143 2.143 0 1 1 0 4.286 2.143 2.143 0 0 1 0-4.286Z"/><path fill="#000" d="M77.5 34.5h-1.563l-1.874-3.14a6.51 6.51 0 0 0-.5-.743 2.726 2.726 0 0 0-.5-.508 1.609 1.609 0 0 0-.547-.28 2.123 2.123 0 0 0-.657-.095h-1.078V34.5H69.47V23.297h3.344c.49 0 .94.062 1.351.187.417.12.776.305 1.078.555.307.25.547.563.719.938.172.37.258.804.258 1.304 0 .39-.06.75-.18 1.078a2.717 2.717 0 0 1-.5.868 3.01 3.01 0 0 1-.781.656 4.01 4.01 0 0 1-1.024.414v.031c.188.084.35.18.485.29.14.103.273.228.398.374s.248.313.367.5c.125.182.263.396.414.64L77.5 34.5Zm-6.719-10.016v4.063h1.781c.329 0 .63-.05.907-.149.281-.099.523-.24.726-.421a1.98 1.98 0 0 0 .477-.68c.115-.271.172-.573.172-.906 0-.6-.196-1.065-.586-1.399-.386-.338-.945-.508-1.68-.508h-1.797Zm14.055 6.336h-5.648c.02.89.26 1.578.718 2.063.459.484 1.089.726 1.89.726.902 0 1.73-.297 2.485-.89v1.203c-.703.51-1.633.766-2.789.766-1.13 0-2.018-.363-2.664-1.086-.646-.73-.969-1.753-.969-3.07 0-1.245.352-2.259 1.055-3.04.708-.786 1.586-1.18 2.633-1.18s1.857.339 2.43 1.016c.572.677.859 1.617.859 2.82v.672Zm-1.313-1.086c-.005-.74-.184-1.315-.539-1.726-.349-.412-.836-.617-1.46-.617a2.07 2.07 0 0 0-1.54.648c-.421.432-.682.997-.78 1.695h4.32Zm8.985 4.766h-1.281v-1.25h-.032c-.557.958-1.377 1.438-2.46 1.438-.797 0-1.422-.211-1.876-.633-.447-.422-.671-.982-.671-1.68 0-1.495.88-2.365 2.64-2.61l2.399-.335c0-1.36-.55-2.04-1.649-2.04-.963 0-1.833.329-2.61.985v-1.313c.787-.5 1.694-.75 2.72-.75 1.88 0 2.82.995 2.82 2.985V34.5Zm-1.281-4.047-1.93.266c-.594.083-1.042.232-1.344.445-.302.208-.453.58-.453 1.117 0 .39.138.711.414.961.281.245.654.367 1.117.367.636 0 1.16-.221 1.57-.664.417-.448.626-1.013.626-1.695v-.797Zm9.148 3.68c-.615.37-1.344.554-2.188.554-1.14 0-2.062-.37-2.765-1.109-.698-.745-1.047-1.708-1.047-2.89 0-1.318.378-2.375 1.133-3.172.755-.802 1.763-1.203 3.023-1.203.703 0 1.323.13 1.86.39v1.313c-.594-.417-1.23-.625-1.907-.625-.817 0-1.49.294-2.015.882-.521.584-.781 1.352-.781 2.305 0 .938.244 1.677.734 2.219.495.542 1.156.812 1.984.812.698 0 1.354-.231 1.969-.695v1.219Zm5.648.289c-.302.167-.7.25-1.195.25-1.401 0-2.101-.781-2.101-2.344v-4.734h-1.375V26.5h1.375v-1.953l1.281-.414V26.5h2.015v1.094h-2.015v4.508c0 .536.091.919.273 1.148.183.23.485.344.907.344.322 0 .601-.089.835-.266v1.094Z"/><rect width="117" height="48" x="9" y="4" stroke="#F44336" stroke-width="2" rx="4"/></svg>