<svg width="77" height="36" viewBox="0 0 77 36" fill="none" xmlns="http://www.w3.org/2000/svg">
<g filter="url(#filter0_d)">
<path d="M2 3C2 1.34315 3.34315 0 5 0H72C73.6569 0 75 1.34315 75 3V29C75 30.6569 73.6569 32 72 32H5C3.34315 32 2 30.6569 2 29V3Z" fill="#C9D1D9"/>
<path d="M24.7996 13.1833C24.608 13.1176 24.4148 13.0567 24.2202 13.0007C24.2529 12.8671 24.283 12.7351 24.3097 12.6055C24.7483 10.4763 24.4616 8.76107 23.4822 8.19632C22.5432 7.65492 21.0075 8.21946 19.4565 9.56924C19.3037 9.70251 19.1542 9.83962 19.0083 9.98043C18.9106 9.88679 18.8112 9.79497 18.7101 9.70502C17.0846 8.26178 15.4553 7.65351 14.477 8.21988C13.5388 8.76297 13.261 10.3754 13.6559 12.3933C13.6952 12.5931 13.7395 12.7919 13.7889 12.9895C13.5583 13.0551 13.3358 13.1248 13.1228 13.1991C11.217 13.8635 10 14.9048 10 15.9848C10 17.1003 11.3065 18.2192 13.2915 18.8977C13.4524 18.9525 13.6147 19.0032 13.7781 19.0499C13.725 19.2627 13.6779 19.477 13.6368 19.6924C13.2603 21.6752 13.5543 23.2496 14.4899 23.7892C15.4563 24.3465 17.0783 23.7738 18.6576 22.3932C18.7856 22.2809 18.9109 22.1655 19.0332 22.047C19.1912 22.1995 19.3535 22.3476 19.5198 22.491C21.0496 23.8074 22.5605 24.3389 23.4952 23.7978C24.4607 23.2389 24.7745 21.5476 24.3671 19.4899C24.335 19.3287 24.299 19.1683 24.2592 19.0088C24.3731 18.9751 24.4849 18.9404 24.5939 18.9042C26.6574 18.2206 28 17.1153 28 15.9848C28 14.9008 26.7437 13.8525 24.7996 13.1833ZM24.352 18.1744C24.2536 18.2069 24.1526 18.2384 24.0497 18.2689C23.8219 17.5477 23.5145 16.7809 23.1382 15.9886C23.4973 15.2151 23.7929 14.4581 24.0143 13.7416C24.1984 13.7949 24.3771 13.8511 24.5493 13.9103C26.215 14.4838 27.2311 15.3316 27.2311 15.9848C27.2311 16.6806 26.1338 17.584 24.352 18.1744ZM23.6128 19.6393C23.7929 20.5491 23.8186 21.3718 23.6993 22.0149C23.5921 22.5928 23.3765 22.978 23.1099 23.1324C22.5427 23.4607 21.3296 23.0339 20.0213 21.9081C19.8666 21.7747 19.7157 21.6371 19.5687 21.4954C20.0759 20.9407 20.5828 20.2958 21.0775 19.5796C21.9477 19.5024 22.7698 19.3762 23.5153 19.2038C23.552 19.352 23.5847 19.4972 23.6128 19.6393ZM16.1366 23.0756C15.5824 23.2713 15.141 23.2769 14.8741 23.1231C14.3064 22.7957 14.0703 21.5315 14.3923 19.8359C14.4306 19.6355 14.4744 19.4362 14.5237 19.2383C15.261 19.4014 16.0771 19.5187 16.9493 19.5894C17.4474 20.2902 17.9689 20.9343 18.4945 21.4984C18.3828 21.6065 18.2685 21.7118 18.1516 21.8142C17.4532 22.4247 16.7534 22.8578 16.1366 23.0756ZM13.5402 18.1701C12.6625 17.8701 11.9377 17.4802 11.4408 17.0547C10.9944 16.6724 10.769 16.2928 10.769 15.9848C10.769 15.3294 11.7461 14.4934 13.3759 13.9252C13.5737 13.8563 13.7807 13.7912 13.9955 13.7302C14.2208 14.4629 14.5162 15.2289 14.8728 16.0035C14.5116 16.7896 14.2119 17.5679 13.9845 18.3092C13.8353 18.2665 13.6872 18.2201 13.5402 18.1701ZM14.4106 12.2455C14.0723 10.5168 14.2969 9.21269 14.8623 8.88538C15.4645 8.53678 16.7961 9.03381 18.1996 10.28C18.2911 10.3615 18.3811 10.4446 18.4696 10.5293C17.9466 11.0909 17.4299 11.7302 16.9363 12.4269C16.0897 12.5054 15.2793 12.6314 14.5343 12.8002C14.4884 12.6164 14.4471 12.4315 14.4106 12.2456V12.2455ZM22.175 14.1628C21.999 13.8589 21.8165 13.5587 21.6276 13.2626C22.2019 13.3353 22.7522 13.4317 23.2689 13.5495C23.1138 14.0467 22.9204 14.5666 22.6928 15.0995C22.5264 14.7839 22.3538 14.4716 22.175 14.1628ZM19.0086 11.0789C19.3633 11.4631 19.7185 11.8921 20.0679 12.3576C19.3592 12.3241 18.6492 12.3239 17.9405 12.3571C18.2902 11.896 18.6484 11.4675 19.0086 11.0789ZM15.822 14.1681C15.6454 14.4744 15.476 14.7847 15.3139 15.0989C15.09 14.5678 14.8984 14.0456 14.7419 13.5413C15.2555 13.4264 15.8032 13.3325 16.3738 13.2612C16.1828 13.5591 15.9988 13.8615 15.822 14.168V14.1681ZM16.3902 18.7632C15.8006 18.6974 15.2448 18.6083 14.7313 18.4965C14.8902 17.9832 15.0861 17.4499 15.3148 16.9074C15.4775 17.2218 15.6477 17.5324 15.825 17.8388C16.0074 18.1538 16.1963 18.4623 16.3902 18.7632ZM19.0299 20.945C18.6654 20.5518 18.3019 20.1168 17.9469 19.6489C18.2915 19.6624 18.6429 19.6693 19 19.6693C19.3669 19.6693 19.7296 19.6611 20.0865 19.6452C19.736 20.1215 19.3821 20.5571 19.0299 20.945ZM22.7001 16.8797C22.9407 17.4281 23.1434 17.9586 23.3045 18.4631C22.7826 18.5823 22.2191 18.6782 21.6254 18.7494C21.8156 18.4478 21.9999 18.1424 22.178 17.8335C22.3591 17.5195 22.5331 17.2015 22.7001 16.8797ZM21.5119 17.4493C21.2393 17.923 20.9513 18.3876 20.6484 18.8425C20.0998 18.8814 19.55 18.9007 19 18.9004C18.4398 18.9004 17.895 18.883 17.3703 18.8489C17.0595 18.3951 16.766 17.9296 16.4905 17.4535H16.4905C16.2163 16.98 15.9601 16.4962 15.7225 16.0032C15.9595 15.5101 16.2149 15.0261 16.4882 14.5521L16.4882 14.5522C16.7614 14.0782 17.0525 13.6147 17.3609 13.1628C17.8962 13.1223 18.4452 13.1012 18.9999 13.1012H19C19.5573 13.1012 20.1069 13.1225 20.6421 13.1633C20.9474 13.6145 21.2367 14.0764 21.5094 14.5481C21.7836 15.0209 22.0424 15.5026 22.2854 15.9923C22.0449 16.487 21.7869 16.973 21.5119 17.4493ZM23.0982 8.86246C23.7009 9.21009 23.9353 10.6119 23.5566 12.4502C23.5324 12.5675 23.5053 12.687 23.4757 12.8081C22.7289 12.6357 21.918 12.5075 21.0689 12.4279C20.5744 11.7235 20.0619 11.0832 19.5474 10.5289C19.6822 10.3989 19.8203 10.2723 19.9614 10.1492C21.2903 8.99275 22.5323 8.53614 23.0982 8.86246ZM19 14.3775C19.8877 14.3775 20.6073 15.0971 20.6073 15.9848C20.6073 16.8725 19.8877 17.5922 19 17.5922C18.1123 17.5922 17.3927 16.8725 17.3927 15.9848C17.3927 15.0971 18.1123 14.3775 19 14.3775Z" fill="#00D8FF"/>
<path d="M40.1191 16.5488H38.1152V20H36.9844V11.4688H39.8086C40.7695 11.4688 41.5078 11.6875 42.0234 12.125C42.543 12.5625 42.8027 13.1992 42.8027 14.0352C42.8027 14.5664 42.6582 15.0293 42.3691 15.4238C42.084 15.8184 41.6855 16.1133 41.1738 16.3086L43.1777 19.9297V20H41.9707L40.1191 16.5488ZM38.1152 15.6289H39.8438C40.4023 15.6289 40.8457 15.4844 41.1738 15.1953C41.5059 14.9062 41.6719 14.5195 41.6719 14.0352C41.6719 13.5078 41.5137 13.1035 41.1973 12.8223C40.8848 12.541 40.4316 12.3984 39.8379 12.3945H38.1152V15.6289ZM46.8457 20.1172C45.9863 20.1172 45.2871 19.8359 44.748 19.2734C44.209 18.707 43.9395 17.9512 43.9395 17.0059V16.8066C43.9395 16.1777 44.0586 15.6172 44.2969 15.125C44.5391 14.6289 44.875 14.2422 45.3047 13.9648C45.7383 13.6836 46.207 13.543 46.7109 13.543C47.5352 13.543 48.1758 13.8145 48.6328 14.3574C49.0898 14.9004 49.3184 15.6777 49.3184 16.6895V17.1406H45.0234C45.0391 17.7656 45.2207 18.2715 45.5684 18.6582C45.9199 19.041 46.3652 19.2324 46.9043 19.2324C47.2871 19.2324 47.6113 19.1543 47.877 18.998C48.1426 18.8418 48.375 18.6348 48.5742 18.377L49.2363 18.8926C48.7051 19.709 47.9082 20.1172 46.8457 20.1172ZM46.7109 14.4336C46.2734 14.4336 45.9062 14.5938 45.6094 14.9141C45.3125 15.2305 45.1289 15.6758 45.0586 16.25H48.2344V16.168C48.2031 15.6172 48.0547 15.1914 47.7891 14.8906C47.5234 14.5859 47.1641 14.4336 46.7109 14.4336ZM54.4922 20C54.4297 19.875 54.3789 19.6523 54.3398 19.332C53.8359 19.8555 53.2344 20.1172 52.5352 20.1172C51.9102 20.1172 51.3965 19.9414 50.9941 19.5898C50.5957 19.2344 50.3965 18.7852 50.3965 18.2422C50.3965 17.582 50.6465 17.0703 51.1465 16.707C51.6504 16.3398 52.3574 16.1562 53.2676 16.1562H54.3223V15.6582C54.3223 15.2793 54.209 14.9785 53.9824 14.7559C53.7559 14.5293 53.4219 14.416 52.9805 14.416C52.5938 14.416 52.2695 14.5137 52.0078 14.709C51.7461 14.9043 51.6152 15.1406 51.6152 15.418H50.5254C50.5254 15.1016 50.6367 14.7969 50.8594 14.5039C51.0859 14.207 51.3906 13.9727 51.7734 13.8008C52.1602 13.6289 52.584 13.543 53.0449 13.543C53.7754 13.543 54.3477 13.7266 54.7617 14.0938C55.1758 14.457 55.3906 14.959 55.4062 15.5996V18.5176C55.4062 19.0996 55.4805 19.5625 55.6289 19.9062V20H54.4922ZM52.6934 19.1738C53.0332 19.1738 53.3555 19.0859 53.6602 18.9102C53.9648 18.7344 54.1855 18.5059 54.3223 18.2246V16.9238H53.4727C52.1445 16.9238 51.4805 17.3125 51.4805 18.0898C51.4805 18.4297 51.5938 18.6953 51.8203 18.8867C52.0469 19.0781 52.3379 19.1738 52.6934 19.1738ZM59.6484 19.2324C60.0352 19.2324 60.373 19.1152 60.6621 18.8809C60.9512 18.6465 61.1113 18.3535 61.1426 18.002H62.168C62.1484 18.3652 62.0234 18.7109 61.793 19.0391C61.5625 19.3672 61.2539 19.6289 60.8672 19.8242C60.4844 20.0195 60.0781 20.1172 59.6484 20.1172C58.7852 20.1172 58.0977 19.8301 57.5859 19.2559C57.0781 18.6777 56.8242 17.8887 56.8242 16.8887V16.707C56.8242 16.0898 56.9375 15.541 57.1641 15.0605C57.3906 14.5801 57.7148 14.207 58.1367 13.9414C58.5625 13.6758 59.0645 13.543 59.6426 13.543C60.3535 13.543 60.9434 13.7559 61.4121 14.1816C61.8848 14.6074 62.1367 15.1602 62.168 15.8398H61.1426C61.1113 15.4297 60.9551 15.0938 60.6738 14.832C60.3965 14.5664 60.0527 14.4336 59.6426 14.4336C59.0918 14.4336 58.6641 14.6328 58.3594 15.0312C58.0586 15.4258 57.9082 15.998 57.9082 16.748V16.9531C57.9082 17.6836 58.0586 18.2461 58.3594 18.6406C58.6602 19.0352 59.0898 19.2324 59.6484 19.2324ZM64.8574 12.125V13.6602H66.041V14.498H64.8574V18.4297C64.8574 18.6836 64.9102 18.875 65.0156 19.0039C65.1211 19.1289 65.3008 19.1914 65.5547 19.1914C65.6797 19.1914 65.8516 19.168 66.0703 19.1211V20C65.7852 20.0781 65.5078 20.1172 65.2383 20.1172C64.7539 20.1172 64.3887 19.9707 64.1426 19.6777C63.8965 19.3848 63.7734 18.9688 63.7734 18.4297V14.498H62.6191V13.6602H63.7734V12.125H64.8574Z" fill="#22272E"/>
</g>
<defs>
<filter id="filter0_d" x="0" y="0" width="77" height="36" filterUnits="userSpaceOnUse" color-interpolation-filters="sRGB">
<feFlood flood-opacity="0" result="BackgroundImageFix"/>
<feColorMatrix in="SourceAlpha" type="matrix" values="0 0 0 0 0 0 0 0 0 0 0 0 0 0 0 0 0 0 127 0" result="hardAlpha"/>
<feOffset dy="2"/>
<feGaussianBlur stdDeviation="1"/>
<feComposite in2="hardAlpha" operator="out"/>
<feColorMatrix type="matrix" values="0 0 0 0 0 0 0 0 0 0 0 0 0 0 0 0 0 0 0.25 0"/>
<feBlend mode="normal" in2="BackgroundImageFix" result="effect1_dropShadow"/>
<feBlend mode="normal" in="SourceGraphic" in2="effect1_dropShadow" result="shape"/>
</filter>
</defs>
</svg>
