<svg width="75" height="34" viewBox="0 0 75 34" fill="none" xmlns="http://www.w3.org/2000/svg">
<path d="M1 4C1 2.34315 2.34315 1 4 1H71C72.6569 1 74 2.34315 74 4V30C74 31.6569 72.6569 33 71 33H4C2.34315 33 1 31.6569 1 30V4Z" fill="#C9D1D9"/>
<path d="M23.7996 14.1833C23.608 14.1176 23.4148 14.0567 23.2202 14.0007C23.2529 13.8671 23.283 13.7351 23.3097 13.6055C23.7483 11.4763 23.4616 9.76107 22.4822 9.19632C21.5432 8.65492 20.0075 9.21946 18.4565 10.5692C18.3037 10.7025 18.1542 10.8396 18.0083 10.9804C17.9106 10.8868 17.8112 10.795 17.7101 10.705C16.0846 9.26178 14.4553 8.65351 13.477 9.21988C12.5388 9.76297 12.261 11.3754 12.6559 13.3933C12.6952 13.5931 12.7395 13.7919 12.7889 13.9895C12.5583 14.0551 12.3358 14.1248 12.1228 14.1991C10.217 14.8635 9 15.9048 9 16.9848C9 18.1003 10.3065 19.2192 12.2915 19.8977C12.4524 19.9525 12.6147 20.0032 12.7781 20.0499C12.725 20.2627 12.6779 20.477 12.6368 20.6924C12.2603 22.6752 12.5543 24.2496 13.4899 24.7892C14.4563 25.3465 16.0783 24.7738 17.6576 23.3932C17.7856 23.2809 17.9109 23.1655 18.0332 23.047C18.1912 23.1995 18.3535 23.3476 18.5198 23.491C20.0496 24.8074 21.5605 25.3389 22.4952 24.7978C23.4607 24.2389 23.7745 22.5476 23.3671 20.4899C23.335 20.3287 23.299 20.1683 23.2592 20.0088C23.3731 19.9751 23.4849 19.9404 23.5939 19.9042C25.6574 19.2206 27 18.1153 27 16.9848C27 15.9008 25.7437 14.8525 23.7996 14.1833ZM23.352 19.1744C23.2536 19.2069 23.1526 19.2384 23.0497 19.2689C22.8219 18.5477 22.5145 17.7809 22.1382 16.9886C22.4973 16.2151 22.7929 15.4581 23.0143 14.7416C23.1984 14.7949 23.3771 14.8511 23.5493 14.9103C25.215 15.4838 26.2311 16.3316 26.2311 16.9848C26.2311 17.6806 25.1338 18.584 23.352 19.1744ZM22.6128 20.6393C22.7929 21.5491 22.8186 22.3718 22.6993 23.0149C22.5921 23.5928 22.3765 23.978 22.1099 24.1324C21.5427 24.4607 20.3296 24.0339 19.0213 22.9081C18.8666 22.7747 18.7157 22.6371 18.5687 22.4954C19.0759 21.9407 19.5828 21.2958 20.0775 20.5796C20.9477 20.5024 21.7698 20.3762 22.5153 20.2038C22.552 20.352 22.5847 20.4972 22.6128 20.6393ZM15.1366 24.0756C14.5824 24.2713 14.141 24.2769 13.8741 24.1231C13.3064 23.7957 13.0703 22.5315 13.3923 20.8359C13.4306 20.6355 13.4744 20.4362 13.5237 20.2383C14.261 20.4014 15.0771 20.5187 15.9493 20.5894C16.4474 21.2902 16.9689 21.9343 17.4945 22.4984C17.3828 22.6065 17.2685 22.7118 17.1516 22.8142C16.4532 23.4247 15.7534 23.8578 15.1366 24.0756ZM12.5402 19.1701C11.6625 18.8701 10.9377 18.4802 10.4408 18.0547C9.99436 17.6724 9.76901 17.2928 9.76901 16.9848C9.76901 16.3294 10.7461 15.4934 12.3759 14.9252C12.5737 14.8563 12.7807 14.7912 12.9955 14.7302C13.2208 15.4629 13.5162 16.2289 13.8728 17.0035C13.5116 17.7896 13.2119 18.5679 12.9845 19.3092C12.8353 19.2665 12.6872 19.2201 12.5402 19.1701ZM13.4106 13.2455C13.0723 11.5168 13.2969 10.2127 13.8623 9.88538C14.4645 9.53678 15.7961 10.0338 17.1996 11.28C17.2911 11.3615 17.3811 11.4446 17.4696 11.5293C16.9466 12.0909 16.4299 12.7302 15.9363 13.4269C15.0897 13.5054 14.2793 13.6314 13.5343 13.8002C13.4884 13.6164 13.4471 13.4315 13.4106 13.2456V13.2455ZM21.175 15.1628C20.999 14.8589 20.8165 14.5587 20.6276 14.2626C21.2019 14.3353 21.7522 14.4317 22.2689 14.5495C22.1138 15.0467 21.9204 15.5666 21.6928 16.0995C21.5264 15.7839 21.3538 15.4716 21.175 15.1628ZM18.0086 12.0789C18.3633 12.4631 18.7185 12.8921 19.0679 13.3576C18.3592 13.3241 17.6492 13.3239 16.9405 13.3571C17.2902 12.896 17.6484 12.4675 18.0086 12.0789ZM14.822 15.1681C14.6454 15.4744 14.476 15.7847 14.3139 16.0989C14.09 15.5678 13.8984 15.0456 13.7419 14.5413C14.2555 14.4264 14.8032 14.3325 15.3738 14.2612C15.1828 14.5591 14.9988 14.8615 14.822 15.168V15.1681ZM15.3902 19.7632C14.8006 19.6974 14.2448 19.6083 13.7313 19.4965C13.8902 18.9832 14.0861 18.4499 14.3148 17.9074C14.4775 18.2218 14.6477 18.5324 14.825 18.8388C15.0074 19.1538 15.1963 19.4623 15.3902 19.7632ZM18.0299 21.945C17.6654 21.5518 17.3019 21.1168 16.9469 20.6489C17.2915 20.6624 17.6429 20.6693 18 20.6693C18.3669 20.6693 18.7296 20.6611 19.0865 20.6452C18.736 21.1215 18.3821 21.5571 18.0299 21.945ZM21.7001 17.8797C21.9407 18.4281 22.1434 18.9586 22.3045 19.4631C21.7826 19.5823 21.2191 19.6782 20.6254 19.7494C20.8156 19.4478 20.9999 19.1424 21.178 18.8335C21.3591 18.5195 21.5331 18.2015 21.7001 17.8797ZM20.5119 18.4493C20.2393 18.923 19.9513 19.3876 19.6484 19.8425C19.0998 19.8814 18.55 19.9007 18 19.9004C17.4398 19.9004 16.895 19.883 16.3703 19.8489C16.0595 19.3951 15.766 18.9296 15.4905 18.4535H15.4905C15.2163 17.98 14.9601 17.4962 14.7225 17.0032C14.9595 16.5101 15.2149 16.0261 15.4882 15.5521L15.4882 15.5522C15.7614 15.0782 16.0525 14.6147 16.3609 14.1628C16.8962 14.1223 17.4452 14.1012 17.9999 14.1012H18C18.5573 14.1012 19.1069 14.1225 19.6421 14.1633C19.9474 14.6145 20.2367 15.0764 20.5094 15.5481C20.7836 16.0209 21.0424 16.5026 21.2854 16.9923C21.0449 17.487 20.7869 17.973 20.5119 18.4493ZM22.0982 9.86246C22.7009 10.2101 22.9353 11.6119 22.5566 13.4502C22.5324 13.5675 22.5053 13.687 22.4757 13.8081C21.7289 13.6357 20.918 13.5075 20.0689 13.4279C19.5744 12.7235 19.0619 12.0832 18.5474 11.5289C18.6822 11.3989 18.8203 11.2723 18.9614 11.1492C20.2903 9.99275 21.5323 9.53614 22.0982 9.86246ZM18 15.3775C18.8877 15.3775 19.6073 16.0971 19.6073 16.9848C19.6073 17.8725 18.8877 18.5922 18 18.5922C17.1123 18.5922 16.3927 17.8725 16.3927 16.9848C16.3927 16.0971 17.1123 15.3775 18 15.3775Z" fill="#00D8FF"/>
<path d="M39.1191 17.5488H37.1152V21H35.9844V12.4688H38.8086C39.7695 12.4688 40.5078 12.6875 41.0234 13.125C41.543 13.5625 41.8027 14.1992 41.8027 15.0352C41.8027 15.5664 41.6582 16.0293 41.3691 16.4238C41.084 16.8184 40.6855 17.1133 40.1738 17.3086L42.1777 20.9297V21H40.9707L39.1191 17.5488ZM37.1152 16.6289H38.8438C39.4023 16.6289 39.8457 16.4844 40.1738 16.1953C40.5059 15.9062 40.6719 15.5195 40.6719 15.0352C40.6719 14.5078 40.5137 14.1035 40.1973 13.8223C39.8848 13.541 39.4316 13.3984 38.8379 13.3945H37.1152V16.6289ZM45.8457 21.1172C44.9863 21.1172 44.2871 20.8359 43.748 20.2734C43.209 19.707 42.9395 18.9512 42.9395 18.0059V17.8066C42.9395 17.1777 43.0586 16.6172 43.2969 16.125C43.5391 15.6289 43.875 15.2422 44.3047 14.9648C44.7383 14.6836 45.207 14.543 45.7109 14.543C46.5352 14.543 47.1758 14.8145 47.6328 15.3574C48.0898 15.9004 48.3184 16.6777 48.3184 17.6895V18.1406H44.0234C44.0391 18.7656 44.2207 19.2715 44.5684 19.6582C44.9199 20.041 45.3652 20.2324 45.9043 20.2324C46.2871 20.2324 46.6113 20.1543 46.877 19.998C47.1426 19.8418 47.375 19.6348 47.5742 19.377L48.2363 19.8926C47.7051 20.709 46.9082 21.1172 45.8457 21.1172ZM45.7109 15.4336C45.2734 15.4336 44.9062 15.5938 44.6094 15.9141C44.3125 16.2305 44.1289 16.6758 44.0586 17.25H47.2344V17.168C47.2031 16.6172 47.0547 16.1914 46.7891 15.8906C46.5234 15.5859 46.1641 15.4336 45.7109 15.4336ZM53.4922 21C53.4297 20.875 53.3789 20.6523 53.3398 20.332C52.8359 20.8555 52.2344 21.1172 51.5352 21.1172C50.9102 21.1172 50.3965 20.9414 49.9941 20.5898C49.5957 20.2344 49.3965 19.7852 49.3965 19.2422C49.3965 18.582 49.6465 18.0703 50.1465 17.707C50.6504 17.3398 51.3574 17.1562 52.2676 17.1562H53.3223V16.6582C53.3223 16.2793 53.209 15.9785 52.9824 15.7559C52.7559 15.5293 52.4219 15.416 51.9805 15.416C51.5938 15.416 51.2695 15.5137 51.0078 15.709C50.7461 15.9043 50.6152 16.1406 50.6152 16.418H49.5254C49.5254 16.1016 49.6367 15.7969 49.8594 15.5039C50.0859 15.207 50.3906 14.9727 50.7734 14.8008C51.1602 14.6289 51.584 14.543 52.0449 14.543C52.7754 14.543 53.3477 14.7266 53.7617 15.0938C54.1758 15.457 54.3906 15.959 54.4062 16.5996V19.5176C54.4062 20.0996 54.4805 20.5625 54.6289 20.9062V21H53.4922ZM51.6934 20.1738C52.0332 20.1738 52.3555 20.0859 52.6602 19.9102C52.9648 19.7344 53.1855 19.5059 53.3223 19.2246V17.9238H52.4727C51.1445 17.9238 50.4805 18.3125 50.4805 19.0898C50.4805 19.4297 50.5938 19.6953 50.8203 19.8867C51.0469 20.0781 51.3379 20.1738 51.6934 20.1738ZM58.6484 20.2324C59.0352 20.2324 59.373 20.1152 59.6621 19.8809C59.9512 19.6465 60.1113 19.3535 60.1426 19.002H61.168C61.1484 19.3652 61.0234 19.7109 60.793 20.0391C60.5625 20.3672 60.2539 20.6289 59.8672 20.8242C59.4844 21.0195 59.0781 21.1172 58.6484 21.1172C57.7852 21.1172 57.0977 20.8301 56.5859 20.2559C56.0781 19.6777 55.8242 18.8887 55.8242 17.8887V17.707C55.8242 17.0898 55.9375 16.541 56.1641 16.0605C56.3906 15.5801 56.7148 15.207 57.1367 14.9414C57.5625 14.6758 58.0645 14.543 58.6426 14.543C59.3535 14.543 59.9434 14.7559 60.4121 15.1816C60.8848 15.6074 61.1367 16.1602 61.168 16.8398H60.1426C60.1113 16.4297 59.9551 16.0938 59.6738 15.832C59.3965 15.5664 59.0527 15.4336 58.6426 15.4336C58.0918 15.4336 57.6641 15.6328 57.3594 16.0312C57.0586 16.4258 56.9082 16.998 56.9082 17.748V17.9531C56.9082 18.6836 57.0586 19.2461 57.3594 19.6406C57.6602 20.0352 58.0898 20.2324 58.6484 20.2324ZM63.8574 13.125V14.6602H65.041V15.498H63.8574V19.4297C63.8574 19.6836 63.9102 19.875 64.0156 20.0039C64.1211 20.1289 64.3008 20.1914 64.5547 20.1914C64.6797 20.1914 64.8516 20.168 65.0703 20.1211V21C64.7852 21.0781 64.5078 21.1172 64.2383 21.1172C63.7539 21.1172 63.3887 20.9707 63.1426 20.6777C62.8965 20.3848 62.7734 19.9688 62.7734 19.4297V15.498H61.6191V14.6602H62.7734V13.125H63.8574Z" fill="#22272E"/>
<path d="M4 2H71V0H4V2ZM73 4V30H75V4H73ZM71 32H4V34H71V32ZM2 30V4H0V30H2ZM4 32C2.89543 32 2 31.1046 2 30H0C0 32.2091 1.79086 34 4 34V32ZM73 30C73 31.1046 72.1046 32 71 32V34C73.2091 34 75 32.2091 75 30H73ZM71 2C72.1046 2 73 2.89543 73 4H75C75 1.79086 73.2091 0 71 0V2ZM4 0C1.79086 0 0 1.79086 0 4H2C2 2.89543 2.89543 2 4 2V0Z" fill="#30363D"/>
</svg>
