<svg width="105" height="47" viewBox="0 0 105 47" fill="none" xmlns="http://www.w3.org/2000/svg">
<rect x="1" y="1" width="103" height="45" rx="4" fill="#22272E"/>
<path d="M34 23.2668C34 22.0743 32.5068 20.944 30.217 20.2435C30.7457 17.9102 30.511 16.0532 29.476 15.4585C29.2252 15.318 28.9414 15.2473 28.654 15.2537V16.0713C28.8228 16.0713 28.9585 16.105 29.0725 16.1673C29.5712 16.4538 29.788 17.5428 29.6193 18.9445C29.5788 19.2895 29.5128 19.6525 29.4318 20.023C28.665 19.8382 27.8868 19.7047 27.1023 19.6233C26.6349 18.9785 26.125 18.3656 25.576 17.7888C26.7723 16.6773 27.895 16.0683 28.6585 16.0683V15.25C27.649 15.25 26.3282 15.9692 24.9925 17.2165C23.6575 15.9775 22.336 15.265 21.3273 15.265V16.0825C22.087 16.0825 23.2135 16.6885 24.4097 17.7925C23.896 18.3325 23.3823 18.9445 22.894 19.6233C22.1079 19.7038 21.3283 19.8386 20.5608 20.0268C20.476 19.66 20.4138 19.3045 20.3695 18.9633C20.197 17.5608 20.41 16.4718 20.9057 16.1823C21.0152 16.1163 21.1585 16.0863 21.3273 16.0863V15.2687C21.0198 15.2687 20.74 15.3347 20.4985 15.4735C19.4673 16.0682 19.2363 17.9208 19.768 20.2473C17.4858 20.9523 16 22.078 16 23.2668C16 24.4593 17.4933 25.5895 19.783 26.2892C19.2543 28.6233 19.489 30.4803 20.524 31.0743C20.7625 31.2138 21.0415 31.2797 21.349 31.2797C22.3585 31.2797 23.6793 30.5605 25.015 29.3132C26.35 30.553 27.6707 31.2648 28.6803 31.2648C28.9698 31.2709 29.2558 31.1999 29.509 31.0592C30.5402 30.4653 30.7712 28.6128 30.2395 26.2863C32.5142 25.5858 34 24.4555 34 23.2668ZM29.2225 20.8195C29.08 21.3099 28.9148 21.7934 28.7275 22.2685C28.4209 21.6721 28.0842 21.0916 27.7188 20.5292C28.24 20.6065 28.7425 20.7017 29.2233 20.8195H29.2225ZM27.5425 24.727C27.2568 25.222 26.9628 25.6923 26.6583 26.1287C25.5574 26.2258 24.4503 26.227 23.3492 26.1325C22.7177 25.2304 22.1654 24.2753 21.6985 23.278C22.1647 22.2783 22.7147 21.3199 23.3425 20.413C24.443 20.3158 25.5499 20.3143 26.6508 20.4085C26.9552 20.845 27.253 21.3115 27.5387 21.8035C27.8177 22.2835 28.0712 22.771 28.3022 23.263C28.0687 23.761 27.8152 24.2494 27.5425 24.727ZM28.7275 24.25C28.9255 24.7413 29.095 25.2332 29.2338 25.7102C28.7538 25.828 28.2467 25.927 27.7225 26.0035C28.0864 25.4361 28.4218 24.8508 28.7275 24.25ZM25.0075 28.165C24.6663 27.8125 24.325 27.4202 23.9875 26.9905C24.3175 27.0055 24.655 27.0167 24.9963 27.0167C25.3412 27.0167 25.6825 27.0092 26.0162 26.9905C25.6862 27.4202 25.345 27.8125 25.0075 28.165ZM22.2775 26.0035C21.7718 25.9302 21.2698 25.8336 20.773 25.714C20.9088 25.2407 21.0775 24.7525 21.268 24.265C21.4188 24.5575 21.577 24.8515 21.7495 25.1455C21.922 25.4388 22.0975 25.7253 22.2775 26.0035ZM24.9887 18.3685C25.33 18.721 25.6713 19.1133 26.0087 19.543C25.6788 19.528 25.3413 19.5168 25 19.5168C24.655 19.5168 24.3138 19.5243 23.98 19.543C24.31 19.1133 24.6512 18.721 24.9887 18.3685ZM22.2737 20.53C21.9099 21.0962 21.5745 21.6802 21.2688 22.2797C21.0762 21.8016 20.9072 21.3143 20.7625 20.8195C21.2425 20.7055 21.7495 20.6065 22.2737 20.53ZM18.9535 25.123C17.6545 24.5695 16.8145 23.8428 16.8145 23.2668C16.8145 22.6908 17.6545 21.9602 18.9535 21.4105C19.2685 21.2747 19.6135 21.1533 19.9698 21.04C20.179 21.7585 20.4543 22.507 20.7948 23.2743C20.4733 23.9959 20.2014 24.7386 19.981 25.4972C19.6326 25.3894 19.2897 25.2645 18.9535 25.123ZM20.9275 30.3655C20.4288 30.0805 20.212 28.99 20.3808 27.589C20.4212 27.244 20.4872 26.8802 20.5683 26.5098C21.2867 26.686 22.072 26.8218 22.8977 26.9103C23.3651 27.555 23.875 28.1679 24.424 28.7448C23.2278 29.8562 22.105 30.4653 21.3415 30.4653C21.1975 30.4668 21.0553 30.4328 20.9275 30.3663V30.3655ZM29.6305 27.5702C29.803 28.972 29.59 30.0618 29.0942 30.3512C28.9847 30.4173 28.8415 30.4465 28.6727 30.4465C27.913 30.4465 26.7865 29.8413 25.5903 28.7365C26.104 28.198 26.6178 27.5852 27.106 26.9065C27.8921 26.826 28.6717 26.6912 29.4393 26.503C29.524 26.8735 29.5892 27.229 29.6305 27.5702ZM31.0427 25.123C30.7277 25.2587 30.3827 25.3802 30.0265 25.4935C29.8022 24.731 29.5266 23.9845 29.2015 23.2592C29.539 22.4965 29.8098 21.7517 30.0153 21.0363C30.379 21.1495 30.7233 21.2747 31.0465 21.4105C32.3455 21.964 33.1855 22.6908 33.1855 23.2668C33.1817 23.8428 32.3417 24.5732 31.0427 25.123Z" fill="#ADBAC7"/>
<path d="M24.9962 24.9438C25.441 24.9438 25.8675 24.7671 26.182 24.4526C26.4965 24.1381 26.6732 23.7115 26.6732 23.2668C26.6732 22.822 26.4965 22.3954 26.182 22.0809C25.8675 21.7664 25.441 21.5898 24.9962 21.5898C24.5514 21.5898 24.1249 21.7664 23.8104 22.0809C23.4959 22.3954 23.3192 22.822 23.3192 23.2668C23.3192 23.7115 23.4959 24.1381 23.8104 24.4526C24.1249 24.7671 24.5514 24.9438 24.9962 24.9438Z" fill="#ADBAC7"/>
<path d="M55.5 30H53.9375L52.0625 26.8594C51.8906 26.5677 51.724 26.3203 51.5625 26.1172C51.401 25.9089 51.2344 25.7396 51.0625 25.6094C50.8958 25.4792 50.7135 25.3854 50.5156 25.3281C50.3229 25.2656 50.1042 25.2344 49.8594 25.2344H48.7812V30H47.4688V18.7969H50.8125C51.3021 18.7969 51.7526 18.8594 52.1641 18.9844C52.5807 19.1042 52.9401 19.2891 53.2422 19.5391C53.5495 19.7891 53.7891 20.1016 53.9609 20.4766C54.1328 20.8464 54.2188 21.2812 54.2188 21.7812C54.2188 22.1719 54.1589 22.5312 54.0391 22.8594C53.9245 23.1823 53.7578 23.4714 53.5391 23.7266C53.3255 23.9818 53.0651 24.2005 52.7578 24.3828C52.4557 24.5599 52.1146 24.6979 51.7344 24.7969V24.8281C51.9219 24.9115 52.0833 25.0078 52.2188 25.1172C52.3594 25.2214 52.4922 25.3464 52.6172 25.4922C52.7422 25.638 52.8646 25.8047 52.9844 25.9922C53.1094 26.1745 53.2474 26.388 53.3984 26.6328L55.5 30ZM48.7812 19.9844V24.0469H50.5625C50.8906 24.0469 51.1927 23.9974 51.4688 23.8984C51.75 23.7995 51.9922 23.6589 52.1953 23.4766C52.3984 23.2891 52.5573 23.0625 52.6719 22.7969C52.7865 22.526 52.8438 22.224 52.8438 21.8906C52.8438 21.2917 52.6484 20.8255 52.2578 20.4922C51.8724 20.1536 51.3125 19.9844 50.5781 19.9844H48.7812ZM62.8359 26.3203H57.1875C57.2083 27.2109 57.4479 27.8984 57.9062 28.3828C58.3646 28.8672 58.9948 29.1094 59.7969 29.1094C60.6979 29.1094 61.526 28.8125 62.2812 28.2188V29.4219C61.5781 29.9323 60.6484 30.1875 59.4922 30.1875C58.362 30.1875 57.474 29.8255 56.8281 29.1016C56.1823 28.3724 55.8594 27.349 55.8594 26.0312C55.8594 24.7865 56.2109 23.7734 56.9141 22.9922C57.6224 22.2057 58.5 21.8125 59.5469 21.8125C60.5938 21.8125 61.4036 22.151 61.9766 22.8281C62.5495 23.5052 62.8359 24.4453 62.8359 25.6484V26.3203ZM61.5234 25.2344C61.5182 24.4948 61.3385 23.9193 60.9844 23.5078C60.6354 23.0964 60.1484 22.8906 59.5234 22.8906C58.9193 22.8906 58.4062 23.1068 57.9844 23.5391C57.5625 23.9714 57.3021 24.5365 57.2031 25.2344H61.5234ZM70.5078 30H69.2266V28.75H69.1953C68.638 29.7083 67.8177 30.1875 66.7344 30.1875C65.9375 30.1875 65.3125 29.9766 64.8594 29.5547C64.4115 29.1328 64.1875 28.5729 64.1875 27.875C64.1875 26.3802 65.0677 25.5104 66.8281 25.2656L69.2266 24.9297C69.2266 23.5703 68.6771 22.8906 67.5781 22.8906C66.6146 22.8906 65.7448 23.2188 64.9688 23.875V22.5625C65.7552 22.0625 66.6615 21.8125 67.6875 21.8125C69.5677 21.8125 70.5078 22.8073 70.5078 24.7969V30ZM69.2266 25.9531L67.2969 26.2188C66.7031 26.3021 66.2552 26.4505 65.9531 26.6641C65.651 26.8724 65.5 27.2448 65.5 27.7812C65.5 28.1719 65.638 28.4922 65.9141 28.7422C66.1953 28.987 66.5677 29.1094 67.0312 29.1094C67.6667 29.1094 68.1901 28.888 68.6016 28.4453C69.0182 27.9974 69.2266 27.4323 69.2266 26.75V25.9531ZM78.375 29.6328C77.7604 30.0026 77.0312 30.1875 76.1875 30.1875C75.0469 30.1875 74.125 29.8177 73.4219 29.0781C72.724 28.3333 72.375 27.3698 72.375 26.1875C72.375 24.8698 72.7526 23.8125 73.5078 23.0156C74.263 22.2135 75.2708 21.8125 76.5312 21.8125C77.2344 21.8125 77.8542 21.9427 78.3906 22.2031V23.5156C77.7969 23.099 77.1615 22.8906 76.4844 22.8906C75.6667 22.8906 74.9948 23.1849 74.4688 23.7734C73.9479 24.3568 73.6875 25.125 73.6875 26.0781C73.6875 27.0156 73.9323 27.7552 74.4219 28.2969C74.9167 28.8385 75.5781 29.1094 76.4062 29.1094C77.1042 29.1094 77.7604 28.8776 78.375 28.4141V29.6328ZM84.0234 29.9219C83.7214 30.0885 83.3229 30.1719 82.8281 30.1719C81.4271 30.1719 80.7266 29.3906 80.7266 27.8281V23.0938H79.3516V22H80.7266V20.0469L82.0078 19.6328V22H84.0234V23.0938H82.0078V27.6016C82.0078 28.138 82.099 28.5208 82.2812 28.75C82.4635 28.9792 82.7656 29.0938 83.1875 29.0938C83.5104 29.0938 83.7891 29.0052 84.0234 28.8281V29.9219Z" fill="#ADBAC7"/>
<rect x="1" y="1" width="103" height="45" rx="4" stroke="#444C56" stroke-width="2"/>
</svg>
