<svg width="103" height="45" viewBox="0 0 103 45" fill="none" xmlns="http://www.w3.org/2000/svg">
<path d="M1 4C1 2.34314 2.34315 1 4 1H99C100.657 1 102 2.34315 102 4V41C102 42.6569 100.657 44 99 44H4C2.34314 44 1 42.6569 1 41V4Z" fill="#22272E"/>
<path d="M33 22.2668C33 21.0743 31.5067 19.944 29.217 19.2435C29.7457 16.9102 29.511 15.0532 28.476 14.4585C28.2252 14.318 27.9414 14.2473 27.654 14.2537V15.0713C27.8227 15.0713 27.9585 15.105 28.0725 15.1673C28.5713 15.4538 28.788 16.5428 28.6193 17.9445C28.5788 18.2895 28.5128 18.6525 28.4318 19.023C27.665 18.8382 26.8868 18.7047 26.1023 18.6232C25.6349 17.9785 25.125 17.3656 24.576 16.7888C25.7722 15.6773 26.895 15.0683 27.6585 15.0683V14.25C26.649 14.25 25.3282 14.9692 23.9925 16.2165C22.6575 14.9775 21.336 14.265 20.3273 14.265V15.0825C21.087 15.0825 22.2135 15.6885 23.4098 16.7925C22.896 17.3325 22.3823 17.9445 21.894 18.6232C21.1079 18.7038 20.3283 18.8386 19.5607 19.0267C19.476 18.66 19.4138 18.3045 19.3695 17.9633C19.197 16.5608 19.41 15.4718 19.9057 15.1823C20.0152 15.1163 20.1585 15.0863 20.3273 15.0863V14.2687C20.0198 14.2687 19.74 14.3347 19.4985 14.4735C18.4673 15.0682 18.2363 16.9208 18.768 19.2473C16.4858 19.9523 15 21.078 15 22.2668C15 23.4593 16.4933 24.5895 18.783 25.2892C18.2543 27.6232 18.489 29.4803 19.524 30.0743C19.7625 30.2138 20.0415 30.2797 20.349 30.2797C21.3585 30.2797 22.6793 29.5605 24.015 28.3132C25.35 29.553 26.6707 30.2648 27.6802 30.2648C27.9698 30.2709 28.2558 30.1999 28.509 30.0593C29.5402 29.4653 29.7713 27.6128 29.2395 25.2863C31.5143 24.5858 33 23.4555 33 22.2668ZM28.2225 19.8195C28.08 20.3099 27.9148 20.7934 27.7275 21.2685C27.4209 20.6721 27.0842 20.0916 26.7188 19.5292C27.24 19.6065 27.7425 19.7017 28.2233 19.8195H28.2225ZM26.5425 23.727C26.2568 24.222 25.9628 24.6923 25.6583 25.1288C24.5574 25.2258 23.4503 25.227 22.3492 25.1325C21.7177 24.2304 21.1654 23.2753 20.6985 22.278C21.1647 21.2783 21.7147 20.3199 22.3425 19.413C23.443 19.3158 24.5499 19.3143 25.6508 19.4085C25.9553 19.845 26.253 20.3115 26.5388 20.8035C26.8178 21.2835 27.0712 21.771 27.3022 22.263C27.0687 22.761 26.8152 23.2494 26.5425 23.727V23.727ZM27.7275 23.25C27.9255 23.7412 28.095 24.2332 28.2338 24.7102C27.7538 24.828 27.2468 24.927 26.7225 25.0035C27.0864 24.4361 27.4218 23.8508 27.7275 23.25V23.25ZM24.0075 27.165C23.6663 26.8125 23.325 26.4202 22.9875 25.9905C23.3175 26.0055 23.655 26.0167 23.9962 26.0167C24.3412 26.0167 24.6825 26.0092 25.0162 25.9905C24.6862 26.4202 24.345 26.8125 24.0075 27.165ZM21.2775 25.0035C20.7718 24.9302 20.2698 24.8336 19.773 24.714C19.9087 24.2407 20.0775 23.7525 20.268 23.265C20.4188 23.5575 20.577 23.8515 20.7495 24.1455C20.922 24.4388 21.0975 24.7253 21.2775 25.0035ZM23.9887 17.3685C24.33 17.721 24.6713 18.1132 25.0088 18.543C24.6788 18.528 24.3413 18.5168 24 18.5168C23.655 18.5168 23.3138 18.5242 22.98 18.543C23.31 18.1132 23.6512 17.721 23.9887 17.3685ZM21.2737 19.53C20.9099 20.0962 20.5745 20.6802 20.2688 21.2798C20.0762 20.8016 19.9072 20.3143 19.7625 19.8195C20.2425 19.7055 20.7495 19.6065 21.2737 19.53ZM17.9535 24.123C16.6545 23.5695 15.8145 22.8428 15.8145 22.2668C15.8145 21.6908 16.6545 20.9602 17.9535 20.4105C18.2685 20.2747 18.6135 20.1533 18.9698 20.04C19.179 20.7585 19.4543 21.507 19.7948 22.2743C19.4733 22.9959 19.2014 23.7386 18.981 24.4973C18.6326 24.3894 18.2897 24.2645 17.9535 24.123V24.123ZM19.9275 29.3655C19.4288 29.0805 19.212 27.99 19.3808 26.589C19.4213 26.244 19.4873 25.8803 19.5683 25.5098C20.2868 25.686 21.072 25.8218 21.8977 25.9103C22.3651 26.555 22.875 27.1679 23.424 27.7448C22.2278 28.8563 21.105 29.4653 20.3415 29.4653C20.1975 29.4668 20.0553 29.4328 19.9275 29.3663V29.3655ZM28.6305 26.5703C28.803 27.972 28.59 29.0618 28.0942 29.3513C27.9847 29.4173 27.8415 29.4465 27.6727 29.4465C26.913 29.4465 25.7865 28.8413 24.5902 27.7365C25.104 27.198 25.6177 26.5852 26.106 25.9065C26.8921 25.826 27.6717 25.6912 28.4393 25.503C28.524 25.8735 28.5892 26.229 28.6305 26.5703V26.5703ZM30.0427 24.123C29.7277 24.2587 29.3827 24.3802 29.0265 24.4935C28.8022 23.731 28.5266 22.9845 28.2015 22.2592C28.539 21.4965 28.8098 20.7518 29.0153 20.0363C29.379 20.1495 29.7233 20.2747 30.0465 20.4105C31.3455 20.964 32.1855 21.6908 32.1855 22.2668C32.1817 22.8428 31.3417 23.5732 30.0427 24.123V24.123Z" fill="#ADBAC7"/>
<path d="M23.9963 23.9438C24.441 23.9438 24.8676 23.7671 25.1821 23.4526C25.4966 23.1381 25.6733 22.7115 25.6733 22.2668C25.6733 21.822 25.4966 21.3954 25.1821 21.0809C24.8676 20.7664 24.441 20.5898 23.9963 20.5898C23.5515 20.5898 23.125 20.7664 22.8105 21.0809C22.496 21.3954 22.3193 21.822 22.3193 22.2668C22.3193 22.7115 22.496 23.1381 22.8105 23.4526C23.125 23.7671 23.5515 23.9438 23.9963 23.9438V23.9438Z" fill="#ADBAC7"/>
<path d="M54.5 29H52.9375L51.0625 25.8594C50.8906 25.5677 50.724 25.3203 50.5625 25.1172C50.401 24.9089 50.2344 24.7396 50.0625 24.6094C49.8958 24.4792 49.7135 24.3854 49.5156 24.3281C49.3229 24.2656 49.1042 24.2344 48.8594 24.2344H47.7812V29H46.4688V17.7969H49.8125C50.3021 17.7969 50.7526 17.8594 51.1641 17.9844C51.5807 18.1042 51.9401 18.2891 52.2422 18.5391C52.5495 18.7891 52.7891 19.1016 52.9609 19.4766C53.1328 19.8464 53.2188 20.2812 53.2188 20.7812C53.2188 21.1719 53.1589 21.5312 53.0391 21.8594C52.9245 22.1823 52.7578 22.4714 52.5391 22.7266C52.3255 22.9818 52.0651 23.2005 51.7578 23.3828C51.4557 23.5599 51.1146 23.6979 50.7344 23.7969V23.8281C50.9219 23.9115 51.0833 24.0078 51.2188 24.1172C51.3594 24.2214 51.4922 24.3464 51.6172 24.4922C51.7422 24.638 51.8646 24.8047 51.9844 24.9922C52.1094 25.1745 52.2474 25.388 52.3984 25.6328L54.5 29ZM47.7812 18.9844V23.0469H49.5625C49.8906 23.0469 50.1927 22.9974 50.4688 22.8984C50.75 22.7995 50.9922 22.6589 51.1953 22.4766C51.3984 22.2891 51.5573 22.0625 51.6719 21.7969C51.7865 21.526 51.8438 21.224 51.8438 20.8906C51.8438 20.2917 51.6484 19.8255 51.2578 19.4922C50.8724 19.1536 50.3125 18.9844 49.5781 18.9844H47.7812ZM61.8516 25.3203H56.2031C56.224 26.2109 56.4635 26.8984 56.9219 27.3828C57.3802 27.8672 58.0104 28.1094 58.8125 28.1094C59.7135 28.1094 60.5417 27.8125 61.2969 27.2188V28.4219C60.5938 28.9323 59.6641 29.1875 58.5078 29.1875C57.3776 29.1875 56.4896 28.8255 55.8438 28.1016C55.1979 27.3724 54.875 26.349 54.875 25.0312C54.875 23.7865 55.2266 22.7734 55.9297 21.9922C56.638 21.2057 57.5156 20.8125 58.5625 20.8125C59.6094 20.8125 60.4193 21.151 60.9922 21.8281C61.5651 22.5052 61.8516 23.4453 61.8516 24.6484V25.3203ZM60.5391 24.2344C60.5339 23.4948 60.3542 22.9193 60 22.5078C59.651 22.0964 59.1641 21.8906 58.5391 21.8906C57.9349 21.8906 57.4219 22.1068 57 22.5391C56.5781 22.9714 56.3177 23.5365 56.2188 24.2344H60.5391ZM69.5234 29H68.2422V27.75H68.2109C67.6536 28.7083 66.8333 29.1875 65.75 29.1875C64.9531 29.1875 64.3281 28.9766 63.875 28.5547C63.4271 28.1328 63.2031 27.5729 63.2031 26.875C63.2031 25.3802 64.0833 24.5104 65.8438 24.2656L68.2422 23.9297C68.2422 22.5703 67.6927 21.8906 66.5938 21.8906C65.6302 21.8906 64.7604 22.2188 63.9844 22.875V21.5625C64.7708 21.0625 65.6771 20.8125 66.7031 20.8125C68.5833 20.8125 69.5234 21.8073 69.5234 23.7969V29ZM68.2422 24.9531L66.3125 25.2188C65.7188 25.3021 65.2708 25.4505 64.9688 25.6641C64.6667 25.8724 64.5156 26.2448 64.5156 26.7812C64.5156 27.1719 64.6536 27.4922 64.9297 27.7422C65.2109 27.987 65.5833 28.1094 66.0469 28.1094C66.6823 28.1094 67.2057 27.888 67.6172 27.4453C68.0339 26.9974 68.2422 26.4323 68.2422 25.75V24.9531ZM77.3906 28.6328C76.776 29.0026 76.0469 29.1875 75.2031 29.1875C74.0625 29.1875 73.1406 28.8177 72.4375 28.0781C71.7396 27.3333 71.3906 26.3698 71.3906 25.1875C71.3906 23.8698 71.7682 22.8125 72.5234 22.0156C73.2786 21.2135 74.2865 20.8125 75.5469 20.8125C76.25 20.8125 76.8698 20.9427 77.4062 21.2031V22.5156C76.8125 22.099 76.1771 21.8906 75.5 21.8906C74.6823 21.8906 74.0104 22.1849 73.4844 22.7734C72.9635 23.3568 72.7031 24.125 72.7031 25.0781C72.7031 26.0156 72.9479 26.7552 73.4375 27.2969C73.9323 27.8385 74.5938 28.1094 75.4219 28.1094C76.1198 28.1094 76.776 27.8776 77.3906 27.4141V28.6328ZM83.0391 28.9219C82.737 29.0885 82.3385 29.1719 81.8438 29.1719C80.4427 29.1719 79.7422 28.3906 79.7422 26.8281V22.0938H78.3672V21H79.7422V19.0469L81.0234 18.6328V21H83.0391V22.0938H81.0234V26.6016C81.0234 27.138 81.1146 27.5208 81.2969 27.75C81.4792 27.9792 81.7812 28.0938 82.2031 28.0938C82.526 28.0938 82.8047 28.0052 83.0391 27.8281V28.9219Z" fill="#ADBAC7"/>
<path d="M4 2H99V0H4V2ZM101 4V41H103V4H101ZM99 43H4V45H99V43ZM2 41V4H0V41H2ZM4 43C2.89543 43 2 42.1046 2 41H0C0 43.2091 1.79086 45 4 45V43ZM101 41C101 42.1046 100.105 43 99 43V45C101.209 45 103 43.2091 103 41H101ZM99 2C100.105 2 101 2.89543 101 4H103C103 1.79086 101.209 0 99 0V2ZM4 0C1.79086 0 0 1.79086 0 4H2C2 2.89543 2.89543 2 4 2V0Z" fill="#444C56"/>
</svg>
