<svg width="18" height="18" viewBox="0 0 18 18" fill="none" xmlns="http://www.w3.org/2000/svg">
<rect width="18" height="18" fill="white"/>
<path d="M14.7996 6.18332C14.608 6.1176 14.4148 6.05671 14.2202 6.00072C14.2529 5.86713 14.283 5.73515 14.3097 5.60549C14.7483 3.47636 14.4616 1.76109 13.4822 1.19634C12.5432 0.654931 11.0075 1.21947 9.45654 2.56926C9.30369 2.70253 9.15422 2.83963 9.0083 2.98045C8.91061 2.88681 8.81119 2.79499 8.7101 2.70503C7.08462 1.2618 5.45534 0.653525 4.47701 1.21989C3.53883 1.76299 3.26102 3.37546 3.6559 5.39329C3.69518 5.59314 3.73954 5.79195 3.78893 5.98954C3.5583 6.05507 3.33577 6.12482 3.12279 6.19907C1.21704 6.86352 0 7.90478 0 8.98485C0 10.1004 1.30655 11.2192 3.29147 11.8977C3.45239 11.9525 3.61465 12.0032 3.7781 12.0499C3.72502 12.2627 3.67789 12.477 3.63677 12.6924C3.26032 14.6752 3.5543 16.2496 4.48995 16.7893C5.45632 17.3466 7.07829 16.7738 8.65758 15.3932C8.78564 15.281 8.91088 15.1655 9.03319 15.0471C9.19122 15.1995 9.35347 15.3476 9.51975 15.491C11.0496 16.8074 12.5605 17.339 13.4952 16.7978C14.4607 16.2389 14.7745 14.5476 14.3671 12.4899C14.335 12.3287 14.299 12.1683 14.2592 12.0089C14.3731 11.9751 14.4849 11.9404 14.5939 11.9042C16.6574 11.2206 18 10.1153 18 8.98485C18 7.90084 16.7437 6.85256 14.7996 6.18332ZM14.352 11.1744C14.2536 11.2069 14.1526 11.2384 14.0497 11.269C13.8219 10.5478 13.5145 9.78093 13.1382 8.98858C13.4973 8.21514 13.7929 7.45809 14.0143 6.7416C14.1984 6.7949 14.3771 6.85108 14.5493 6.91035C16.215 7.48382 17.2311 8.33158 17.2311 8.98485C17.2311 9.68067 16.1338 10.584 14.352 11.1744ZM13.6128 12.6393C13.7929 13.5491 13.8186 14.3718 13.6993 15.0149C13.5921 15.5928 13.3765 15.9781 13.1099 16.1324C12.5427 16.4608 11.3296 16.034 10.0213 14.9081C9.86663 14.7748 9.7157 14.6371 9.56869 14.4954C10.0759 13.9407 10.5828 13.2959 11.0775 12.5797C11.9477 12.5024 12.7698 12.3762 13.5153 12.2038C13.552 12.352 13.5847 12.4972 13.6128 12.6393ZM6.13659 16.0757C5.58239 16.2713 5.14097 16.277 4.87413 16.1231C4.30636 15.7957 4.07032 14.5315 4.39228 12.8359C4.43055 12.6355 4.47437 12.4362 4.5237 12.2383C5.26099 12.4014 6.07711 12.5187 6.94934 12.5894C7.44743 13.2902 7.96894 13.9344 8.49452 14.4984C8.38283 14.6065 8.26849 14.7118 8.15161 14.8143C7.4532 15.4247 6.75338 15.8578 6.13659 16.0757ZM3.54023 11.1701C2.66252 10.8701 1.93767 10.4802 1.44084 10.0547C0.994359 9.67244 0.769008 9.29282 0.769008 8.98485C0.769008 8.3294 1.74614 7.49338 3.37591 6.92519C3.5737 6.85628 3.7807 6.79124 3.99551 6.73021C4.22079 7.46287 4.51624 8.22892 4.8728 9.00356C4.5116 9.78965 4.21193 10.5679 3.98447 11.3092C3.83527 11.2665 3.68715 11.2201 3.54023 11.1701ZM4.41056 5.24556C4.07229 3.51679 4.29694 2.2127 4.86232 1.8854C5.46448 1.53679 6.79605 2.03383 8.19956 3.28005C8.29108 3.3615 8.38112 3.4446 8.46963 3.52931C7.94665 4.09089 7.42992 4.73024 6.93626 5.4269C6.0897 5.50537 5.27934 5.63137 4.53431 5.80019C4.48841 5.61641 4.44715 5.4315 4.41056 5.24563V5.24556ZM12.175 7.16284C11.999 6.85888 11.8165 6.55874 11.6276 6.26263C12.2019 6.33527 12.7522 6.43167 13.2689 6.54951C13.1138 7.04676 12.9204 7.56658 12.6928 8.09955C12.5264 7.7839 12.3538 7.4716 12.175 7.16284ZM9.00865 4.07887C9.36331 4.46313 9.71852 4.8921 10.0679 5.35757C9.35916 5.3241 8.64922 5.32396 7.94046 5.35715C8.2902 4.89597 8.64844 4.46756 9.00865 4.07887ZM5.82202 7.16812C5.64541 7.47439 5.47599 7.78474 5.31387 8.09892C5.08999 7.56784 4.89839 7.04563 4.74195 6.54135C5.25551 6.42646 5.80317 6.33252 6.37383 6.26123C6.18282 6.55914 5.99883 6.8615 5.82202 7.16805V7.16812ZM6.39021 11.7632C5.80064 11.6974 5.24475 11.6083 4.73133 11.4965C4.89023 10.9832 5.08605 10.4499 5.31478 9.90742C5.47754 10.2218 5.64768 10.5324 5.82504 10.8388C6.00743 11.1538 6.19629 11.4623 6.39021 11.7632ZM9.02988 13.945C8.66538 13.5518 8.30187 13.1168 7.94686 12.6489C8.29153 12.6624 8.64288 12.6693 9 12.6693C9.36689 12.6693 9.72956 12.6611 10.0865 12.6452C9.73603 13.1215 9.38215 13.5571 9.02988 13.945ZM12.7001 9.87972C12.9407 10.4282 13.1434 10.9587 13.3045 11.4632C12.7826 11.5823 12.2191 11.6782 11.6254 11.7494C11.8156 11.4478 11.9999 11.1424 12.178 10.8335C12.3591 10.5195 12.5331 10.2015 12.7001 9.87972ZM11.5119 10.4493C11.2393 10.923 10.9513 11.3876 10.6484 11.8426C10.0998 11.8814 9.54998 11.9007 9 11.9004C8.43982 11.9004 7.89497 11.883 7.3703 11.849C7.05953 11.3951 6.76605 10.9296 6.49048 10.4535H6.49055C6.21627 9.97999 5.96008 9.4962 5.72252 9.0032C5.95947 8.5101 6.21489 8.02607 6.48823 7.55217L6.48816 7.55224C6.76139 7.0782 7.05253 6.61472 7.36095 6.16279C7.89623 6.12229 8.44516 6.1012 8.99993 6.1012H9C9.5573 6.1012 10.1069 6.1225 10.6421 6.16328C10.9474 6.61454 11.2367 7.07643 11.5094 7.54809C11.7836 8.02095 12.0424 8.50261 12.2854 8.99231C12.0449 9.48701 11.7869 9.97299 11.5119 10.4493ZM13.0982 1.86248C13.7009 2.2101 13.9353 3.61192 13.5566 5.45024C13.5324 5.56752 13.5053 5.68699 13.4757 5.80813C12.7289 5.63573 11.918 5.50755 11.0689 5.42788C10.5744 4.72356 10.0619 4.08323 9.54738 3.52888C9.68222 3.39891 9.82026 3.27231 9.96138 3.1492C11.2903 1.99277 12.5323 1.53616 13.0982 1.86248ZM9 7.37751C9.8877 7.37751 10.6073 8.09716 10.6073 8.98485C10.6073 9.87255 9.8877 10.5922 9 10.5922C8.1123 10.5922 7.39266 9.87255 7.39266 8.98485C7.39266 8.09716 8.1123 7.37751 9 7.37751Z" fill="#00D8FF"/>
</svg>
