<svg width="81" height="36" viewBox="0 0 81 36" fill="none" xmlns="http://www.w3.org/2000/svg">
<g filter="url(#filter0_d)">
<path d="M2.5 3C2.5 1.34315 3.84315 0 5.5 0H75.5C77.1569 0 78.5 1.34315 78.5 3V29C78.5 30.6569 77.1569 32 75.5 32H5.5C3.84315 32 2.5 30.6569 2.5 29V3Z" fill="white"/>
<g clip-path="url(#clip0)">
<path d="M22.9712 19.3893C23.6353 19.3206 24.1391 18.7481 24.1162 18.0611C24.0933 17.3741 23.5208 16.8244 22.8338 16.8244H22.788C22.0781 16.8473 21.5285 17.4427 21.5514 18.1526C21.5743 18.4962 21.7117 18.7939 21.9178 19C21.1392 20.5344 19.9484 21.6565 18.1622 22.5954C16.9485 23.2366 15.689 23.4657 14.4296 23.3054C13.399 23.168 12.5975 22.71 12.0937 21.9542C11.3609 20.8321 11.2922 19.6183 11.9105 18.4046C12.3457 17.5343 13.0326 16.8931 13.4677 16.5725C13.3761 16.2748 13.2387 15.771 13.17 15.4046C9.8495 17.8092 10.193 21.0611 11.2006 22.5954C11.9563 23.7405 13.4906 24.4504 15.1852 24.4504C15.6432 24.4504 16.1012 24.4046 16.5592 24.2902C19.4904 23.7176 21.7117 21.9771 22.9712 19.3893ZM27.0016 16.5496C25.2612 14.5114 22.6964 13.3893 19.7652 13.3893H19.3988C19.1927 12.9771 18.7576 12.7023 18.2767 12.7023H18.2309C17.5211 12.7252 16.9715 13.3206 16.9943 14.0306C17.0173 14.7175 17.5897 15.2672 18.2767 15.2672H18.3225C18.8263 15.2443 19.2614 14.9237 19.4446 14.4885H19.8568C21.5972 14.4885 23.246 14.9923 24.7346 15.9771C25.8795 16.7328 26.7039 17.7176 27.1619 18.9084C27.5512 19.8702 27.5283 20.8092 27.1161 21.6107C26.4749 22.8244 25.3986 23.4886 23.9788 23.4886C23.0628 23.4886 22.1926 23.2137 21.7346 23.0076C21.4827 23.2366 21.0247 23.603 20.7041 23.8321C21.6888 24.2901 22.6964 24.542 23.6582 24.542C25.8566 24.542 27.4825 23.3282 28.1008 22.1145C28.7649 20.7862 28.7191 18.4962 27.0016 16.5496ZM15.3684 19.7786C15.3913 20.4656 15.9638 21.0152 16.6508 21.0152H16.6966C17.4065 20.9923 17.9561 20.3969 17.9332 19.687C17.9103 18.9999 17.3378 18.4503 16.6508 18.4503H16.605C16.5592 18.4503 16.4905 18.4503 16.4448 18.4732C15.5058 16.9159 15.1165 15.2214 15.254 13.3893C15.3455 12.0152 15.8035 10.8243 16.605 9.83958C17.2691 8.99225 18.5515 8.58004 19.4218 8.55719C21.8491 8.51136 22.8796 11.5342 22.9483 12.748C23.246 12.8167 23.7498 12.977 24.0933 13.0916C23.8185 9.38168 21.5285 7.45799 19.3302 7.45799C17.2691 7.45799 15.3684 8.94656 14.6127 11.145C13.5593 14.0763 14.2463 16.8931 15.5287 19.1145C15.4142 19.2748 15.3455 19.5267 15.3684 19.7786V19.7786Z" fill="#764ABC"/>
</g>
<path d="M40.6191 16.5488H38.6152V20H37.4844V11.4688H40.3086C41.2695 11.4688 42.0078 11.6875 42.5234 12.125C43.043 12.5625 43.3027 13.1992 43.3027 14.0352C43.3027 14.5664 43.1582 15.0293 42.8691 15.4238C42.584 15.8184 42.1855 16.1133 41.6738 16.3086L43.6777 19.9297V20H42.4707L40.6191 16.5488ZM38.6152 15.6289H40.3438C40.9023 15.6289 41.3457 15.4844 41.6738 15.1953C42.0059 14.9062 42.1719 14.5195 42.1719 14.0352C42.1719 13.5078 42.0137 13.1035 41.6973 12.8223C41.3848 12.541 40.9316 12.3984 40.3379 12.3945H38.6152V15.6289ZM47.3457 20.1172C46.4863 20.1172 45.7871 19.8359 45.248 19.2734C44.709 18.707 44.4395 17.9512 44.4395 17.0059V16.8066C44.4395 16.1777 44.5586 15.6172 44.7969 15.125C45.0391 14.6289 45.375 14.2422 45.8047 13.9648C46.2383 13.6836 46.707 13.543 47.2109 13.543C48.0352 13.543 48.6758 13.8145 49.1328 14.3574C49.5898 14.9004 49.8184 15.6777 49.8184 16.6895V17.1406H45.5234C45.5391 17.7656 45.7207 18.2715 46.0684 18.6582C46.4199 19.041 46.8652 19.2324 47.4043 19.2324C47.7871 19.2324 48.1113 19.1543 48.377 18.998C48.6426 18.8418 48.875 18.6348 49.0742 18.377L49.7363 18.8926C49.2051 19.709 48.4082 20.1172 47.3457 20.1172ZM47.2109 14.4336C46.7734 14.4336 46.4062 14.5938 46.1094 14.9141C45.8125 15.2305 45.6289 15.6758 45.5586 16.25H48.7344V16.168C48.7031 15.6172 48.5547 15.1914 48.2891 14.8906C48.0234 14.5859 47.6641 14.4336 47.2109 14.4336ZM50.8145 16.7773C50.8145 15.8047 51.0449 15.0234 51.5059 14.4336C51.9668 13.8398 52.5703 13.543 53.3164 13.543C54.0586 13.543 54.6465 13.7969 55.0801 14.3047V11H56.1641V20H55.168L55.1152 19.3203C54.6816 19.8516 54.0781 20.1172 53.3047 20.1172C52.5703 20.1172 51.9707 19.8164 51.5059 19.2148C51.0449 18.6133 50.8145 17.8281 50.8145 16.8594V16.7773ZM51.8984 16.9004C51.8984 17.6191 52.0469 18.1816 52.3438 18.5879C52.6406 18.9941 53.0508 19.1973 53.5742 19.1973C54.2617 19.1973 54.7637 18.8887 55.0801 18.2715V15.3594C54.7559 14.7617 54.2578 14.4629 53.5859 14.4629C53.0547 14.4629 52.6406 14.668 52.3438 15.0781C52.0469 15.4883 51.8984 16.0957 51.8984 16.9004ZM61.7656 19.373C61.3438 19.8691 60.7246 20.1172 59.9082 20.1172C59.2324 20.1172 58.7168 19.9219 58.3613 19.5312C58.0098 19.1367 57.832 18.5547 57.8281 17.7852V13.6602H58.9121V17.7559C58.9121 18.7168 59.3027 19.1973 60.084 19.1973C60.9121 19.1973 61.4629 18.8887 61.7363 18.2715V13.6602H62.8203V20H61.7891L61.7656 19.373ZM66.5996 15.9746L68.0059 13.6602H69.2715L67.1973 16.7949L69.3359 20H68.082L66.6172 17.627L65.1523 20H63.8926L66.0312 16.7949L63.957 13.6602H65.2109L66.5996 15.9746Z" fill="black"/>
</g>
<defs>
<filter id="filter0_d" x="0.5" y="0" width="80" height="36" filterUnits="userSpaceOnUse" color-interpolation-filters="sRGB">
<feFlood flood-opacity="0" result="BackgroundImageFix"/>
<feColorMatrix in="SourceAlpha" type="matrix" values="0 0 0 0 0 0 0 0 0 0 0 0 0 0 0 0 0 0 127 0" result="hardAlpha"/>
<feOffset dy="2"/>
<feGaussianBlur stdDeviation="1"/>
<feComposite in2="hardAlpha" operator="out"/>
<feColorMatrix type="matrix" values="0 0 0 0 0 0 0 0 0 0 0 0 0 0 0 0 0 0 0.25 0"/>
<feBlend mode="normal" in2="BackgroundImageFix" result="effect1_dropShadow"/>
<feBlend mode="normal" in="SourceGraphic" in2="effect1_dropShadow" result="shape"/>
</filter>
<clipPath id="clip0">
<rect width="18" height="18" fill="white" transform="translate(10.5 7)"/>
</clipPath>
</defs>
</svg>
