<svg width="110" height="47" viewBox="0 0 110 47" fill="none" xmlns="http://www.w3.org/2000/svg">
<rect x="1" y="1" width="108" height="45" rx="4" fill="#22272E"/>
<g clip-path="url(#clip0_28_4907)">
<path d="M28.4724 26.9222C29.1362 26.8532 29.6402 26.275 29.6177 25.5812C29.6065 25.2478 29.4667 24.9316 29.2277 24.6989C28.9886 24.4661 28.6688 24.3348 28.3352 24.3325H28.2887C27.5784 24.355 27.0287 24.9565 27.0512 25.6735C27.0752 26.0208 27.2124 26.3208 27.4187 26.5285C26.6394 28.0787 25.4484 29.2112 23.6612 30.1593C22.4477 30.8073 21.1877 31.0382 19.9284 30.8762C18.8972 30.7375 18.0954 30.2748 17.5914 29.512C16.8587 28.3795 16.7904 27.1533 17.4084 25.9278C17.8434 25.0495 18.5312 24.4015 18.9662 24.0782C18.8747 23.7775 18.7374 23.2682 18.6684 22.8985C15.3467 25.327 15.6909 28.6105 16.6974 30.16C17.4534 31.3165 18.9879 32.0335 20.6837 32.0335C21.1412 32.0335 21.5994 31.987 22.0577 31.8715C24.9902 31.294 27.2117 29.536 28.4717 26.923L28.4724 26.9222ZM32.5037 24.055C30.7629 21.997 28.1972 20.8637 25.2654 20.8637H24.8987C24.7942 20.6556 24.634 20.4805 24.4359 20.358C24.2378 20.2355 24.0096 20.1704 23.7767 20.17H23.7302C23.0207 20.1933 22.4702 20.7948 22.4934 21.5118C22.5159 22.2055 23.0889 22.7597 23.7759 22.7597H23.8224C24.0644 22.7472 24.2979 22.6669 24.4963 22.5279C24.6947 22.3889 24.85 22.1969 24.9444 21.9738H25.3569C27.0977 21.9738 28.7469 22.4822 30.2357 23.4767C31.3809 24.2402 32.2059 25.234 32.6634 26.437C33.0534 27.4075 33.0309 28.3555 32.6184 29.1655C31.9764 30.391 30.9002 31.0615 29.4797 31.0615C28.5639 31.0615 27.6932 30.784 27.2349 30.5755C26.9052 30.8696 26.5613 31.1475 26.2044 31.408C27.1892 31.8708 28.1972 32.125 29.1594 32.125C31.3584 32.125 32.9844 30.8995 33.6032 29.674C34.2669 28.333 34.2212 26.0208 32.5037 24.055ZM20.8674 27.3153C20.8899 28.009 21.4629 28.564 22.1499 28.564H22.1957C22.9059 28.5415 23.4557 27.94 23.4332 27.223C23.422 26.8895 23.2822 26.5734 23.0432 26.3406C22.8041 26.1079 22.4843 25.9766 22.1507 25.9742H22.1042C22.0584 25.9742 21.9894 25.9743 21.9437 25.9967C21.0047 24.4248 20.6154 22.714 20.7527 20.8637C20.8442 19.4762 21.3024 18.274 22.1042 17.2795C22.7687 16.4245 24.0512 16.0082 24.9219 15.985C27.3497 15.9385 28.3802 18.991 28.4492 20.2165C28.7469 20.2855 29.2509 20.4475 29.5944 20.563C29.3192 16.8175 27.0294 14.875 24.8297 14.875C22.7687 14.875 20.8674 16.378 20.1114 18.598C19.0577 21.5575 19.7447 24.4015 21.0279 26.6448C20.9132 26.8068 20.8442 27.061 20.8674 27.3153Z" fill="#ADBAC7"/>
</g>
<path d="M55.5 30H53.9375L52.0625 26.8594C51.8906 26.5677 51.724 26.3203 51.5625 26.1172C51.401 25.9089 51.2344 25.7396 51.0625 25.6094C50.8958 25.4792 50.7135 25.3854 50.5156 25.3281C50.3229 25.2656 50.1042 25.2344 49.8594 25.2344H48.7812V30H47.4688V18.7969H50.8125C51.3021 18.7969 51.7526 18.8594 52.1641 18.9844C52.5807 19.1042 52.9401 19.2891 53.2422 19.5391C53.5495 19.7891 53.7891 20.1016 53.9609 20.4766C54.1328 20.8464 54.2188 21.2812 54.2188 21.7812C54.2188 22.1719 54.1589 22.5312 54.0391 22.8594C53.9245 23.1823 53.7578 23.4714 53.5391 23.7266C53.3255 23.9818 53.0651 24.2005 52.7578 24.3828C52.4557 24.5599 52.1146 24.6979 51.7344 24.7969V24.8281C51.9219 24.9115 52.0833 25.0078 52.2188 25.1172C52.3594 25.2214 52.4922 25.3464 52.6172 25.4922C52.7422 25.638 52.8646 25.8047 52.9844 25.9922C53.1094 26.1745 53.2474 26.388 53.3984 26.6328L55.5 30ZM48.7812 19.9844V24.0469H50.5625C50.8906 24.0469 51.1927 23.9974 51.4688 23.8984C51.75 23.7995 51.9922 23.6589 52.1953 23.4766C52.3984 23.2891 52.5573 23.0625 52.6719 22.7969C52.7865 22.526 52.8438 22.224 52.8438 21.8906C52.8438 21.2917 52.6484 20.8255 52.2578 20.4922C51.8724 20.1536 51.3125 19.9844 50.5781 19.9844H48.7812ZM62.8359 26.3203H57.1875C57.2083 27.2109 57.4479 27.8984 57.9062 28.3828C58.3646 28.8672 58.9948 29.1094 59.7969 29.1094C60.6979 29.1094 61.526 28.8125 62.2812 28.2188V29.4219C61.5781 29.9323 60.6484 30.1875 59.4922 30.1875C58.362 30.1875 57.474 29.8255 56.8281 29.1016C56.1823 28.3724 55.8594 27.349 55.8594 26.0312C55.8594 24.7865 56.2109 23.7734 56.9141 22.9922C57.6224 22.2057 58.5 21.8125 59.5469 21.8125C60.5938 21.8125 61.4036 22.151 61.9766 22.8281C62.5495 23.5052 62.8359 24.4453 62.8359 25.6484V26.3203ZM61.5234 25.2344C61.5182 24.4948 61.3385 23.9193 60.9844 23.5078C60.6354 23.0964 60.1484 22.8906 59.5234 22.8906C58.9193 22.8906 58.4062 23.1068 57.9844 23.5391C57.5625 23.9714 57.3021 24.5365 57.2031 25.2344H61.5234ZM71.6094 30H70.3281V28.6406H70.2969C69.7031 29.6719 68.7865 30.1875 67.5469 30.1875C66.5417 30.1875 65.737 29.8307 65.1328 29.1172C64.5339 28.3984 64.2344 27.4219 64.2344 26.1875C64.2344 24.8646 64.5677 23.8047 65.2344 23.0078C65.901 22.2109 66.7891 21.8125 67.8984 21.8125C68.9974 21.8125 69.7969 22.2448 70.2969 23.1094H70.3281V18.1562H71.6094V30ZM70.3281 26.3828V25.2031C70.3281 24.5573 70.1146 24.0104 69.6875 23.5625C69.2604 23.1146 68.7188 22.8906 68.0625 22.8906C67.2812 22.8906 66.6667 23.1771 66.2188 23.75C65.7708 24.3229 65.5469 25.1146 65.5469 26.125C65.5469 27.0469 65.7604 27.776 66.1875 28.3125C66.6198 28.8438 67.1979 29.1094 67.9219 29.1094C68.6354 29.1094 69.2135 28.8516 69.6562 28.3359C70.1042 27.8203 70.3281 27.1693 70.3281 26.3828ZM80.6719 30H79.3906V28.7344H79.3594C78.8281 29.7031 78.0052 30.1875 76.8906 30.1875C74.9844 30.1875 74.0312 29.0521 74.0312 26.7812V22H75.3047V26.5781C75.3047 28.2656 75.9505 29.1094 77.2422 29.1094C77.8672 29.1094 78.3802 28.8802 78.7812 28.4219C79.1875 27.9583 79.3906 27.3542 79.3906 26.6094V22H80.6719V30ZM89.1094 22L86.4219 26.0469L89.0625 30H87.5703L86 27.4062C85.901 27.2448 85.7839 27.0417 85.6484 26.7969H85.6172C85.5911 26.8438 85.4688 27.0469 85.25 27.4062L83.6484 30H82.1719L84.8984 26.0781L82.2891 22H83.7812L85.3281 24.7344C85.4427 24.9375 85.5547 25.1458 85.6641 25.3594H85.6953L87.6953 22H89.1094Z" fill="#ADBAC7"/>
<rect x="1" y="1" width="108" height="45" rx="4" stroke="#444C56" stroke-width="2"/>
<defs>
<clipPath id="clip0_28_4907">
<rect width="18" height="18" fill="white" transform="translate(16 14.5)"/>
</clipPath>
</defs>
</svg>
