<svg width="72" height="28" viewBox="0 0 72 28" fill="none" xmlns="http://www.w3.org/2000/svg">
<g filter="url(#filter0_d)">
<path d="M2.5 5C2.5 2.23858 4.73858 0 7.5 0H64.5C67.2614 0 69.5 2.23858 69.5 5V19C69.5 21.7614 67.2614 24 64.5 24H7.5C4.73858 24 2.5 21.7614 2.5 19V5Z" fill="white"/>
<g clip-path="url(#clip0)">
<path d="M19.9712 15.3893C20.6353 15.3206 21.1391 14.7481 21.1162 14.0611C21.0933 13.3741 20.5208 12.8244 19.8338 12.8244H19.788C19.0781 12.8473 18.5285 13.4427 18.5514 14.1526C18.5743 14.4962 18.7117 14.7939 18.9178 15C18.1392 16.5344 16.9484 17.6565 15.1622 18.5954C13.9485 19.2366 12.689 19.4657 11.4296 19.3054C10.399 19.168 9.59753 18.71 9.09366 17.9542C8.36091 16.8321 8.29223 15.6183 8.91054 14.4046C9.34567 13.5343 10.0326 12.8931 10.4677 12.5725C10.3761 12.2748 10.2387 11.771 10.17 11.4046C6.8495 13.8092 7.19303 17.0611 8.20064 18.5954C8.95631 19.7405 10.4906 20.4504 12.1852 20.4504C12.6432 20.4504 13.1012 20.4046 13.5592 20.2902C16.4904 19.7176 18.7117 17.9771 19.9712 15.3893V15.3893ZM24.0016 12.5496C22.2612 10.5114 19.6964 9.38933 16.7652 9.38933H16.3988C16.1927 8.97712 15.7576 8.70227 15.2767 8.70227H15.2309C14.5211 8.72518 13.9715 9.32058 13.9943 10.0306C14.0173 10.7175 14.5897 11.2672 15.2767 11.2672H15.3225C15.8263 11.2443 16.2614 10.9237 16.4446 10.4885H16.8568C18.5972 10.4885 20.246 10.9923 21.7346 11.9771C22.8795 12.7328 23.7039 13.7176 24.1619 14.9084C24.5512 15.8702 24.5283 16.8092 24.1161 17.6107C23.4749 18.8244 22.3986 19.4886 20.9788 19.4886C20.0628 19.4886 19.1926 19.2137 18.7346 19.0076C18.4827 19.2366 18.0247 19.603 17.7041 19.8321C18.6888 20.2901 19.6964 20.542 20.6582 20.542C22.8566 20.542 24.4825 19.3282 25.1008 18.1145C25.7649 16.7862 25.7191 14.4962 24.0016 12.5496V12.5496ZM12.3684 15.7786C12.3913 16.4656 12.9638 17.0152 13.6508 17.0152H13.6966C14.4065 16.9923 14.9561 16.3969 14.9332 15.687C14.9103 14.9999 14.3378 14.4503 13.6508 14.4503H13.605C13.5592 14.4503 13.4905 14.4503 13.4448 14.4732C12.5058 12.9159 12.1165 11.2214 12.254 9.38926C12.3455 8.0152 12.8035 6.82434 13.605 5.83958C14.2691 4.99225 15.5515 4.58004 16.4218 4.55719C18.8491 4.51136 19.8796 7.53425 19.9483 8.74803C20.246 8.81671 20.7498 8.97705 21.0933 9.09156C20.8185 5.38168 18.5285 3.45799 16.3302 3.45799C14.2691 3.45799 12.3684 4.94656 11.6127 7.14503C10.5593 10.0763 11.2463 12.8931 12.5287 15.1145C12.4142 15.2748 12.3455 15.5267 12.3684 15.7786V15.7786Z" fill="#764ABC"/>
</g>
<path d="M34.6191 12.5488H32.6152V16H31.4844V7.46875H34.3086C35.2695 7.46875 36.0078 7.6875 36.5234 8.125C37.043 8.5625 37.3027 9.19922 37.3027 10.0352C37.3027 10.5664 37.1582 11.0293 36.8691 11.4238C36.584 11.8184 36.1855 12.1133 35.6738 12.3086L37.6777 15.9297V16H36.4707L34.6191 12.5488ZM32.6152 11.6289H34.3438C34.9023 11.6289 35.3457 11.4844 35.6738 11.1953C36.0059 10.9062 36.1719 10.5195 36.1719 10.0352C36.1719 9.50781 36.0137 9.10352 35.6973 8.82227C35.3848 8.54102 34.9316 8.39844 34.3379 8.39453H32.6152V11.6289ZM41.3457 16.1172C40.4863 16.1172 39.7871 15.8359 39.248 15.2734C38.709 14.707 38.4395 13.9512 38.4395 13.0059V12.8066C38.4395 12.1777 38.5586 11.6172 38.7969 11.125C39.0391 10.6289 39.375 10.2422 39.8047 9.96484C40.2383 9.68359 40.707 9.54297 41.2109 9.54297C42.0352 9.54297 42.6758 9.81445 43.1328 10.3574C43.5898 10.9004 43.8184 11.6777 43.8184 12.6895V13.1406H39.5234C39.5391 13.7656 39.7207 14.2715 40.0684 14.6582C40.4199 15.041 40.8652 15.2324 41.4043 15.2324C41.7871 15.2324 42.1113 15.1543 42.377 14.998C42.6426 14.8418 42.875 14.6348 43.0742 14.377L43.7363 14.8926C43.2051 15.709 42.4082 16.1172 41.3457 16.1172ZM41.2109 10.4336C40.7734 10.4336 40.4062 10.5938 40.1094 10.9141C39.8125 11.2305 39.6289 11.6758 39.5586 12.25H42.7344V12.168C42.7031 11.6172 42.5547 11.1914 42.2891 10.8906C42.0234 10.5859 41.6641 10.4336 41.2109 10.4336ZM44.8145 12.7773C44.8145 11.8047 45.0449 11.0234 45.5059 10.4336C45.9668 9.83984 46.5703 9.54297 47.3164 9.54297C48.0586 9.54297 48.6465 9.79688 49.0801 10.3047V7H50.1641V16H49.168L49.1152 15.3203C48.6816 15.8516 48.0781 16.1172 47.3047 16.1172C46.5703 16.1172 45.9707 15.8164 45.5059 15.2148C45.0449 14.6133 44.8145 13.8281 44.8145 12.8594V12.7773ZM45.8984 12.9004C45.8984 13.6191 46.0469 14.1816 46.3438 14.5879C46.6406 14.9941 47.0508 15.1973 47.5742 15.1973C48.2617 15.1973 48.7637 14.8887 49.0801 14.2715V11.3594C48.7559 10.7617 48.2578 10.4629 47.5859 10.4629C47.0547 10.4629 46.6406 10.668 46.3438 11.0781C46.0469 11.4883 45.8984 12.0957 45.8984 12.9004ZM55.7656 15.373C55.3438 15.8691 54.7246 16.1172 53.9082 16.1172C53.2324 16.1172 52.7168 15.9219 52.3613 15.5312C52.0098 15.1367 51.832 14.5547 51.8281 13.7852V9.66016H52.9121V13.7559C52.9121 14.7168 53.3027 15.1973 54.084 15.1973C54.9121 15.1973 55.4629 14.8887 55.7363 14.2715V9.66016H56.8203V16H55.7891L55.7656 15.373ZM60.5996 11.9746L62.0059 9.66016H63.2715L61.1973 12.7949L63.3359 16H62.082L60.6172 13.627L59.1523 16H57.8926L60.0312 12.7949L57.957 9.66016H59.2109L60.5996 11.9746Z" fill="black"/>
</g>
<defs>
<filter id="filter0_d" x="0.5" y="0" width="71" height="28" filterUnits="userSpaceOnUse" color-interpolation-filters="sRGB">
<feFlood flood-opacity="0" result="BackgroundImageFix"/>
<feColorMatrix in="SourceAlpha" type="matrix" values="0 0 0 0 0 0 0 0 0 0 0 0 0 0 0 0 0 0 127 0" result="hardAlpha"/>
<feOffset dy="2"/>
<feGaussianBlur stdDeviation="1"/>
<feComposite in2="hardAlpha" operator="out"/>
<feColorMatrix type="matrix" values="0 0 0 0 0 0 0 0 0 0 0 0 0 0 0 0 0 0 0.25 0"/>
<feBlend mode="normal" in2="BackgroundImageFix" result="effect1_dropShadow"/>
<feBlend mode="normal" in="SourceGraphic" in2="effect1_dropShadow" result="shape"/>
</filter>
<clipPath id="clip0">
<rect width="18" height="18" fill="white" transform="translate(7.5 3)"/>
</clipPath>
</defs>
</svg>
