<svg width="90" height="39" viewBox="0 0 90 39" fill="none" xmlns="http://www.w3.org/2000/svg">
<path d="M1 4C1 2.34315 2.34315 1 4 1H86C87.6569 1 89 2.34315 89 4V35C89 36.6569 87.6569 38 86 38H4C2.34315 38 1 36.6569 1 35V4Z" fill="#22272E"/>
<g clip-path="url(#clip0)">
<path d="M23.4725 22.9222C24.1363 22.8532 24.6403 22.275 24.6178 21.5812C24.6065 21.2478 24.4668 20.9316 24.2277 20.6989C23.9887 20.4661 23.6689 20.3348 23.3353 20.3325H23.2888C22.5785 20.355 22.0288 20.9565 22.0513 21.6735C22.0753 22.0207 22.2125 22.3208 22.4188 22.5285C21.6395 24.0788 20.4485 25.2112 18.6613 26.1592C17.4478 26.8072 16.1878 27.0382 14.9285 26.8762C13.8973 26.7375 13.0955 26.2748 12.5915 25.512C11.8588 24.3795 11.7905 23.1533 12.4085 21.9278C12.8435 21.0495 13.5313 20.4015 13.9663 20.0782C13.8748 19.7775 13.7375 19.2682 13.6685 18.8985C10.3468 21.327 10.691 24.6105 11.6975 26.16C12.4535 27.3165 13.988 28.0335 15.6838 28.0335C16.1413 28.0335 16.5995 27.987 17.0578 27.8715C19.9903 27.294 22.2118 25.536 23.4718 22.923L23.4725 22.9222ZM27.5038 20.055C25.763 17.997 23.1973 16.8637 20.2655 16.8637H19.8988C19.7943 16.6556 19.6341 16.4805 19.436 16.358C19.2379 16.2355 19.0097 16.1704 18.7768 16.17H18.7303C18.0208 16.1932 17.4703 16.7948 17.4935 17.5117C17.516 18.2055 18.089 18.7597 18.776 18.7597H18.8225C19.0644 18.7472 19.298 18.6669 19.4964 18.5279C19.6948 18.3889 19.8501 18.1969 19.9445 17.9738H20.357C22.0978 17.9738 23.747 18.4822 25.2358 19.4767C26.381 20.2402 27.206 21.234 27.6635 22.437C28.0535 23.4075 28.031 24.3555 27.6185 25.1655C26.9765 26.391 25.9003 27.0615 24.4798 27.0615C23.564 27.0615 22.6933 26.784 22.235 26.5755C21.9053 26.8696 21.5614 27.1475 21.2045 27.408C22.1893 27.8708 23.1973 28.125 24.1595 28.125C26.3585 28.125 27.9845 26.8995 28.6033 25.674C29.267 24.333 29.2213 22.0207 27.5038 20.055ZM15.8675 23.3152C15.89 24.009 16.463 24.564 17.15 24.564H17.1958C17.906 24.5415 18.4558 23.94 18.4333 23.223C18.422 22.8895 18.2823 22.5734 18.0432 22.3406C17.8042 22.1079 17.4844 21.9766 17.1508 21.9742H17.1043C17.0585 21.9742 16.9895 21.9743 16.9438 21.9968C16.0048 20.4248 15.6155 18.714 15.7528 16.8637C15.8443 15.4762 16.3025 14.274 17.1043 13.2795C17.7688 12.4245 19.0513 12.0083 19.922 11.985C22.3498 11.9385 23.3803 14.991 23.4493 16.2165C23.747 16.2855 24.251 16.4475 24.5945 16.563C24.3193 12.8175 22.0295 10.875 19.8298 10.875C17.7688 10.875 15.8675 12.378 15.1115 14.598C14.0578 17.5575 14.7448 20.4015 16.028 22.6448C15.9133 22.8068 15.8443 23.061 15.8675 23.3152V23.3152Z" fill="#ADBAC7"/>
</g>
<path d="M49.3125 25H47.9453L46.3047 22.252C46.1543 21.9967 46.0085 21.7803 45.8672 21.6025C45.7259 21.4202 45.5801 21.2721 45.4297 21.1582C45.2839 21.0443 45.1243 20.9622 44.9512 20.9121C44.7826 20.8574 44.5911 20.8301 44.377 20.8301H43.4336V25H42.2852V15.1973H45.2109C45.6393 15.1973 46.0335 15.252 46.3936 15.3613C46.7581 15.4661 47.0726 15.6279 47.3369 15.8467C47.6058 16.0654 47.8154 16.3389 47.9658 16.667C48.1162 16.9906 48.1914 17.3711 48.1914 17.8086C48.1914 18.1504 48.139 18.4648 48.0342 18.752C47.9339 19.0345 47.7881 19.2874 47.5967 19.5107C47.4098 19.734 47.182 19.9255 46.9131 20.085C46.6488 20.2399 46.3503 20.3607 46.0176 20.4473V20.4746C46.1816 20.5475 46.3229 20.6318 46.4414 20.7275C46.5645 20.8187 46.6807 20.9281 46.79 21.0557C46.8994 21.1833 47.0065 21.3291 47.1113 21.4932C47.2207 21.6527 47.3415 21.8395 47.4736 22.0537L49.3125 25ZM43.4336 16.2363V19.791H44.9922C45.2793 19.791 45.5436 19.7477 45.7852 19.6611C46.0312 19.5745 46.2432 19.4515 46.4209 19.292C46.5986 19.1279 46.7376 18.9297 46.8379 18.6973C46.9382 18.4603 46.9883 18.196 46.9883 17.9043C46.9883 17.3802 46.8174 16.9723 46.4756 16.6807C46.1383 16.3844 45.6484 16.2363 45.0059 16.2363H43.4336ZM55.7451 21.7803H50.8027C50.821 22.5596 51.0306 23.1611 51.4316 23.585C51.8327 24.0088 52.3841 24.2207 53.0859 24.2207C53.8743 24.2207 54.599 23.9609 55.2598 23.4414V24.4941C54.6445 24.9408 53.8311 25.1641 52.8193 25.1641C51.8304 25.1641 51.0534 24.8473 50.4883 24.2139C49.9232 23.5758 49.6406 22.6803 49.6406 21.5273C49.6406 20.4382 49.9482 19.5518 50.5635 18.8682C51.1833 18.18 51.9512 17.8359 52.8672 17.8359C53.7832 17.8359 54.4919 18.1322 54.9932 18.7246C55.4945 19.3171 55.7451 20.1396 55.7451 21.1924V21.7803ZM54.5967 20.8301C54.5921 20.1829 54.4349 19.6794 54.125 19.3193C53.8197 18.9593 53.3936 18.7793 52.8467 18.7793C52.318 18.7793 51.8691 18.9684 51.5 19.3467C51.1309 19.7249 50.903 20.2194 50.8164 20.8301H54.5967ZM63.4219 25H62.3008V23.8105H62.2734C61.7539 24.7129 60.9518 25.1641 59.8672 25.1641C58.9876 25.1641 58.2835 24.8519 57.7549 24.2275C57.2308 23.5986 56.9688 22.7441 56.9688 21.6641C56.9688 20.5065 57.2604 19.5791 57.8438 18.8818C58.4271 18.1846 59.2041 17.8359 60.1748 17.8359C61.1364 17.8359 61.8359 18.2142 62.2734 18.9707H62.3008V14.6367H63.4219V25ZM62.3008 21.835V20.8027C62.3008 20.2376 62.1139 19.7591 61.7402 19.3672C61.3665 18.9753 60.8926 18.7793 60.3184 18.7793C59.6348 18.7793 59.097 19.0299 58.7051 19.5312C58.3132 20.0326 58.1172 20.7253 58.1172 21.6094C58.1172 22.416 58.304 23.054 58.6777 23.5234C59.056 23.9883 59.5618 24.2207 60.1953 24.2207C60.8197 24.2207 61.3255 23.9951 61.7129 23.5439C62.1048 23.0928 62.3008 22.5231 62.3008 21.835ZM71.3516 25H70.2305V23.8926H70.2031C69.7383 24.7402 69.0182 25.1641 68.043 25.1641C66.375 25.1641 65.541 24.1706 65.541 22.1836V18H66.6553V22.0059C66.6553 23.4824 67.2204 24.2207 68.3506 24.2207C68.8975 24.2207 69.3464 24.0202 69.6973 23.6191C70.0527 23.2135 70.2305 22.6849 70.2305 22.0332V18H71.3516V25ZM78.7344 18L76.3828 21.541L78.6934 25H77.3877L76.0137 22.7305C75.9271 22.5892 75.8245 22.4115 75.7061 22.1973H75.6787C75.6559 22.2383 75.5488 22.416 75.3574 22.7305L73.9561 25H72.6641L75.0498 21.5684L72.7666 18H74.0723L75.4258 20.3926C75.526 20.5703 75.624 20.7526 75.7197 20.9395H75.7471L77.4971 18H78.7344Z" fill="#ADBAC7"/>
<path d="M4 2H86V0H4V2ZM88 4V35H90V4H88ZM86 37H4V39H86V37ZM2 35V4H0V35H2ZM4 37C2.89543 37 2 36.1046 2 35H0C0 37.2091 1.79086 39 4 39V37ZM88 35C88 36.1046 87.1046 37 86 37V39C88.2091 39 90 37.2091 90 35H88ZM86 2C87.1046 2 88 2.89543 88 4H90C90 1.79086 88.2091 0 86 0V2ZM4 0C1.79086 0 0 1.79086 0 4H2C2 2.89543 2.89543 2 4 2V0Z" fill="#ADBCA7"/>
<defs>
<clipPath id="clip0">
<rect width="18" height="18" fill="white" transform="translate(11 10.5)"/>
</clipPath>
</defs>
</svg>
