<svg width="79" height="34" viewBox="0 0 79 34" fill="none" xmlns="http://www.w3.org/2000/svg">
<path d="M1.5 4C1.5 2.34315 2.84315 1 4.5 1H74.5C76.1569 1 77.5 2.34315 77.5 4V30C77.5 31.6569 76.1569 33 74.5 33H4.5C2.84315 33 1.5 31.6569 1.5 30V4Z" fill="#C9D1D9"/>
<g clip-path="url(#clip0)">
<path d="M21.9712 20.3893C22.6353 20.3206 23.1391 19.7481 23.1162 19.0611C23.0933 18.3741 22.5208 17.8244 21.8338 17.8244H21.788C21.0781 17.8473 20.5285 18.4427 20.5514 19.1526C20.5743 19.4962 20.7117 19.7939 20.9178 20C20.1392 21.5344 18.9484 22.6565 17.1622 23.5954C15.9485 24.2366 14.689 24.4657 13.4296 24.3054C12.399 24.168 11.5975 23.71 11.0937 22.9542C10.3609 21.8321 10.2922 20.6183 10.9105 19.4046C11.3457 18.5343 12.0326 17.8931 12.4677 17.5725C12.3761 17.2748 12.2387 16.771 12.17 16.4046C8.8495 18.8092 9.19303 22.0611 10.2006 23.5954C10.9563 24.7405 12.4906 25.4504 14.1852 25.4504C14.6432 25.4504 15.1012 25.4046 15.5592 25.2902C18.4904 24.7176 20.7117 22.9771 21.9712 20.3893ZM26.0016 17.5496C24.2612 15.5114 21.6964 14.3893 18.7652 14.3893H18.3988C18.1927 13.9771 17.7576 13.7023 17.2767 13.7023H17.2309C16.5211 13.7252 15.9715 14.3206 15.9943 15.0306C16.0173 15.7175 16.5897 16.2672 17.2767 16.2672H17.3225C17.8263 16.2443 18.2614 15.9237 18.4446 15.4885H18.8568C20.5972 15.4885 22.246 15.9923 23.7346 16.9771C24.8795 17.7328 25.7039 18.7176 26.1619 19.9084C26.5512 20.8702 26.5283 21.8092 26.1161 22.6107C25.4749 23.8244 24.3986 24.4886 22.9788 24.4886C22.0628 24.4886 21.1926 24.2137 20.7346 24.0076C20.4827 24.2366 20.0247 24.603 19.7041 24.8321C20.6888 25.2901 21.6964 25.542 22.6582 25.542C24.8566 25.542 26.4825 24.3282 27.1008 23.1145C27.7649 21.7862 27.7191 19.4962 26.0016 17.5496ZM14.3684 20.7786C14.3913 21.4656 14.9638 22.0152 15.6508 22.0152H15.6966C16.4065 21.9923 16.9561 21.3969 16.9332 20.687C16.9103 19.9999 16.3378 19.4503 15.6508 19.4503H15.605C15.5592 19.4503 15.4905 19.4503 15.4448 19.4732C14.5058 17.9159 14.1165 16.2214 14.254 14.3893C14.3455 13.0152 14.8035 11.8243 15.605 10.8396C16.2691 9.99225 17.5515 9.58004 18.4218 9.55719C20.8491 9.51136 21.8796 12.5342 21.9483 13.748C22.246 13.8167 22.7498 13.977 23.0933 14.0916C22.8185 10.3817 20.5285 8.45799 18.3302 8.45799C16.2691 8.45799 14.3684 9.94656 13.6127 12.145C12.5593 15.0763 13.2463 17.8931 14.5287 20.1145C14.4142 20.2748 14.3455 20.5267 14.3684 20.7786V20.7786Z" fill="#764ABC"/>
</g>
<path d="M39.6191 17.5488H37.6152V21H36.4844V12.4688H39.3086C40.2695 12.4688 41.0078 12.6875 41.5234 13.125C42.043 13.5625 42.3027 14.1992 42.3027 15.0352C42.3027 15.5664 42.1582 16.0293 41.8691 16.4238C41.584 16.8184 41.1855 17.1133 40.6738 17.3086L42.6777 20.9297V21H41.4707L39.6191 17.5488ZM37.6152 16.6289H39.3438C39.9023 16.6289 40.3457 16.4844 40.6738 16.1953C41.0059 15.9062 41.1719 15.5195 41.1719 15.0352C41.1719 14.5078 41.0137 14.1035 40.6973 13.8223C40.3848 13.541 39.9316 13.3984 39.3379 13.3945H37.6152V16.6289ZM46.3457 21.1172C45.4863 21.1172 44.7871 20.8359 44.248 20.2734C43.709 19.707 43.4395 18.9512 43.4395 18.0059V17.8066C43.4395 17.1777 43.5586 16.6172 43.7969 16.125C44.0391 15.6289 44.375 15.2422 44.8047 14.9648C45.2383 14.6836 45.707 14.543 46.2109 14.543C47.0352 14.543 47.6758 14.8145 48.1328 15.3574C48.5898 15.9004 48.8184 16.6777 48.8184 17.6895V18.1406H44.5234C44.5391 18.7656 44.7207 19.2715 45.0684 19.6582C45.4199 20.041 45.8652 20.2324 46.4043 20.2324C46.7871 20.2324 47.1113 20.1543 47.377 19.998C47.6426 19.8418 47.875 19.6348 48.0742 19.377L48.7363 19.8926C48.2051 20.709 47.4082 21.1172 46.3457 21.1172ZM46.2109 15.4336C45.7734 15.4336 45.4062 15.5938 45.1094 15.9141C44.8125 16.2305 44.6289 16.6758 44.5586 17.25H47.7344V17.168C47.7031 16.6172 47.5547 16.1914 47.2891 15.8906C47.0234 15.5859 46.6641 15.4336 46.2109 15.4336ZM49.8145 17.7773C49.8145 16.8047 50.0449 16.0234 50.5059 15.4336C50.9668 14.8398 51.5703 14.543 52.3164 14.543C53.0586 14.543 53.6465 14.7969 54.0801 15.3047V12H55.1641V21H54.168L54.1152 20.3203C53.6816 20.8516 53.0781 21.1172 52.3047 21.1172C51.5703 21.1172 50.9707 20.8164 50.5059 20.2148C50.0449 19.6133 49.8145 18.8281 49.8145 17.8594V17.7773ZM50.8984 17.9004C50.8984 18.6191 51.0469 19.1816 51.3438 19.5879C51.6406 19.9941 52.0508 20.1973 52.5742 20.1973C53.2617 20.1973 53.7637 19.8887 54.0801 19.2715V16.3594C53.7559 15.7617 53.2578 15.4629 52.5859 15.4629C52.0547 15.4629 51.6406 15.668 51.3438 16.0781C51.0469 16.4883 50.8984 17.0957 50.8984 17.9004ZM60.7656 20.373C60.3438 20.8691 59.7246 21.1172 58.9082 21.1172C58.2324 21.1172 57.7168 20.9219 57.3613 20.5312C57.0098 20.1367 56.832 19.5547 56.8281 18.7852V14.6602H57.9121V18.7559C57.9121 19.7168 58.3027 20.1973 59.084 20.1973C59.9121 20.1973 60.4629 19.8887 60.7363 19.2715V14.6602H61.8203V21H60.7891L60.7656 20.373ZM65.5996 16.9746L67.0059 14.6602H68.2715L66.1973 17.7949L68.3359 21H67.082L65.6172 18.627L64.1523 21H62.8926L65.0312 17.7949L62.957 14.6602H64.2109L65.5996 16.9746Z" fill="#22272E"/>
<path d="M4.5 2H74.5V0H4.5V2ZM76.5 4V30H78.5V4H76.5ZM74.5 32H4.5V34H74.5V32ZM2.5 30V4H0.5V30H2.5ZM4.5 32C3.39543 32 2.5 31.1046 2.5 30H0.5C0.5 32.2091 2.29086 34 4.5 34V32ZM76.5 30C76.5 31.1046 75.6046 32 74.5 32V34C76.7091 34 78.5 32.2091 78.5 30H76.5ZM74.5 2C75.6046 2 76.5 2.89543 76.5 4H78.5C78.5 1.79086 76.7091 0 74.5 0V2ZM4.5 0C2.29086 0 0.5 1.79086 0.5 4H2.5C2.5 2.89543 3.39543 2 4.5 2V0Z" fill="#30363D"/>
<defs>
<clipPath id="clip0">
<rect width="18" height="18" fill="white" transform="translate(9.5 8)"/>
</clipPath>
</defs>
</svg>
