<svg width="108" height="45" viewBox="0 0 108 45" fill="none" xmlns="http://www.w3.org/2000/svg">
<path d="M1 4C1 2.34314 2.34315 1 4 1H104C105.657 1 107 2.34315 107 4V41C107 42.6569 105.657 44 104 44H4C2.34315 44 1 42.6569 1 41V4Z" fill="#22272E"/>
<g clip-path="url(#clip0)">
<path d="M27.4725 25.9222C28.1363 25.8532 28.6403 25.275 28.6178 24.5812C28.6065 24.2478 28.4668 23.9316 28.2277 23.6989C27.9887 23.4661 27.6689 23.3348 27.3353 23.3325H27.2888C26.5785 23.355 26.0288 23.9565 26.0513 24.6735C26.0753 25.0207 26.2125 25.3208 26.4188 25.5285C25.6395 27.0788 24.4485 28.2112 22.6613 29.1592C21.4478 29.8072 20.1878 30.0382 18.9285 29.8762C17.8973 29.7375 17.0955 29.2748 16.5915 28.512C15.8588 27.3795 15.7905 26.1533 16.4085 24.9278C16.8435 24.0495 17.5313 23.4015 17.9663 23.0782C17.8748 22.7775 17.7375 22.2682 17.6685 21.8985C14.3468 24.327 14.691 27.6105 15.6975 29.16C16.4535 30.3165 17.988 31.0335 19.6838 31.0335C20.1413 31.0335 20.5995 30.987 21.0578 30.8715C23.9903 30.294 26.2118 28.536 27.4718 25.923L27.4725 25.9222ZM31.5038 23.055C29.763 20.997 27.1973 19.8637 24.2655 19.8637H23.8988C23.7943 19.6556 23.6341 19.4805 23.436 19.358C23.2379 19.2355 23.0097 19.1704 22.7768 19.17H22.7303C22.0208 19.1932 21.4703 19.7948 21.4935 20.5117C21.516 21.2055 22.089 21.7597 22.776 21.7597H22.8225C23.0644 21.7472 23.298 21.6669 23.4964 21.5279C23.6948 21.3889 23.8501 21.1969 23.9445 20.9738H24.357C26.0978 20.9738 27.747 21.4822 29.2358 22.4767C30.381 23.2402 31.206 24.234 31.6635 25.437C32.0535 26.4075 32.031 27.3555 31.6185 28.1655C30.9765 29.391 29.9003 30.0615 28.4798 30.0615C27.564 30.0615 26.6933 29.784 26.235 29.5755C25.9053 29.8696 25.5614 30.1475 25.2045 30.408C26.1893 30.8708 27.1973 31.125 28.1595 31.125C30.3585 31.125 31.9845 29.8995 32.6033 28.674C33.267 27.333 33.2213 25.0207 31.5038 23.055ZM19.8675 26.3152C19.89 27.009 20.463 27.564 21.15 27.564H21.1958C21.906 27.5415 22.4558 26.94 22.4333 26.223C22.422 25.8895 22.2823 25.5734 22.0432 25.3406C21.8042 25.1079 21.4844 24.9766 21.1508 24.9742H21.1043C21.0585 24.9742 20.9895 24.9743 20.9438 24.9968C20.0048 23.4248 19.6155 21.714 19.7528 19.8637C19.8443 18.4762 20.3025 17.274 21.1043 16.2795C21.7688 15.4245 23.0513 15.0083 23.922 14.985C26.3498 14.9385 27.3803 17.991 27.4493 19.2165C27.747 19.2855 28.251 19.4475 28.5945 19.563C28.3193 15.8175 26.0295 13.875 23.8298 13.875C21.7688 13.875 19.8675 15.378 19.1115 17.598C18.0578 20.5575 18.7448 23.4015 20.028 25.6448C19.9133 25.8068 19.8443 26.061 19.8675 26.3152V26.3152Z" fill="#ADBAC7"/>
</g>
<path d="M54.5 29H52.9375L51.0625 25.8594C50.8906 25.5677 50.724 25.3203 50.5625 25.1172C50.401 24.9089 50.2344 24.7396 50.0625 24.6094C49.8958 24.4792 49.7135 24.3854 49.5156 24.3281C49.3229 24.2656 49.1042 24.2344 48.8594 24.2344H47.7812V29H46.4688V17.7969H49.8125C50.3021 17.7969 50.7526 17.8594 51.1641 17.9844C51.5807 18.1042 51.9401 18.2891 52.2422 18.5391C52.5495 18.7891 52.7891 19.1016 52.9609 19.4766C53.1328 19.8464 53.2188 20.2812 53.2188 20.7812C53.2188 21.1719 53.1589 21.5312 53.0391 21.8594C52.9245 22.1823 52.7578 22.4714 52.5391 22.7266C52.3255 22.9818 52.0651 23.2005 51.7578 23.3828C51.4557 23.5599 51.1146 23.6979 50.7344 23.7969V23.8281C50.9219 23.9115 51.0833 24.0078 51.2188 24.1172C51.3594 24.2214 51.4922 24.3464 51.6172 24.4922C51.7422 24.638 51.8646 24.8047 51.9844 24.9922C52.1094 25.1745 52.2474 25.388 52.3984 25.6328L54.5 29ZM47.7812 18.9844V23.0469H49.5625C49.8906 23.0469 50.1927 22.9974 50.4688 22.8984C50.75 22.7995 50.9922 22.6589 51.1953 22.4766C51.3984 22.2891 51.5573 22.0625 51.6719 21.7969C51.7865 21.526 51.8438 21.224 51.8438 20.8906C51.8438 20.2917 51.6484 19.8255 51.2578 19.4922C50.8724 19.1536 50.3125 18.9844 49.5781 18.9844H47.7812ZM61.8516 25.3203H56.2031C56.224 26.2109 56.4635 26.8984 56.9219 27.3828C57.3802 27.8672 58.0104 28.1094 58.8125 28.1094C59.7135 28.1094 60.5417 27.8125 61.2969 27.2188V28.4219C60.5938 28.9323 59.6641 29.1875 58.5078 29.1875C57.3776 29.1875 56.4896 28.8255 55.8438 28.1016C55.1979 27.3724 54.875 26.349 54.875 25.0312C54.875 23.7865 55.2266 22.7734 55.9297 21.9922C56.638 21.2057 57.5156 20.8125 58.5625 20.8125C59.6094 20.8125 60.4193 21.151 60.9922 21.8281C61.5651 22.5052 61.8516 23.4453 61.8516 24.6484V25.3203ZM60.5391 24.2344C60.5339 23.4948 60.3542 22.9193 60 22.5078C59.651 22.0964 59.1641 21.8906 58.5391 21.8906C57.9349 21.8906 57.4219 22.1068 57 22.5391C56.5781 22.9714 56.3177 23.5365 56.2188 24.2344H60.5391ZM70.625 29H69.3438V27.6406H69.3125C68.7188 28.6719 67.8021 29.1875 66.5625 29.1875C65.5573 29.1875 64.7526 28.8307 64.1484 28.1172C63.5495 27.3984 63.25 26.4219 63.25 25.1875C63.25 23.8646 63.5833 22.8047 64.25 22.0078C64.9167 21.2109 65.8047 20.8125 66.9141 20.8125C68.013 20.8125 68.8125 21.2448 69.3125 22.1094H69.3438V17.1562H70.625V29ZM69.3438 25.3828V24.2031C69.3438 23.5573 69.1302 23.0104 68.7031 22.5625C68.276 22.1146 67.7344 21.8906 67.0781 21.8906C66.2969 21.8906 65.6823 22.1771 65.2344 22.75C64.7865 23.3229 64.5625 24.1146 64.5625 25.125C64.5625 26.0469 64.776 26.776 65.2031 27.3125C65.6354 27.8438 66.2135 28.1094 66.9375 28.1094C67.651 28.1094 68.2292 27.8516 68.6719 27.3359C69.1198 26.8203 69.3438 26.1693 69.3438 25.3828ZM79.6875 29H78.4062V27.7344H78.375C77.8438 28.7031 77.0208 29.1875 75.9062 29.1875C74 29.1875 73.0469 28.0521 73.0469 25.7812V21H74.3203V25.5781C74.3203 27.2656 74.9661 28.1094 76.2578 28.1094C76.8828 28.1094 77.3958 27.8802 77.7969 27.4219C78.2031 26.9583 78.4062 26.3542 78.4062 25.6094V21H79.6875V29ZM88.125 21L85.4375 25.0469L88.0781 29H86.5859L85.0156 26.4062C84.9167 26.2448 84.7995 26.0417 84.6641 25.7969H84.6328C84.6068 25.8438 84.4844 26.0469 84.2656 26.4062L82.6641 29H81.1875L83.9141 25.0781L81.3047 21H82.7969L84.3438 23.7344C84.4583 23.9375 84.5703 24.1458 84.6797 24.3594H84.7109L86.7109 21H88.125Z" fill="#ADBAC7"/>
<path d="M4 2H104V0H4V2ZM106 4V41H108V4H106ZM104 43H4V45H104V43ZM2 41V4H0V41H2ZM4 43C2.89543 43 2 42.1046 2 41H0C0 43.2091 1.79086 45 4 45V43ZM106 41C106 42.1046 105.105 43 104 43V45C106.209 45 108 43.2091 108 41H106ZM104 2C105.105 2 106 2.89543 106 4H108C108 1.79086 106.209 0 104 0V2ZM4 0C1.79086 0 0 1.79086 0 4H2C2 2.89543 2.89543 2 4 2V0Z" fill="#444C56"/>
<defs>
<clipPath id="clip0">
<rect width="18" height="18" fill="white" transform="translate(15 13.5)"/>
</clipPath>
</defs>
</svg>
