<svg xmlns="http://www.w3.org/2000/svg" width="140" height="56" fill="none"><rect width="122" height="48" x="9" y="4" fill="#FFEBEE" rx="4"/><g clip-path="url(#a)"><path fill="#764ABC" d="M44.628 32.52a1.71 1.71 0 0 0 1.527-1.772 1.715 1.715 0 0 0-1.71-1.649h-.06c-.948.03-1.68.825-1.65 1.771.03.458.214.855.489 1.13-1.038 2.046-2.626 3.542-5.008 4.794-1.618.855-3.297 1.16-4.977.947-1.374-.184-2.442-.794-3.114-1.802-.977-1.496-1.069-3.115-.244-4.733.58-1.16 1.496-2.015 2.076-2.443a16.453 16.453 0 0 1-.397-1.557c-4.427 3.206-3.97 7.542-2.626 9.588 1.008 1.527 3.053 2.473 5.313 2.473a7.51 7.51 0 0 0 1.832-.214c3.908-.763 6.87-3.084 8.55-6.534Zm5.374-3.787c-2.32-2.718-5.74-4.214-9.648-4.214h-.489a1.678 1.678 0 0 0-1.496-.916h-.061c-.947.03-1.68.824-1.649 1.771.03.916.794 1.649 1.71 1.649h.061a1.72 1.72 0 0 0 1.496-1.038h.55c2.32 0 4.519.671 6.504 1.985 1.526 1.007 2.625 2.32 3.236 3.908.519 1.282.488 2.534-.061 3.603-.855 1.618-2.29 2.504-4.183 2.504-1.221 0-2.382-.367-2.992-.642a18.01 18.01 0 0 1-1.374 1.1c1.313.61 2.656.946 3.938.946 2.931 0 5.1-1.618 5.924-3.236.885-1.771.824-4.825-1.466-7.42Zm-15.51 4.305c.03.916.793 1.649 1.71 1.649h.06a1.708 1.708 0 0 0 1.649-1.771 1.715 1.715 0 0 0-1.71-1.649h-.06c-.062 0-.154 0-.215.03-1.252-2.076-1.77-4.335-1.587-6.778.122-1.832.732-3.42 1.801-4.733.886-1.13 2.595-1.68 3.756-1.71 3.236-.06 4.61 3.97 4.702 5.588.397.092 1.068.305 1.526.458-.366-4.946-3.42-7.511-6.35-7.511-2.748 0-5.283 1.984-6.29 4.916-1.405 3.908-.489 7.664 1.221 10.626-.153.213-.244.55-.214.885Z"/></g><path fill="#000" d="M77.5 34.5h-1.563l-1.874-3.14a6.51 6.51 0 0 0-.5-.743 2.726 2.726 0 0 0-.5-.508 1.609 1.609 0 0 0-.547-.28 2.123 2.123 0 0 0-.657-.095h-1.078V34.5H69.47V23.297h3.344c.49 0 .94.062 1.351.187.417.12.776.305 1.078.555.307.25.547.563.719.938.172.37.258.804.258 1.304 0 .39-.06.75-.18 1.078a2.717 2.717 0 0 1-.5.868 3.01 3.01 0 0 1-.781.656 4.01 4.01 0 0 1-1.024.414v.031c.188.084.35.18.485.29.14.103.273.228.398.374s.248.313.367.5c.125.182.263.396.414.64L77.5 34.5Zm-6.719-10.016v4.063h1.781c.329 0 .63-.05.907-.149.281-.099.523-.24.726-.421a1.98 1.98 0 0 0 .477-.68c.115-.271.172-.573.172-.906 0-.6-.196-1.065-.586-1.399-.386-.338-.945-.508-1.68-.508h-1.797Zm14.055 6.336h-5.648c.02.89.26 1.578.718 2.063.459.484 1.089.726 1.89.726.902 0 1.73-.297 2.485-.89v1.203c-.703.51-1.633.766-2.789.766-1.13 0-2.018-.363-2.664-1.086-.646-.73-.969-1.753-.969-3.07 0-1.245.352-2.259 1.055-3.04.708-.786 1.586-1.18 2.633-1.18s1.857.339 2.43 1.016c.572.677.859 1.617.859 2.82v.672Zm-1.313-1.086c-.005-.74-.184-1.315-.539-1.726-.349-.412-.836-.617-1.46-.617a2.07 2.07 0 0 0-1.54.648c-.421.432-.682.997-.78 1.695h4.32ZM93.61 34.5h-1.28v-1.36h-.032c-.594 1.032-1.51 1.547-2.75 1.547-1.005 0-1.81-.356-2.414-1.07-.6-.719-.899-1.695-.899-2.93 0-1.322.334-2.382 1-3.18.667-.796 1.555-1.195 2.664-1.195 1.1 0 1.899.433 2.399 1.297h.031v-4.953h1.281V34.5Zm-1.28-3.617v-1.18c0-.646-.214-1.193-.641-1.64-.428-.448-.97-.672-1.626-.672-.78 0-1.395.286-1.843.859-.448.573-.672 1.365-.672 2.375 0 .922.213 1.651.64 2.188.433.53 1.01.796 1.735.796.713 0 1.291-.257 1.734-.773.448-.516.672-1.167.672-1.953Zm10.343 3.617h-1.281v-1.266h-.032c-.531.97-1.354 1.453-2.468 1.453-1.907 0-2.86-1.135-2.86-3.406V26.5h1.274v4.578c0 1.688.645 2.531 1.937 2.531.625 0 1.138-.229 1.539-.687.407-.464.61-1.068.61-1.813V26.5h1.281v8Zm8.437-8-2.687 4.047 2.64 3.953h-1.492L108 31.906a16.89 16.89 0 0 1-.352-.61h-.031c-.026.048-.148.25-.367.61l-1.602 2.594h-1.476l2.726-3.922-2.609-4.078h1.492l1.547 2.734c.115.203.227.412.336.625h.031l2-3.359h1.414Z"/><rect width="122" height="48" x="9" y="4" stroke="#F44336" stroke-width="2" rx="4"/><defs><clipPath id="a"><path fill="#fff" d="M28.003 16h23.994v24H28.003z"/></clipPath></defs></svg>