<svg width="90" height="39" viewBox="0 0 90 39" fill="none" xmlns="http://www.w3.org/2000/svg">
<path d="M1 4C1 2.34315 2.34315 1 4 1H86C87.6569 1 89 2.34315 89 4V35C89 36.6569 87.6569 38 86 38H4C2.34315 38 1 36.6569 1 35V4Z" fill="#22272E"/>
<path fill-rule="evenodd" clip-rule="evenodd" d="M22.2635 12.75H23.3615V16.2521L26.2415 14.5005L26.7883 15.4961L23.9038 17.25L26.7883 19.0039L26.2426 19.9995L23.3615 18.2479V21.75H22.2635V18.2479L19.3835 19.9995L18.8368 19.0039L21.7212 17.25L18.8368 15.4961L19.3824 14.5005L22.2635 16.2521V12.75ZM13.25 21.75H17.75V26.25H13.25V21.75Z" fill="#ADBAC7"/>
<path d="M49.3125 25H47.9453L46.3047 22.252C46.1543 21.9967 46.0085 21.7803 45.8672 21.6025C45.7259 21.4202 45.5801 21.2721 45.4297 21.1582C45.2839 21.0443 45.1243 20.9622 44.9512 20.9121C44.7826 20.8574 44.5911 20.8301 44.377 20.8301H43.4336V25H42.2852V15.1973H45.2109C45.6393 15.1973 46.0335 15.252 46.3936 15.3613C46.7581 15.4661 47.0726 15.6279 47.3369 15.8467C47.6058 16.0654 47.8154 16.3389 47.9658 16.667C48.1162 16.9906 48.1914 17.3711 48.1914 17.8086C48.1914 18.1504 48.139 18.4648 48.0342 18.752C47.9339 19.0345 47.7881 19.2874 47.5967 19.5107C47.4098 19.734 47.182 19.9255 46.9131 20.085C46.6488 20.2399 46.3503 20.3607 46.0176 20.4473V20.4746C46.1816 20.5475 46.3229 20.6318 46.4414 20.7275C46.5645 20.8187 46.6807 20.9281 46.79 21.0557C46.8994 21.1833 47.0065 21.3291 47.1113 21.4932C47.2207 21.6527 47.3415 21.8395 47.4736 22.0537L49.3125 25ZM43.4336 16.2363V19.791H44.9922C45.2793 19.791 45.5436 19.7477 45.7852 19.6611C46.0312 19.5745 46.2432 19.4515 46.4209 19.292C46.5986 19.1279 46.7376 18.9297 46.8379 18.6973C46.9382 18.4603 46.9883 18.196 46.9883 17.9043C46.9883 17.3802 46.8174 16.9723 46.4756 16.6807C46.1383 16.3844 45.6484 16.2363 45.0059 16.2363H43.4336ZM55.7451 21.7803H50.8027C50.821 22.5596 51.0306 23.1611 51.4316 23.585C51.8327 24.0088 52.3841 24.2207 53.0859 24.2207C53.8743 24.2207 54.599 23.9609 55.2598 23.4414V24.4941C54.6445 24.9408 53.8311 25.1641 52.8193 25.1641C51.8304 25.1641 51.0534 24.8473 50.4883 24.2139C49.9232 23.5758 49.6406 22.6803 49.6406 21.5273C49.6406 20.4382 49.9482 19.5518 50.5635 18.8682C51.1833 18.18 51.9512 17.8359 52.8672 17.8359C53.7832 17.8359 54.4919 18.1322 54.9932 18.7246C55.4945 19.3171 55.7451 20.1396 55.7451 21.1924V21.7803ZM54.5967 20.8301C54.5921 20.1829 54.4349 19.6794 54.125 19.3193C53.8197 18.9593 53.3936 18.7793 52.8467 18.7793C52.318 18.7793 51.8691 18.9684 51.5 19.3467C51.1309 19.7249 50.903 20.2194 50.8164 20.8301H54.5967ZM63.4219 24.4395C63.4219 27.0098 62.1914 28.2949 59.7305 28.2949C58.8646 28.2949 58.1081 28.1309 57.4609 27.8027V26.6816C58.2493 27.1191 59.0013 27.3379 59.7168 27.3379C61.4395 27.3379 62.3008 26.4219 62.3008 24.5898V23.8242H62.2734C61.7402 24.7174 60.9382 25.1641 59.8672 25.1641C58.9967 25.1641 58.2949 24.8542 57.7617 24.2344C57.2331 23.61 56.9688 22.7738 56.9688 21.7256C56.9688 20.5361 57.2536 19.5905 57.8232 18.8887C58.3975 18.1868 59.1813 17.8359 60.1748 17.8359C61.1182 17.8359 61.8177 18.2142 62.2734 18.9707H62.3008V18H63.4219V24.4395ZM62.3008 21.835V20.8027C62.3008 20.2467 62.1117 19.7705 61.7334 19.374C61.3597 18.9775 60.8926 18.7793 60.332 18.7793C59.6393 18.7793 59.097 19.0322 58.7051 19.5381C58.3132 20.0394 58.1172 20.7435 58.1172 21.6504C58.1172 22.4297 58.304 23.054 58.6777 23.5234C59.056 23.9883 59.555 24.2207 60.1748 24.2207C60.8037 24.2207 61.3141 23.9974 61.7061 23.5508C62.1025 23.1042 62.3008 22.5322 62.3008 21.835ZM71.3174 21.7803H66.375C66.3932 22.5596 66.6029 23.1611 67.0039 23.585C67.4049 24.0088 67.9564 24.2207 68.6582 24.2207C69.4466 24.2207 70.1712 23.9609 70.832 23.4414V24.4941C70.2168 24.9408 69.4033 25.1641 68.3916 25.1641C67.4027 25.1641 66.6257 24.8473 66.0605 24.2139C65.4954 23.5758 65.2129 22.6803 65.2129 21.5273C65.2129 20.4382 65.5205 19.5518 66.1357 18.8682C66.7555 18.18 67.5234 17.8359 68.4395 17.8359C69.3555 17.8359 70.0641 18.1322 70.5654 18.7246C71.0667 19.3171 71.3174 20.1396 71.3174 21.1924V21.7803ZM70.1689 20.8301C70.1644 20.1829 70.0072 19.6794 69.6973 19.3193C69.3919 18.9593 68.9658 18.7793 68.4189 18.7793C67.8903 18.7793 67.4414 18.9684 67.0723 19.3467C66.7031 19.7249 66.4753 20.2194 66.3887 20.8301H70.1689ZM78.1328 18L75.7812 21.541L78.0918 25H76.7861L75.4121 22.7305C75.3255 22.5892 75.223 22.4115 75.1045 22.1973H75.0771C75.0544 22.2383 74.9473 22.416 74.7559 22.7305L73.3545 25H72.0625L74.4482 21.5684L72.165 18H73.4707L74.8242 20.3926C74.9245 20.5703 75.0225 20.7526 75.1182 20.9395H75.1455L76.8955 18H78.1328Z" fill="#ADBAC7"/>
<path d="M4 2H86V0H4V2ZM88 4V35H90V4H88ZM86 37H4V39H86V37ZM2 35V4H0V35H2ZM4 37C2.89543 37 2 36.1046 2 35H0C0 37.2091 1.79086 39 4 39V37ZM88 35C88 36.1046 87.1046 37 86 37V39C88.2091 39 90 37.2091 90 35H88ZM86 2C87.1046 2 88 2.89543 88 4H90C90 1.79086 88.2091 0 86 0V2ZM4 0C1.79086 0 0 1.79086 0 4H2C2 2.89543 2.89543 2 4 2V0Z" fill="#444C56"/>
</svg>
