<svg width="80" height="36" viewBox="0 0 80 36" fill="none" xmlns="http://www.w3.org/2000/svg">
<g filter="url(#filter0_d)">
<path d="M2.5 3C2.5 1.34315 3.84315 0 5.5 0H74.5C76.1569 0 77.5 1.34315 77.5 3V29C77.5 30.6569 76.1569 32 74.5 32H5.5C3.84315 32 2.5 30.6569 2.5 29V3Z" fill="white"/>
<path fill-rule="evenodd" clip-rule="evenodd" d="M21.7635 9.25H22.8615V12.7521L25.7415 11.0005L26.2883 11.9961L23.4038 13.75L26.2883 15.5039L25.7426 16.4995L22.8615 14.7479V18.25H21.7635V14.7479L18.8835 16.4995L18.3368 15.5039L21.2212 13.75L18.3368 11.9961L18.8824 11.0005L21.7635 12.7521V9.25ZM12.75 18.25H17.25V22.75H12.75V18.25Z" fill="black"/>
<path d="M40.6191 16.5488H38.6152V20H37.4844V11.4688H40.3086C41.2695 11.4688 42.0078 11.6875 42.5234 12.125C43.043 12.5625 43.3027 13.1992 43.3027 14.0352C43.3027 14.5664 43.1582 15.0293 42.8691 15.4238C42.584 15.8184 42.1855 16.1133 41.6738 16.3086L43.6777 19.9297V20H42.4707L40.6191 16.5488ZM38.6152 15.6289H40.3438C40.9023 15.6289 41.3457 15.4844 41.6738 15.1953C42.0059 14.9062 42.1719 14.5195 42.1719 14.0352C42.1719 13.5078 42.0137 13.1035 41.6973 12.8223C41.3848 12.541 40.9316 12.3984 40.3379 12.3945H38.6152V15.6289ZM47.3457 20.1172C46.4863 20.1172 45.7871 19.8359 45.248 19.2734C44.709 18.707 44.4395 17.9512 44.4395 17.0059V16.8066C44.4395 16.1777 44.5586 15.6172 44.7969 15.125C45.0391 14.6289 45.375 14.2422 45.8047 13.9648C46.2383 13.6836 46.707 13.543 47.2109 13.543C48.0352 13.543 48.6758 13.8145 49.1328 14.3574C49.5898 14.9004 49.8184 15.6777 49.8184 16.6895V17.1406H45.5234C45.5391 17.7656 45.7207 18.2715 46.0684 18.6582C46.4199 19.041 46.8652 19.2324 47.4043 19.2324C47.7871 19.2324 48.1113 19.1543 48.377 18.998C48.6426 18.8418 48.875 18.6348 49.0742 18.377L49.7363 18.8926C49.2051 19.709 48.4082 20.1172 47.3457 20.1172ZM47.2109 14.4336C46.7734 14.4336 46.4062 14.5938 46.1094 14.9141C45.8125 15.2305 45.6289 15.6758 45.5586 16.25H48.7344V16.168C48.7031 15.6172 48.5547 15.1914 48.2891 14.8906C48.0234 14.5859 47.6641 14.4336 47.2109 14.4336ZM50.8203 16.7773C50.8203 15.7891 51.0488 15.0039 51.5059 14.4219C51.9629 13.8359 52.5684 13.543 53.3223 13.543C54.0957 13.543 54.6992 13.8164 55.1328 14.3633L55.1855 13.6602H56.1758V19.8477C56.1758 20.668 55.9316 21.3145 55.4434 21.7871C54.959 22.2598 54.3066 22.4961 53.4863 22.4961C53.0293 22.4961 52.582 22.3984 52.1445 22.2031C51.707 22.0078 51.373 21.7402 51.1426 21.4004L51.7051 20.75C52.1699 21.3242 52.7383 21.6113 53.4102 21.6113C53.9375 21.6113 54.3477 21.4629 54.6406 21.166C54.9375 20.8691 55.0859 20.4512 55.0859 19.9121V19.3672C54.6523 19.8672 54.0605 20.1172 53.3105 20.1172C52.5684 20.1172 51.9668 19.8184 51.5059 19.2207C51.0488 18.623 50.8203 17.8086 50.8203 16.7773ZM51.9102 16.9004C51.9102 17.6152 52.0566 18.1777 52.3496 18.5879C52.6426 18.9941 53.0527 19.1973 53.5801 19.1973C54.2637 19.1973 54.7656 18.8867 55.0859 18.2656V15.3711C54.7539 14.7656 54.2559 14.4629 53.5918 14.4629C53.0645 14.4629 52.6523 14.668 52.3555 15.0781C52.0586 15.4883 51.9102 16.0957 51.9102 16.9004ZM60.4473 20.1172C59.5879 20.1172 58.8887 19.8359 58.3496 19.2734C57.8105 18.707 57.541 17.9512 57.541 17.0059V16.8066C57.541 16.1777 57.6602 15.6172 57.8984 15.125C58.1406 14.6289 58.4766 14.2422 58.9062 13.9648C59.3398 13.6836 59.8086 13.543 60.3125 13.543C61.1367 13.543 61.7773 13.8145 62.2344 14.3574C62.6914 14.9004 62.9199 15.6777 62.9199 16.6895V17.1406H58.625C58.6406 17.7656 58.8223 18.2715 59.1699 18.6582C59.5215 19.041 59.9668 19.2324 60.5059 19.2324C60.8887 19.2324 61.2129 19.1543 61.4785 18.998C61.7441 18.8418 61.9766 18.6348 62.1758 18.377L62.8379 18.8926C62.3066 19.709 61.5098 20.1172 60.4473 20.1172ZM60.3125 14.4336C59.875 14.4336 59.5078 14.5938 59.2109 14.9141C58.9141 15.2305 58.7305 15.6758 58.6602 16.25H61.8359V16.168C61.8047 15.6172 61.6562 15.1914 61.3906 14.8906C61.125 14.5859 60.7656 14.4336 60.3125 14.4336ZM66.3066 15.9746L67.7129 13.6602H68.9785L66.9043 16.7949L69.043 20H67.7891L66.3242 17.627L64.8594 20H63.5996L65.7383 16.7949L63.6641 13.6602H64.918L66.3066 15.9746Z" fill="black"/>
</g>
<defs>
<filter id="filter0_d" x="0.5" y="0" width="79" height="36" filterUnits="userSpaceOnUse" color-interpolation-filters="sRGB">
<feFlood flood-opacity="0" result="BackgroundImageFix"/>
<feColorMatrix in="SourceAlpha" type="matrix" values="0 0 0 0 0 0 0 0 0 0 0 0 0 0 0 0 0 0 127 0" result="hardAlpha"/>
<feOffset dy="2"/>
<feGaussianBlur stdDeviation="1"/>
<feComposite in2="hardAlpha" operator="out"/>
<feColorMatrix type="matrix" values="0 0 0 0 0 0 0 0 0 0 0 0 0 0 0 0 0 0 0.25 0"/>
<feBlend mode="normal" in2="BackgroundImageFix" result="effect1_dropShadow"/>
<feBlend mode="normal" in="SourceGraphic" in2="effect1_dropShadow" result="shape"/>
</filter>
</defs>
</svg>
