<svg width="78" height="34" viewBox="0 0 78 34" fill="none" xmlns="http://www.w3.org/2000/svg">
<path d="M1.5 4C1.5 2.34315 2.84315 1 4.5 1H73.5C75.1569 1 76.5 2.34315 76.5 4V30C76.5 31.6569 75.1569 33 73.5 33H4.5C2.84315 33 1.5 31.6569 1.5 30V4Z" fill="#C9D1D9"/>
<path fill-rule="evenodd" clip-rule="evenodd" d="M20.7635 10.25H21.8615V13.7521L24.7415 12.0005L25.2882 12.9961L22.4038 14.75L25.2882 16.5039L24.7426 17.4995L21.8615 15.7479V19.25H20.7635V15.7479L17.8835 17.4995L17.3368 16.5039L20.2212 14.75L17.3368 12.9961L17.8824 12.0005L20.7635 13.7521V10.25ZM11.75 19.25H16.25V23.75H11.75V19.25Z" fill="black"/>
<path d="M39.6191 17.5488H37.6152V21H36.4844V12.4688H39.3086C40.2695 12.4688 41.0078 12.6875 41.5234 13.125C42.043 13.5625 42.3027 14.1992 42.3027 15.0352C42.3027 15.5664 42.1582 16.0293 41.8691 16.4238C41.584 16.8184 41.1855 17.1133 40.6738 17.3086L42.6777 20.9297V21H41.4707L39.6191 17.5488ZM37.6152 16.6289H39.3438C39.9023 16.6289 40.3457 16.4844 40.6738 16.1953C41.0059 15.9062 41.1719 15.5195 41.1719 15.0352C41.1719 14.5078 41.0137 14.1035 40.6973 13.8223C40.3848 13.541 39.9316 13.3984 39.3379 13.3945H37.6152V16.6289ZM46.3457 21.1172C45.4863 21.1172 44.7871 20.8359 44.248 20.2734C43.709 19.707 43.4395 18.9512 43.4395 18.0059V17.8066C43.4395 17.1777 43.5586 16.6172 43.7969 16.125C44.0391 15.6289 44.375 15.2422 44.8047 14.9648C45.2383 14.6836 45.707 14.543 46.2109 14.543C47.0352 14.543 47.6758 14.8145 48.1328 15.3574C48.5898 15.9004 48.8184 16.6777 48.8184 17.6895V18.1406H44.5234C44.5391 18.7656 44.7207 19.2715 45.0684 19.6582C45.4199 20.041 45.8652 20.2324 46.4043 20.2324C46.7871 20.2324 47.1113 20.1543 47.377 19.998C47.6426 19.8418 47.875 19.6348 48.0742 19.377L48.7363 19.8926C48.2051 20.709 47.4082 21.1172 46.3457 21.1172ZM46.2109 15.4336C45.7734 15.4336 45.4062 15.5938 45.1094 15.9141C44.8125 16.2305 44.6289 16.6758 44.5586 17.25H47.7344V17.168C47.7031 16.6172 47.5547 16.1914 47.2891 15.8906C47.0234 15.5859 46.6641 15.4336 46.2109 15.4336ZM49.8203 17.7773C49.8203 16.7891 50.0488 16.0039 50.5059 15.4219C50.9629 14.8359 51.5684 14.543 52.3223 14.543C53.0957 14.543 53.6992 14.8164 54.1328 15.3633L54.1855 14.6602H55.1758V20.8477C55.1758 21.668 54.9316 22.3145 54.4434 22.7871C53.959 23.2598 53.3066 23.4961 52.4863 23.4961C52.0293 23.4961 51.582 23.3984 51.1445 23.2031C50.707 23.0078 50.373 22.7402 50.1426 22.4004L50.7051 21.75C51.1699 22.3242 51.7383 22.6113 52.4102 22.6113C52.9375 22.6113 53.3477 22.4629 53.6406 22.166C53.9375 21.8691 54.0859 21.4512 54.0859 20.9121V20.3672C53.6523 20.8672 53.0605 21.1172 52.3105 21.1172C51.5684 21.1172 50.9668 20.8184 50.5059 20.2207C50.0488 19.623 49.8203 18.8086 49.8203 17.7773ZM50.9102 17.9004C50.9102 18.6152 51.0566 19.1777 51.3496 19.5879C51.6426 19.9941 52.0527 20.1973 52.5801 20.1973C53.2637 20.1973 53.7656 19.8867 54.0859 19.2656V16.3711C53.7539 15.7656 53.2559 15.4629 52.5918 15.4629C52.0645 15.4629 51.6523 15.668 51.3555 16.0781C51.0586 16.4883 50.9102 17.0957 50.9102 17.9004ZM59.4473 21.1172C58.5879 21.1172 57.8887 20.8359 57.3496 20.2734C56.8105 19.707 56.541 18.9512 56.541 18.0059V17.8066C56.541 17.1777 56.6602 16.6172 56.8984 16.125C57.1406 15.6289 57.4766 15.2422 57.9062 14.9648C58.3398 14.6836 58.8086 14.543 59.3125 14.543C60.1367 14.543 60.7773 14.8145 61.2344 15.3574C61.6914 15.9004 61.9199 16.6777 61.9199 17.6895V18.1406H57.625C57.6406 18.7656 57.8223 19.2715 58.1699 19.6582C58.5215 20.041 58.9668 20.2324 59.5059 20.2324C59.8887 20.2324 60.2129 20.1543 60.4785 19.998C60.7441 19.8418 60.9766 19.6348 61.1758 19.377L61.8379 19.8926C61.3066 20.709 60.5098 21.1172 59.4473 21.1172ZM59.3125 15.4336C58.875 15.4336 58.5078 15.5938 58.2109 15.9141C57.9141 16.2305 57.7305 16.6758 57.6602 17.25H60.8359V17.168C60.8047 16.6172 60.6562 16.1914 60.3906 15.8906C60.125 15.5859 59.7656 15.4336 59.3125 15.4336ZM65.3066 16.9746L66.7129 14.6602H67.9785L65.9043 17.7949L68.043 21H66.7891L65.3242 18.627L63.8594 21H62.5996L64.7383 17.7949L62.6641 14.6602H63.918L65.3066 16.9746Z" fill="#22272E"/>
<path d="M4.5 2H73.5V0H4.5V2ZM75.5 4V30H77.5V4H75.5ZM73.5 32H4.5V34H73.5V32ZM2.5 30V4H0.5V30H2.5ZM4.5 32C3.39543 32 2.5 31.1046 2.5 30H0.5C0.5 32.2091 2.29086 34 4.5 34V32ZM75.5 30C75.5 31.1046 74.6046 32 73.5 32V34C75.7091 34 77.5 32.2091 77.5 30H75.5ZM73.5 2C74.6046 2 75.5 2.89543 75.5 4H77.5C77.5 1.79086 75.7091 0 73.5 0V2ZM4.5 0C2.29086 0 0.5 1.79086 0.5 4H2.5C2.5 2.89543 3.39543 2 4.5 2V0Z" fill="#30363D"/>
</svg>
