<svg width="71" height="28" viewBox="0 0 71 28" fill="none" xmlns="http://www.w3.org/2000/svg">
<g filter="url(#filter0_d)">
<path d="M2.5 5C2.5 2.23858 4.73858 0 7.5 0H63.5C66.2614 0 68.5 2.23858 68.5 5V19C68.5 21.7614 66.2614 24 63.5 24H7.5C4.73858 24 2.5 21.7614 2.5 19V5Z" fill="white"/>
<path fill-rule="evenodd" clip-rule="evenodd" d="M18.7635 5.25H19.8615V8.75212L22.7415 7.0005L23.2883 7.99612L20.4038 9.75L23.2883 11.5039L22.7426 12.4995L19.8615 10.7479V14.25H18.7635V10.7479L15.8835 12.4995L15.3368 11.5039L18.2212 9.75L15.3368 7.99612L15.8824 7.0005L18.7635 8.75212V5.25ZM9.75 14.25H14.25V18.75H9.75V14.25Z" fill="black"/>
<path d="M34.6191 12.5488H32.6152V16H31.4844V7.46875H34.3086C35.2695 7.46875 36.0078 7.6875 36.5234 8.125C37.043 8.5625 37.3027 9.19922 37.3027 10.0352C37.3027 10.5664 37.1582 11.0293 36.8691 11.4238C36.584 11.8184 36.1855 12.1133 35.6738 12.3086L37.6777 15.9297V16H36.4707L34.6191 12.5488ZM32.6152 11.6289H34.3438C34.9023 11.6289 35.3457 11.4844 35.6738 11.1953C36.0059 10.9062 36.1719 10.5195 36.1719 10.0352C36.1719 9.50781 36.0137 9.10352 35.6973 8.82227C35.3848 8.54102 34.9316 8.39844 34.3379 8.39453H32.6152V11.6289ZM41.3457 16.1172C40.4863 16.1172 39.7871 15.8359 39.248 15.2734C38.709 14.707 38.4395 13.9512 38.4395 13.0059V12.8066C38.4395 12.1777 38.5586 11.6172 38.7969 11.125C39.0391 10.6289 39.375 10.2422 39.8047 9.96484C40.2383 9.68359 40.707 9.54297 41.2109 9.54297C42.0352 9.54297 42.6758 9.81445 43.1328 10.3574C43.5898 10.9004 43.8184 11.6777 43.8184 12.6895V13.1406H39.5234C39.5391 13.7656 39.7207 14.2715 40.0684 14.6582C40.4199 15.041 40.8652 15.2324 41.4043 15.2324C41.7871 15.2324 42.1113 15.1543 42.377 14.998C42.6426 14.8418 42.875 14.6348 43.0742 14.377L43.7363 14.8926C43.2051 15.709 42.4082 16.1172 41.3457 16.1172ZM41.2109 10.4336C40.7734 10.4336 40.4062 10.5938 40.1094 10.9141C39.8125 11.2305 39.6289 11.6758 39.5586 12.25H42.7344V12.168C42.7031 11.6172 42.5547 11.1914 42.2891 10.8906C42.0234 10.5859 41.6641 10.4336 41.2109 10.4336ZM44.8203 12.7773C44.8203 11.7891 45.0488 11.0039 45.5059 10.4219C45.9629 9.83594 46.5684 9.54297 47.3223 9.54297C48.0957 9.54297 48.6992 9.81641 49.1328 10.3633L49.1855 9.66016H50.1758V15.8477C50.1758 16.668 49.9316 17.3145 49.4434 17.7871C48.959 18.2598 48.3066 18.4961 47.4863 18.4961C47.0293 18.4961 46.582 18.3984 46.1445 18.2031C45.707 18.0078 45.373 17.7402 45.1426 17.4004L45.7051 16.75C46.1699 17.3242 46.7383 17.6113 47.4102 17.6113C47.9375 17.6113 48.3477 17.4629 48.6406 17.166C48.9375 16.8691 49.0859 16.4512 49.0859 15.9121V15.3672C48.6523 15.8672 48.0605 16.1172 47.3105 16.1172C46.5684 16.1172 45.9668 15.8184 45.5059 15.2207C45.0488 14.623 44.8203 13.8086 44.8203 12.7773ZM45.9102 12.9004C45.9102 13.6152 46.0566 14.1777 46.3496 14.5879C46.6426 14.9941 47.0527 15.1973 47.5801 15.1973C48.2637 15.1973 48.7656 14.8867 49.0859 14.2656V11.3711C48.7539 10.7656 48.2559 10.4629 47.5918 10.4629C47.0645 10.4629 46.6523 10.668 46.3555 11.0781C46.0586 11.4883 45.9102 12.0957 45.9102 12.9004ZM54.4473 16.1172C53.5879 16.1172 52.8887 15.8359 52.3496 15.2734C51.8105 14.707 51.541 13.9512 51.541 13.0059V12.8066C51.541 12.1777 51.6602 11.6172 51.8984 11.125C52.1406 10.6289 52.4766 10.2422 52.9062 9.96484C53.3398 9.68359 53.8086 9.54297 54.3125 9.54297C55.1367 9.54297 55.7773 9.81445 56.2344 10.3574C56.6914 10.9004 56.9199 11.6777 56.9199 12.6895V13.1406H52.625C52.6406 13.7656 52.8223 14.2715 53.1699 14.6582C53.5215 15.041 53.9668 15.2324 54.5059 15.2324C54.8887 15.2324 55.2129 15.1543 55.4785 14.998C55.7441 14.8418 55.9766 14.6348 56.1758 14.377L56.8379 14.8926C56.3066 15.709 55.5098 16.1172 54.4473 16.1172ZM54.3125 10.4336C53.875 10.4336 53.5078 10.5938 53.2109 10.9141C52.9141 11.2305 52.7305 11.6758 52.6602 12.25H55.8359V12.168C55.8047 11.6172 55.6562 11.1914 55.3906 10.8906C55.125 10.5859 54.7656 10.4336 54.3125 10.4336ZM60.3066 11.9746L61.7129 9.66016H62.9785L60.9043 12.7949L63.043 16H61.7891L60.3242 13.627L58.8594 16H57.5996L59.7383 12.7949L57.6641 9.66016H58.918L60.3066 11.9746Z" fill="black"/>
</g>
<defs>
<filter id="filter0_d" x="0.5" y="0" width="70" height="28" filterUnits="userSpaceOnUse" color-interpolation-filters="sRGB">
<feFlood flood-opacity="0" result="BackgroundImageFix"/>
<feColorMatrix in="SourceAlpha" type="matrix" values="0 0 0 0 0 0 0 0 0 0 0 0 0 0 0 0 0 0 127 0" result="hardAlpha"/>
<feOffset dy="2"/>
<feGaussianBlur stdDeviation="1"/>
<feComposite in2="hardAlpha" operator="out"/>
<feColorMatrix type="matrix" values="0 0 0 0 0 0 0 0 0 0 0 0 0 0 0 0 0 0 0.25 0"/>
<feBlend mode="normal" in2="BackgroundImageFix" result="effect1_dropShadow"/>
<feBlend mode="normal" in="SourceGraphic" in2="effect1_dropShadow" result="shape"/>
</filter>
</defs>
</svg>
