<svg width="107" height="45" viewBox="0 0 107 45" fill="none" xmlns="http://www.w3.org/2000/svg">
<path d="M1 4C1 2.34314 2.34315 1 4 1H103C104.657 1 106 2.34315 106 4V41C106 42.6569 104.657 44 103 44H4C2.34315 44 1 42.6569 1 41V4Z" fill="#22272E"/>
<path fill-rule="evenodd" clip-rule="evenodd" d="M26.2635 15.75H27.3615V19.2521L30.2415 17.5005L30.7883 18.4961L27.9038 20.25L30.7883 22.0039L30.2426 22.9995L27.3615 21.2479V24.75H26.2635V21.2479L23.3835 22.9995L22.8368 22.0039L25.7212 20.25L22.8368 18.4961L23.3824 17.5005L26.2635 19.2521V15.75ZM17.25 24.75H21.75V29.25H17.25V24.75Z" fill="#ADBAC7"/>
<path d="M54.5 29H52.9375L51.0625 25.8594C50.8906 25.5677 50.724 25.3203 50.5625 25.1172C50.401 24.9089 50.2344 24.7396 50.0625 24.6094C49.8958 24.4792 49.7135 24.3854 49.5156 24.3281C49.3229 24.2656 49.1042 24.2344 48.8594 24.2344H47.7812V29H46.4688V17.7969H49.8125C50.3021 17.7969 50.7526 17.8594 51.1641 17.9844C51.5807 18.1042 51.9401 18.2891 52.2422 18.5391C52.5495 18.7891 52.7891 19.1016 52.9609 19.4766C53.1328 19.8464 53.2188 20.2812 53.2188 20.7812C53.2188 21.1719 53.1589 21.5312 53.0391 21.8594C52.9245 22.1823 52.7578 22.4714 52.5391 22.7266C52.3255 22.9818 52.0651 23.2005 51.7578 23.3828C51.4557 23.5599 51.1146 23.6979 50.7344 23.7969V23.8281C50.9219 23.9115 51.0833 24.0078 51.2188 24.1172C51.3594 24.2214 51.4922 24.3464 51.6172 24.4922C51.7422 24.638 51.8646 24.8047 51.9844 24.9922C52.1094 25.1745 52.2474 25.388 52.3984 25.6328L54.5 29ZM47.7812 18.9844V23.0469H49.5625C49.8906 23.0469 50.1927 22.9974 50.4688 22.8984C50.75 22.7995 50.9922 22.6589 51.1953 22.4766C51.3984 22.2891 51.5573 22.0625 51.6719 21.7969C51.7865 21.526 51.8438 21.224 51.8438 20.8906C51.8438 20.2917 51.6484 19.8255 51.2578 19.4922C50.8724 19.1536 50.3125 18.9844 49.5781 18.9844H47.7812ZM61.8516 25.3203H56.2031C56.224 26.2109 56.4635 26.8984 56.9219 27.3828C57.3802 27.8672 58.0104 28.1094 58.8125 28.1094C59.7135 28.1094 60.5417 27.8125 61.2969 27.2188V28.4219C60.5938 28.9323 59.6641 29.1875 58.5078 29.1875C57.3776 29.1875 56.4896 28.8255 55.8438 28.1016C55.1979 27.3724 54.875 26.349 54.875 25.0312C54.875 23.7865 55.2266 22.7734 55.9297 21.9922C56.638 21.2057 57.5156 20.8125 58.5625 20.8125C59.6094 20.8125 60.4193 21.151 60.9922 21.8281C61.5651 22.5052 61.8516 23.4453 61.8516 24.6484V25.3203ZM60.5391 24.2344C60.5339 23.4948 60.3542 22.9193 60 22.5078C59.651 22.0964 59.1641 21.8906 58.5391 21.8906C57.9349 21.8906 57.4219 22.1068 57 22.5391C56.5781 22.9714 56.3177 23.5365 56.2188 24.2344H60.5391ZM70.625 28.3594C70.625 31.2969 69.2188 32.7656 66.4062 32.7656C65.4167 32.7656 64.5521 32.5781 63.8125 32.2031V30.9219C64.7135 31.4219 65.5729 31.6719 66.3906 31.6719C68.3594 31.6719 69.3438 30.625 69.3438 28.5312V27.6562H69.3125C68.7031 28.6771 67.7865 29.1875 66.5625 29.1875C65.5677 29.1875 64.7656 28.8333 64.1562 28.125C63.5521 27.4115 63.25 26.4557 63.25 25.2578C63.25 23.8984 63.5755 22.8177 64.2266 22.0156C64.8828 21.2135 65.7786 20.8125 66.9141 20.8125C67.9922 20.8125 68.7917 21.2448 69.3125 22.1094H69.3438V21H70.625V28.3594ZM69.3438 25.3828V24.2031C69.3438 23.5677 69.1276 23.0234 68.6953 22.5703C68.2682 22.1172 67.7344 21.8906 67.0938 21.8906C66.3021 21.8906 65.6823 22.1797 65.2344 22.7578C64.7865 23.3307 64.5625 24.1354 64.5625 25.1719C64.5625 26.0625 64.776 26.776 65.2031 27.3125C65.6354 27.8438 66.2057 28.1094 66.9141 28.1094C67.6328 28.1094 68.2161 27.8542 68.6641 27.3438C69.1172 26.8333 69.3438 26.1797 69.3438 25.3828ZM79.6484 25.3203H74C74.0208 26.2109 74.2604 26.8984 74.7188 27.3828C75.1771 27.8672 75.8073 28.1094 76.6094 28.1094C77.5104 28.1094 78.3385 27.8125 79.0938 27.2188V28.4219C78.3906 28.9323 77.4609 29.1875 76.3047 29.1875C75.1745 29.1875 74.2865 28.8255 73.6406 28.1016C72.9948 27.3724 72.6719 26.349 72.6719 25.0312C72.6719 23.7865 73.0234 22.7734 73.7266 21.9922C74.4349 21.2057 75.3125 20.8125 76.3594 20.8125C77.4062 20.8125 78.2161 21.151 78.7891 21.8281C79.362 22.5052 79.6484 23.4453 79.6484 24.6484V25.3203ZM78.3359 24.2344C78.3307 23.4948 78.151 22.9193 77.7969 22.5078C77.4479 22.0964 76.9609 21.8906 76.3359 21.8906C75.7318 21.8906 75.2188 22.1068 74.7969 22.5391C74.375 22.9714 74.1146 23.5365 74.0156 24.2344H78.3359ZM87.4375 21L84.75 25.0469L87.3906 29H85.8984L84.3281 26.4062C84.2292 26.2448 84.112 26.0417 83.9766 25.7969H83.9453C83.9193 25.8438 83.7969 26.0469 83.5781 26.4062L81.9766 29H80.5L83.2266 25.0781L80.6172 21H82.1094L83.6562 23.7344C83.7708 23.9375 83.8828 24.1458 83.9922 24.3594H84.0234L86.0234 21H87.4375Z" fill="#ADBAC7"/>
<path d="M4 2H103V0H4V2ZM105 4V41H107V4H105ZM103 43H4V45H103V43ZM2 41V4H0V41H2ZM4 43C2.89543 43 2 42.1046 2 41H0C0 43.2091 1.79086 45 4 45V43ZM105 41C105 42.1046 104.105 43 103 43V45C105.209 45 107 43.2091 107 41H105ZM103 2C104.105 2 105 2.89543 105 4H107C107 1.79086 105.209 0 103 0V2ZM4 0C1.79086 0 0 1.79086 0 4H2C2 2.89543 2.89543 2 4 2V0Z" fill="#444C56"/>
</svg>
