<svg width="109" height="47" viewBox="0 0 109 47" fill="none" xmlns="http://www.w3.org/2000/svg">
<rect x="1" y="1" width="107" height="45" rx="4" fill="#22272E"/>
<path fill-rule="evenodd" clip-rule="evenodd" d="M27.2635 16.75H28.3615V20.2521L31.2415 18.5005L31.7883 19.4961L28.9038 21.25L31.7883 23.0039L31.2426 23.9995L28.3615 22.2479V25.75H27.2635V22.2479L24.3835 23.9995L23.8368 23.0039L26.7212 21.25L23.8368 19.4961L24.3824 18.5005L27.2635 20.2521V16.75ZM18.25 25.75H22.75V30.25H18.25V25.75Z" fill="#ADBAC7"/>
<path d="M55.5 30H53.9375L52.0625 26.8594C51.8906 26.5677 51.724 26.3203 51.5625 26.1172C51.401 25.9089 51.2344 25.7396 51.0625 25.6094C50.8958 25.4792 50.7135 25.3854 50.5156 25.3281C50.3229 25.2656 50.1042 25.2344 49.8594 25.2344H48.7812V30H47.4688V18.7969H50.8125C51.3021 18.7969 51.7526 18.8594 52.1641 18.9844C52.5807 19.1042 52.9401 19.2891 53.2422 19.5391C53.5495 19.7891 53.7891 20.1016 53.9609 20.4766C54.1328 20.8464 54.2188 21.2812 54.2188 21.7812C54.2188 22.1719 54.1589 22.5312 54.0391 22.8594C53.9245 23.1823 53.7578 23.4714 53.5391 23.7266C53.3255 23.9818 53.0651 24.2005 52.7578 24.3828C52.4557 24.5599 52.1146 24.6979 51.7344 24.7969V24.8281C51.9219 24.9115 52.0833 25.0078 52.2188 25.1172C52.3594 25.2214 52.4922 25.3464 52.6172 25.4922C52.7422 25.638 52.8646 25.8047 52.9844 25.9922C53.1094 26.1745 53.2474 26.388 53.3984 26.6328L55.5 30ZM48.7812 19.9844V24.0469H50.5625C50.8906 24.0469 51.1927 23.9974 51.4688 23.8984C51.75 23.7995 51.9922 23.6589 52.1953 23.4766C52.3984 23.2891 52.5573 23.0625 52.6719 22.7969C52.7865 22.526 52.8438 22.224 52.8438 21.8906C52.8438 21.2917 52.6484 20.8255 52.2578 20.4922C51.8724 20.1536 51.3125 19.9844 50.5781 19.9844H48.7812ZM62.8359 26.3203H57.1875C57.2083 27.2109 57.4479 27.8984 57.9062 28.3828C58.3646 28.8672 58.9948 29.1094 59.7969 29.1094C60.6979 29.1094 61.526 28.8125 62.2812 28.2188V29.4219C61.5781 29.9323 60.6484 30.1875 59.4922 30.1875C58.362 30.1875 57.474 29.8255 56.8281 29.1016C56.1823 28.3724 55.8594 27.349 55.8594 26.0312C55.8594 24.7865 56.2109 23.7734 56.9141 22.9922C57.6224 22.2057 58.5 21.8125 59.5469 21.8125C60.5938 21.8125 61.4036 22.151 61.9766 22.8281C62.5495 23.5052 62.8359 24.4453 62.8359 25.6484V26.3203ZM61.5234 25.2344C61.5182 24.4948 61.3385 23.9193 60.9844 23.5078C60.6354 23.0964 60.1484 22.8906 59.5234 22.8906C58.9193 22.8906 58.4062 23.1068 57.9844 23.5391C57.5625 23.9714 57.3021 24.5365 57.2031 25.2344H61.5234ZM71.6094 29.3594C71.6094 32.2969 70.2031 33.7656 67.3906 33.7656C66.401 33.7656 65.5365 33.5781 64.7969 33.2031V31.9219C65.6979 32.4219 66.5573 32.6719 67.375 32.6719C69.3438 32.6719 70.3281 31.625 70.3281 29.5312V28.6562H70.2969C69.6875 29.6771 68.7708 30.1875 67.5469 30.1875C66.5521 30.1875 65.75 29.8333 65.1406 29.125C64.5365 28.4115 64.2344 27.4557 64.2344 26.2578C64.2344 24.8984 64.5599 23.8177 65.2109 23.0156C65.8672 22.2135 66.763 21.8125 67.8984 21.8125C68.9766 21.8125 69.776 22.2448 70.2969 23.1094H70.3281V22H71.6094V29.3594ZM70.3281 26.3828V25.2031C70.3281 24.5677 70.112 24.0234 69.6797 23.5703C69.2526 23.1172 68.7188 22.8906 68.0781 22.8906C67.2865 22.8906 66.6667 23.1797 66.2188 23.7578C65.7708 24.3307 65.5469 25.1354 65.5469 26.1719C65.5469 27.0625 65.7604 27.776 66.1875 28.3125C66.6198 28.8438 67.1901 29.1094 67.8984 29.1094C68.6172 29.1094 69.2005 28.8542 69.6484 28.3438C70.1016 27.8333 70.3281 27.1797 70.3281 26.3828ZM80.6328 26.3203H74.9844C75.0052 27.2109 75.2448 27.8984 75.7031 28.3828C76.1615 28.8672 76.7917 29.1094 77.5938 29.1094C78.4948 29.1094 79.3229 28.8125 80.0781 28.2188V29.4219C79.375 29.9323 78.4453 30.1875 77.2891 30.1875C76.1589 30.1875 75.2708 29.8255 74.625 29.1016C73.9792 28.3724 73.6562 27.349 73.6562 26.0312C73.6562 24.7865 74.0078 23.7734 74.7109 22.9922C75.4193 22.2057 76.2969 21.8125 77.3438 21.8125C78.3906 21.8125 79.2005 22.151 79.7734 22.8281C80.3464 23.5052 80.6328 24.4453 80.6328 25.6484V26.3203ZM79.3203 25.2344C79.3151 24.4948 79.1354 23.9193 78.7812 23.5078C78.4323 23.0964 77.9453 22.8906 77.3203 22.8906C76.7161 22.8906 76.2031 23.1068 75.7812 23.5391C75.3594 23.9714 75.099 24.5365 75 25.2344H79.3203ZM88.4219 22L85.7344 26.0469L88.375 30H86.8828L85.3125 27.4062C85.2135 27.2448 85.0964 27.0417 84.9609 26.7969H84.9297C84.9036 26.8438 84.7812 27.0469 84.5625 27.4062L82.9609 30H81.4844L84.2109 26.0781L81.6016 22H83.0938L84.6406 24.7344C84.7552 24.9375 84.8672 25.1458 84.9766 25.3594H85.0078L87.0078 22H88.4219Z" fill="#ADBAC7"/>
<rect x="1" y="1" width="107" height="45" rx="4" stroke="#444C56" stroke-width="2"/>
</svg>
