<svg width="74" height="36" viewBox="0 0 74 36" fill="none" xmlns="http://www.w3.org/2000/svg">
<g filter="url(#filter0_d)">
<path d="M2.5 3C2.5 1.34315 3.84315 0 5.5 0H68.5C70.1569 0 71.5 1.34315 71.5 3V29C71.5 30.6569 70.1569 32 68.5 32H5.5C3.84315 32 2.5 30.6569 2.5 29V3Z" fill="#C9D1D9"/>
<g clip-path="url(#clip0)">
<path d="M25.9994 17.0106C25.3715 17.0138 24.8257 17.165 24.3687 17.3886C24.201 17.0565 24.0333 16.7607 24.0038 16.5437C23.9708 16.2905 23.9314 16.136 23.9708 15.8335C24.0103 15.531 24.1879 15.1003 24.1846 15.0675C24.1813 15.0346 24.1451 14.88 23.7834 14.8768C23.4218 14.8735 23.1095 14.9458 23.0733 15.0412C23.0371 15.1365 22.9681 15.3535 22.9221 15.577C22.8596 15.9059 22.1988 17.0795 21.8207 17.6943C21.699 17.4544 21.5938 17.2439 21.5708 17.0763C21.5379 16.8232 21.4984 16.6686 21.5379 16.3661C21.5774 16.0637 21.7549 15.633 21.7516 15.6001C21.7483 15.5672 21.7121 15.4127 21.3505 15.4094C20.9888 15.4061 20.6765 15.4784 20.6404 15.5738C20.6042 15.6692 20.5647 15.8927 20.4891 16.1097C20.4135 16.3267 19.5357 18.2862 19.3055 18.7925C19.2125 18.9974 19.115 19.2002 19.0129 19.4008C19.0129 19.4008 19.0096 19.4106 18.9997 19.4271C18.9677 19.4899 18.9348 19.5524 18.9012 19.6145V19.6177C18.8518 19.7065 18.7992 19.7887 18.7729 19.7887C18.7532 19.7887 18.717 19.552 18.7795 19.2298C18.911 18.5492 19.2233 17.4906 19.2201 17.4544C19.2201 17.4347 19.2792 17.2506 19.0162 17.1552C18.7597 17.0598 18.6677 17.2176 18.6447 17.2176C18.6217 17.2176 18.6052 17.2736 18.6052 17.2736C18.6052 17.2736 18.8913 16.0834 18.0595 16.0834C17.54 16.0834 16.8233 16.6522 16.4682 17.165C16.0645 17.3847 15.6612 17.605 15.2583 17.8259C15.0644 17.9344 14.8638 18.0429 14.6764 18.1448C14.6632 18.1317 14.6501 18.1152 14.6369 18.1021C13.6308 17.027 11.77 16.2675 11.8489 14.8242C11.8785 14.2982 12.0593 12.9173 15.4227 11.2405C18.1909 9.87608 20.3938 10.2541 20.7752 11.0925C21.3209 12.2893 19.5949 14.5119 16.7345 14.834C15.643 14.9557 15.0709 14.5348 14.9263 14.377C14.775 14.2126 14.752 14.2028 14.696 14.2357C14.604 14.285 14.6632 14.433 14.696 14.5184C14.7816 14.7419 15.1333 15.1365 15.7284 15.3305C16.2545 15.5014 17.5334 15.5968 19.0819 14.9984C20.8146 14.3277 22.1692 12.4636 21.7714 10.9019C21.3735 9.31717 18.7433 8.79443 16.2545 9.6788C14.775 10.2049 13.1706 11.0334 12.0166 12.1118C10.6456 13.394 10.4285 14.5085 10.5173 14.9754C10.8363 16.6324 13.1213 17.7108 14.0353 18.5098C13.9892 18.5361 13.9464 18.5591 13.9103 18.5789C13.4533 18.8057 11.7108 19.7163 11.2768 20.6797C10.7837 21.7712 11.3558 22.5538 11.7338 22.6589C12.9076 22.9844 14.1142 22.3992 14.7618 21.4326C15.4095 20.466 15.3306 19.21 15.0315 18.6347C15.0281 18.6281 15.0249 18.6215 15.0183 18.615C15.1366 18.5459 15.2583 18.4736 15.3767 18.4046C15.5942 18.2759 15.8146 18.1521 16.0375 18.033C15.9257 18.3388 15.8435 18.7037 15.8041 19.2298C15.7547 19.8479 16.0078 20.6501 16.3399 20.9657C16.4879 21.1039 16.6621 21.1071 16.774 21.1071C17.1619 21.1071 17.3362 20.7849 17.5302 20.4035C17.7668 19.9367 17.9806 19.3942 17.9806 19.3942C17.9806 19.3942 17.7142 20.8605 18.4376 20.8605C18.7006 20.8605 18.9669 20.5186 19.0853 20.3444V20.3476C19.0853 20.3476 19.0918 20.3377 19.105 20.3147C19.1313 20.272 19.1477 20.2456 19.1477 20.2456V20.2392C19.2529 20.055 19.4897 19.6374 19.8415 18.9437C20.2952 18.0495 20.7325 16.9317 20.7325 16.9317C20.7325 16.9317 20.7719 17.2045 20.9067 17.6582C20.9856 17.9245 21.1499 18.2172 21.2815 18.4999C21.1763 18.6479 21.1105 18.73 21.1105 18.73L21.1138 18.7333C21.0283 18.8451 20.9363 18.9667 20.8343 19.0852C20.4759 19.5125 20.0486 20.0025 19.9894 20.1438C19.9203 20.3114 19.9368 20.4331 20.0683 20.5318C20.1637 20.6041 20.3346 20.6139 20.5089 20.6041C20.8311 20.581 21.0579 20.5021 21.1697 20.4529C21.344 20.3904 21.5478 20.295 21.7384 20.1536C22.0903 19.8939 22.3039 19.5224 22.2842 19.0326C22.2744 18.7629 22.1856 18.4933 22.0771 18.2401C22.11 18.1942 22.1396 18.1481 22.1725 18.1021C22.7281 17.29 23.1588 16.399 23.1588 16.399C23.1588 16.399 23.1983 16.6718 23.333 17.1256C23.3988 17.3558 23.5336 17.6056 23.6519 17.8489C23.1292 18.2731 22.807 18.7662 22.6919 19.0884C22.4848 19.6868 22.6459 19.9564 22.9517 20.0188C23.0897 20.0484 23.287 19.9827 23.4317 19.9202C23.6158 19.861 23.8328 19.7591 24.0399 19.6078C24.3918 19.3482 24.7303 18.9865 24.7106 18.4966C24.7007 18.2731 24.6416 18.0527 24.5594 17.839C25.0032 17.655 25.5753 17.553 26.3051 17.6385C27.8702 17.8226 28.1792 18.799 28.12 19.2101C28.0608 19.621 27.7321 19.8446 27.6236 19.9136C27.515 19.9827 27.4789 20.0057 27.4888 20.055C27.5019 20.1273 27.5545 20.1241 27.6466 20.1109C27.7748 20.0879 28.4686 19.7788 28.4981 19.0226C28.5475 18.056 27.6269 17.0007 25.9994 17.0106V17.0106ZM13.9267 21.0808C13.4072 21.6463 12.684 21.86 12.3716 21.6792C12.0363 21.4852 12.1678 20.6501 12.8056 20.0517C13.1935 19.6868 13.6933 19.3481 14.0254 19.141C14.101 19.095 14.2128 19.0293 14.3476 18.947C14.3706 18.9339 14.3838 18.9273 14.3838 18.9273L14.4627 18.8779C14.696 19.7328 14.4725 20.4857 13.9267 21.0808V21.0808ZM17.7077 18.5098C17.5268 18.9504 17.1488 20.078 16.9186 20.0156C16.7214 19.963 16.5997 19.1082 16.8792 18.2632C17.0205 17.839 17.3197 17.3327 17.494 17.1355C17.7767 16.8198 18.0891 16.7146 18.1646 16.8429C18.26 17.0106 17.8194 18.2336 17.7077 18.5098V18.5098ZM20.8278 20.0024C20.7521 20.0419 20.6799 20.0682 20.6469 20.0484C20.6239 20.0353 20.6799 19.9827 20.6799 19.9827C20.6799 19.9827 21.0711 19.5619 21.2256 19.3711C21.3144 19.2594 21.4195 19.1279 21.5314 18.9799V19.0226C21.5314 19.5257 21.0447 19.8643 20.8277 20.0024H20.8278ZM23.2344 19.4534C23.1785 19.4139 23.1884 19.2824 23.3758 18.8714C23.4481 18.7103 23.619 18.4407 23.9117 18.181C23.9445 18.2862 23.9676 18.3881 23.9643 18.4835C23.961 19.118 23.5073 19.3547 23.2344 19.4534Z" fill="#CD6799"/>
</g>
<path d="M40.0039 16.1973C39.0391 15.9199 38.3359 15.5801 37.8945 15.1777C37.457 14.7715 37.2383 14.2715 37.2383 13.6777C37.2383 13.0059 37.5059 12.4512 38.041 12.0137C38.5801 11.5723 39.2793 11.3516 40.1387 11.3516C40.7246 11.3516 41.2461 11.4648 41.7031 11.6914C42.1641 11.918 42.5195 12.2305 42.7695 12.6289C43.0234 13.0273 43.1504 13.4629 43.1504 13.9355H42.0195C42.0195 13.4199 41.8555 13.0156 41.5273 12.7227C41.1992 12.4258 40.7363 12.2773 40.1387 12.2773C39.584 12.2773 39.1504 12.4004 38.8379 12.6465C38.5293 12.8887 38.375 13.2266 38.375 13.6602C38.375 14.0078 38.5215 14.3027 38.8145 14.5449C39.1113 14.7832 39.6133 15.002 40.3203 15.2012C41.0312 15.4004 41.5859 15.6211 41.9844 15.8633C42.3867 16.1016 42.6836 16.3809 42.875 16.7012C43.0703 17.0215 43.168 17.3984 43.168 17.832C43.168 18.5234 42.8984 19.0781 42.3594 19.4961C41.8203 19.9102 41.0996 20.1172 40.1973 20.1172C39.6113 20.1172 39.0645 20.0059 38.5566 19.7832C38.0488 19.5566 37.6562 19.248 37.3789 18.8574C37.1055 18.4668 36.9688 18.0234 36.9688 17.5273H38.0996C38.0996 18.043 38.2891 18.4512 38.668 18.752C39.0508 19.0488 39.5605 19.1973 40.1973 19.1973C40.791 19.1973 41.2461 19.0762 41.5625 18.834C41.8789 18.5918 42.0371 18.2617 42.0371 17.8438C42.0371 17.4258 41.8906 17.1035 41.5977 16.877C41.3047 16.6465 40.7734 16.4199 40.0039 16.1973ZM48.3594 20C48.2969 19.875 48.2461 19.6523 48.207 19.332C47.7031 19.8555 47.1016 20.1172 46.4023 20.1172C45.7773 20.1172 45.2637 19.9414 44.8613 19.5898C44.4629 19.2344 44.2637 18.7852 44.2637 18.2422C44.2637 17.582 44.5137 17.0703 45.0137 16.707C45.5176 16.3398 46.2246 16.1562 47.1348 16.1562H48.1895V15.6582C48.1895 15.2793 48.0762 14.9785 47.8496 14.7559C47.623 14.5293 47.2891 14.416 46.8477 14.416C46.4609 14.416 46.1367 14.5137 45.875 14.709C45.6133 14.9043 45.4824 15.1406 45.4824 15.418H44.3926C44.3926 15.1016 44.5039 14.7969 44.7266 14.5039C44.9531 14.207 45.2578 13.9727 45.6406 13.8008C46.0273 13.6289 46.4512 13.543 46.9121 13.543C47.6426 13.543 48.2148 13.7266 48.6289 14.0938C49.043 14.457 49.2578 14.959 49.2734 15.5996V18.5176C49.2734 19.0996 49.3477 19.5625 49.4961 19.9062V20H48.3594ZM46.5605 19.1738C46.9004 19.1738 47.2227 19.0859 47.5273 18.9102C47.832 18.7344 48.0527 18.5059 48.1895 18.2246V16.9238H47.3398C46.0117 16.9238 45.3477 17.3125 45.3477 18.0898C45.3477 18.4297 45.4609 18.6953 45.6875 18.8867C45.9141 19.0781 46.2051 19.1738 46.5605 19.1738ZM54.6641 18.3184C54.6641 18.0254 54.5527 17.7988 54.3301 17.6387C54.1113 17.4746 53.7266 17.334 53.1758 17.2168C52.6289 17.0996 52.1934 16.959 51.8691 16.7949C51.5488 16.6309 51.3105 16.4355 51.1543 16.209C51.002 15.9824 50.9258 15.7129 50.9258 15.4004C50.9258 14.8809 51.1445 14.4414 51.582 14.082C52.0234 13.7227 52.5859 13.543 53.2695 13.543C53.9883 13.543 54.5703 13.7285 55.0156 14.0996C55.4648 14.4707 55.6895 14.9453 55.6895 15.5234H54.5996C54.5996 15.2266 54.4727 14.9707 54.2188 14.7559C53.9688 14.541 53.6523 14.4336 53.2695 14.4336C52.875 14.4336 52.5664 14.5195 52.3438 14.6914C52.1211 14.8633 52.0098 15.0879 52.0098 15.3652C52.0098 15.627 52.1133 15.8242 52.3203 15.957C52.5273 16.0898 52.9004 16.2168 53.4395 16.3379C53.9824 16.459 54.4219 16.6035 54.7578 16.7715C55.0938 16.9395 55.3418 17.1426 55.502 17.3809C55.666 17.6152 55.748 17.9023 55.748 18.2422C55.748 18.8086 55.5215 19.2637 55.0684 19.6074C54.6152 19.9473 54.0273 20.1172 53.3047 20.1172C52.7969 20.1172 52.3477 20.0273 51.957 19.8477C51.5664 19.668 51.2598 19.418 51.0371 19.0977C50.8184 18.7734 50.709 18.4238 50.709 18.0488H51.793C51.8125 18.4121 51.957 18.7012 52.2266 18.916C52.5 19.127 52.8594 19.2324 53.3047 19.2324C53.7148 19.2324 54.043 19.1504 54.2891 18.9863C54.5391 18.8184 54.6641 18.5957 54.6641 18.3184ZM60.8516 18.3184C60.8516 18.0254 60.7402 17.7988 60.5176 17.6387C60.2988 17.4746 59.9141 17.334 59.3633 17.2168C58.8164 17.0996 58.3809 16.959 58.0566 16.7949C57.7363 16.6309 57.498 16.4355 57.3418 16.209C57.1895 15.9824 57.1133 15.7129 57.1133 15.4004C57.1133 14.8809 57.332 14.4414 57.7695 14.082C58.2109 13.7227 58.7734 13.543 59.457 13.543C60.1758 13.543 60.7578 13.7285 61.2031 14.0996C61.6523 14.4707 61.877 14.9453 61.877 15.5234H60.7871C60.7871 15.2266 60.6602 14.9707 60.4062 14.7559C60.1562 14.541 59.8398 14.4336 59.457 14.4336C59.0625 14.4336 58.7539 14.5195 58.5312 14.6914C58.3086 14.8633 58.1973 15.0879 58.1973 15.3652C58.1973 15.627 58.3008 15.8242 58.5078 15.957C58.7148 16.0898 59.0879 16.2168 59.627 16.3379C60.1699 16.459 60.6094 16.6035 60.9453 16.7715C61.2812 16.9395 61.5293 17.1426 61.6895 17.3809C61.8535 17.6152 61.9355 17.9023 61.9355 18.2422C61.9355 18.8086 61.709 19.2637 61.2559 19.6074C60.8027 19.9473 60.2148 20.1172 59.4922 20.1172C58.9844 20.1172 58.5352 20.0273 58.1445 19.8477C57.7539 19.668 57.4473 19.418 57.2246 19.0977C57.0059 18.7734 56.8965 18.4238 56.8965 18.0488H57.9805C58 18.4121 58.1445 18.7012 58.4141 18.916C58.6875 19.127 59.0469 19.2324 59.4922 19.2324C59.9023 19.2324 60.2305 19.1504 60.4766 18.9863C60.7266 18.8184 60.8516 18.5957 60.8516 18.3184Z" fill="#22272E"/>
</g>
<defs>
<filter id="filter0_d" x="0.5" y="0" width="73" height="36" filterUnits="userSpaceOnUse" color-interpolation-filters="sRGB">
<feFlood flood-opacity="0" result="BackgroundImageFix"/>
<feColorMatrix in="SourceAlpha" type="matrix" values="0 0 0 0 0 0 0 0 0 0 0 0 0 0 0 0 0 0 127 0" result="hardAlpha"/>
<feOffset dy="2"/>
<feGaussianBlur stdDeviation="1"/>
<feComposite in2="hardAlpha" operator="out"/>
<feColorMatrix type="matrix" values="0 0 0 0 0 0 0 0 0 0 0 0 0 0 0 0 0 0 0.25 0"/>
<feBlend mode="normal" in2="BackgroundImageFix" result="effect1_dropShadow"/>
<feBlend mode="normal" in="SourceGraphic" in2="effect1_dropShadow" result="shape"/>
</filter>
<clipPath id="clip0">
<rect width="18" height="18" fill="white" transform="translate(10.5 7)"/>
</clipPath>
</defs>
</svg>
