<svg width="95" height="45" viewBox="0 0 95 45" fill="none" xmlns="http://www.w3.org/2000/svg">
<path d="M1 4C1 2.34314 2.34315 1 4 1H91C92.6569 1 94 2.34315 94 4V41C94 42.6569 92.6569 44 91 44H4C2.34315 44 1 42.6569 1 41V4Z" fill="#22272E"/>
<g clip-path="url(#clip0)">
<path d="M23.4893 25.9571C23.4808 25.974 23.4724 25.9875 23.4893 25.9571V25.9571ZM30.4958 23.5103C29.9299 23.5103 29.3719 23.6396 28.8645 23.8899C28.6986 23.5553 28.527 23.2628 28.4989 23.0434C28.4651 22.7874 28.4286 22.6356 28.4679 22.3318C28.5073 22.0281 28.6845 21.5978 28.6817 21.5668C28.6789 21.5359 28.6423 21.3812 28.2795 21.3784C27.9167 21.3756 27.6045 21.4487 27.5679 21.5443C27.5037 21.719 27.4539 21.8987 27.4189 22.0815C27.3542 22.4106 26.6938 23.5862 26.3198 24.1993C26.196 23.9603 26.0919 23.7493 26.0694 23.5806C26.0357 23.3246 25.9991 23.1728 26.0385 22.869C26.0779 22.5653 26.2551 22.1349 26.2523 22.104C26.2494 22.0731 26.2129 21.9184 25.8506 21.9156C25.4884 21.9128 25.1756 21.9859 25.1391 22.0815C25.1025 22.1771 25.0631 22.4021 24.99 22.6187C24.9169 22.8353 24.0366 24.7928 23.8065 25.3018C23.6884 25.5606 23.5871 25.7687 23.514 25.9093C23.5028 25.9318 23.4943 25.9459 23.4887 25.9571C23.4971 25.9431 23.5028 25.929 23.5028 25.9346C23.4409 26.0556 23.4043 26.1231 23.4043 26.1231V26.1259C23.3565 26.2159 23.3031 26.2974 23.2778 26.2974C23.2609 26.2974 23.2243 26.0612 23.2862 25.7378C23.4184 25.0571 23.7306 23.9996 23.7278 23.9631C23.7249 23.9434 23.7868 23.7606 23.5224 23.6621C23.2665 23.5693 23.1737 23.724 23.1512 23.724C23.1287 23.724 23.1118 23.7803 23.1118 23.7803C23.1118 23.7803 23.3959 22.5878 22.5662 22.5878C22.0487 22.5878 21.3287 23.1559 20.9749 23.6706C20.7527 23.7915 20.2718 24.0531 19.7655 24.3315L19.1833 24.6521C19.1693 24.6381 19.158 24.624 19.1439 24.6099C18.1371 23.5356 16.2786 22.7762 16.3573 21.3334C16.3854 20.8074 16.5683 19.4265 19.9314 17.7503C22.6877 16.3778 24.891 16.7546 25.2707 17.5928C25.8163 18.7881 24.0923 21.0128 21.2303 21.3334C20.139 21.4543 19.5658 21.0324 19.4224 20.8749C19.2733 20.709 19.2508 20.7006 19.1946 20.7315C19.1018 20.7821 19.1608 20.9284 19.1946 21.0156C19.2789 21.2378 19.6305 21.6315 20.2296 21.8284C20.7555 21.9999 22.0346 22.0956 23.5809 21.4965C25.3185 20.8271 26.6713 18.9624 26.2742 17.4015C25.8703 15.8153 23.2401 15.2949 20.7533 16.1781C19.2711 16.704 17.6685 17.5309 16.5159 18.6081C15.1463 19.8906 14.9274 21.0071 15.0174 21.474C15.3381 23.1306 17.6213 24.2106 18.5348 25.0093L18.4082 25.0796C17.9498 25.3074 16.2094 26.2187 15.7734 27.1806C15.2813 28.2718 15.855 29.0537 16.2313 29.1606C17.4069 29.4868 18.6101 28.899 19.257 27.9343C19.9039 26.9696 19.8251 25.7096 19.527 25.1359C19.5242 25.1274 19.5186 25.1218 19.5158 25.1134C19.8532 24.9135 20.1936 24.7185 20.5367 24.5284C20.4242 24.8321 20.3426 25.1978 20.3004 25.7265C20.2498 26.3453 20.5058 27.1468 20.8376 27.4618C20.9839 27.5996 21.1605 27.6024 21.2708 27.6024C21.6589 27.6024 21.8333 27.2818 22.0273 26.8993C22.2664 26.4324 22.4773 25.8896 22.4773 25.8896C22.4773 25.8896 22.2129 27.3578 22.9358 27.3578C23.2001 27.3578 23.4645 27.0174 23.5826 26.8431V26.8459C23.5826 26.8459 23.5883 26.8346 23.6023 26.8121C23.6304 26.7699 23.6445 26.7446 23.6445 26.7446V26.7362C23.7514 26.5534 23.9848 26.1343 24.3364 25.4424C24.792 24.5481 25.2274 23.4315 25.2274 23.4315C25.2696 23.6768 25.3281 23.9192 25.4018 24.1571C25.4805 24.4243 25.6464 24.7168 25.7786 25.0009C25.6718 25.1471 25.6071 25.2315 25.6071 25.2315C25.6071 25.2338 25.6082 25.2354 25.6099 25.2371C25.5255 25.3496 25.4299 25.4706 25.3314 25.5887C24.972 26.0162 24.5439 26.5056 24.4877 26.6462C24.4202 26.8121 24.4371 26.9359 24.5664 27.0315C24.6621 27.1046 24.8308 27.1159 25.008 27.1018C25.3314 27.0793 25.5593 27.0006 25.6689 26.9499C25.8713 26.8775 26.0625 26.7771 26.2371 26.6518C26.5886 26.3931 26.8024 26.0218 26.7827 25.5324C26.7714 25.2624 26.6843 24.9924 26.5774 24.7393C26.6083 24.6943 26.6421 24.6465 26.673 24.5987C27.039 24.0526 27.3688 23.483 27.6602 22.8938C27.7024 23.139 27.7603 23.3814 27.8346 23.6194C27.9021 23.8472 28.0343 24.0975 28.1552 24.3422C27.6321 24.7669 27.3086 25.2591 27.1967 25.5825C26.9886 26.1816 27.1517 26.4516 27.4583 26.5134C27.5961 26.5416 27.7929 26.4769 27.9392 26.415C28.1563 26.3424 28.3611 26.2373 28.5461 26.1028C28.8977 25.8441 29.238 25.4813 29.2149 24.9891C29.2065 24.7669 29.1446 24.5447 29.0631 24.3309C29.5046 24.1453 30.0784 24.0441 30.8096 24.1284C32.3756 24.3113 32.6822 25.29 32.6231 25.6978C32.5641 26.1056 32.235 26.3334 32.1253 26.4009C32.0156 26.4684 31.9819 26.4938 31.9903 26.5444C32.0044 26.6175 32.055 26.6147 32.1478 26.5978C32.2772 26.5753 32.9691 26.2659 33 25.5094C33.045 24.5531 32.1253 23.5013 30.4969 23.5097L30.4958 23.5103ZM18.4251 27.5799C17.9076 28.1453 17.1825 28.359 16.8703 28.179C16.5356 27.9844 16.6678 27.1524 17.3057 26.55C17.6938 26.1844 18.1944 25.8469 18.5263 25.6388C18.6023 25.5938 18.7119 25.5263 18.8469 25.4447C18.8579 25.4377 18.8692 25.4311 18.8807 25.425C18.906 25.4081 18.9341 25.3941 18.9623 25.3772C19.1951 26.2322 18.9707 26.9859 18.4251 27.5794V27.5799ZM22.2039 25.0093C22.0239 25.4509 21.6448 26.5759 21.4136 26.5168C21.2168 26.4662 21.0958 25.6084 21.3743 24.7646C21.5149 24.3399 21.813 23.8337 21.9902 23.6368C22.2743 23.319 22.5864 23.2178 22.6596 23.3443C22.758 23.5103 22.3164 24.7337 22.2039 25.0093ZM25.3258 26.4999C25.2499 26.5393 25.1796 26.5646 25.1458 26.5449C25.1205 26.5309 25.1768 26.4774 25.1768 26.4774C25.1768 26.4774 25.5677 26.0584 25.7224 25.8671C25.8124 25.7546 25.9164 25.6224 26.0289 25.4762C26.0289 25.4903 26.0318 25.5043 26.0318 25.5212C26.0284 26.0246 25.5446 26.3649 25.3253 26.4999H25.3258ZM27.7333 25.9515C27.6771 25.9121 27.6855 25.7799 27.8739 25.3693C27.9471 25.209 28.1158 24.939 28.4083 24.6803C28.4415 24.7781 28.4595 24.8805 28.4618 24.984C28.4589 25.6168 28.0061 25.8531 27.7333 25.9515V25.9515Z" fill="#ADBAC7"/>
</g>
<path d="M45.9453 28.5469V27C46.1224 27.1562 46.3333 27.2969 46.5781 27.4219C46.8281 27.5469 47.0885 27.6536 47.3594 27.7422C47.6354 27.8255 47.9115 27.8906 48.1875 27.9375C48.4635 27.9844 48.7188 28.0078 48.9531 28.0078C49.7604 28.0078 50.362 27.8594 50.7578 27.5625C51.1589 27.2604 51.3594 26.8281 51.3594 26.2656C51.3594 25.9635 51.2917 25.7005 51.1562 25.4766C51.026 25.2526 50.8438 25.0495 50.6094 24.8672C50.375 24.6797 50.0964 24.5026 49.7734 24.3359C49.4557 24.1641 49.112 23.9844 48.7422 23.7969C48.3516 23.599 47.987 23.3984 47.6484 23.1953C47.3099 22.9922 47.0156 22.7682 46.7656 22.5234C46.5156 22.2786 46.3177 22.0026 46.1719 21.6953C46.0312 21.3828 45.9609 21.0182 45.9609 20.6016C45.9609 20.0911 46.0729 19.6484 46.2969 19.2734C46.5208 18.8932 46.8151 18.5807 47.1797 18.3359C47.5443 18.0911 47.9583 17.9089 48.4219 17.7891C48.8906 17.6693 49.3672 17.6094 49.8516 17.6094C50.9557 17.6094 51.7604 17.7422 52.2656 18.0078V19.4844C51.6042 19.026 50.7552 18.7969 49.7188 18.7969C49.4323 18.7969 49.1458 18.8281 48.8594 18.8906C48.5729 18.9479 48.3177 19.0443 48.0938 19.1797C47.8698 19.3151 47.6875 19.4896 47.5469 19.7031C47.4062 19.9167 47.3359 20.1771 47.3359 20.4844C47.3359 20.7708 47.388 21.0182 47.4922 21.2266C47.6016 21.4349 47.7604 21.625 47.9688 21.7969C48.1771 21.9688 48.4297 22.1354 48.7266 22.2969C49.0286 22.4583 49.375 22.6354 49.7656 22.8281C50.1667 23.026 50.5469 23.2344 50.9062 23.4531C51.2656 23.6719 51.5807 23.9141 51.8516 24.1797C52.1224 24.4453 52.3359 24.7396 52.4922 25.0625C52.6536 25.3854 52.7344 25.7552 52.7344 26.1719C52.7344 26.724 52.625 27.1927 52.4062 27.5781C52.1927 27.9583 51.901 28.2682 51.5312 28.5078C51.1667 28.7474 50.7448 28.9193 50.2656 29.0234C49.7865 29.1328 49.2812 29.1875 48.75 29.1875C48.5729 29.1875 48.3542 29.1719 48.0938 29.1406C47.8333 29.1146 47.5677 29.0729 47.2969 29.0156C47.026 28.9635 46.7682 28.8984 46.5234 28.8203C46.2839 28.737 46.0911 28.6458 45.9453 28.5469ZM60.5234 29H59.2422V27.75H59.2109C58.6536 28.7083 57.8333 29.1875 56.75 29.1875C55.9531 29.1875 55.3281 28.9766 54.875 28.5547C54.4271 28.1328 54.2031 27.5729 54.2031 26.875C54.2031 25.3802 55.0833 24.5104 56.8438 24.2656L59.2422 23.9297C59.2422 22.5703 58.6927 21.8906 57.5938 21.8906C56.6302 21.8906 55.7604 22.2188 54.9844 22.875V21.5625C55.7708 21.0625 56.6771 20.8125 57.7031 20.8125C59.5833 20.8125 60.5234 21.8073 60.5234 23.7969V29ZM59.2422 24.9531L57.3125 25.2188C56.7188 25.3021 56.2708 25.4505 55.9688 25.6641C55.6667 25.8724 55.5156 26.2448 55.5156 26.7812C55.5156 27.1719 55.6536 27.4922 55.9297 27.7422C56.2109 27.987 56.5833 28.1094 57.0469 28.1094C57.6823 28.1094 58.2057 27.888 58.6172 27.4453C59.0339 26.9974 59.2422 26.4323 59.2422 25.75V24.9531ZM62.4531 28.7109V27.3359C63.151 27.8516 63.9193 28.1094 64.7578 28.1094C65.8828 28.1094 66.4453 27.7344 66.4453 26.9844C66.4453 26.7708 66.3958 26.5911 66.2969 26.4453C66.2031 26.2943 66.0729 26.1615 65.9062 26.0469C65.7448 25.9323 65.5521 25.8307 65.3281 25.7422C65.1094 25.6484 64.8724 25.5521 64.6172 25.4531C64.263 25.3125 63.9505 25.1719 63.6797 25.0312C63.4141 24.8854 63.1901 24.724 63.0078 24.5469C62.8307 24.3646 62.6953 24.1589 62.6016 23.9297C62.513 23.7005 62.4688 23.4323 62.4688 23.125C62.4688 22.75 62.5547 22.4193 62.7266 22.1328C62.8984 21.8411 63.1276 21.599 63.4141 21.4062C63.7005 21.2083 64.026 21.0599 64.3906 20.9609C64.7604 20.862 65.1406 20.8125 65.5312 20.8125C66.224 20.8125 66.8438 20.9323 67.3906 21.1719V22.4688C66.8021 22.0833 66.125 21.8906 65.3594 21.8906C65.1198 21.8906 64.9036 21.9193 64.7109 21.9766C64.5182 22.0286 64.3516 22.1042 64.2109 22.2031C64.0755 22.3021 63.9688 22.4219 63.8906 22.5625C63.8177 22.6979 63.7812 22.849 63.7812 23.0156C63.7812 23.224 63.8177 23.3984 63.8906 23.5391C63.9688 23.6797 64.0807 23.8047 64.2266 23.9141C64.3724 24.0234 64.5495 24.1224 64.7578 24.2109C64.9661 24.2995 65.2031 24.3958 65.4688 24.5C65.8229 24.6354 66.1406 24.776 66.4219 24.9219C66.7031 25.0625 66.9427 25.224 67.1406 25.4062C67.3385 25.5833 67.4896 25.7891 67.5938 26.0234C67.7031 26.2578 67.7578 26.5365 67.7578 26.8594C67.7578 27.2552 67.6693 27.599 67.4922 27.8906C67.3203 28.1823 67.0885 28.4245 66.7969 28.6172C66.5052 28.8099 66.1693 28.9531 65.7891 29.0469C65.4089 29.1406 65.0104 29.1875 64.5938 29.1875C63.7708 29.1875 63.0573 29.0286 62.4531 28.7109ZM69.25 28.7109V27.3359C69.9479 27.8516 70.7161 28.1094 71.5547 28.1094C72.6797 28.1094 73.2422 27.7344 73.2422 26.9844C73.2422 26.7708 73.1927 26.5911 73.0938 26.4453C73 26.2943 72.8698 26.1615 72.7031 26.0469C72.5417 25.9323 72.349 25.8307 72.125 25.7422C71.9062 25.6484 71.6693 25.5521 71.4141 25.4531C71.0599 25.3125 70.7474 25.1719 70.4766 25.0312C70.2109 24.8854 69.987 24.724 69.8047 24.5469C69.6276 24.3646 69.4922 24.1589 69.3984 23.9297C69.3099 23.7005 69.2656 23.4323 69.2656 23.125C69.2656 22.75 69.3516 22.4193 69.5234 22.1328C69.6953 21.8411 69.9245 21.599 70.2109 21.4062C70.4974 21.2083 70.8229 21.0599 71.1875 20.9609C71.5573 20.862 71.9375 20.8125 72.3281 20.8125C73.0208 20.8125 73.6406 20.9323 74.1875 21.1719V22.4688C73.599 22.0833 72.9219 21.8906 72.1562 21.8906C71.9167 21.8906 71.7005 21.9193 71.5078 21.9766C71.3151 22.0286 71.1484 22.1042 71.0078 22.2031C70.8724 22.3021 70.7656 22.4219 70.6875 22.5625C70.6146 22.6979 70.5781 22.849 70.5781 23.0156C70.5781 23.224 70.6146 23.3984 70.6875 23.5391C70.7656 23.6797 70.8776 23.8047 71.0234 23.9141C71.1693 24.0234 71.3464 24.1224 71.5547 24.2109C71.763 24.2995 72 24.3958 72.2656 24.5C72.6198 24.6354 72.9375 24.776 73.2188 24.9219C73.5 25.0625 73.7396 25.224 73.9375 25.4062C74.1354 25.5833 74.2865 25.7891 74.3906 26.0234C74.5 26.2578 74.5547 26.5365 74.5547 26.8594C74.5547 27.2552 74.4661 27.599 74.2891 27.8906C74.1172 28.1823 73.8854 28.4245 73.5938 28.6172C73.3021 28.8099 72.9661 28.9531 72.5859 29.0469C72.2057 29.1406 71.8073 29.1875 71.3906 29.1875C70.5677 29.1875 69.8542 29.0286 69.25 28.7109Z" fill="#ADBAC7"/>
<path d="M4 2H91V0H4V2ZM93 4V41H95V4H93ZM91 43H4V45H91V43ZM2 41V4H0V41H2ZM4 43C2.89543 43 2 42.1046 2 41H0C0 43.2091 1.79086 45 4 45V43ZM93 41C93 42.1046 92.1046 43 91 43V45C93.2091 45 95 43.2091 95 41H93ZM91 2C92.1046 2 93 2.89543 93 4H95C95 1.79086 93.2091 0 91 0V2ZM4 0C1.79086 0 0 1.79086 0 4H2C2 2.89543 2.89543 2 4 2V0Z" fill="#444C56"/>
<defs>
<clipPath id="clip0">
<rect width="18" height="18" fill="white" transform="translate(15 13.5)"/>
</clipPath>
</defs>
</svg>
