<svg width="79" height="39" viewBox="0 0 79 39" fill="none" xmlns="http://www.w3.org/2000/svg">
<path d="M1 4C1 2.34315 2.34315 1 4 1H75C76.6569 1 78 2.34315 78 4V35C78 36.6569 76.6569 38 75 38H4C2.34315 38 1 36.6569 1 35V4Z" fill="#22272E"/>
<g clip-path="url(#clip0)">
<path d="M19.4893 22.9571C19.4808 22.974 19.4724 22.9875 19.4893 22.9571V22.9571ZM26.4958 20.5103C25.9299 20.5103 25.3719 20.6396 24.8645 20.8899C24.6986 20.5553 24.527 20.2628 24.4989 20.0434C24.4651 19.7874 24.4286 19.6356 24.4679 19.3318C24.5073 19.0281 24.6845 18.5978 24.6817 18.5668C24.6789 18.5359 24.6423 18.3812 24.2795 18.3784C23.9167 18.3756 23.6045 18.4487 23.5679 18.5443C23.5037 18.719 23.4539 18.8987 23.4189 19.0815C23.3542 19.4106 22.6938 20.5862 22.3198 21.1993C22.196 20.9603 22.0919 20.7493 22.0694 20.5806C22.0357 20.3246 21.9991 20.1728 22.0385 19.869C22.0779 19.5653 22.2551 19.1349 22.2523 19.104C22.2494 19.0731 22.2129 18.9184 21.8506 18.9156C21.4884 18.9128 21.1756 18.9859 21.1391 19.0815C21.1025 19.1771 21.0631 19.4021 20.99 19.6187C20.9169 19.8353 20.0366 21.7928 19.8065 22.3018C19.6884 22.5606 19.5871 22.7687 19.514 22.9093C19.5028 22.9318 19.4943 22.9459 19.4887 22.9571C19.4971 22.9431 19.5028 22.929 19.5028 22.9346C19.4409 23.0556 19.4043 23.1231 19.4043 23.1231V23.1259C19.3565 23.2159 19.3031 23.2974 19.2778 23.2974C19.2609 23.2974 19.2243 23.0612 19.2862 22.7378C19.4184 22.0571 19.7306 20.9996 19.7278 20.9631C19.7249 20.9434 19.7868 20.7606 19.5224 20.6621C19.2665 20.5693 19.1737 20.724 19.1512 20.724C19.1287 20.724 19.1118 20.7803 19.1118 20.7803C19.1118 20.7803 19.3959 19.5878 18.5662 19.5878C18.0487 19.5878 17.3287 20.1559 16.9749 20.6706C16.7527 20.7915 16.2718 21.0531 15.7655 21.3315L15.1833 21.6521C15.1693 21.6381 15.158 21.624 15.1439 21.6099C14.1371 20.5356 12.2786 19.7762 12.3573 18.3334C12.3854 17.8074 12.5683 16.4265 15.9314 14.7503C18.6877 13.3778 20.891 13.7546 21.2707 14.5928C21.8163 15.7881 20.0923 18.0128 17.2303 18.3334C16.139 18.4543 15.5658 18.0324 15.4224 17.8749C15.2733 17.709 15.2508 17.7006 15.1946 17.7315C15.1018 17.7821 15.1608 17.9284 15.1946 18.0156C15.2789 18.2378 15.6305 18.6315 16.2296 18.8284C16.7555 18.9999 18.0346 19.0956 19.5809 18.4965C21.3185 17.8271 22.6713 15.9624 22.2742 14.4015C21.8703 12.8153 19.2401 12.2949 16.7533 13.1781C15.2711 13.704 13.6685 14.5309 12.5159 15.6081C11.1463 16.8906 10.9274 18.0071 11.0174 18.474C11.3381 20.1306 13.6213 21.2106 14.5348 22.0093L14.4082 22.0796C13.9498 22.3074 12.2094 23.2187 11.7734 24.1806C11.2813 25.2718 11.855 26.0537 12.2313 26.1606C13.4069 26.4868 14.6101 25.899 15.257 24.9343C15.9039 23.9696 15.8251 22.7096 15.527 22.1359C15.5242 22.1274 15.5186 22.1218 15.5158 22.1134C15.8532 21.9135 16.1936 21.7185 16.5367 21.5284C16.4242 21.8321 16.3426 22.1978 16.3004 22.7265C16.2498 23.3453 16.5058 24.1468 16.8376 24.4618C16.9839 24.5996 17.1605 24.6024 17.2708 24.6024C17.6589 24.6024 17.8333 24.2818 18.0273 23.8993C18.2664 23.4324 18.4773 22.8896 18.4773 22.8896C18.4773 22.8896 18.2129 24.3578 18.9358 24.3578C19.2001 24.3578 19.4645 24.0174 19.5826 23.8431V23.8459C19.5826 23.8459 19.5883 23.8346 19.6023 23.8121C19.6304 23.7699 19.6445 23.7446 19.6445 23.7446V23.7362C19.7514 23.5534 19.9848 23.1343 20.3364 22.4424C20.792 21.5481 21.2274 20.4315 21.2274 20.4315C21.2696 20.6768 21.3281 20.9192 21.4018 21.1571C21.4805 21.4243 21.6464 21.7168 21.7786 22.0009C21.6718 22.1471 21.6071 22.2315 21.6071 22.2315C21.6071 22.2338 21.6082 22.2354 21.6099 22.2371C21.5255 22.3496 21.4299 22.4706 21.3314 22.5887C20.972 23.0162 20.5439 23.5056 20.4877 23.6462C20.4202 23.8121 20.4371 23.9359 20.5664 24.0315C20.6621 24.1046 20.8308 24.1159 21.008 24.1018C21.3314 24.0793 21.5593 24.0006 21.6689 23.9499C21.8713 23.8775 22.0625 23.7771 22.2371 23.6518C22.5886 23.3931 22.8024 23.0218 22.7827 22.5324C22.7714 22.2624 22.6843 21.9924 22.5774 21.7393C22.6083 21.6943 22.6421 21.6465 22.673 21.5987C23.039 21.0526 23.3688 20.483 23.6602 19.8938C23.7024 20.139 23.7603 20.3814 23.8346 20.6194C23.9021 20.8472 24.0343 21.0975 24.1552 21.3422C23.6321 21.7669 23.3086 22.2591 23.1967 22.5825C22.9886 23.1816 23.1517 23.4516 23.4583 23.5134C23.5961 23.5416 23.7929 23.4769 23.9392 23.415C24.1563 23.3424 24.3611 23.2373 24.5461 23.1028C24.8977 22.8441 25.238 22.4813 25.2149 21.9891C25.2065 21.7669 25.1446 21.5447 25.0631 21.3309C25.5046 21.1453 26.0784 21.0441 26.8096 21.1284C28.3756 21.3113 28.6822 22.29 28.6231 22.6978C28.5641 23.1056 28.235 23.3334 28.1253 23.4009C28.0156 23.4684 27.9819 23.4938 27.9903 23.5444C28.0044 23.6175 28.055 23.6147 28.1478 23.5978C28.2772 23.5753 28.9691 23.2659 29 22.5094C29.045 21.5531 28.1253 20.5013 26.4969 20.5097L26.4958 20.5103ZM14.4251 24.5799C13.9076 25.1453 13.1825 25.359 12.8703 25.179C12.5356 24.9844 12.6678 24.1524 13.3057 23.55C13.6938 23.1844 14.1944 22.8469 14.5263 22.6388C14.6023 22.5938 14.7119 22.5263 14.8469 22.4447C14.8579 22.4377 14.8692 22.4311 14.8807 22.425C14.906 22.4081 14.9341 22.3941 14.9623 22.3772C15.1951 23.2322 14.9707 23.9859 14.4251 24.5794V24.5799ZM18.2039 22.0093C18.0239 22.4509 17.6448 23.5759 17.4136 23.5168C17.2168 23.4662 17.0958 22.6084 17.3743 21.7646C17.5149 21.3399 17.813 20.8337 17.9902 20.6368C18.2743 20.319 18.5864 20.2178 18.6596 20.3443C18.758 20.5103 18.3164 21.7337 18.2039 22.0093ZM21.3258 23.4999C21.2499 23.5393 21.1796 23.5646 21.1458 23.5449C21.1205 23.5309 21.1768 23.4774 21.1768 23.4774C21.1768 23.4774 21.5677 23.0584 21.7224 22.8671C21.8124 22.7546 21.9164 22.6224 22.0289 22.4762C22.0289 22.4903 22.0318 22.5043 22.0318 22.5212C22.0284 23.0246 21.5446 23.3649 21.3253 23.4999H21.3258ZM23.7333 22.9515C23.6771 22.9121 23.6855 22.7799 23.8739 22.3693C23.9471 22.209 24.1158 21.939 24.4083 21.6803C24.4415 21.7781 24.4595 21.8805 24.4618 21.984C24.4589 22.6168 24.0061 22.8531 23.7333 22.9515V22.9515Z" fill="#ADBAC7"/>
</g>
<path d="M41.8271 24.6035V23.25C41.9821 23.3867 42.1667 23.5098 42.3809 23.6191C42.5996 23.7285 42.8275 23.8219 43.0645 23.8994C43.306 23.9723 43.5475 24.0293 43.7891 24.0703C44.0306 24.1113 44.2539 24.1318 44.459 24.1318C45.1654 24.1318 45.6917 24.002 46.0381 23.7422C46.389 23.4779 46.5645 23.0996 46.5645 22.6074C46.5645 22.3431 46.5052 22.113 46.3867 21.917C46.2728 21.721 46.1133 21.5433 45.9082 21.3838C45.7031 21.2197 45.4593 21.0648 45.1768 20.9189C44.8988 20.7686 44.598 20.6113 44.2744 20.4473C43.9326 20.2741 43.6136 20.0986 43.3174 19.9209C43.0212 19.7432 42.7637 19.5472 42.5449 19.333C42.3262 19.1188 42.153 18.8773 42.0254 18.6084C41.9023 18.335 41.8408 18.016 41.8408 17.6514C41.8408 17.2048 41.9388 16.8174 42.1348 16.4893C42.3307 16.1566 42.5882 15.8831 42.9072 15.6689C43.2262 15.4548 43.5885 15.2952 43.9941 15.1904C44.4043 15.0856 44.8213 15.0332 45.2451 15.0332C46.2113 15.0332 46.9154 15.1494 47.3574 15.3818V16.6738C46.7786 16.2728 46.0358 16.0723 45.1289 16.0723C44.8783 16.0723 44.6276 16.0996 44.377 16.1543C44.1263 16.2044 43.903 16.2887 43.707 16.4072C43.5111 16.5257 43.3516 16.6784 43.2285 16.8652C43.1055 17.0521 43.0439 17.2799 43.0439 17.5488C43.0439 17.7995 43.0895 18.016 43.1807 18.1982C43.2764 18.3805 43.4154 18.5469 43.5977 18.6973C43.7799 18.8477 44.001 18.9935 44.2607 19.1348C44.5251 19.276 44.8281 19.431 45.1699 19.5996C45.5208 19.7728 45.8535 19.9551 46.168 20.1465C46.4824 20.3379 46.7581 20.5498 46.9951 20.7822C47.2321 21.0146 47.4189 21.2721 47.5557 21.5547C47.6969 21.8372 47.7676 22.1608 47.7676 22.5254C47.7676 23.0085 47.6719 23.4186 47.4805 23.7559C47.2936 24.0885 47.0384 24.3597 46.7148 24.5693C46.3958 24.779 46.0267 24.9294 45.6074 25.0205C45.1882 25.1162 44.7461 25.1641 44.2812 25.1641C44.1263 25.1641 43.9349 25.1504 43.707 25.123C43.4792 25.1003 43.2467 25.0638 43.0098 25.0137C42.7728 24.9681 42.5472 24.9111 42.333 24.8428C42.1234 24.7699 41.9548 24.6901 41.8271 24.6035ZM54.583 25H53.4619V23.9062H53.4346C52.9469 24.7448 52.2292 25.1641 51.2812 25.1641C50.584 25.1641 50.0371 24.9795 49.6406 24.6104C49.2487 24.2412 49.0527 23.7513 49.0527 23.1406C49.0527 21.8327 49.8229 21.0716 51.3633 20.8574L53.4619 20.5635C53.4619 19.374 52.9811 18.7793 52.0195 18.7793C51.1764 18.7793 50.4154 19.0664 49.7363 19.6406V18.4922C50.4245 18.0547 51.2174 17.8359 52.1152 17.8359C53.7604 17.8359 54.583 18.7064 54.583 20.4473V25ZM53.4619 21.459L51.7734 21.6914C51.2539 21.7643 50.862 21.8942 50.5977 22.0811C50.3333 22.2633 50.2012 22.5892 50.2012 23.0586C50.2012 23.4004 50.3219 23.6807 50.5635 23.8994C50.8096 24.1136 51.1354 24.2207 51.541 24.2207C52.097 24.2207 52.555 24.027 52.915 23.6396C53.2796 23.2477 53.4619 22.7533 53.4619 22.1562V21.459ZM56.2715 24.7471V23.5439C56.8822 23.9951 57.5544 24.2207 58.2881 24.2207C59.2725 24.2207 59.7646 23.8926 59.7646 23.2363C59.7646 23.0495 59.7214 22.8923 59.6348 22.7646C59.5527 22.6325 59.4388 22.5163 59.293 22.416C59.1517 22.3158 58.9831 22.2269 58.7871 22.1494C58.5957 22.0674 58.3883 21.9831 58.165 21.8965C57.8551 21.7734 57.5817 21.6504 57.3447 21.5273C57.1123 21.3997 56.9163 21.2585 56.7568 21.1035C56.6019 20.944 56.4834 20.764 56.4014 20.5635C56.3239 20.363 56.2852 20.1283 56.2852 19.8594C56.2852 19.5312 56.3604 19.2419 56.5107 18.9912C56.6611 18.736 56.8617 18.5241 57.1123 18.3555C57.363 18.1823 57.6478 18.0524 57.9668 17.9658C58.2904 17.8792 58.623 17.8359 58.9648 17.8359C59.571 17.8359 60.1133 17.9408 60.5918 18.1504V19.2852C60.0768 18.9479 59.4844 18.7793 58.8145 18.7793C58.6048 18.7793 58.4157 18.8044 58.2471 18.8545C58.0785 18.9001 57.9326 18.9661 57.8096 19.0527C57.6911 19.1393 57.5977 19.2441 57.5293 19.3672C57.4655 19.4857 57.4336 19.6178 57.4336 19.7637C57.4336 19.946 57.4655 20.0986 57.5293 20.2217C57.5977 20.3447 57.6956 20.4541 57.8232 20.5498C57.9508 20.6455 58.1058 20.7321 58.2881 20.8096C58.4704 20.887 58.6777 20.9714 58.9102 21.0625C59.2201 21.181 59.498 21.304 59.7441 21.4316C59.9902 21.5547 60.1999 21.696 60.373 21.8555C60.5462 22.0104 60.6784 22.1904 60.7695 22.3955C60.8652 22.6006 60.9131 22.8444 60.9131 23.127C60.9131 23.4733 60.8356 23.7741 60.6807 24.0293C60.5303 24.2845 60.3275 24.4964 60.0723 24.665C59.8171 24.8337 59.5231 24.959 59.1904 25.041C58.8577 25.123 58.5091 25.1641 58.1445 25.1641C57.4245 25.1641 56.8001 25.0251 56.2715 24.7471ZM62.2188 24.7471V23.5439C62.8294 23.9951 63.5016 24.2207 64.2354 24.2207C65.2197 24.2207 65.7119 23.8926 65.7119 23.2363C65.7119 23.0495 65.6686 22.8923 65.582 22.7646C65.5 22.6325 65.3861 22.5163 65.2402 22.416C65.099 22.3158 64.9303 22.2269 64.7344 22.1494C64.543 22.0674 64.3356 21.9831 64.1123 21.8965C63.8024 21.7734 63.529 21.6504 63.292 21.5273C63.0596 21.3997 62.8636 21.2585 62.7041 21.1035C62.5492 20.944 62.4307 20.764 62.3486 20.5635C62.2712 20.363 62.2324 20.1283 62.2324 19.8594C62.2324 19.5312 62.3076 19.2419 62.458 18.9912C62.6084 18.736 62.8089 18.5241 63.0596 18.3555C63.3102 18.1823 63.5951 18.0524 63.9141 17.9658C64.2376 17.8792 64.5703 17.8359 64.9121 17.8359C65.5182 17.8359 66.0605 17.9408 66.5391 18.1504V19.2852C66.0241 18.9479 65.4316 18.7793 64.7617 18.7793C64.5521 18.7793 64.363 18.8044 64.1943 18.8545C64.0257 18.9001 63.8799 18.9661 63.7568 19.0527C63.6383 19.1393 63.5449 19.2441 63.4766 19.3672C63.4128 19.4857 63.3809 19.6178 63.3809 19.7637C63.3809 19.946 63.4128 20.0986 63.4766 20.2217C63.5449 20.3447 63.6429 20.4541 63.7705 20.5498C63.8981 20.6455 64.0531 20.7321 64.2354 20.8096C64.4176 20.887 64.625 20.9714 64.8574 21.0625C65.1673 21.181 65.4453 21.304 65.6914 21.4316C65.9375 21.5547 66.1471 21.696 66.3203 21.8555C66.4935 22.0104 66.6257 22.1904 66.7168 22.3955C66.8125 22.6006 66.8604 22.8444 66.8604 23.127C66.8604 23.4733 66.7829 23.7741 66.6279 24.0293C66.4775 24.2845 66.2747 24.4964 66.0195 24.665C65.7643 24.8337 65.4704 24.959 65.1377 25.041C64.805 25.123 64.4564 25.1641 64.0918 25.1641C63.3717 25.1641 62.7474 25.0251 62.2188 24.7471Z" fill="#ADBAC7"/>
<path d="M4 2H75V0H4V2ZM77 4V35H79V4H77ZM75 37H4V39H75V37ZM2 35V4H0V35H2ZM4 37C2.89543 37 2 36.1046 2 35H0C0 37.2091 1.79086 39 4 39V37ZM77 35C77 36.1046 76.1046 37 75 37V39C77.2091 39 79 37.2091 79 35H77ZM75 2C76.1046 2 77 2.89543 77 4H79C79 1.79086 77.2091 0 75 0V2ZM4 0C1.79086 0 0 1.79086 0 4H2C2 2.89543 2.89543 2 4 2V0Z" fill="#ADBCA7"/>
<defs>
<clipPath id="clip0">
<rect width="18" height="18" fill="white" transform="translate(11 10.5)"/>
</clipPath>
</defs>
</svg>
