<svg width="65" height="28" viewBox="0 0 65 28" fill="none" xmlns="http://www.w3.org/2000/svg">
<g filter="url(#filter0_d)">
<path d="M2.5 5C2.5 2.23858 4.73858 0 7.5 0H57.5C60.2614 0 62.5 2.23858 62.5 5V19C62.5 21.7614 60.2614 24 57.5 24H7.5C4.73858 24 2.5 21.7614 2.5 19V5Z" fill="white"/>
<g clip-path="url(#clip0)">
<path d="M22.9994 13.0106C22.3715 13.0138 21.8257 13.165 21.3687 13.3886C21.201 13.0565 21.0333 12.7607 21.0038 12.5437C20.9708 12.2905 20.9314 12.136 20.9708 11.8335C21.0103 11.531 21.1879 11.1003 21.1846 11.0675C21.1813 11.0346 21.1451 10.88 20.7834 10.8768C20.4218 10.8735 20.1095 10.9458 20.0733 11.0412C20.0371 11.1365 19.9681 11.3535 19.9221 11.577C19.8596 11.9059 19.1988 13.0795 18.8207 13.6943C18.699 13.4544 18.5938 13.2439 18.5708 13.0763C18.5379 12.8232 18.4984 12.6686 18.5379 12.3661C18.5774 12.0637 18.7549 11.633 18.7516 11.6001C18.7483 11.5672 18.7121 11.4127 18.3505 11.4094C17.9888 11.4061 17.6765 11.4784 17.6404 11.5738C17.6042 11.6692 17.5647 11.8927 17.4891 12.1097C17.4135 12.3267 16.5357 14.2862 16.3055 14.7925C16.2125 14.9974 16.115 15.2002 16.0129 15.4008C16.0129 15.4008 16.0096 15.4106 15.9997 15.4271C15.9677 15.4899 15.9348 15.5524 15.9012 15.6145V15.6177C15.8518 15.7065 15.7992 15.7887 15.7729 15.7887C15.7532 15.7887 15.717 15.552 15.7795 15.2298C15.911 14.5492 16.2233 13.4906 16.2201 13.4544C16.2201 13.4347 16.2792 13.2506 16.0162 13.1552C15.7597 13.0598 15.6677 13.2176 15.6447 13.2176C15.6217 13.2176 15.6052 13.2736 15.6052 13.2736C15.6052 13.2736 15.8913 12.0834 15.0595 12.0834C14.54 12.0834 13.8233 12.6522 13.4682 13.165C13.0645 13.3847 12.6612 13.605 12.2583 13.8259C12.0644 13.9344 11.8638 14.0429 11.6764 14.1448C11.6632 14.1317 11.6501 14.1152 11.6369 14.1021C10.6308 13.027 8.77 12.2675 8.8489 10.8242C8.87851 10.2982 9.05929 8.91727 12.4227 7.24054C15.1909 5.87608 17.3938 6.25414 17.7752 7.09254C18.3209 8.28933 16.5949 10.5119 13.7345 10.834C12.643 10.9557 12.0709 10.5348 11.9263 10.377C11.775 10.2126 11.752 10.2028 11.696 10.2357C11.604 10.285 11.6632 10.433 11.696 10.5184C11.7816 10.7419 12.1333 11.1365 12.7284 11.3305C13.2545 11.5014 14.5334 11.5968 16.0819 10.9984C17.8146 10.3277 19.1692 8.46355 18.7714 6.90189C18.3735 5.31717 15.7433 4.79443 13.2545 5.6788C11.775 6.20493 10.1706 7.03339 9.01656 8.11179C7.64555 9.39397 7.42853 10.5085 7.5173 10.9754C7.83627 12.6324 10.1213 13.7108 11.0353 14.5098C10.9892 14.5361 10.9464 14.5591 10.9103 14.5789C10.4533 14.8057 8.71077 15.7163 8.2768 16.6797C7.78368 17.7712 8.35577 18.5538 8.73383 18.6589C9.90756 18.9844 11.1142 18.3992 11.7618 17.4326C12.4095 16.466 12.3306 15.21 12.0315 14.6347C12.0281 14.6281 12.0249 14.6215 12.0183 14.615C12.1366 14.5459 12.2583 14.4736 12.3767 14.4046C12.5942 14.2759 12.8146 14.1521 13.0375 14.033C12.9257 14.3388 12.8435 14.7037 12.8041 15.2298C12.7547 15.8479 13.0078 16.6501 13.3399 16.9657C13.4879 17.1039 13.6621 17.1071 13.774 17.1071C14.1619 17.1071 14.3362 16.7849 14.5302 16.4035C14.7668 15.9367 14.9806 15.3942 14.9806 15.3942C14.9806 15.3942 14.7142 16.8605 15.4376 16.8605C15.7006 16.8605 15.9669 16.5186 16.0853 16.3444V16.3476C16.0853 16.3476 16.0918 16.3377 16.105 16.3147C16.1313 16.272 16.1477 16.2456 16.1477 16.2456V16.2392C16.2529 16.055 16.4897 15.6374 16.8415 14.9437C17.2952 14.0495 17.7325 12.9317 17.7325 12.9317C17.7325 12.9317 17.7719 13.2045 17.9067 13.6582C17.9856 13.9245 18.1499 14.2172 18.2815 14.4999C18.1763 14.6479 18.1105 14.73 18.1105 14.73L18.1138 14.7333C18.0283 14.8451 17.9363 14.9667 17.8343 15.0852C17.4759 15.5125 17.0486 16.0025 16.9894 16.1438C16.9203 16.3114 16.9368 16.4331 17.0683 16.5318C17.1637 16.6041 17.3346 16.6139 17.5089 16.6041C17.8311 16.581 18.0579 16.5021 18.1697 16.4529C18.344 16.3904 18.5478 16.295 18.7384 16.1536C19.0903 15.8939 19.3039 15.5224 19.2842 15.0326C19.2744 14.7629 19.1856 14.4933 19.0771 14.2401C19.11 14.1942 19.1396 14.1481 19.1725 14.1021C19.7281 13.29 20.1588 12.399 20.1588 12.399C20.1588 12.399 20.1983 12.6718 20.333 13.1256C20.3988 13.3558 20.5336 13.6056 20.6519 13.8489C20.1292 14.2731 19.807 14.7662 19.6919 15.0884C19.4848 15.6868 19.6459 15.9564 19.9517 16.0188C20.0897 16.0484 20.287 15.9827 20.4317 15.9202C20.6158 15.861 20.8328 15.7591 21.0399 15.6078C21.3918 15.3482 21.7303 14.9865 21.7106 14.4966C21.7007 14.2731 21.6416 14.0527 21.5594 13.839C22.0032 13.655 22.5753 13.553 23.3051 13.6385C24.8702 13.8226 25.1792 14.799 25.12 15.2101C25.0608 15.621 24.7321 15.8446 24.6236 15.9136C24.515 15.9827 24.4789 16.0057 24.4888 16.055C24.5019 16.1273 24.5545 16.1241 24.6466 16.1109C24.7748 16.0879 25.4686 15.7788 25.4981 15.0226C25.5475 14.056 24.6269 13.0007 22.9994 13.0106V13.0106ZM10.9267 17.0808C10.4072 17.6463 9.68399 17.86 9.37164 17.6792C9.03631 17.4852 9.1678 16.6501 9.80561 16.0517C10.1935 15.6868 10.6933 15.3481 11.0254 15.141C11.101 15.095 11.2128 15.0293 11.3476 14.947C11.3706 14.9339 11.3838 14.9273 11.3838 14.9273L11.4627 14.8779C11.696 15.7328 11.4725 16.4857 10.9267 17.0808V17.0808ZM14.7077 14.5098C14.5268 14.9504 14.1488 16.078 13.9186 16.0156C13.7214 15.963 13.5997 15.1082 13.8792 14.2632C14.0205 13.839 14.3197 13.3327 14.494 13.1355C14.7767 12.8198 15.0891 12.7146 15.1646 12.8429C15.26 13.0106 14.8194 14.2336 14.7077 14.5098V14.5098ZM17.8278 16.0024C17.7521 16.0419 17.6799 16.0682 17.6469 16.0484C17.6239 16.0353 17.6799 15.9827 17.6799 15.9827C17.6799 15.9827 18.0711 15.5619 18.2256 15.3711C18.3144 15.2594 18.4195 15.1279 18.5314 14.9799V15.0226C18.5314 15.5257 18.0447 15.8643 17.8277 16.0024H17.8278ZM20.2344 15.4534C20.1785 15.4139 20.1884 15.2824 20.3758 14.8714C20.4481 14.7103 20.619 14.4407 20.9117 14.181C20.9445 14.2862 20.9676 14.3881 20.9643 14.4835C20.961 15.118 20.5073 15.3547 20.2344 15.4534Z" fill="#CD6799"/>
</g>
<path d="M34.0039 12.1973C33.0391 11.9199 32.3359 11.5801 31.8945 11.1777C31.457 10.7715 31.2383 10.2715 31.2383 9.67773C31.2383 9.00586 31.5059 8.45117 32.041 8.01367C32.5801 7.57227 33.2793 7.35156 34.1387 7.35156C34.7246 7.35156 35.2461 7.46484 35.7031 7.69141C36.1641 7.91797 36.5195 8.23047 36.7695 8.62891C37.0234 9.02734 37.1504 9.46289 37.1504 9.93555H36.0195C36.0195 9.41992 35.8555 9.01562 35.5273 8.72266C35.1992 8.42578 34.7363 8.27734 34.1387 8.27734C33.584 8.27734 33.1504 8.40039 32.8379 8.64648C32.5293 8.88867 32.375 9.22656 32.375 9.66016C32.375 10.0078 32.5215 10.3027 32.8145 10.5449C33.1113 10.7832 33.6133 11.002 34.3203 11.2012C35.0312 11.4004 35.5859 11.6211 35.9844 11.8633C36.3867 12.1016 36.6836 12.3809 36.875 12.7012C37.0703 13.0215 37.168 13.3984 37.168 13.832C37.168 14.5234 36.8984 15.0781 36.3594 15.4961C35.8203 15.9102 35.0996 16.1172 34.1973 16.1172C33.6113 16.1172 33.0645 16.0059 32.5566 15.7832C32.0488 15.5566 31.6562 15.248 31.3789 14.8574C31.1055 14.4668 30.9688 14.0234 30.9688 13.5273H32.0996C32.0996 14.043 32.2891 14.4512 32.668 14.752C33.0508 15.0488 33.5605 15.1973 34.1973 15.1973C34.791 15.1973 35.2461 15.0762 35.5625 14.834C35.8789 14.5918 36.0371 14.2617 36.0371 13.8438C36.0371 13.4258 35.8906 13.1035 35.5977 12.877C35.3047 12.6465 34.7734 12.4199 34.0039 12.1973ZM42.3594 16C42.2969 15.875 42.2461 15.6523 42.207 15.332C41.7031 15.8555 41.1016 16.1172 40.4023 16.1172C39.7773 16.1172 39.2637 15.9414 38.8613 15.5898C38.4629 15.2344 38.2637 14.7852 38.2637 14.2422C38.2637 13.582 38.5137 13.0703 39.0137 12.707C39.5176 12.3398 40.2246 12.1562 41.1348 12.1562H42.1895V11.6582C42.1895 11.2793 42.0762 10.9785 41.8496 10.7559C41.623 10.5293 41.2891 10.416 40.8477 10.416C40.4609 10.416 40.1367 10.5137 39.875 10.709C39.6133 10.9043 39.4824 11.1406 39.4824 11.418H38.3926C38.3926 11.1016 38.5039 10.7969 38.7266 10.5039C38.9531 10.207 39.2578 9.97266 39.6406 9.80078C40.0273 9.62891 40.4512 9.54297 40.9121 9.54297C41.6426 9.54297 42.2148 9.72656 42.6289 10.0938C43.043 10.457 43.2578 10.959 43.2734 11.5996V14.5176C43.2734 15.0996 43.3477 15.5625 43.4961 15.9062V16H42.3594ZM40.5605 15.1738C40.9004 15.1738 41.2227 15.0859 41.5273 14.9102C41.832 14.7344 42.0527 14.5059 42.1895 14.2246V12.9238H41.3398C40.0117 12.9238 39.3477 13.3125 39.3477 14.0898C39.3477 14.4297 39.4609 14.6953 39.6875 14.8867C39.9141 15.0781 40.2051 15.1738 40.5605 15.1738ZM48.6641 14.3184C48.6641 14.0254 48.5527 13.7988 48.3301 13.6387C48.1113 13.4746 47.7266 13.334 47.1758 13.2168C46.6289 13.0996 46.1934 12.959 45.8691 12.7949C45.5488 12.6309 45.3105 12.4355 45.1543 12.209C45.002 11.9824 44.9258 11.7129 44.9258 11.4004C44.9258 10.8809 45.1445 10.4414 45.582 10.082C46.0234 9.72266 46.5859 9.54297 47.2695 9.54297C47.9883 9.54297 48.5703 9.72852 49.0156 10.0996C49.4648 10.4707 49.6895 10.9453 49.6895 11.5234H48.5996C48.5996 11.2266 48.4727 10.9707 48.2188 10.7559C47.9688 10.541 47.6523 10.4336 47.2695 10.4336C46.875 10.4336 46.5664 10.5195 46.3438 10.6914C46.1211 10.8633 46.0098 11.0879 46.0098 11.3652C46.0098 11.627 46.1133 11.8242 46.3203 11.957C46.5273 12.0898 46.9004 12.2168 47.4395 12.3379C47.9824 12.459 48.4219 12.6035 48.7578 12.7715C49.0938 12.9395 49.3418 13.1426 49.502 13.3809C49.666 13.6152 49.748 13.9023 49.748 14.2422C49.748 14.8086 49.5215 15.2637 49.0684 15.6074C48.6152 15.9473 48.0273 16.1172 47.3047 16.1172C46.7969 16.1172 46.3477 16.0273 45.957 15.8477C45.5664 15.668 45.2598 15.418 45.0371 15.0977C44.8184 14.7734 44.709 14.4238 44.709 14.0488H45.793C45.8125 14.4121 45.957 14.7012 46.2266 14.916C46.5 15.127 46.8594 15.2324 47.3047 15.2324C47.7148 15.2324 48.043 15.1504 48.2891 14.9863C48.5391 14.8184 48.6641 14.5957 48.6641 14.3184ZM54.8516 14.3184C54.8516 14.0254 54.7402 13.7988 54.5176 13.6387C54.2988 13.4746 53.9141 13.334 53.3633 13.2168C52.8164 13.0996 52.3809 12.959 52.0566 12.7949C51.7363 12.6309 51.498 12.4355 51.3418 12.209C51.1895 11.9824 51.1133 11.7129 51.1133 11.4004C51.1133 10.8809 51.332 10.4414 51.7695 10.082C52.2109 9.72266 52.7734 9.54297 53.457 9.54297C54.1758 9.54297 54.7578 9.72852 55.2031 10.0996C55.6523 10.4707 55.877 10.9453 55.877 11.5234H54.7871C54.7871 11.2266 54.6602 10.9707 54.4062 10.7559C54.1562 10.541 53.8398 10.4336 53.457 10.4336C53.0625 10.4336 52.7539 10.5195 52.5312 10.6914C52.3086 10.8633 52.1973 11.0879 52.1973 11.3652C52.1973 11.627 52.3008 11.8242 52.5078 11.957C52.7148 12.0898 53.0879 12.2168 53.627 12.3379C54.1699 12.459 54.6094 12.6035 54.9453 12.7715C55.2812 12.9395 55.5293 13.1426 55.6895 13.3809C55.8535 13.6152 55.9355 13.9023 55.9355 14.2422C55.9355 14.8086 55.709 15.2637 55.2559 15.6074C54.8027 15.9473 54.2148 16.1172 53.4922 16.1172C52.9844 16.1172 52.5352 16.0273 52.1445 15.8477C51.7539 15.668 51.4473 15.418 51.2246 15.0977C51.0059 14.7734 50.8965 14.4238 50.8965 14.0488H51.9805C52 14.4121 52.1445 14.7012 52.4141 14.916C52.6875 15.127 53.0469 15.2324 53.4922 15.2324C53.9023 15.2324 54.2305 15.1504 54.4766 14.9863C54.7266 14.8184 54.8516 14.5957 54.8516 14.3184Z" fill="black"/>
</g>
<defs>
<filter id="filter0_d" x="0.5" y="0" width="64" height="28" filterUnits="userSpaceOnUse" color-interpolation-filters="sRGB">
<feFlood flood-opacity="0" result="BackgroundImageFix"/>
<feColorMatrix in="SourceAlpha" type="matrix" values="0 0 0 0 0 0 0 0 0 0 0 0 0 0 0 0 0 0 127 0" result="hardAlpha"/>
<feOffset dy="2"/>
<feGaussianBlur stdDeviation="1"/>
<feComposite in2="hardAlpha" operator="out"/>
<feColorMatrix type="matrix" values="0 0 0 0 0 0 0 0 0 0 0 0 0 0 0 0 0 0 0.25 0"/>
<feBlend mode="normal" in2="BackgroundImageFix" result="effect1_dropShadow"/>
<feBlend mode="normal" in="SourceGraphic" in2="effect1_dropShadow" result="shape"/>
</filter>
<clipPath id="clip0">
<rect width="18" height="18" fill="white" transform="translate(7.5 3)"/>
</clipPath>
</defs>
</svg>
