<svg width="19" height="18" viewBox="0 0 19 18" fill="none" xmlns="http://www.w3.org/2000/svg">
<g clip-path="url(#clip0)">
<path d="M16.4949 10.0106C15.8669 10.0138 15.3212 10.165 14.8642 10.3886C14.6965 10.0565 14.5288 9.76069 14.4992 9.54366C14.4663 9.29054 14.4269 9.13599 14.4663 8.83352C14.5058 8.53104 14.6833 8.10031 14.68 8.06746C14.6768 8.0346 14.6405 7.88005 14.2789 7.8768C13.9173 7.87349 13.6049 7.94583 13.5688 8.04116C13.5326 8.13648 13.4636 8.3535 13.4175 8.57701C13.3551 8.90586 12.6943 10.0795 12.3162 10.6943C12.1945 10.4544 12.0893 10.2439 12.0663 10.0763C12.0334 9.82316 11.9939 9.6686 12.0334 9.36613C12.0729 9.06365 12.2504 8.63299 12.2471 8.60007C12.2438 8.56721 12.2076 8.41266 11.846 8.40942C11.4843 8.4061 11.1719 8.47844 11.1358 8.57377C11.0997 8.66916 11.0602 8.89267 10.9846 9.10969C10.909 9.32671 10.0311 11.2862 9.801 11.7925C9.708 11.9974 9.61044 12.2002 9.5084 12.4008C9.5084 12.4008 9.50508 12.4106 9.49521 12.4271C9.46315 12.4899 9.43029 12.5524 9.39664 12.6145V12.6177C9.34729 12.7065 9.29469 12.7887 9.26839 12.7887C9.24865 12.7887 9.21248 12.552 9.27495 12.2298C9.40644 11.5492 9.71879 10.4906 9.71555 10.4544C9.71555 10.4347 9.7747 10.2506 9.51171 10.1552C9.25521 10.0598 9.16319 10.2176 9.14014 10.2176C9.11715 10.2176 9.10065 10.2736 9.10065 10.2736C9.10065 10.2736 9.38677 9.08339 8.55493 9.08339C8.0355 9.08339 7.31873 9.65218 6.96365 10.165C6.56001 10.3847 6.15671 10.605 5.75375 10.8259C5.55985 10.9344 5.35926 11.0429 5.17185 11.1448C5.15867 11.1317 5.14555 11.1152 5.13237 11.1021C4.1263 10.027 2.26548 9.26749 2.34437 7.82421C2.37399 7.29815 2.55477 5.91727 5.91817 4.24054C8.68642 2.87608 10.8893 3.25414 11.2707 4.09254C11.8164 5.28933 10.0904 7.51186 7.22996 7.83401C6.13844 7.9557 5.56634 7.53484 5.42173 7.37705C5.27049 7.21263 5.24744 7.20276 5.19152 7.23568C5.09951 7.28504 5.15867 7.43296 5.19152 7.51842C5.27705 7.74192 5.62881 8.13648 6.22389 8.33052C6.74994 8.50143 8.02887 8.59682 9.57742 7.99843C11.3101 7.32769 12.6647 5.46355 12.2668 3.90189C11.869 2.31717 9.23878 1.79443 6.74994 2.6788C5.27049 3.20493 3.66603 4.03339 2.51204 5.11179C1.14103 6.39397 0.924006 7.50855 1.01278 7.97544C1.33175 9.63243 3.61675 10.7108 4.53073 11.5098C4.48469 11.5361 4.44189 11.5591 4.40579 11.5789C3.94876 11.8057 2.20625 12.7163 1.77228 13.6797C1.27915 14.7712 1.85125 15.5538 2.22931 15.6589C3.40304 15.9844 4.60963 15.3992 5.25731 14.4326C5.90499 13.466 5.82609 12.21 5.52693 11.6347C5.52361 11.6281 5.52037 11.6215 5.51374 11.615C5.63212 11.5459 5.75375 11.4736 5.87213 11.4046C6.08971 11.2759 6.31005 11.1521 6.53299 11.033C6.42117 11.3388 6.33896 11.7037 6.29954 12.2298C6.25019 12.8479 6.50331 13.6501 6.8354 13.9657C6.98339 14.1039 7.15762 14.1071 7.26944 14.1071C7.65737 14.1071 7.83167 13.7849 8.02563 13.4035C8.26232 12.9367 8.47603 12.3942 8.47603 12.3942C8.47603 12.3942 8.20973 13.8605 8.93306 13.8605C9.19605 13.8605 9.46236 13.5186 9.58074 13.3444V13.3476C9.58074 13.3476 9.58729 13.3377 9.60048 13.3147C9.62678 13.272 9.64321 13.2456 9.64321 13.2456V13.2392C9.7484 13.055 9.98517 12.6374 10.3369 11.9437C10.7906 11.0495 11.2279 9.93167 11.2279 9.93167C11.2279 9.93167 11.2674 10.2045 11.4021 10.6582C11.4811 10.9245 11.6454 11.2172 11.777 11.4999C11.6718 11.6479 11.606 11.73 11.606 11.73L11.6093 11.7333C11.5238 11.8451 11.4318 11.9667 11.3298 12.0852C10.9714 12.5125 10.5441 13.0025 10.4849 13.1438C10.4158 13.3114 10.4323 13.4331 10.5638 13.5318C10.6591 13.6041 10.8301 13.6139 11.0043 13.6041C11.3266 13.581 11.5534 13.5021 11.6651 13.4529C11.8394 13.3904 12.0433 13.295 12.2339 13.1536C12.5858 12.8939 12.7994 12.5224 12.7797 12.0326C12.7698 11.7629 12.6811 11.4933 12.5726 11.2401C12.6055 11.1942 12.635 11.1481 12.668 11.1021C13.2236 10.29 13.6543 9.39898 13.6543 9.39898C13.6543 9.39898 13.6938 9.67185 13.8285 10.1256C13.8943 10.3558 14.0291 10.6056 14.1474 10.8489C13.6247 11.2731 13.3025 11.7662 13.1874 12.0884C12.9803 12.6868 13.1413 12.9564 13.4471 13.0188C13.5852 13.0484 13.7825 12.9827 13.9272 12.9202C14.1112 12.861 14.3283 12.7591 14.5354 12.6078C14.8872 12.3482 15.2258 11.9865 15.2061 11.4966C15.1962 11.2731 15.1371 11.0527 15.0548 10.839C15.4987 10.655 16.0708 10.553 16.8006 10.6385C18.3657 10.8226 18.6747 11.799 18.6155 12.2101C18.5563 12.621 18.2275 12.8446 18.1191 12.9136C18.0105 12.9827 17.9744 13.0057 17.9843 13.055C17.9974 13.1273 18.05 13.1241 18.1421 13.1109C18.2703 13.0879 18.964 12.7788 18.9936 12.0226C19.0429 11.056 18.1223 10.0007 16.4949 10.0106ZM4.42222 14.0808C3.90272 14.6463 3.17946 14.86 2.86711 14.6792C2.53178 14.4852 2.66328 13.6501 3.30109 13.0517C3.68902 12.6868 4.18877 12.3481 4.52086 12.141C4.59644 12.095 4.70827 12.0293 4.84308 11.947C4.86606 11.9339 4.87925 11.9273 4.87925 11.9273L4.95815 11.8779C5.19152 12.7328 4.96802 13.4857 4.42222 14.0808ZM8.20317 11.5098C8.02232 11.9504 7.64426 13.078 7.41412 13.0156C7.21684 12.963 7.09515 12.1082 7.37464 11.2632C7.51601 10.839 7.81517 10.3327 7.98946 10.1355C8.27219 9.81984 8.58454 9.71457 8.66013 9.8429C8.75552 10.0106 8.31492 11.2336 8.20317 11.5098ZM11.3233 13.0024C11.2476 13.0419 11.1753 13.0682 11.1424 13.0484C11.1194 13.0353 11.1753 12.9827 11.1753 12.9827C11.1753 12.9827 11.5666 12.5619 11.7211 12.3711C11.8099 12.2594 11.915 12.1279 12.0268 11.9799V12.0226C12.0268 12.5257 11.5402 12.8643 11.3232 13.0024H11.3233ZM13.7299 12.4534C13.674 12.4139 13.6838 12.2824 13.8712 11.8714C13.9436 11.7103 14.1145 11.4407 14.4072 11.181C14.44 11.2862 14.4631 11.3881 14.4598 11.4835C14.4565 12.118 14.0028 12.3547 13.7299 12.4534Z" fill="#CD6799"/>
</g>
<defs>
<clipPath id="clip0">
<rect width="18" height="18" fill="white" transform="translate(0.995476)"/>
</clipPath>
</defs>
</svg>
