<svg width="97" height="47" viewBox="0 0 97 47" fill="none" xmlns="http://www.w3.org/2000/svg">
<rect x="1" y="1" width="95" height="45" rx="4" fill="#22272E"/>
<g clip-path="url(#clip0_28_4915)">
<path d="M24.4893 26.9571C24.4808 26.974 24.4724 26.9875 24.4893 26.9571V26.9571ZM31.4958 24.5103C30.9299 24.5103 30.3719 24.6396 29.8645 24.8899C29.6986 24.5553 29.527 24.2628 29.4989 24.0434C29.4651 23.7874 29.4286 23.6356 29.4679 23.3318C29.5073 23.0281 29.6845 22.5978 29.6817 22.5668C29.6789 22.5359 29.6423 22.3812 29.2795 22.3784C28.9167 22.3756 28.6045 22.4487 28.5679 22.5443C28.5037 22.719 28.4539 22.8987 28.4189 23.0815C28.3542 23.4106 27.6938 24.5862 27.3198 25.1993C27.196 24.9603 27.0919 24.7493 27.0694 24.5806C27.0357 24.3246 26.9991 24.1728 27.0385 23.869C27.0779 23.5653 27.2551 23.1349 27.2523 23.104C27.2494 23.0731 27.2129 22.9184 26.8506 22.9156C26.4884 22.9128 26.1756 22.9859 26.1391 23.0815C26.1025 23.1771 26.0631 23.4021 25.99 23.6187C25.9169 23.8353 25.0366 25.7928 24.8065 26.3018C24.6884 26.5606 24.5871 26.7687 24.514 26.9093C24.5028 26.9318 24.4943 26.9459 24.4887 26.9571C24.4971 26.9431 24.5028 26.929 24.5028 26.9346C24.4409 27.0556 24.4043 27.1231 24.4043 27.1231V27.1259C24.3565 27.2159 24.3031 27.2974 24.2778 27.2974C24.2609 27.2974 24.2243 27.0612 24.2862 26.7378C24.4184 26.0571 24.7306 24.9996 24.7278 24.9631C24.7249 24.9434 24.7868 24.7606 24.5224 24.6621C24.2665 24.5693 24.1737 24.724 24.1512 24.724C24.1287 24.724 24.1118 24.7803 24.1118 24.7803C24.1118 24.7803 24.3959 23.5878 23.5662 23.5878C23.0487 23.5878 22.3287 24.1559 21.9749 24.6706C21.7527 24.7915 21.2718 25.0531 20.7655 25.3315L20.1833 25.6521C20.1693 25.6381 20.158 25.624 20.1439 25.6099C19.1371 24.5356 17.2786 23.7762 17.3573 22.3334C17.3854 21.8074 17.5683 20.4265 20.9314 18.7503C23.6877 17.3778 25.891 17.7546 26.2707 18.5928C26.8163 19.7881 25.0923 22.0128 22.2303 22.3334C21.139 22.4543 20.5658 22.0324 20.4224 21.8749C20.2733 21.709 20.2508 21.7006 20.1946 21.7315C20.1018 21.7821 20.1608 21.9284 20.1946 22.0156C20.2789 22.2378 20.6305 22.6315 21.2296 22.8284C21.7555 22.9999 23.0346 23.0956 24.5809 22.4965C26.3185 21.8271 27.6713 19.9624 27.2742 18.4015C26.8703 16.8153 24.2401 16.2949 21.7533 17.1781C20.2711 17.704 18.6685 18.5309 17.5159 19.6081C16.1463 20.8906 15.9274 22.0071 16.0174 22.474C16.3381 24.1306 18.6213 25.2106 19.5348 26.0093L19.4082 26.0796C18.9498 26.3074 17.2094 27.2187 16.7734 28.1806C16.2813 29.2718 16.855 30.0537 17.2313 30.1606C18.4069 30.4868 19.6101 29.899 20.257 28.9343C20.9039 27.9696 20.8251 26.7096 20.527 26.1359C20.5242 26.1274 20.5186 26.1218 20.5158 26.1134C20.8532 25.9135 21.1936 25.7185 21.5367 25.5284C21.4242 25.8321 21.3426 26.1978 21.3004 26.7265C21.2498 27.3453 21.5058 28.1468 21.8376 28.4618C21.9839 28.5996 22.1605 28.6024 22.2708 28.6024C22.6589 28.6024 22.8333 28.2818 23.0273 27.8993C23.2664 27.4324 23.4773 26.8896 23.4773 26.8896C23.4773 26.8896 23.2129 28.3578 23.9358 28.3578C24.2001 28.3578 24.4645 28.0174 24.5826 27.8431V27.8459C24.5826 27.8459 24.5883 27.8346 24.6023 27.8121C24.6304 27.7699 24.6445 27.7446 24.6445 27.7446V27.7362C24.7514 27.5534 24.9848 27.1343 25.3364 26.4424C25.792 25.5481 26.2274 24.4315 26.2274 24.4315C26.2696 24.6768 26.3281 24.9192 26.4018 25.1571C26.4805 25.4243 26.6464 25.7168 26.7786 26.0009C26.6718 26.1471 26.6071 26.2315 26.6071 26.2315C26.6071 26.2338 26.6082 26.2354 26.6099 26.2371C26.5255 26.3496 26.4299 26.4706 26.3314 26.5887C25.972 27.0162 25.5439 27.5056 25.4877 27.6462C25.4202 27.8121 25.4371 27.9359 25.5664 28.0315C25.6621 28.1046 25.8308 28.1159 26.008 28.1018C26.3314 28.0793 26.5593 28.0006 26.6689 27.9499C26.8713 27.8775 27.0625 27.7771 27.2371 27.6518C27.5886 27.3931 27.8024 27.0218 27.7827 26.5324C27.7714 26.2624 27.6843 25.9924 27.5774 25.7393C27.6083 25.6943 27.6421 25.6465 27.673 25.5987C28.039 25.0526 28.3688 24.483 28.6602 23.8938C28.7024 24.139 28.7603 24.3814 28.8346 24.6194C28.9021 24.8472 29.0343 25.0975 29.1552 25.3422C28.6321 25.7669 28.3086 26.2591 28.1967 26.5825C27.9886 27.1816 28.1517 27.4516 28.4583 27.5134C28.5961 27.5416 28.7929 27.4769 28.9392 27.415C29.1563 27.3424 29.3611 27.2373 29.5461 27.1028C29.8977 26.8441 30.238 26.4813 30.2149 25.9891C30.2065 25.7669 30.1446 25.5447 30.0631 25.3309C30.5046 25.1453 31.0784 25.0441 31.8096 25.1284C33.3756 25.3113 33.6822 26.29 33.6231 26.6978C33.5641 27.1056 33.235 27.3334 33.1253 27.4009C33.0156 27.4684 32.9819 27.4938 32.9903 27.5444C33.0044 27.6175 33.055 27.6147 33.1478 27.5978C33.2772 27.5753 33.9691 27.2659 34 26.5094C34.045 25.5531 33.1253 24.5013 31.4969 24.5097L31.4958 24.5103ZM19.4251 28.5799C18.9076 29.1453 18.1825 29.359 17.8703 29.179C17.5356 28.9844 17.6678 28.1524 18.3057 27.55C18.6938 27.1844 19.1944 26.8469 19.5263 26.6388C19.6023 26.5938 19.7119 26.5263 19.8469 26.4447C19.8579 26.4377 19.8692 26.4311 19.8807 26.425C19.906 26.4081 19.9341 26.3941 19.9623 26.3772C20.1951 27.2322 19.9707 27.9859 19.4251 28.5794V28.5799ZM23.2039 26.0093C23.0239 26.4509 22.6448 27.5759 22.4136 27.5168C22.2168 27.4662 22.0958 26.6084 22.3743 25.7646C22.5149 25.3399 22.813 24.8337 22.9902 24.6368C23.2743 24.319 23.5864 24.2178 23.6596 24.3443C23.758 24.5103 23.3164 25.7337 23.2039 26.0093ZM26.3258 27.4999C26.2499 27.5393 26.1796 27.5646 26.1458 27.5449C26.1205 27.5309 26.1768 27.4774 26.1768 27.4774C26.1768 27.4774 26.5677 27.0584 26.7224 26.8671C26.8124 26.7546 26.9164 26.6224 27.0289 26.4762C27.0289 26.4903 27.0318 26.5043 27.0318 26.5212C27.0284 27.0246 26.5446 27.3649 26.3253 27.4999H26.3258ZM28.7333 26.9515C28.6771 26.9121 28.6855 26.7799 28.8739 26.3693C28.9471 26.209 29.1158 25.939 29.4083 25.6803C29.4415 25.7781 29.4595 25.8805 29.4618 25.984C29.4589 26.6168 29.0061 26.8531 28.7333 26.9515Z" fill="#ADBAC7"/>
</g>
<path d="M46.9453 29.5469V28C47.1224 28.1562 47.3333 28.2969 47.5781 28.4219C47.8281 28.5469 48.0885 28.6536 48.3594 28.7422C48.6354 28.8255 48.9115 28.8906 49.1875 28.9375C49.4635 28.9844 49.7188 29.0078 49.9531 29.0078C50.7604 29.0078 51.362 28.8594 51.7578 28.5625C52.1589 28.2604 52.3594 27.8281 52.3594 27.2656C52.3594 26.9635 52.2917 26.7005 52.1562 26.4766C52.026 26.2526 51.8438 26.0495 51.6094 25.8672C51.375 25.6797 51.0964 25.5026 50.7734 25.3359C50.4557 25.1641 50.112 24.9844 49.7422 24.7969C49.3516 24.599 48.987 24.3984 48.6484 24.1953C48.3099 23.9922 48.0156 23.7682 47.7656 23.5234C47.5156 23.2786 47.3177 23.0026 47.1719 22.6953C47.0312 22.3828 46.9609 22.0182 46.9609 21.6016C46.9609 21.0911 47.0729 20.6484 47.2969 20.2734C47.5208 19.8932 47.8151 19.5807 48.1797 19.3359C48.5443 19.0911 48.9583 18.9089 49.4219 18.7891C49.8906 18.6693 50.3672 18.6094 50.8516 18.6094C51.9557 18.6094 52.7604 18.7422 53.2656 19.0078V20.4844C52.6042 20.026 51.7552 19.7969 50.7188 19.7969C50.4323 19.7969 50.1458 19.8281 49.8594 19.8906C49.5729 19.9479 49.3177 20.0443 49.0938 20.1797C48.8698 20.3151 48.6875 20.4896 48.5469 20.7031C48.4062 20.9167 48.3359 21.1771 48.3359 21.4844C48.3359 21.7708 48.388 22.0182 48.4922 22.2266C48.6016 22.4349 48.7604 22.625 48.9688 22.7969C49.1771 22.9688 49.4297 23.1354 49.7266 23.2969C50.0286 23.4583 50.375 23.6354 50.7656 23.8281C51.1667 24.026 51.5469 24.2344 51.9062 24.4531C52.2656 24.6719 52.5807 24.9141 52.8516 25.1797C53.1224 25.4453 53.3359 25.7396 53.4922 26.0625C53.6536 26.3854 53.7344 26.7552 53.7344 27.1719C53.7344 27.724 53.625 28.1927 53.4062 28.5781C53.1927 28.9583 52.901 29.2682 52.5312 29.5078C52.1667 29.7474 51.7448 29.9193 51.2656 30.0234C50.7865 30.1328 50.2812 30.1875 49.75 30.1875C49.5729 30.1875 49.3542 30.1719 49.0938 30.1406C48.8333 30.1146 48.5677 30.0729 48.2969 30.0156C48.026 29.9635 47.7682 29.8984 47.5234 29.8203C47.2839 29.737 47.0911 29.6458 46.9453 29.5469ZM61.5234 30H60.2422V28.75H60.2109C59.6536 29.7083 58.8333 30.1875 57.75 30.1875C56.9531 30.1875 56.3281 29.9766 55.875 29.5547C55.4271 29.1328 55.2031 28.5729 55.2031 27.875C55.2031 26.3802 56.0833 25.5104 57.8438 25.2656L60.2422 24.9297C60.2422 23.5703 59.6927 22.8906 58.5938 22.8906C57.6302 22.8906 56.7604 23.2188 55.9844 23.875V22.5625C56.7708 22.0625 57.6771 21.8125 58.7031 21.8125C60.5833 21.8125 61.5234 22.8073 61.5234 24.7969V30ZM60.2422 25.9531L58.3125 26.2188C57.7188 26.3021 57.2708 26.4505 56.9688 26.6641C56.6667 26.8724 56.5156 27.2448 56.5156 27.7812C56.5156 28.1719 56.6536 28.4922 56.9297 28.7422C57.2109 28.987 57.5833 29.1094 58.0469 29.1094C58.6823 29.1094 59.2057 28.888 59.6172 28.4453C60.0339 27.9974 60.2422 27.4323 60.2422 26.75V25.9531ZM63.4531 29.7109V28.3359C64.151 28.8516 64.9193 29.1094 65.7578 29.1094C66.8828 29.1094 67.4453 28.7344 67.4453 27.9844C67.4453 27.7708 67.3958 27.5911 67.2969 27.4453C67.2031 27.2943 67.0729 27.1615 66.9062 27.0469C66.7448 26.9323 66.5521 26.8307 66.3281 26.7422C66.1094 26.6484 65.8724 26.5521 65.6172 26.4531C65.263 26.3125 64.9505 26.1719 64.6797 26.0312C64.4141 25.8854 64.1901 25.724 64.0078 25.5469C63.8307 25.3646 63.6953 25.1589 63.6016 24.9297C63.513 24.7005 63.4688 24.4323 63.4688 24.125C63.4688 23.75 63.5547 23.4193 63.7266 23.1328C63.8984 22.8411 64.1276 22.599 64.4141 22.4062C64.7005 22.2083 65.026 22.0599 65.3906 21.9609C65.7604 21.862 66.1406 21.8125 66.5312 21.8125C67.224 21.8125 67.8438 21.9323 68.3906 22.1719V23.4688C67.8021 23.0833 67.125 22.8906 66.3594 22.8906C66.1198 22.8906 65.9036 22.9193 65.7109 22.9766C65.5182 23.0286 65.3516 23.1042 65.2109 23.2031C65.0755 23.3021 64.9688 23.4219 64.8906 23.5625C64.8177 23.6979 64.7812 23.849 64.7812 24.0156C64.7812 24.224 64.8177 24.3984 64.8906 24.5391C64.9688 24.6797 65.0807 24.8047 65.2266 24.9141C65.3724 25.0234 65.5495 25.1224 65.7578 25.2109C65.9661 25.2995 66.2031 25.3958 66.4688 25.5C66.8229 25.6354 67.1406 25.776 67.4219 25.9219C67.7031 26.0625 67.9427 26.224 68.1406 26.4062C68.3385 26.5833 68.4896 26.7891 68.5938 27.0234C68.7031 27.2578 68.7578 27.5365 68.7578 27.8594C68.7578 28.2552 68.6693 28.599 68.4922 28.8906C68.3203 29.1823 68.0885 29.4245 67.7969 29.6172C67.5052 29.8099 67.1693 29.9531 66.7891 30.0469C66.4089 30.1406 66.0104 30.1875 65.5938 30.1875C64.7708 30.1875 64.0573 30.0286 63.4531 29.7109ZM70.25 29.7109V28.3359C70.9479 28.8516 71.7161 29.1094 72.5547 29.1094C73.6797 29.1094 74.2422 28.7344 74.2422 27.9844C74.2422 27.7708 74.1927 27.5911 74.0938 27.4453C74 27.2943 73.8698 27.1615 73.7031 27.0469C73.5417 26.9323 73.349 26.8307 73.125 26.7422C72.9062 26.6484 72.6693 26.5521 72.4141 26.4531C72.0599 26.3125 71.7474 26.1719 71.4766 26.0312C71.2109 25.8854 70.987 25.724 70.8047 25.5469C70.6276 25.3646 70.4922 25.1589 70.3984 24.9297C70.3099 24.7005 70.2656 24.4323 70.2656 24.125C70.2656 23.75 70.3516 23.4193 70.5234 23.1328C70.6953 22.8411 70.9245 22.599 71.2109 22.4062C71.4974 22.2083 71.8229 22.0599 72.1875 21.9609C72.5573 21.862 72.9375 21.8125 73.3281 21.8125C74.0208 21.8125 74.6406 21.9323 75.1875 22.1719V23.4688C74.599 23.0833 73.9219 22.8906 73.1562 22.8906C72.9167 22.8906 72.7005 22.9193 72.5078 22.9766C72.3151 23.0286 72.1484 23.1042 72.0078 23.2031C71.8724 23.3021 71.7656 23.4219 71.6875 23.5625C71.6146 23.6979 71.5781 23.849 71.5781 24.0156C71.5781 24.224 71.6146 24.3984 71.6875 24.5391C71.7656 24.6797 71.8776 24.8047 72.0234 24.9141C72.1693 25.0234 72.3464 25.1224 72.5547 25.2109C72.763 25.2995 73 25.3958 73.2656 25.5C73.6198 25.6354 73.9375 25.776 74.2188 25.9219C74.5 26.0625 74.7396 26.224 74.9375 26.4062C75.1354 26.5833 75.2865 26.7891 75.3906 27.0234C75.5 27.2578 75.5547 27.5365 75.5547 27.8594C75.5547 28.2552 75.4661 28.599 75.2891 28.8906C75.1172 29.1823 74.8854 29.4245 74.5938 29.6172C74.3021 29.8099 73.9661 29.9531 73.5859 30.0469C73.2057 30.1406 72.8073 30.1875 72.3906 30.1875C71.5677 30.1875 70.8542 30.0286 70.25 29.7109Z" fill="#ADBAC7"/>
<rect x="1" y="1" width="95" height="45" rx="4" stroke="#444C56" stroke-width="2"/>
<defs>
<clipPath id="clip0_28_4915">
<rect width="18" height="18" fill="white" transform="translate(16 14.5)"/>
</clipPath>
</defs>
</svg>
