<svg width="72" height="34" viewBox="0 0 72 34" fill="none" xmlns="http://www.w3.org/2000/svg">
<path d="M1.5 4C1.5 2.34315 2.84315 1 4.5 1H67.5C69.1569 1 70.5 2.34315 70.5 4V30C70.5 31.6569 69.1569 33 67.5 33H4.5C2.84315 33 1.5 31.6569 1.5 30V4Z" fill="#C9D1D9"/>
<g clip-path="url(#clip0)">
<path d="M24.9994 18.0106C24.3715 18.0138 23.8257 18.165 23.3687 18.3886C23.201 18.0565 23.0333 17.7607 23.0038 17.5437C22.9708 17.2905 22.9314 17.136 22.9708 16.8335C23.0103 16.531 23.1879 16.1003 23.1846 16.0675C23.1813 16.0346 23.1451 15.88 22.7834 15.8768C22.4218 15.8735 22.1095 15.9458 22.0733 16.0412C22.0371 16.1365 21.9681 16.3535 21.9221 16.577C21.8596 16.9059 21.1988 18.0795 20.8207 18.6943C20.699 18.4544 20.5938 18.2439 20.5708 18.0763C20.5379 17.8232 20.4984 17.6686 20.5379 17.3661C20.5774 17.0637 20.7549 16.633 20.7516 16.6001C20.7483 16.5672 20.7121 16.4127 20.3505 16.4094C19.9888 16.4061 19.6765 16.4784 19.6404 16.5738C19.6042 16.6692 19.5647 16.8927 19.4891 17.1097C19.4135 17.3267 18.5357 19.2862 18.3055 19.7925C18.2125 19.9974 18.115 20.2002 18.0129 20.4008C18.0129 20.4008 18.0096 20.4106 17.9997 20.4271C17.9677 20.4899 17.9348 20.5524 17.9012 20.6145V20.6177C17.8518 20.7065 17.7992 20.7887 17.7729 20.7887C17.7532 20.7887 17.717 20.552 17.7795 20.2298C17.911 19.5492 18.2233 18.4906 18.2201 18.4544C18.2201 18.4347 18.2792 18.2506 18.0162 18.1552C17.7597 18.0598 17.6677 18.2176 17.6447 18.2176C17.6217 18.2176 17.6052 18.2736 17.6052 18.2736C17.6052 18.2736 17.8913 17.0834 17.0595 17.0834C16.54 17.0834 15.8233 17.6522 15.4682 18.165C15.0645 18.3847 14.6612 18.605 14.2583 18.8259C14.0644 18.9344 13.8638 19.0429 13.6764 19.1448C13.6632 19.1317 13.6501 19.1152 13.6369 19.1021C12.6308 18.027 10.77 17.2675 10.8489 15.8242C10.8785 15.2982 11.0593 13.9173 14.4227 12.2405C17.1909 10.8761 19.3938 11.2541 19.7752 12.0925C20.3209 13.2893 18.5949 15.5119 15.7345 15.834C14.643 15.9557 14.0709 15.5348 13.9263 15.377C13.775 15.2126 13.752 15.2028 13.696 15.2357C13.604 15.285 13.6632 15.433 13.696 15.5184C13.7816 15.7419 14.1333 16.1365 14.7284 16.3305C15.2545 16.5014 16.5334 16.5968 18.0819 15.9984C19.8146 15.3277 21.1692 13.4636 20.7714 11.9019C20.3735 10.3172 17.7433 9.79443 15.2545 10.6788C13.775 11.2049 12.1706 12.0334 11.0166 13.1118C9.64555 14.394 9.42853 15.5085 9.5173 15.9754C9.83627 17.6324 12.1213 18.7108 13.0353 19.5098C12.9892 19.5361 12.9464 19.5591 12.9103 19.5789C12.4533 19.8057 10.7108 20.7163 10.2768 21.6797C9.78368 22.7712 10.3558 23.5538 10.7338 23.6589C11.9076 23.9844 13.1142 23.3992 13.7618 22.4326C14.4095 21.466 14.3306 20.21 14.0315 19.6347C14.0281 19.6281 14.0249 19.6215 14.0183 19.615C14.1366 19.5459 14.2583 19.4736 14.3767 19.4046C14.5942 19.2759 14.8146 19.1521 15.0375 19.033C14.9257 19.3388 14.8435 19.7037 14.8041 20.2298C14.7547 20.8479 15.0078 21.6501 15.3399 21.9657C15.4879 22.1039 15.6621 22.1071 15.774 22.1071C16.1619 22.1071 16.3362 21.7849 16.5302 21.4035C16.7668 20.9367 16.9806 20.3942 16.9806 20.3942C16.9806 20.3942 16.7142 21.8605 17.4376 21.8605C17.7006 21.8605 17.9669 21.5186 18.0853 21.3444V21.3476C18.0853 21.3476 18.0918 21.3377 18.105 21.3147C18.1313 21.272 18.1477 21.2456 18.1477 21.2456V21.2392C18.2529 21.055 18.4897 20.6374 18.8415 19.9437C19.2952 19.0495 19.7325 17.9317 19.7325 17.9317C19.7325 17.9317 19.7719 18.2045 19.9067 18.6582C19.9856 18.9245 20.1499 19.2172 20.2815 19.4999C20.1763 19.6479 20.1105 19.73 20.1105 19.73L20.1138 19.7333C20.0283 19.8451 19.9363 19.9667 19.8343 20.0852C19.4759 20.5125 19.0486 21.0025 18.9894 21.1438C18.9203 21.3114 18.9368 21.4331 19.0683 21.5318C19.1637 21.6041 19.3346 21.6139 19.5089 21.6041C19.8311 21.581 20.0579 21.5021 20.1697 21.4529C20.344 21.3904 20.5478 21.295 20.7384 21.1536C21.0903 20.8939 21.3039 20.5224 21.2842 20.0326C21.2744 19.7629 21.1856 19.4933 21.0771 19.2401C21.11 19.1942 21.1396 19.1481 21.1725 19.1021C21.7281 18.29 22.1588 17.399 22.1588 17.399C22.1588 17.399 22.1983 17.6718 22.333 18.1256C22.3988 18.3558 22.5336 18.6056 22.6519 18.8489C22.1292 19.2731 21.807 19.7662 21.6919 20.0884C21.4848 20.6868 21.6459 20.9564 21.9517 21.0188C22.0897 21.0484 22.287 20.9827 22.4317 20.9202C22.6158 20.861 22.8328 20.7591 23.0399 20.6078C23.3918 20.3482 23.7303 19.9865 23.7106 19.4966C23.7007 19.2731 23.6416 19.0527 23.5594 18.839C24.0032 18.655 24.5753 18.553 25.3051 18.6385C26.8702 18.8226 27.1792 19.799 27.12 20.2101C27.0608 20.621 26.7321 20.8446 26.6236 20.9136C26.515 20.9827 26.4789 21.0057 26.4888 21.055C26.5019 21.1273 26.5545 21.1241 26.6466 21.1109C26.7748 21.0879 27.4686 20.7788 27.4981 20.0226C27.5475 19.056 26.6269 18.0007 24.9994 18.0106ZM12.9267 22.0808C12.4072 22.6463 11.684 22.86 11.3716 22.6792C11.0363 22.4852 11.1678 21.6501 11.8056 21.0517C12.1935 20.6868 12.6933 20.3481 13.0254 20.141C13.101 20.095 13.2128 20.0293 13.3476 19.947C13.3706 19.9339 13.3838 19.9273 13.3838 19.9273L13.4627 19.8779C13.696 20.7328 13.4725 21.4857 12.9267 22.0808ZM16.7077 19.5098C16.5268 19.9504 16.1488 21.078 15.9186 21.0156C15.7214 20.963 15.5997 20.1082 15.8792 19.2632C16.0205 18.839 16.3197 18.3327 16.494 18.1355C16.7767 17.8198 17.0891 17.7146 17.1646 17.8429C17.26 18.0106 16.8194 19.2336 16.7077 19.5098ZM19.8278 21.0024C19.7521 21.0419 19.6799 21.0682 19.6469 21.0484C19.6239 21.0353 19.6799 20.9827 19.6799 20.9827C19.6799 20.9827 20.0711 20.5619 20.2256 20.3711C20.3144 20.2594 20.4195 20.1279 20.5314 19.9799V20.0226C20.5314 20.5257 20.0447 20.8643 19.8277 21.0024H19.8278ZM22.2344 20.4534C22.1785 20.4139 22.1884 20.2824 22.3758 19.8714C22.4481 19.7103 22.619 19.4407 22.9117 19.181C22.9445 19.2862 22.9676 19.3881 22.9643 19.4835C22.961 20.118 22.5073 20.3547 22.2344 20.4534Z" fill="#CD6799"/>
</g>
<path d="M39.0039 17.1973C38.0391 16.9199 37.3359 16.5801 36.8945 16.1777C36.457 15.7715 36.2383 15.2715 36.2383 14.6777C36.2383 14.0059 36.5059 13.4512 37.041 13.0137C37.5801 12.5723 38.2793 12.3516 39.1387 12.3516C39.7246 12.3516 40.2461 12.4648 40.7031 12.6914C41.1641 12.918 41.5195 13.2305 41.7695 13.6289C42.0234 14.0273 42.1504 14.4629 42.1504 14.9355H41.0195C41.0195 14.4199 40.8555 14.0156 40.5273 13.7227C40.1992 13.4258 39.7363 13.2773 39.1387 13.2773C38.584 13.2773 38.1504 13.4004 37.8379 13.6465C37.5293 13.8887 37.375 14.2266 37.375 14.6602C37.375 15.0078 37.5215 15.3027 37.8145 15.5449C38.1113 15.7832 38.6133 16.002 39.3203 16.2012C40.0312 16.4004 40.5859 16.6211 40.9844 16.8633C41.3867 17.1016 41.6836 17.3809 41.875 17.7012C42.0703 18.0215 42.168 18.3984 42.168 18.832C42.168 19.5234 41.8984 20.0781 41.3594 20.4961C40.8203 20.9102 40.0996 21.1172 39.1973 21.1172C38.6113 21.1172 38.0645 21.0059 37.5566 20.7832C37.0488 20.5566 36.6562 20.248 36.3789 19.8574C36.1055 19.4668 35.9688 19.0234 35.9688 18.5273H37.0996C37.0996 19.043 37.2891 19.4512 37.668 19.752C38.0508 20.0488 38.5605 20.1973 39.1973 20.1973C39.791 20.1973 40.2461 20.0762 40.5625 19.834C40.8789 19.5918 41.0371 19.2617 41.0371 18.8438C41.0371 18.4258 40.8906 18.1035 40.5977 17.877C40.3047 17.6465 39.7734 17.4199 39.0039 17.1973ZM47.3594 21C47.2969 20.875 47.2461 20.6523 47.207 20.332C46.7031 20.8555 46.1016 21.1172 45.4023 21.1172C44.7773 21.1172 44.2637 20.9414 43.8613 20.5898C43.4629 20.2344 43.2637 19.7852 43.2637 19.2422C43.2637 18.582 43.5137 18.0703 44.0137 17.707C44.5176 17.3398 45.2246 17.1562 46.1348 17.1562H47.1895V16.6582C47.1895 16.2793 47.0762 15.9785 46.8496 15.7559C46.623 15.5293 46.2891 15.416 45.8477 15.416C45.4609 15.416 45.1367 15.5137 44.875 15.709C44.6133 15.9043 44.4824 16.1406 44.4824 16.418H43.3926C43.3926 16.1016 43.5039 15.7969 43.7266 15.5039C43.9531 15.207 44.2578 14.9727 44.6406 14.8008C45.0273 14.6289 45.4512 14.543 45.9121 14.543C46.6426 14.543 47.2148 14.7266 47.6289 15.0938C48.043 15.457 48.2578 15.959 48.2734 16.5996V19.5176C48.2734 20.0996 48.3477 20.5625 48.4961 20.9062V21H47.3594ZM45.5605 20.1738C45.9004 20.1738 46.2227 20.0859 46.5273 19.9102C46.832 19.7344 47.0527 19.5059 47.1895 19.2246V17.9238H46.3398C45.0117 17.9238 44.3477 18.3125 44.3477 19.0898C44.3477 19.4297 44.4609 19.6953 44.6875 19.8867C44.9141 20.0781 45.2051 20.1738 45.5605 20.1738ZM53.6641 19.3184C53.6641 19.0254 53.5527 18.7988 53.3301 18.6387C53.1113 18.4746 52.7266 18.334 52.1758 18.2168C51.6289 18.0996 51.1934 17.959 50.8691 17.7949C50.5488 17.6309 50.3105 17.4355 50.1543 17.209C50.002 16.9824 49.9258 16.7129 49.9258 16.4004C49.9258 15.8809 50.1445 15.4414 50.582 15.082C51.0234 14.7227 51.5859 14.543 52.2695 14.543C52.9883 14.543 53.5703 14.7285 54.0156 15.0996C54.4648 15.4707 54.6895 15.9453 54.6895 16.5234H53.5996C53.5996 16.2266 53.4727 15.9707 53.2188 15.7559C52.9688 15.541 52.6523 15.4336 52.2695 15.4336C51.875 15.4336 51.5664 15.5195 51.3438 15.6914C51.1211 15.8633 51.0098 16.0879 51.0098 16.3652C51.0098 16.627 51.1133 16.8242 51.3203 16.957C51.5273 17.0898 51.9004 17.2168 52.4395 17.3379C52.9824 17.459 53.4219 17.6035 53.7578 17.7715C54.0938 17.9395 54.3418 18.1426 54.502 18.3809C54.666 18.6152 54.748 18.9023 54.748 19.2422C54.748 19.8086 54.5215 20.2637 54.0684 20.6074C53.6152 20.9473 53.0273 21.1172 52.3047 21.1172C51.7969 21.1172 51.3477 21.0273 50.957 20.8477C50.5664 20.668 50.2598 20.418 50.0371 20.0977C49.8184 19.7734 49.709 19.4238 49.709 19.0488H50.793C50.8125 19.4121 50.957 19.7012 51.2266 19.916C51.5 20.127 51.8594 20.2324 52.3047 20.2324C52.7148 20.2324 53.043 20.1504 53.2891 19.9863C53.5391 19.8184 53.6641 19.5957 53.6641 19.3184ZM59.8516 19.3184C59.8516 19.0254 59.7402 18.7988 59.5176 18.6387C59.2988 18.4746 58.9141 18.334 58.3633 18.2168C57.8164 18.0996 57.3809 17.959 57.0566 17.7949C56.7363 17.6309 56.498 17.4355 56.3418 17.209C56.1895 16.9824 56.1133 16.7129 56.1133 16.4004C56.1133 15.8809 56.332 15.4414 56.7695 15.082C57.2109 14.7227 57.7734 14.543 58.457 14.543C59.1758 14.543 59.7578 14.7285 60.2031 15.0996C60.6523 15.4707 60.877 15.9453 60.877 16.5234H59.7871C59.7871 16.2266 59.6602 15.9707 59.4062 15.7559C59.1562 15.541 58.8398 15.4336 58.457 15.4336C58.0625 15.4336 57.7539 15.5195 57.5312 15.6914C57.3086 15.8633 57.1973 16.0879 57.1973 16.3652C57.1973 16.627 57.3008 16.8242 57.5078 16.957C57.7148 17.0898 58.0879 17.2168 58.627 17.3379C59.1699 17.459 59.6094 17.6035 59.9453 17.7715C60.2812 17.9395 60.5293 18.1426 60.6895 18.3809C60.8535 18.6152 60.9355 18.9023 60.9355 19.2422C60.9355 19.8086 60.709 20.2637 60.2559 20.6074C59.8027 20.9473 59.2148 21.1172 58.4922 21.1172C57.9844 21.1172 57.5352 21.0273 57.1445 20.8477C56.7539 20.668 56.4473 20.418 56.2246 20.0977C56.0059 19.7734 55.8965 19.4238 55.8965 19.0488H56.9805C57 19.4121 57.1445 19.7012 57.4141 19.916C57.6875 20.127 58.0469 20.2324 58.4922 20.2324C58.9023 20.2324 59.2305 20.1504 59.4766 19.9863C59.7266 19.8184 59.8516 19.5957 59.8516 19.3184Z" fill="#22272E"/>
<path d="M4.5 2H67.5V0H4.5V2ZM69.5 4V30H71.5V4H69.5ZM67.5 32H4.5V34H67.5V32ZM2.5 30V4H0.5V30H2.5ZM4.5 32C3.39543 32 2.5 31.1046 2.5 30H0.5C0.5 32.2091 2.29086 34 4.5 34V32ZM69.5 30C69.5 31.1046 68.6046 32 67.5 32V34C69.7091 34 71.5 32.2091 71.5 30H69.5ZM67.5 2C68.6046 2 69.5 2.89543 69.5 4H71.5C71.5 1.79086 69.7091 0 67.5 0V2ZM4.5 0C2.29086 0 0.5 1.79086 0.5 4H2.5C2.5 2.89543 3.39543 2 4.5 2V0Z" fill="#30363D"/>
<defs>
<clipPath id="clip0">
<rect width="18" height="18" fill="white" transform="translate(9.5 8)"/>
</clipPath>
</defs>
</svg>
