<svg xmlns="http://www.w3.org/2000/svg" width="127" height="56" fill="none"><rect width="109" height="48" x="9" y="4" fill="#FFEBEE" rx="4"/><path fill="#CD6799" d="M48.666 29.347a4.967 4.967 0 0 0-2.174.505c-.224-.443-.448-.838-.487-1.127-.044-.338-.096-.544-.044-.947.053-.403.29-.978.285-1.021-.004-.044-.053-.25-.535-.255-.482-.004-.898.092-.947.22-.048.127-.14.416-.201.714-.084.439-.965 2.003-1.469 2.823-.162-.32-.302-.6-.333-.824-.044-.337-.096-.543-.044-.947.053-.403.29-.977.285-1.021-.004-.044-.053-.25-.535-.254-.482-.005-.898.092-.947.219-.048.127-.1.425-.201.714-.101.29-1.272 2.902-1.578 3.577-.124.274-.254.544-.39.811 0 0-.005.014-.018.035l-.131.25v.005c-.066.118-.136.228-.171.228-.027 0-.075-.316.008-.746.176-.907.592-2.319.588-2.367 0-.026.079-.272-.272-.399-.342-.127-.465.084-.495.084-.031 0-.053.074-.053.074s.381-1.587-.728-1.587c-.692 0-1.648.759-2.121 1.442-.539.293-1.076.587-1.614.881-.258.145-.526.29-.776.426-.017-.018-.035-.04-.052-.057-1.342-1.434-3.823-2.446-3.717-4.37.039-.702.28-2.543 4.765-4.779 3.69-1.82 6.628-1.315 7.136-.197.728 1.595-1.574 4.559-5.387 4.988-1.456.163-2.219-.398-2.411-.609-.202-.22-.233-.232-.307-.188-.123.065-.044.263 0 .377.114.298.583.824 1.376 1.082.702.228 2.407.355 4.472-.442 2.31-.895 4.116-3.38 3.586-5.462-.531-2.113-4.038-2.81-7.356-1.631-1.973.701-4.112 1.806-5.65 3.244-1.829 1.71-2.118 3.195-2 3.818.425 2.21 3.472 3.647 4.69 4.712-.06.035-.118.066-.166.093-.61.302-2.933 1.516-3.511 2.8-.658 1.456.105 2.5.61 2.64 1.564.434 3.173-.347 4.036-1.636.864-1.288.759-2.963.36-3.73-.005-.009-.009-.018-.018-.026.158-.092.32-.189.478-.28.29-.172.584-.338.881-.496-.149.407-.258.894-.31 1.595-.067.825.27 1.894.714 2.315.197.184.43.188.578.188.517 0 .75-.43 1.008-.938.316-.622.601-1.345.601-1.345s-.355 1.955.61 1.955c.35 0 .705-.456.863-.689v.005s.009-.013.026-.044l.057-.092v-.009c.14-.245.456-.802.925-1.727.605-1.192 1.188-2.683 1.188-2.683s.053.364.233.969c.105.355.324.745.5 1.122-.14.198-.229.307-.229.307l.005.004c-.114.15-.237.312-.373.47-.478.57-1.048 1.223-1.127 1.411-.092.224-.07.386.106.517.127.097.355.11.587.097.43-.03.732-.136.881-.202.233-.083.504-.21.759-.399.469-.346.754-.841.727-1.495-.013-.36-.131-.719-.276-1.056.044-.061.083-.123.127-.184a20.09 20.09 0 0 0 1.315-2.271s.053.364.233.969c.087.307.267.64.425.964-.697.566-1.127 1.223-1.28 1.653-.276.798-.062 1.157.346 1.24.184.04.447-.048.64-.131.246-.079.535-.215.811-.417.47-.346.92-.828.895-1.481a2.804 2.804 0 0 0-.202-.877c.592-.245 1.354-.381 2.328-.267 2.086.245 2.498 1.547 2.42 2.095-.08.548-.518.846-.663.938-.144.092-.192.123-.18.189.018.096.088.092.211.074.171-.03 1.096-.443 1.136-1.45.065-1.29-1.162-2.697-3.332-2.684Zm-16.097 5.427c-.693.754-1.657 1.04-2.074.798-.447-.259-.271-1.372.58-2.17.516-.486 1.183-.938 1.625-1.214.101-.061.25-.149.43-.259a.997.997 0 0 1 .048-.026l.106-.066c.31 1.14.013 2.144-.715 2.937Zm5.041-3.428c-.24.588-.745 2.091-1.052 2.008-.263-.07-.425-1.21-.052-2.336.188-.566.587-1.241.82-1.504.376-.42.793-.561.893-.39.128.223-.46 1.854-.609 2.222Zm4.16 1.99c-.1.053-.197.088-.24.062-.031-.018.043-.088.043-.088s.522-.56.728-.815c.118-.15.258-.325.407-.522v.057c0 .67-.648 1.123-.938 1.306Zm3.21-.731c-.075-.053-.062-.228.188-.776.096-.215.324-.575.714-.921.044.14.075.276.07.403-.004.846-.609 1.162-.973 1.294Z"/><path fill="#000" d="M68.945 34.047V32.5c.177.156.388.297.633.422.25.125.51.232.781.32.276.084.553.149.829.196.275.046.53.07.765.07.807 0 1.409-.149 1.805-.446.4-.302.601-.734.601-1.296 0-.302-.067-.565-.203-.79a2.137 2.137 0 0 0-.547-.609 5.026 5.026 0 0 0-.836-.531 44.106 44.106 0 0 0-1.03-.54c-.391-.197-.756-.398-1.095-.6a4.74 4.74 0 0 1-.882-.673 2.88 2.88 0 0 1-.594-.828 2.643 2.643 0 0 1-.211-1.093c0-.51.112-.954.336-1.329.224-.38.518-.692.883-.937a4.007 4.007 0 0 1 1.242-.547c.469-.12.945-.18 1.43-.18 1.104 0 1.908.133 2.414.399v1.476c-.662-.458-1.51-.687-2.547-.687a4.02 4.02 0 0 0-.86.094 2.361 2.361 0 0 0-.765.289c-.224.135-.406.31-.547.523a1.39 1.39 0 0 0-.211.781c0 .287.052.534.156.743.11.208.268.398.477.57.208.172.46.338.758.5.302.161.648.338 1.039.531.4.198.78.406 1.14.625.36.219.675.461.946.727.27.265.484.56.64.883.162.322.242.692.242 1.109 0 .552-.109 1.02-.328 1.406-.213.38-.505.69-.875.93-.364.24-.786.411-1.265.515-.48.11-.985.164-1.516.164-.177 0-.396-.015-.656-.046a7.4 7.4 0 0 1-.797-.125 6.718 6.718 0 0 1-.774-.196 2.506 2.506 0 0 1-.578-.273Zm14.578.453h-1.28v-1.25h-.032c-.557.958-1.378 1.438-2.461 1.438-.797 0-1.422-.211-1.875-.633-.448-.422-.672-.982-.672-1.68 0-1.495.88-2.365 2.64-2.61l2.4-.335c0-1.36-.55-2.04-1.65-2.04-.963 0-1.833.329-2.609.985v-1.313c.787-.5 1.693-.75 2.72-.75 1.88 0 2.82.995 2.82 2.985V34.5Zm-1.28-4.047-1.93.266c-.594.083-1.042.232-1.344.445-.302.208-.453.58-.453 1.117 0 .39.138.711.414.961.28.245.653.367 1.117.367.635 0 1.159-.221 1.57-.664.417-.448.625-1.013.625-1.695v-.797Zm3.21 3.758v-1.375a3.791 3.791 0 0 0 2.305.773c1.125 0 1.687-.375 1.687-1.125a.938.938 0 0 0-.148-.539 1.352 1.352 0 0 0-.39-.398 2.726 2.726 0 0 0-.579-.305c-.219-.094-.456-.19-.71-.289a10.24 10.24 0 0 1-.938-.422 3.094 3.094 0 0 1-.672-.484 1.924 1.924 0 0 1-.406-.617 2.226 2.226 0 0 1-.133-.805c0-.375.086-.706.258-.992.171-.292.4-.534.687-.727.287-.198.612-.346.977-.445.37-.099.75-.148 1.14-.148.693 0 1.313.12 1.86.359v1.297c-.589-.386-1.266-.578-2.032-.578-.24 0-.455.028-.648.086-.193.052-.36.127-.5.226a1.11 1.11 0 0 0-.32.36.94.94 0 0 0-.11.453c0 .208.037.382.11.523.078.14.19.266.336.375.145.11.322.208.53.297.21.088.446.185.712.289.354.135.672.276.953.422.281.14.52.302.719.484.197.177.349.383.453.617.11.235.164.513.164.836 0 .396-.089.74-.266 1.032a2.205 2.205 0 0 1-.695.726 3.204 3.204 0 0 1-1.008.43c-.38.094-.779.14-1.195.14-.823 0-1.537-.158-2.14-.476Zm6.797 0v-1.375a3.791 3.791 0 0 0 2.305.773c1.125 0 1.687-.375 1.687-1.125a.938.938 0 0 0-.148-.539 1.352 1.352 0 0 0-.39-.398 2.726 2.726 0 0 0-.579-.305c-.219-.094-.456-.19-.71-.289a10.24 10.24 0 0 1-.938-.422 3.091 3.091 0 0 1-.672-.484 1.926 1.926 0 0 1-.407-.617 2.228 2.228 0 0 1-.132-.805c0-.375.086-.706.257-.992.172-.292.401-.534.688-.727a3.16 3.16 0 0 1 .977-.445c.37-.099.75-.148 1.14-.148.693 0 1.313.12 1.86.359v1.297c-.589-.386-1.266-.578-2.032-.578-.24 0-.456.028-.648.086-.193.052-.36.127-.5.226a1.11 1.11 0 0 0-.32.36.94.94 0 0 0-.11.453c0 .208.037.382.11.523.078.14.19.266.335.375.146.11.323.208.532.297.208.088.445.185.71.289.355.135.672.276.954.422.281.14.52.302.719.484.197.177.349.383.453.617.109.235.164.513.164.836 0 .396-.089.74-.266 1.032a2.205 2.205 0 0 1-.695.726 3.205 3.205 0 0 1-1.008.43c-.38.094-.779.14-1.195.14-.823 0-1.537-.158-2.141-.476Z"/><rect width="109" height="48" x="9" y="4" stroke="#F44336" stroke-width="2" rx="4"/></svg>