<svg width="19" height="18" viewBox="0 0 19 18" fill="none" xmlns="http://www.w3.org/2000/svg">
<g clip-path="url(#clip0)">
<path d="M9.99548 17.771C12.3216 17.771 14.5527 16.8468 16.1975 15.202C17.8423 13.5572 18.7665 11.3261 18.7665 9C18.7665 6.67389 17.8423 4.44275 16.1975 2.79795C14.5527 1.15314 12.3216 0.228973 9.99548 0.228973C7.66938 0.228973 5.43823 1.15314 3.79343 2.79795C2.14863 4.44275 1.22446 6.67389 1.22446 9C1.22446 11.3261 2.14863 13.5572 3.79343 15.202C5.43823 16.8468 7.66938 17.771 9.99548 17.771Z" fill="white" stroke="white" stroke-width="0.133099"/>
<path d="M7.72205 8.15625L7.39587 8.16211L7.07165 8.18555L6.74744 8.22266L6.42126 8.27539L6.09705 8.3418L5.77283 8.41992L5.44666 8.51172L5.12244 8.61328L4.79822 8.72656L4.47205 8.84766L4.14783 8.97656L3.82361 9.11133L3.49939 9.25195L3.17322 9.39453L2.849 9.54102L2.52478 9.68945L2.19861 9.83594L2.11072 9.875C2.54561 13.8496 5.90383 16.9355 9.99548 16.9355C13.5449 16.9355 16.5432 14.6125 17.5599 11.4023L17.4662 11.3809L17.142 11.2988L16.8177 11.2109L16.4916 11.1152L16.1674 11.0117L15.8431 10.9043L15.5189 10.7871L15.1927 10.666L14.8685 10.5391L14.5443 10.4063L14.2181 10.2695L13.8939 10.127L13.5697 9.98242L13.2435 9.83594L12.9193 9.68945L12.5951 9.54102L12.2689 9.39453L11.9447 9.25195L11.6205 9.11133L11.2943 8.97656L10.9701 8.84766L10.6459 8.72656L10.3197 8.61328L9.99548 8.51172L9.67126 8.41992L9.34509 8.3418L9.02087 8.27539L8.69665 8.22266L8.37048 8.18555L8.04626 8.16211L7.72205 8.15625Z" fill="#5C7DA2"/>
<path d="M7.71033 7.65625L7.38416 7.66406C7.377 7.6639 7.36983 7.6639 7.36267 7.66406L7.0365 7.6875C7.02933 7.68799 7.02216 7.68864 7.01502 7.68945L6.68884 7.72656C6.68167 7.72705 6.67451 7.7277 6.66736 7.72851L6.34314 7.78125C6.3366 7.78242 6.33009 7.78372 6.32361 7.78516L5.99744 7.85156C5.99156 7.85276 5.98569 7.85406 5.97986 7.85548L5.65369 7.9336C5.64845 7.93547 5.64324 7.93742 5.63806 7.93946L5.31189 8.0293C5.30731 8.03054 5.30276 8.03184 5.29822 8.03321L4.97205 8.13672C4.96747 8.13796 4.96292 8.13926 4.95837 8.14063L4.63416 8.25391C4.63024 8.25516 4.62633 8.25647 4.62244 8.25782L4.29822 8.37891C4.29495 8.38017 4.2917 8.38148 4.28845 8.38282L3.96423 8.51172C3.96162 8.51235 3.95902 8.513 3.95642 8.51367L3.63025 8.65039C3.62829 8.65103 3.62634 8.65168 3.62439 8.65234L3.30017 8.79297C3.29887 8.79361 3.29756 8.79427 3.29626 8.79492L2.97009 8.9375L2.96814 8.93945L2.64392 9.08594C2.64327 9.08594 2.64262 9.08594 2.64197 9.08594L2.31775 9.23438L2.07751 9.34375C2.09272 9.69912 2.12853 10.049 2.18884 10.3906L2.40369 10.293C2.40434 10.2923 2.40499 10.2917 2.40564 10.291L2.72986 10.1445L3.05408 9.99805L3.3783 9.85156L3.69861 9.70899L4.01892 9.57227L4.33728 9.43945L4.65173 9.31445L4.96619 9.19727L5.27869 9.08789L5.58923 8.99024L5.89978 8.9043L6.20642 8.83008L6.51111 8.76758L6.8158 8.71875L7.11853 8.68359L7.41931 8.66211L7.72205 8.65625L8.02283 8.66211L8.32556 8.6836L8.6283 8.71875L8.93103 8.76758L9.23767 8.83008L9.54431 8.9043L9.8529 8.99024L10.1635 9.08789L10.476 9.19727L10.7904 9.31445L11.1068 9.43945L11.4252 9.57227L11.7435 9.70899L12.0658 9.85156L12.3881 9.99805L12.7123 10.1445L13.0365 10.291C13.0372 10.2917 13.0378 10.2923 13.0385 10.293L13.3627 10.4395C13.364 10.4395 13.3653 10.4395 13.3666 10.4395L13.6908 10.584C13.6922 10.5847 13.6934 10.5853 13.6947 10.586L14.019 10.7267C14.0209 10.7273 14.0229 10.728 14.0248 10.7287L14.3491 10.8673C14.351 10.868 14.353 10.8686 14.355 10.8693L14.6792 11.0021C14.6811 11.0028 14.6831 11.0034 14.6851 11.0041L15.0113 11.1311C15.0132 11.1324 15.0152 11.1337 15.0171 11.135L15.3433 11.2561C15.3459 11.2574 15.3485 11.2587 15.3511 11.26L15.6752 11.375C15.6777 11.3757 15.6804 11.3763 15.683 11.377L16.0091 11.4864C16.0117 11.4877 16.0143 11.489 16.0169 11.4903L16.3431 11.5918C16.3457 11.5925 16.3483 11.5931 16.3509 11.5938L16.6771 11.6895C16.6797 11.6908 16.6823 11.6921 16.6849 11.6934L17.011 11.7813C17.0136 11.782 17.0162 11.7827 17.0188 11.7833L17.345 11.8673C17.3476 11.868 17.3502 11.8686 17.3528 11.8693L17.386 11.8771C17.5066 11.5671 17.6074 11.2476 17.6887 10.9201L17.5852 10.8966L17.2688 10.8166L16.9544 10.7306L16.638 10.6369L16.3216 10.5373L16.0052 10.4318L15.6887 10.3185L15.3723 10.1994L15.054 10.0744L14.7357 9.94531L14.4154 9.80859L14.0951 9.66992L13.7728 9.52734L13.4505 9.38086L13.1263 9.23437L12.8002 9.08593L12.474 8.93945C12.4733 8.9388 12.4727 8.93814 12.472 8.9375L12.1478 8.79492C12.1459 8.79425 12.1439 8.79361 12.1419 8.79297L11.8177 8.65234C11.8158 8.65168 11.8138 8.65104 11.8118 8.65039L11.4877 8.51367C11.4851 8.513 11.4825 8.51235 11.4799 8.51172L11.1537 8.38281C11.1511 8.38149 11.1485 8.38018 11.1459 8.3789L10.8197 8.25781C10.8158 8.25646 10.8119 8.25516 10.808 8.2539L10.4837 8.14062C10.4792 8.13925 10.4746 8.13795 10.4701 8.13671L10.1459 8.0332C10.1407 8.03181 10.1355 8.03051 10.1302 8.02929L9.80603 7.93945C9.80021 7.93739 9.79435 7.93544 9.78845 7.93359L9.46423 7.85547C9.45775 7.85404 9.45124 7.85274 9.4447 7.85156L9.12048 7.78515C9.114 7.78372 9.10749 7.78242 9.10095 7.78124L8.77478 7.72851C8.76763 7.7277 8.76047 7.72705 8.7533 7.72656L8.42908 7.68945C8.42128 7.68861 8.41347 7.68797 8.40564 7.6875L8.08142 7.66406C8.07361 7.66387 8.0658 7.66387 8.05798 7.66406L7.73377 7.65625C7.72661 7.65609 7.71944 7.65609 7.71228 7.65625C7.71163 7.65625 7.71098 7.65625 7.71033 7.65625H7.71033Z" fill="white"/>
<path d="M12.9193 4.25781L12.5951 4.26562L12.2689 4.28711L11.9447 4.32422L11.6205 4.37695L11.2943 4.44336L10.9701 4.52148L10.6459 4.61328L10.3197 4.71484L9.99548 4.82813L9.67126 4.94922L9.34509 5.07813L9.02087 5.21289L8.69665 5.35352L8.37048 5.49609L8.04626 5.64258L7.72205 5.79102L7.39587 5.93945L7.07165 6.08594L6.74744 6.22852L6.42126 6.37109L6.09705 6.50781L5.77283 6.64062L5.44666 6.76758L5.12244 6.89062L4.79822 7.00586L4.47205 7.11523L4.14783 7.2168L3.82361 7.3125L3.49939 7.40039L3.17322 7.48242L2.849 7.55859L2.52478 7.62695L2.27869 7.67578C2.20535 8.10713 2.15955 8.54748 2.15955 9C2.15955 9.22802 2.1757 9.45275 2.1947 9.67578L2.19861 9.67383L2.52478 9.52734L2.849 9.37891L3.17322 9.23242L3.49939 9.08984L3.82361 8.94922L4.14783 8.8125L4.47205 8.68555L4.79822 8.5625L5.12244 8.45117L5.44666 8.34961L5.77283 8.25781L6.09705 8.17969L6.42126 8.11328L6.74744 8.06055L7.07165 8.02344L7.39587 8L7.72205 7.99219L8.04626 8L8.37048 8.02344L8.69665 8.06055L9.02087 8.11328L9.34509 8.17969L9.67126 8.25781L9.99548 8.34961L10.3197 8.45117L10.6459 8.5625L10.9701 8.68555L11.2943 8.8125L11.6205 8.94922L11.9447 9.08984L12.2689 9.23242L12.5951 9.37891L12.9193 9.52734L13.2435 9.67383L13.5697 9.82031L13.8939 9.96484L14.2181 10.1074L14.5443 10.2441L14.8685 10.377L15.1927 10.5039L15.5189 10.625L15.8431 10.7402L16.1674 10.8496L16.4916 10.9531L16.8177 11.0488L17.142 11.1367L17.4662 11.2187L17.5072 11.2285C17.7161 10.5218 17.8314 9.7752 17.8314 9C17.8314 7.63505 17.4819 6.35286 16.8705 5.23633L16.8177 5.21289L16.4916 5.07813L16.1674 4.94922L15.8431 4.82813L15.5189 4.71484L15.1927 4.61328L14.8685 4.52149L14.5443 4.44336L14.2181 4.37695L13.8939 4.32422L13.5697 4.28711L13.2435 4.26563L12.9193 4.25781Z" fill="#7DB0BC"/>
<path d="M2.63025 11.9473C2.99735 12.8656 3.53183 13.6951 4.1947 14.4062V11.9473H2.63025Z" fill="#444876"/>
<path d="M2.52087 11.6484C2.59286 11.8519 2.67145 12.0526 2.75916 12.248H3.89587V14.0781C4.08324 14.3031 4.28469 14.514 4.49548 14.7168V11.6484H2.52087Z" fill="white"/>
<path d="M4.1947 10.5898V14.4062C4.75977 15.0125 5.41396 15.5319 6.14392 15.9375V10.5898H4.1947Z" fill="#444876"/>
<path d="M3.89587 10.291V14.0781C4.08324 14.3031 4.28469 14.514 4.49548 14.7168V10.8906H5.84314V15.7559C6.03861 15.8761 6.23845 15.9885 6.4447 16.0918V10.291H3.89587Z" fill="white"/>
<path d="M6.14392 10.3457V15.9375C6.74882 16.2736 7.40391 16.5278 8.09314 16.6973V10.3457H6.14392Z" fill="#444876"/>
<path d="M5.84314 10.0449V15.7559C6.03861 15.8761 6.23845 15.9885 6.4447 16.0918V10.6445H7.79236V16.6211C7.99088 16.6783 8.1893 16.7336 8.39392 16.7754V10.0449H5.84314Z" fill="white"/>
<path d="M8.09314 11.4355V16.6973C8.70347 16.8473 9.3384 16.9355 9.99548 16.9355C10.0113 16.9355 10.0266 16.9336 10.0424 16.9335V11.4355L8.09314 11.4355Z" fill="#444876"/>
<path d="M7.79236 11.1347V16.6211C7.99088 16.6783 8.1893 16.7336 8.39392 16.7754V11.7343H9.74158V16.9218C9.82663 16.9245 9.90977 16.9355 9.99548 16.9355C10.1128 16.9355 10.2271 16.923 10.3431 16.9179V11.1347L7.79236 11.1347Z" fill="white"/>
<path d="M10.0424 12.9395V16.9336C10.7165 16.9297 11.3675 16.8354 11.9916 16.6738V12.9395H10.0424Z" fill="#444876"/>
<path d="M9.74158 12.6386V16.9218C9.82663 16.9245 9.90977 16.9355 9.99548 16.9355C10.1128 16.9355 10.2271 16.923 10.3431 16.9179V13.2383H11.6908V16.7519C11.8947 16.7077 12.0947 16.6553 12.2924 16.5957V12.6386L9.74158 12.6386Z" fill="white"/>
<path d="M11.9916 13.9688V16.6738C12.6826 16.4949 13.3366 16.2276 13.9408 15.8809V13.9688H11.9916Z" fill="#444876"/>
<path d="M11.6908 13.668V16.752C11.8947 16.7077 12.0947 16.6553 12.2924 16.5957V14.2676H13.64V16.0469C13.8466 15.94 14.0462 15.8232 14.2416 15.6992V13.668H11.6908Z" fill="white"/>
<path d="M13.9408 14.4023V15.8809C14.6344 15.4828 15.259 14.9837 15.8002 14.4023H13.9408Z" fill="#444876"/>
<path d="M13.64 14.1016V16.0469C13.8466 15.94 14.0462 15.8232 14.2416 15.6992V14.7031H15.5092C15.7072 14.5116 15.8963 14.3127 16.0736 14.1016H13.64Z" fill="white"/>
<path d="M9.99549 17.3359C14.5993 17.3359 18.3314 13.6038 18.3314 8.99999C18.3314 4.3962 14.5993 0.664093 9.99549 0.664093C5.3917 0.664093 1.65959 4.3962 1.65959 8.99999C1.65959 13.6038 5.3917 17.3359 9.99549 17.3359Z" stroke="white" stroke-linecap="square"/>
<path d="M9.99538 -0.00668335C5.02405 -0.00668335 0.988815 4.02855 0.988815 8.99988C0.988815 13.9712 5.02405 18.0067 9.99538 18.0067C14.9667 18.0067 19.0022 13.9712 19.0022 8.99988C19.0022 4.02855 14.9667 -0.00668322 9.99538 -0.00668335ZM9.99538 0.493219C14.6965 0.493219 18.5023 4.29877 18.5023 8.99988C18.5023 13.701 14.6965 17.5068 9.99538 17.5068C5.29427 17.5068 1.48872 13.701 1.48872 8.99988C1.48872 4.29877 5.29427 0.493219 9.99538 0.493219Z" fill="#444876"/>
<path d="M3.53875 6.71612C3.82082 6.71612 4.04948 6.48746 4.04948 6.2054C4.04948 5.92333 3.82082 5.69467 3.53875 5.69467C3.25669 5.69467 3.02803 5.92333 3.02803 6.2054C3.02803 6.48746 3.25669 6.71612 3.53875 6.71612Z" fill="#AFDAD2"/>
<path d="M5.10918 4.5657C5.48777 4.5657 5.79468 4.25879 5.79468 3.8802C5.79468 3.50161 5.48777 3.1947 5.10918 3.1947C4.73058 3.1947 4.42368 3.50161 4.42368 3.8802C4.42368 4.25879 4.73058 4.5657 5.10918 4.5657Z" fill="#AFDAD2"/>
<path d="M7.3081 5.12496C7.59017 5.12496 7.81883 4.89631 7.81883 4.61424C7.81883 4.33217 7.59017 4.10352 7.3081 4.10352C7.02604 4.10352 6.79738 4.33217 6.79738 4.61424C6.79738 4.89631 7.02604 5.12496 7.3081 5.12496Z" fill="#AFDAD2"/>
<path d="M7.10729 2.7166C7.3049 2.7166 7.46509 2.55641 7.46509 2.3588C7.46509 2.1612 7.3049 2.00101 7.10729 2.00101C6.90969 2.00101 6.7495 2.1612 6.7495 2.3588C6.7495 2.55641 6.90969 2.7166 7.10729 2.7166Z" fill="#AFDAD2"/>
<path d="M8.85292 4.13471C9.21945 4.13471 9.51658 3.83758 9.51658 3.47106C9.51658 3.10453 9.21945 2.8074 8.85292 2.8074C8.4864 2.8074 8.18927 3.10453 8.18927 3.47106C8.18927 3.83758 8.4864 4.13471 8.85292 4.13471Z" fill="#AFDAD2"/>
<path d="M9.47085 2.17434C9.75292 2.17434 9.98158 1.94568 9.98158 1.66362C9.98158 1.38155 9.75292 1.15289 9.47085 1.15289C9.18879 1.15289 8.96013 1.38155 8.96013 1.66362C8.96013 1.94568 9.18879 2.17434 9.47085 2.17434Z" fill="#AFDAD2"/>
<path d="M12.1897 2.43852C12.3873 2.43852 12.5475 2.27833 12.5475 2.08073C12.5475 1.88312 12.3873 1.72293 12.1897 1.72293C11.9921 1.72293 11.8319 1.88312 11.8319 2.08073C11.8319 2.27833 11.9921 2.43852 12.1897 2.43852Z" fill="#AFDAD2"/>
<path d="M13.5492 3.89395C13.9278 3.89395 14.2347 3.58704 14.2347 3.20845C14.2347 2.82986 13.9278 2.52295 13.5492 2.52295C13.1706 2.52295 12.8637 2.82986 12.8637 3.20845C12.8637 3.58704 13.1706 3.89395 13.5492 3.89395Z" fill="#AFDAD2"/>
<path d="M11.2474 4.08993C11.5295 4.08993 11.7581 3.86127 11.7581 3.57921C11.7581 3.29714 11.5295 3.06848 11.2474 3.06848C10.9653 3.06848 10.7367 3.29714 10.7367 3.57921C10.7367 3.86127 10.9653 4.08993 11.2474 4.08993Z" fill="#AFDAD2"/>
<path d="M5.54703 6.16418C5.7205 6.16418 5.86113 6.02356 5.86113 5.85008C5.86113 5.67661 5.7205 5.53598 5.54703 5.53598C5.37355 5.53598 5.23293 5.67661 5.23293 5.85008C5.23293 6.02356 5.37355 6.16418 5.54703 6.16418Z" fill="#AFDAD2"/>
<path d="M15.681 4.39403C15.8666 4.39403 16.017 4.24363 16.017 4.05809C16.017 3.87255 15.8666 3.72214 15.681 3.72214C15.4955 3.72214 15.3451 3.87255 15.3451 4.05809C15.3451 4.24363 15.4955 4.39403 15.681 4.39403Z" fill="#AFDAD2"/>
</g>
<defs>
<clipPath id="clip0">
<rect width="18" height="18" fill="white" transform="translate(0.995483)"/>
</clipPath>
</defs>
</svg>
