<svg width="104" height="39" viewBox="0 0 104 39" fill="none" xmlns="http://www.w3.org/2000/svg">
<path d="M1 4C1 2.34315 2.34315 1 4 1H100C101.657 1 103 2.34315 103 4V35C103 36.6569 101.657 38 100 38H4C2.34315 38 1 36.6569 1 35V4Z" fill="#22272E"/>
<g clip-path="url(#clip0)">
<path d="M19.9999 10.5001C15.0323 10.5001 11.0001 14.5323 11.0001 19.4999C11.0001 24.4675 15.0323 28.5 19.9999 28.5C24.9675 28.5 28.9999 24.4675 28.9999 19.4999C28.9999 14.5323 24.9675 10.5001 19.9999 10.5001V10.5001ZM19.9999 10.9997C24.6975 10.9997 28.5003 14.8023 28.5003 19.4999C28.5003 24.1975 24.6975 28.0003 19.9999 28.0003C15.3023 28.0003 11.4997 24.1975 11.4997 19.4999C11.4997 14.8023 15.3023 10.9997 19.9999 10.9997V10.9997Z" fill="#C9D1D9"/>
<path d="M17.7282 19.1565L17.4257 19.1624L17.1252 19.1838L16.8227 19.219L16.5182 19.2678L16.2137 19.3302L15.9073 19.4044L15.599 19.4902L15.2886 19.5878L14.9764 19.6971L14.6622 19.8142L14.346 19.9391L14.0279 20.0718L13.7078 20.2085L13.3877 20.3509L13.0638 20.4973L12.7417 20.6437L12.4158 20.792L12.2167 20.8818C12.2738 21.2054 12.3579 21.5195 12.4529 21.8283H15.5677V20.5695H19.7423V22.8881H23.2221V24.3011H26.2706C26.7187 23.7152 27.0932 23.0695 27.3655 22.3709L27.3538 22.367C27.3508 22.3662 27.3471 22.3661 27.344 22.365L27.02 22.283C27.0169 22.2822 27.0133 22.2799 27.0102 22.2791L26.6843 22.1913C26.6813 22.1905 26.6795 22.1883 26.6765 22.1874L26.3506 22.0937C26.3476 22.0929 26.3458 22.0907 26.3428 22.0898L26.0169 21.9883C26.0139 21.9874 26.012 21.9854 26.0091 21.9844L25.6851 21.8752C25.6822 21.8742 25.6782 21.8743 25.6753 21.8732L25.3513 21.758C25.3486 21.7571 25.3462 21.7551 25.3435 21.7541L25.0195 21.6331C25.0171 21.6322 25.0141 21.6323 25.0117 21.6311L24.6858 21.5023C24.6836 21.5014 24.6821 21.5012 24.6799 21.5003L24.3559 21.3676C24.354 21.3668 24.3519 21.3664 24.35 21.3656L24.0261 21.229C24.0245 21.2283 24.0218 21.2258 24.0202 21.2251L23.6962 21.0846C23.695 21.084 23.6935 21.0832 23.6923 21.0826L23.3683 20.9401L23.3663 20.9381L23.0404 20.7917H23.0384L22.7147 20.6437L22.3907 20.4973L22.0687 20.3509L21.7467 20.2085L21.4286 20.0718L21.1104 19.9391L20.7943 19.8142L20.4801 19.6971L20.1678 19.5878L19.8575 19.4902L19.5491 19.4044L19.2427 19.3302L18.9363 19.2678L18.6338 19.219L18.3313 19.1838L18.0288 19.1624L17.7282 19.1565Z" fill="#C9D1D9"/>
<path d="M22.9214 14.7612L22.5974 14.769L22.2715 14.7905L21.9475 14.8295L21.6235 14.8802L21.2976 14.9466L20.9736 15.0247L20.6496 15.1164L20.3237 15.2179L19.9997 15.3311L19.6758 15.4521L19.3498 15.5809L19.0258 15.7155L18.7019 15.8561L18.3759 16.0005L18.052 16.1469L17.728 16.2932L17.404 16.4416L17.0781 16.5879L16.7541 16.7324L16.4301 16.8729L16.1042 17.0095L15.7802 17.1422L15.4563 17.2691L15.1303 17.392L14.8064 17.5072L14.4824 17.6165L14.1565 17.7179L13.8325 17.8136L13.5085 17.9014L13.1826 17.9853L12.8586 18.0595L12.5346 18.1297L12.2087 18.1922L12.1853 18.1961C12.1151 18.6209 12.0701 19.0549 12.0701 19.4998C12.0701 19.6158 12.0816 19.7288 12.0877 19.8433L12.3277 19.734L12.6517 19.5857C12.6524 19.5857 12.6531 19.5857 12.6537 19.5857L12.9777 19.4393C12.979 19.4387 12.9803 19.438 12.9816 19.4374L13.3055 19.2949C13.3068 19.2942 13.3081 19.2936 13.3094 19.2929L13.6334 19.1524C13.636 19.1518 13.6386 19.1511 13.6412 19.1505L13.9652 19.0139C13.9678 19.0132 13.9704 19.0125 13.973 19.0119L14.2969 18.8831C14.3002 18.8818 14.3035 18.8805 14.3067 18.8792L14.6307 18.7582C14.6346 18.7568 14.6385 18.7555 14.6424 18.7543L14.9683 18.6411C14.9722 18.6397 14.9761 18.6384 14.9801 18.6372L15.306 18.5357C15.3105 18.5337 15.3151 18.5317 15.3196 18.5298L15.6456 18.4401C15.6507 18.438 15.6559 18.4361 15.6612 18.4342L15.9871 18.3561C15.9929 18.3547 15.9988 18.3534 16.0047 18.3522L16.3306 18.2859C16.3371 18.2844 16.3436 18.2831 16.3501 18.282L16.6741 18.2312C16.6812 18.2298 16.6884 18.2285 16.6956 18.2273L17.0215 18.1902C17.0286 18.1894 17.0358 18.1888 17.0429 18.1883L17.3689 18.1649C17.3767 18.1647 17.3845 18.1647 17.3923 18.1649L17.7163 18.1571C17.7241 18.1569 17.7319 18.1569 17.7397 18.1571L18.0637 18.1649C18.0715 18.1647 18.0793 18.1647 18.0871 18.1649L18.4111 18.1883C18.4189 18.1888 18.4267 18.1894 18.4345 18.1902L18.7585 18.2273C18.7656 18.2285 18.7728 18.2298 18.7799 18.2312L19.1059 18.282C19.1124 18.2831 19.1189 18.2844 19.1254 18.2859L19.4493 18.3522C19.4559 18.3534 19.4624 18.3547 19.4689 18.3561L19.7928 18.4342C19.7987 18.436 19.8046 18.438 19.8104 18.4401L20.1344 18.5298C20.1396 18.5317 20.1448 18.5337 20.15 18.5357L20.474 18.6372C20.4785 18.6384 20.4831 18.6397 20.4876 18.6411L20.8116 18.7543C20.8155 18.7555 20.8194 18.7568 20.8233 18.7582L21.1492 18.8792C21.1519 18.8805 21.1545 18.8818 21.157 18.8831L21.483 19.0119C21.4856 19.0125 21.4882 19.0132 21.4908 19.0139L21.8147 19.1505C21.8167 19.1511 21.8187 19.1518 21.8206 19.1524L22.1446 19.2929C22.1466 19.2936 22.1485 19.2942 22.1505 19.2949L22.4745 19.4374C22.4758 19.438 22.4771 19.4387 22.4784 19.4393L22.8024 19.5857C22.803 19.5857 22.8037 19.5857 22.8044 19.5857L23.1283 19.734L23.4523 19.8804L23.7743 20.0268L24.0964 20.1692L24.4164 20.3098L24.7365 20.4444L25.0546 20.5732L25.3727 20.6981L25.6889 20.8172L26.007 20.9304L26.3212 21.0358L26.6374 21.1353L26.9536 21.229L27.2678 21.3149L27.584 21.3949L27.6757 21.4164C27.8295 20.8007 27.9293 20.1637 27.9293 19.4998C27.9293 18.163 27.5965 16.9055 27.014 15.8014L26.8169 15.7155L26.4929 15.5809L26.167 15.4521L25.843 15.3311L25.519 15.2179L25.1931 15.1164L24.8691 15.0247L24.5451 14.9466L24.2192 14.8802L23.8952 14.8295L23.5713 14.7905L23.2453 14.769L22.9214 14.7612Z" fill="#C9D1D9"/>
<path d="M13.5481 17.2178C13.8299 17.2178 14.0584 16.9894 14.0584 16.7075C14.0584 16.4256 13.8299 16.1972 13.5481 16.1972C13.2662 16.1972 13.0377 16.4256 13.0377 16.7075C13.0377 16.9894 13.2662 17.2178 13.5481 17.2178Z" fill="#C9D1D9"/>
<path d="M15.1173 15.0691C15.4956 15.0691 15.8023 14.7624 15.8023 14.3841C15.8023 14.0058 15.4956 13.6991 15.1173 13.6991C14.739 13.6991 14.4323 14.0058 14.4323 14.3841C14.4323 14.7624 14.739 15.0691 15.1173 15.0691Z" fill="#C9D1D9"/>
<path d="M17.3927 15.8152C17.6745 15.8152 17.903 15.5868 17.903 15.3049C17.903 15.023 17.6745 14.7946 17.3927 14.7946C17.1108 14.7946 16.8823 15.023 16.8823 15.3049C16.8823 15.5868 17.1108 15.8152 17.3927 15.8152Z" fill="#C9D1D9"/>
<path d="M19.4757 12.6795C19.7576 12.6795 19.9861 12.451 19.9861 12.1692C19.9861 11.8873 19.7576 11.6588 19.4757 11.6588C19.1939 11.6588 18.9654 11.8873 18.9654 12.1692C18.9654 12.451 19.1939 12.6795 19.4757 12.6795Z" fill="#C9D1D9"/>
<path d="M23.5354 14.0543C23.9137 14.0543 24.2204 13.7476 24.2204 13.3693C24.2204 12.991 23.9137 12.6843 23.5354 12.6843C23.1571 12.6843 22.8504 12.991 22.8504 13.3693C22.8504 13.7476 23.1571 14.0543 23.5354 14.0543Z" fill="#C9D1D9"/>
<path d="M20.7981 14.6249C21.08 14.6249 21.3085 14.3964 21.3085 14.1145C21.3085 13.8327 21.08 13.6042 20.7981 13.6042C20.5163 13.6042 20.2878 13.8327 20.2878 14.1145C20.2878 14.3964 20.5163 14.6249 20.7981 14.6249Z" fill="#C9D1D9"/>
<path d="M12.7847 22.6968V22.7007C13.3863 24.0559 14.3537 25.2118 15.5677 26.0361V22.6968L12.7847 22.6968Z" fill="#C9D1D9"/>
<path d="M16.2645 21.438V26.4577C17.111 26.9128 18.0508 27.2141 19.0475 27.334V21.438H16.2645Z" fill="#C9D1D9"/>
<path d="M19.7424 23.7566V27.3827C19.8286 27.3855 19.913 27.3964 20 27.3964C20.8843 27.3964 21.7319 27.2445 22.5254 26.9768V23.7566L19.7424 23.7566Z" fill="#C9D1D9"/>
<path d="M23.2222 25.1696V26.7055C24.0675 26.3271 24.8337 25.8052 25.49 25.1696H23.2222Z" fill="#C9D1D9"/>
</g>
<path d="M41.8271 24.6035V23.25C41.9821 23.3867 42.1667 23.5098 42.3809 23.6191C42.5996 23.7285 42.8275 23.8219 43.0645 23.8994C43.306 23.9723 43.5475 24.0293 43.7891 24.0703C44.0306 24.1113 44.2539 24.1318 44.459 24.1318C45.1654 24.1318 45.6917 24.002 46.0381 23.7422C46.389 23.4779 46.5645 23.0996 46.5645 22.6074C46.5645 22.3431 46.5052 22.113 46.3867 21.917C46.2728 21.721 46.1133 21.5433 45.9082 21.3838C45.7031 21.2197 45.4593 21.0648 45.1768 20.9189C44.8988 20.7686 44.598 20.6113 44.2744 20.4473C43.9326 20.2741 43.6136 20.0986 43.3174 19.9209C43.0212 19.7432 42.7637 19.5472 42.5449 19.333C42.3262 19.1188 42.153 18.8773 42.0254 18.6084C41.9023 18.335 41.8408 18.016 41.8408 17.6514C41.8408 17.2048 41.9388 16.8174 42.1348 16.4893C42.3307 16.1566 42.5882 15.8831 42.9072 15.6689C43.2262 15.4548 43.5885 15.2952 43.9941 15.1904C44.4043 15.0856 44.8213 15.0332 45.2451 15.0332C46.2113 15.0332 46.9154 15.1494 47.3574 15.3818V16.6738C46.7786 16.2728 46.0358 16.0723 45.1289 16.0723C44.8783 16.0723 44.6276 16.0996 44.377 16.1543C44.1263 16.2044 43.903 16.2887 43.707 16.4072C43.5111 16.5257 43.3516 16.6784 43.2285 16.8652C43.1055 17.0521 43.0439 17.2799 43.0439 17.5488C43.0439 17.7995 43.0895 18.016 43.1807 18.1982C43.2764 18.3805 43.4154 18.5469 43.5977 18.6973C43.7799 18.8477 44.001 18.9935 44.2607 19.1348C44.5251 19.276 44.8281 19.431 45.1699 19.5996C45.5208 19.7728 45.8535 19.9551 46.168 20.1465C46.4824 20.3379 46.7581 20.5498 46.9951 20.7822C47.2321 21.0146 47.4189 21.2721 47.5557 21.5547C47.6969 21.8372 47.7676 22.1608 47.7676 22.5254C47.7676 23.0085 47.6719 23.4186 47.4805 23.7559C47.2936 24.0885 47.0384 24.3597 46.7148 24.5693C46.3958 24.779 46.0267 24.9294 45.6074 25.0205C45.1882 25.1162 44.7461 25.1641 44.2812 25.1641C44.1263 25.1641 43.9349 25.1504 43.707 25.123C43.4792 25.1003 43.2467 25.0638 43.0098 25.0137C42.7728 24.9681 42.5472 24.9111 42.333 24.8428C42.1234 24.7699 41.9548 24.6901 41.8271 24.6035ZM55.1982 21.7803H50.2559C50.2741 22.5596 50.4837 23.1611 50.8848 23.585C51.2858 24.0088 51.8372 24.2207 52.5391 24.2207C53.3275 24.2207 54.0521 23.9609 54.7129 23.4414V24.4941C54.0977 24.9408 53.2842 25.1641 52.2725 25.1641C51.2835 25.1641 50.5065 24.8473 49.9414 24.2139C49.3763 23.5758 49.0938 22.6803 49.0938 21.5273C49.0938 20.4382 49.4014 19.5518 50.0166 18.8682C50.6364 18.18 51.4043 17.8359 52.3203 17.8359C53.2363 17.8359 53.945 18.1322 54.4463 18.7246C54.9476 19.3171 55.1982 20.1396 55.1982 21.1924V21.7803ZM54.0498 20.8301C54.0452 20.1829 53.888 19.6794 53.5781 19.3193C53.2728 18.9593 52.8467 18.7793 52.2998 18.7793C51.7712 18.7793 51.3223 18.9684 50.9531 19.3467C50.584 19.7249 50.3561 20.2194 50.2695 20.8301H54.0498ZM61.9111 25H60.79V23.9062H60.7627C60.2751 24.7448 59.5573 25.1641 58.6094 25.1641C57.9121 25.1641 57.3652 24.9795 56.9688 24.6104C56.5768 24.2412 56.3809 23.7513 56.3809 23.1406C56.3809 21.8327 57.151 21.0716 58.6914 20.8574L60.79 20.5635C60.79 19.374 60.3092 18.7793 59.3477 18.7793C58.5046 18.7793 57.7435 19.0664 57.0645 19.6406V18.4922C57.7526 18.0547 58.5456 17.8359 59.4434 17.8359C61.0885 17.8359 61.9111 18.7064 61.9111 20.4473V25ZM60.79 21.459L59.1016 21.6914C58.582 21.7643 58.1901 21.8942 57.9258 22.0811C57.6615 22.2633 57.5293 22.5892 57.5293 23.0586C57.5293 23.4004 57.6501 23.6807 57.8916 23.8994C58.1377 24.1136 58.4635 24.2207 58.8691 24.2207C59.4251 24.2207 59.8831 24.027 60.2432 23.6396C60.6077 23.2477 60.79 22.7533 60.79 22.1562V21.459ZM65.1719 23.9883H65.1445V25H64.0234V14.6367H65.1445V19.2305H65.1719C65.7233 18.3008 66.5299 17.8359 67.5918 17.8359C68.4896 17.8359 69.1914 18.1504 69.6973 18.7793C70.2077 19.4036 70.4629 20.2422 70.4629 21.2949C70.4629 22.4661 70.1781 23.4049 69.6084 24.1113C69.0387 24.8132 68.2594 25.1641 67.2705 25.1641C66.3454 25.1641 65.6458 24.7721 65.1719 23.9883ZM65.1445 21.165V22.1426C65.1445 22.7214 65.3314 23.2135 65.7051 23.6191C66.0833 24.0202 66.5618 24.2207 67.1406 24.2207C67.8197 24.2207 68.3506 23.9609 68.7334 23.4414C69.1208 22.9219 69.3145 22.1995 69.3145 21.2744C69.3145 20.4951 69.1344 19.8844 68.7744 19.4424C68.4144 19.0003 67.9268 18.7793 67.3115 18.7793C66.6598 18.7793 66.1357 19.0072 65.7393 19.4629C65.3428 19.9141 65.1445 20.4814 65.1445 21.165ZM75.1797 25.1641C74.1452 25.1641 73.318 24.8382 72.6982 24.1865C72.083 23.5303 71.7754 22.6621 71.7754 21.582C71.7754 20.4062 72.0967 19.488 72.7393 18.8271C73.3818 18.1663 74.25 17.8359 75.3438 17.8359C76.3874 17.8359 77.2008 18.1572 77.7842 18.7998C78.3721 19.4424 78.666 20.3333 78.666 21.4727C78.666 22.5892 78.3493 23.4847 77.7158 24.1592C77.0869 24.8291 76.2415 25.1641 75.1797 25.1641ZM75.2617 18.7793C74.5417 18.7793 73.972 19.0254 73.5527 19.5176C73.1335 20.0052 72.9238 20.6797 72.9238 21.541C72.9238 22.3704 73.1357 23.0244 73.5596 23.5029C73.9834 23.9814 74.5508 24.2207 75.2617 24.2207C75.9863 24.2207 76.5423 23.986 76.9297 23.5166C77.3216 23.0472 77.5176 22.3796 77.5176 21.5137C77.5176 20.6387 77.3216 19.9642 76.9297 19.4902C76.5423 19.0163 75.9863 18.7793 75.2617 18.7793ZM84.1074 19.1348C83.9115 18.9844 83.6289 18.9092 83.2598 18.9092C82.7812 18.9092 82.3802 19.1348 82.0566 19.5859C81.7376 20.0371 81.5781 20.6523 81.5781 21.4316V25H80.457V18H81.5781V19.4424H81.6055C81.765 18.9502 82.0088 18.5674 82.3369 18.2939C82.665 18.016 83.0319 17.877 83.4375 17.877C83.7292 17.877 83.9525 17.9089 84.1074 17.9727V19.1348ZM91.1074 25H89.9863V21.0078C89.9863 19.5221 89.444 18.7793 88.3594 18.7793C87.7988 18.7793 87.334 18.9912 86.9648 19.415C86.6003 19.8343 86.418 20.3652 86.418 21.0078V25H85.2969V18H86.418V19.1621H86.4453C86.974 18.278 87.7396 17.8359 88.7422 17.8359C89.5078 17.8359 90.0934 18.0843 90.499 18.5811C90.9046 19.0732 91.1074 19.7865 91.1074 20.7207V25Z" fill="#C9D1D9"/>
<path d="M4 2H100V0H4V2ZM102 4V35H104V4H102ZM100 37H4V39H100V37ZM2 35V4H0V35H2ZM4 37C2.89543 37 2 36.1046 2 35H0C0 37.2091 1.79087 39 4 39V37ZM102 35C102 36.1046 101.105 37 100 37V39C102.209 39 104 37.2091 104 35H102ZM100 2C101.105 2 102 2.89543 102 4H104C104 1.79086 102.209 0 100 0V2ZM4 0C1.79086 0 0 1.79086 0 4H2C2 2.89543 2.89543 2 4 2V0Z" fill="#C9D1D9"/>
<defs>
<clipPath id="clip0">
<rect width="18" height="18" fill="white" transform="translate(11 10.5)"/>
</clipPath>
</defs>
</svg>
