<svg width="125" height="47" viewBox="0 0 125 47" fill="none" xmlns="http://www.w3.org/2000/svg">
<rect x="1" y="1" width="123" height="45" rx="4" fill="#22272E"/>
<g clip-path="url(#clip0_28_4938)">
<path d="M24.9999 14.5001C20.0323 14.5001 16.0001 18.5323 16.0001 23.4999C16.0001 28.4675 20.0323 32.5 24.9999 32.5C29.9675 32.5 34 28.4675 34 23.4999C34 18.5323 29.9675 14.5001 24.9999 14.5001ZM24.9999 14.9997C29.6975 14.9997 33.5004 18.8023 33.5004 23.4999C33.5004 28.1975 29.6975 32.0003 24.9999 32.0003C20.3023 32.0003 16.4998 28.1975 16.4998 23.4999C16.4998 18.8023 20.3023 14.9997 24.9999 14.9997Z" fill="#ADBAC7"/>
<path d="M22.7283 23.1565L22.4258 23.1624L22.1252 23.1838L21.8227 23.219L21.5183 23.2678L21.2138 23.3302L20.9074 23.4044L20.599 23.4902L20.2887 23.5878L19.9764 23.6971L19.6622 23.8142L19.3461 23.9391L19.0279 24.0718L18.7079 24.2085L18.3878 24.3509L18.0638 24.4973L17.7418 24.6437L17.4159 24.792L17.2168 24.8818C17.2738 25.2054 17.358 25.5195 17.4529 25.8283H20.5678V24.5695H24.7424V26.8881H28.2222V28.3011H31.2707C31.7188 27.7152 32.0933 27.0695 32.3656 26.3709L32.3539 26.367C32.3509 26.3662 32.3472 26.3661 32.3441 26.365L32.0201 26.283C32.017 26.2822 32.0134 26.2799 32.0103 26.2791L31.6844 26.1913C31.6814 26.1905 31.6796 26.1883 31.6766 26.1874L31.3506 26.0937C31.3477 26.0929 31.3459 26.0907 31.3428 26.0898L31.0169 25.9883C31.0139 25.9874 31.012 25.9854 31.0091 25.9844L30.6851 25.8752C30.6822 25.8742 30.6782 25.8743 30.6753 25.8732L30.3514 25.758C30.3487 25.7571 30.3463 25.7551 30.3436 25.7541L30.0196 25.6331C30.0172 25.6322 30.0142 25.6323 30.0118 25.6311L29.6859 25.5023C29.6837 25.5014 29.6822 25.5012 29.68 25.5003L29.356 25.3676C29.3541 25.3668 29.352 25.3664 29.3501 25.3656L29.0261 25.229C29.0245 25.2283 29.0218 25.2258 29.0202 25.2251L28.6963 25.0846C28.6951 25.084 28.6936 25.0832 28.6924 25.0826L28.3684 24.9401L28.3664 24.9381L28.0405 24.7917H28.0385L27.7148 24.6437L27.3908 24.4973L27.0688 24.3509L26.7468 24.2085L26.4286 24.0718L26.1105 23.9391L25.7943 23.8142L25.4801 23.6971L25.1679 23.5878L24.8575 23.4902L24.5492 23.4044L24.2428 23.3302L23.9364 23.2678L23.6339 23.219L23.3313 23.1838L23.0288 23.1624L22.7283 23.1565Z" fill="#ADBAC7"/>
<path d="M27.9214 18.7612L27.5974 18.769L27.2715 18.7905L26.9475 18.8295L26.6236 18.8802L26.2976 18.9466L25.9737 19.0247L25.6497 19.1164L25.3238 19.2179L24.9998 19.3311L24.6758 19.4521L24.3499 19.5809L24.0259 19.7155L23.7019 19.8561L23.376 20.0005L23.052 20.1469L22.7281 20.2932L22.4041 20.4416L22.0782 20.5879L21.7542 20.7324L21.4302 20.8729L21.1043 21.0095L20.7803 21.1422L20.4563 21.2691L20.1304 21.392L19.8064 21.5072L19.4824 21.6165L19.1565 21.7179L18.8325 21.8136L18.5086 21.9014L18.1826 21.9853L17.8587 22.0595L17.5347 22.1297L17.2088 22.1922L17.1853 22.1961C17.1151 22.6209 17.0702 23.0549 17.0702 23.4998C17.0702 23.6158 17.0817 23.7288 17.0878 23.8433L17.3278 23.734L17.6518 23.5857C17.6525 23.5857 17.6531 23.5857 17.6538 23.5857L17.9777 23.4393C17.979 23.4387 17.9803 23.438 17.9816 23.4374L18.3056 23.2949C18.3069 23.2942 18.3082 23.2936 18.3095 23.2929L18.6335 23.1524C18.6361 23.1518 18.6387 23.1511 18.6413 23.1505L18.9652 23.0139C18.9678 23.0132 18.9704 23.0125 18.973 23.0119L19.297 22.8831C19.3003 22.8818 19.3035 22.8805 19.3068 22.8792L19.6308 22.7582C19.6347 22.7568 19.6386 22.7555 19.6425 22.7543L19.9684 22.6411C19.9723 22.6397 19.9762 22.6384 19.9801 22.6372L20.306 22.5357C20.3106 22.5337 20.3151 22.5317 20.3197 22.5298L20.6456 22.4401C20.6508 22.438 20.656 22.4361 20.6612 22.4342L20.9872 22.3561C20.993 22.3547 20.9989 22.3534 21.0047 22.3522L21.3307 22.2859C21.3371 22.2844 21.3436 22.2831 21.3502 22.282L21.6742 22.2312C21.6813 22.2298 21.6884 22.2285 21.6956 22.2273L22.0215 22.1902C22.0287 22.1894 22.0358 22.1888 22.043 22.1883L22.3689 22.1649C22.3767 22.1647 22.3846 22.1647 22.3924 22.1649L22.7163 22.1571C22.7241 22.1569 22.7319 22.1569 22.7398 22.1571L23.0637 22.1649C23.0715 22.1647 23.0793 22.1647 23.0872 22.1649L23.4111 22.1883C23.4189 22.1888 23.4268 22.1894 23.4345 22.1902L23.7585 22.2273C23.7657 22.2285 23.7729 22.2298 23.78 22.2312L24.1059 22.282C24.1124 22.2831 24.119 22.2844 24.1254 22.2859L24.4494 22.3522C24.4559 22.3534 24.4624 22.3547 24.4689 22.3561L24.7929 22.4342C24.7988 22.436 24.8046 22.438 24.8105 22.4401L25.1344 22.5298C25.1397 22.5317 25.1449 22.5337 25.1501 22.5357L25.474 22.6372C25.4786 22.6384 25.4832 22.6397 25.4877 22.6411L25.8117 22.7543C25.8156 22.7555 25.8195 22.7568 25.8234 22.7582L26.1493 22.8792C26.1519 22.8805 26.1545 22.8818 26.1571 22.8831L26.483 23.0119C26.4856 23.0125 26.4882 23.0132 26.4908 23.0139L26.8148 23.1505C26.8168 23.1511 26.8187 23.1518 26.8207 23.1524L27.1447 23.2929C27.1466 23.2936 27.1486 23.2942 27.1506 23.2949L27.4745 23.4374C27.4758 23.438 27.4771 23.4387 27.4784 23.4393L27.8024 23.5857C27.8031 23.5857 27.8037 23.5857 27.8044 23.5857L28.1284 23.734L28.4524 23.8804L28.7744 24.0268L29.0964 24.1692L29.4165 24.3098L29.7366 24.4444L30.0547 24.5732L30.3728 24.6981L30.689 24.8172L31.0071 24.9304L31.3213 25.0358L31.6375 25.1353L31.9536 25.229L32.2679 25.3149L32.584 25.3949L32.6758 25.4164C32.8295 24.8007 32.9294 24.1637 32.9294 23.4998C32.9294 22.163 32.5966 20.9055 32.0141 19.8014L31.8169 19.7155L31.493 19.5809L31.167 19.4521L30.8431 19.3311L30.5191 19.2179L30.1932 19.1164L29.8692 19.0247L29.5452 18.9466L29.2193 18.8802L28.8953 18.8295L28.5713 18.7905L28.2454 18.769L27.9214 18.7612Z" fill="#ADBAC7"/>
<path d="M18.5482 21.2178C18.83 21.2178 19.0585 20.9894 19.0585 20.7075C19.0585 20.4256 18.83 20.1972 18.5482 20.1972C18.2663 20.1972 18.0378 20.4256 18.0378 20.7075C18.0378 20.9894 18.2663 21.2178 18.5482 21.2178Z" fill="#ADBAC7"/>
<path d="M20.1174 19.0691C20.4957 19.0691 20.8023 18.7624 20.8023 18.3841C20.8023 18.0058 20.4957 17.6991 20.1174 17.6991C19.7391 17.6991 19.4324 18.0058 19.4324 18.3841C19.4324 18.7624 19.7391 19.0691 20.1174 19.0691Z" fill="#ADBAC7"/>
<path d="M22.3928 19.8152C22.6746 19.8152 22.9031 19.5868 22.9031 19.3049C22.9031 19.023 22.6746 18.7946 22.3928 18.7946C22.1109 18.7946 21.8824 19.023 21.8824 19.3049C21.8824 19.5868 22.1109 19.8152 22.3928 19.8152Z" fill="#ADBAC7"/>
<path d="M24.4758 16.6795C24.7576 16.6795 24.9861 16.451 24.9861 16.1692C24.9861 15.8873 24.7576 15.6588 24.4758 15.6588C24.1939 15.6588 23.9655 15.8873 23.9655 16.1692C23.9655 16.451 24.1939 16.6795 24.4758 16.6795Z" fill="#ADBAC7"/>
<path d="M28.5355 18.0543C28.9138 18.0543 29.2204 17.7476 29.2204 17.3693C29.2204 16.991 28.9138 16.6843 28.5355 16.6843C28.1571 16.6843 27.8505 16.991 27.8505 17.3693C27.8505 17.7476 28.1571 18.0543 28.5355 18.0543Z" fill="#ADBAC7"/>
<path d="M25.7982 18.6249C26.08 18.6249 26.3085 18.3964 26.3085 18.1145C26.3085 17.8327 26.08 17.6042 25.7982 17.6042C25.5163 17.6042 25.2878 17.8327 25.2878 18.1145C25.2878 18.3964 25.5163 18.6249 25.7982 18.6249Z" fill="#ADBAC7"/>
<path d="M17.7848 26.6968V26.7007C18.3865 28.0559 19.3539 29.2118 20.5679 30.0361V26.6968L17.7848 26.6968Z" fill="#ADBAC7"/>
<path d="M21.2645 25.438V30.4577C22.111 30.9128 23.0509 31.2141 24.0476 31.334V25.438H21.2645Z" fill="#ADBAC7"/>
<path d="M24.7424 27.7566V31.3827C24.8287 31.3855 24.9131 31.3964 25.0001 31.3964C25.8843 31.3964 26.732 31.2445 27.5255 30.9768V27.7566L24.7424 27.7566Z" fill="#ADBAC7"/>
<path d="M28.2222 29.1696V30.7055C29.0675 30.3271 29.8337 29.8052 30.49 29.1696H28.2222Z" fill="#ADBAC7"/>
</g>
<path d="M46.9453 29.5469V28C47.1224 28.1562 47.3333 28.2969 47.5781 28.4219C47.8281 28.5469 48.0885 28.6536 48.3594 28.7422C48.6354 28.8255 48.9115 28.8906 49.1875 28.9375C49.4635 28.9844 49.7188 29.0078 49.9531 29.0078C50.7604 29.0078 51.362 28.8594 51.7578 28.5625C52.1589 28.2604 52.3594 27.8281 52.3594 27.2656C52.3594 26.9635 52.2917 26.7005 52.1562 26.4766C52.026 26.2526 51.8438 26.0495 51.6094 25.8672C51.375 25.6797 51.0964 25.5026 50.7734 25.3359C50.4557 25.1641 50.112 24.9844 49.7422 24.7969C49.3516 24.599 48.987 24.3984 48.6484 24.1953C48.3099 23.9922 48.0156 23.7682 47.7656 23.5234C47.5156 23.2786 47.3177 23.0026 47.1719 22.6953C47.0312 22.3828 46.9609 22.0182 46.9609 21.6016C46.9609 21.0911 47.0729 20.6484 47.2969 20.2734C47.5208 19.8932 47.8151 19.5807 48.1797 19.3359C48.5443 19.0911 48.9583 18.9089 49.4219 18.7891C49.8906 18.6693 50.3672 18.6094 50.8516 18.6094C51.9557 18.6094 52.7604 18.7422 53.2656 19.0078V20.4844C52.6042 20.026 51.7552 19.7969 50.7188 19.7969C50.4323 19.7969 50.1458 19.8281 49.8594 19.8906C49.5729 19.9479 49.3177 20.0443 49.0938 20.1797C48.8698 20.3151 48.6875 20.4896 48.5469 20.7031C48.4062 20.9167 48.3359 21.1771 48.3359 21.4844C48.3359 21.7708 48.388 22.0182 48.4922 22.2266C48.6016 22.4349 48.7604 22.625 48.9688 22.7969C49.1771 22.9688 49.4297 23.1354 49.7266 23.2969C50.0286 23.4583 50.375 23.6354 50.7656 23.8281C51.1667 24.026 51.5469 24.2344 51.9062 24.4531C52.2656 24.6719 52.5807 24.9141 52.8516 25.1797C53.1224 25.4453 53.3359 25.7396 53.4922 26.0625C53.6536 26.3854 53.7344 26.7552 53.7344 27.1719C53.7344 27.724 53.625 28.1927 53.4062 28.5781C53.1927 28.9583 52.901 29.2682 52.5312 29.5078C52.1667 29.7474 51.7448 29.9193 51.2656 30.0234C50.7865 30.1328 50.2812 30.1875 49.75 30.1875C49.5729 30.1875 49.3542 30.1719 49.0938 30.1406C48.8333 30.1146 48.5677 30.0729 48.2969 30.0156C48.026 29.9635 47.7682 29.8984 47.5234 29.8203C47.2839 29.737 47.0911 29.6458 46.9453 29.5469ZM62.2266 26.3203H56.5781C56.599 27.2109 56.8385 27.8984 57.2969 28.3828C57.7552 28.8672 58.3854 29.1094 59.1875 29.1094C60.0885 29.1094 60.9167 28.8125 61.6719 28.2188V29.4219C60.9688 29.9323 60.0391 30.1875 58.8828 30.1875C57.7526 30.1875 56.8646 29.8255 56.2188 29.1016C55.5729 28.3724 55.25 27.349 55.25 26.0312C55.25 24.7865 55.6016 23.7734 56.3047 22.9922C57.013 22.2057 57.8906 21.8125 58.9375 21.8125C59.9844 21.8125 60.7943 22.151 61.3672 22.8281C61.9401 23.5052 62.2266 24.4453 62.2266 25.6484V26.3203ZM60.9141 25.2344C60.9089 24.4948 60.7292 23.9193 60.375 23.5078C60.026 23.0964 59.5391 22.8906 58.9141 22.8906C58.3099 22.8906 57.7969 23.1068 57.375 23.5391C56.9531 23.9714 56.6927 24.5365 56.5938 25.2344H60.9141ZM69.8984 30H68.6172V28.75H68.5859C68.0286 29.7083 67.2083 30.1875 66.125 30.1875C65.3281 30.1875 64.7031 29.9766 64.25 29.5547C63.8021 29.1328 63.5781 28.5729 63.5781 27.875C63.5781 26.3802 64.4583 25.5104 66.2188 25.2656L68.6172 24.9297C68.6172 23.5703 68.0677 22.8906 66.9688 22.8906C66.0052 22.8906 65.1354 23.2188 64.3594 23.875V22.5625C65.1458 22.0625 66.0521 21.8125 67.0781 21.8125C68.9583 21.8125 69.8984 22.8073 69.8984 24.7969V30ZM68.6172 25.9531L66.6875 26.2188C66.0938 26.3021 65.6458 26.4505 65.3438 26.6641C65.0417 26.8724 64.8906 27.2448 64.8906 27.7812C64.8906 28.1719 65.0286 28.4922 65.3047 28.7422C65.5859 28.987 65.9583 29.1094 66.4219 29.1094C67.0573 29.1094 67.5807 28.888 67.9922 28.4453C68.4089 27.9974 68.6172 27.4323 68.6172 26.75V25.9531ZM73.625 28.8438H73.5938V30H72.3125V18.1562H73.5938V23.4062H73.625C74.2552 22.3438 75.1771 21.8125 76.3906 21.8125C77.4167 21.8125 78.2188 22.1719 78.7969 22.8906C79.3802 23.6042 79.6719 24.5625 79.6719 25.7656C79.6719 27.1042 79.3464 28.1771 78.6953 28.9844C78.0443 29.7865 77.1536 30.1875 76.0234 30.1875C74.9661 30.1875 74.1667 29.7396 73.625 28.8438ZM73.5938 25.6172V26.7344C73.5938 27.3958 73.8073 27.9583 74.2344 28.4219C74.6667 28.8802 75.2135 29.1094 75.875 29.1094C76.651 29.1094 77.2578 28.8125 77.6953 28.2188C78.138 27.625 78.3594 26.7995 78.3594 25.7422C78.3594 24.8516 78.1536 24.1536 77.7422 23.6484C77.3307 23.1432 76.7734 22.8906 76.0703 22.8906C75.3255 22.8906 74.7266 23.151 74.2734 23.6719C73.8203 24.1875 73.5938 24.8359 73.5938 25.6172ZM85.0625 30.1875C83.8802 30.1875 82.9349 29.8151 82.2266 29.0703C81.5234 28.3203 81.1719 27.3281 81.1719 26.0938C81.1719 24.75 81.5391 23.7005 82.2734 22.9453C83.0078 22.1901 84 21.8125 85.25 21.8125C86.4427 21.8125 87.3724 22.1797 88.0391 22.9141C88.7109 23.6484 89.0469 24.6667 89.0469 25.9688C89.0469 27.2448 88.6849 28.2682 87.9609 29.0391C87.2422 29.8047 86.276 30.1875 85.0625 30.1875ZM85.1562 22.8906C84.3333 22.8906 83.6823 23.1719 83.2031 23.7344C82.724 24.2917 82.4844 25.0625 82.4844 26.0469C82.4844 26.9948 82.7266 27.7422 83.2109 28.2891C83.6953 28.8359 84.3438 29.1094 85.1562 29.1094C85.9844 29.1094 86.6198 28.8411 87.0625 28.3047C87.5104 27.7682 87.7344 27.0052 87.7344 26.0156C87.7344 25.0156 87.5104 24.2448 87.0625 23.7031C86.6198 23.1615 85.9844 22.8906 85.1562 22.8906ZM95.2656 23.2969C95.0417 23.125 94.7188 23.0391 94.2969 23.0391C93.75 23.0391 93.2917 23.2969 92.9219 23.8125C92.5573 24.3281 92.375 25.0312 92.375 25.9219V30H91.0938V22H92.375V23.6484H92.4062C92.5885 23.0859 92.8672 22.6484 93.2422 22.3359C93.6172 22.0182 94.0365 21.8594 94.5 21.8594C94.8333 21.8594 95.0885 21.8958 95.2656 21.9688V23.2969ZM103.297 30H102.016V25.4375C102.016 23.7396 101.396 22.8906 100.156 22.8906C99.5156 22.8906 98.9844 23.1328 98.5625 23.6172C98.1458 24.0964 97.9375 24.7031 97.9375 25.4375V30H96.6562V22H97.9375V23.3281H97.9688C98.5729 22.3177 99.4479 21.8125 100.594 21.8125C101.469 21.8125 102.138 22.0964 102.602 22.6641C103.065 23.2266 103.297 24.0417 103.297 25.1094V30Z" fill="#ADBAC7"/>
<rect x="1" y="1" width="123" height="45" rx="4" stroke="#444C56" stroke-width="2"/>
<defs>
<clipPath id="clip0_28_4938">
<rect width="18" height="18" fill="white" transform="translate(16 14.5)"/>
</clipPath>
</defs>
</svg>
