<svg width="82" height="28" viewBox="0 0 82 28" fill="none" xmlns="http://www.w3.org/2000/svg">
<g filter="url(#filter0_d)">
<path d="M2 5C2 2.23858 4.23858 0 7 0H75C77.7614 0 80 2.23858 80 5V19C80 21.7614 77.7614 24 75 24H7C4.23858 24 2 21.7614 2 19V5Z" fill="white"/>
<g clip-path="url(#clip0)">
<path d="M16 20.771C18.3261 20.771 20.5572 19.8469 22.202 18.2021C23.8468 16.5572 24.771 14.3261 24.771 12C24.771 9.6739 23.8468 7.44275 22.202 5.79795C20.5572 4.15315 18.3261 3.22898 16 3.22898C13.6739 3.22898 11.4427 4.15315 9.79795 5.79795C8.15314 7.44275 7.22897 9.6739 7.22897 12C7.22897 14.3261 8.15314 16.5572 9.79795 18.2021C11.4427 19.8469 13.6739 20.771 16 20.771Z" fill="white" stroke="white" stroke-width="0.133099"/>
<path d="M13.7266 11.1562L13.4004 11.1621L13.0762 11.1855L12.752 11.2227L12.4258 11.2754L12.1016 11.3418L11.7773 11.4199L11.4512 11.5117L11.127 11.6133L10.8027 11.7266L10.4766 11.8477L10.1523 11.9766L9.82812 12.1113L9.50391 12.252L9.17773 12.3945L8.85352 12.541L8.5293 12.6895L8.20312 12.8359L8.11523 12.875C8.55013 16.8496 11.9083 19.9355 16 19.9355C19.5495 19.9355 22.5477 17.6125 23.5645 14.4023L23.4707 14.3809L23.1465 14.2988L22.8223 14.2109L22.4961 14.1152L22.1719 14.0117L21.8477 13.9043L21.5234 13.7871L21.1973 13.666L20.873 13.5391L20.5488 13.4063L20.2227 13.2695L19.8984 13.127L19.5742 12.9824L19.248 12.8359L18.9238 12.6895L18.5996 12.541L18.2734 12.3945L17.9492 12.252L17.625 12.1113L17.2988 11.9766L16.9746 11.8477L16.6504 11.7266L16.3242 11.6133L16 11.5117L15.6758 11.4199L15.3496 11.3418L15.0254 11.2754L14.7012 11.2227L14.375 11.1855L14.0508 11.1621L13.7266 11.1562Z" fill="#5C7DA2"/>
<path d="M13.7148 10.6562L13.3887 10.6641C13.3815 10.6639 13.3743 10.6639 13.3672 10.6641L13.041 10.6875C13.0338 10.688 13.0267 10.6886 13.0195 10.6894L12.6934 10.7266C12.6862 10.7271 12.679 10.7277 12.6719 10.7285L12.3477 10.7812C12.3411 10.7824 12.3346 10.7837 12.3281 10.7852L12.002 10.8516C11.9961 10.8528 11.9902 10.8541 11.9844 10.8555L11.6582 10.9336C11.653 10.9355 11.6478 10.9374 11.6426 10.9395L11.3164 11.0293C11.3118 11.0305 11.3073 11.0318 11.3027 11.0332L10.9766 11.1367C10.972 11.138 10.9674 11.1393 10.9629 11.1406L10.6387 11.2539C10.6348 11.2552 10.6308 11.2565 10.627 11.2578L10.3027 11.3789C10.2995 11.3802 10.2962 11.3815 10.293 11.3828L9.96875 11.5117C9.96614 11.5123 9.96354 11.513 9.96094 11.5137L9.63477 11.6504C9.63281 11.651 9.63086 11.6517 9.62891 11.6523L9.30469 11.793C9.30338 11.7936 9.30208 11.7943 9.30078 11.7949L8.97461 11.9375L8.97266 11.9395L8.64844 12.0859C8.64779 12.0859 8.64713 12.0859 8.64649 12.0859L8.32227 12.2344L8.08203 12.3438C8.09724 12.6991 8.13305 13.049 8.19336 13.3906L8.4082 13.293C8.40886 13.2923 8.40951 13.2917 8.41015 13.291L8.73437 13.1445L9.05859 12.998L9.38281 12.8516L9.70312 12.709L10.0234 12.5723L10.3418 12.4395L10.6562 12.3145L10.9707 12.1973L11.2832 12.0879L11.5937 11.9902L11.9043 11.9043L12.2109 11.8301L12.5156 11.7676L12.8203 11.7187L13.123 11.6836L13.4238 11.6621L13.7266 11.6563L14.0273 11.6621L14.3301 11.6836L14.6328 11.7188L14.9355 11.7676L15.2422 11.8301L15.5488 11.9043L15.8574 11.9902L16.168 12.0879L16.4805 12.1973L16.7949 12.3145L17.1113 12.4395L17.4297 12.5723L17.748 12.709L18.0703 12.8516L18.3926 12.998L18.7168 13.1445L19.041 13.291C19.0417 13.2917 19.0423 13.2923 19.043 13.293L19.3672 13.4395C19.3686 13.4395 19.3698 13.4395 19.3711 13.4395L19.6953 13.584C19.6967 13.5847 19.6979 13.5853 19.6992 13.586L20.0235 13.7267C20.0254 13.7273 20.0274 13.728 20.0294 13.7287L20.3536 13.8673C20.3555 13.868 20.3575 13.8686 20.3595 13.8693L20.6837 14.0021C20.6856 14.0028 20.6876 14.0034 20.6896 14.0041L21.0158 14.1311C21.0177 14.1324 21.0197 14.1337 21.0217 14.135L21.3478 14.2561C21.3504 14.2574 21.353 14.2587 21.3556 14.26L21.6797 14.375C21.6823 14.3757 21.6849 14.3763 21.6875 14.377L22.0136 14.4864C22.0162 14.4877 22.0188 14.489 22.0214 14.4903L22.3476 14.5918C22.3502 14.5925 22.3528 14.5931 22.3554 14.5938L22.6816 14.6895C22.6842 14.6908 22.6868 14.6921 22.6894 14.6934L23.0156 14.7813C23.0182 14.782 23.0208 14.7827 23.0234 14.7833L23.3495 14.8673C23.3521 14.868 23.3547 14.8686 23.3573 14.8693L23.3905 14.8771C23.5111 14.5671 23.6119 14.2476 23.6933 13.9201L23.5897 13.8966L23.2733 13.8166L22.9589 13.7306L22.6425 13.6369L22.3261 13.5373L22.0097 13.4318L21.6933 13.3185L21.3769 13.1994L21.0585 13.0744L20.7402 12.9453L20.4199 12.8086L20.0996 12.6699L19.7773 12.5273L19.4551 12.3809L19.1308 12.2344L18.8047 12.0859L18.4785 11.9394C18.4778 11.9388 18.4772 11.9381 18.4765 11.9375L18.1523 11.7949C18.1504 11.7943 18.1484 11.7936 18.1464 11.793L17.8222 11.6523C17.8203 11.6517 17.8183 11.651 17.8163 11.6504L17.4922 11.5137C17.4896 11.513 17.487 11.5124 17.4844 11.5117L17.1582 11.3828C17.1556 11.3815 17.153 11.3802 17.1504 11.3789L16.8242 11.2578C16.8203 11.2565 16.8164 11.2552 16.8125 11.2539L16.4883 11.1406C16.4837 11.1393 16.4792 11.138 16.4746 11.1367L16.1504 11.0332C16.1452 11.0318 16.14 11.0305 16.1348 11.0293L15.8105 10.9395C15.8047 10.9374 15.7989 10.9354 15.793 10.9336L15.4688 10.8555C15.4623 10.854 15.4558 10.8527 15.4492 10.8516L15.125 10.7852C15.1185 10.7837 15.112 10.7824 15.1055 10.7812L14.7793 10.7285C14.7721 10.7277 14.765 10.7271 14.7578 10.7266L14.4336 10.6895C14.4258 10.6886 14.418 10.688 14.4102 10.6875L14.0859 10.6641C14.0781 10.6639 14.0703 10.6639 14.0625 10.6641L13.7383 10.6562C13.7311 10.6561 13.724 10.6561 13.7168 10.6562C13.7161 10.6562 13.7155 10.6562 13.7148 10.6562H13.7148Z" fill="white"/>
<path d="M18.9238 7.25781L18.5996 7.26562L18.2734 7.28711L17.9492 7.32422L17.625 7.37695L17.2988 7.44336L16.9746 7.52148L16.6504 7.61328L16.3242 7.71484L16 7.82813L15.6758 7.94922L15.3496 8.07813L15.0254 8.21289L14.7012 8.35352L14.375 8.49609L14.0508 8.64258L13.7266 8.79102L13.4004 8.93945L13.0762 9.08594L12.752 9.22852L12.4258 9.37109L12.1016 9.50781L11.7773 9.64062L11.4512 9.76758L11.127 9.89062L10.8027 10.0059L10.4766 10.1152L10.1523 10.2168L9.82812 10.3125L9.50391 10.4004L9.17773 10.4824L8.85352 10.5586L8.5293 10.627L8.2832 10.6758C8.20987 11.1071 8.16406 11.5475 8.16406 12C8.16406 12.228 8.18022 12.4527 8.19922 12.6758L8.20313 12.6738L8.5293 12.5273L8.85352 12.3789L9.17773 12.2324L9.50391 12.0898L9.82812 11.9492L10.1523 11.8125L10.4766 11.6855L10.8027 11.5625L11.127 11.4512L11.4512 11.3496L11.7773 11.2578L12.1016 11.1797L12.4258 11.1133L12.752 11.0605L13.0762 11.0234L13.4004 11L13.7266 10.9922L14.0508 11L14.375 11.0234L14.7012 11.0605L15.0254 11.1133L15.3496 11.1797L15.6758 11.2578L16 11.3496L16.3242 11.4512L16.6504 11.5625L16.9746 11.6855L17.2988 11.8125L17.625 11.9492L17.9492 12.0898L18.2734 12.2324L18.5996 12.3789L18.9238 12.5273L19.248 12.6738L19.5742 12.8203L19.8984 12.9648L20.2227 13.1074L20.5488 13.2441L20.873 13.377L21.1973 13.5039L21.5234 13.625L21.8477 13.7402L22.1719 13.8496L22.4961 13.9531L22.8223 14.0488L23.1465 14.1367L23.4707 14.2187L23.5117 14.2285C23.7206 13.5218 23.8359 12.7752 23.8359 12C23.8359 10.635 23.4865 9.35286 22.875 8.23633L22.8223 8.21289L22.4961 8.07813L22.1719 7.94922L21.8477 7.82813L21.5234 7.71484L21.1973 7.61328L20.873 7.52149L20.5488 7.44336L20.2227 7.37695L19.8984 7.32422L19.5742 7.28711L19.248 7.26563L18.9238 7.25781Z" fill="#7DB0BC"/>
<path d="M8.63477 14.9473C9.00187 15.8656 9.53635 16.6951 10.1992 17.4062V14.9473H8.63477Z" fill="#444876"/>
<path d="M8.52539 14.6484C8.59737 14.8519 8.67596 15.0526 8.76367 15.248H9.90039V17.0781C10.0878 17.3031 10.2892 17.514 10.5 17.7168V14.6484H8.52539Z" fill="white"/>
<path d="M10.1992 13.5898V17.4062C10.7643 18.0125 11.4185 18.5319 12.1484 18.9375V13.5898H10.1992Z" fill="#444876"/>
<path d="M9.90039 13.291V17.0781C10.0878 17.3031 10.2892 17.514 10.5 17.7168V13.8906H11.8477V18.7559C12.0431 18.8761 12.243 18.9885 12.4492 19.0918V13.291H9.90039Z" fill="white"/>
<path d="M12.1484 13.3457V18.9375C12.7533 19.2736 13.4084 19.5278 14.0977 19.6973V13.3457H12.1484Z" fill="#444876"/>
<path d="M11.8477 13.0449V18.7559C12.0431 18.8761 12.243 18.9885 12.4492 19.0918V13.6445H13.7969V19.6211C13.9954 19.6783 14.1938 19.7336 14.3984 19.7754V13.0449H11.8477Z" fill="white"/>
<path d="M14.0977 14.4355V19.6973C14.708 19.8473 15.3429 19.9355 16 19.9355C16.0158 19.9355 16.0311 19.9336 16.0469 19.9336V14.4355L14.0977 14.4355Z" fill="#444876"/>
<path d="M13.7969 14.1348V19.6211C13.9954 19.6783 14.1938 19.7336 14.3984 19.7754V14.7344H15.7461V19.9219C15.8311 19.9246 15.9143 19.9355 16 19.9355C16.1173 19.9355 16.2316 19.923 16.3477 19.918V14.1348L13.7969 14.1348Z" fill="white"/>
<path d="M16.0469 15.9395V19.9336C16.721 19.9297 17.372 19.8354 17.9961 19.6738V15.9395H16.0469Z" fill="#444876"/>
<path d="M15.7461 15.6387V19.9219C15.8311 19.9246 15.9143 19.9355 16 19.9355C16.1173 19.9355 16.2316 19.923 16.3477 19.918V16.2383H17.6953V19.7519C17.8992 19.7077 18.0992 19.6553 18.2969 19.5957V15.6387L15.7461 15.6387Z" fill="white"/>
<path d="M17.9961 16.9688V19.6738C18.6871 19.4949 19.3412 19.2276 19.9453 18.8809V16.9688H17.9961Z" fill="#444876"/>
<path d="M17.6953 16.668V19.752C17.8992 19.7077 18.0992 19.6553 18.2969 19.5957V17.2676H19.6445V19.0469C19.8511 18.94 20.0507 18.8232 20.2461 18.6992V16.668H17.6953Z" fill="white"/>
<path d="M19.9453 17.4023V18.8809C20.6389 18.4828 21.2635 17.9837 21.8047 17.4023H19.9453Z" fill="#444876"/>
<path d="M19.6445 17.1016V19.0469C19.8511 18.94 20.0507 18.8232 20.2461 18.6992V17.7031H21.5137C21.7117 17.5116 21.9008 17.3127 22.0781 17.1016H19.6445Z" fill="white"/>
<path d="M16 20.3359C20.6038 20.3359 24.3359 16.6038 24.3359 12C24.3359 7.39621 20.6038 3.6641 16 3.6641C11.3962 3.6641 7.66411 7.39621 7.66411 12C7.66411 16.6038 11.3962 20.3359 16 20.3359Z" stroke="white" stroke-linecap="square"/>
<path d="M15.9999 2.99333C11.0286 2.99333 6.99333 7.02856 6.99333 11.9999C6.99333 16.9712 11.0286 21.0067 15.9999 21.0067C20.9712 21.0067 25.0067 16.9712 25.0067 11.9999C25.0067 7.02856 20.9712 2.99333 15.9999 2.99333V2.99333ZM15.9999 3.49323C20.701 3.49323 24.5068 7.29878 24.5068 11.9999C24.5068 16.701 20.701 20.5068 15.9999 20.5068C11.2988 20.5068 7.49323 16.701 7.49323 11.9999C7.49323 7.29878 11.2988 3.49323 15.9999 3.49323Z" fill="#444876"/>
<path d="M9.54327 9.71612C9.82534 9.71612 10.054 9.48747 10.054 9.2054C10.054 8.92333 9.82534 8.69468 9.54327 8.69468C9.26121 8.69468 9.03255 8.92333 9.03255 9.2054C9.03255 9.48747 9.26121 9.71612 9.54327 9.71612Z" fill="#AFDAD2"/>
<path d="M11.1137 7.56573C11.4923 7.56573 11.7992 7.25882 11.7992 6.88023C11.7992 6.50163 11.4923 6.19473 11.1137 6.19473C10.7351 6.19473 10.4282 6.50163 10.4282 6.88023C10.4282 7.25882 10.7351 7.56573 11.1137 7.56573Z" fill="#AFDAD2"/>
<path d="M13.3126 8.12496C13.5947 8.12496 13.8233 7.89631 13.8233 7.61424C13.8233 7.33217 13.5947 7.10352 13.3126 7.10352C13.0306 7.10352 12.8019 7.33217 12.8019 7.61424C12.8019 7.89631 13.0306 8.12496 13.3126 8.12496Z" fill="#AFDAD2"/>
<path d="M13.1118 5.71661C13.3094 5.71661 13.4696 5.55642 13.4696 5.35881C13.4696 5.16121 13.3094 5.00101 13.1118 5.00101C12.9142 5.00101 12.754 5.16121 12.754 5.35881C12.754 5.55642 12.9142 5.71661 13.1118 5.71661Z" fill="#AFDAD2"/>
<path d="M14.8574 7.13473C15.224 7.13473 15.5211 6.8376 15.5211 6.47108C15.5211 6.10455 15.224 5.80742 14.8574 5.80742C14.4909 5.80742 14.1938 6.10455 14.1938 6.47108C14.1938 6.8376 14.4909 7.13473 14.8574 7.13473Z" fill="#AFDAD2"/>
<path d="M15.4754 5.17437C15.7574 5.17437 15.9861 4.94571 15.9861 4.66364C15.9861 4.38158 15.7574 4.15292 15.4754 4.15292C15.1933 4.15292 14.9646 4.38158 14.9646 4.66364C14.9646 4.94571 15.1933 5.17437 15.4754 5.17437Z" fill="#AFDAD2"/>
<path d="M18.1942 5.43854C18.3918 5.43854 18.552 5.27835 18.552 5.08074C18.552 4.88314 18.3918 4.72295 18.1942 4.72295C17.9966 4.72295 17.8364 4.88314 17.8364 5.08074C17.8364 5.27835 17.9966 5.43854 18.1942 5.43854Z" fill="#AFDAD2"/>
<path d="M19.5537 6.89396C19.9323 6.89396 20.2392 6.58705 20.2392 6.20846C20.2392 5.82987 19.9323 5.52296 19.5537 5.52296C19.1751 5.52296 18.8682 5.82987 18.8682 6.20846C18.8682 6.58705 19.1751 6.89396 19.5537 6.89396Z" fill="#AFDAD2"/>
<path d="M17.2519 7.08994C17.534 7.08994 17.7626 6.86128 17.7626 6.57921C17.7626 6.29715 17.534 6.06849 17.2519 6.06849C16.9698 6.06849 16.7412 6.29715 16.7412 6.57921C16.7412 6.86128 16.9698 7.08994 17.2519 7.08994Z" fill="#AFDAD2"/>
<path d="M11.5515 9.16419C11.725 9.16419 11.8656 9.02357 11.8656 8.85009C11.8656 8.67662 11.725 8.53599 11.5515 8.53599C11.3781 8.53599 11.2374 8.67662 11.2374 8.85009C11.2374 9.02357 11.3781 9.16419 11.5515 9.16419Z" fill="#AFDAD2"/>
<path d="M21.6855 7.39405C21.8711 7.39405 22.0215 7.24364 22.0215 7.05811C22.0215 6.87257 21.8711 6.72216 21.6855 6.72216C21.5 6.72216 21.3496 6.87257 21.3496 7.05811C21.3496 7.24364 21.5 7.39405 21.6855 7.39405Z" fill="#AFDAD2"/>
</g>
<path d="M33.5039 12.1973C32.5391 11.9199 31.8359 11.5801 31.3945 11.1777C30.957 10.7715 30.7383 10.2715 30.7383 9.67773C30.7383 9.00586 31.0059 8.45117 31.541 8.01367C32.0801 7.57227 32.7793 7.35156 33.6387 7.35156C34.2246 7.35156 34.7461 7.46484 35.2031 7.69141C35.6641 7.91797 36.0195 8.23047 36.2695 8.62891C36.5234 9.02734 36.6504 9.46289 36.6504 9.93555H35.5195C35.5195 9.41992 35.3555 9.01562 35.0273 8.72266C34.6992 8.42578 34.2363 8.27734 33.6387 8.27734C33.084 8.27734 32.6504 8.40039 32.3379 8.64648C32.0293 8.88867 31.875 9.22656 31.875 9.66016C31.875 10.0078 32.0215 10.3027 32.3145 10.5449C32.6113 10.7832 33.1133 11.002 33.8203 11.2012C34.5312 11.4004 35.0859 11.6211 35.4844 11.8633C35.8867 12.1016 36.1836 12.3809 36.375 12.7012C36.5703 13.0215 36.668 13.3984 36.668 13.832C36.668 14.5234 36.3984 15.0781 35.8594 15.4961C35.3203 15.9102 34.5996 16.1172 33.6973 16.1172C33.1113 16.1172 32.5645 16.0059 32.0566 15.7832C31.5488 15.5566 31.1562 15.248 30.8789 14.8574C30.6055 14.4668 30.4688 14.0234 30.4688 13.5273H31.5996C31.5996 14.043 31.7891 14.4512 32.168 14.752C32.5508 15.0488 33.0605 15.1973 33.6973 15.1973C34.291 15.1973 34.7461 15.0762 35.0625 14.834C35.3789 14.5918 35.5371 14.2617 35.5371 13.8438C35.5371 13.4258 35.3906 13.1035 35.0977 12.877C34.8047 12.6465 34.2734 12.4199 33.5039 12.1973ZM40.5762 16.1172C39.7168 16.1172 39.0176 15.8359 38.4785 15.2734C37.9395 14.707 37.6699 13.9512 37.6699 13.0059V12.8066C37.6699 12.1777 37.7891 11.6172 38.0273 11.125C38.2695 10.6289 38.6055 10.2422 39.0352 9.96484C39.4688 9.68359 39.9375 9.54297 40.4414 9.54297C41.2656 9.54297 41.9062 9.81445 42.3633 10.3574C42.8203 10.9004 43.0488 11.6777 43.0488 12.6895V13.1406H38.7539C38.7695 13.7656 38.9512 14.2715 39.2988 14.6582C39.6504 15.041 40.0957 15.2324 40.6348 15.2324C41.0176 15.2324 41.3418 15.1543 41.6074 14.998C41.873 14.8418 42.1055 14.6348 42.3047 14.377L42.9668 14.8926C42.4355 15.709 41.6387 16.1172 40.5762 16.1172ZM40.4414 10.4336C40.0039 10.4336 39.6367 10.5938 39.3398 10.9141C39.043 11.2305 38.8594 11.6758 38.7891 12.25H41.9648V12.168C41.9336 11.6172 41.7852 11.1914 41.5195 10.8906C41.2539 10.5859 40.8945 10.4336 40.4414 10.4336ZM48.2227 16C48.1602 15.875 48.1094 15.6523 48.0703 15.332C47.5664 15.8555 46.9648 16.1172 46.2656 16.1172C45.6406 16.1172 45.127 15.9414 44.7246 15.5898C44.3262 15.2344 44.127 14.7852 44.127 14.2422C44.127 13.582 44.377 13.0703 44.877 12.707C45.3809 12.3398 46.0879 12.1562 46.998 12.1562H48.0527V11.6582C48.0527 11.2793 47.9395 10.9785 47.7129 10.7559C47.4863 10.5293 47.1523 10.416 46.7109 10.416C46.3242 10.416 46 10.5137 45.7383 10.709C45.4766 10.9043 45.3457 11.1406 45.3457 11.418H44.2559C44.2559 11.1016 44.3672 10.7969 44.5898 10.5039C44.8164 10.207 45.1211 9.97266 45.5039 9.80078C45.8906 9.62891 46.3145 9.54297 46.7754 9.54297C47.5059 9.54297 48.0781 9.72656 48.4922 10.0938C48.9062 10.457 49.1211 10.959 49.1367 11.5996V14.5176C49.1367 15.0996 49.2109 15.5625 49.3594 15.9062V16H48.2227ZM46.4238 15.1738C46.7637 15.1738 47.0859 15.0859 47.3906 14.9102C47.6953 14.7344 47.916 14.5059 48.0527 14.2246V12.9238H47.2031C45.875 12.9238 45.2109 13.3125 45.2109 14.0898C45.2109 14.4297 45.3242 14.6953 45.5508 14.8867C45.7773 15.0781 46.0684 15.1738 46.4238 15.1738ZM56.2031 12.9004C56.2031 13.8691 55.9805 14.6484 55.5352 15.2383C55.0898 15.8242 54.4922 16.1172 53.7422 16.1172C52.9414 16.1172 52.3223 15.834 51.8848 15.2676L51.832 16H50.8359V7H51.9199V10.3574C52.3574 9.81445 52.9609 9.54297 53.7305 9.54297C54.5 9.54297 55.1035 9.83398 55.541 10.416C55.9824 10.998 56.2031 11.7949 56.2031 12.8066V12.9004ZM55.1191 12.7773C55.1191 12.0391 54.9766 11.4688 54.6914 11.0664C54.4062 10.6641 53.9961 10.4629 53.4609 10.4629C52.7461 10.4629 52.2324 10.7949 51.9199 11.459V14.2012C52.252 14.8652 52.7695 15.1973 53.4727 15.1973C53.9922 15.1973 54.3965 14.9961 54.6855 14.5938C54.9746 14.1914 55.1191 13.5859 55.1191 12.7773ZM57.2871 12.7715C57.2871 12.1504 57.4082 11.5918 57.6504 11.0957C57.8965 10.5996 58.2363 10.2168 58.6699 9.94727C59.1074 9.67773 59.6055 9.54297 60.1641 9.54297C61.0273 9.54297 61.7246 9.8418 62.2559 10.4395C62.791 11.0371 63.0586 11.832 63.0586 12.8242V12.9004C63.0586 13.5176 62.9395 14.0723 62.7012 14.5645C62.4668 15.0527 62.1289 15.4336 61.6875 15.707C61.25 15.9805 60.7461 16.1172 60.1758 16.1172C59.3164 16.1172 58.6191 15.8184 58.084 15.2207C57.5527 14.623 57.2871 13.832 57.2871 12.8477V12.7715ZM58.377 12.9004C58.377 13.6035 58.5391 14.168 58.8633 14.5938C59.1914 15.0195 59.6289 15.2324 60.1758 15.2324C60.7266 15.2324 61.1641 15.0176 61.4883 14.5879C61.8125 14.1543 61.9746 13.5488 61.9746 12.7715C61.9746 12.0762 61.8086 11.5137 61.4766 11.084C61.1484 10.6504 60.7109 10.4336 60.1641 10.4336C59.6289 10.4336 59.1973 10.6465 58.8691 11.0723C58.541 11.498 58.377 12.1074 58.377 12.9004ZM67.4824 10.6328C67.3184 10.6055 67.1406 10.5918 66.9492 10.5918C66.2383 10.5918 65.7559 10.8945 65.502 11.5V16H64.418V9.66016H65.4727L65.4902 10.3926C65.8457 9.82617 66.3496 9.54297 67.002 9.54297C67.2129 9.54297 67.373 9.57031 67.4824 9.625V10.6328ZM69.5098 9.66016L69.5449 10.457C70.0293 9.84766 70.6621 9.54297 71.4434 9.54297C72.7832 9.54297 73.459 10.2988 73.4707 11.8105V16H72.3867V11.8047C72.3828 11.3477 72.2773 11.0098 72.0703 10.791C71.8672 10.5723 71.5488 10.4629 71.1152 10.4629C70.7637 10.4629 70.4551 10.5566 70.1895 10.7441C69.9238 10.9316 69.7168 11.1777 69.5684 11.4824V16H68.4844V9.66016H69.5098Z" fill="black"/>
</g>
<defs>
<filter id="filter0_d" x="0" y="0" width="82" height="28" filterUnits="userSpaceOnUse" color-interpolation-filters="sRGB">
<feFlood flood-opacity="0" result="BackgroundImageFix"/>
<feColorMatrix in="SourceAlpha" type="matrix" values="0 0 0 0 0 0 0 0 0 0 0 0 0 0 0 0 0 0 127 0" result="hardAlpha"/>
<feOffset dy="2"/>
<feGaussianBlur stdDeviation="1"/>
<feComposite in2="hardAlpha" operator="out"/>
<feColorMatrix type="matrix" values="0 0 0 0 0 0 0 0 0 0 0 0 0 0 0 0 0 0 0.25 0"/>
<feBlend mode="normal" in2="BackgroundImageFix" result="effect1_dropShadow"/>
<feBlend mode="normal" in="SourceGraphic" in2="effect1_dropShadow" result="shape"/>
</filter>
<clipPath id="clip0">
<rect width="18" height="18" fill="white" transform="translate(7 3)"/>
</clipPath>
</defs>
</svg>
