<svg width="123" height="45" viewBox="0 0 123 45" fill="none" xmlns="http://www.w3.org/2000/svg">
<path d="M1 4C1 2.34314 2.34315 1 4 1H119C120.657 1 122 2.34315 122 4V41C122 42.6569 120.657 44 119 44H4C2.34315 44 1 42.6569 1 41V4Z" fill="#22272E"/>
<g clip-path="url(#clip0)">
<path d="M23.9999 13.5001C19.0323 13.5001 15.0001 17.5323 15.0001 22.4999C15.0001 27.4675 19.0323 31.5 23.9999 31.5C28.9675 31.5 32.9999 27.4675 32.9999 22.4999C32.9999 17.5323 28.9675 13.5001 23.9999 13.5001V13.5001ZM23.9999 13.9997C28.6975 13.9997 32.5003 17.8023 32.5003 22.4999C32.5003 27.1975 28.6975 31.0003 23.9999 31.0003C19.3023 31.0003 15.4997 27.1975 15.4997 22.4999C15.4997 17.8023 19.3023 13.9997 23.9999 13.9997V13.9997Z" fill="#ADBAC7"/>
<path d="M21.7282 22.1565L21.4257 22.1624L21.1252 22.1838L20.8227 22.219L20.5182 22.2678L20.2137 22.3302L19.9073 22.4044L19.599 22.4902L19.2886 22.5878L18.9764 22.6971L18.6622 22.8142L18.346 22.9391L18.0279 23.0718L17.7078 23.2085L17.3877 23.3509L17.0638 23.4973L16.7417 23.6437L16.4158 23.792L16.2167 23.8818C16.2738 24.2054 16.3579 24.5195 16.4529 24.8283H19.5677V23.5695H23.7423V25.8881H27.2221V27.3011H30.2706C30.7187 26.7152 31.0932 26.0695 31.3655 25.3709L31.3538 25.367C31.3508 25.3662 31.3471 25.3661 31.344 25.365L31.02 25.283C31.0169 25.2822 31.0133 25.2799 31.0102 25.2791L30.6843 25.1913C30.6813 25.1905 30.6795 25.1883 30.6765 25.1874L30.3506 25.0937C30.3476 25.0929 30.3458 25.0907 30.3428 25.0898L30.0169 24.9883C30.0139 24.9874 30.012 24.9854 30.0091 24.9844L29.6851 24.8752C29.6822 24.8742 29.6782 24.8743 29.6753 24.8732L29.3513 24.758C29.3486 24.7571 29.3462 24.7551 29.3435 24.7541L29.0195 24.6331C29.0171 24.6322 29.0141 24.6323 29.0117 24.6311L28.6858 24.5023C28.6836 24.5014 28.6821 24.5012 28.6799 24.5003L28.3559 24.3676C28.354 24.3668 28.3519 24.3664 28.35 24.3656L28.0261 24.229C28.0245 24.2283 28.0218 24.2258 28.0202 24.2251L27.6962 24.0846C27.695 24.084 27.6935 24.0832 27.6923 24.0826L27.3683 23.9401L27.3663 23.9381L27.0404 23.7917H27.0384L26.7147 23.6437L26.3907 23.4973L26.0687 23.3509L25.7467 23.2085L25.4286 23.0718L25.1104 22.9391L24.7943 22.8142L24.4801 22.6971L24.1678 22.5878L23.8575 22.4902L23.5491 22.4044L23.2427 22.3302L22.9363 22.2678L22.6338 22.219L22.3313 22.1838L22.0288 22.1624L21.7282 22.1565Z" fill="#ADBAC7"/>
<path d="M26.9214 17.7612L26.5974 17.769L26.2715 17.7905L25.9475 17.8295L25.6235 17.8802L25.2976 17.9466L24.9736 18.0247L24.6496 18.1164L24.3237 18.2179L23.9997 18.3311L23.6758 18.4521L23.3498 18.5809L23.0258 18.7155L22.7019 18.8561L22.3759 19.0005L22.052 19.1469L21.728 19.2932L21.404 19.4416L21.0781 19.5879L20.7541 19.7324L20.4301 19.8729L20.1042 20.0095L19.7802 20.1422L19.4563 20.2691L19.1303 20.392L18.8064 20.5072L18.4824 20.6165L18.1565 20.7179L17.8325 20.8136L17.5085 20.9014L17.1826 20.9853L16.8586 21.0595L16.5346 21.1297L16.2087 21.1922L16.1853 21.1961C16.1151 21.6209 16.0701 22.0549 16.0701 22.4998C16.0701 22.6158 16.0816 22.7288 16.0877 22.8433L16.3277 22.734L16.6517 22.5857C16.6524 22.5857 16.6531 22.5857 16.6537 22.5857L16.9777 22.4393C16.979 22.4387 16.9803 22.438 16.9816 22.4374L17.3055 22.2949C17.3068 22.2942 17.3081 22.2936 17.3094 22.2929L17.6334 22.1524C17.636 22.1518 17.6386 22.1511 17.6412 22.1505L17.9652 22.0139C17.9678 22.0132 17.9704 22.0125 17.973 22.0119L18.2969 21.8831C18.3002 21.8818 18.3035 21.8805 18.3067 21.8792L18.6307 21.7582C18.6346 21.7568 18.6385 21.7555 18.6424 21.7543L18.9683 21.6411C18.9722 21.6397 18.9761 21.6384 18.9801 21.6372L19.306 21.5357C19.3105 21.5337 19.3151 21.5317 19.3196 21.5298L19.6456 21.4401C19.6507 21.438 19.6559 21.4361 19.6612 21.4342L19.9871 21.3561C19.9929 21.3547 19.9988 21.3534 20.0047 21.3522L20.3306 21.2859C20.3371 21.2844 20.3436 21.2831 20.3501 21.282L20.6741 21.2312C20.6812 21.2298 20.6884 21.2285 20.6956 21.2273L21.0215 21.1902C21.0286 21.1894 21.0358 21.1888 21.0429 21.1883L21.3689 21.1649C21.3767 21.1647 21.3845 21.1647 21.3923 21.1649L21.7163 21.1571C21.7241 21.1569 21.7319 21.1569 21.7397 21.1571L22.0637 21.1649C22.0715 21.1647 22.0793 21.1647 22.0871 21.1649L22.4111 21.1883C22.4189 21.1888 22.4267 21.1894 22.4345 21.1902L22.7585 21.2273C22.7656 21.2285 22.7728 21.2298 22.7799 21.2312L23.1059 21.282C23.1124 21.2831 23.1189 21.2844 23.1254 21.2859L23.4493 21.3522C23.4559 21.3534 23.4624 21.3547 23.4689 21.3561L23.7928 21.4342C23.7987 21.436 23.8046 21.438 23.8104 21.4401L24.1344 21.5298C24.1396 21.5317 24.1448 21.5337 24.15 21.5357L24.474 21.6372C24.4785 21.6384 24.4831 21.6397 24.4876 21.6411L24.8116 21.7543C24.8155 21.7555 24.8194 21.7568 24.8233 21.7582L25.1492 21.8792C25.1519 21.8805 25.1545 21.8818 25.157 21.8831L25.483 22.0119C25.4856 22.0125 25.4882 22.0132 25.4908 22.0139L25.8147 22.1505C25.8167 22.1511 25.8187 22.1518 25.8206 22.1524L26.1446 22.2929C26.1466 22.2936 26.1485 22.2942 26.1505 22.2949L26.4745 22.4374C26.4758 22.438 26.4771 22.4387 26.4784 22.4393L26.8024 22.5857C26.803 22.5857 26.8037 22.5857 26.8044 22.5857L27.1283 22.734L27.4523 22.8804L27.7743 23.0268L28.0964 23.1692L28.4164 23.3098L28.7365 23.4444L29.0546 23.5732L29.3727 23.6981L29.6889 23.8172L30.007 23.9304L30.3212 24.0358L30.6374 24.1353L30.9536 24.229L31.2678 24.3149L31.584 24.3949L31.6757 24.4164C31.8295 23.8007 31.9293 23.1637 31.9293 22.4998C31.9293 21.163 31.5965 19.9055 31.014 18.8014L30.8169 18.7155L30.4929 18.5809L30.167 18.4521L29.843 18.3311L29.519 18.2179L29.1931 18.1164L28.8691 18.0247L28.5451 17.9466L28.2192 17.8802L27.8952 17.8295L27.5713 17.7905L27.2453 17.769L26.9214 17.7612Z" fill="#ADBAC7"/>
<path d="M17.5481 20.2178C17.8299 20.2178 18.0584 19.9894 18.0584 19.7075C18.0584 19.4256 17.8299 19.1972 17.5481 19.1972C17.2662 19.1972 17.0377 19.4256 17.0377 19.7075C17.0377 19.9894 17.2662 20.2178 17.5481 20.2178Z" fill="#ADBAC7"/>
<path d="M19.1173 18.0691C19.4956 18.0691 19.8023 17.7624 19.8023 17.3841C19.8023 17.0058 19.4956 16.6991 19.1173 16.6991C18.739 16.6991 18.4323 17.0058 18.4323 17.3841C18.4323 17.7624 18.739 18.0691 19.1173 18.0691Z" fill="#ADBAC7"/>
<path d="M21.3927 18.8152C21.6745 18.8152 21.903 18.5868 21.903 18.3049C21.903 18.023 21.6745 17.7946 21.3927 17.7946C21.1108 17.7946 20.8823 18.023 20.8823 18.3049C20.8823 18.5868 21.1108 18.8152 21.3927 18.8152Z" fill="#ADBAC7"/>
<path d="M23.4757 15.6795C23.7576 15.6795 23.9861 15.451 23.9861 15.1692C23.9861 14.8873 23.7576 14.6588 23.4757 14.6588C23.1939 14.6588 22.9654 14.8873 22.9654 15.1692C22.9654 15.451 23.1939 15.6795 23.4757 15.6795Z" fill="#ADBAC7"/>
<path d="M27.5354 17.0543C27.9137 17.0543 28.2204 16.7476 28.2204 16.3693C28.2204 15.991 27.9137 15.6843 27.5354 15.6843C27.1571 15.6843 26.8504 15.991 26.8504 16.3693C26.8504 16.7476 27.1571 17.0543 27.5354 17.0543Z" fill="#ADBAC7"/>
<path d="M24.7981 17.6249C25.08 17.6249 25.3085 17.3964 25.3085 17.1145C25.3085 16.8327 25.08 16.6042 24.7981 16.6042C24.5163 16.6042 24.2878 16.8327 24.2878 17.1145C24.2878 17.3964 24.5163 17.6249 24.7981 17.6249Z" fill="#ADBAC7"/>
<path d="M16.7847 25.6968V25.7007C17.3863 27.0559 18.3537 28.2118 19.5677 29.0361V25.6968L16.7847 25.6968Z" fill="#ADBAC7"/>
<path d="M20.2645 24.438V29.4577C21.111 29.9128 22.0508 30.2141 23.0475 30.334V24.438H20.2645Z" fill="#ADBAC7"/>
<path d="M23.7424 26.7566V30.3827C23.8286 30.3855 23.913 30.3964 24 30.3964C24.8843 30.3964 25.7319 30.2445 26.5254 29.9768V26.7566L23.7424 26.7566Z" fill="#ADBAC7"/>
<path d="M27.2222 28.1696V29.7055C28.0675 29.3271 28.8337 28.8052 29.49 28.1696H27.2222Z" fill="#ADBAC7"/>
</g>
<path d="M45.9453 28.5469V27C46.1224 27.1562 46.3333 27.2969 46.5781 27.4219C46.8281 27.5469 47.0885 27.6536 47.3594 27.7422C47.6354 27.8255 47.9115 27.8906 48.1875 27.9375C48.4635 27.9844 48.7188 28.0078 48.9531 28.0078C49.7604 28.0078 50.362 27.8594 50.7578 27.5625C51.1589 27.2604 51.3594 26.8281 51.3594 26.2656C51.3594 25.9635 51.2917 25.7005 51.1562 25.4766C51.026 25.2526 50.8438 25.0495 50.6094 24.8672C50.375 24.6797 50.0964 24.5026 49.7734 24.3359C49.4557 24.1641 49.112 23.9844 48.7422 23.7969C48.3516 23.599 47.987 23.3984 47.6484 23.1953C47.3099 22.9922 47.0156 22.7682 46.7656 22.5234C46.5156 22.2786 46.3177 22.0026 46.1719 21.6953C46.0312 21.3828 45.9609 21.0182 45.9609 20.6016C45.9609 20.0911 46.0729 19.6484 46.2969 19.2734C46.5208 18.8932 46.8151 18.5807 47.1797 18.3359C47.5443 18.0911 47.9583 17.9089 48.4219 17.7891C48.8906 17.6693 49.3672 17.6094 49.8516 17.6094C50.9557 17.6094 51.7604 17.7422 52.2656 18.0078V19.4844C51.6042 19.026 50.7552 18.7969 49.7188 18.7969C49.4323 18.7969 49.1458 18.8281 48.8594 18.8906C48.5729 18.9479 48.3177 19.0443 48.0938 19.1797C47.8698 19.3151 47.6875 19.4896 47.5469 19.7031C47.4062 19.9167 47.3359 20.1771 47.3359 20.4844C47.3359 20.7708 47.388 21.0182 47.4922 21.2266C47.6016 21.4349 47.7604 21.625 47.9688 21.7969C48.1771 21.9688 48.4297 22.1354 48.7266 22.2969C49.0286 22.4583 49.375 22.6354 49.7656 22.8281C50.1667 23.026 50.5469 23.2344 50.9062 23.4531C51.2656 23.6719 51.5807 23.9141 51.8516 24.1797C52.1224 24.4453 52.3359 24.7396 52.4922 25.0625C52.6536 25.3854 52.7344 25.7552 52.7344 26.1719C52.7344 26.724 52.625 27.1927 52.4062 27.5781C52.1927 27.9583 51.901 28.2682 51.5312 28.5078C51.1667 28.7474 50.7448 28.9193 50.2656 29.0234C49.7865 29.1328 49.2812 29.1875 48.75 29.1875C48.5729 29.1875 48.3542 29.1719 48.0938 29.1406C47.8333 29.1146 47.5677 29.0729 47.2969 29.0156C47.026 28.9635 46.7682 28.8984 46.5234 28.8203C46.2839 28.737 46.0911 28.6458 45.9453 28.5469ZM61.2266 25.3203H55.5781C55.599 26.2109 55.8385 26.8984 56.2969 27.3828C56.7552 27.8672 57.3854 28.1094 58.1875 28.1094C59.0885 28.1094 59.9167 27.8125 60.6719 27.2188V28.4219C59.9688 28.9323 59.0391 29.1875 57.8828 29.1875C56.7526 29.1875 55.8646 28.8255 55.2188 28.1016C54.5729 27.3724 54.25 26.349 54.25 25.0312C54.25 23.7865 54.6016 22.7734 55.3047 21.9922C56.013 21.2057 56.8906 20.8125 57.9375 20.8125C58.9844 20.8125 59.7943 21.151 60.3672 21.8281C60.9401 22.5052 61.2266 23.4453 61.2266 24.6484V25.3203ZM59.9141 24.2344C59.9089 23.4948 59.7292 22.9193 59.375 22.5078C59.026 22.0964 58.5391 21.8906 57.9141 21.8906C57.3099 21.8906 56.7969 22.1068 56.375 22.5391C55.9531 22.9714 55.6927 23.5365 55.5938 24.2344H59.9141ZM68.8984 29H67.6172V27.75H67.5859C67.0286 28.7083 66.2083 29.1875 65.125 29.1875C64.3281 29.1875 63.7031 28.9766 63.25 28.5547C62.8021 28.1328 62.5781 27.5729 62.5781 26.875C62.5781 25.3802 63.4583 24.5104 65.2188 24.2656L67.6172 23.9297C67.6172 22.5703 67.0677 21.8906 65.9688 21.8906C65.0052 21.8906 64.1354 22.2188 63.3594 22.875V21.5625C64.1458 21.0625 65.0521 20.8125 66.0781 20.8125C67.9583 20.8125 68.8984 21.8073 68.8984 23.7969V29ZM67.6172 24.9531L65.6875 25.2188C65.0938 25.3021 64.6458 25.4505 64.3438 25.6641C64.0417 25.8724 63.8906 26.2448 63.8906 26.7812C63.8906 27.1719 64.0286 27.4922 64.3047 27.7422C64.5859 27.987 64.9583 28.1094 65.4219 28.1094C66.0573 28.1094 66.5807 27.888 66.9922 27.4453C67.4089 26.9974 67.6172 26.4323 67.6172 25.75V24.9531ZM72.625 27.8438H72.5938V29H71.3125V17.1562H72.5938V22.4062H72.625C73.2552 21.3438 74.1771 20.8125 75.3906 20.8125C76.4167 20.8125 77.2188 21.1719 77.7969 21.8906C78.3802 22.6042 78.6719 23.5625 78.6719 24.7656C78.6719 26.1042 78.3464 27.1771 77.6953 27.9844C77.0443 28.7865 76.1536 29.1875 75.0234 29.1875C73.9661 29.1875 73.1667 28.7396 72.625 27.8438ZM72.5938 24.6172V25.7344C72.5938 26.3958 72.8073 26.9583 73.2344 27.4219C73.6667 27.8802 74.2135 28.1094 74.875 28.1094C75.651 28.1094 76.2578 27.8125 76.6953 27.2188C77.138 26.625 77.3594 25.7995 77.3594 24.7422C77.3594 23.8516 77.1536 23.1536 76.7422 22.6484C76.3307 22.1432 75.7734 21.8906 75.0703 21.8906C74.3255 21.8906 73.7266 22.151 73.2734 22.6719C72.8203 23.1875 72.5938 23.8359 72.5938 24.6172ZM84.0625 29.1875C82.8802 29.1875 81.9349 28.8151 81.2266 28.0703C80.5234 27.3203 80.1719 26.3281 80.1719 25.0938C80.1719 23.75 80.5391 22.7005 81.2734 21.9453C82.0078 21.1901 83 20.8125 84.25 20.8125C85.4427 20.8125 86.3724 21.1797 87.0391 21.9141C87.7109 22.6484 88.0469 23.6667 88.0469 24.9688C88.0469 26.2448 87.6849 27.2682 86.9609 28.0391C86.2422 28.8047 85.276 29.1875 84.0625 29.1875ZM84.1562 21.8906C83.3333 21.8906 82.6823 22.1719 82.2031 22.7344C81.724 23.2917 81.4844 24.0625 81.4844 25.0469C81.4844 25.9948 81.7266 26.7422 82.2109 27.2891C82.6953 27.8359 83.3438 28.1094 84.1562 28.1094C84.9844 28.1094 85.6198 27.8411 86.0625 27.3047C86.5104 26.7682 86.7344 26.0052 86.7344 25.0156C86.7344 24.0156 86.5104 23.2448 86.0625 22.7031C85.6198 22.1615 84.9844 21.8906 84.1562 21.8906ZM94.2656 22.2969C94.0417 22.125 93.7188 22.0391 93.2969 22.0391C92.75 22.0391 92.2917 22.2969 91.9219 22.8125C91.5573 23.3281 91.375 24.0312 91.375 24.9219V29H90.0938V21H91.375V22.6484H91.4062C91.5885 22.0859 91.8672 21.6484 92.2422 21.3359C92.6172 21.0182 93.0365 20.8594 93.5 20.8594C93.8333 20.8594 94.0885 20.8958 94.2656 20.9688V22.2969ZM102.266 29H100.984V24.4375C100.984 22.7396 100.365 21.8906 99.125 21.8906C98.4844 21.8906 97.9531 22.1328 97.5312 22.6172C97.1146 23.0964 96.9062 23.7031 96.9062 24.4375V29H95.625V21H96.9062V22.3281H96.9375C97.5417 21.3177 98.4167 20.8125 99.5625 20.8125C100.438 20.8125 101.107 21.0964 101.57 21.6641C102.034 22.2266 102.266 23.0417 102.266 24.1094V29Z" fill="#ADBAC7"/>
<path d="M4 2H119V0H4V2ZM121 4V41H123V4H121ZM119 43H4V45H119V43ZM2 41V4H0V41H2ZM4 43C2.89543 43 2 42.1046 2 41H0C0 43.2091 1.79086 45 4 45V43ZM121 41C121 42.1046 120.105 43 119 43V45C121.209 45 123 43.2091 123 41H121ZM119 2C120.105 2 121 2.89543 121 4H123C123 1.79086 121.209 0 119 0V2ZM4 0C1.79086 0 0 1.79086 0 4H2C2 2.89543 2.89543 2 4 2V0Z" fill="#444C56"/>
<defs>
<clipPath id="clip0">
<rect width="18" height="18" fill="white" transform="translate(15 13.5)"/>
</clipPath>
</defs>
</svg>
