<svg width="91" height="36" viewBox="0 0 91 36" fill="none" xmlns="http://www.w3.org/2000/svg">
<g filter="url(#filter0_d)">
<path d="M2 3C2 1.34315 3.34315 0 5 0H86C87.6569 0 89 1.34315 89 3V29C89 30.6569 87.6569 32 86 32H5C3.34315 32 2 30.6569 2 29V3Z" fill="white"/>
<g clip-path="url(#clip0)">
<path d="M19 24.771C21.3261 24.771 23.5572 23.8469 25.202 22.2021C26.8468 20.5572 27.771 18.3261 27.771 16C27.771 13.6739 26.8468 11.4428 25.202 9.79795C23.5572 8.15315 21.3261 7.22898 19 7.22898C16.6739 7.22898 14.4427 8.15315 12.7979 9.79795C11.1531 11.4428 10.229 13.6739 10.229 16C10.229 18.3261 11.1531 20.5572 12.7979 22.2021C14.4427 23.8469 16.6739 24.771 19 24.771Z" fill="white" stroke="white" stroke-width="0.133099"/>
<path d="M16.7266 15.1562L16.4004 15.1621L16.0762 15.1855L15.752 15.2227L15.4258 15.2754L15.1016 15.3418L14.7773 15.4199L14.4512 15.5117L14.127 15.6133L13.8027 15.7266L13.4766 15.8477L13.1523 15.9766L12.8281 16.1113L12.5039 16.252L12.1777 16.3945L11.8535 16.541L11.5293 16.6895L11.2031 16.8359L11.1152 16.875C11.5501 20.8496 14.9083 23.9355 19 23.9355C22.5495 23.9355 25.5477 21.6125 26.5645 18.4023L26.4707 18.3809L26.1465 18.2988L25.8223 18.2109L25.4961 18.1152L25.1719 18.0117L24.8477 17.9043L24.5234 17.7871L24.1973 17.666L23.873 17.5391L23.5488 17.4063L23.2227 17.2695L22.8984 17.127L22.5742 16.9824L22.248 16.8359L21.9238 16.6895L21.5996 16.541L21.2734 16.3945L20.9492 16.252L20.625 16.1113L20.2988 15.9766L19.9746 15.8477L19.6504 15.7266L19.3242 15.6133L19 15.5117L18.6758 15.4199L18.3496 15.3418L18.0254 15.2754L17.7012 15.2227L17.375 15.1855L17.0508 15.1621L16.7266 15.1562Z" fill="#5C7DA2"/>
<path d="M16.7148 14.6562L16.3887 14.6641C16.3815 14.6639 16.3743 14.6639 16.3672 14.6641L16.041 14.6875C16.0338 14.688 16.0267 14.6886 16.0195 14.6894L15.6934 14.7266C15.6862 14.7271 15.679 14.7277 15.6719 14.7285L15.3477 14.7812C15.3411 14.7824 15.3346 14.7837 15.3281 14.7852L15.002 14.8516C14.9961 14.8528 14.9902 14.8541 14.9844 14.8555L14.6582 14.9336C14.653 14.9355 14.6478 14.9374 14.6426 14.9395L14.3164 15.0293C14.3118 15.0305 14.3073 15.0318 14.3027 15.0332L13.9766 15.1367C13.972 15.138 13.9674 15.1393 13.9629 15.1406L13.6387 15.2539C13.6348 15.2552 13.6308 15.2565 13.627 15.2578L13.3027 15.3789C13.2995 15.3802 13.2962 15.3815 13.293 15.3828L12.9688 15.5117C12.9661 15.5123 12.9635 15.513 12.9609 15.5137L12.6348 15.6504C12.6328 15.651 12.6309 15.6517 12.6289 15.6523L12.3047 15.793C12.3034 15.7936 12.3021 15.7943 12.3008 15.7949L11.9746 15.9375L11.9727 15.9395L11.6484 16.0859C11.6478 16.0859 11.6471 16.0859 11.6465 16.0859L11.3223 16.2344L11.082 16.3438C11.0972 16.6991 11.1331 17.049 11.1934 17.3906L11.4082 17.293C11.4089 17.2923 11.4095 17.2917 11.4102 17.291L11.7344 17.1445L12.0586 16.998L12.3828 16.8516L12.7031 16.709L13.0234 16.5723L13.3418 16.4395L13.6562 16.3145L13.9707 16.1973L14.2832 16.0879L14.5937 15.9902L14.9043 15.9043L15.2109 15.8301L15.5156 15.7676L15.8203 15.7187L16.123 15.6836L16.4238 15.6621L16.7266 15.6563L17.0273 15.6621L17.3301 15.6836L17.6328 15.7188L17.9355 15.7676L18.2422 15.8301L18.5488 15.9043L18.8574 15.9902L19.168 16.0879L19.4805 16.1973L19.7949 16.3145L20.1113 16.4395L20.4297 16.5723L20.748 16.709L21.0703 16.8516L21.3926 16.998L21.7168 17.1445L22.041 17.291C22.0417 17.2917 22.0423 17.2923 22.043 17.293L22.3672 17.4395C22.3686 17.4395 22.3698 17.4395 22.3711 17.4395L22.6953 17.584C22.6967 17.5847 22.6979 17.5853 22.6992 17.586L23.0235 17.7267C23.0254 17.7273 23.0274 17.728 23.0294 17.7287L23.3536 17.8673C23.3555 17.868 23.3575 17.8686 23.3595 17.8693L23.6837 18.0021C23.6856 18.0028 23.6876 18.0034 23.6896 18.0041L24.0158 18.1311C24.0177 18.1324 24.0197 18.1337 24.0217 18.135L24.3478 18.2561C24.3504 18.2574 24.353 18.2587 24.3556 18.26L24.6797 18.375C24.6823 18.3757 24.6849 18.3763 24.6875 18.377L25.0136 18.4864C25.0162 18.4877 25.0188 18.489 25.0214 18.4903L25.3476 18.5918C25.3502 18.5925 25.3528 18.5931 25.3554 18.5938L25.6816 18.6895C25.6842 18.6908 25.6868 18.6921 25.6894 18.6934L26.0156 18.7813C26.0182 18.782 26.0208 18.7827 26.0234 18.7833L26.3495 18.8673C26.3521 18.868 26.3547 18.8686 26.3573 18.8693L26.3905 18.8771C26.5111 18.5671 26.6119 18.2476 26.6933 17.9201L26.5897 17.8966L26.2733 17.8166L25.9589 17.7306L25.6425 17.6369L25.3261 17.5373L25.0097 17.4318L24.6933 17.3185L24.3769 17.1994L24.0585 17.0744L23.7402 16.9453L23.4199 16.8086L23.0996 16.6699L22.7773 16.5273L22.4551 16.3809L22.1308 16.2344L21.8047 16.0859L21.4785 15.9394C21.4778 15.9388 21.4772 15.9381 21.4765 15.9375L21.1523 15.7949C21.1504 15.7943 21.1484 15.7936 21.1464 15.793L20.8222 15.6523C20.8203 15.6517 20.8183 15.651 20.8163 15.6504L20.4922 15.5137C20.4896 15.513 20.487 15.5124 20.4844 15.5117L20.1582 15.3828C20.1556 15.3815 20.153 15.3802 20.1504 15.3789L19.8242 15.2578C19.8203 15.2565 19.8164 15.2552 19.8125 15.2539L19.4883 15.1406C19.4837 15.1393 19.4792 15.138 19.4746 15.1367L19.1504 15.0332C19.1452 15.0318 19.14 15.0305 19.1348 15.0293L18.8105 14.9395C18.8047 14.9374 18.7989 14.9354 18.793 14.9336L18.4688 14.8555C18.4623 14.854 18.4558 14.8527 18.4492 14.8516L18.125 14.7852C18.1185 14.7837 18.112 14.7824 18.1055 14.7812L17.7793 14.7285C17.7721 14.7277 17.765 14.7271 17.7578 14.7266L17.4336 14.6895C17.4258 14.6886 17.418 14.688 17.4102 14.6875L17.0859 14.6641C17.0781 14.6639 17.0703 14.6639 17.0625 14.6641L16.7383 14.6562C16.7311 14.6561 16.724 14.6561 16.7168 14.6562C16.7161 14.6562 16.7155 14.6562 16.7148 14.6562H16.7148Z" fill="white"/>
<path d="M21.9238 11.2578L21.5996 11.2656L21.2734 11.2871L20.9492 11.3242L20.625 11.377L20.2988 11.4434L19.9746 11.5215L19.6504 11.6133L19.3242 11.7148L19 11.8281L18.6758 11.9492L18.3496 12.0781L18.0254 12.2129L17.7012 12.3535L17.375 12.4961L17.0508 12.6426L16.7266 12.791L16.4004 12.9395L16.0762 13.0859L15.752 13.2285L15.4258 13.3711L15.1016 13.5078L14.7773 13.6406L14.4512 13.7676L14.127 13.8906L13.8027 14.0059L13.4766 14.1152L13.1523 14.2168L12.8281 14.3125L12.5039 14.4004L12.1777 14.4824L11.8535 14.5586L11.5293 14.627L11.2832 14.6758C11.2099 15.1071 11.1641 15.5475 11.1641 16C11.1641 16.228 11.1802 16.4527 11.1992 16.6758L11.2031 16.6738L11.5293 16.5273L11.8535 16.3789L12.1777 16.2324L12.5039 16.0898L12.8281 15.9492L13.1523 15.8125L13.4766 15.6855L13.8027 15.5625L14.127 15.4512L14.4512 15.3496L14.7773 15.2578L15.1016 15.1797L15.4258 15.1133L15.752 15.0605L16.0762 15.0234L16.4004 15L16.7266 14.9922L17.0508 15L17.375 15.0234L17.7012 15.0605L18.0254 15.1133L18.3496 15.1797L18.6758 15.2578L19 15.3496L19.3242 15.4512L19.6504 15.5625L19.9746 15.6855L20.2988 15.8125L20.625 15.9492L20.9492 16.0898L21.2734 16.2324L21.5996 16.3789L21.9238 16.5273L22.248 16.6738L22.5742 16.8203L22.8984 16.9648L23.2227 17.1074L23.5488 17.2441L23.873 17.377L24.1973 17.5039L24.5234 17.625L24.8477 17.7402L25.1719 17.8496L25.4961 17.9531L25.8223 18.0488L26.1465 18.1367L26.4707 18.2187L26.5117 18.2285C26.7206 17.5218 26.8359 16.7752 26.8359 16C26.8359 14.635 26.4865 13.3529 25.875 12.2363L25.8223 12.2129L25.4961 12.0781L25.1719 11.9492L24.8477 11.8281L24.5234 11.7148L24.1973 11.6133L23.873 11.5215L23.5488 11.4434L23.2227 11.377L22.8984 11.3242L22.5742 11.2871L22.248 11.2656L21.9238 11.2578Z" fill="#7DB0BC"/>
<path d="M11.6348 18.9473C12.0019 19.8656 12.5363 20.6951 13.1992 21.4062V18.9473H11.6348Z" fill="#444876"/>
<path d="M11.5254 18.6484C11.5974 18.8519 11.676 19.0526 11.7637 19.248H12.9004V21.0781C13.0878 21.3031 13.2892 21.514 13.5 21.7168V18.6484H11.5254Z" fill="white"/>
<path d="M13.1992 17.5898V21.4062C13.7643 22.0125 14.4185 22.5319 15.1484 22.9375V17.5898H13.1992Z" fill="#444876"/>
<path d="M12.9004 17.291V21.0781C13.0878 21.3031 13.2892 21.514 13.5 21.7168V17.8906H14.8477V22.7559C15.0431 22.8761 15.243 22.9885 15.4492 23.0918V17.291H12.9004Z" fill="white"/>
<path d="M15.1484 17.3457V22.9375C15.7533 23.2736 16.4084 23.5278 17.0977 23.6973V17.3457H15.1484Z" fill="#444876"/>
<path d="M14.8477 17.0449V22.7559C15.0431 22.8761 15.243 22.9885 15.4492 23.0918V17.6445H16.7969V23.6211C16.9954 23.6783 17.1938 23.7336 17.3984 23.7754V17.0449H14.8477Z" fill="white"/>
<path d="M17.0977 18.4355V23.6973C17.708 23.8473 18.3429 23.9355 19 23.9355C19.0158 23.9355 19.0311 23.9336 19.0469 23.9336V18.4355L17.0977 18.4355Z" fill="#444876"/>
<path d="M16.7969 18.1348V23.6211C16.9954 23.6783 17.1938 23.7336 17.3984 23.7754V18.7344H18.7461V23.9219C18.8311 23.9246 18.9143 23.9355 19 23.9355C19.1173 23.9355 19.2316 23.923 19.3477 23.918V18.1348L16.7969 18.1348Z" fill="white"/>
<path d="M19.0469 19.9395V23.9336C19.721 23.9297 20.372 23.8354 20.9961 23.6738V19.9395H19.0469Z" fill="#444876"/>
<path d="M18.7461 19.6387V23.9219C18.8311 23.9246 18.9143 23.9355 19 23.9355C19.1173 23.9355 19.2316 23.923 19.3477 23.918V20.2383H20.6953V23.7519C20.8992 23.7077 21.0992 23.6553 21.2969 23.5957V19.6387L18.7461 19.6387Z" fill="white"/>
<path d="M20.9961 20.9688V23.6738C21.6871 23.4949 22.3412 23.2276 22.9453 22.8809V20.9688H20.9961Z" fill="#444876"/>
<path d="M20.6953 20.668V23.752C20.8992 23.7077 21.0992 23.6553 21.2969 23.5957V21.2676H22.6445V23.0469C22.8511 22.94 23.0507 22.8232 23.2461 22.6992V20.668H20.6953Z" fill="white"/>
<path d="M22.9453 21.4023V22.8809C23.6389 22.4828 24.2635 21.9837 24.8047 21.4023H22.9453Z" fill="#444876"/>
<path d="M22.6445 21.1016V23.0469C22.8511 22.94 23.0507 22.8232 23.2461 22.6992V21.7031H24.5137C24.7117 21.5116 24.9008 21.3127 25.0781 21.1016H22.6445Z" fill="white"/>
<path d="M19 24.3359C23.6038 24.3359 27.3359 20.6038 27.3359 16C27.3359 11.3962 23.6038 7.6641 19 7.6641C14.3962 7.6641 10.6641 11.3962 10.6641 16C10.6641 20.6038 14.3962 24.3359 19 24.3359Z" stroke="white" stroke-linecap="square"/>
<path d="M18.9999 6.99333C14.0286 6.99333 9.99333 11.0286 9.99333 15.9999C9.99333 20.9712 14.0286 25.0067 18.9999 25.0067C23.9712 25.0067 28.0067 20.9712 28.0067 15.9999C28.0067 11.0286 23.9712 6.99333 18.9999 6.99333V6.99333ZM18.9999 7.49323C23.701 7.49323 27.5068 11.2988 27.5068 15.9999C27.5068 20.701 23.701 24.5068 18.9999 24.5068C14.2988 24.5068 10.4932 20.701 10.4932 15.9999C10.4932 11.2988 14.2988 7.49323 18.9999 7.49323Z" fill="#444876"/>
<path d="M12.5433 13.7161C12.8253 13.7161 13.054 13.4875 13.054 13.2054C13.054 12.9233 12.8253 12.6947 12.5433 12.6947C12.2612 12.6947 12.0325 12.9233 12.0325 13.2054C12.0325 13.4875 12.2612 13.7161 12.5433 13.7161Z" fill="#AFDAD2"/>
<path d="M14.1137 11.5657C14.4923 11.5657 14.7992 11.2588 14.7992 10.8802C14.7992 10.5016 14.4923 10.1947 14.1137 10.1947C13.7351 10.1947 13.4282 10.5016 13.4282 10.8802C13.4282 11.2588 13.7351 11.5657 14.1137 11.5657Z" fill="#AFDAD2"/>
<path d="M16.3126 12.125C16.5947 12.125 16.8233 11.8963 16.8233 11.6142C16.8233 11.3322 16.5947 11.1035 16.3126 11.1035C16.0306 11.1035 15.8019 11.3322 15.8019 11.6142C15.8019 11.8963 16.0306 12.125 16.3126 12.125Z" fill="#AFDAD2"/>
<path d="M16.1118 9.71661C16.3094 9.71661 16.4696 9.55642 16.4696 9.35881C16.4696 9.16121 16.3094 9.00101 16.1118 9.00101C15.9142 9.00101 15.754 9.16121 15.754 9.35881C15.754 9.55642 15.9142 9.71661 16.1118 9.71661Z" fill="#AFDAD2"/>
<path d="M17.8574 11.1347C18.224 11.1347 18.5211 10.8376 18.5211 10.4711C18.5211 10.1046 18.224 9.80742 17.8574 9.80742C17.4909 9.80742 17.1938 10.1046 17.1938 10.4711C17.1938 10.8376 17.4909 11.1347 17.8574 11.1347Z" fill="#AFDAD2"/>
<path d="M18.4754 9.17437C18.7574 9.17437 18.9861 8.94571 18.9861 8.66364C18.9861 8.38158 18.7574 8.15292 18.4754 8.15292C18.1933 8.15292 17.9646 8.38158 17.9646 8.66364C17.9646 8.94571 18.1933 9.17437 18.4754 9.17437Z" fill="#AFDAD2"/>
<path d="M21.1942 9.43854C21.3918 9.43854 21.552 9.27835 21.552 9.08074C21.552 8.88314 21.3918 8.72295 21.1942 8.72295C20.9966 8.72295 20.8364 8.88314 20.8364 9.08074C20.8364 9.27835 20.9966 9.43854 21.1942 9.43854Z" fill="#AFDAD2"/>
<path d="M22.5537 10.894C22.9323 10.894 23.2392 10.587 23.2392 10.2085C23.2392 9.82987 22.9323 9.52296 22.5537 9.52296C22.1751 9.52296 21.8682 9.82987 21.8682 10.2085C21.8682 10.587 22.1751 10.894 22.5537 10.894Z" fill="#AFDAD2"/>
<path d="M20.2519 11.0899C20.534 11.0899 20.7626 10.8613 20.7626 10.5792C20.7626 10.2971 20.534 10.0685 20.2519 10.0685C19.9698 10.0685 19.7412 10.2971 19.7412 10.5792C19.7412 10.8613 19.9698 11.0899 20.2519 11.0899Z" fill="#AFDAD2"/>
<path d="M14.5515 13.1642C14.725 13.1642 14.8656 13.0236 14.8656 12.8501C14.8656 12.6766 14.725 12.536 14.5515 12.536C14.3781 12.536 14.2374 12.6766 14.2374 12.8501C14.2374 13.0236 14.3781 13.1642 14.5515 13.1642Z" fill="#AFDAD2"/>
<path d="M24.6855 11.3941C24.8711 11.3941 25.0215 11.2436 25.0215 11.0581C25.0215 10.8726 24.8711 10.7222 24.6855 10.7222C24.5 10.7222 24.3496 10.8726 24.3496 11.0581C24.3496 11.2436 24.5 11.3941 24.6855 11.3941Z" fill="#AFDAD2"/>
</g>
<path d="M39.5039 16.1973C38.5391 15.9199 37.8359 15.5801 37.3945 15.1777C36.957 14.7715 36.7383 14.2715 36.7383 13.6777C36.7383 13.0059 37.0059 12.4512 37.541 12.0137C38.0801 11.5723 38.7793 11.3516 39.6387 11.3516C40.2246 11.3516 40.7461 11.4648 41.2031 11.6914C41.6641 11.918 42.0195 12.2305 42.2695 12.6289C42.5234 13.0273 42.6504 13.4629 42.6504 13.9355H41.5195C41.5195 13.4199 41.3555 13.0156 41.0273 12.7227C40.6992 12.4258 40.2363 12.2773 39.6387 12.2773C39.084 12.2773 38.6504 12.4004 38.3379 12.6465C38.0293 12.8887 37.875 13.2266 37.875 13.6602C37.875 14.0078 38.0215 14.3027 38.3145 14.5449C38.6113 14.7832 39.1133 15.002 39.8203 15.2012C40.5312 15.4004 41.0859 15.6211 41.4844 15.8633C41.8867 16.1016 42.1836 16.3809 42.375 16.7012C42.5703 17.0215 42.668 17.3984 42.668 17.832C42.668 18.5234 42.3984 19.0781 41.8594 19.4961C41.3203 19.9102 40.5996 20.1172 39.6973 20.1172C39.1113 20.1172 38.5645 20.0059 38.0566 19.7832C37.5488 19.5566 37.1562 19.248 36.8789 18.8574C36.6055 18.4668 36.4688 18.0234 36.4688 17.5273H37.5996C37.5996 18.043 37.7891 18.4512 38.168 18.752C38.5508 19.0488 39.0605 19.1973 39.6973 19.1973C40.291 19.1973 40.7461 19.0762 41.0625 18.834C41.3789 18.5918 41.5371 18.2617 41.5371 17.8438C41.5371 17.4258 41.3906 17.1035 41.0977 16.877C40.8047 16.6465 40.2734 16.4199 39.5039 16.1973ZM46.5762 20.1172C45.7168 20.1172 45.0176 19.8359 44.4785 19.2734C43.9395 18.707 43.6699 17.9512 43.6699 17.0059V16.8066C43.6699 16.1777 43.7891 15.6172 44.0273 15.125C44.2695 14.6289 44.6055 14.2422 45.0352 13.9648C45.4688 13.6836 45.9375 13.543 46.4414 13.543C47.2656 13.543 47.9062 13.8145 48.3633 14.3574C48.8203 14.9004 49.0488 15.6777 49.0488 16.6895V17.1406H44.7539C44.7695 17.7656 44.9512 18.2715 45.2988 18.6582C45.6504 19.041 46.0957 19.2324 46.6348 19.2324C47.0176 19.2324 47.3418 19.1543 47.6074 18.998C47.873 18.8418 48.1055 18.6348 48.3047 18.377L48.9668 18.8926C48.4355 19.709 47.6387 20.1172 46.5762 20.1172ZM46.4414 14.4336C46.0039 14.4336 45.6367 14.5938 45.3398 14.9141C45.043 15.2305 44.8594 15.6758 44.7891 16.25H47.9648V16.168C47.9336 15.6172 47.7852 15.1914 47.5195 14.8906C47.2539 14.5859 46.8945 14.4336 46.4414 14.4336ZM54.2227 20C54.1602 19.875 54.1094 19.6523 54.0703 19.332C53.5664 19.8555 52.9648 20.1172 52.2656 20.1172C51.6406 20.1172 51.127 19.9414 50.7246 19.5898C50.3262 19.2344 50.127 18.7852 50.127 18.2422C50.127 17.582 50.377 17.0703 50.877 16.707C51.3809 16.3398 52.0879 16.1562 52.998 16.1562H54.0527V15.6582C54.0527 15.2793 53.9395 14.9785 53.7129 14.7559C53.4863 14.5293 53.1523 14.416 52.7109 14.416C52.3242 14.416 52 14.5137 51.7383 14.709C51.4766 14.9043 51.3457 15.1406 51.3457 15.418H50.2559C50.2559 15.1016 50.3672 14.7969 50.5898 14.5039C50.8164 14.207 51.1211 13.9727 51.5039 13.8008C51.8906 13.6289 52.3145 13.543 52.7754 13.543C53.5059 13.543 54.0781 13.7266 54.4922 14.0938C54.9062 14.457 55.1211 14.959 55.1367 15.5996V18.5176C55.1367 19.0996 55.2109 19.5625 55.3594 19.9062V20H54.2227ZM52.4238 19.1738C52.7637 19.1738 53.0859 19.0859 53.3906 18.9102C53.6953 18.7344 53.916 18.5059 54.0527 18.2246V16.9238H53.2031C51.875 16.9238 51.2109 17.3125 51.2109 18.0898C51.2109 18.4297 51.3242 18.6953 51.5508 18.8867C51.7773 19.0781 52.0684 19.1738 52.4238 19.1738ZM62.2031 16.9004C62.2031 17.8691 61.9805 18.6484 61.5352 19.2383C61.0898 19.8242 60.4922 20.1172 59.7422 20.1172C58.9414 20.1172 58.3223 19.834 57.8848 19.2676L57.832 20H56.8359V11H57.9199V14.3574C58.3574 13.8145 58.9609 13.543 59.7305 13.543C60.5 13.543 61.1035 13.834 61.541 14.416C61.9824 14.998 62.2031 15.7949 62.2031 16.8066V16.9004ZM61.1191 16.7773C61.1191 16.0391 60.9766 15.4688 60.6914 15.0664C60.4062 14.6641 59.9961 14.4629 59.4609 14.4629C58.7461 14.4629 58.2324 14.7949 57.9199 15.459V18.2012C58.252 18.8652 58.7695 19.1973 59.4727 19.1973C59.9922 19.1973 60.3965 18.9961 60.6855 18.5938C60.9746 18.1914 61.1191 17.5859 61.1191 16.7773ZM63.2871 16.7715C63.2871 16.1504 63.4082 15.5918 63.6504 15.0957C63.8965 14.5996 64.2363 14.2168 64.6699 13.9473C65.1074 13.6777 65.6055 13.543 66.1641 13.543C67.0273 13.543 67.7246 13.8418 68.2559 14.4395C68.791 15.0371 69.0586 15.832 69.0586 16.8242V16.9004C69.0586 17.5176 68.9395 18.0723 68.7012 18.5645C68.4668 19.0527 68.1289 19.4336 67.6875 19.707C67.25 19.9805 66.7461 20.1172 66.1758 20.1172C65.3164 20.1172 64.6191 19.8184 64.084 19.2207C63.5527 18.623 63.2871 17.832 63.2871 16.8477V16.7715ZM64.377 16.9004C64.377 17.6035 64.5391 18.168 64.8633 18.5938C65.1914 19.0195 65.6289 19.2324 66.1758 19.2324C66.7266 19.2324 67.1641 19.0176 67.4883 18.5879C67.8125 18.1543 67.9746 17.5488 67.9746 16.7715C67.9746 16.0762 67.8086 15.5137 67.4766 15.084C67.1484 14.6504 66.7109 14.4336 66.1641 14.4336C65.6289 14.4336 65.1973 14.6465 64.8691 15.0723C64.541 15.498 64.377 16.1074 64.377 16.9004ZM73.4824 14.6328C73.3184 14.6055 73.1406 14.5918 72.9492 14.5918C72.2383 14.5918 71.7559 14.8945 71.502 15.5V20H70.418V13.6602H71.4727L71.4902 14.3926C71.8457 13.8262 72.3496 13.543 73.002 13.543C73.2129 13.543 73.373 13.5703 73.4824 13.625V14.6328ZM75.5098 13.6602L75.5449 14.457C76.0293 13.8477 76.6621 13.543 77.4434 13.543C78.7832 13.543 79.459 14.2988 79.4707 15.8105V20H78.3867V15.8047C78.3828 15.3477 78.2773 15.0098 78.0703 14.791C77.8672 14.5723 77.5488 14.4629 77.1152 14.4629C76.7637 14.4629 76.4551 14.5566 76.1895 14.7441C75.9238 14.9316 75.7168 15.1777 75.5684 15.4824V20H74.4844V13.6602H75.5098Z" fill="black"/>
</g>
<defs>
<filter id="filter0_d" x="0" y="0" width="91" height="36" filterUnits="userSpaceOnUse" color-interpolation-filters="sRGB">
<feFlood flood-opacity="0" result="BackgroundImageFix"/>
<feColorMatrix in="SourceAlpha" type="matrix" values="0 0 0 0 0 0 0 0 0 0 0 0 0 0 0 0 0 0 127 0" result="hardAlpha"/>
<feOffset dy="2"/>
<feGaussianBlur stdDeviation="1"/>
<feComposite in2="hardAlpha" operator="out"/>
<feColorMatrix type="matrix" values="0 0 0 0 0 0 0 0 0 0 0 0 0 0 0 0 0 0 0.25 0"/>
<feBlend mode="normal" in2="BackgroundImageFix" result="effect1_dropShadow"/>
<feBlend mode="normal" in="SourceGraphic" in2="effect1_dropShadow" result="shape"/>
</filter>
<clipPath id="clip0">
<rect width="18" height="18" fill="white" transform="translate(10 7)"/>
</clipPath>
</defs>
</svg>
