<svg width="89" height="34" viewBox="0 0 89 34" fill="none" xmlns="http://www.w3.org/2000/svg">
<path d="M1 4C1 2.34315 2.34315 1 4 1H85C86.6569 1 88 2.34315 88 4V30C88 31.6569 86.6569 33 85 33H4C2.34315 33 1 31.6569 1 30V4Z" fill="#C9D1D9"/>
<g clip-path="url(#clip0)">
<path d="M18 25.771C20.3261 25.771 22.5572 24.8469 24.202 23.2021C25.8468 21.5572 26.771 19.3261 26.771 17C26.771 14.6739 25.8468 12.4428 24.202 10.798C22.5572 9.15315 20.3261 8.22898 18 8.22898C15.6739 8.22898 13.4427 9.15315 11.7979 10.798C10.1531 12.4428 9.22897 14.6739 9.22897 17C9.22897 19.3261 10.1531 21.5572 11.7979 23.2021C13.4427 24.8469 15.6739 25.771 18 25.771Z" fill="white" stroke="white" stroke-width="0.133099"/>
<path d="M15.7266 16.1562L15.4004 16.1621L15.0762 16.1855L14.752 16.2227L14.4258 16.2754L14.1016 16.3418L13.7773 16.4199L13.4512 16.5117L13.127 16.6133L12.8027 16.7266L12.4766 16.8477L12.1523 16.9766L11.8281 17.1113L11.5039 17.252L11.1777 17.3945L10.8535 17.541L10.5293 17.6895L10.2031 17.8359L10.1152 17.875C10.5501 21.8496 13.9083 24.9355 18 24.9355C21.5495 24.9355 24.5477 22.6125 25.5645 19.4023L25.4707 19.3809L25.1465 19.2988L24.8223 19.2109L24.4961 19.1152L24.1719 19.0117L23.8477 18.9043L23.5234 18.7871L23.1973 18.666L22.873 18.5391L22.5488 18.4063L22.2227 18.2695L21.8984 18.127L21.5742 17.9824L21.248 17.8359L20.9238 17.6895L20.5996 17.541L20.2734 17.3945L19.9492 17.252L19.625 17.1113L19.2988 16.9766L18.9746 16.8477L18.6504 16.7266L18.3242 16.6133L18 16.5117L17.6758 16.4199L17.3496 16.3418L17.0254 16.2754L16.7012 16.2227L16.375 16.1855L16.0508 16.1621L15.7266 16.1562Z" fill="#5C7DA2"/>
<path d="M15.7148 15.6562L15.3887 15.6641C15.3815 15.6639 15.3743 15.6639 15.3672 15.6641L15.041 15.6875C15.0338 15.688 15.0267 15.6886 15.0195 15.6894L14.6934 15.7266C14.6862 15.7271 14.679 15.7277 14.6719 15.7285L14.3477 15.7812C14.3411 15.7824 14.3346 15.7837 14.3281 15.7852L14.002 15.8516C13.9961 15.8528 13.9902 15.8541 13.9844 15.8555L13.6582 15.9336C13.653 15.9355 13.6478 15.9374 13.6426 15.9395L13.3164 16.0293C13.3118 16.0305 13.3073 16.0318 13.3027 16.0332L12.9766 16.1367C12.972 16.138 12.9674 16.1393 12.9629 16.1406L12.6387 16.2539C12.6348 16.2552 12.6308 16.2565 12.627 16.2578L12.3027 16.3789C12.2995 16.3802 12.2962 16.3815 12.293 16.3828L11.9688 16.5117C11.9661 16.5123 11.9635 16.513 11.9609 16.5137L11.6348 16.6504C11.6328 16.651 11.6309 16.6517 11.6289 16.6523L11.3047 16.793C11.3034 16.7936 11.3021 16.7943 11.3008 16.7949L10.9746 16.9375L10.9727 16.9395L10.6484 17.0859C10.6478 17.0859 10.6471 17.0859 10.6465 17.0859L10.3223 17.2344L10.082 17.3438C10.0972 17.6991 10.1331 18.049 10.1934 18.3906L10.4082 18.293C10.4089 18.2923 10.4095 18.2917 10.4102 18.291L10.7344 18.1445L11.0586 17.998L11.3828 17.8516L11.7031 17.709L12.0234 17.5723L12.3418 17.4395L12.6562 17.3145L12.9707 17.1973L13.2832 17.0879L13.5937 16.9902L13.9043 16.9043L14.2109 16.8301L14.5156 16.7676L14.8203 16.7187L15.123 16.6836L15.4238 16.6621L15.7266 16.6563L16.0273 16.6621L16.3301 16.6836L16.6328 16.7188L16.9355 16.7676L17.2422 16.8301L17.5488 16.9043L17.8574 16.9902L18.168 17.0879L18.4805 17.1973L18.7949 17.3145L19.1113 17.4395L19.4297 17.5723L19.748 17.709L20.0703 17.8516L20.3926 17.998L20.7168 18.1445L21.041 18.291C21.0417 18.2917 21.0423 18.2923 21.043 18.293L21.3672 18.4395C21.3686 18.4395 21.3698 18.4395 21.3711 18.4395L21.6953 18.584C21.6967 18.5847 21.6979 18.5853 21.6992 18.586L22.0235 18.7267C22.0254 18.7273 22.0274 18.728 22.0294 18.7287L22.3536 18.8673C22.3555 18.868 22.3575 18.8686 22.3595 18.8693L22.6837 19.0021C22.6856 19.0028 22.6876 19.0034 22.6896 19.0041L23.0158 19.1311C23.0177 19.1324 23.0197 19.1337 23.0217 19.135L23.3478 19.2561C23.3504 19.2574 23.353 19.2587 23.3556 19.26L23.6797 19.375C23.6823 19.3757 23.6849 19.3763 23.6875 19.377L24.0136 19.4864C24.0162 19.4877 24.0188 19.489 24.0214 19.4903L24.3476 19.5918C24.3502 19.5925 24.3528 19.5931 24.3554 19.5938L24.6816 19.6895C24.6842 19.6908 24.6868 19.6921 24.6894 19.6934L25.0156 19.7813C25.0182 19.782 25.0208 19.7827 25.0234 19.7833L25.3495 19.8673C25.3521 19.868 25.3547 19.8686 25.3573 19.8693L25.3905 19.8771C25.5111 19.5671 25.6119 19.2476 25.6933 18.9201L25.5897 18.8966L25.2733 18.8166L24.9589 18.7306L24.6425 18.6369L24.3261 18.5373L24.0097 18.4318L23.6933 18.3185L23.3769 18.1994L23.0585 18.0744L22.7402 17.9453L22.4199 17.8086L22.0996 17.6699L21.7773 17.5273L21.4551 17.3809L21.1308 17.2344L20.8047 17.0859L20.4785 16.9394C20.4778 16.9388 20.4772 16.9381 20.4765 16.9375L20.1523 16.7949C20.1504 16.7943 20.1484 16.7936 20.1464 16.793L19.8222 16.6523C19.8203 16.6517 19.8183 16.651 19.8163 16.6504L19.4922 16.5137C19.4896 16.513 19.487 16.5124 19.4844 16.5117L19.1582 16.3828C19.1556 16.3815 19.153 16.3802 19.1504 16.3789L18.8242 16.2578C18.8203 16.2565 18.8164 16.2552 18.8125 16.2539L18.4883 16.1406C18.4837 16.1393 18.4792 16.138 18.4746 16.1367L18.1504 16.0332C18.1452 16.0318 18.14 16.0305 18.1348 16.0293L17.8105 15.9395C17.8047 15.9374 17.7989 15.9354 17.793 15.9336L17.4688 15.8555C17.4623 15.854 17.4558 15.8527 17.4492 15.8516L17.125 15.7852C17.1185 15.7837 17.112 15.7824 17.1055 15.7812L16.7793 15.7285C16.7721 15.7277 16.765 15.7271 16.7578 15.7266L16.4336 15.6895C16.4258 15.6886 16.418 15.688 16.4102 15.6875L16.0859 15.6641C16.0781 15.6639 16.0703 15.6639 16.0625 15.6641L15.7383 15.6562C15.7311 15.6561 15.724 15.6561 15.7168 15.6562C15.7161 15.6562 15.7155 15.6562 15.7148 15.6562H15.7148Z" fill="white"/>
<path d="M20.9238 12.2578L20.5996 12.2656L20.2734 12.2871L19.9492 12.3242L19.625 12.377L19.2988 12.4434L18.9746 12.5215L18.6504 12.6133L18.3242 12.7148L18 12.8281L17.6758 12.9492L17.3496 13.0781L17.0254 13.2129L16.7012 13.3535L16.375 13.4961L16.0508 13.6426L15.7266 13.791L15.4004 13.9395L15.0762 14.0859L14.752 14.2285L14.4258 14.3711L14.1016 14.5078L13.7773 14.6406L13.4512 14.7676L13.127 14.8906L12.8027 15.0059L12.4766 15.1152L12.1523 15.2168L11.8281 15.3125L11.5039 15.4004L11.1777 15.4824L10.8535 15.5586L10.5293 15.627L10.2832 15.6758C10.2099 16.1071 10.1641 16.5475 10.1641 17C10.1641 17.228 10.1802 17.4527 10.1992 17.6758L10.2031 17.6738L10.5293 17.5273L10.8535 17.3789L11.1777 17.2324L11.5039 17.0898L11.8281 16.9492L12.1523 16.8125L12.4766 16.6855L12.8027 16.5625L13.127 16.4512L13.4512 16.3496L13.7773 16.2578L14.1016 16.1797L14.4258 16.1133L14.752 16.0605L15.0762 16.0234L15.4004 16L15.7266 15.9922L16.0508 16L16.375 16.0234L16.7012 16.0605L17.0254 16.1133L17.3496 16.1797L17.6758 16.2578L18 16.3496L18.3242 16.4512L18.6504 16.5625L18.9746 16.6855L19.2988 16.8125L19.625 16.9492L19.9492 17.0898L20.2734 17.2324L20.5996 17.3789L20.9238 17.5273L21.248 17.6738L21.5742 17.8203L21.8984 17.9648L22.2227 18.1074L22.5488 18.2441L22.873 18.377L23.1973 18.5039L23.5234 18.625L23.8477 18.7402L24.1719 18.8496L24.4961 18.9531L24.8223 19.0488L25.1465 19.1367L25.4707 19.2187L25.5117 19.2285C25.7206 18.5218 25.8359 17.7752 25.8359 17C25.8359 15.635 25.4865 14.3529 24.875 13.2363L24.8223 13.2129L24.4961 13.0781L24.1719 12.9492L23.8477 12.8281L23.5234 12.7148L23.1973 12.6133L22.873 12.5215L22.5488 12.4434L22.2227 12.377L21.8984 12.3242L21.5742 12.2871L21.248 12.2656L20.9238 12.2578Z" fill="#7DB0BC"/>
<path d="M10.6348 19.9473C11.0019 20.8656 11.5363 21.6951 12.1992 22.4062V19.9473H10.6348Z" fill="#444876"/>
<path d="M10.5254 19.6484C10.5974 19.8519 10.676 20.0526 10.7637 20.248H11.9004V22.0781C12.0878 22.3031 12.2892 22.514 12.5 22.7168V19.6484H10.5254Z" fill="white"/>
<path d="M12.1992 18.5898V22.4062C12.7643 23.0125 13.4185 23.5319 14.1484 23.9375V18.5898H12.1992Z" fill="#444876"/>
<path d="M11.9004 18.291V22.0781C12.0878 22.3031 12.2892 22.514 12.5 22.7168V18.8906H13.8477V23.7559C14.0431 23.8761 14.243 23.9885 14.4492 24.0918V18.291H11.9004Z" fill="white"/>
<path d="M14.1484 18.3457V23.9375C14.7533 24.2736 15.4084 24.5278 16.0977 24.6973V18.3457H14.1484Z" fill="#444876"/>
<path d="M13.8477 18.0449V23.7559C14.0431 23.8761 14.243 23.9885 14.4492 24.0918V18.6445H15.7969V24.6211C15.9954 24.6783 16.1938 24.7336 16.3984 24.7754V18.0449H13.8477Z" fill="white"/>
<path d="M16.0977 19.4355V24.6973C16.708 24.8473 17.3429 24.9355 18 24.9355C18.0158 24.9355 18.0311 24.9336 18.0469 24.9336V19.4355L16.0977 19.4355Z" fill="#444876"/>
<path d="M15.7969 19.1348V24.6211C15.9954 24.6783 16.1938 24.7336 16.3984 24.7754V19.7344H17.7461V24.9219C17.8311 24.9246 17.9143 24.9355 18 24.9355C18.1173 24.9355 18.2316 24.923 18.3477 24.918V19.1348L15.7969 19.1348Z" fill="white"/>
<path d="M18.0469 20.9395V24.9336C18.721 24.9297 19.372 24.8354 19.9961 24.6738V20.9395H18.0469Z" fill="#444876"/>
<path d="M17.7461 20.6387V24.9219C17.8311 24.9246 17.9143 24.9355 18 24.9355C18.1173 24.9355 18.2316 24.923 18.3477 24.918V21.2383H19.6953V24.7519C19.8992 24.7077 20.0992 24.6553 20.2969 24.5957V20.6387L17.7461 20.6387Z" fill="white"/>
<path d="M19.9961 21.9688V24.6738C20.6871 24.4949 21.3412 24.2276 21.9453 23.8809V21.9688H19.9961Z" fill="#444876"/>
<path d="M19.6953 21.668V24.752C19.8992 24.7077 20.0992 24.6553 20.2969 24.5957V22.2676H21.6445V24.0469C21.8511 23.94 22.0507 23.8232 22.2461 23.6992V21.668H19.6953Z" fill="white"/>
<path d="M21.9453 22.4023V23.8809C22.6389 23.4828 23.2635 22.9837 23.8047 22.4023H21.9453Z" fill="#444876"/>
<path d="M21.6445 22.1016V24.0469C21.8511 23.94 22.0507 23.8232 22.2461 23.6992V22.7031H23.5137C23.7117 22.5116 23.9008 22.3127 24.0781 22.1016H21.6445Z" fill="white"/>
<path d="M18 25.3359C22.6038 25.3359 26.3359 21.6038 26.3359 17C26.3359 12.3962 22.6038 8.6641 18 8.6641C13.3962 8.6641 9.66411 12.3962 9.66411 17C9.66411 21.6038 13.3962 25.3359 18 25.3359Z" stroke="white" stroke-linecap="square"/>
<path d="M17.9999 7.99333C13.0286 7.99333 8.99333 12.0286 8.99333 16.9999C8.99333 21.9712 13.0286 26.0067 17.9999 26.0067C22.9712 26.0067 27.0067 21.9712 27.0067 16.9999C27.0067 12.0286 22.9712 7.99333 17.9999 7.99333ZM17.9999 8.49323C22.701 8.49323 26.5068 12.2988 26.5068 16.9999C26.5068 21.701 22.701 25.5068 17.9999 25.5068C13.2988 25.5068 9.49323 21.701 9.49323 16.9999C9.49323 12.2988 13.2988 8.49323 17.9999 8.49323Z" fill="#444876"/>
<path d="M11.5433 14.7161C11.8253 14.7161 12.054 14.4875 12.054 14.2054C12.054 13.9233 11.8253 13.6947 11.5433 13.6947C11.2612 13.6947 11.0325 13.9233 11.0325 14.2054C11.0325 14.4875 11.2612 14.7161 11.5433 14.7161Z" fill="#AFDAD2"/>
<path d="M13.1137 12.5657C13.4923 12.5657 13.7992 12.2588 13.7992 11.8802C13.7992 11.5016 13.4923 11.1947 13.1137 11.1947C12.7351 11.1947 12.4282 11.5016 12.4282 11.8802C12.4282 12.2588 12.7351 12.5657 13.1137 12.5657Z" fill="#AFDAD2"/>
<path d="M15.3126 13.125C15.5947 13.125 15.8233 12.8963 15.8233 12.6142C15.8233 12.3322 15.5947 12.1035 15.3126 12.1035C15.0306 12.1035 14.8019 12.3322 14.8019 12.6142C14.8019 12.8963 15.0306 13.125 15.3126 13.125Z" fill="#AFDAD2"/>
<path d="M15.1118 10.7166C15.3094 10.7166 15.4696 10.5564 15.4696 10.3588C15.4696 10.1612 15.3094 10.001 15.1118 10.001C14.9142 10.001 14.754 10.1612 14.754 10.3588C14.754 10.5564 14.9142 10.7166 15.1118 10.7166Z" fill="#AFDAD2"/>
<path d="M16.8574 12.1347C17.224 12.1347 17.5211 11.8376 17.5211 11.4711C17.5211 11.1046 17.224 10.8074 16.8574 10.8074C16.4909 10.8074 16.1938 11.1046 16.1938 11.4711C16.1938 11.8376 16.4909 12.1347 16.8574 12.1347Z" fill="#AFDAD2"/>
<path d="M17.4754 10.1744C17.7574 10.1744 17.9861 9.94571 17.9861 9.66364C17.9861 9.38158 17.7574 9.15292 17.4754 9.15292C17.1933 9.15292 16.9646 9.38158 16.9646 9.66364C16.9646 9.94571 17.1933 10.1744 17.4754 10.1744Z" fill="#AFDAD2"/>
<path d="M20.1942 10.4385C20.3918 10.4385 20.552 10.2783 20.552 10.0807C20.552 9.88314 20.3918 9.72295 20.1942 9.72295C19.9966 9.72295 19.8364 9.88314 19.8364 10.0807C19.8364 10.2783 19.9966 10.4385 20.1942 10.4385Z" fill="#AFDAD2"/>
<path d="M21.5537 11.894C21.9323 11.894 22.2392 11.587 22.2392 11.2085C22.2392 10.8299 21.9323 10.523 21.5537 10.523C21.1751 10.523 20.8682 10.8299 20.8682 11.2085C20.8682 11.587 21.1751 11.894 21.5537 11.894Z" fill="#AFDAD2"/>
<path d="M19.2519 12.0899C19.534 12.0899 19.7626 11.8613 19.7626 11.5792C19.7626 11.2971 19.534 11.0685 19.2519 11.0685C18.9698 11.0685 18.7412 11.2971 18.7412 11.5792C18.7412 11.8613 18.9698 12.0899 19.2519 12.0899Z" fill="#AFDAD2"/>
<path d="M13.5515 14.1642C13.725 14.1642 13.8656 14.0236 13.8656 13.8501C13.8656 13.6766 13.725 13.536 13.5515 13.536C13.3781 13.536 13.2374 13.6766 13.2374 13.8501C13.2374 14.0236 13.3781 14.1642 13.5515 14.1642Z" fill="#AFDAD2"/>
<path d="M23.6855 12.3941C23.8711 12.3941 24.0215 12.2436 24.0215 12.0581C24.0215 11.8726 23.8711 11.7222 23.6855 11.7222C23.5 11.7222 23.3496 11.8726 23.3496 12.0581C23.3496 12.2436 23.5 12.3941 23.6855 12.3941Z" fill="#AFDAD2"/>
</g>
<path d="M38.5039 17.1973C37.5391 16.9199 36.8359 16.5801 36.3945 16.1777C35.957 15.7715 35.7383 15.2715 35.7383 14.6777C35.7383 14.0059 36.0059 13.4512 36.541 13.0137C37.0801 12.5723 37.7793 12.3516 38.6387 12.3516C39.2246 12.3516 39.7461 12.4648 40.2031 12.6914C40.6641 12.918 41.0195 13.2305 41.2695 13.6289C41.5234 14.0273 41.6504 14.4629 41.6504 14.9355H40.5195C40.5195 14.4199 40.3555 14.0156 40.0273 13.7227C39.6992 13.4258 39.2363 13.2773 38.6387 13.2773C38.084 13.2773 37.6504 13.4004 37.3379 13.6465C37.0293 13.8887 36.875 14.2266 36.875 14.6602C36.875 15.0078 37.0215 15.3027 37.3145 15.5449C37.6113 15.7832 38.1133 16.002 38.8203 16.2012C39.5312 16.4004 40.0859 16.6211 40.4844 16.8633C40.8867 17.1016 41.1836 17.3809 41.375 17.7012C41.5703 18.0215 41.668 18.3984 41.668 18.832C41.668 19.5234 41.3984 20.0781 40.8594 20.4961C40.3203 20.9102 39.5996 21.1172 38.6973 21.1172C38.1113 21.1172 37.5645 21.0059 37.0566 20.7832C36.5488 20.5566 36.1562 20.248 35.8789 19.8574C35.6055 19.4668 35.4688 19.0234 35.4688 18.5273H36.5996C36.5996 19.043 36.7891 19.4512 37.168 19.752C37.5508 20.0488 38.0605 20.1973 38.6973 20.1973C39.291 20.1973 39.7461 20.0762 40.0625 19.834C40.3789 19.5918 40.5371 19.2617 40.5371 18.8438C40.5371 18.4258 40.3906 18.1035 40.0977 17.877C39.8047 17.6465 39.2734 17.4199 38.5039 17.1973ZM45.5762 21.1172C44.7168 21.1172 44.0176 20.8359 43.4785 20.2734C42.9395 19.707 42.6699 18.9512 42.6699 18.0059V17.8066C42.6699 17.1777 42.7891 16.6172 43.0273 16.125C43.2695 15.6289 43.6055 15.2422 44.0352 14.9648C44.4688 14.6836 44.9375 14.543 45.4414 14.543C46.2656 14.543 46.9062 14.8145 47.3633 15.3574C47.8203 15.9004 48.0488 16.6777 48.0488 17.6895V18.1406H43.7539C43.7695 18.7656 43.9512 19.2715 44.2988 19.6582C44.6504 20.041 45.0957 20.2324 45.6348 20.2324C46.0176 20.2324 46.3418 20.1543 46.6074 19.998C46.873 19.8418 47.1055 19.6348 47.3047 19.377L47.9668 19.8926C47.4355 20.709 46.6387 21.1172 45.5762 21.1172ZM45.4414 15.4336C45.0039 15.4336 44.6367 15.5938 44.3398 15.9141C44.043 16.2305 43.8594 16.6758 43.7891 17.25H46.9648V17.168C46.9336 16.6172 46.7852 16.1914 46.5195 15.8906C46.2539 15.5859 45.8945 15.4336 45.4414 15.4336ZM53.2227 21C53.1602 20.875 53.1094 20.6523 53.0703 20.332C52.5664 20.8555 51.9648 21.1172 51.2656 21.1172C50.6406 21.1172 50.127 20.9414 49.7246 20.5898C49.3262 20.2344 49.127 19.7852 49.127 19.2422C49.127 18.582 49.377 18.0703 49.877 17.707C50.3809 17.3398 51.0879 17.1562 51.998 17.1562H53.0527V16.6582C53.0527 16.2793 52.9395 15.9785 52.7129 15.7559C52.4863 15.5293 52.1523 15.416 51.7109 15.416C51.3242 15.416 51 15.5137 50.7383 15.709C50.4766 15.9043 50.3457 16.1406 50.3457 16.418H49.2559C49.2559 16.1016 49.3672 15.7969 49.5898 15.5039C49.8164 15.207 50.1211 14.9727 50.5039 14.8008C50.8906 14.6289 51.3145 14.543 51.7754 14.543C52.5059 14.543 53.0781 14.7266 53.4922 15.0938C53.9062 15.457 54.1211 15.959 54.1367 16.5996V19.5176C54.1367 20.0996 54.2109 20.5625 54.3594 20.9062V21H53.2227ZM51.4238 20.1738C51.7637 20.1738 52.0859 20.0859 52.3906 19.9102C52.6953 19.7344 52.916 19.5059 53.0527 19.2246V17.9238H52.2031C50.875 17.9238 50.2109 18.3125 50.2109 19.0898C50.2109 19.4297 50.3242 19.6953 50.5508 19.8867C50.7773 20.0781 51.0684 20.1738 51.4238 20.1738ZM61.2031 17.9004C61.2031 18.8691 60.9805 19.6484 60.5352 20.2383C60.0898 20.8242 59.4922 21.1172 58.7422 21.1172C57.9414 21.1172 57.3223 20.834 56.8848 20.2676L56.832 21H55.8359V12H56.9199V15.3574C57.3574 14.8145 57.9609 14.543 58.7305 14.543C59.5 14.543 60.1035 14.834 60.541 15.416C60.9824 15.998 61.2031 16.7949 61.2031 17.8066V17.9004ZM60.1191 17.7773C60.1191 17.0391 59.9766 16.4688 59.6914 16.0664C59.4062 15.6641 58.9961 15.4629 58.4609 15.4629C57.7461 15.4629 57.2324 15.7949 56.9199 16.459V19.2012C57.252 19.8652 57.7695 20.1973 58.4727 20.1973C58.9922 20.1973 59.3965 19.9961 59.6855 19.5938C59.9746 19.1914 60.1191 18.5859 60.1191 17.7773ZM62.2871 17.7715C62.2871 17.1504 62.4082 16.5918 62.6504 16.0957C62.8965 15.5996 63.2363 15.2168 63.6699 14.9473C64.1074 14.6777 64.6055 14.543 65.1641 14.543C66.0273 14.543 66.7246 14.8418 67.2559 15.4395C67.791 16.0371 68.0586 16.832 68.0586 17.8242V17.9004C68.0586 18.5176 67.9395 19.0723 67.7012 19.5645C67.4668 20.0527 67.1289 20.4336 66.6875 20.707C66.25 20.9805 65.7461 21.1172 65.1758 21.1172C64.3164 21.1172 63.6191 20.8184 63.084 20.2207C62.5527 19.623 62.2871 18.832 62.2871 17.8477V17.7715ZM63.377 17.9004C63.377 18.6035 63.5391 19.168 63.8633 19.5938C64.1914 20.0195 64.6289 20.2324 65.1758 20.2324C65.7266 20.2324 66.1641 20.0176 66.4883 19.5879C66.8125 19.1543 66.9746 18.5488 66.9746 17.7715C66.9746 17.0762 66.8086 16.5137 66.4766 16.084C66.1484 15.6504 65.7109 15.4336 65.1641 15.4336C64.6289 15.4336 64.1973 15.6465 63.8691 16.0723C63.541 16.498 63.377 17.1074 63.377 17.9004ZM72.4824 15.6328C72.3184 15.6055 72.1406 15.5918 71.9492 15.5918C71.2383 15.5918 70.7559 15.8945 70.502 16.5V21H69.418V14.6602H70.4727L70.4902 15.3926C70.8457 14.8262 71.3496 14.543 72.002 14.543C72.2129 14.543 72.373 14.5703 72.4824 14.625V15.6328ZM74.5098 14.6602L74.5449 15.457C75.0293 14.8477 75.6621 14.543 76.4434 14.543C77.7832 14.543 78.459 15.2988 78.4707 16.8105V21H77.3867V16.8047C77.3828 16.3477 77.2773 16.0098 77.0703 15.791C76.8672 15.5723 76.5488 15.4629 76.1152 15.4629C75.7637 15.4629 75.4551 15.5566 75.1895 15.7441C74.9238 15.9316 74.7168 16.1777 74.5684 16.4824V21H73.4844V14.6602H74.5098Z" fill="#22272E"/>
<path d="M4 2H85V0H4V2ZM87 4V30H89V4H87ZM85 32H4V34H85V32ZM2 30V4H0V30H2ZM4 32C2.89543 32 2 31.1046 2 30H0C0 32.2091 1.79086 34 4 34V32ZM87 30C87 31.1046 86.1046 32 85 32V34C87.2091 34 89 32.2091 89 30H87ZM85 2C86.1046 2 87 2.89543 87 4H89C89 1.79086 87.2091 0 85 0V2ZM4 0C1.79086 0 0 1.79086 0 4H2C2 2.89543 2.89543 2 4 2V0Z" fill="#30363D"/>
<defs>
<clipPath id="clip0">
<rect width="18" height="18" fill="white" transform="translate(9 8)"/>
</clipPath>
</defs>
</svg>
