<svg width="131" height="47" viewBox="0 0 131 47" fill="none" xmlns="http://www.w3.org/2000/svg">
<rect x="1" y="1" width="129" height="45" rx="4" fill="#22272E"/>
<path d="M33.3805 17.101L27.8185 23.3425C27.8025 23.3592 27.7833 23.3726 27.7621 23.3817C27.7408 23.3908 27.7179 23.3955 27.6947 23.3955C27.6716 23.3955 27.6487 23.3908 27.6274 23.3817C27.6062 23.3726 27.587 23.3592 27.571 23.3425L24.7315 20.4175C24.7078 20.3874 24.6949 20.3501 24.6949 20.3118C24.6949 20.2734 24.7078 20.2361 24.7315 20.206L25.654 19C25.6699 18.9786 25.6906 18.9612 25.7144 18.9492C25.7383 18.9372 25.7646 18.931 25.7912 18.931C25.8179 18.931 25.8442 18.9372 25.8681 18.9492C25.8919 18.9612 25.9126 18.9786 25.9285 19L27.508 20.7595C27.524 20.7777 27.5438 20.7923 27.5659 20.8022C27.588 20.8122 27.612 20.8174 27.6362 20.8174C27.6605 20.8174 27.6845 20.8122 27.7066 20.8022C27.7287 20.7923 27.7484 20.7777 27.7645 20.7595L32.2195 14.689C32.2315 14.6712 32.2385 14.6505 32.2398 14.629C32.2412 14.6076 32.2369 14.5862 32.2273 14.567C32.2177 14.5478 32.2031 14.5315 32.1852 14.5197C32.1672 14.5079 32.1464 14.5011 32.125 14.5H16.537C16.5024 14.5 16.4692 14.5137 16.4447 14.5382C16.4202 14.5627 16.4065 14.5959 16.4065 14.6305V32.3695C16.4065 32.4041 16.4202 32.4373 16.4447 32.4618C16.4692 32.4863 16.5024 32.5 16.537 32.5H33.4615C33.4961 32.5 33.5293 32.4863 33.5538 32.4618C33.5782 32.4373 33.592 32.4041 33.592 32.3695V17.2C33.5961 17.174 33.5917 17.1473 33.5793 17.124C33.567 17.1007 33.5474 17.0821 33.5235 17.0709C33.4996 17.0597 33.4728 17.0566 33.447 17.062C33.4212 17.0675 33.3978 17.0811 33.3805 17.101V17.101ZM21.199 30.5245C20.0844 30.5742 18.9945 30.1867 18.1615 29.4445C18.1358 29.4144 18.1217 29.3761 18.1217 29.3365C18.1217 29.2969 18.1358 29.2586 18.1615 29.2285L18.823 28.3015C18.8366 28.2823 18.8541 28.2662 18.8744 28.2543C18.8947 28.2424 18.9173 28.235 18.9407 28.2324C18.9641 28.2298 18.9877 28.2323 19.0101 28.2395C19.0325 28.2468 19.0531 28.2587 19.0705 28.2745C19.6747 28.8351 20.4692 29.1455 21.2935 29.143C22.162 29.143 22.585 28.7425 22.585 28.3195C22.585 27.0055 18.31 27.9055 18.31 25.111C18.31 23.8735 19.381 22.861 21.127 22.861C22.1361 22.8251 23.1241 23.156 23.908 23.7925C23.9361 23.8232 23.9518 23.8633 23.9518 23.905C23.9518 23.9467 23.9361 23.9868 23.908 24.0175L23.2285 24.9175C23.2149 24.9353 23.1978 24.9502 23.1783 24.9612C23.1588 24.9723 23.1373 24.9792 23.115 24.9818C23.0927 24.9843 23.0702 24.9823 23.0487 24.9759C23.0272 24.9695 23.0072 24.9588 22.99 24.9445C22.4139 24.485 21.6974 24.2372 20.9605 24.2425C20.281 24.2425 19.903 24.544 19.903 24.9895C19.903 26.1685 24.169 25.381 24.169 28.1395C24.1735 29.4985 23.206 30.5245 21.199 30.5245V30.5245ZM30.5275 27.9505C30.5275 27.9887 30.5123 28.0253 30.4853 28.0523C30.4583 28.0793 30.4217 28.0945 30.3835 28.0945H26.482C26.4757 28.0945 26.4694 28.0958 26.4637 28.0983C26.4579 28.1008 26.4527 28.1046 26.4485 28.1092C26.4442 28.1139 26.441 28.1194 26.439 28.1254C26.4371 28.1314 26.4364 28.1377 26.437 28.144C26.5008 28.5083 26.6978 28.8359 26.9897 29.063C27.2817 29.2901 27.6477 29.4004 28.0165 29.3725C28.5011 29.3595 28.971 29.2029 29.3665 28.9225C29.3819 28.9104 29.3997 28.9017 29.4187 28.8967C29.4376 28.8917 29.4574 28.8907 29.4768 28.8936C29.4962 28.8966 29.5147 28.9035 29.5314 28.9138C29.548 28.9242 29.5623 28.9379 29.5735 28.954L30.0505 29.6515C30.0709 29.6825 30.079 29.72 30.0732 29.7566C30.0674 29.7933 30.048 29.8264 30.019 29.8495C29.39 30.3072 28.6276 30.5444 27.85 30.5245C27.4611 30.5461 27.0719 30.4862 26.7075 30.3486C26.3431 30.211 26.0115 29.9988 25.734 29.7255C25.4564 29.4522 25.2391 29.1239 25.0959 28.7616C24.9527 28.3994 24.8868 28.0112 24.9025 27.622C24.8915 27.2423 24.9576 26.8643 25.0969 26.5109C25.2362 26.1575 25.4458 25.836 25.7129 25.5659C25.98 25.2958 26.2992 25.0828 26.6511 24.9396C27.0029 24.7964 27.3802 24.7261 27.76 24.733C29.407 24.733 30.523 25.966 30.523 27.7705L30.5275 27.9505ZM27.7645 25.8895C27.4337 25.8795 27.1112 25.9943 26.8611 26.211C26.6111 26.4278 26.4516 26.7306 26.4145 27.0595C26.4139 27.0658 26.4146 27.0721 26.4165 27.0781C26.4185 27.0841 26.4217 27.0896 26.426 27.0943C26.4302 27.0989 26.4354 27.1027 26.4412 27.1052C26.4469 27.1077 26.4532 27.109 26.4595 27.109H29.0785C29.0848 27.109 29.091 27.1077 29.0968 27.1052C29.1026 27.1027 29.1078 27.0989 29.112 27.0943C29.1163 27.0896 29.1195 27.0841 29.1215 27.0781C29.1234 27.0721 29.1241 27.0658 29.1235 27.0595C29.097 26.7247 28.9394 26.4139 28.6848 26.1947C28.4303 25.9756 28.0995 25.8659 27.7645 25.8895V25.8895Z" fill="#ADBAC7"/>
<path d="M46.9453 29.5469V28C47.1224 28.1562 47.3333 28.2969 47.5781 28.4219C47.8281 28.5469 48.0885 28.6536 48.3594 28.7422C48.6354 28.8255 48.9115 28.8906 49.1875 28.9375C49.4635 28.9844 49.7188 29.0078 49.9531 29.0078C50.7604 29.0078 51.362 28.8594 51.7578 28.5625C52.1589 28.2604 52.3594 27.8281 52.3594 27.2656C52.3594 26.9635 52.2917 26.7005 52.1562 26.4766C52.026 26.2526 51.8438 26.0495 51.6094 25.8672C51.375 25.6797 51.0964 25.5026 50.7734 25.3359C50.4557 25.1641 50.112 24.9844 49.7422 24.7969C49.3516 24.599 48.987 24.3984 48.6484 24.1953C48.3099 23.9922 48.0156 23.7682 47.7656 23.5234C47.5156 23.2786 47.3177 23.0026 47.1719 22.6953C47.0312 22.3828 46.9609 22.0182 46.9609 21.6016C46.9609 21.0911 47.0729 20.6484 47.2969 20.2734C47.5208 19.8932 47.8151 19.5807 48.1797 19.3359C48.5443 19.0911 48.9583 18.9089 49.4219 18.7891C49.8906 18.6693 50.3672 18.6094 50.8516 18.6094C51.9557 18.6094 52.7604 18.7422 53.2656 19.0078V20.4844C52.6042 20.026 51.7552 19.7969 50.7188 19.7969C50.4323 19.7969 50.1458 19.8281 49.8594 19.8906C49.5729 19.9479 49.3177 20.0443 49.0938 20.1797C48.8698 20.3151 48.6875 20.4896 48.5469 20.7031C48.4062 20.9167 48.3359 21.1771 48.3359 21.4844C48.3359 21.7708 48.388 22.0182 48.4922 22.2266C48.6016 22.4349 48.7604 22.625 48.9688 22.7969C49.1771 22.9688 49.4297 23.1354 49.7266 23.2969C50.0286 23.4583 50.375 23.6354 50.7656 23.8281C51.1667 24.026 51.5469 24.2344 51.9062 24.4531C52.2656 24.6719 52.5807 24.9141 52.8516 25.1797C53.1224 25.4453 53.3359 25.7396 53.4922 26.0625C53.6536 26.3854 53.7344 26.7552 53.7344 27.1719C53.7344 27.724 53.625 28.1927 53.4062 28.5781C53.1927 28.9583 52.901 29.2682 52.5312 29.5078C52.1667 29.7474 51.7448 29.9193 51.2656 30.0234C50.7865 30.1328 50.2812 30.1875 49.75 30.1875C49.5729 30.1875 49.3542 30.1719 49.0938 30.1406C48.8333 30.1146 48.5677 30.0729 48.2969 30.0156C48.026 29.9635 47.7682 29.8984 47.5234 29.8203C47.2839 29.737 47.0911 29.6458 46.9453 29.5469ZM62.2266 26.3203H56.5781C56.599 27.2109 56.8385 27.8984 57.2969 28.3828C57.7552 28.8672 58.3854 29.1094 59.1875 29.1094C60.0885 29.1094 60.9167 28.8125 61.6719 28.2188V29.4219C60.9688 29.9323 60.0391 30.1875 58.8828 30.1875C57.7526 30.1875 56.8646 29.8255 56.2188 29.1016C55.5729 28.3724 55.25 27.349 55.25 26.0312C55.25 24.7865 55.6016 23.7734 56.3047 22.9922C57.013 22.2057 57.8906 21.8125 58.9375 21.8125C59.9844 21.8125 60.7943 22.151 61.3672 22.8281C61.9401 23.5052 62.2266 24.4453 62.2266 25.6484V26.3203ZM60.9141 25.2344C60.9089 24.4948 60.7292 23.9193 60.375 23.5078C60.026 23.0964 59.5391 22.8906 58.9141 22.8906C58.3099 22.8906 57.7969 23.1068 57.375 23.5391C56.9531 23.9714 56.6927 24.5365 56.5938 25.2344H60.9141ZM65.4531 30H64.1719V18.1562H65.4531V30ZM74.4766 26.3203H68.8281C68.849 27.2109 69.0885 27.8984 69.5469 28.3828C70.0052 28.8672 70.6354 29.1094 71.4375 29.1094C72.3385 29.1094 73.1667 28.8125 73.9219 28.2188V29.4219C73.2188 29.9323 72.2891 30.1875 71.1328 30.1875C70.0026 30.1875 69.1146 29.8255 68.4688 29.1016C67.8229 28.3724 67.5 27.349 67.5 26.0312C67.5 24.7865 67.8516 23.7734 68.5547 22.9922C69.263 22.2057 70.1406 21.8125 71.1875 21.8125C72.2344 21.8125 73.0443 22.151 73.6172 22.8281C74.1901 23.5052 74.4766 24.4453 74.4766 25.6484V26.3203ZM73.1641 25.2344C73.1589 24.4948 72.9792 23.9193 72.625 23.5078C72.276 23.0964 71.7891 22.8906 71.1641 22.8906C70.5599 22.8906 70.0469 23.1068 69.625 23.5391C69.2031 23.9714 68.9427 24.5365 68.8438 25.2344H73.1641ZM83.0625 30H81.7812V25.4375C81.7812 23.7396 81.1615 22.8906 79.9219 22.8906C79.2812 22.8906 78.75 23.1328 78.3281 23.6172C77.9115 24.0964 77.7031 24.7031 77.7031 25.4375V30H76.4219V22H77.7031V23.3281H77.7344C78.3385 22.3177 79.2135 21.8125 80.3594 21.8125C81.2344 21.8125 81.9036 22.0964 82.3672 22.6641C82.8307 23.2266 83.0625 24.0417 83.0625 25.1094V30ZM86.1406 19.9688C85.9115 19.9688 85.7161 19.8906 85.5547 19.7344C85.3932 19.5781 85.3125 19.3802 85.3125 19.1406C85.3125 18.901 85.3932 18.7031 85.5547 18.5469C85.7161 18.3854 85.9115 18.3047 86.1406 18.3047C86.375 18.3047 86.5729 18.3854 86.7344 18.5469C86.901 18.7031 86.9844 18.901 86.9844 19.1406C86.9844 19.3698 86.901 19.5651 86.7344 19.7266C86.5729 19.888 86.375 19.9688 86.1406 19.9688ZM86.7656 30H85.4844V22H86.7656V30ZM95.8281 30H94.5469V28.7344H94.5156C93.9844 29.7031 93.1615 30.1875 92.0469 30.1875C90.1406 30.1875 89.1875 29.0521 89.1875 26.7812V22H90.4609V26.5781C90.4609 28.2656 91.1068 29.1094 92.3984 29.1094C93.0234 29.1094 93.5365 28.8802 93.9375 28.4219C94.3438 27.9583 94.5469 27.3542 94.5469 26.6094V22H95.8281V30ZM109.781 30H108.5V25.4062C108.5 24.5208 108.362 23.8802 108.086 23.4844C107.815 23.0885 107.357 22.8906 106.711 22.8906C106.164 22.8906 105.698 23.1406 105.312 23.6406C104.932 24.1406 104.742 24.7396 104.742 25.4375V30H103.461V25.25C103.461 23.6771 102.854 22.8906 101.641 22.8906C101.078 22.8906 100.615 23.1276 100.25 23.6016C99.8854 24.0703 99.7031 24.6823 99.7031 25.4375V30H98.4219V22H99.7031V23.2656H99.7344C100.302 22.2969 101.13 21.8125 102.219 21.8125C102.766 21.8125 103.242 21.9661 103.648 22.2734C104.055 22.5755 104.333 22.974 104.484 23.4688C105.078 22.3646 105.964 21.8125 107.141 21.8125C108.901 21.8125 109.781 22.8984 109.781 25.0703V30Z" fill="#ADBAC7"/>
<rect x="1" y="1" width="129" height="45" rx="4" stroke="#444C56" stroke-width="2"/>
</svg>
