<svg xmlns="http://www.w3.org/2000/svg" width="161" height="56" fill="none"><rect width="143" height="48" x="9" y="4" fill="#E3F2FD" rx="4"/><g clip-path="url(#a)"><path fill="#2CB134" d="M48.513 17.213a.139.139 0 0 1 .147.143.138.138 0 0 1-.024.072l-5.317 7.223a.206.206 0 0 1-.307 0l-1.875-2.09a.217.217 0 0 0-.338.03l-1.137 1.445a.241.241 0 0 0 .03.246l3.381 3.504a.205.205 0 0 0 .307 0l6.639-7.469a.141.141 0 0 1 .246.093v18.164a.146.146 0 0 1-.154.153H29.888a.146.146 0 0 1-.154-.153V17.367a.147.147 0 0 1 .043-.112.146.146 0 0 1 .111-.042h18.625Zm-5.225 12.263a3.352 3.352 0 0 0-3.411 3.442c0 2.121 1.536 3.473 3.534 3.473a4.23 4.23 0 0 0 2.582-.799.19.19 0 0 0 .03-.246l-.553-.83a.186.186 0 0 0-.245-.03c-.481.328-1.047.51-1.63.522-1.075 0-1.751-.676-1.874-1.475a.066.066 0 0 1 .061-.061h4.641a.198.198 0 0 0 .185-.185v-.184c0-2.152-1.353-3.627-3.32-3.627Zm-4.58-1.168a4.92 4.92 0 0 0-3.318-1.106c-2.09 0-3.381 1.23-3.381 2.704 0 3.35 5.102 2.275 5.102 3.842 0 .492-.492.984-1.537.984a3.862 3.862 0 0 1-2.674-1.045.205.205 0 0 0-.307.03l-.8 1.107a.19.19 0 0 0 .032.246c.83.768 1.997 1.29 3.626 1.29 2.397 0 3.565-1.229 3.627-2.827 0-3.32-5.102-2.367-5.102-3.78 0-.523.461-.892 1.26-.892a3.814 3.814 0 0 1 2.428.83.194.194 0 0 0 .277-.03l.799-1.076a.194.194 0 0 0-.031-.277Zm4.611 2.52a1.548 1.548 0 0 1 1.629 1.414.066.066 0 0 1-.062.062h-3.135a.066.066 0 0 1-.06-.062 1.615 1.615 0 0 1 1.628-1.414Z"/></g><path fill="#000" d="M68.945 34.047V32.5c.177.156.388.297.633.422.25.125.51.232.781.32.276.084.553.149.829.196.275.046.53.07.765.07.807 0 1.409-.149 1.805-.446.4-.302.601-.734.601-1.296 0-.302-.067-.565-.203-.79a2.137 2.137 0 0 0-.547-.609 5.026 5.026 0 0 0-.836-.531 44.106 44.106 0 0 0-1.03-.54c-.391-.197-.756-.398-1.095-.6a4.74 4.74 0 0 1-.882-.673 2.88 2.88 0 0 1-.594-.828 2.643 2.643 0 0 1-.211-1.093c0-.51.112-.954.336-1.329.224-.38.518-.692.883-.937a4.007 4.007 0 0 1 1.242-.547c.469-.12.945-.18 1.43-.18 1.104 0 1.908.133 2.414.399v1.476c-.662-.458-1.51-.687-2.547-.687a4.02 4.02 0 0 0-.86.094 2.361 2.361 0 0 0-.765.289c-.224.135-.406.31-.547.523a1.39 1.39 0 0 0-.211.781c0 .287.052.534.156.743.11.208.268.398.477.57.208.172.46.338.758.5.302.161.648.338 1.039.531.4.198.78.406 1.14.625.36.219.675.461.946.727.27.265.484.56.64.883.162.322.242.692.242 1.109 0 .552-.109 1.02-.328 1.406-.213.38-.505.69-.875.93-.364.24-.786.411-1.265.515-.48.11-.985.164-1.516.164-.177 0-.396-.015-.656-.046a7.4 7.4 0 0 1-.797-.125 6.718 6.718 0 0 1-.774-.196 2.506 2.506 0 0 1-.578-.273Zm15.282-3.227h-5.649c.021.89.26 1.578.719 2.063.458.484 1.088.726 1.89.726.901 0 1.73-.297 2.485-.89v1.203c-.703.51-1.633.766-2.79.766-1.13 0-2.017-.363-2.663-1.086-.646-.73-.969-1.753-.969-3.07 0-1.245.352-2.259 1.055-3.04.708-.786 1.586-1.18 2.632-1.18 1.047 0 1.857.339 2.43 1.016.573.677.86 1.617.86 2.82v.672Zm-1.313-1.086c-.005-.74-.185-1.315-.539-1.726-.349-.412-.836-.617-1.46-.617a2.07 2.07 0 0 0-1.54.648c-.422.432-.682.997-.781 1.695h4.32Zm4.54 4.766h-1.282V22.656h1.281V34.5Zm9.023-3.68h-5.649c.021.89.26 1.578.719 2.063.458.484 1.088.726 1.89.726.901 0 1.73-.297 2.485-.89v1.203c-.703.51-1.633.766-2.79.766-1.13 0-2.017-.363-2.663-1.086-.646-.73-.969-1.753-.969-3.07 0-1.245.352-2.259 1.055-3.04.708-.786 1.586-1.18 2.632-1.18 1.047 0 1.857.339 2.43 1.016.573.677.86 1.617.86 2.82v.672Zm-1.313-1.086c-.005-.74-.185-1.315-.539-1.726-.349-.412-.836-.617-1.46-.617a2.07 2.07 0 0 0-1.54.648c-.422.432-.682.997-.781 1.695h4.32Zm9.898 4.766h-1.281v-4.563c0-1.697-.62-2.546-1.859-2.546-.641 0-1.172.242-1.594.726-.416.48-.625 1.086-.625 1.82V34.5h-1.281v-8h1.281v1.328h.031c.605-1.01 1.48-1.515 2.625-1.515.875 0 1.545.283 2.008.851.464.563.695 1.378.695 2.445V34.5Zm3.079-10.031a.81.81 0 0 1-.586-.235.79.79 0 0 1-.243-.593.79.79 0 0 1 .243-.594.796.796 0 0 1 .586-.242c.234 0 .432.08.593.242.167.156.25.354.25.594 0 .229-.083.424-.25.586a.806.806 0 0 1-.593.242Zm.625 10.031h-1.282v-8h1.282v8Zm9.062 0h-1.281v-1.266h-.031c-.532.97-1.355 1.453-2.469 1.453-1.906 0-2.859-1.135-2.859-3.406V26.5h1.273v4.578c0 1.688.646 2.531 1.937 2.531.625 0 1.138-.229 1.54-.687.406-.464.609-1.068.609-1.813V26.5h1.281v8Zm13.953 0H130.5v-4.594c0-.885-.138-1.526-.414-1.922-.271-.396-.729-.593-1.375-.593-.547 0-1.013.25-1.399.75-.38.5-.57 1.099-.57 1.797V34.5h-1.281v-4.75c0-1.573-.607-2.36-1.82-2.36-.563 0-1.026.238-1.391.712-.365.468-.547 1.08-.547 1.835V34.5h-1.281v-8h1.281v1.266h.031c.568-.97 1.396-1.453 2.485-1.453a2.3 2.3 0 0 1 1.429.46c.407.303.685.701.836 1.196.594-1.104 1.48-1.657 2.657-1.657 1.76 0 2.64 1.086 2.64 3.258v4.93Z"/><rect width="143" height="48" x="9" y="4" stroke="#2196F3" stroke-width="2" rx="4"/><defs><clipPath id="a"><path fill="#fff" d="M29.735 17.213h20.53v21.573h-20.53z"/></clipPath></defs></svg>