<svg width="19" height="18" viewBox="0 0 19 18" fill="none" xmlns="http://www.w3.org/2000/svg">
<g clip-path="url(#clip0)">
<path d="M9.99548 18C5.03273 18 0.995483 13.9628 0.995483 9C0.995483 4.03725 5.03273 0 9.99548 0C14.9582 0 18.9955 4.03725 18.9955 9C18.9955 13.9628 14.9582 18 9.99548 18ZM9.99548 0.83175C5.49173 0.83175 1.82798 4.49625 1.82798 9C1.82798 13.5037 5.49173 17.1675 9.99548 17.1675C14.4992 17.1675 18.163 13.5037 18.163 9C18.163 4.49625 14.4992 0.83175 9.99548 0.83175ZM5.63198 4.4925C5.89598 3.219 6.75923 2.07075 7.91948 1.4955C7.71773 1.70025 7.47323 1.85775 7.28648 2.0805C6.52148 2.9055 6.17648 4.0995 6.38723 5.1975C6.65348 6.87375 8.22848 8.2425 9.93623 8.2185C11.26 8.27775 12.55 7.51575 13.1972 6.3675C14.5832 6.41475 15.931 7.13025 16.7222 8.2785C17.1272 8.87775 17.4437 9.5805 17.4655 10.3117C17.209 9.3405 16.564 8.47725 15.6842 7.9905C15.2577 7.75157 14.7877 7.60029 14.3019 7.54555C13.8161 7.49081 13.3242 7.53372 12.8552 7.67175C11.6852 8.00775 10.7185 8.964 10.3855 10.1415C10.1027 11.079 10.2235 12.1125 10.6682 12.9705C10.0495 14.0423 8.93198 14.8072 7.71923 15.0375C6.78623 15.2332 5.80598 15.0817 4.93748 14.6895C5.71448 14.916 6.55823 14.9558 7.33073 14.6813C7.84838 14.5056 8.32046 14.2169 8.71273 13.8361C9.10501 13.4554 9.40765 12.9922 9.59873 12.48C10.0157 11.3625 9.85748 10.0343 9.15548 9.075C8.63048 8.31975 7.80323 7.78725 6.90398 7.59825C6.61898 7.54725 6.33098 7.52475 6.04298 7.49775C5.58473 6.5745 5.41748 5.50275 5.64698 4.50075L5.63198 4.4925Z" fill="black"/>
</g>
<defs>
<clipPath id="clip0">
<rect width="18" height="18" fill="white" transform="translate(0.995483)"/>
</clipPath>
</defs>
</svg>
