<svg width="19" height="18" viewBox="0 0 19 18" fill="none" xmlns="http://www.w3.org/2000/svg">
<g clip-path="url(#clip0)">
<path d="M15.808 0H4.18298C2.42049 0 0.995483 1.46154 0.995483 3.26924V14.7308C0.995483 16.5385 2.42049 18 4.18298 18H15.808C17.5705 18 18.9955 16.5385 18.9955 14.7308V3.26924C18.9955 1.46154 17.5705 0 15.808 0Z" fill="#330000"/>
<path d="M9.19311 8.67374C9.11811 8.44124 9.05061 8.21624 8.97561 7.98374C8.90061 7.75124 8.83311 7.53374 8.77311 7.31624C8.71311 7.10624 8.66061 6.91124 8.60811 6.73124H8.59311C8.52561 7.05374 8.44311 7.37624 8.33811 7.69874C8.22561 8.05874 8.11311 8.43374 7.99311 8.80874C7.88811 9.19124 7.77561 9.54374 7.66311 9.85874H9.56811C9.52311 9.70049 9.46311 9.51374 9.39561 9.31799C9.32811 9.11624 9.26061 8.89874 9.19311 8.67374ZM12.3206 13.2487H10.7523C10.7006 13.2562 10.6481 13.2187 10.6331 13.1662L10.0181 11.3812H7.22811L6.65811 13.1437C6.64311 13.2112 6.58311 13.2562 6.51561 13.2495H5.10561C5.02311 13.2495 5.00061 13.2037 5.02311 13.1145L7.43811 6.16124C7.46061 6.08624 7.48311 6.00374 7.51311 5.91374C7.54311 5.75624 7.55811 5.59124 7.55811 5.42624C7.55061 5.38874 7.58061 5.35124 7.61811 5.34374H9.56061C9.62061 5.34374 9.6506 5.36624 9.6581 5.40374L12.3956 13.1287C12.4181 13.2105 12.3956 13.2487 12.3206 13.2487ZM14.8706 13.1362C14.8706 13.2187 14.8413 13.2562 14.7738 13.2562H13.3031C13.2281 13.2562 13.1906 13.2105 13.1906 13.1362V7.36124C13.1906 7.28624 13.2213 7.25624 13.2888 7.25624H14.7738C14.8413 7.25624 14.8706 7.29374 14.8706 7.36124V13.1362ZM14.7138 6.36374C14.6253 6.45369 14.5185 6.52366 14.4006 6.56893C14.2828 6.61421 14.1566 6.63374 14.0306 6.62624C13.7831 6.63374 13.5431 6.53624 13.3623 6.36374C13.1905 6.17585 13.099 5.92821 13.1073 5.67374C13.0998 5.41874 13.1973 5.17874 13.3766 5.00624C13.5581 4.83374 13.7981 4.74374 14.0456 4.74374C14.3388 4.74374 14.5623 4.83374 14.7281 5.00624C14.8931 5.18624 14.9831 5.42624 14.9756 5.67374C14.9831 5.92874 14.8931 6.17624 14.7138 6.36374Z" fill="#FF9A00"/>
</g>
<defs>
<clipPath id="clip0">
<rect width="18" height="18" fill="white" transform="translate(0.995483)"/>
</clipPath>
</defs>
</svg>
