<svg width="111" height="45" viewBox="0 0 111 45" fill="none" xmlns="http://www.w3.org/2000/svg">
<path d="M1 4C1 2.34314 2.34315 1 4 1H107C108.657 1 110 2.34315 110 4V41C110 42.6569 108.657 44 107 44H4C2.34314 44 1 42.6569 1 41V4Z" fill="#22272E"/>
<g clip-path="url(#clip0)">
<path d="M23.9533 13.5118C23.2002 13.5139 22.4503 13.6093 21.7207 13.7959C18.2107 14.6689 15.4247 17.8476 15.0675 21.4532C14.6248 24.8636 16.3505 28.4175 19.3003 30.1781C22.1983 31.9916 26.1206 31.9191 28.9567 30.0116C31.506 28.3562 33.0905 25.3412 32.9972 22.2969C32.9539 19.2859 31.263 16.3586 28.6755 14.8117C27.2664 13.9416 25.6087 13.5051 23.9533 13.5112V13.5118ZM23.9032 14.7831C27.6118 14.7769 31.245 17.6451 31.6168 21.4774C32.3261 25.7226 28.8015 30.0381 24.5006 30.1641C20.4107 30.5713 16.4552 27.1024 16.3382 22.995C16.0339 19.6701 18.2282 16.3682 21.3624 15.2691C22.1705 14.9472 23.0328 14.7832 23.9027 14.7859L23.9032 14.7831ZM27.7237 17.2035C25.7077 18.7672 23.7772 20.4345 21.8057 22.0461C22.7079 22.0573 23.6164 22.0573 24.5214 22.0511C25.5789 20.4283 26.6662 18.8263 27.7237 17.2029V17.2035ZM23.4757 22.9427C22.4182 24.5689 21.3287 26.1737 20.27 27.7999C22.2922 26.2384 24.2137 24.5599 26.1971 22.9573C25.2898 22.947 24.3825 22.9423 23.4752 22.9432L23.4757 22.9427Z" fill="#ADBAC7"/>
</g>
<path d="M45.9453 28.5469V27C46.1224 27.1562 46.3333 27.2969 46.5781 27.4219C46.8281 27.5469 47.0885 27.6536 47.3594 27.7422C47.6354 27.8255 47.9115 27.8906 48.1875 27.9375C48.4635 27.9844 48.7188 28.0078 48.9531 28.0078C49.7604 28.0078 50.362 27.8594 50.7578 27.5625C51.1589 27.2604 51.3594 26.8281 51.3594 26.2656C51.3594 25.9635 51.2917 25.7005 51.1562 25.4766C51.026 25.2526 50.8438 25.0495 50.6094 24.8672C50.375 24.6797 50.0964 24.5026 49.7734 24.3359C49.4557 24.1641 49.112 23.9844 48.7422 23.7969C48.3516 23.599 47.987 23.3984 47.6484 23.1953C47.3099 22.9922 47.0156 22.7682 46.7656 22.5234C46.5156 22.2786 46.3177 22.0026 46.1719 21.6953C46.0312 21.3828 45.9609 21.0182 45.9609 20.6016C45.9609 20.0911 46.0729 19.6484 46.2969 19.2734C46.5208 18.8932 46.8151 18.5807 47.1797 18.3359C47.5443 18.0911 47.9583 17.9089 48.4219 17.7891C48.8906 17.6693 49.3672 17.6094 49.8516 17.6094C50.9557 17.6094 51.7604 17.7422 52.2656 18.0078V19.4844C51.6042 19.026 50.7552 18.7969 49.7188 18.7969C49.4323 18.7969 49.1458 18.8281 48.8594 18.8906C48.5729 18.9479 48.3177 19.0443 48.0938 19.1797C47.8698 19.3151 47.6875 19.4896 47.5469 19.7031C47.4062 19.9167 47.3359 20.1771 47.3359 20.4844C47.3359 20.7708 47.388 21.0182 47.4922 21.2266C47.6016 21.4349 47.7604 21.625 47.9688 21.7969C48.1771 21.9688 48.4297 22.1354 48.7266 22.2969C49.0286 22.4583 49.375 22.6354 49.7656 22.8281C50.1667 23.026 50.5469 23.2344 50.9062 23.4531C51.2656 23.6719 51.5807 23.9141 51.8516 24.1797C52.1224 24.4453 52.3359 24.7396 52.4922 25.0625C52.6536 25.3854 52.7344 25.7552 52.7344 26.1719C52.7344 26.724 52.625 27.1927 52.4062 27.5781C52.1927 27.9583 51.901 28.2682 51.5312 28.5078C51.1667 28.7474 50.7448 28.9193 50.2656 29.0234C49.7865 29.1328 49.2812 29.1875 48.75 29.1875C48.5729 29.1875 48.3542 29.1719 48.0938 29.1406C47.8333 29.1146 47.5677 29.0729 47.2969 29.0156C47.026 28.9635 46.7682 28.8984 46.5234 28.8203C46.2839 28.737 46.0911 28.6458 45.9453 28.5469ZM58.1406 29.1875C56.9583 29.1875 56.013 28.8151 55.3047 28.0703C54.6016 27.3203 54.25 26.3281 54.25 25.0938C54.25 23.75 54.6172 22.7005 55.3516 21.9453C56.0859 21.1901 57.0781 20.8125 58.3281 20.8125C59.5208 20.8125 60.4505 21.1797 61.1172 21.9141C61.7891 22.6484 62.125 23.6667 62.125 24.9688C62.125 26.2448 61.763 27.2682 61.0391 28.0391C60.3203 28.8047 59.3542 29.1875 58.1406 29.1875ZM58.2344 21.8906C57.4115 21.8906 56.7604 22.1719 56.2812 22.7344C55.8021 23.2917 55.5625 24.0625 55.5625 25.0469C55.5625 25.9948 55.8047 26.7422 56.2891 27.2891C56.7734 27.8359 57.4219 28.1094 58.2344 28.1094C59.0625 28.1094 59.6979 27.8411 60.1406 27.3047C60.5885 26.7682 60.8125 26.0052 60.8125 25.0156C60.8125 24.0156 60.5885 23.2448 60.1406 22.7031C59.6979 22.1615 59.0625 21.8906 58.2344 21.8906ZM69.625 28.6328C69.0104 29.0026 68.2812 29.1875 67.4375 29.1875C66.2969 29.1875 65.375 28.8177 64.6719 28.0781C63.974 27.3333 63.625 26.3698 63.625 25.1875C63.625 23.8698 64.0026 22.8125 64.7578 22.0156C65.513 21.2135 66.5208 20.8125 67.7812 20.8125C68.4844 20.8125 69.1042 20.9427 69.6406 21.2031V22.5156C69.0469 22.099 68.4115 21.8906 67.7344 21.8906C66.9167 21.8906 66.2448 22.1849 65.7188 22.7734C65.1979 23.3568 64.9375 24.125 64.9375 25.0781C64.9375 26.0156 65.1823 26.7552 65.6719 27.2969C66.1667 27.8385 66.8281 28.1094 67.6562 28.1094C68.3542 28.1094 69.0104 27.8776 69.625 27.4141V28.6328ZM78.2031 29H76.4062L72.875 25.1562H72.8438V29H71.5625V17.1562H72.8438V24.6641H72.875L76.2344 21H77.9141L74.2031 24.8594L78.2031 29ZM85.6172 25.3203H79.9688C79.9896 26.2109 80.2292 26.8984 80.6875 27.3828C81.1458 27.8672 81.776 28.1094 82.5781 28.1094C83.4792 28.1094 84.3073 27.8125 85.0625 27.2188V28.4219C84.3594 28.9323 83.4297 29.1875 82.2734 29.1875C81.1432 29.1875 80.2552 28.8255 79.6094 28.1016C78.9635 27.3724 78.6406 26.349 78.6406 25.0312C78.6406 23.7865 78.9922 22.7734 79.6953 21.9922C80.4036 21.2057 81.2812 20.8125 82.3281 20.8125C83.375 20.8125 84.1849 21.151 84.7578 21.8281C85.3307 22.5052 85.6172 23.4453 85.6172 24.6484V25.3203ZM84.3047 24.2344C84.2995 23.4948 84.1198 22.9193 83.7656 22.5078C83.4167 22.0964 82.9297 21.8906 82.3047 21.8906C81.7005 21.8906 81.1875 22.1068 80.7656 22.5391C80.3438 22.9714 80.0833 23.5365 79.9844 24.2344H84.3047ZM91.2734 28.9219C90.9714 29.0885 90.5729 29.1719 90.0781 29.1719C88.6771 29.1719 87.9766 28.3906 87.9766 26.8281V22.0938H86.6016V21H87.9766V19.0469L89.2578 18.6328V21H91.2734V22.0938H89.2578V26.6016C89.2578 27.138 89.349 27.5208 89.5312 27.75C89.7135 27.9792 90.0156 28.0938 90.4375 28.0938C90.7604 28.0938 91.0391 28.0052 91.2734 27.8281V28.9219Z" fill="#ADBAC7"/>
<path d="M4 2H107V0H4V2ZM109 4V41H111V4H109ZM107 43H4V45H107V43ZM2 41V4H0V41H2ZM4 43C2.89543 43 2 42.1046 2 41H0C0 43.2091 1.79086 45 4 45V43ZM109 41C109 42.1046 108.105 43 107 43V45C109.209 45 111 43.2091 111 41H109ZM107 2C108.105 2 109 2.89543 109 4H111C111 1.79086 109.209 0 107 0V2ZM4 0C1.79086 0 0 1.79086 0 4H2C2 2.89543 2.89543 2 4 2V0Z" fill="#444C56"/>
<defs>
<clipPath id="clip0">
<rect width="18" height="18" fill="white" transform="translate(15 13.5)"/>
</clipPath>
</defs>
</svg>
