<svg xmlns="http://www.w3.org/2000/svg" width="160" height="56" fill="none"><rect width="142" height="48" x="9" y="4" fill="#FCE4EC" rx="4"/><g clip-path="url(#a)"><path fill="#000" d="M39.943 17.343c-.892.002-1.78.115-2.645.336-4.161 1.034-7.463 4.803-7.887 9.078-.524 4.044 1.52 8.256 5.019 10.344 3.433 2.15 8.084 2.063 11.446-.198 3.02-1.962 4.901-5.538 4.79-9.145-.052-3.57-2.055-7.038-5.122-8.873-1.672-1.031-3.638-1.55-5.6-1.541v-.001Zm-.056 1.508c4.397-.006 8.704 3.39 9.142 7.934.84 5.033-3.337 10.148-8.436 10.297-4.85.483-9.535-3.628-9.674-8.498-.36-3.942 2.238-7.855 5.956-9.158a8.105 8.105 0 0 1 3.012-.574v-.001Zm4.527 2.866c-2.39 1.854-4.677 3.83-7.015 5.742 1.07.015 2.145.014 3.22.008 1.254-1.925 2.543-3.823 3.795-5.75Zm-5.037 6.806c-1.254 1.926-2.543 3.831-3.797 5.756 2.395-1.85 4.673-3.841 7.026-5.74a227.209 227.209 0 0 0-3.23-.016Z"/></g><path fill="#000" d="M68.945 34.047V32.5c.177.156.388.297.633.422.25.125.51.232.781.32.276.084.553.149.829.196.275.046.53.07.765.07.807 0 1.409-.149 1.805-.446.4-.302.601-.734.601-1.296 0-.302-.067-.565-.203-.79a2.137 2.137 0 0 0-.547-.609 5.026 5.026 0 0 0-.836-.531 44.106 44.106 0 0 0-1.03-.54c-.391-.197-.756-.398-1.095-.6a4.74 4.74 0 0 1-.882-.673 2.88 2.88 0 0 1-.594-.828 2.643 2.643 0 0 1-.211-1.093c0-.51.112-.954.336-1.329.224-.38.518-.692.883-.937a4.007 4.007 0 0 1 1.242-.547c.469-.12.945-.18 1.43-.18 1.104 0 1.908.133 2.414.399v1.476c-.662-.458-1.51-.687-2.547-.687a4.02 4.02 0 0 0-.86.094 2.361 2.361 0 0 0-.765.289c-.224.135-.406.31-.547.523a1.39 1.39 0 0 0-.211.781c0 .287.052.534.156.743.11.208.268.398.477.57.208.172.46.338.758.5.302.161.648.338 1.039.531.4.198.78.406 1.14.625.36.219.675.461.946.727.27.265.484.56.64.883.162.322.242.692.242 1.109 0 .552-.109 1.02-.328 1.406-.213.38-.505.69-.875.93-.364.24-.786.411-1.265.515-.48.11-.985.164-1.516.164-.177 0-.396-.015-.656-.046a7.4 7.4 0 0 1-.797-.125 6.718 6.718 0 0 1-.774-.196 2.506 2.506 0 0 1-.578-.273Zm12.196.64c-1.183 0-2.128-.372-2.836-1.117-.703-.75-1.055-1.742-1.055-2.976 0-1.344.367-2.393 1.102-3.149.734-.755 1.726-1.133 2.976-1.133 1.193 0 2.123.368 2.79 1.102.671.734 1.007 1.753 1.007 3.055 0 1.276-.362 2.3-1.086 3.07-.719.766-1.685 1.148-2.898 1.148Zm.093-7.296c-.822 0-1.474.28-1.953.843-.479.558-.719 1.328-.719 2.313 0 .948.243 1.695.727 2.242.484.547 1.133.82 1.945.82.829 0 1.464-.268 1.907-.804.447-.537.671-1.3.671-2.29 0-1-.224-1.77-.671-2.312-.443-.541-1.079-.812-1.907-.812Zm11.391 6.742c-.615.37-1.344.554-2.188.554-1.14 0-2.062-.37-2.765-1.109-.698-.745-1.047-1.708-1.047-2.89 0-1.318.378-2.375 1.133-3.172.755-.802 1.763-1.203 3.023-1.203.703 0 1.323.13 1.86.39v1.313c-.594-.417-1.23-.625-1.907-.625-.817 0-1.49.294-2.015.882-.521.584-.781 1.352-.781 2.305 0 .938.244 1.677.734 2.219.495.542 1.156.812 1.984.812.698 0 1.354-.231 1.969-.695v1.219Zm8.578.367h-1.797l-3.531-3.844h-.031V34.5h-1.281V22.656h1.28v7.508h.032l3.36-3.664h1.679l-3.71 3.86 3.999 4.14Zm7.742-3.68h-5.648c.021.89.26 1.578.719 2.063.458.484 1.088.726 1.89.726.901 0 1.729-.297 2.485-.89v1.203c-.703.51-1.633.766-2.789.766-1.131 0-2.019-.363-2.664-1.086-.646-.73-.969-1.753-.969-3.07 0-1.245.351-2.259 1.054-3.04.709-.786 1.586-1.18 2.633-1.18s1.857.339 2.43 1.016c.573.677.859 1.617.859 2.82v.672Zm-1.312-1.086c-.005-.74-.185-1.315-.539-1.726-.349-.412-.836-.617-1.461-.617a2.07 2.07 0 0 0-1.539.648c-.422.432-.683.997-.782 1.695h4.321Zm6.969 4.688c-.303.167-.701.25-1.196.25-1.401 0-2.101-.781-2.101-2.344v-4.734h-1.375V26.5h1.375v-1.953l1.281-.414V26.5h2.016v1.094h-2.016v4.508c0 .536.091.919.273 1.148.183.23.485.344.907.344.323 0 .601-.089.836-.266v1.094Zm2.156.25a.84.84 0 0 1-.617-.258.854.854 0 0 1-.25-.617c0-.24.083-.445.25-.617a.827.827 0 0 1 .617-.266c.245 0 .453.089.625.266a.842.842 0 0 1 .258.617c0 .24-.086.445-.258.617a.851.851 0 0 1-.625.258Zm3.68-10.203a.81.81 0 0 1-.586-.235.79.79 0 0 1-.243-.593.79.79 0 0 1 .243-.594.796.796 0 0 1 .586-.242c.234 0 .432.08.593.242.167.156.25.354.25.594 0 .229-.083.424-.25.586a.806.806 0 0 1-.593.242Zm.624 10.031h-1.281v-8h1.281v8Zm5.938.188c-1.182 0-2.128-.373-2.836-1.118-.703-.75-1.055-1.742-1.055-2.976 0-1.344.368-2.393 1.102-3.149.734-.755 1.727-1.133 2.977-1.133 1.192 0 2.122.368 2.789 1.102.671.734 1.007 1.753 1.007 3.055 0 1.276-.362 2.3-1.086 3.07-.718.766-1.684 1.148-2.898 1.148Zm.094-7.297c-.823 0-1.474.28-1.953.843-.48.558-.719 1.328-.719 2.313 0 .948.242 1.695.726 2.242.485.547 1.133.82 1.946.82.828 0 1.463-.268 1.906-.804.448-.537.672-1.3.672-2.29 0-1-.224-1.77-.672-2.312-.443-.541-1.078-.812-1.906-.812Z"/><rect width="142" height="48" x="9" y="4" stroke="#E91E63" stroke-width="2" rx="4"/><defs><clipPath id="a"><path fill="#fff" d="M29.33 17.33h21.34v21.34H29.33z"/></clipPath></defs></svg>