<svg width="84" height="36" viewBox="0 0 84 36" fill="none" xmlns="http://www.w3.org/2000/svg">
<g filter="url(#filter0_d)">
<path d="M2.5 3C2.5 1.34315 3.84315 0 5.5 0H78.5C80.1569 0 81.5 1.34315 81.5 3V29C81.5 30.6569 80.1569 32 78.5 32H5.5C3.84314 32 2.5 30.6569 2.5 29V3Z" fill="#C9D1D9"/>
<g clip-path="url(#clip0)">
<path d="M19.452 7.0105C18.6994 7.01265 17.95 7.10787 17.2208 7.294C13.7108 8.16625 10.926 11.3455 10.5683 14.9515C10.1258 18.3625 11.85 21.9152 14.8013 23.677C17.697 25.4905 21.621 25.417 24.4568 23.5097C27.0045 21.8552 28.5908 18.8387 28.4963 15.796C28.4528 12.784 26.7638 9.859 24.1763 8.311C22.7663 7.44175 21.108 7.0045 19.4528 7.01125L19.452 7.0105ZM19.4048 8.2825C23.1135 8.27725 26.7465 11.1422 27.1163 14.9755C27.825 19.2205 24.3015 23.5352 20.0003 23.6605C15.9098 24.0685 11.9573 20.6005 11.8403 16.4927C11.5358 13.1672 13.728 9.8665 16.8638 8.76775C17.6722 8.44598 18.5346 8.28153 19.4048 8.28325V8.2825ZM23.223 10.7005C21.2078 12.2642 19.278 13.9315 17.3063 15.5432C18.2085 15.556 19.1153 15.5552 20.022 15.5507C21.0795 13.927 22.167 12.3257 23.223 10.7005ZM18.9743 16.441C17.9168 18.0655 16.8293 19.6727 15.7718 21.2965C17.7915 19.7365 19.713 18.0565 21.6983 16.4545C20.7903 16.4435 19.8823 16.439 18.9743 16.441V16.441Z" fill="black"/>
</g>
<path d="M40.0039 16.1973C39.0391 15.9199 38.3359 15.5801 37.8945 15.1777C37.457 14.7715 37.2383 14.2715 37.2383 13.6777C37.2383 13.0059 37.5059 12.4512 38.041 12.0137C38.5801 11.5723 39.2793 11.3516 40.1387 11.3516C40.7246 11.3516 41.2461 11.4648 41.7031 11.6914C42.1641 11.918 42.5195 12.2305 42.7695 12.6289C43.0234 13.0273 43.1504 13.4629 43.1504 13.9355H42.0195C42.0195 13.4199 41.8555 13.0156 41.5273 12.7227C41.1992 12.4258 40.7363 12.2773 40.1387 12.2773C39.584 12.2773 39.1504 12.4004 38.8379 12.6465C38.5293 12.8887 38.375 13.2266 38.375 13.6602C38.375 14.0078 38.5215 14.3027 38.8145 14.5449C39.1113 14.7832 39.6133 15.002 40.3203 15.2012C41.0312 15.4004 41.5859 15.6211 41.9844 15.8633C42.3867 16.1016 42.6836 16.3809 42.875 16.7012C43.0703 17.0215 43.168 17.3984 43.168 17.832C43.168 18.5234 42.8984 19.0781 42.3594 19.4961C41.8203 19.9102 41.0996 20.1172 40.1973 20.1172C39.6113 20.1172 39.0645 20.0059 38.5566 19.7832C38.0488 19.5566 37.6562 19.248 37.3789 18.8574C37.1055 18.4668 36.9688 18.0234 36.9688 17.5273H38.0996C38.0996 18.043 38.2891 18.4512 38.668 18.752C39.0508 19.0488 39.5605 19.1973 40.1973 19.1973C40.791 19.1973 41.2461 19.0762 41.5625 18.834C41.8789 18.5918 42.0371 18.2617 42.0371 17.8438C42.0371 17.4258 41.8906 17.1035 41.5977 16.877C41.3047 16.6465 40.7734 16.4199 40.0039 16.1973ZM44.1582 16.7715C44.1582 16.1504 44.2793 15.5918 44.5215 15.0957C44.7676 14.5996 45.1074 14.2168 45.541 13.9473C45.9785 13.6777 46.4766 13.543 47.0352 13.543C47.8984 13.543 48.5957 13.8418 49.127 14.4395C49.6621 15.0371 49.9297 15.832 49.9297 16.8242V16.9004C49.9297 17.5176 49.8105 18.0723 49.5723 18.5645C49.3379 19.0527 49 19.4336 48.5586 19.707C48.1211 19.9805 47.6172 20.1172 47.0469 20.1172C46.1875 20.1172 45.4902 19.8184 44.9551 19.2207C44.4238 18.623 44.1582 17.832 44.1582 16.8477V16.7715ZM45.248 16.9004C45.248 17.6035 45.4102 18.168 45.7344 18.5938C46.0625 19.0195 46.5 19.2324 47.0469 19.2324C47.5977 19.2324 48.0352 19.0176 48.3594 18.5879C48.6836 18.1543 48.8457 17.5488 48.8457 16.7715C48.8457 16.0762 48.6797 15.5137 48.3477 15.084C48.0195 14.6504 47.582 14.4336 47.0352 14.4336C46.5 14.4336 46.0684 14.6465 45.7402 15.0723C45.4121 15.498 45.248 16.1074 45.248 16.9004ZM53.832 19.2324C54.2188 19.2324 54.5566 19.1152 54.8457 18.8809C55.1348 18.6465 55.2949 18.3535 55.3262 18.002H56.3516C56.332 18.3652 56.207 18.7109 55.9766 19.0391C55.7461 19.3672 55.4375 19.6289 55.0508 19.8242C54.668 20.0195 54.2617 20.1172 53.832 20.1172C52.9688 20.1172 52.2812 19.8301 51.7695 19.2559C51.2617 18.6777 51.0078 17.8887 51.0078 16.8887V16.707C51.0078 16.0898 51.1211 15.541 51.3477 15.0605C51.5742 14.5801 51.8984 14.207 52.3203 13.9414C52.7461 13.6758 53.248 13.543 53.8262 13.543C54.5371 13.543 55.127 13.7559 55.5957 14.1816C56.0684 14.6074 56.3203 15.1602 56.3516 15.8398H55.3262C55.2949 15.4297 55.1387 15.0938 54.8574 14.832C54.5801 14.5664 54.2363 14.4336 53.8262 14.4336C53.2754 14.4336 52.8477 14.6328 52.543 15.0312C52.2422 15.4258 52.0918 15.998 52.0918 16.748V16.9531C52.0918 17.6836 52.2422 18.2461 52.543 18.6406C52.8438 19.0352 53.2734 19.2324 53.832 19.2324ZM59.3398 17.0645L58.6602 17.7734V20H57.5762V11H58.6602V16.4434L59.2402 15.7461L61.2148 13.6602H62.5332L60.0664 16.3086L62.8203 20H61.5488L59.3398 17.0645ZM66.166 20.1172C65.3066 20.1172 64.6074 19.8359 64.0684 19.2734C63.5293 18.707 63.2598 17.9512 63.2598 17.0059V16.8066C63.2598 16.1777 63.3789 15.6172 63.6172 15.125C63.8594 14.6289 64.1953 14.2422 64.625 13.9648C65.0586 13.6836 65.5273 13.543 66.0312 13.543C66.8555 13.543 67.4961 13.8145 67.9531 14.3574C68.4102 14.9004 68.6387 15.6777 68.6387 16.6895V17.1406H64.3438C64.3594 17.7656 64.541 18.2715 64.8887 18.6582C65.2402 19.041 65.6855 19.2324 66.2246 19.2324C66.6074 19.2324 66.9316 19.1543 67.1973 18.998C67.4629 18.8418 67.6953 18.6348 67.8945 18.377L68.5566 18.8926C68.0254 19.709 67.2285 20.1172 66.166 20.1172ZM66.0312 14.4336C65.5938 14.4336 65.2266 14.5938 64.9297 14.9141C64.6328 15.2305 64.4492 15.6758 64.3789 16.25H67.5547V16.168C67.5234 15.6172 67.375 15.1914 67.1094 14.8906C66.8438 14.5859 66.4844 14.4336 66.0312 14.4336ZM71.3691 12.125V13.6602H72.5527V14.498H71.3691V18.4297C71.3691 18.6836 71.4219 18.875 71.5273 19.0039C71.6328 19.1289 71.8125 19.1914 72.0664 19.1914C72.1914 19.1914 72.3633 19.168 72.582 19.1211V20C72.2969 20.0781 72.0195 20.1172 71.75 20.1172C71.2656 20.1172 70.9004 19.9707 70.6543 19.6777C70.4082 19.3848 70.2852 18.9688 70.2852 18.4297V14.498H69.1309V13.6602H70.2852V12.125H71.3691Z" fill="#22272E"/>
</g>
<defs>
<filter id="filter0_d" x="0.5" y="0" width="83" height="36" filterUnits="userSpaceOnUse" color-interpolation-filters="sRGB">
<feFlood flood-opacity="0" result="BackgroundImageFix"/>
<feColorMatrix in="SourceAlpha" type="matrix" values="0 0 0 0 0 0 0 0 0 0 0 0 0 0 0 0 0 0 127 0" result="hardAlpha"/>
<feOffset dy="2"/>
<feGaussianBlur stdDeviation="1"/>
<feComposite in2="hardAlpha" operator="out"/>
<feColorMatrix type="matrix" values="0 0 0 0 0 0 0 0 0 0 0 0 0 0 0 0 0 0 0.25 0"/>
<feBlend mode="normal" in2="BackgroundImageFix" result="effect1_dropShadow"/>
<feBlend mode="normal" in="SourceGraphic" in2="effect1_dropShadow" result="shape"/>
</filter>
<clipPath id="clip0">
<rect width="18" height="18" fill="white" transform="translate(10.5 7)"/>
</clipPath>
</defs>
</svg>
