<svg width="114" height="47" viewBox="0 0 114 47" fill="none" xmlns="http://www.w3.org/2000/svg">
<rect x="1" y="1" width="112" height="45" rx="4" fill="#22272E"/>
<g clip-path="url(#clip0_28_4933)">
<path d="M24.9533 14.5118C24.2002 14.5139 23.4503 14.6093 22.7207 14.7959C19.2107 15.6689 16.4247 18.8476 16.0675 22.4532C15.6248 25.8636 17.3505 29.4175 20.3003 31.1781C23.1983 32.9916 27.1206 32.9191 29.9567 31.0116C32.506 29.3562 34.0905 26.3412 33.9972 23.2969C33.9539 20.2859 32.263 17.3586 29.6755 15.8117C28.2664 14.9416 26.6087 14.5051 24.9533 14.5112V14.5118ZM24.9032 15.7831C28.6118 15.7769 32.245 18.6451 32.6168 22.4774C33.3261 26.7226 29.8015 31.0381 25.5006 31.1641C21.4107 31.5713 17.4552 28.1024 17.3382 23.995C17.0339 20.6701 19.2282 17.3682 22.3624 16.2691C23.1705 15.9472 24.0328 15.7832 24.9027 15.7859L24.9032 15.7831ZM28.7237 18.2035C26.7077 19.7672 24.7772 21.4345 22.8057 23.0461C23.7079 23.0573 24.6164 23.0573 25.5214 23.0511C26.5789 21.4283 27.6662 19.8263 28.7237 18.2029V18.2035ZM24.4757 23.9427C23.4182 25.5689 22.3287 27.1737 21.27 28.7999C23.2922 27.2384 25.2137 25.5599 27.1971 23.9573C26.2898 23.947 25.3825 23.9423 24.4752 23.9432L24.4757 23.9427Z" fill="#ADBAC7"/>
</g>
<path d="M46.9453 29.5469V28C47.1224 28.1562 47.3333 28.2969 47.5781 28.4219C47.8281 28.5469 48.0885 28.6536 48.3594 28.7422C48.6354 28.8255 48.9115 28.8906 49.1875 28.9375C49.4635 28.9844 49.7188 29.0078 49.9531 29.0078C50.7604 29.0078 51.362 28.8594 51.7578 28.5625C52.1589 28.2604 52.3594 27.8281 52.3594 27.2656C52.3594 26.9635 52.2917 26.7005 52.1562 26.4766C52.026 26.2526 51.8438 26.0495 51.6094 25.8672C51.375 25.6797 51.0964 25.5026 50.7734 25.3359C50.4557 25.1641 50.112 24.9844 49.7422 24.7969C49.3516 24.599 48.987 24.3984 48.6484 24.1953C48.3099 23.9922 48.0156 23.7682 47.7656 23.5234C47.5156 23.2786 47.3177 23.0026 47.1719 22.6953C47.0312 22.3828 46.9609 22.0182 46.9609 21.6016C46.9609 21.0911 47.0729 20.6484 47.2969 20.2734C47.5208 19.8932 47.8151 19.5807 48.1797 19.3359C48.5443 19.0911 48.9583 18.9089 49.4219 18.7891C49.8906 18.6693 50.3672 18.6094 50.8516 18.6094C51.9557 18.6094 52.7604 18.7422 53.2656 19.0078V20.4844C52.6042 20.026 51.7552 19.7969 50.7188 19.7969C50.4323 19.7969 50.1458 19.8281 49.8594 19.8906C49.5729 19.9479 49.3177 20.0443 49.0938 20.1797C48.8698 20.3151 48.6875 20.4896 48.5469 20.7031C48.4062 20.9167 48.3359 21.1771 48.3359 21.4844C48.3359 21.7708 48.388 22.0182 48.4922 22.2266C48.6016 22.4349 48.7604 22.625 48.9688 22.7969C49.1771 22.9688 49.4297 23.1354 49.7266 23.2969C50.0286 23.4583 50.375 23.6354 50.7656 23.8281C51.1667 24.026 51.5469 24.2344 51.9062 24.4531C52.2656 24.6719 52.5807 24.9141 52.8516 25.1797C53.1224 25.4453 53.3359 25.7396 53.4922 26.0625C53.6536 26.3854 53.7344 26.7552 53.7344 27.1719C53.7344 27.724 53.625 28.1927 53.4062 28.5781C53.1927 28.9583 52.901 29.2682 52.5312 29.5078C52.1667 29.7474 51.7448 29.9193 51.2656 30.0234C50.7865 30.1328 50.2812 30.1875 49.75 30.1875C49.5729 30.1875 49.3542 30.1719 49.0938 30.1406C48.8333 30.1146 48.5677 30.0729 48.2969 30.0156C48.026 29.9635 47.7682 29.8984 47.5234 29.8203C47.2839 29.737 47.0911 29.6458 46.9453 29.5469ZM59.1406 30.1875C57.9583 30.1875 57.013 29.8151 56.3047 29.0703C55.6016 28.3203 55.25 27.3281 55.25 26.0938C55.25 24.75 55.6172 23.7005 56.3516 22.9453C57.0859 22.1901 58.0781 21.8125 59.3281 21.8125C60.5208 21.8125 61.4505 22.1797 62.1172 22.9141C62.7891 23.6484 63.125 24.6667 63.125 25.9688C63.125 27.2448 62.763 28.2682 62.0391 29.0391C61.3203 29.8047 60.3542 30.1875 59.1406 30.1875ZM59.2344 22.8906C58.4115 22.8906 57.7604 23.1719 57.2812 23.7344C56.8021 24.2917 56.5625 25.0625 56.5625 26.0469C56.5625 26.9948 56.8047 27.7422 57.2891 28.2891C57.7734 28.8359 58.4219 29.1094 59.2344 29.1094C60.0625 29.1094 60.6979 28.8411 61.1406 28.3047C61.5885 27.7682 61.8125 27.0052 61.8125 26.0156C61.8125 25.0156 61.5885 24.2448 61.1406 23.7031C60.6979 23.1615 60.0625 22.8906 59.2344 22.8906ZM70.625 29.6328C70.0104 30.0026 69.2812 30.1875 68.4375 30.1875C67.2969 30.1875 66.375 29.8177 65.6719 29.0781C64.974 28.3333 64.625 27.3698 64.625 26.1875C64.625 24.8698 65.0026 23.8125 65.7578 23.0156C66.513 22.2135 67.5208 21.8125 68.7812 21.8125C69.4844 21.8125 70.1042 21.9427 70.6406 22.2031V23.5156C70.0469 23.099 69.4115 22.8906 68.7344 22.8906C67.9167 22.8906 67.2448 23.1849 66.7188 23.7734C66.1979 24.3568 65.9375 25.125 65.9375 26.0781C65.9375 27.0156 66.1823 27.7552 66.6719 28.2969C67.1667 28.8385 67.8281 29.1094 68.6562 29.1094C69.3542 29.1094 70.0104 28.8776 70.625 28.4141V29.6328ZM79.2031 30H77.4062L73.875 26.1562H73.8438V30H72.5625V18.1562H73.8438V25.6641H73.875L77.2344 22H78.9141L75.2031 25.8594L79.2031 30ZM86.9453 26.3203H81.2969C81.3177 27.2109 81.5573 27.8984 82.0156 28.3828C82.474 28.8672 83.1042 29.1094 83.9062 29.1094C84.8073 29.1094 85.6354 28.8125 86.3906 28.2188V29.4219C85.6875 29.9323 84.7578 30.1875 83.6016 30.1875C82.4714 30.1875 81.5833 29.8255 80.9375 29.1016C80.2917 28.3724 79.9688 27.349 79.9688 26.0312C79.9688 24.7865 80.3203 23.7734 81.0234 22.9922C81.7318 22.2057 82.6094 21.8125 83.6562 21.8125C84.7031 21.8125 85.513 22.151 86.0859 22.8281C86.6589 23.5052 86.9453 24.4453 86.9453 25.6484V26.3203ZM85.6328 25.2344C85.6276 24.4948 85.4479 23.9193 85.0938 23.5078C84.7448 23.0964 84.2578 22.8906 83.6328 22.8906C83.0286 22.8906 82.5156 23.1068 82.0938 23.5391C81.6719 23.9714 81.4115 24.5365 81.3125 25.2344H85.6328ZM92.6016 29.9219C92.2995 30.0885 91.901 30.1719 91.4062 30.1719C90.0052 30.1719 89.3047 29.3906 89.3047 27.8281V23.0938H87.9297V22H89.3047V20.0469L90.5859 19.6328V22H92.6016V23.0938H90.5859V27.6016C90.5859 28.138 90.6771 28.5208 90.8594 28.75C91.0417 28.9792 91.3438 29.0938 91.7656 29.0938C92.0885 29.0938 92.3672 29.0052 92.6016 28.8281V29.9219Z" fill="#ADBAC7"/>
<rect x="1" y="1" width="112" height="45" rx="4" stroke="#444C56" stroke-width="2"/>
<defs>
<clipPath id="clip0_28_4933">
<rect width="18" height="18" fill="white" transform="translate(16 14.5)"/>
</clipPath>
</defs>
</svg>
