<svg width="19" height="18" viewBox="0 0 19 18" fill="none" xmlns="http://www.w3.org/2000/svg">
<g clip-path="url(#clip0)">
<path d="M9.94748 0.010498C9.19489 0.0126492 8.44545 0.107872 7.71623 0.293998C4.20623 1.16625 1.42148 4.3455 1.06373 7.9515C0.621231 11.3625 2.34548 14.9152 5.29673 16.677C8.19248 18.4905 12.1165 18.417 14.9522 16.5097C17.5 14.8552 19.0862 11.8387 18.9917 8.796C18.9482 5.784 17.2592 2.859 14.6717 1.311C13.2617 0.441748 11.6035 0.00449805 9.94823 0.011248L9.94748 0.010498ZM9.90023 1.2825C13.609 1.27725 17.242 4.14225 17.6117 7.9755C18.3205 12.2205 14.797 16.5352 10.4957 16.6605C6.40523 17.0685 2.45273 13.6005 2.33573 9.49275C2.03123 6.16725 4.22348 2.8665 7.35923 1.76775C8.16767 1.44598 9.03011 1.28153 9.90023 1.28325V1.2825ZM13.7185 3.7005C11.7032 5.26425 9.77348 6.9315 7.80173 8.54325C8.70398 8.556 9.61073 8.55525 10.5175 8.55075C11.575 6.927 12.6625 5.32575 13.7185 3.7005ZM9.46973 9.441C8.41223 11.0655 7.32473 12.6727 6.26723 14.2965C8.28698 12.7365 10.2085 11.0565 12.1937 9.4545C11.2858 9.44354 10.3778 9.43904 9.46973 9.441Z" fill="black"/>
</g>
<defs>
<clipPath id="clip0">
<rect width="18" height="18" fill="white" transform="translate(0.995483)"/>
</clipPath>
</defs>
</svg>
