<svg width="75" height="28" viewBox="0 0 75 28" fill="none" xmlns="http://www.w3.org/2000/svg">
<g filter="url(#filter0_d)">
<path d="M2.5 5C2.5 2.23858 4.73858 0 7.5 0H67.5C70.2614 0 72.5 2.23858 72.5 5V19C72.5 21.7614 70.2614 24 67.5 24H7.5C4.73858 24 2.5 21.7614 2.5 19V5Z" fill="white"/>
<g clip-path="url(#clip0)">
<path d="M16.452 3.0105C15.6994 3.01265 14.95 3.10787 14.2208 3.294C10.7108 4.16625 7.92601 7.3455 7.56826 10.9515C7.12576 14.3625 8.85001 17.9152 11.8013 19.677C14.697 21.4905 18.621 21.417 21.4568 19.5097C24.0045 17.8552 25.5908 14.8387 25.4963 11.796C25.4528 8.784 23.7638 5.859 21.1763 4.311C19.7663 3.44175 18.108 3.0045 16.4528 3.01125L16.452 3.0105ZM16.4048 4.2825C20.1135 4.27725 23.7465 7.14225 24.1163 10.9755C24.825 15.2205 21.3015 19.5352 17.0003 19.6605C12.9098 20.0685 8.95726 16.6005 8.84026 12.4927C8.53576 9.16725 10.728 5.8665 13.8638 4.76775C14.6722 4.44598 15.5346 4.28153 16.4048 4.28325V4.2825ZM20.223 6.7005C18.2078 8.26425 16.278 9.9315 14.3063 11.5432C15.2085 11.556 16.1153 11.5552 17.022 11.5507C18.0795 9.927 19.167 8.32575 20.223 6.7005ZM15.9743 12.441C14.9168 14.0655 13.8293 15.6727 12.7718 17.2965C14.7915 15.7365 16.713 14.0565 18.6983 12.4545C17.7903 12.4435 16.8823 12.439 15.9743 12.441V12.441Z" fill="black"/>
</g>
<path d="M34.0039 12.1973C33.0391 11.9199 32.3359 11.5801 31.8945 11.1777C31.457 10.7715 31.2383 10.2715 31.2383 9.67773C31.2383 9.00586 31.5059 8.45117 32.041 8.01367C32.5801 7.57227 33.2793 7.35156 34.1387 7.35156C34.7246 7.35156 35.2461 7.46484 35.7031 7.69141C36.1641 7.91797 36.5195 8.23047 36.7695 8.62891C37.0234 9.02734 37.1504 9.46289 37.1504 9.93555H36.0195C36.0195 9.41992 35.8555 9.01562 35.5273 8.72266C35.1992 8.42578 34.7363 8.27734 34.1387 8.27734C33.584 8.27734 33.1504 8.40039 32.8379 8.64648C32.5293 8.88867 32.375 9.22656 32.375 9.66016C32.375 10.0078 32.5215 10.3027 32.8145 10.5449C33.1113 10.7832 33.6133 11.002 34.3203 11.2012C35.0312 11.4004 35.5859 11.6211 35.9844 11.8633C36.3867 12.1016 36.6836 12.3809 36.875 12.7012C37.0703 13.0215 37.168 13.3984 37.168 13.832C37.168 14.5234 36.8984 15.0781 36.3594 15.4961C35.8203 15.9102 35.0996 16.1172 34.1973 16.1172C33.6113 16.1172 33.0645 16.0059 32.5566 15.7832C32.0488 15.5566 31.6562 15.248 31.3789 14.8574C31.1055 14.4668 30.9688 14.0234 30.9688 13.5273H32.0996C32.0996 14.043 32.2891 14.4512 32.668 14.752C33.0508 15.0488 33.5605 15.1973 34.1973 15.1973C34.791 15.1973 35.2461 15.0762 35.5625 14.834C35.8789 14.5918 36.0371 14.2617 36.0371 13.8438C36.0371 13.4258 35.8906 13.1035 35.5977 12.877C35.3047 12.6465 34.7734 12.4199 34.0039 12.1973ZM38.1582 12.7715C38.1582 12.1504 38.2793 11.5918 38.5215 11.0957C38.7676 10.5996 39.1074 10.2168 39.541 9.94727C39.9785 9.67773 40.4766 9.54297 41.0352 9.54297C41.8984 9.54297 42.5957 9.8418 43.127 10.4395C43.6621 11.0371 43.9297 11.832 43.9297 12.8242V12.9004C43.9297 13.5176 43.8105 14.0723 43.5723 14.5645C43.3379 15.0527 43 15.4336 42.5586 15.707C42.1211 15.9805 41.6172 16.1172 41.0469 16.1172C40.1875 16.1172 39.4902 15.8184 38.9551 15.2207C38.4238 14.623 38.1582 13.832 38.1582 12.8477V12.7715ZM39.248 12.9004C39.248 13.6035 39.4102 14.168 39.7344 14.5938C40.0625 15.0195 40.5 15.2324 41.0469 15.2324C41.5977 15.2324 42.0352 15.0176 42.3594 14.5879C42.6836 14.1543 42.8457 13.5488 42.8457 12.7715C42.8457 12.0762 42.6797 11.5137 42.3477 11.084C42.0195 10.6504 41.582 10.4336 41.0352 10.4336C40.5 10.4336 40.0684 10.6465 39.7402 11.0723C39.4121 11.498 39.248 12.1074 39.248 12.9004ZM47.832 15.2324C48.2188 15.2324 48.5566 15.1152 48.8457 14.8809C49.1348 14.6465 49.2949 14.3535 49.3262 14.002H50.3516C50.332 14.3652 50.207 14.7109 49.9766 15.0391C49.7461 15.3672 49.4375 15.6289 49.0508 15.8242C48.668 16.0195 48.2617 16.1172 47.832 16.1172C46.9688 16.1172 46.2812 15.8301 45.7695 15.2559C45.2617 14.6777 45.0078 13.8887 45.0078 12.8887V12.707C45.0078 12.0898 45.1211 11.541 45.3477 11.0605C45.5742 10.5801 45.8984 10.207 46.3203 9.94141C46.7461 9.67578 47.248 9.54297 47.8262 9.54297C48.5371 9.54297 49.127 9.75586 49.5957 10.1816C50.0684 10.6074 50.3203 11.1602 50.3516 11.8398H49.3262C49.2949 11.4297 49.1387 11.0938 48.8574 10.832C48.5801 10.5664 48.2363 10.4336 47.8262 10.4336C47.2754 10.4336 46.8477 10.6328 46.543 11.0312C46.2422 11.4258 46.0918 11.998 46.0918 12.748V12.9531C46.0918 13.6836 46.2422 14.2461 46.543 14.6406C46.8438 15.0352 47.2734 15.2324 47.832 15.2324ZM53.3398 13.0645L52.6602 13.7734V16H51.5762V7H52.6602V12.4434L53.2402 11.7461L55.2148 9.66016H56.5332L54.0664 12.3086L56.8203 16H55.5488L53.3398 13.0645ZM60.166 16.1172C59.3066 16.1172 58.6074 15.8359 58.0684 15.2734C57.5293 14.707 57.2598 13.9512 57.2598 13.0059V12.8066C57.2598 12.1777 57.3789 11.6172 57.6172 11.125C57.8594 10.6289 58.1953 10.2422 58.625 9.96484C59.0586 9.68359 59.5273 9.54297 60.0312 9.54297C60.8555 9.54297 61.4961 9.81445 61.9531 10.3574C62.4102 10.9004 62.6387 11.6777 62.6387 12.6895V13.1406H58.3438C58.3594 13.7656 58.541 14.2715 58.8887 14.6582C59.2402 15.041 59.6855 15.2324 60.2246 15.2324C60.6074 15.2324 60.9316 15.1543 61.1973 14.998C61.4629 14.8418 61.6953 14.6348 61.8945 14.377L62.5566 14.8926C62.0254 15.709 61.2285 16.1172 60.166 16.1172ZM60.0312 10.4336C59.5938 10.4336 59.2266 10.5938 58.9297 10.9141C58.6328 11.2305 58.4492 11.6758 58.3789 12.25H61.5547V12.168C61.5234 11.6172 61.375 11.1914 61.1094 10.8906C60.8438 10.5859 60.4844 10.4336 60.0312 10.4336ZM65.3691 8.125V9.66016H66.5527V10.498H65.3691V14.4297C65.3691 14.6836 65.4219 14.875 65.5273 15.0039C65.6328 15.1289 65.8125 15.1914 66.0664 15.1914C66.1914 15.1914 66.3633 15.168 66.582 15.1211V16C66.2969 16.0781 66.0195 16.1172 65.75 16.1172C65.2656 16.1172 64.9004 15.9707 64.6543 15.6777C64.4082 15.3848 64.2852 14.9688 64.2852 14.4297V10.498H63.1309V9.66016H64.2852V8.125H65.3691Z" fill="black"/>
</g>
<defs>
<filter id="filter0_d" x="0.5" y="0" width="74" height="28" filterUnits="userSpaceOnUse" color-interpolation-filters="sRGB">
<feFlood flood-opacity="0" result="BackgroundImageFix"/>
<feColorMatrix in="SourceAlpha" type="matrix" values="0 0 0 0 0 0 0 0 0 0 0 0 0 0 0 0 0 0 127 0" result="hardAlpha"/>
<feOffset dy="2"/>
<feGaussianBlur stdDeviation="1"/>
<feComposite in2="hardAlpha" operator="out"/>
<feColorMatrix type="matrix" values="0 0 0 0 0 0 0 0 0 0 0 0 0 0 0 0 0 0 0.25 0"/>
<feBlend mode="normal" in2="BackgroundImageFix" result="effect1_dropShadow"/>
<feBlend mode="normal" in="SourceGraphic" in2="effect1_dropShadow" result="shape"/>
</filter>
<clipPath id="clip0">
<rect width="18" height="18" fill="white" transform="translate(7.5 3)"/>
</clipPath>
</defs>
</svg>
