<svg width="93" height="39" viewBox="0 0 93 39" fill="none" xmlns="http://www.w3.org/2000/svg">
<path d="M1 4C1 2.34315 2.34315 1 4 1H89C90.6569 1 92 2.34315 92 4V35C92 36.6569 90.6569 38 89 38H4C2.34315 38 1 36.6569 1 35V4Z" fill="#22272E"/>
<g clip-path="url(#clip0)">
<path d="M19.9533 10.5118C19.2002 10.5139 18.4503 10.6093 17.7207 10.7959C14.2107 11.6689 11.4247 14.8476 11.0675 18.4532C10.6248 21.8636 12.3505 25.4175 15.3003 27.1781C18.1983 28.9916 22.1206 28.9191 24.9567 27.0116C27.506 25.3562 29.0905 22.3412 28.9972 19.2969C28.9539 16.2859 27.263 13.3586 24.6755 11.8117C23.2664 10.9416 21.6087 10.5051 19.9533 10.5112V10.5118ZM19.9032 11.7831C23.6118 11.7769 27.245 14.6451 27.6168 18.4774C28.3261 22.7226 24.8015 27.0381 20.5006 27.1641C16.4107 27.5713 12.4552 24.1024 12.3382 19.995C12.0339 16.6701 14.2282 13.3682 17.3624 12.2691C18.1705 11.9472 19.0328 11.7832 19.9027 11.7859L19.9032 11.7831ZM23.7237 14.2035C21.7077 15.7672 19.7772 17.4345 17.8057 19.0461C18.7079 19.0573 19.6164 19.0573 20.5214 19.0511C21.5789 17.4283 22.6662 15.8263 23.7237 14.2029V14.2035ZM19.4757 19.9427C18.4182 21.5689 17.3287 23.1737 16.27 24.7999C18.2922 23.2384 20.2137 21.5599 22.1971 19.9573C21.2898 19.947 20.3825 19.9423 19.4752 19.9432L19.4757 19.9427Z" fill="#C9D1D9"/>
</g>
<path d="M41.8271 24.6035V23.25C41.9821 23.3867 42.1667 23.5098 42.3809 23.6191C42.5996 23.7285 42.8275 23.8219 43.0645 23.8994C43.306 23.9723 43.5475 24.0293 43.7891 24.0703C44.0306 24.1113 44.2539 24.1318 44.459 24.1318C45.1654 24.1318 45.6917 24.002 46.0381 23.7422C46.389 23.4779 46.5645 23.0996 46.5645 22.6074C46.5645 22.3431 46.5052 22.113 46.3867 21.917C46.2728 21.721 46.1133 21.5433 45.9082 21.3838C45.7031 21.2197 45.4593 21.0648 45.1768 20.9189C44.8988 20.7686 44.598 20.6113 44.2744 20.4473C43.9326 20.2741 43.6136 20.0986 43.3174 19.9209C43.0212 19.7432 42.7637 19.5472 42.5449 19.333C42.3262 19.1188 42.153 18.8773 42.0254 18.6084C41.9023 18.335 41.8408 18.016 41.8408 17.6514C41.8408 17.2048 41.9388 16.8174 42.1348 16.4893C42.3307 16.1566 42.5882 15.8831 42.9072 15.6689C43.2262 15.4548 43.5885 15.2952 43.9941 15.1904C44.4043 15.0856 44.8213 15.0332 45.2451 15.0332C46.2113 15.0332 46.9154 15.1494 47.3574 15.3818V16.6738C46.7786 16.2728 46.0358 16.0723 45.1289 16.0723C44.8783 16.0723 44.6276 16.0996 44.377 16.1543C44.1263 16.2044 43.903 16.2887 43.707 16.4072C43.5111 16.5257 43.3516 16.6784 43.2285 16.8652C43.1055 17.0521 43.0439 17.2799 43.0439 17.5488C43.0439 17.7995 43.0895 18.016 43.1807 18.1982C43.2764 18.3805 43.4154 18.5469 43.5977 18.6973C43.7799 18.8477 44.001 18.9935 44.2607 19.1348C44.5251 19.276 44.8281 19.431 45.1699 19.5996C45.5208 19.7728 45.8535 19.9551 46.168 20.1465C46.4824 20.3379 46.7581 20.5498 46.9951 20.7822C47.2321 21.0146 47.4189 21.2721 47.5557 21.5547C47.6969 21.8372 47.7676 22.1608 47.7676 22.5254C47.7676 23.0085 47.6719 23.4186 47.4805 23.7559C47.2936 24.0885 47.0384 24.3597 46.7148 24.5693C46.3958 24.779 46.0267 24.9294 45.6074 25.0205C45.1882 25.1162 44.7461 25.1641 44.2812 25.1641C44.1263 25.1641 43.9349 25.1504 43.707 25.123C43.4792 25.1003 43.2467 25.0638 43.0098 25.0137C42.7728 24.9681 42.5472 24.9111 42.333 24.8428C42.1234 24.7699 41.9548 24.6901 41.8271 24.6035ZM52.498 25.1641C51.4635 25.1641 50.6364 24.8382 50.0166 24.1865C49.4014 23.5303 49.0938 22.6621 49.0938 21.582C49.0938 20.4062 49.415 19.488 50.0576 18.8271C50.7002 18.1663 51.5684 17.8359 52.6621 17.8359C53.7057 17.8359 54.5192 18.1572 55.1025 18.7998C55.6904 19.4424 55.9844 20.3333 55.9844 21.4727C55.9844 22.5892 55.6676 23.4847 55.0342 24.1592C54.4053 24.8291 53.5599 25.1641 52.498 25.1641ZM52.5801 18.7793C51.86 18.7793 51.2904 19.0254 50.8711 19.5176C50.4518 20.0052 50.2422 20.6797 50.2422 21.541C50.2422 22.3704 50.4541 23.0244 50.8779 23.5029C51.3018 23.9814 51.8691 24.2207 52.5801 24.2207C53.3047 24.2207 53.8607 23.986 54.248 23.5166C54.64 23.0472 54.8359 22.3796 54.8359 21.5137C54.8359 20.6387 54.64 19.9642 54.248 19.4902C53.8607 19.0163 53.3047 18.7793 52.5801 18.7793ZM62.5469 24.6787C62.0091 25.0023 61.3711 25.1641 60.6328 25.1641C59.6348 25.1641 58.8281 24.8405 58.2129 24.1934C57.6022 23.5417 57.2969 22.6986 57.2969 21.6641C57.2969 20.5111 57.6273 19.5859 58.2881 18.8887C58.9489 18.1868 59.8307 17.8359 60.9336 17.8359C61.5488 17.8359 62.0911 17.9499 62.5605 18.1777V19.3262C62.041 18.9616 61.485 18.7793 60.8926 18.7793C60.1771 18.7793 59.5892 19.0368 59.1289 19.5518C58.6732 20.0622 58.4453 20.7344 58.4453 21.5684C58.4453 22.3887 58.6595 23.0358 59.0879 23.5098C59.5208 23.9837 60.0996 24.2207 60.8242 24.2207C61.4349 24.2207 62.0091 24.0179 62.5469 23.6123V24.6787ZM70.0527 25H68.4805L65.3906 21.6367H65.3633V25H64.2422V14.6367H65.3633V21.2061H65.3906L68.3301 18H69.7998L66.5527 21.377L70.0527 25ZM76.54 21.7803H71.5977C71.6159 22.5596 71.8255 23.1611 72.2266 23.585C72.6276 24.0088 73.179 24.2207 73.8809 24.2207C74.6693 24.2207 75.3939 23.9609 76.0547 23.4414V24.4941C75.4395 24.9408 74.626 25.1641 73.6143 25.1641C72.6253 25.1641 71.8483 24.8473 71.2832 24.2139C70.7181 23.5758 70.4355 22.6803 70.4355 21.5273C70.4355 20.4382 70.7432 19.5518 71.3584 18.8682C71.9782 18.18 72.7461 17.8359 73.6621 17.8359C74.5781 17.8359 75.2868 18.1322 75.7881 18.7246C76.2894 19.3171 76.54 20.1396 76.54 21.1924V21.7803ZM75.3916 20.8301C75.387 20.1829 75.2298 19.6794 74.9199 19.3193C74.6146 18.9593 74.1885 18.7793 73.6416 18.7793C73.113 18.7793 72.6641 18.9684 72.2949 19.3467C71.9258 19.7249 71.6979 20.2194 71.6113 20.8301H75.3916ZM81.4893 24.9316C81.2249 25.0775 80.8763 25.1504 80.4434 25.1504C79.2174 25.1504 78.6045 24.4668 78.6045 23.0996V18.957H77.4014V18H78.6045V16.291L79.7256 15.9287V18H81.4893V18.957H79.7256V22.9014C79.7256 23.3708 79.8053 23.7057 79.9648 23.9062C80.1243 24.1068 80.3887 24.207 80.7578 24.207C81.0404 24.207 81.2842 24.1296 81.4893 23.9746V24.9316Z" fill="#C9D1D9"/>
<path d="M4 2H89V0H4V2ZM91 4V35H93V4H91ZM89 37H4V39H89V37ZM2 35V4H0V35H2ZM4 37C2.89543 37 2 36.1046 2 35H0C0 37.2091 1.79086 39 4 39V37ZM91 35C91 36.1046 90.1046 37 89 37V39C91.2091 39 93 37.2091 93 35H91ZM89 2C90.1046 2 91 2.89543 91 4H93C93 1.79086 91.2091 0 89 0V2ZM4 0C1.79086 0 0 1.79086 0 4H2C2 2.89543 2.89543 2 4 2V0Z" fill="#C9D1D9"/>
<defs>
<clipPath id="clip0">
<rect width="18" height="18" fill="white" transform="translate(11 10.5)"/>
</clipPath>
</defs>
</svg>
