<svg width="82" height="34" viewBox="0 0 82 34" fill="none" xmlns="http://www.w3.org/2000/svg">
<path d="M1.5 4C1.5 2.34315 2.84315 1 4.5 1H77.5C79.1569 1 80.5 2.34315 80.5 4V30C80.5 31.6569 79.1569 33 77.5 33H4.5C2.84314 33 1.5 31.6569 1.5 30V4Z" fill="#C9D1D9"/>
<g clip-path="url(#clip0)">
<path d="M18.452 8.0105C17.6994 8.01265 16.95 8.10787 16.2208 8.294C12.7108 9.16625 9.92601 12.3455 9.56826 15.9515C9.12576 19.3625 10.85 22.9152 13.8013 24.677C16.697 26.4905 20.621 26.417 23.4568 24.5097C26.0045 22.8552 27.5908 19.8387 27.4963 16.796C27.4528 13.784 25.7638 10.859 23.1763 9.311C21.7663 8.44175 20.108 8.0045 18.4528 8.01125L18.452 8.0105ZM18.4048 9.2825C22.1135 9.27725 25.7465 12.1422 26.1163 15.9755C26.825 20.2205 23.3015 24.5352 19.0003 24.6605C14.9098 25.0685 10.9573 21.6005 10.8403 17.4927C10.5358 14.1672 12.728 10.8665 15.8638 9.76775C16.6722 9.44598 17.5346 9.28153 18.4048 9.28325V9.2825ZM22.223 11.7005C20.2078 13.2642 18.278 14.9315 16.3063 16.5432C17.2085 16.556 18.1153 16.5552 19.022 16.5507C20.0795 14.927 21.167 13.3257 22.223 11.7005ZM17.9743 17.441C16.9168 19.0655 15.8293 20.6727 14.7718 22.2965C16.7915 20.7365 18.713 19.0565 20.6983 17.4545C19.7903 17.4435 18.8823 17.439 17.9743 17.441Z" fill="black"/>
</g>
<path d="M39.0039 17.1973C38.0391 16.9199 37.3359 16.5801 36.8945 16.1777C36.457 15.7715 36.2383 15.2715 36.2383 14.6777C36.2383 14.0059 36.5059 13.4512 37.041 13.0137C37.5801 12.5723 38.2793 12.3516 39.1387 12.3516C39.7246 12.3516 40.2461 12.4648 40.7031 12.6914C41.1641 12.918 41.5195 13.2305 41.7695 13.6289C42.0234 14.0273 42.1504 14.4629 42.1504 14.9355H41.0195C41.0195 14.4199 40.8555 14.0156 40.5273 13.7227C40.1992 13.4258 39.7363 13.2773 39.1387 13.2773C38.584 13.2773 38.1504 13.4004 37.8379 13.6465C37.5293 13.8887 37.375 14.2266 37.375 14.6602C37.375 15.0078 37.5215 15.3027 37.8145 15.5449C38.1113 15.7832 38.6133 16.002 39.3203 16.2012C40.0312 16.4004 40.5859 16.6211 40.9844 16.8633C41.3867 17.1016 41.6836 17.3809 41.875 17.7012C42.0703 18.0215 42.168 18.3984 42.168 18.832C42.168 19.5234 41.8984 20.0781 41.3594 20.4961C40.8203 20.9102 40.0996 21.1172 39.1973 21.1172C38.6113 21.1172 38.0645 21.0059 37.5566 20.7832C37.0488 20.5566 36.6562 20.248 36.3789 19.8574C36.1055 19.4668 35.9688 19.0234 35.9688 18.5273H37.0996C37.0996 19.043 37.2891 19.4512 37.668 19.752C38.0508 20.0488 38.5605 20.1973 39.1973 20.1973C39.791 20.1973 40.2461 20.0762 40.5625 19.834C40.8789 19.5918 41.0371 19.2617 41.0371 18.8438C41.0371 18.4258 40.8906 18.1035 40.5977 17.877C40.3047 17.6465 39.7734 17.4199 39.0039 17.1973ZM43.1582 17.7715C43.1582 17.1504 43.2793 16.5918 43.5215 16.0957C43.7676 15.5996 44.1074 15.2168 44.541 14.9473C44.9785 14.6777 45.4766 14.543 46.0352 14.543C46.8984 14.543 47.5957 14.8418 48.127 15.4395C48.6621 16.0371 48.9297 16.832 48.9297 17.8242V17.9004C48.9297 18.5176 48.8105 19.0723 48.5723 19.5645C48.3379 20.0527 48 20.4336 47.5586 20.707C47.1211 20.9805 46.6172 21.1172 46.0469 21.1172C45.1875 21.1172 44.4902 20.8184 43.9551 20.2207C43.4238 19.623 43.1582 18.832 43.1582 17.8477V17.7715ZM44.248 17.9004C44.248 18.6035 44.4102 19.168 44.7344 19.5938C45.0625 20.0195 45.5 20.2324 46.0469 20.2324C46.5977 20.2324 47.0352 20.0176 47.3594 19.5879C47.6836 19.1543 47.8457 18.5488 47.8457 17.7715C47.8457 17.0762 47.6797 16.5137 47.3477 16.084C47.0195 15.6504 46.582 15.4336 46.0352 15.4336C45.5 15.4336 45.0684 15.6465 44.7402 16.0723C44.4121 16.498 44.248 17.1074 44.248 17.9004ZM52.832 20.2324C53.2188 20.2324 53.5566 20.1152 53.8457 19.8809C54.1348 19.6465 54.2949 19.3535 54.3262 19.002H55.3516C55.332 19.3652 55.207 19.7109 54.9766 20.0391C54.7461 20.3672 54.4375 20.6289 54.0508 20.8242C53.668 21.0195 53.2617 21.1172 52.832 21.1172C51.9688 21.1172 51.2812 20.8301 50.7695 20.2559C50.2617 19.6777 50.0078 18.8887 50.0078 17.8887V17.707C50.0078 17.0898 50.1211 16.541 50.3477 16.0605C50.5742 15.5801 50.8984 15.207 51.3203 14.9414C51.7461 14.6758 52.248 14.543 52.8262 14.543C53.5371 14.543 54.127 14.7559 54.5957 15.1816C55.0684 15.6074 55.3203 16.1602 55.3516 16.8398H54.3262C54.2949 16.4297 54.1387 16.0938 53.8574 15.832C53.5801 15.5664 53.2363 15.4336 52.8262 15.4336C52.2754 15.4336 51.8477 15.6328 51.543 16.0312C51.2422 16.4258 51.0918 16.998 51.0918 17.748V17.9531C51.0918 18.6836 51.2422 19.2461 51.543 19.6406C51.8438 20.0352 52.2734 20.2324 52.832 20.2324ZM58.3398 18.0645L57.6602 18.7734V21H56.5762V12H57.6602V17.4434L58.2402 16.7461L60.2148 14.6602H61.5332L59.0664 17.3086L61.8203 21H60.5488L58.3398 18.0645ZM65.166 21.1172C64.3066 21.1172 63.6074 20.8359 63.0684 20.2734C62.5293 19.707 62.2598 18.9512 62.2598 18.0059V17.8066C62.2598 17.1777 62.3789 16.6172 62.6172 16.125C62.8594 15.6289 63.1953 15.2422 63.625 14.9648C64.0586 14.6836 64.5273 14.543 65.0312 14.543C65.8555 14.543 66.4961 14.8145 66.9531 15.3574C67.4102 15.9004 67.6387 16.6777 67.6387 17.6895V18.1406H63.3438C63.3594 18.7656 63.541 19.2715 63.8887 19.6582C64.2402 20.041 64.6855 20.2324 65.2246 20.2324C65.6074 20.2324 65.9316 20.1543 66.1973 19.998C66.4629 19.8418 66.6953 19.6348 66.8945 19.377L67.5566 19.8926C67.0254 20.709 66.2285 21.1172 65.166 21.1172ZM65.0312 15.4336C64.5938 15.4336 64.2266 15.5938 63.9297 15.9141C63.6328 16.2305 63.4492 16.6758 63.3789 17.25H66.5547V17.168C66.5234 16.6172 66.375 16.1914 66.1094 15.8906C65.8438 15.5859 65.4844 15.4336 65.0312 15.4336ZM70.3691 13.125V14.6602H71.5527V15.498H70.3691V19.4297C70.3691 19.6836 70.4219 19.875 70.5273 20.0039C70.6328 20.1289 70.8125 20.1914 71.0664 20.1914C71.1914 20.1914 71.3633 20.168 71.582 20.1211V21C71.2969 21.0781 71.0195 21.1172 70.75 21.1172C70.2656 21.1172 69.9004 20.9707 69.6543 20.6777C69.4082 20.3848 69.2852 19.9688 69.2852 19.4297V15.498H68.1309V14.6602H69.2852V13.125H70.3691Z" fill="#22272E"/>
<path d="M4.5 2H77.5V0H4.5V2ZM79.5 4V30H81.5V4H79.5ZM77.5 32H4.5V34H77.5V32ZM2.5 30V4H0.5V30H2.5ZM4.5 32C3.39543 32 2.5 31.1046 2.5 30H0.5C0.5 32.2091 2.29086 34 4.5 34V32ZM79.5 30C79.5 31.1046 78.6046 32 77.5 32V34C79.7091 34 81.5 32.2091 81.5 30H79.5ZM77.5 2C78.6046 2 79.5 2.89543 79.5 4H81.5C81.5 1.79086 79.7091 0 77.5 0V2ZM4.5 0C2.29086 0 0.5 1.79086 0.5 4H2.5C2.5 2.89543 3.39543 2 4.5 2V0Z" fill="#30363D"/>
<defs>
<clipPath id="clip0">
<rect width="18" height="18" fill="white" transform="translate(9.5 8)"/>
</clipPath>
</defs>
</svg>
