<svg width="153" height="47" viewBox="0 0 153 47" fill="none" xmlns="http://www.w3.org/2000/svg">
<rect x="1" y="1" width="151" height="45" rx="4" fill="#22272E"/>
<path d="M33.3615 16.4395L29.6586 14.6581C29.4491 14.5566 29.2133 14.5229 28.9838 14.5618C28.7544 14.6006 28.5427 14.7099 28.3783 14.8746L21.2858 21.3462L18.1948 19.0023C18.0556 18.8958 17.8835 18.8417 17.7084 18.8492C17.5334 18.8567 17.3665 18.9254 17.2369 19.0433L16.2469 19.9456C16.1695 20.0155 16.1076 20.1008 16.0652 20.1961C16.0227 20.2914 16.0006 20.3944 16.0004 20.4987C16.0001 20.603 16.0216 20.7062 16.0636 20.8017C16.1056 20.8972 16.1671 20.9828 16.2441 21.0531L18.925 23.4994L16.2441 25.9458C16.1671 26.0161 16.1056 26.1017 16.0636 26.1972C16.0216 26.2927 16.0001 26.3959 16.0004 26.5002C16.0006 26.6045 16.0227 26.7075 16.0652 26.8028C16.1076 26.8981 16.1695 26.9834 16.2469 27.0533L17.2369 27.9556C17.3665 28.0735 17.5334 28.1422 17.7084 28.1497C17.8835 28.1572 18.0556 28.1031 18.1948 27.9966L21.2858 25.6499L28.3817 32.1243C28.5455 32.2889 28.7567 32.3983 28.9857 32.4372C29.2148 32.476 29.4502 32.4423 29.6591 32.3408L33.3655 30.5566C33.5563 30.4649 33.7173 30.321 33.8298 30.1416C33.9423 29.9623 34.0017 29.7547 34.0011 29.5429V17.452C34.0011 17.0211 33.7519 16.6257 33.3626 16.4384L33.3615 16.4395ZM29.5028 27.5871L24.118 23.5L29.5028 19.4129V27.5871Z" fill="#ADBAC7"/>
<path d="M46.9453 29.5469V28C47.1224 28.1562 47.3333 28.2969 47.5781 28.4219C47.8281 28.5469 48.0885 28.6536 48.3594 28.7422C48.6354 28.8255 48.9115 28.8906 49.1875 28.9375C49.4635 28.9844 49.7188 29.0078 49.9531 29.0078C50.7604 29.0078 51.362 28.8594 51.7578 28.5625C52.1589 28.2604 52.3594 27.8281 52.3594 27.2656C52.3594 26.9635 52.2917 26.7005 52.1562 26.4766C52.026 26.2526 51.8438 26.0495 51.6094 25.8672C51.375 25.6797 51.0964 25.5026 50.7734 25.3359C50.4557 25.1641 50.112 24.9844 49.7422 24.7969C49.3516 24.599 48.987 24.3984 48.6484 24.1953C48.3099 23.9922 48.0156 23.7682 47.7656 23.5234C47.5156 23.2786 47.3177 23.0026 47.1719 22.6953C47.0312 22.3828 46.9609 22.0182 46.9609 21.6016C46.9609 21.0911 47.0729 20.6484 47.2969 20.2734C47.5208 19.8932 47.8151 19.5807 48.1797 19.3359C48.5443 19.0911 48.9583 18.9089 49.4219 18.7891C49.8906 18.6693 50.3672 18.6094 50.8516 18.6094C51.9557 18.6094 52.7604 18.7422 53.2656 19.0078V20.4844C52.6042 20.026 51.7552 19.7969 50.7188 19.7969C50.4323 19.7969 50.1458 19.8281 49.8594 19.8906C49.5729 19.9479 49.3177 20.0443 49.0938 20.1797C48.8698 20.3151 48.6875 20.4896 48.5469 20.7031C48.4062 20.9167 48.3359 21.1771 48.3359 21.4844C48.3359 21.7708 48.388 22.0182 48.4922 22.2266C48.6016 22.4349 48.7604 22.625 48.9688 22.7969C49.1771 22.9688 49.4297 23.1354 49.7266 23.2969C50.0286 23.4583 50.375 23.6354 50.7656 23.8281C51.1667 24.026 51.5469 24.2344 51.9062 24.4531C52.2656 24.6719 52.5807 24.9141 52.8516 25.1797C53.1224 25.4453 53.3359 25.7396 53.4922 26.0625C53.6536 26.3854 53.7344 26.7552 53.7344 27.1719C53.7344 27.724 53.625 28.1927 53.4062 28.5781C53.1927 28.9583 52.901 29.2682 52.5312 29.5078C52.1667 29.7474 51.7448 29.9193 51.2656 30.0234C50.7865 30.1328 50.2812 30.1875 49.75 30.1875C49.5729 30.1875 49.3542 30.1719 49.0938 30.1406C48.8333 30.1146 48.5677 30.0729 48.2969 30.0156C48.026 29.9635 47.7682 29.8984 47.5234 29.8203C47.2839 29.737 47.0911 29.6458 46.9453 29.5469ZM58.9922 29.9219C58.6901 30.0885 58.2917 30.1719 57.7969 30.1719C56.3958 30.1719 55.6953 29.3906 55.6953 27.8281V23.0938H54.3203V22H55.6953V20.0469L56.9766 19.6328V22H58.9922V23.0938H56.9766V27.6016C56.9766 28.138 57.0677 28.5208 57.25 28.75C57.4323 28.9792 57.7344 29.0938 58.1562 29.0938C58.4792 29.0938 58.7578 29.0052 58.9922 28.8281V29.9219ZM67.1719 30H65.8906V28.7344H65.8594C65.3281 29.7031 64.5052 30.1875 63.3906 30.1875C61.4844 30.1875 60.5312 29.0521 60.5312 26.7812V22H61.8047V26.5781C61.8047 28.2656 62.4505 29.1094 63.7422 29.1094C64.3672 29.1094 64.8802 28.8802 65.2812 28.4219C65.6875 27.9583 65.8906 27.3542 65.8906 26.6094V22H67.1719V30ZM76.5938 30H75.3125V28.6406H75.2812C74.6875 29.6719 73.7708 30.1875 72.5312 30.1875C71.526 30.1875 70.7214 29.8307 70.1172 29.1172C69.5182 28.3984 69.2188 27.4219 69.2188 26.1875C69.2188 24.8646 69.5521 23.8047 70.2188 23.0078C70.8854 22.2109 71.7734 21.8125 72.8828 21.8125C73.9818 21.8125 74.7812 22.2448 75.2812 23.1094H75.3125V18.1562H76.5938V30ZM75.3125 26.3828V25.2031C75.3125 24.5573 75.099 24.0104 74.6719 23.5625C74.2448 23.1146 73.7031 22.8906 73.0469 22.8906C72.2656 22.8906 71.651 23.1771 71.2031 23.75C70.7552 24.3229 70.5312 25.1146 70.5312 26.125C70.5312 27.0469 70.7448 27.776 71.1719 28.3125C71.6042 28.8438 72.1823 29.1094 72.9062 29.1094C73.6198 29.1094 74.1979 28.8516 74.6406 28.3359C75.0885 27.8203 75.3125 27.1693 75.3125 26.3828ZM79.8438 19.9688C79.6146 19.9688 79.4193 19.8906 79.2578 19.7344C79.0964 19.5781 79.0156 19.3802 79.0156 19.1406C79.0156 18.901 79.0964 18.7031 79.2578 18.5469C79.4193 18.3854 79.6146 18.3047 79.8438 18.3047C80.0781 18.3047 80.276 18.3854 80.4375 18.5469C80.6042 18.7031 80.6875 18.901 80.6875 19.1406C80.6875 19.3698 80.6042 19.5651 80.4375 19.7266C80.276 19.888 80.0781 19.9688 79.8438 19.9688ZM80.4688 30H79.1875V22H80.4688V30ZM86.4062 30.1875C85.224 30.1875 84.2786 29.8151 83.5703 29.0703C82.8672 28.3203 82.5156 27.3281 82.5156 26.0938C82.5156 24.75 82.8828 23.7005 83.6172 22.9453C84.3516 22.1901 85.3438 21.8125 86.5938 21.8125C87.7865 21.8125 88.7161 22.1797 89.3828 22.9141C90.0547 23.6484 90.3906 24.6667 90.3906 25.9688C90.3906 27.2448 90.0286 28.2682 89.3047 29.0391C88.5859 29.8047 87.6198 30.1875 86.4062 30.1875ZM86.5 22.8906C85.6771 22.8906 85.026 23.1719 84.5469 23.7344C84.0677 24.2917 83.8281 25.0625 83.8281 26.0469C83.8281 26.9948 84.0703 27.7422 84.5547 28.2891C85.0391 28.8359 85.6875 29.1094 86.5 29.1094C87.3281 29.1094 87.9635 28.8411 88.4062 28.3047C88.8542 27.7682 89.0781 27.0052 89.0781 26.0156C89.0781 25.0156 88.8542 24.2448 88.4062 23.7031C87.9635 23.1615 87.3281 22.8906 86.5 22.8906ZM104.625 29.5312C103.797 29.9688 102.766 30.1875 101.531 30.1875C99.9375 30.1875 98.6615 29.6745 97.7031 28.6484C96.7448 27.6224 96.2656 26.276 96.2656 24.6094C96.2656 22.8177 96.8047 21.3698 97.8828 20.2656C98.9609 19.1615 100.328 18.6094 101.984 18.6094C103.047 18.6094 103.927 18.763 104.625 19.0703V20.4688C103.823 20.0208 102.938 19.7969 101.969 19.7969C100.682 19.7969 99.638 20.2266 98.8359 21.0859C98.0391 21.9453 97.6406 23.0938 97.6406 24.5312C97.6406 25.8958 98.013 26.9844 98.7578 27.7969C99.5078 28.6042 100.49 29.0078 101.703 29.0078C102.828 29.0078 103.802 28.7578 104.625 28.2578V29.5312ZM110.078 30.1875C108.896 30.1875 107.951 29.8151 107.242 29.0703C106.539 28.3203 106.188 27.3281 106.188 26.0938C106.188 24.75 106.555 23.7005 107.289 22.9453C108.023 22.1901 109.016 21.8125 110.266 21.8125C111.458 21.8125 112.388 22.1797 113.055 22.9141C113.727 23.6484 114.062 24.6667 114.062 25.9688C114.062 27.2448 113.701 28.2682 112.977 29.0391C112.258 29.8047 111.292 30.1875 110.078 30.1875ZM110.172 22.8906C109.349 22.8906 108.698 23.1719 108.219 23.7344C107.74 24.2917 107.5 25.0625 107.5 26.0469C107.5 26.9948 107.742 27.7422 108.227 28.2891C108.711 28.8359 109.359 29.1094 110.172 29.1094C111 29.1094 111.635 28.8411 112.078 28.3047C112.526 27.7682 112.75 27.0052 112.75 26.0156C112.75 25.0156 112.526 24.2448 112.078 23.7031C111.635 23.1615 111 22.8906 110.172 22.8906ZM122.938 30H121.656V28.6406H121.625C121.031 29.6719 120.115 30.1875 118.875 30.1875C117.87 30.1875 117.065 29.8307 116.461 29.1172C115.862 28.3984 115.562 27.4219 115.562 26.1875C115.562 24.8646 115.896 23.8047 116.562 23.0078C117.229 22.2109 118.117 21.8125 119.227 21.8125C120.326 21.8125 121.125 22.2448 121.625 23.1094H121.656V18.1562H122.938V30ZM121.656 26.3828V25.2031C121.656 24.5573 121.443 24.0104 121.016 23.5625C120.589 23.1146 120.047 22.8906 119.391 22.8906C118.609 22.8906 117.995 23.1771 117.547 23.75C117.099 24.3229 116.875 25.1146 116.875 26.125C116.875 27.0469 117.089 27.776 117.516 28.3125C117.948 28.8438 118.526 29.1094 119.25 29.1094C119.964 29.1094 120.542 28.8516 120.984 28.3359C121.432 27.8203 121.656 27.1693 121.656 26.3828ZM131.961 26.3203H126.312C126.333 27.2109 126.573 27.8984 127.031 28.3828C127.49 28.8672 128.12 29.1094 128.922 29.1094C129.823 29.1094 130.651 28.8125 131.406 28.2188V29.4219C130.703 29.9323 129.773 30.1875 128.617 30.1875C127.487 30.1875 126.599 29.8255 125.953 29.1016C125.307 28.3724 124.984 27.349 124.984 26.0312C124.984 24.7865 125.336 23.7734 126.039 22.9922C126.747 22.2057 127.625 21.8125 128.672 21.8125C129.719 21.8125 130.529 22.151 131.102 22.8281C131.674 23.5052 131.961 24.4453 131.961 25.6484V26.3203ZM130.648 25.2344C130.643 24.4948 130.464 23.9193 130.109 23.5078C129.76 23.0964 129.273 22.8906 128.648 22.8906C128.044 22.8906 127.531 23.1068 127.109 23.5391C126.688 23.9714 126.427 24.5365 126.328 25.2344H130.648Z" fill="#ADBAC7"/>
<rect x="1" y="1" width="151" height="45" rx="4" stroke="#444C56" stroke-width="2"/>
</svg>
