<svg xmlns="http://www.w3.org/2000/svg" width="172" height="56" fill="none"><rect width="154" height="48" x="9" y="4" fill="#F3E5F5" rx="4"/><g clip-path="url(#a)"><path fill="#E55B2D" d="M41.553 19.684v3.685l6.382 3.685V23.37l-6.382-3.684ZM28.788 23.37v3.685l3.191 1.842v-3.684l-3.19-1.843Zm9.573 1.843-3.19 1.842v11.054l3.19 1.843v-7.37l3.192 1.843v-3.685l-3.192-1.843v-3.684Z"/><path fill="#ED8E24" d="m41.553 19.684-9.574 5.528v3.684l6.382-3.684v3.684l3.192-1.842v-7.37Zm9.573 1.843-3.191 1.842v3.685l3.19-1.842v-3.685Zm-6.383 7.37-3.19 1.842v3.685l3.19-1.843v-3.685Zm-3.19 5.527L38.36 32.58v7.37l3.192-1.843v-3.684Z"/><path fill="#F8BF3C" d="m41.553 16-12.765 7.37 3.191 1.842 9.574-5.527 6.382 3.684 3.19-1.842L41.554 16Zm0 11.054-3.192 1.842 3.192 1.843 3.19-1.843-3.19-1.841Z"/></g><path fill="#000" d="M76.094 24.484h-3.235V34.5h-1.312V24.484H68.32v-1.187h7.774v1.187Zm6.46 6.336h-5.648c.021.89.26 1.578.719 2.063.458.484 1.088.726 1.89.726.902 0 1.73-.297 2.485-.89v1.203c-.703.51-1.633.766-2.79.766-1.13 0-2.017-.363-2.663-1.086-.646-.73-.969-1.753-.969-3.07 0-1.245.352-2.259 1.055-3.04.708-.786 1.586-1.18 2.633-1.18 1.046 0 1.856.339 2.43 1.016.572.677.859 1.617.859 2.82v.672Zm-1.312-1.086c-.005-.74-.185-1.315-.539-1.726-.349-.412-.836-.617-1.46-.617a2.07 2.07 0 0 0-1.54.648c-.422.432-.682.997-.781 1.695h4.32Zm9.899 4.766h-1.282v-4.563c0-1.697-.62-2.546-1.859-2.546-.64 0-1.172.242-1.594.726-.416.48-.625 1.086-.625 1.82V34.5H84.5v-8h1.281v1.328h.031c.605-1.01 1.48-1.515 2.626-1.515.874 0 1.544.283 2.007.851.464.563.696 1.378.696 2.445V34.5Zm1.937-.29v-1.374a3.791 3.791 0 0 0 2.305.773c1.125 0 1.687-.375 1.687-1.125a.938.938 0 0 0-.148-.539 1.352 1.352 0 0 0-.39-.398 2.726 2.726 0 0 0-.579-.305c-.219-.094-.456-.19-.71-.289a10.24 10.24 0 0 1-.938-.422 3.094 3.094 0 0 1-.672-.484 1.924 1.924 0 0 1-.406-.617 2.226 2.226 0 0 1-.133-.805c0-.375.086-.706.258-.992.171-.292.4-.534.687-.727.287-.198.612-.346.977-.445.37-.099.75-.148 1.14-.148.693 0 1.313.12 1.86.359v1.297c-.589-.386-1.266-.578-2.032-.578-.24 0-.455.028-.648.086-.193.052-.36.127-.5.226a1.11 1.11 0 0 0-.32.36.94.94 0 0 0-.11.453c0 .208.037.382.11.523.078.14.19.266.336.375.145.11.322.208.53.297.21.088.446.185.712.289.354.135.672.276.953.422.281.14.52.302.719.484.197.177.349.383.453.617.11.235.164.513.164.836 0 .396-.089.74-.266 1.032a2.205 2.205 0 0 1-.695.726 3.204 3.204 0 0 1-1.008.43c-.38.094-.779.14-1.195.14-.823 0-1.537-.158-2.14-.476Zm10.625.477c-1.182 0-2.127-.372-2.836-1.117-.703-.75-1.055-1.742-1.055-2.976 0-1.344.368-2.393 1.102-3.149.734-.755 1.727-1.133 2.977-1.133 1.192 0 2.122.368 2.789 1.102.672.734 1.008 1.753 1.008 3.055 0 1.276-.362 2.3-1.086 3.07-.719.766-1.685 1.148-2.899 1.148Zm.094-7.296c-.823 0-1.474.28-1.953.843-.479.558-.719 1.328-.719 2.313 0 .948.242 1.695.727 2.242.484.547 1.132.82 1.945.82.828 0 1.463-.268 1.906-.804.448-.537.672-1.3.672-2.29 0-1-.224-1.77-.672-2.312-.443-.541-1.078-.812-1.906-.812Zm10.109.406c-.224-.172-.547-.258-.968-.258-.547 0-1.006.258-1.376.773-.364.516-.546 1.22-.546 2.11V34.5h-1.282v-8h1.282v1.648h.031c.182-.562.461-1 .836-1.312a1.897 1.897 0 0 1 1.258-.477c.333 0 .588.037.765.11v1.328Zm5.344-4.016c-.25-.14-.534-.21-.852-.21-.895 0-1.343.564-1.343 1.695V26.5h1.875v1.094h-1.875V34.5h-1.274v-6.906h-1.367V26.5h1.367v-1.297c0-.838.242-1.5.727-1.984.484-.49 1.088-.735 1.812-.735.391 0 .701.047.93.141v1.156Zm2.344 10.719h-1.282V22.656h1.282V34.5Zm5.937.188c-1.182 0-2.127-.373-2.836-1.118-.703-.75-1.054-1.742-1.054-2.976 0-1.344.367-2.393 1.101-3.149.735-.755 1.727-1.133 2.977-1.133 1.192 0 2.122.368 2.789 1.102.672.734 1.008 1.753 1.008 3.055 0 1.276-.362 2.3-1.086 3.07-.719.766-1.685 1.148-2.899 1.148Zm.094-7.297c-.823 0-1.474.28-1.953.843-.479.558-.719 1.328-.719 2.313 0 .948.242 1.695.727 2.242.484.547 1.132.82 1.945.82.828 0 1.464-.268 1.906-.804.448-.537.672-1.3.672-2.29 0-1-.224-1.77-.672-2.312-.442-.541-1.078-.812-1.906-.812Zm16.016-.891-2.399 8h-1.328l-1.648-5.727a3.637 3.637 0 0 1-.125-.742h-.032c-.015.188-.07.43-.164.727l-1.789 5.742h-1.281l-2.422-8h1.344l1.656 6.016c.052.182.089.422.109.718h.063c.016-.229.063-.474.141-.734l1.843-6h1.172l1.657 6.031c.052.193.091.433.117.719h.062c.011-.203.055-.443.133-.719l1.625-6.031h1.266Z"/><rect width="154" height="48" x="9" y="4" stroke="#9C27B0" stroke-width="2" rx="4"/><defs><clipPath id="a"><path fill="#fff" d="M28.787 16h22.427v24H28.787z"/></clipPath></defs></svg>