<svg width="142" height="47" viewBox="0 0 142 47" fill="none" xmlns="http://www.w3.org/2000/svg">
<rect x="1" y="1" width="140" height="45" rx="4" fill="#22272E"/>
<g clip-path="url(#clip0_28_4968)">
<path d="M30.7009 23.5L30.774 27.0246L28.4509 25.6741V30.7017L25.3746 32.5006V14.5006L33.024 18.9246V22.9004L28.4509 20.2021V22.2265L30.7009 23.5ZM16.9753 18.9241L24.6248 14.5V32.5L21.5485 30.7011V20.2009L16.9753 22.8993V18.9241Z" fill="#ADBAC7"/>
</g>
<path d="M54.0938 19.9844H50.8594V30H49.5469V19.9844H46.3203V18.7969H54.0938V19.9844ZM60.5547 26.3203H54.9062C54.9271 27.2109 55.1667 27.8984 55.625 28.3828C56.0833 28.8672 56.7135 29.1094 57.5156 29.1094C58.4167 29.1094 59.2448 28.8125 60 28.2188V29.4219C59.2969 29.9323 58.3672 30.1875 57.2109 30.1875C56.0807 30.1875 55.1927 29.8255 54.5469 29.1016C53.901 28.3724 53.5781 27.349 53.5781 26.0312C53.5781 24.7865 53.9297 23.7734 54.6328 22.9922C55.3411 22.2057 56.2188 21.8125 57.2656 21.8125C58.3125 21.8125 59.1224 22.151 59.6953 22.8281C60.2682 23.5052 60.5547 24.4453 60.5547 25.6484V26.3203ZM59.2422 25.2344C59.237 24.4948 59.0573 23.9193 58.7031 23.5078C58.3542 23.0964 57.8672 22.8906 57.2422 22.8906C56.638 22.8906 56.125 23.1068 55.7031 23.5391C55.2812 23.9714 55.0208 24.5365 54.9219 25.2344H59.2422ZM69.1406 30H67.8594V25.4375C67.8594 23.7396 67.2396 22.8906 66 22.8906C65.3594 22.8906 64.8281 23.1328 64.4062 23.6172C63.9896 24.0964 63.7812 24.7031 63.7812 25.4375V30H62.5V22H63.7812V23.3281H63.8125C64.4167 22.3177 65.2917 21.8125 66.4375 21.8125C67.3125 21.8125 67.9818 22.0964 68.4453 22.6641C68.9089 23.2266 69.1406 24.0417 69.1406 25.1094V30ZM71.0781 29.7109V28.3359C71.776 28.8516 72.5443 29.1094 73.3828 29.1094C74.5078 29.1094 75.0703 28.7344 75.0703 27.9844C75.0703 27.7708 75.0208 27.5911 74.9219 27.4453C74.8281 27.2943 74.6979 27.1615 74.5312 27.0469C74.3698 26.9323 74.1771 26.8307 73.9531 26.7422C73.7344 26.6484 73.4974 26.5521 73.2422 26.4531C72.888 26.3125 72.5755 26.1719 72.3047 26.0312C72.0391 25.8854 71.8151 25.724 71.6328 25.5469C71.4557 25.3646 71.3203 25.1589 71.2266 24.9297C71.138 24.7005 71.0938 24.4323 71.0938 24.125C71.0938 23.75 71.1797 23.4193 71.3516 23.1328C71.5234 22.8411 71.7526 22.599 72.0391 22.4062C72.3255 22.2083 72.651 22.0599 73.0156 21.9609C73.3854 21.862 73.7656 21.8125 74.1562 21.8125C74.849 21.8125 75.4688 21.9323 76.0156 22.1719V23.4688C75.4271 23.0833 74.75 22.8906 73.9844 22.8906C73.7448 22.8906 73.5286 22.9193 73.3359 22.9766C73.1432 23.0286 72.9766 23.1042 72.8359 23.2031C72.7005 23.3021 72.5938 23.4219 72.5156 23.5625C72.4427 23.6979 72.4062 23.849 72.4062 24.0156C72.4062 24.224 72.4427 24.3984 72.5156 24.5391C72.5938 24.6797 72.7057 24.8047 72.8516 24.9141C72.9974 25.0234 73.1745 25.1224 73.3828 25.2109C73.5911 25.2995 73.8281 25.3958 74.0938 25.5C74.4479 25.6354 74.7656 25.776 75.0469 25.9219C75.3281 26.0625 75.5677 26.224 75.7656 26.4062C75.9635 26.5833 76.1146 26.7891 76.2188 27.0234C76.3281 27.2578 76.3828 27.5365 76.3828 27.8594C76.3828 28.2552 76.2943 28.599 76.1172 28.8906C75.9453 29.1823 75.7135 29.4245 75.4219 29.6172C75.1302 29.8099 74.7943 29.9531 74.4141 30.0469C74.0339 30.1406 73.6354 30.1875 73.2188 30.1875C72.3958 30.1875 71.6823 30.0286 71.0781 29.7109ZM81.7031 30.1875C80.5208 30.1875 79.5755 29.8151 78.8672 29.0703C78.1641 28.3203 77.8125 27.3281 77.8125 26.0938C77.8125 24.75 78.1797 23.7005 78.9141 22.9453C79.6484 22.1901 80.6406 21.8125 81.8906 21.8125C83.0833 21.8125 84.013 22.1797 84.6797 22.9141C85.3516 23.6484 85.6875 24.6667 85.6875 25.9688C85.6875 27.2448 85.3255 28.2682 84.6016 29.0391C83.8828 29.8047 82.9167 30.1875 81.7031 30.1875ZM81.7969 22.8906C80.974 22.8906 80.3229 23.1719 79.8438 23.7344C79.3646 24.2917 79.125 25.0625 79.125 26.0469C79.125 26.9948 79.3672 27.7422 79.8516 28.2891C80.3359 28.8359 80.9844 29.1094 81.7969 29.1094C82.625 29.1094 83.2604 28.8411 83.7031 28.3047C84.151 27.7682 84.375 27.0052 84.375 26.0156C84.375 25.0156 84.151 24.2448 83.7031 23.7031C83.2604 23.1615 82.625 22.8906 81.7969 22.8906ZM91.9062 23.2969C91.6823 23.125 91.3594 23.0391 90.9375 23.0391C90.3906 23.0391 89.9323 23.2969 89.5625 23.8125C89.1979 24.3281 89.0156 25.0312 89.0156 25.9219V30H87.7344V22H89.0156V23.6484H89.0469C89.2292 23.0859 89.5078 22.6484 89.8828 22.3359C90.2578 22.0182 90.6771 21.8594 91.1406 21.8594C91.474 21.8594 91.7292 21.8958 91.9062 21.9688V23.2969ZM97.25 19.2812C97 19.1406 96.7161 19.0703 96.3984 19.0703C95.5026 19.0703 95.0547 19.6354 95.0547 20.7656V22H96.9297V23.0938H95.0547V30H93.7812V23.0938H92.4141V22H93.7812V20.7031C93.7812 19.8646 94.0234 19.2031 94.5078 18.7188C94.9922 18.2292 95.5964 17.9844 96.3203 17.9844C96.7109 17.9844 97.0208 18.0312 97.25 18.125V19.2812ZM99.5938 30H98.3125V18.1562H99.5938V30ZM105.531 30.1875C104.349 30.1875 103.404 29.8151 102.695 29.0703C101.992 28.3203 101.641 27.3281 101.641 26.0938C101.641 24.75 102.008 23.7005 102.742 22.9453C103.477 22.1901 104.469 21.8125 105.719 21.8125C106.911 21.8125 107.841 22.1797 108.508 22.9141C109.18 23.6484 109.516 24.6667 109.516 25.9688C109.516 27.2448 109.154 28.2682 108.43 29.0391C107.711 29.8047 106.745 30.1875 105.531 30.1875ZM105.625 22.8906C104.802 22.8906 104.151 23.1719 103.672 23.7344C103.193 24.2917 102.953 25.0625 102.953 26.0469C102.953 26.9948 103.195 27.7422 103.68 28.2891C104.164 28.8359 104.812 29.1094 105.625 29.1094C106.453 29.1094 107.089 28.8411 107.531 28.3047C107.979 27.7682 108.203 27.0052 108.203 26.0156C108.203 25.0156 107.979 24.2448 107.531 23.7031C107.089 23.1615 106.453 22.8906 105.625 22.8906ZM121.641 22L119.242 30H117.914L116.266 24.2734C116.203 24.0547 116.161 23.8073 116.141 23.5312H116.109C116.094 23.7188 116.039 23.9609 115.945 24.2578L114.156 30H112.875L110.453 22H111.797L113.453 28.0156C113.505 28.1979 113.542 28.4375 113.562 28.7344H113.625C113.641 28.5052 113.688 28.2604 113.766 28L115.609 22H116.781L118.438 28.0312C118.49 28.224 118.529 28.4635 118.555 28.75H118.617C118.628 28.5469 118.672 28.3073 118.75 28.0312L120.375 22H121.641Z" fill="#ADBAC7"/>
<rect x="1" y="1" width="140" height="45" rx="4" stroke="#444C56" stroke-width="2"/>
<defs>
<clipPath id="clip0_28_4968">
<rect width="18" height="18" fill="white" transform="translate(16 14.5)"/>
</clipPath>
</defs>
</svg>
