<svg width="104" height="34" viewBox="0 0 104 34" fill="none" xmlns="http://www.w3.org/2000/svg">
<path d="M1 4C1 2.34315 2.34315 1 4 1H100C101.657 1 103 2.34315 103 4V30C103 31.6569 101.657 33 100 33H4C2.34315 33 1 31.6569 1 30V4Z" fill="#C9D1D9"/>
<g clip-path="url(#clip0)">
<path d="M19.1645 10.7634V13.5271L23.951 16.2908V13.5271L19.1645 10.7634H19.1645ZM9.59123 13.5271V16.2908L11.9844 17.6724V14.909L9.59123 13.5271ZM16.7709 14.909L14.3777 16.2908V24.5813L16.7709 25.9631V20.436L19.1645 21.8179V19.0542L16.7709 17.6724V14.909Z" fill="#E55B2D"/>
<path d="M19.1645 10.7634L11.9845 14.909V17.6724L16.7709 14.909V17.6724L19.1645 16.2908V10.7634ZM26.3445 12.1453L23.951 13.5271V16.2908L26.3445 14.909V12.1453ZM21.5578 17.6724L19.1645 19.0542V21.818L21.5578 20.436V17.6723V17.6724ZM19.1645 21.8179L16.7709 20.436V25.9631L19.1645 24.5813V21.818L19.1645 21.8179Z" fill="#ED8E24"/>
<path d="M19.1645 8L9.59123 13.5271L11.9844 14.909L19.1645 10.7634L23.951 13.5271L26.3445 12.1453L19.1645 8ZM19.1645 16.2908L16.7709 17.6723L19.1645 19.0542L21.5577 17.6724L19.1645 16.2908V16.2908Z" fill="#F8BF3C"/>
</g>
<path d="M41.8848 13.3945H39.1426V21H38.0234V13.3945H35.2871V12.4688H41.8848V13.3945ZM45.0254 21.1172C44.166 21.1172 43.4668 20.8359 42.9277 20.2734C42.3887 19.707 42.1191 18.9512 42.1191 18.0059V17.8066C42.1191 17.1777 42.2383 16.6172 42.4766 16.125C42.7188 15.6289 43.0547 15.2422 43.4844 14.9648C43.918 14.6836 44.3867 14.543 44.8906 14.543C45.7148 14.543 46.3555 14.8145 46.8125 15.3574C47.2695 15.9004 47.498 16.6777 47.498 17.6895V18.1406H43.2031C43.2188 18.7656 43.4004 19.2715 43.748 19.6582C44.0996 20.041 44.5449 20.2324 45.084 20.2324C45.4668 20.2324 45.791 20.1543 46.0566 19.998C46.3223 19.8418 46.5547 19.6348 46.7539 19.377L47.416 19.8926C46.8848 20.709 46.0879 21.1172 45.0254 21.1172ZM44.8906 15.4336C44.4531 15.4336 44.0859 15.5938 43.7891 15.9141C43.4922 16.2305 43.3086 16.6758 43.2383 17.25H46.4141V17.168C46.3828 16.6172 46.2344 16.1914 45.9688 15.8906C45.7031 15.5859 45.3438 15.4336 44.8906 15.4336ZM49.7832 14.6602L49.8184 15.457C50.3027 14.8477 50.9355 14.543 51.7168 14.543C53.0566 14.543 53.7324 15.2988 53.7441 16.8105V21H52.6602V16.8047C52.6562 16.3477 52.5508 16.0098 52.3438 15.791C52.1406 15.5723 51.8223 15.4629 51.3887 15.4629C51.0371 15.4629 50.7285 15.5566 50.4629 15.7441C50.1973 15.9316 49.9902 16.1777 49.8418 16.4824V21H48.7578V14.6602H49.7832ZM59.0703 19.3184C59.0703 19.0254 58.959 18.7988 58.7363 18.6387C58.5176 18.4746 58.1328 18.334 57.582 18.2168C57.0352 18.0996 56.5996 17.959 56.2754 17.7949C55.9551 17.6309 55.7168 17.4355 55.5605 17.209C55.4082 16.9824 55.332 16.7129 55.332 16.4004C55.332 15.8809 55.5508 15.4414 55.9883 15.082C56.4297 14.7227 56.9922 14.543 57.6758 14.543C58.3945 14.543 58.9766 14.7285 59.4219 15.0996C59.8711 15.4707 60.0957 15.9453 60.0957 16.5234H59.0059C59.0059 16.2266 58.8789 15.9707 58.625 15.7559C58.375 15.541 58.0586 15.4336 57.6758 15.4336C57.2812 15.4336 56.9727 15.5195 56.75 15.6914C56.5273 15.8633 56.416 16.0879 56.416 16.3652C56.416 16.627 56.5195 16.8242 56.7266 16.957C56.9336 17.0898 57.3066 17.2168 57.8457 17.3379C58.3887 17.459 58.8281 17.6035 59.1641 17.7715C59.5 17.9395 59.748 18.1426 59.9082 18.3809C60.0723 18.6152 60.1543 18.9023 60.1543 19.2422C60.1543 19.8086 59.9277 20.2637 59.4746 20.6074C59.0215 20.9473 58.4336 21.1172 57.7109 21.1172C57.2031 21.1172 56.7539 21.0273 56.3633 20.8477C55.9727 20.668 55.666 20.418 55.4434 20.0977C55.2246 19.7734 55.1152 19.4238 55.1152 19.0488H56.1992C56.2188 19.4121 56.3633 19.7012 56.6328 19.916C56.9062 20.127 57.2656 20.2324 57.7109 20.2324C58.1211 20.2324 58.4492 20.1504 58.6953 19.9863C58.9453 19.8184 59.0703 19.5957 59.0703 19.3184ZM61.2793 17.7715C61.2793 17.1504 61.4004 16.5918 61.6426 16.0957C61.8887 15.5996 62.2285 15.2168 62.6621 14.9473C63.0996 14.6777 63.5977 14.543 64.1562 14.543C65.0195 14.543 65.7168 14.8418 66.248 15.4395C66.7832 16.0371 67.0508 16.832 67.0508 17.8242V17.9004C67.0508 18.5176 66.9316 19.0723 66.6934 19.5645C66.459 20.0527 66.1211 20.4336 65.6797 20.707C65.2422 20.9805 64.7383 21.1172 64.168 21.1172C63.3086 21.1172 62.6113 20.8184 62.0762 20.2207C61.5449 19.623 61.2793 18.832 61.2793 17.8477V17.7715ZM62.3691 17.9004C62.3691 18.6035 62.5312 19.168 62.8555 19.5938C63.1836 20.0195 63.6211 20.2324 64.168 20.2324C64.7188 20.2324 65.1562 20.0176 65.4805 19.5879C65.8047 19.1543 65.9668 18.5488 65.9668 17.7715C65.9668 17.0762 65.8008 16.5137 65.4688 16.084C65.1406 15.6504 64.7031 15.4336 64.1562 15.4336C63.6211 15.4336 63.1895 15.6465 62.8613 16.0723C62.5332 16.498 62.3691 17.1074 62.3691 17.9004ZM71.4746 15.6328C71.3105 15.6055 71.1328 15.5918 70.9414 15.5918C70.2305 15.5918 69.748 15.8945 69.4941 16.5V21H68.4102V14.6602H69.4648L69.4824 15.3926C69.8379 14.8262 70.3418 14.543 70.9941 14.543C71.2051 14.543 71.3652 14.5703 71.4746 14.625V15.6328ZM76.4375 12.9199C75.9531 12.8418 75.5625 12.8027 75.2656 12.8027C74.4844 12.8027 74.0938 13.2129 74.0938 14.0332V14.6602H75.4473V15.498H74.0938V21H73.0098V15.498H72.0078V14.6602H73.0098V13.9688C73.0137 13.293 73.2031 12.7754 73.5781 12.416C73.9531 12.0566 74.4863 11.877 75.1777 11.877C75.5723 11.877 76.3535 11.9961 77.5215 12.2344V21H76.4375V12.9199ZM79.0098 17.7715C79.0098 17.1504 79.1309 16.5918 79.373 16.0957C79.6191 15.5996 79.959 15.2168 80.3926 14.9473C80.8301 14.6777 81.3281 14.543 81.8867 14.543C82.75 14.543 83.4473 14.8418 83.9785 15.4395C84.5137 16.0371 84.7812 16.832 84.7812 17.8242V17.9004C84.7812 18.5176 84.6621 19.0723 84.4238 19.5645C84.1895 20.0527 83.8516 20.4336 83.4102 20.707C82.9727 20.9805 82.4688 21.1172 81.8984 21.1172C81.0391 21.1172 80.3418 20.8184 79.8066 20.2207C79.2754 19.623 79.0098 18.832 79.0098 17.8477V17.7715ZM80.0996 17.9004C80.0996 18.6035 80.2617 19.168 80.5859 19.5938C80.9141 20.0195 81.3516 20.2324 81.8984 20.2324C82.4492 20.2324 82.8867 20.0176 83.2109 19.5879C83.5352 19.1543 83.6973 18.5488 83.6973 17.7715C83.6973 17.0762 83.5312 16.5137 83.1992 16.084C82.8711 15.6504 82.4336 15.4336 81.8867 15.4336C81.3516 15.4336 80.9199 15.6465 80.5918 16.0723C80.2637 16.498 80.0996 17.1074 80.0996 17.9004ZM91.7539 19.5059L92.9727 14.6602H94.0566L92.2109 21H91.332L89.791 16.1953L88.291 21H87.4121L85.5723 14.6602H86.6504L87.8984 19.4062L89.375 14.6602H90.248L91.7539 19.5059Z" fill="#22272E"/>
<path d="M4 2H100V0H4V2ZM102 4V30H104V4H102ZM100 32H4V34H100V32ZM2 30V4H0V30H2ZM4 32C2.89543 32 2 31.1046 2 30H0C0 32.2091 1.79087 34 4 34V32ZM102 30C102 31.1046 101.105 32 100 32V34C102.209 34 104 32.2091 104 30H102ZM100 2C101.105 2 102 2.89543 102 4H104C104 1.79086 102.209 0 100 0V2ZM4 0C1.79086 0 0 1.79086 0 4H2C2 2.89543 2.89543 2 4 2V0Z" fill="#30363D"/>
<defs>
<clipPath id="clip0">
<rect width="16.82" height="18" fill="white" transform="translate(9.59 8)"/>
</clipPath>
</defs>
</svg>
