<svg width="97" height="28" viewBox="0 0 97 28" fill="none" xmlns="http://www.w3.org/2000/svg">
<g filter="url(#filter0_d)">
<path d="M2 5C2 2.23858 4.23858 0 7 0H90C92.7614 0 95 2.23858 95 5V19C95 21.7614 92.7614 24 90 24H7C4.23858 24 2 21.7614 2 19V5Z" fill="white"/>
<g clip-path="url(#clip0)">
<path d="M17.1645 5.76339V8.52712L21.951 11.2908V8.52712L17.1645 5.76339H17.1645ZM7.59123 8.52712V11.2908L9.98444 12.6724V9.90898L7.59123 8.52712ZM14.7709 9.90898L12.3777 11.2908V19.5813L14.7709 20.9631V15.436L17.1645 16.8179V14.0542L14.7709 12.6724V9.90898Z" fill="#E55B2D"/>
<path d="M17.1645 5.76339L9.98445 9.90898V12.6724L14.7709 9.90898V12.6724L17.1645 11.2908V5.76339V5.76339ZM24.3445 7.14525L21.951 8.52712V11.2908L24.3445 9.90898V7.14525ZM19.5578 12.6724L17.1645 14.0542V16.818L19.5578 15.436V12.6723V12.6724ZM17.1645 16.8179L14.7709 15.436V20.9631L17.1645 19.5813V16.818L17.1645 16.8179Z" fill="#ED8E24"/>
<path d="M17.1645 3L7.59123 8.52712L9.98444 9.90898L17.1645 5.76339L21.951 8.52712L24.3445 7.14526L17.1645 3ZM17.1645 11.2908L14.7709 12.6723L17.1645 14.0542L19.5577 12.6724L17.1645 11.2908V11.2908Z" fill="#F8BF3C"/>
</g>
<path d="M36.8848 8.39453H34.1426V16H33.0234V8.39453H30.2871V7.46875H36.8848V8.39453ZM40.0254 16.1172C39.166 16.1172 38.4668 15.8359 37.9277 15.2734C37.3887 14.707 37.1191 13.9512 37.1191 13.0059V12.8066C37.1191 12.1777 37.2383 11.6172 37.4766 11.125C37.7188 10.6289 38.0547 10.2422 38.4844 9.96484C38.918 9.68359 39.3867 9.54297 39.8906 9.54297C40.7148 9.54297 41.3555 9.81445 41.8125 10.3574C42.2695 10.9004 42.498 11.6777 42.498 12.6895V13.1406H38.2031C38.2188 13.7656 38.4004 14.2715 38.748 14.6582C39.0996 15.041 39.5449 15.2324 40.084 15.2324C40.4668 15.2324 40.791 15.1543 41.0566 14.998C41.3223 14.8418 41.5547 14.6348 41.7539 14.377L42.416 14.8926C41.8848 15.709 41.0879 16.1172 40.0254 16.1172ZM39.8906 10.4336C39.4531 10.4336 39.0859 10.5938 38.7891 10.9141C38.4922 11.2305 38.3086 11.6758 38.2383 12.25H41.4141V12.168C41.3828 11.6172 41.2344 11.1914 40.9688 10.8906C40.7031 10.5859 40.3438 10.4336 39.8906 10.4336ZM44.7832 9.66016L44.8184 10.457C45.3027 9.84766 45.9355 9.54297 46.7168 9.54297C48.0566 9.54297 48.7324 10.2988 48.7441 11.8105V16H47.6602V11.8047C47.6562 11.3477 47.5508 11.0098 47.3438 10.791C47.1406 10.5723 46.8223 10.4629 46.3887 10.4629C46.0371 10.4629 45.7285 10.5566 45.4629 10.7441C45.1973 10.9316 44.9902 11.1777 44.8418 11.4824V16H43.7578V9.66016H44.7832ZM54.0703 14.3184C54.0703 14.0254 53.959 13.7988 53.7363 13.6387C53.5176 13.4746 53.1328 13.334 52.582 13.2168C52.0352 13.0996 51.5996 12.959 51.2754 12.7949C50.9551 12.6309 50.7168 12.4355 50.5605 12.209C50.4082 11.9824 50.332 11.7129 50.332 11.4004C50.332 10.8809 50.5508 10.4414 50.9883 10.082C51.4297 9.72266 51.9922 9.54297 52.6758 9.54297C53.3945 9.54297 53.9766 9.72852 54.4219 10.0996C54.8711 10.4707 55.0957 10.9453 55.0957 11.5234H54.0059C54.0059 11.2266 53.8789 10.9707 53.625 10.7559C53.375 10.541 53.0586 10.4336 52.6758 10.4336C52.2812 10.4336 51.9727 10.5195 51.75 10.6914C51.5273 10.8633 51.416 11.0879 51.416 11.3652C51.416 11.627 51.5195 11.8242 51.7266 11.957C51.9336 12.0898 52.3066 12.2168 52.8457 12.3379C53.3887 12.459 53.8281 12.6035 54.1641 12.7715C54.5 12.9395 54.748 13.1426 54.9082 13.3809C55.0723 13.6152 55.1543 13.9023 55.1543 14.2422C55.1543 14.8086 54.9277 15.2637 54.4746 15.6074C54.0215 15.9473 53.4336 16.1172 52.7109 16.1172C52.2031 16.1172 51.7539 16.0273 51.3633 15.8477C50.9727 15.668 50.666 15.418 50.4434 15.0977C50.2246 14.7734 50.1152 14.4238 50.1152 14.0488H51.1992C51.2188 14.4121 51.3633 14.7012 51.6328 14.916C51.9062 15.127 52.2656 15.2324 52.7109 15.2324C53.1211 15.2324 53.4492 15.1504 53.6953 14.9863C53.9453 14.8184 54.0703 14.5957 54.0703 14.3184ZM56.2793 12.7715C56.2793 12.1504 56.4004 11.5918 56.6426 11.0957C56.8887 10.5996 57.2285 10.2168 57.6621 9.94727C58.0996 9.67773 58.5977 9.54297 59.1562 9.54297C60.0195 9.54297 60.7168 9.8418 61.248 10.4395C61.7832 11.0371 62.0508 11.832 62.0508 12.8242V12.9004C62.0508 13.5176 61.9316 14.0723 61.6934 14.5645C61.459 15.0527 61.1211 15.4336 60.6797 15.707C60.2422 15.9805 59.7383 16.1172 59.168 16.1172C58.3086 16.1172 57.6113 15.8184 57.0762 15.2207C56.5449 14.623 56.2793 13.832 56.2793 12.8477V12.7715ZM57.3691 12.9004C57.3691 13.6035 57.5312 14.168 57.8555 14.5938C58.1836 15.0195 58.6211 15.2324 59.168 15.2324C59.7188 15.2324 60.1562 15.0176 60.4805 14.5879C60.8047 14.1543 60.9668 13.5488 60.9668 12.7715C60.9668 12.0762 60.8008 11.5137 60.4688 11.084C60.1406 10.6504 59.7031 10.4336 59.1562 10.4336C58.6211 10.4336 58.1895 10.6465 57.8613 11.0723C57.5332 11.498 57.3691 12.1074 57.3691 12.9004ZM66.4746 10.6328C66.3105 10.6055 66.1328 10.5918 65.9414 10.5918C65.2305 10.5918 64.748 10.8945 64.4941 11.5V16H63.4102V9.66016H64.4648L64.4824 10.3926C64.8379 9.82617 65.3418 9.54297 65.9941 9.54297C66.2051 9.54297 66.3652 9.57031 66.4746 9.625V10.6328ZM71.4375 7.91992C70.9531 7.8418 70.5625 7.80273 70.2656 7.80273C69.4844 7.80273 69.0938 8.21289 69.0938 9.0332V9.66016H70.4473V10.498H69.0938V16H68.0098V10.498H67.0078V9.66016H68.0098V8.96875C68.0137 8.29297 68.2031 7.77539 68.5781 7.41602C68.9531 7.05664 69.4863 6.87695 70.1777 6.87695C70.5723 6.87695 71.3535 6.99609 72.5215 7.23438V16H71.4375V7.91992ZM74.0098 12.7715C74.0098 12.1504 74.1309 11.5918 74.373 11.0957C74.6191 10.5996 74.959 10.2168 75.3926 9.94727C75.8301 9.67773 76.3281 9.54297 76.8867 9.54297C77.75 9.54297 78.4473 9.8418 78.9785 10.4395C79.5137 11.0371 79.7812 11.832 79.7812 12.8242V12.9004C79.7812 13.5176 79.6621 14.0723 79.4238 14.5645C79.1895 15.0527 78.8516 15.4336 78.4102 15.707C77.9727 15.9805 77.4688 16.1172 76.8984 16.1172C76.0391 16.1172 75.3418 15.8184 74.8066 15.2207C74.2754 14.623 74.0098 13.832 74.0098 12.8477V12.7715ZM75.0996 12.9004C75.0996 13.6035 75.2617 14.168 75.5859 14.5938C75.9141 15.0195 76.3516 15.2324 76.8984 15.2324C77.4492 15.2324 77.8867 15.0176 78.2109 14.5879C78.5352 14.1543 78.6973 13.5488 78.6973 12.7715C78.6973 12.0762 78.5312 11.5137 78.1992 11.084C77.8711 10.6504 77.4336 10.4336 76.8867 10.4336C76.3516 10.4336 75.9199 10.6465 75.5918 11.0723C75.2637 11.498 75.0996 12.1074 75.0996 12.9004ZM86.7539 14.5059L87.9727 9.66016H89.0566L87.2109 16H86.332L84.791 11.1953L83.291 16H82.4121L80.5723 9.66016H81.6504L82.8984 14.4062L84.375 9.66016H85.248L86.7539 14.5059Z" fill="black"/>
</g>
<defs>
<filter id="filter0_d" x="0" y="0" width="97" height="28" filterUnits="userSpaceOnUse" color-interpolation-filters="sRGB">
<feFlood flood-opacity="0" result="BackgroundImageFix"/>
<feColorMatrix in="SourceAlpha" type="matrix" values="0 0 0 0 0 0 0 0 0 0 0 0 0 0 0 0 0 0 127 0" result="hardAlpha"/>
<feOffset dy="2"/>
<feGaussianBlur stdDeviation="1"/>
<feComposite in2="hardAlpha" operator="out"/>
<feColorMatrix type="matrix" values="0 0 0 0 0 0 0 0 0 0 0 0 0 0 0 0 0 0 0.25 0"/>
<feBlend mode="normal" in2="BackgroundImageFix" result="effect1_dropShadow"/>
<feBlend mode="normal" in="SourceGraphic" in2="effect1_dropShadow" result="shape"/>
</filter>
<clipPath id="clip0">
<rect width="16.82" height="18" fill="white" transform="translate(7.59 3)"/>
</clipPath>
</defs>
</svg>
