<svg width="119" height="39" viewBox="0 0 119 39" fill="none" xmlns="http://www.w3.org/2000/svg">
<path d="M1 4C1 2.34315 2.34315 1 4 1H115C116.657 1 118 2.34315 118 4V35C118 36.6569 116.657 38 115 38H4C2.34315 38 1 36.6569 1 35V4Z" fill="#22272E"/>
<g clip-path="url(#clip0)">
<path d="M25.7009 19.5L25.774 23.0246L23.4509 21.6741V26.7017L20.3746 28.5006V10.5006L28.024 14.9246V18.9004L23.4509 16.2021V18.2265L25.7009 19.5ZM11.9753 14.9241L19.6248 10.5V28.5L16.5485 26.7011V16.2009L11.9753 18.8993V14.9241Z" fill="#ADBAC7"/>
</g>
<path d="M48.082 16.2363H45.252V25H44.1035V16.2363H41.2803V15.1973H48.082V16.2363ZM53.6533 21.7803H48.7109C48.7292 22.5596 48.9388 23.1611 49.3398 23.585C49.7409 24.0088 50.2923 24.2207 50.9941 24.2207C51.7826 24.2207 52.5072 23.9609 53.168 23.4414V24.4941C52.5527 24.9408 51.7393 25.1641 50.7275 25.1641C49.7386 25.1641 48.9616 24.8473 48.3965 24.2139C47.8314 23.5758 47.5488 22.6803 47.5488 21.5273C47.5488 20.4382 47.8564 19.5518 48.4717 18.8682C49.0915 18.18 49.8594 17.8359 50.7754 17.8359C51.6914 17.8359 52.4001 18.1322 52.9014 18.7246C53.4027 19.3171 53.6533 20.1396 53.6533 21.1924V21.7803ZM52.5049 20.8301C52.5003 20.1829 52.3431 19.6794 52.0332 19.3193C51.7279 18.9593 51.3018 18.7793 50.7549 18.7793C50.2262 18.7793 49.7773 18.9684 49.4082 19.3467C49.0391 19.7249 48.8112 20.2194 48.7246 20.8301H52.5049ZM61.166 25H60.0449V21.0078C60.0449 19.5221 59.5026 18.7793 58.418 18.7793C57.8574 18.7793 57.3926 18.9912 57.0234 19.415C56.6589 19.8343 56.4766 20.3652 56.4766 21.0078V25H55.3555V18H56.4766V19.1621H56.5039C57.0326 18.278 57.7982 17.8359 58.8008 17.8359C59.5664 17.8359 60.152 18.0843 60.5576 18.5811C60.9632 19.0732 61.166 19.7865 61.166 20.7207V25ZM62.8613 24.7471V23.5439C63.472 23.9951 64.1442 24.2207 64.8779 24.2207C65.8623 24.2207 66.3545 23.8926 66.3545 23.2363C66.3545 23.0495 66.3112 22.8923 66.2246 22.7646C66.1426 22.6325 66.0286 22.5163 65.8828 22.416C65.7415 22.3158 65.5729 22.2269 65.377 22.1494C65.1855 22.0674 64.9782 21.9831 64.7549 21.8965C64.445 21.7734 64.1715 21.6504 63.9346 21.5273C63.7021 21.3997 63.5062 21.2585 63.3467 21.1035C63.1917 20.944 63.0732 20.764 62.9912 20.5635C62.9137 20.363 62.875 20.1283 62.875 19.8594C62.875 19.5312 62.9502 19.2419 63.1006 18.9912C63.251 18.736 63.4515 18.5241 63.7021 18.3555C63.9528 18.1823 64.2376 18.0524 64.5566 17.9658C64.8802 17.8792 65.2129 17.8359 65.5547 17.8359C66.1608 17.8359 66.7031 17.9408 67.1816 18.1504V19.2852C66.6667 18.9479 66.0742 18.7793 65.4043 18.7793C65.1947 18.7793 65.0055 18.8044 64.8369 18.8545C64.6683 18.9001 64.5225 18.9661 64.3994 19.0527C64.2809 19.1393 64.1875 19.2441 64.1191 19.3672C64.0553 19.4857 64.0234 19.6178 64.0234 19.7637C64.0234 19.946 64.0553 20.0986 64.1191 20.2217C64.1875 20.3447 64.2855 20.4541 64.4131 20.5498C64.5407 20.6455 64.6956 20.7321 64.8779 20.8096C65.0602 20.887 65.2676 20.9714 65.5 21.0625C65.8099 21.181 66.0879 21.304 66.334 21.4316C66.5801 21.5547 66.7897 21.696 66.9629 21.8555C67.1361 22.0104 67.2682 22.1904 67.3594 22.3955C67.4551 22.6006 67.5029 22.8444 67.5029 23.127C67.5029 23.4733 67.4255 23.7741 67.2705 24.0293C67.1201 24.2845 66.9173 24.4964 66.6621 24.665C66.4069 24.8337 66.113 24.959 65.7803 25.041C65.4476 25.123 65.099 25.1641 64.7344 25.1641C64.0143 25.1641 63.39 25.0251 62.8613 24.7471ZM72.1582 25.1641C71.1237 25.1641 70.2965 24.8382 69.6768 24.1865C69.0615 23.5303 68.7539 22.6621 68.7539 21.582C68.7539 20.4062 69.0752 19.488 69.7178 18.8271C70.3604 18.1663 71.2285 17.8359 72.3223 17.8359C73.3659 17.8359 74.1794 18.1572 74.7627 18.7998C75.3506 19.4424 75.6445 20.3333 75.6445 21.4727C75.6445 22.5892 75.3278 23.4847 74.6943 24.1592C74.0654 24.8291 73.2201 25.1641 72.1582 25.1641ZM72.2402 18.7793C71.5202 18.7793 70.9505 19.0254 70.5312 19.5176C70.112 20.0052 69.9023 20.6797 69.9023 21.541C69.9023 22.3704 70.1143 23.0244 70.5381 23.5029C70.9619 23.9814 71.5293 24.2207 72.2402 24.2207C72.9648 24.2207 73.5208 23.986 73.9082 23.5166C74.3001 23.0472 74.4961 22.3796 74.4961 21.5137C74.4961 20.6387 74.3001 19.9642 73.9082 19.4902C73.5208 19.0163 72.9648 18.7793 72.2402 18.7793ZM81.0859 19.1348C80.89 18.9844 80.6074 18.9092 80.2383 18.9092C79.7598 18.9092 79.3587 19.1348 79.0352 19.5859C78.7161 20.0371 78.5566 20.6523 78.5566 21.4316V25H77.4355V18H78.5566V19.4424H78.584C78.7435 18.9502 78.9873 18.5674 79.3154 18.2939C79.6436 18.016 80.0104 17.877 80.416 17.877C80.7077 17.877 80.931 17.9089 81.0859 17.9727V19.1348ZM86.0352 15.6211C85.8164 15.498 85.568 15.4365 85.29 15.4365C84.5062 15.4365 84.1143 15.931 84.1143 16.9199V18H85.7549V18.957H84.1143V25H83V18.957H81.8037V18H83V16.8652C83 16.1315 83.2119 15.5527 83.6357 15.1289C84.0596 14.7005 84.5882 14.4863 85.2217 14.4863C85.5635 14.4863 85.8346 14.5273 86.0352 14.6094V15.6211ZM88.0859 25H86.9648V14.6367H88.0859V25ZM93.2812 25.1641C92.2467 25.1641 91.4196 24.8382 90.7998 24.1865C90.1846 23.5303 89.877 22.6621 89.877 21.582C89.877 20.4062 90.1982 19.488 90.8408 18.8271C91.4834 18.1663 92.3516 17.8359 93.4453 17.8359C94.4889 17.8359 95.3024 18.1572 95.8857 18.7998C96.4736 19.4424 96.7676 20.3333 96.7676 21.4727C96.7676 22.5892 96.4508 23.4847 95.8174 24.1592C95.1885 24.8291 94.3431 25.1641 93.2812 25.1641ZM93.3633 18.7793C92.6432 18.7793 92.0736 19.0254 91.6543 19.5176C91.235 20.0052 91.0254 20.6797 91.0254 21.541C91.0254 22.3704 91.2373 23.0244 91.6611 23.5029C92.085 23.9814 92.6523 24.2207 93.3633 24.2207C94.0879 24.2207 94.6439 23.986 95.0312 23.5166C95.4232 23.0472 95.6191 22.3796 95.6191 21.5137C95.6191 20.6387 95.4232 19.9642 95.0312 19.4902C94.6439 19.0163 94.0879 18.7793 93.3633 18.7793ZM107.377 18L105.278 25H104.116L102.674 19.9893C102.619 19.7979 102.583 19.5814 102.564 19.3398H102.537C102.523 19.5039 102.476 19.7158 102.394 19.9756L100.828 25H99.707L97.5879 18H98.7637L100.213 23.2637C100.258 23.4232 100.29 23.6328 100.309 23.8926H100.363C100.377 23.6921 100.418 23.4779 100.486 23.25L102.1 18H103.125L104.574 23.2773C104.62 23.446 104.654 23.6556 104.677 23.9062H104.731C104.741 23.7285 104.779 23.5189 104.848 23.2773L106.27 18H107.377Z" fill="#ADBAC7"/>
<path d="M4 2H115V0H4V2ZM117 4V35H119V4H117ZM115 37H4V39H115V37ZM2 35V4H0V35H2ZM4 37C2.89543 37 2 36.1046 2 35H0C0 37.2091 1.79086 39 4 39V37ZM117 35C117 36.1046 116.105 37 115 37V39C117.209 39 119 37.2091 119 35H117ZM115 2C116.105 2 117 2.89543 117 4H119C119 1.79086 117.209 0 115 0V2ZM4 0C1.79086 0 0 1.79086 0 4H2C2 2.89543 2.89543 2 4 2V0Z" fill="#444C56"/>
<defs>
<clipPath id="clip0">
<rect width="18" height="18" fill="white" transform="translate(11 10.5)"/>
</clipPath>
</defs>
</svg>
