<svg width="106" height="36" viewBox="0 0 106 36" fill="none" xmlns="http://www.w3.org/2000/svg">
<g filter="url(#filter0_d)">
<path d="M2 3C2 1.34315 3.34315 0 5 0H101C102.657 0 104 1.34315 104 3V29C104 30.6569 102.657 32 101 32H5C3.34315 32 2 30.6569 2 29V3Z" fill="#C9D1D9"/>
<g clip-path="url(#clip0)">
<path d="M20.1645 9.76339V12.5271L24.951 15.2908V12.5271L20.1645 9.76339H20.1645ZM10.5912 12.5271V15.2908L12.9844 16.6724V13.909L10.5912 12.5271ZM17.7709 13.909L15.3777 15.2908V23.5813L17.7709 24.9631V19.436L20.1645 20.8179V18.0542L17.7709 16.6724V13.909Z" fill="#E55B2D"/>
<path d="M20.1645 9.76339L12.9845 13.909V16.6724L17.7709 13.909V16.6724L20.1645 15.2908V9.76339ZM27.3445 11.1453L24.951 12.5271V15.2908L27.3445 13.909V11.1453ZM22.5578 16.6724L20.1645 18.0542V20.818L22.5578 19.436V16.6723V16.6724ZM20.1645 20.8179L17.7709 19.436V24.9631L20.1645 23.5813V20.818L20.1645 20.8179Z" fill="#ED8E24"/>
<path d="M20.1645 7L10.5912 12.5271L12.9844 13.909L20.1645 9.76339L24.951 12.5271L27.3445 11.1453L20.1645 7ZM20.1645 15.2908L17.7709 16.6723L20.1645 18.0542L22.5577 16.6724L20.1645 15.2908V15.2908Z" fill="#F8BF3C"/>
</g>
<path d="M42.8848 12.3945H40.1426V20H39.0234V12.3945H36.2871V11.4688H42.8848V12.3945ZM46.0254 20.1172C45.166 20.1172 44.4668 19.8359 43.9277 19.2734C43.3887 18.707 43.1191 17.9512 43.1191 17.0059V16.8066C43.1191 16.1777 43.2383 15.6172 43.4766 15.125C43.7188 14.6289 44.0547 14.2422 44.4844 13.9648C44.918 13.6836 45.3867 13.543 45.8906 13.543C46.7148 13.543 47.3555 13.8145 47.8125 14.3574C48.2695 14.9004 48.498 15.6777 48.498 16.6895V17.1406H44.2031C44.2188 17.7656 44.4004 18.2715 44.748 18.6582C45.0996 19.041 45.5449 19.2324 46.084 19.2324C46.4668 19.2324 46.791 19.1543 47.0566 18.998C47.3223 18.8418 47.5547 18.6348 47.7539 18.377L48.416 18.8926C47.8848 19.709 47.0879 20.1172 46.0254 20.1172ZM45.8906 14.4336C45.4531 14.4336 45.0859 14.5938 44.7891 14.9141C44.4922 15.2305 44.3086 15.6758 44.2383 16.25H47.4141V16.168C47.3828 15.6172 47.2344 15.1914 46.9688 14.8906C46.7031 14.5859 46.3438 14.4336 45.8906 14.4336ZM50.7832 13.6602L50.8184 14.457C51.3027 13.8477 51.9355 13.543 52.7168 13.543C54.0566 13.543 54.7324 14.2988 54.7441 15.8105V20H53.6602V15.8047C53.6562 15.3477 53.5508 15.0098 53.3438 14.791C53.1406 14.5723 52.8223 14.4629 52.3887 14.4629C52.0371 14.4629 51.7285 14.5566 51.4629 14.7441C51.1973 14.9316 50.9902 15.1777 50.8418 15.4824V20H49.7578V13.6602H50.7832ZM60.0703 18.3184C60.0703 18.0254 59.959 17.7988 59.7363 17.6387C59.5176 17.4746 59.1328 17.334 58.582 17.2168C58.0352 17.0996 57.5996 16.959 57.2754 16.7949C56.9551 16.6309 56.7168 16.4355 56.5605 16.209C56.4082 15.9824 56.332 15.7129 56.332 15.4004C56.332 14.8809 56.5508 14.4414 56.9883 14.082C57.4297 13.7227 57.9922 13.543 58.6758 13.543C59.3945 13.543 59.9766 13.7285 60.4219 14.0996C60.8711 14.4707 61.0957 14.9453 61.0957 15.5234H60.0059C60.0059 15.2266 59.8789 14.9707 59.625 14.7559C59.375 14.541 59.0586 14.4336 58.6758 14.4336C58.2812 14.4336 57.9727 14.5195 57.75 14.6914C57.5273 14.8633 57.416 15.0879 57.416 15.3652C57.416 15.627 57.5195 15.8242 57.7266 15.957C57.9336 16.0898 58.3066 16.2168 58.8457 16.3379C59.3887 16.459 59.8281 16.6035 60.1641 16.7715C60.5 16.9395 60.748 17.1426 60.9082 17.3809C61.0723 17.6152 61.1543 17.9023 61.1543 18.2422C61.1543 18.8086 60.9277 19.2637 60.4746 19.6074C60.0215 19.9473 59.4336 20.1172 58.7109 20.1172C58.2031 20.1172 57.7539 20.0273 57.3633 19.8477C56.9727 19.668 56.666 19.418 56.4434 19.0977C56.2246 18.7734 56.1152 18.4238 56.1152 18.0488H57.1992C57.2188 18.4121 57.3633 18.7012 57.6328 18.916C57.9062 19.127 58.2656 19.2324 58.7109 19.2324C59.1211 19.2324 59.4492 19.1504 59.6953 18.9863C59.9453 18.8184 60.0703 18.5957 60.0703 18.3184ZM62.2793 16.7715C62.2793 16.1504 62.4004 15.5918 62.6426 15.0957C62.8887 14.5996 63.2285 14.2168 63.6621 13.9473C64.0996 13.6777 64.5977 13.543 65.1562 13.543C66.0195 13.543 66.7168 13.8418 67.248 14.4395C67.7832 15.0371 68.0508 15.832 68.0508 16.8242V16.9004C68.0508 17.5176 67.9316 18.0723 67.6934 18.5645C67.459 19.0527 67.1211 19.4336 66.6797 19.707C66.2422 19.9805 65.7383 20.1172 65.168 20.1172C64.3086 20.1172 63.6113 19.8184 63.0762 19.2207C62.5449 18.623 62.2793 17.832 62.2793 16.8477V16.7715ZM63.3691 16.9004C63.3691 17.6035 63.5312 18.168 63.8555 18.5938C64.1836 19.0195 64.6211 19.2324 65.168 19.2324C65.7188 19.2324 66.1562 19.0176 66.4805 18.5879C66.8047 18.1543 66.9668 17.5488 66.9668 16.7715C66.9668 16.0762 66.8008 15.5137 66.4688 15.084C66.1406 14.6504 65.7031 14.4336 65.1562 14.4336C64.6211 14.4336 64.1895 14.6465 63.8613 15.0723C63.5332 15.498 63.3691 16.1074 63.3691 16.9004ZM72.4746 14.6328C72.3105 14.6055 72.1328 14.5918 71.9414 14.5918C71.2305 14.5918 70.748 14.8945 70.4941 15.5V20H69.4102V13.6602H70.4648L70.4824 14.3926C70.8379 13.8262 71.3418 13.543 71.9941 13.543C72.2051 13.543 72.3652 13.5703 72.4746 13.625V14.6328ZM77.4375 11.9199C76.9531 11.8418 76.5625 11.8027 76.2656 11.8027C75.4844 11.8027 75.0938 12.2129 75.0938 13.0332V13.6602H76.4473V14.498H75.0938V20H74.0098V14.498H73.0078V13.6602H74.0098V12.9688C74.0137 12.293 74.2031 11.7754 74.5781 11.416C74.9531 11.0566 75.4863 10.877 76.1777 10.877C76.5723 10.877 77.3535 10.9961 78.5215 11.2344V20H77.4375V11.9199ZM80.0098 16.7715C80.0098 16.1504 80.1309 15.5918 80.373 15.0957C80.6191 14.5996 80.959 14.2168 81.3926 13.9473C81.8301 13.6777 82.3281 13.543 82.8867 13.543C83.75 13.543 84.4473 13.8418 84.9785 14.4395C85.5137 15.0371 85.7812 15.832 85.7812 16.8242V16.9004C85.7812 17.5176 85.6621 18.0723 85.4238 18.5645C85.1895 19.0527 84.8516 19.4336 84.4102 19.707C83.9727 19.9805 83.4688 20.1172 82.8984 20.1172C82.0391 20.1172 81.3418 19.8184 80.8066 19.2207C80.2754 18.623 80.0098 17.832 80.0098 16.8477V16.7715ZM81.0996 16.9004C81.0996 17.6035 81.2617 18.168 81.5859 18.5938C81.9141 19.0195 82.3516 19.2324 82.8984 19.2324C83.4492 19.2324 83.8867 19.0176 84.2109 18.5879C84.5352 18.1543 84.6973 17.5488 84.6973 16.7715C84.6973 16.0762 84.5312 15.5137 84.1992 15.084C83.8711 14.6504 83.4336 14.4336 82.8867 14.4336C82.3516 14.4336 81.9199 14.6465 81.5918 15.0723C81.2637 15.498 81.0996 16.1074 81.0996 16.9004ZM92.7539 18.5059L93.9727 13.6602H95.0566L93.2109 20H92.332L90.791 15.1953L89.291 20H88.4121L86.5723 13.6602H87.6504L88.8984 18.4062L90.375 13.6602H91.248L92.7539 18.5059Z" fill="#22272E"/>
</g>
<defs>
<filter id="filter0_d" x="0" y="0" width="106" height="36" filterUnits="userSpaceOnUse" color-interpolation-filters="sRGB">
<feFlood flood-opacity="0" result="BackgroundImageFix"/>
<feColorMatrix in="SourceAlpha" type="matrix" values="0 0 0 0 0 0 0 0 0 0 0 0 0 0 0 0 0 0 127 0" result="hardAlpha"/>
<feOffset dy="2"/>
<feGaussianBlur stdDeviation="1"/>
<feComposite in2="hardAlpha" operator="out"/>
<feColorMatrix type="matrix" values="0 0 0 0 0 0 0 0 0 0 0 0 0 0 0 0 0 0 0.25 0"/>
<feBlend mode="normal" in2="BackgroundImageFix" result="effect1_dropShadow"/>
<feBlend mode="normal" in="SourceGraphic" in2="effect1_dropShadow" result="shape"/>
</filter>
<clipPath id="clip0">
<rect width="16.82" height="18" fill="white" transform="translate(10.59 7)"/>
</clipPath>
</defs>
</svg>
