<svg width="141" height="45" viewBox="0 0 141 45" fill="none" xmlns="http://www.w3.org/2000/svg">
<path d="M1 4C1 2.34314 2.34315 1 4 1H137C138.657 1 140 2.34315 140 4V41C140 42.6569 138.657 44 137 44H4C2.34314 44 1 42.6569 1 41V4Z" fill="#22272E"/>
<g clip-path="url(#clip0)">
<path d="M29.7009 22.5L29.774 26.0246L27.4509 24.6741V29.7017L24.3746 31.5006V13.5006L32.024 17.9246V21.9004L27.4509 19.2021V21.2265L29.7009 22.5ZM15.9753 17.9241L23.6248 13.5V31.5L20.5485 29.7011V19.2009L15.9753 21.8993V17.9241Z" fill="#ADBAC7"/>
</g>
<path d="M53.0938 18.9844H49.8594V29H48.5469V18.9844H45.3203V17.7969H53.0938V18.9844ZM59.4609 25.3203H53.8125C53.8333 26.2109 54.0729 26.8984 54.5312 27.3828C54.9896 27.8672 55.6198 28.1094 56.4219 28.1094C57.3229 28.1094 58.151 27.8125 58.9062 27.2188V28.4219C58.2031 28.9323 57.2734 29.1875 56.1172 29.1875C54.987 29.1875 54.099 28.8255 53.4531 28.1016C52.8073 27.3724 52.4844 26.349 52.4844 25.0312C52.4844 23.7865 52.8359 22.7734 53.5391 21.9922C54.2474 21.2057 55.125 20.8125 56.1719 20.8125C57.2188 20.8125 58.0286 21.151 58.6016 21.8281C59.1745 22.5052 59.4609 23.4453 59.4609 24.6484V25.3203ZM58.1484 24.2344C58.1432 23.4948 57.9635 22.9193 57.6094 22.5078C57.2604 22.0964 56.7734 21.8906 56.1484 21.8906C55.5443 21.8906 55.0312 22.1068 54.6094 22.5391C54.1875 22.9714 53.9271 23.5365 53.8281 24.2344H58.1484ZM68.0469 29H66.7656V24.4375C66.7656 22.7396 66.1458 21.8906 64.9062 21.8906C64.2656 21.8906 63.7344 22.1328 63.3125 22.6172C62.8958 23.0964 62.6875 23.7031 62.6875 24.4375V29H61.4062V21H62.6875V22.3281H62.7188C63.3229 21.3177 64.1979 20.8125 65.3438 20.8125C66.2188 20.8125 66.888 21.0964 67.3516 21.6641C67.8151 22.2266 68.0469 23.0417 68.0469 24.1094V29ZM69.9844 28.7109V27.3359C70.6823 27.8516 71.4505 28.1094 72.2891 28.1094C73.4141 28.1094 73.9766 27.7344 73.9766 26.9844C73.9766 26.7708 73.9271 26.5911 73.8281 26.4453C73.7344 26.2943 73.6042 26.1615 73.4375 26.0469C73.276 25.9323 73.0833 25.8307 72.8594 25.7422C72.6406 25.6484 72.4036 25.5521 72.1484 25.4531C71.7943 25.3125 71.4818 25.1719 71.2109 25.0312C70.9453 24.8854 70.7214 24.724 70.5391 24.5469C70.362 24.3646 70.2266 24.1589 70.1328 23.9297C70.0443 23.7005 70 23.4323 70 23.125C70 22.75 70.0859 22.4193 70.2578 22.1328C70.4297 21.8411 70.6589 21.599 70.9453 21.4062C71.2318 21.2083 71.5573 21.0599 71.9219 20.9609C72.2917 20.862 72.6719 20.8125 73.0625 20.8125C73.7552 20.8125 74.375 20.9323 74.9219 21.1719V22.4688C74.3333 22.0833 73.6562 21.8906 72.8906 21.8906C72.651 21.8906 72.4349 21.9193 72.2422 21.9766C72.0495 22.0286 71.8828 22.1042 71.7422 22.2031C71.6068 22.3021 71.5 22.4219 71.4219 22.5625C71.349 22.6979 71.3125 22.849 71.3125 23.0156C71.3125 23.224 71.349 23.3984 71.4219 23.5391C71.5 23.6797 71.612 23.8047 71.7578 23.9141C71.9036 24.0234 72.0807 24.1224 72.2891 24.2109C72.4974 24.2995 72.7344 24.3958 73 24.5C73.3542 24.6354 73.6719 24.776 73.9531 24.9219C74.2344 25.0625 74.474 25.224 74.6719 25.4062C74.8698 25.5833 75.0208 25.7891 75.125 26.0234C75.2344 26.2578 75.2891 26.5365 75.2891 26.8594C75.2891 27.2552 75.2005 27.599 75.0234 27.8906C74.8516 28.1823 74.6198 28.4245 74.3281 28.6172C74.0365 28.8099 73.7005 28.9531 73.3203 29.0469C72.9401 29.1406 72.5417 29.1875 72.125 29.1875C71.3021 29.1875 70.5885 29.0286 69.9844 28.7109ZM80.6094 29.1875C79.4271 29.1875 78.4818 28.8151 77.7734 28.0703C77.0703 27.3203 76.7188 26.3281 76.7188 25.0938C76.7188 23.75 77.0859 22.7005 77.8203 21.9453C78.5547 21.1901 79.5469 20.8125 80.7969 20.8125C81.9896 20.8125 82.9193 21.1797 83.5859 21.9141C84.2578 22.6484 84.5938 23.6667 84.5938 24.9688C84.5938 26.2448 84.2318 27.2682 83.5078 28.0391C82.7891 28.8047 81.8229 29.1875 80.6094 29.1875ZM80.7031 21.8906C79.8802 21.8906 79.2292 22.1719 78.75 22.7344C78.2708 23.2917 78.0312 24.0625 78.0312 25.0469C78.0312 25.9948 78.2734 26.7422 78.7578 27.2891C79.2422 27.8359 79.8906 28.1094 80.7031 28.1094C81.5312 28.1094 82.1667 27.8411 82.6094 27.3047C83.0573 26.7682 83.2812 26.0052 83.2812 25.0156C83.2812 24.0156 83.0573 23.2448 82.6094 22.7031C82.1667 22.1615 81.5312 21.8906 80.7031 21.8906ZM90.8125 22.2969C90.5885 22.125 90.2656 22.0391 89.8438 22.0391C89.2969 22.0391 88.8385 22.2969 88.4688 22.8125C88.1042 23.3281 87.9219 24.0312 87.9219 24.9219V29H86.6406V21H87.9219V22.6484H87.9531C88.1354 22.0859 88.4141 21.6484 88.7891 21.3359C89.1641 21.0182 89.5833 20.8594 90.0469 20.8594C90.3802 20.8594 90.6354 20.8958 90.8125 20.9688V22.2969ZM96.4688 18.2812C96.2188 18.1406 95.9349 18.0703 95.6172 18.0703C94.7214 18.0703 94.2734 18.6354 94.2734 19.7656V21H96.1484V22.0938H94.2734V29H93V22.0938H91.6328V21H93V19.7031C93 18.8646 93.2422 18.2031 93.7266 17.7188C94.2109 17.2292 94.8151 16.9844 95.5391 16.9844C95.9297 16.9844 96.2396 17.0312 96.4688 17.125V18.2812ZM98.8125 29H97.5312V17.1562H98.8125V29ZM104.75 29.1875C103.568 29.1875 102.622 28.8151 101.914 28.0703C101.211 27.3203 100.859 26.3281 100.859 25.0938C100.859 23.75 101.227 22.7005 101.961 21.9453C102.695 21.1901 103.688 20.8125 104.938 20.8125C106.13 20.8125 107.06 21.1797 107.727 21.9141C108.398 22.6484 108.734 23.6667 108.734 24.9688C108.734 26.2448 108.372 27.2682 107.648 28.0391C106.93 28.8047 105.964 29.1875 104.75 29.1875ZM104.844 21.8906C104.021 21.8906 103.37 22.1719 102.891 22.7344C102.411 23.2917 102.172 24.0625 102.172 25.0469C102.172 25.9948 102.414 26.7422 102.898 27.2891C103.383 27.8359 104.031 28.1094 104.844 28.1094C105.672 28.1094 106.307 27.8411 106.75 27.3047C107.198 26.7682 107.422 26.0052 107.422 25.0156C107.422 24.0156 107.198 23.2448 106.75 22.7031C106.307 22.1615 105.672 21.8906 104.844 21.8906ZM120.859 21L118.461 29H117.133L115.484 23.2734C115.422 23.0547 115.38 22.8073 115.359 22.5312H115.328C115.312 22.7188 115.258 22.9609 115.164 23.2578L113.375 29H112.094L109.672 21H111.016L112.672 27.0156C112.724 27.1979 112.76 27.4375 112.781 27.7344H112.844C112.859 27.5052 112.906 27.2604 112.984 27L114.828 21H116L117.656 27.0312C117.708 27.224 117.747 27.4635 117.773 27.75H117.836C117.846 27.5469 117.891 27.3073 117.969 27.0312L119.594 21H120.859Z" fill="#ADBAC7"/>
<path d="M4 2H137V0H4V2ZM139 4V41H141V4H139ZM137 43H4V45H137V43ZM2 41V4H0V41H2ZM4 43C2.89543 43 2 42.1046 2 41H0C0 43.2091 1.79086 45 4 45V43ZM139 41C139 42.1046 138.105 43 137 43V45C139.209 45 141 43.2091 141 41H139ZM137 2C138.105 2 139 2.89543 139 4H141C141 1.79086 139.209 0 137 0V2ZM4 0C1.79086 0 0 1.79086 0 4H2C2 2.89543 2.89543 2 4 2V0Z" fill="#444C56"/>
<defs>
<clipPath id="clip0">
<rect width="18" height="18" fill="white" transform="translate(15 13.5)"/>
</clipPath>
</defs>
</svg>
