<svg width="65" height="28" viewBox="0 0 65 28" fill="none" xmlns="http://www.w3.org/2000/svg">
<g filter="url(#filter0_d)">
<path d="M2.5 5C2.5 2.23858 4.73858 0 7.5 0H57.5C60.2614 0 62.5 2.23858 62.5 5V19C62.5 21.7614 60.2614 24 57.5 24H7.5C4.73858 24 2.5 21.7614 2.5 19V5Z" fill="white"/>
<path d="M15.3 16.35L16.2075 17.9025L22.3275 19.5L24 13.56L23.04 12L24 10.5L22.3275 4.5L16.2075 6.0975L15.3 7.65H13.5L9 12L13.5 16.3575L15.3 16.35ZM22.74 12L21.4425 16.5L18.75 12L21.4425 7.5L22.74 12ZM15.45 7.905L20.13 6.75L17.4375 11.25H12.06L15.45 7.905ZM17.4525 12.75L20.145 17.25L15.45 16.0875L12.075 12.75H17.4525Z" fill="black"/>
<path d="M37.4961 7.46875V13.2695C37.4922 14.0742 37.2383 14.7324 36.7344 15.2441C36.2344 15.7559 35.5547 16.043 34.6953 16.1055L34.3965 16.1172C33.4629 16.1172 32.7188 15.8652 32.1641 15.3613C31.6094 14.8574 31.3281 14.1641 31.3203 13.2812V7.46875H32.4336V13.2461C32.4336 13.8633 32.6035 14.3438 32.9434 14.6875C33.2832 15.0273 33.7676 15.1973 34.3965 15.1973C35.0332 15.1973 35.5195 15.0273 35.8555 14.6875C36.1953 14.3477 36.3652 13.8691 36.3652 13.252V7.46875H37.4961ZM40.127 9.66016L40.1621 10.457C40.6465 9.84766 41.2793 9.54297 42.0605 9.54297C43.4004 9.54297 44.0762 10.2988 44.0879 11.8105V16H43.0039V11.8047C43 11.3477 42.8945 11.0098 42.6875 10.791C42.4844 10.5723 42.166 10.4629 41.7324 10.4629C41.3809 10.4629 41.0723 10.5566 40.8066 10.7441C40.541 10.9316 40.334 11.1777 40.1855 11.4824V16H39.1016V9.66016H40.127ZM46.9004 16H45.8164V9.66016H46.9004V16ZM45.7285 7.97852C45.7285 7.80273 45.7812 7.6543 45.8867 7.5332C45.9961 7.41211 46.1562 7.35156 46.3672 7.35156C46.5781 7.35156 46.7383 7.41211 46.8477 7.5332C46.957 7.6543 47.0117 7.80273 47.0117 7.97852C47.0117 8.1543 46.957 8.30078 46.8477 8.41797C46.7383 8.53516 46.5781 8.59375 46.3672 8.59375C46.1562 8.59375 45.9961 8.53516 45.8867 8.41797C45.7812 8.30078 45.7285 8.1543 45.7285 7.97852ZM50.1113 8.125V9.66016H51.2949V10.498H50.1113V14.4297C50.1113 14.6836 50.1641 14.875 50.2695 15.0039C50.375 15.1289 50.5547 15.1914 50.8086 15.1914C50.9336 15.1914 51.1055 15.168 51.3242 15.1211V16C51.0391 16.0781 50.7617 16.1172 50.4922 16.1172C50.0078 16.1172 49.6426 15.9707 49.3965 15.6777C49.1504 15.3848 49.0273 14.9688 49.0273 14.4297V10.498H47.873V9.66016H49.0273V8.125H50.1113ZM54.6406 14.4121L56.1172 9.66016H57.2773L54.7285 16.9785C54.334 18.0332 53.707 18.5605 52.8477 18.5605L52.6426 18.543L52.2383 18.4668V17.5879L52.5312 17.6113C52.8984 17.6113 53.1836 17.5371 53.3867 17.3887C53.5938 17.2402 53.7637 16.9688 53.8965 16.5742L54.1367 15.9297L51.875 9.66016H53.0586L54.6406 14.4121Z" fill="black"/>
</g>
<defs>
<filter id="filter0_d" x="0.5" y="0" width="64" height="28" filterUnits="userSpaceOnUse" color-interpolation-filters="sRGB">
<feFlood flood-opacity="0" result="BackgroundImageFix"/>
<feColorMatrix in="SourceAlpha" type="matrix" values="0 0 0 0 0 0 0 0 0 0 0 0 0 0 0 0 0 0 127 0" result="hardAlpha"/>
<feOffset dy="2"/>
<feGaussianBlur stdDeviation="1"/>
<feComposite in2="hardAlpha" operator="out"/>
<feColorMatrix type="matrix" values="0 0 0 0 0 0 0 0 0 0 0 0 0 0 0 0 0 0 0.25 0"/>
<feBlend mode="normal" in2="BackgroundImageFix" result="effect1_dropShadow"/>
<feBlend mode="normal" in="SourceGraphic" in2="effect1_dropShadow" result="shape"/>
</filter>
</defs>
</svg>
