<svg width="85" height="39" viewBox="0 0 85 39" fill="none" xmlns="http://www.w3.org/2000/svg">
<path d="M1 4C1 2.34315 2.34315 1 4 1H81C82.6569 1 84 2.34315 84 4V35C84 36.6569 82.6569 38 81 38H4C2.34314 38 1 36.6569 1 35V4Z" fill="#22272E"/>
<path d="M18.8 23.85L19.7075 25.4025L25.8275 27L27.5 21.06L26.54 19.5L27.5 18L25.8275 12L19.7075 13.5975L18.8 15.15H17L12.5 19.5L17 23.8575L18.8 23.85ZM26.24 19.5L24.9425 24L22.25 19.5L24.9425 15L26.24 19.5ZM18.95 15.405L23.63 14.25L20.9375 18.75H15.56L18.95 15.405ZM20.9525 20.25L23.645 24.75L18.95 23.5875L15.575 20.25H20.9525Z" fill="#ADBAC7"/>
<path d="M49.4561 21.0352C49.4561 23.7878 48.2142 25.1641 45.7305 25.1641C43.3516 25.1641 42.1621 23.8402 42.1621 21.1924V15.1973H43.3105V21.1172C43.3105 23.127 44.1582 24.1318 45.8535 24.1318C47.4896 24.1318 48.3076 23.1611 48.3076 21.2197V15.1973H49.4561V21.0352ZM57.5703 25H56.4492V21.0078C56.4492 19.5221 55.9069 18.7793 54.8223 18.7793C54.2617 18.7793 53.7969 18.9912 53.4277 19.415C53.0632 19.8343 52.8809 20.3652 52.8809 21.0078V25H51.7598V18H52.8809V19.1621H52.9082C53.4368 18.278 54.2025 17.8359 55.2051 17.8359C55.9707 17.8359 56.5563 18.0843 56.9619 18.5811C57.3675 19.0732 57.5703 19.7865 57.5703 20.7207V25ZM60.2637 16.2227C60.0632 16.2227 59.8923 16.1543 59.751 16.0176C59.6097 15.8809 59.5391 15.7077 59.5391 15.498C59.5391 15.2884 59.6097 15.1152 59.751 14.9785C59.8923 14.8372 60.0632 14.7666 60.2637 14.7666C60.4688 14.7666 60.6419 14.8372 60.7832 14.9785C60.929 15.1152 61.002 15.2884 61.002 15.498C61.002 15.6986 60.929 15.8695 60.7832 16.0107C60.6419 16.152 60.4688 16.2227 60.2637 16.2227ZM60.8105 25H59.6895V18H60.8105V25ZM66.3271 24.9316C66.0628 25.0775 65.7142 25.1504 65.2812 25.1504C64.0553 25.1504 63.4424 24.4668 63.4424 23.0996V18.957H62.2393V18H63.4424V16.291L64.5635 15.9287V18H66.3271V18.957H64.5635V22.9014C64.5635 23.3708 64.6432 23.7057 64.8027 23.9062C64.9622 24.1068 65.2266 24.207 65.5957 24.207C65.8783 24.207 66.1221 24.1296 66.3271 23.9746V24.9316ZM73.3955 18L70.1758 26.1211C69.6016 27.5703 68.7949 28.2949 67.7559 28.2949C67.4642 28.2949 67.2204 28.2653 67.0244 28.2061V27.2012C67.266 27.2832 67.487 27.3242 67.6875 27.3242C68.2526 27.3242 68.6764 26.987 68.959 26.3125L69.5195 24.9863L66.7852 18H68.0293L69.9229 23.3867C69.9456 23.4551 69.9935 23.6328 70.0664 23.9199H70.1074C70.1302 23.8105 70.1758 23.6374 70.2441 23.4004L72.2334 18H73.3955Z" fill="#ADBAC7"/>
<path d="M4 2H81V0H4V2ZM83 4V35H85V4H83ZM81 37H4V39H81V37ZM2 35V4H0V35H2ZM4 37C2.89543 37 2 36.1046 2 35H0C0 37.2091 1.79086 39 4 39V37ZM83 35C83 36.1046 82.1046 37 81 37V39C83.2091 39 85 37.2091 85 35H83ZM81 2C82.1046 2 83 2.89543 83 4H85C85 1.79086 83.2091 0 81 0V2ZM4 0C1.79086 0 0 1.79086 0 4H2C2 2.89543 2.89543 2 4 2V0Z" fill="#444C56"/>
</svg>
