<svg width="102" height="45" viewBox="0 0 102 45" fill="none" xmlns="http://www.w3.org/2000/svg">
<path d="M1 4C1 2.34314 2.34315 1 4 1H98C99.6569 1 101 2.34315 101 4V41C101 42.6569 99.6569 44 98 44H4C2.34314 44 1 42.6569 1 41V4Z" fill="#22272E"/>
<path d="M22.8 26.85L23.7075 28.4025L29.8275 30L31.5 24.06L30.54 22.5L31.5 21L29.8275 15L23.7075 16.5975L22.8 18.15H21L16.5 22.5L21 26.8575L22.8 26.85ZM30.24 22.5L28.9425 27L26.25 22.5L28.9425 18L30.24 22.5ZM22.95 18.405L27.63 17.25L24.9375 21.75H19.56L22.95 18.405ZM24.9525 23.25L27.645 27.75L22.95 26.5875L19.575 23.25H24.9525Z" fill="#ADBAC7"/>
<path d="M54.6641 24.4688C54.6641 27.6146 53.2448 29.1875 50.4062 29.1875C47.6875 29.1875 46.3281 27.6745 46.3281 24.6484V17.7969H47.6406V24.5625C47.6406 26.8594 48.6094 28.0078 50.5469 28.0078C52.4167 28.0078 53.3516 26.8984 53.3516 24.6797V17.7969H54.6641V24.4688ZM63.9375 29H62.6562V24.4375C62.6562 22.7396 62.0365 21.8906 60.7969 21.8906C60.1562 21.8906 59.625 22.1328 59.2031 22.6172C58.7865 23.0964 58.5781 23.7031 58.5781 24.4375V29H57.2969V21H58.5781V22.3281H58.6094C59.2135 21.3177 60.0885 20.8125 61.2344 20.8125C62.1094 20.8125 62.7786 21.0964 63.2422 21.6641C63.7057 22.2266 63.9375 23.0417 63.9375 24.1094V29ZM67.0156 18.9688C66.7865 18.9688 66.5911 18.8906 66.4297 18.7344C66.2682 18.5781 66.1875 18.3802 66.1875 18.1406C66.1875 17.901 66.2682 17.7031 66.4297 17.5469C66.5911 17.3854 66.7865 17.3047 67.0156 17.3047C67.25 17.3047 67.4479 17.3854 67.6094 17.5469C67.776 17.7031 67.8594 17.901 67.8594 18.1406C67.8594 18.3698 67.776 18.5651 67.6094 18.7266C67.4479 18.888 67.25 18.9688 67.0156 18.9688ZM67.6406 29H66.3594V21H67.6406V29ZM73.9453 28.9219C73.6432 29.0885 73.2448 29.1719 72.75 29.1719C71.349 29.1719 70.6484 28.3906 70.6484 26.8281V22.0938H69.2734V21H70.6484V19.0469L71.9297 18.6328V21H73.9453V22.0938H71.9297V26.6016C71.9297 27.138 72.0208 27.5208 72.2031 27.75C72.3854 27.9792 72.6875 28.0938 73.1094 28.0938C73.4323 28.0938 73.7109 28.0052 73.9453 27.8281V28.9219ZM82.0234 21L78.3438 30.2812C77.6875 31.9375 76.7656 32.7656 75.5781 32.7656C75.2448 32.7656 74.9661 32.7318 74.7422 32.6641V31.5156C75.0182 31.6094 75.2708 31.6562 75.5 31.6562C76.1458 31.6562 76.6302 31.2708 76.9531 30.5L77.5938 28.9844L74.4688 21H75.8906L78.0547 27.1562C78.0807 27.2344 78.1354 27.4375 78.2188 27.7656H78.2656C78.2917 27.6406 78.3438 27.4427 78.4219 27.1719L80.6953 21H82.0234Z" fill="#ADBAC7"/>
<path d="M4 2H98V0H4V2ZM100 4V41H102V4H100ZM98 43H4V45H98V43ZM2 41V4H0V41H2ZM4 43C2.89543 43 2 42.1046 2 41H0C0 43.2091 1.79086 45 4 45V43ZM100 41C100 42.1046 99.1046 43 98 43V45C100.209 45 102 43.2091 102 41H100ZM98 2C99.1046 2 100 2.89543 100 4H102C102 1.79086 100.209 0 98 0V2ZM4 0C1.79086 0 0 1.79086 0 4H2C2 2.89543 2.89543 2 4 2V0Z" fill="#444C56"/>
</svg>
