<svg width="72" height="34" viewBox="0 0 72 34" fill="none" xmlns="http://www.w3.org/2000/svg">
<path d="M1.5 4C1.5 2.34315 2.84315 1 4.5 1H67.5C69.1569 1 70.5 2.34315 70.5 4V30C70.5 31.6569 69.1569 33 67.5 33H4.5C2.84315 33 1.5 31.6569 1.5 30V4Z" fill="#C9D1D9"/>
<path d="M17.3 21.35L18.2075 22.9025L24.3275 24.5L26 18.56L25.04 17L26 15.5L24.3275 9.5L18.2075 11.0975L17.3 12.65H15.5L11 17L15.5 21.3575L17.3 21.35ZM24.74 17L23.4425 21.5L20.75 17L23.4425 12.5L24.74 17ZM17.45 12.905L22.13 11.75L19.4375 16.25H14.06L17.45 12.905ZM19.4525 17.75L22.145 22.25L17.45 21.0875L14.075 17.75H19.4525Z" fill="black"/>
<path d="M42.4961 12.4688V18.2695C42.4922 19.0742 42.2383 19.7324 41.7344 20.2441C41.2344 20.7559 40.5547 21.043 39.6953 21.1055L39.3965 21.1172C38.4629 21.1172 37.7188 20.8652 37.1641 20.3613C36.6094 19.8574 36.3281 19.1641 36.3203 18.2812V12.4688H37.4336V18.2461C37.4336 18.8633 37.6035 19.3438 37.9434 19.6875C38.2832 20.0273 38.7676 20.1973 39.3965 20.1973C40.0332 20.1973 40.5195 20.0273 40.8555 19.6875C41.1953 19.3477 41.3652 18.8691 41.3652 18.252V12.4688H42.4961ZM45.127 14.6602L45.1621 15.457C45.6465 14.8477 46.2793 14.543 47.0605 14.543C48.4004 14.543 49.0762 15.2988 49.0879 16.8105V21H48.0039V16.8047C48 16.3477 47.8945 16.0098 47.6875 15.791C47.4844 15.5723 47.166 15.4629 46.7324 15.4629C46.3809 15.4629 46.0723 15.5566 45.8066 15.7441C45.541 15.9316 45.334 16.1777 45.1855 16.4824V21H44.1016V14.6602H45.127ZM51.9004 21H50.8164V14.6602H51.9004V21ZM50.7285 12.9785C50.7285 12.8027 50.7812 12.6543 50.8867 12.5332C50.9961 12.4121 51.1562 12.3516 51.3672 12.3516C51.5781 12.3516 51.7383 12.4121 51.8477 12.5332C51.957 12.6543 52.0117 12.8027 52.0117 12.9785C52.0117 13.1543 51.957 13.3008 51.8477 13.418C51.7383 13.5352 51.5781 13.5938 51.3672 13.5938C51.1562 13.5938 50.9961 13.5352 50.8867 13.418C50.7812 13.3008 50.7285 13.1543 50.7285 12.9785ZM55.1113 13.125V14.6602H56.2949V15.498H55.1113V19.4297C55.1113 19.6836 55.1641 19.875 55.2695 20.0039C55.375 20.1289 55.5547 20.1914 55.8086 20.1914C55.9336 20.1914 56.1055 20.168 56.3242 20.1211V21C56.0391 21.0781 55.7617 21.1172 55.4922 21.1172C55.0078 21.1172 54.6426 20.9707 54.3965 20.6777C54.1504 20.3848 54.0273 19.9688 54.0273 19.4297V15.498H52.873V14.6602H54.0273V13.125H55.1113ZM59.6406 19.4121L61.1172 14.6602H62.2773L59.7285 21.9785C59.334 23.0332 58.707 23.5605 57.8477 23.5605L57.6426 23.543L57.2383 23.4668V22.5879L57.5312 22.6113C57.8984 22.6113 58.1836 22.5371 58.3867 22.3887C58.5938 22.2402 58.7637 21.9688 58.8965 21.5742L59.1367 20.9297L56.875 14.6602H58.0586L59.6406 19.4121Z" fill="#22272E"/>
<path d="M4.5 2H67.5V0H4.5V2ZM69.5 4V30H71.5V4H69.5ZM67.5 32H4.5V34H67.5V32ZM2.5 30V4H0.5V30H2.5ZM4.5 32C3.39543 32 2.5 31.1046 2.5 30H0.5C0.5 32.2091 2.29086 34 4.5 34V32ZM69.5 30C69.5 31.1046 68.6046 32 67.5 32V34C69.7091 34 71.5 32.2091 71.5 30H69.5ZM67.5 2C68.6046 2 69.5 2.89543 69.5 4H71.5C71.5 1.79086 69.7091 0 67.5 0V2ZM4.5 0C2.29086 0 0.5 1.79086 0.5 4H2.5C2.5 2.89543 3.39543 2 4.5 2V0Z" fill="#30363D"/>
</svg>
