<svg xmlns="http://www.w3.org/2000/svg" width="134" height="56" fill="none"><rect width="116" height="48" x="9" y="4" fill="#E0F7FA" rx="4"/><path fill="#000" d="m38.4 33.8 1.21 2.07L47.77 38 50 30.08 48.72 28 50 26l-2.23-8-8.16 2.13-1.21 2.07H36L30 28l6 5.81 2.4-.01Zm9.92-5.8-1.73 6L43 28l3.59-6 1.73 6Zm-9.72-5.46L44.84 21l-3.59 6h-7.17l4.52-4.46ZM41.27 29l3.59 6-6.26-1.55L34.1 29h7.17ZM77.664 29.969c0 3.146-1.42 4.718-4.258 4.718-2.719 0-4.078-1.512-4.078-4.539v-6.851h1.313v6.765c0 2.297.968 3.446 2.906 3.446 1.87 0 2.805-1.11 2.805-3.328v-6.883h1.312v6.672Zm9.273 4.531h-1.28v-4.563c0-1.697-.62-2.546-1.86-2.546-.64 0-1.172.242-1.594.726-.416.48-.625 1.086-.625 1.82V34.5h-1.281v-8h1.281v1.328h.031c.605-1.01 1.48-1.515 2.625-1.515.875 0 1.545.283 2.008.851.464.563.695 1.378.695 2.445V34.5Zm3.079-10.031a.812.812 0 0 1-.586-.235.791.791 0 0 1-.243-.593c0-.24.081-.438.243-.594a.798.798 0 0 1 .586-.242c.234 0 .432.08.593.242.167.156.25.354.25.594 0 .229-.083.424-.25.586a.808.808 0 0 1-.593.242ZM90.64 34.5h-1.282v-8h1.282v8Zm6.304-.078c-.302.167-.7.25-1.195.25-1.401 0-2.102-.781-2.102-2.344v-4.734h-1.375V26.5h1.375v-1.953l1.282-.414V26.5h2.015v1.094H94.93v4.508c0 .536.09.919.273 1.148.182.23.484.344.906.344.323 0 .602-.089.836-.266v1.094Zm8.078-7.922-3.679 9.281c-.656 1.657-1.578 2.485-2.766 2.485-.333 0-.612-.034-.836-.102v-1.148c.276.093.529.14.758.14.646 0 1.13-.385 1.453-1.156l.641-1.516-3.125-7.984h1.422l2.164 6.156c.026.078.08.282.164.61h.047c.026-.125.078-.323.156-.594l2.273-6.172h1.328Z"/><rect width="116" height="48" x="9" y="4" stroke="#00BCD4" stroke-width="2" rx="4"/></svg>