<svg width="74" height="36" viewBox="0 0 74 36" fill="none" xmlns="http://www.w3.org/2000/svg">
<g filter="url(#filter0_d)">
<path d="M2.5 3C2.5 1.34315 3.84315 0 5.5 0H68.5C70.1569 0 71.5 1.34315 71.5 3V29C71.5 30.6569 70.1569 32 68.5 32H5.5C3.84315 32 2.5 30.6569 2.5 29V3Z" fill="#C9D1D9"/>
<path d="M18.3 20.35L19.2075 21.9025L25.3275 23.5L27 17.56L26.04 16L27 14.5L25.3275 8.5L19.2075 10.0975L18.3 11.65H16.5L12 16L16.5 20.3575L18.3 20.35ZM25.74 16L24.4425 20.5L21.75 16L24.4425 11.5L25.74 16ZM18.45 11.905L23.13 10.75L20.4375 15.25H15.06L18.45 11.905ZM20.4525 16.75L23.145 21.25L18.45 20.0875L15.075 16.75H20.4525Z" fill="black"/>
<path d="M43.4961 11.4688V17.2695C43.4922 18.0742 43.2383 18.7324 42.7344 19.2441C42.2344 19.7559 41.5547 20.043 40.6953 20.1055L40.3965 20.1172C39.4629 20.1172 38.7188 19.8652 38.1641 19.3613C37.6094 18.8574 37.3281 18.1641 37.3203 17.2812V11.4688H38.4336V17.2461C38.4336 17.8633 38.6035 18.3438 38.9434 18.6875C39.2832 19.0273 39.7676 19.1973 40.3965 19.1973C41.0332 19.1973 41.5195 19.0273 41.8555 18.6875C42.1953 18.3477 42.3652 17.8691 42.3652 17.252V11.4688H43.4961ZM46.127 13.6602L46.1621 14.457C46.6465 13.8477 47.2793 13.543 48.0605 13.543C49.4004 13.543 50.0762 14.2988 50.0879 15.8105V20H49.0039V15.8047C49 15.3477 48.8945 15.0098 48.6875 14.791C48.4844 14.5723 48.166 14.4629 47.7324 14.4629C47.3809 14.4629 47.0723 14.5566 46.8066 14.7441C46.541 14.9316 46.334 15.1777 46.1855 15.4824V20H45.1016V13.6602H46.127ZM52.9004 20H51.8164V13.6602H52.9004V20ZM51.7285 11.9785C51.7285 11.8027 51.7812 11.6543 51.8867 11.5332C51.9961 11.4121 52.1562 11.3516 52.3672 11.3516C52.5781 11.3516 52.7383 11.4121 52.8477 11.5332C52.957 11.6543 53.0117 11.8027 53.0117 11.9785C53.0117 12.1543 52.957 12.3008 52.8477 12.418C52.7383 12.5352 52.5781 12.5938 52.3672 12.5938C52.1562 12.5938 51.9961 12.5352 51.8867 12.418C51.7812 12.3008 51.7285 12.1543 51.7285 11.9785ZM56.1113 12.125V13.6602H57.2949V14.498H56.1113V18.4297C56.1113 18.6836 56.1641 18.875 56.2695 19.0039C56.375 19.1289 56.5547 19.1914 56.8086 19.1914C56.9336 19.1914 57.1055 19.168 57.3242 19.1211V20C57.0391 20.0781 56.7617 20.1172 56.4922 20.1172C56.0078 20.1172 55.6426 19.9707 55.3965 19.6777C55.1504 19.3848 55.0273 18.9688 55.0273 18.4297V14.498H53.873V13.6602H55.0273V12.125H56.1113ZM60.6406 18.4121L62.1172 13.6602H63.2773L60.7285 20.9785C60.334 22.0332 59.707 22.5605 58.8477 22.5605L58.6426 22.543L58.2383 22.4668V21.5879L58.5312 21.6113C58.8984 21.6113 59.1836 21.5371 59.3867 21.3887C59.5938 21.2402 59.7637 20.9688 59.8965 20.5742L60.1367 19.9297L57.875 13.6602H59.0586L60.6406 18.4121Z" fill="#22272E"/>
</g>
<defs>
<filter id="filter0_d" x="0.5" y="0" width="73" height="36" filterUnits="userSpaceOnUse" color-interpolation-filters="sRGB">
<feFlood flood-opacity="0" result="BackgroundImageFix"/>
<feColorMatrix in="SourceAlpha" type="matrix" values="0 0 0 0 0 0 0 0 0 0 0 0 0 0 0 0 0 0 127 0" result="hardAlpha"/>
<feOffset dy="2"/>
<feGaussianBlur stdDeviation="1"/>
<feComposite in2="hardAlpha" operator="out"/>
<feColorMatrix type="matrix" values="0 0 0 0 0 0 0 0 0 0 0 0 0 0 0 0 0 0 0.25 0"/>
<feBlend mode="normal" in2="BackgroundImageFix" result="effect1_dropShadow"/>
<feBlend mode="normal" in="SourceGraphic" in2="effect1_dropShadow" result="shape"/>
</filter>
</defs>
</svg>
