<svg width="104" height="47" viewBox="0 0 104 47" fill="none" xmlns="http://www.w3.org/2000/svg">
<rect x="1" y="1" width="102" height="45" rx="4" fill="#22272E"/>
<path d="M23.8 27.85L24.7075 29.4025L30.8275 31L32.5 25.06L31.54 23.5L32.5 22L30.8275 16L24.7075 17.5975L23.8 19.15H22L17.5 23.5L22 27.8575L23.8 27.85ZM31.24 23.5L29.9425 28L27.25 23.5L29.9425 19L31.24 23.5ZM23.95 19.405L28.63 18.25L25.9375 22.75H20.56L23.95 19.405ZM25.9525 24.25L28.645 28.75L23.95 27.5875L20.575 24.25H25.9525Z" fill="#ADBAC7"/>
<path d="M55.6641 25.4688C55.6641 28.6146 54.2448 30.1875 51.4062 30.1875C48.6875 30.1875 47.3281 28.6745 47.3281 25.6484V18.7969H48.6406V25.5625C48.6406 27.8594 49.6094 29.0078 51.5469 29.0078C53.4167 29.0078 54.3516 27.8984 54.3516 25.6797V18.7969H55.6641V25.4688ZM64.9375 30H63.6562V25.4375C63.6562 23.7396 63.0365 22.8906 61.7969 22.8906C61.1562 22.8906 60.625 23.1328 60.2031 23.6172C59.7865 24.0964 59.5781 24.7031 59.5781 25.4375V30H58.2969V22H59.5781V23.3281H59.6094C60.2135 22.3177 61.0885 21.8125 62.2344 21.8125C63.1094 21.8125 63.7786 22.0964 64.2422 22.6641C64.7057 23.2266 64.9375 24.0417 64.9375 25.1094V30ZM68.0156 19.9688C67.7865 19.9688 67.5911 19.8906 67.4297 19.7344C67.2682 19.5781 67.1875 19.3802 67.1875 19.1406C67.1875 18.901 67.2682 18.7031 67.4297 18.5469C67.5911 18.3854 67.7865 18.3047 68.0156 18.3047C68.25 18.3047 68.4479 18.3854 68.6094 18.5469C68.776 18.7031 68.8594 18.901 68.8594 19.1406C68.8594 19.3698 68.776 19.5651 68.6094 19.7266C68.4479 19.888 68.25 19.9688 68.0156 19.9688ZM68.6406 30H67.3594V22H68.6406V30ZM74.9453 29.9219C74.6432 30.0885 74.2448 30.1719 73.75 30.1719C72.349 30.1719 71.6484 29.3906 71.6484 27.8281V23.0938H70.2734V22H71.6484V20.0469L72.9297 19.6328V22H74.9453V23.0938H72.9297V27.6016C72.9297 28.138 73.0208 28.5208 73.2031 28.75C73.3854 28.9792 73.6875 29.0938 74.1094 29.0938C74.4323 29.0938 74.7109 29.0052 74.9453 28.8281V29.9219ZM83.0234 22L79.3438 31.2812C78.6875 32.9375 77.7656 33.7656 76.5781 33.7656C76.2448 33.7656 75.9661 33.7318 75.7422 33.6641V32.5156C76.0182 32.6094 76.2708 32.6562 76.5 32.6562C77.1458 32.6562 77.6302 32.2708 77.9531 31.5L78.5938 29.9844L75.4688 22H76.8906L79.0547 28.1562C79.0807 28.2344 79.1354 28.4375 79.2188 28.7656H79.2656C79.2917 28.6406 79.3438 28.4427 79.4219 28.1719L81.6953 22H83.0234Z" fill="#ADBAC7"/>
<rect x="1" y="1" width="102" height="45" rx="4" stroke="#444C56" stroke-width="2"/>
</svg>
