<svg width="158" height="47" viewBox="0 0 158 47" fill="none" xmlns="http://www.w3.org/2000/svg">
<rect x="1" y="1" width="156" height="45" rx="4" fill="#22272E"/>
<path d="M29.1838 14.5529C28.8998 14.5501 28.6213 14.6524 28.4104 14.8459C28.3986 14.8578 28.3839 14.8696 28.3721 14.8814L22.3984 21.4879L18.9092 18.6288L18.6043 18.3649C18.4988 18.2778 18.3716 18.2212 18.2363 18.201C18.101 18.1809 17.9628 18.1981 17.8365 18.2508C17.8337 18.2508 17.8309 18.2536 17.8275 18.2536L16.4651 18.8161C16.4477 18.8251 16.4269 18.8335 16.4094 18.8425C16.3971 18.85 16.3843 18.8568 16.3712 18.8628L16.3448 18.8802C16.3329 18.8892 16.3183 18.8976 16.3065 18.9066C16.3009 18.9123 16.2919 18.9184 16.2863 18.9241C16.2744 18.9331 16.2626 18.9415 16.2542 18.9505C16.2424 18.9595 16.2339 18.9679 16.2249 18.9769C16.2193 18.9826 16.2103 18.9916 16.2013 19.0034C16.1927 19.0115 16.1848 19.0203 16.1777 19.0298L16.1513 19.0653C16.1446 19.0725 16.1388 19.0804 16.1338 19.0889C16.1248 19.1007 16.1164 19.1153 16.1074 19.1271C16.1046 19.1361 16.0984 19.1446 16.0928 19.1536C16.0871 19.1654 16.0809 19.1772 16.0753 19.1918L16.0607 19.2239C16.0579 19.2357 16.0517 19.2475 16.0489 19.2593C16.0437 19.2707 16.0397 19.2826 16.0371 19.2948C16.0315 19.3079 16.0275 19.3217 16.0253 19.3358L16.0163 19.3651C16.0163 19.3769 16.0134 19.3915 16.0106 19.4061C16.0106 19.4179 16.0078 19.4298 16.0078 19.4444C16.005 19.4646 16.005 19.4854 16.005 19.5057V27.4977C16.005 27.7992 16.1867 28.072 16.4651 28.1862L17.8275 28.7605C18.0885 28.8691 18.39 28.819 18.6038 28.6373L18.9086 28.3735L22.3978 25.5143L28.3716 32.1209C28.389 32.1383 28.4098 32.1563 28.4273 32.1709C28.4419 32.1828 28.4565 32.1974 28.4711 32.2092C28.4829 32.221 28.4976 32.2294 28.5122 32.2413C28.5296 32.2531 28.5443 32.2615 28.5589 32.2733C28.5763 32.2823 28.5943 32.2936 28.6089 32.3026L28.659 32.329L28.7091 32.3526C28.7265 32.3616 28.7445 32.3673 28.7619 32.3729C28.7794 32.3819 28.8002 32.3875 28.8176 32.3931C28.8323 32.3988 28.8497 32.4021 28.8677 32.4078C28.8857 32.4134 28.9059 32.4196 28.9262 32.4224C28.9436 32.4252 28.9616 32.4314 28.9791 32.4342C28.9965 32.437 29.0145 32.4398 29.0348 32.4398C29.0522 32.4426 29.073 32.4454 29.0904 32.4454C29.1079 32.4454 29.1259 32.4483 29.1461 32.4483H29.2018C29.2221 32.4483 29.2429 32.4454 29.2603 32.4454C29.2768 32.4423 29.2936 32.4405 29.3104 32.4398C29.3478 32.4346 29.385 32.4277 29.4218 32.419C29.442 32.4134 29.4628 32.41 29.4831 32.4016C29.4977 32.3988 29.5151 32.3926 29.5331 32.3869C29.5511 32.3813 29.5686 32.3751 29.586 32.3667L29.6535 32.3403L33.3598 30.556C33.4948 30.4913 33.6174 30.4008 33.7142 30.2866C33.7406 30.2601 33.7609 30.2309 33.7845 30.2016C33.7845 30.2016 33.7845 30.1988 33.7873 30.196C33.8271 30.1383 33.8623 30.0776 33.8925 30.0143C33.8953 30.0087 33.8953 30.0053 33.8981 29.9997C33.9099 29.9733 33.9218 29.9468 33.9302 29.9204L33.9392 29.8911C33.9482 29.8647 33.9566 29.8383 33.9628 29.8118C33.9656 29.8028 33.9684 29.7944 33.9684 29.7854C33.9741 29.7589 33.9774 29.7325 33.9831 29.7094C33.9836 29.6965 33.9854 29.6837 33.9887 29.6712C33.9887 29.6476 33.9915 29.6273 33.9915 29.6037C33.9943 29.5834 33.9943 29.5626 33.9943 29.5452V17.434C33.9943 17.3986 33.9915 17.3609 33.9887 17.3226C33.966 17.1354 33.8964 16.9569 33.7862 16.8038C33.6761 16.6507 33.529 16.5279 33.3587 16.4468L29.6524 14.6654C29.507 14.5951 29.3481 14.5571 29.1866 14.554L29.1838 14.5529ZM29.4971 19.6913V27.3087L24.8509 23.5L29.4971 19.6913ZM18.2528 20.9305L20.5759 23.5L18.2528 26.0695V20.9305Z" fill="#ADBAC7"/>
<path d="M55.7969 18.7969L51.6484 30H50.2031L46.1406 18.7969H47.6016L50.7031 27.6797C50.8021 27.9661 50.8776 28.2969 50.9297 28.6719H50.9609C51.0026 28.3594 51.0885 28.0234 51.2188 27.6641L54.3828 18.7969H55.7969ZM57.8906 19.9688C57.6615 19.9688 57.4661 19.8906 57.3047 19.7344C57.1432 19.5781 57.0625 19.3802 57.0625 19.1406C57.0625 18.901 57.1432 18.7031 57.3047 18.5469C57.4661 18.3854 57.6615 18.3047 57.8906 18.3047C58.125 18.3047 58.3229 18.3854 58.4844 18.5469C58.651 18.7031 58.7344 18.901 58.7344 19.1406C58.7344 19.3698 58.651 19.5651 58.4844 19.7266C58.3229 19.888 58.125 19.9688 57.8906 19.9688ZM58.5156 30H57.2344V22H58.5156V30ZM60.625 29.7109V28.3359C61.3229 28.8516 62.0911 29.1094 62.9297 29.1094C64.0547 29.1094 64.6172 28.7344 64.6172 27.9844C64.6172 27.7708 64.5677 27.5911 64.4688 27.4453C64.375 27.2943 64.2448 27.1615 64.0781 27.0469C63.9167 26.9323 63.724 26.8307 63.5 26.7422C63.2812 26.6484 63.0443 26.5521 62.7891 26.4531C62.4349 26.3125 62.1224 26.1719 61.8516 26.0312C61.5859 25.8854 61.362 25.724 61.1797 25.5469C61.0026 25.3646 60.8672 25.1589 60.7734 24.9297C60.6849 24.7005 60.6406 24.4323 60.6406 24.125C60.6406 23.75 60.7266 23.4193 60.8984 23.1328C61.0703 22.8411 61.2995 22.599 61.5859 22.4062C61.8724 22.2083 62.1979 22.0599 62.5625 21.9609C62.9323 21.862 63.3125 21.8125 63.7031 21.8125C64.3958 21.8125 65.0156 21.9323 65.5625 22.1719V23.4688C64.974 23.0833 64.2969 22.8906 63.5312 22.8906C63.2917 22.8906 63.0755 22.9193 62.8828 22.9766C62.6901 23.0286 62.5234 23.1042 62.3828 23.2031C62.2474 23.3021 62.1406 23.4219 62.0625 23.5625C61.9896 23.6979 61.9531 23.849 61.9531 24.0156C61.9531 24.224 61.9896 24.3984 62.0625 24.5391C62.1406 24.6797 62.2526 24.8047 62.3984 24.9141C62.5443 25.0234 62.7214 25.1224 62.9297 25.2109C63.138 25.2995 63.375 25.3958 63.6406 25.5C63.9948 25.6354 64.3125 25.776 64.5938 25.9219C64.875 26.0625 65.1146 26.224 65.3125 26.4062C65.5104 26.5833 65.6615 26.7891 65.7656 27.0234C65.875 27.2578 65.9297 27.5365 65.9297 27.8594C65.9297 28.2552 65.8411 28.599 65.6641 28.8906C65.4922 29.1823 65.2604 29.4245 64.9688 29.6172C64.6771 29.8099 64.3411 29.9531 63.9609 30.0469C63.5807 30.1406 63.1823 30.1875 62.7656 30.1875C61.9427 30.1875 61.2292 30.0286 60.625 29.7109ZM74.375 30H73.0938V28.7344H73.0625C72.5312 29.7031 71.7083 30.1875 70.5938 30.1875C68.6875 30.1875 67.7344 29.0521 67.7344 26.7812V22H69.0078V26.5781C69.0078 28.2656 69.6536 29.1094 70.9453 29.1094C71.5703 29.1094 72.0833 28.8802 72.4844 28.4219C72.8906 27.9583 73.0938 27.3542 73.0938 26.6094V22H74.375V30ZM82.6953 30H81.4141V28.75H81.3828C80.8255 29.7083 80.0052 30.1875 78.9219 30.1875C78.125 30.1875 77.5 29.9766 77.0469 29.5547C76.599 29.1328 76.375 28.5729 76.375 27.875C76.375 26.3802 77.2552 25.5104 79.0156 25.2656L81.4141 24.9297C81.4141 23.5703 80.8646 22.8906 79.7656 22.8906C78.8021 22.8906 77.9323 23.2188 77.1562 23.875V22.5625C77.9427 22.0625 78.849 21.8125 79.875 21.8125C81.7552 21.8125 82.6953 22.8073 82.6953 24.7969V30ZM81.4141 25.9531L79.4844 26.2188C78.8906 26.3021 78.4427 26.4505 78.1406 26.6641C77.8385 26.8724 77.6875 27.2448 77.6875 27.7812C77.6875 28.1719 77.8255 28.4922 78.1016 28.7422C78.3828 28.987 78.7552 29.1094 79.2188 29.1094C79.8542 29.1094 80.3776 28.888 80.7891 28.4453C81.2057 27.9974 81.4141 27.4323 81.4141 26.75V25.9531ZM86.3906 30H85.1094V18.1562H86.3906V30ZM93.0234 29.5469V28C93.2005 28.1562 93.4115 28.2969 93.6562 28.4219C93.9062 28.5469 94.1667 28.6536 94.4375 28.7422C94.7135 28.8255 94.9896 28.8906 95.2656 28.9375C95.5417 28.9844 95.7969 29.0078 96.0312 29.0078C96.8385 29.0078 97.4401 28.8594 97.8359 28.5625C98.237 28.2604 98.4375 27.8281 98.4375 27.2656C98.4375 26.9635 98.3698 26.7005 98.2344 26.4766C98.1042 26.2526 97.9219 26.0495 97.6875 25.8672C97.4531 25.6797 97.1745 25.5026 96.8516 25.3359C96.5339 25.1641 96.1901 24.9844 95.8203 24.7969C95.4297 24.599 95.0651 24.3984 94.7266 24.1953C94.388 23.9922 94.0938 23.7682 93.8438 23.5234C93.5938 23.2786 93.3958 23.0026 93.25 22.6953C93.1094 22.3828 93.0391 22.0182 93.0391 21.6016C93.0391 21.0911 93.151 20.6484 93.375 20.2734C93.599 19.8932 93.8932 19.5807 94.2578 19.3359C94.6224 19.0911 95.0365 18.9089 95.5 18.7891C95.9688 18.6693 96.4453 18.6094 96.9297 18.6094C98.0339 18.6094 98.8385 18.7422 99.3438 19.0078V20.4844C98.6823 20.026 97.8333 19.7969 96.7969 19.7969C96.5104 19.7969 96.224 19.8281 95.9375 19.8906C95.651 19.9479 95.3958 20.0443 95.1719 20.1797C94.9479 20.3151 94.7656 20.4896 94.625 20.7031C94.4844 20.9167 94.4141 21.1771 94.4141 21.4844C94.4141 21.7708 94.4661 22.0182 94.5703 22.2266C94.6797 22.4349 94.8385 22.625 95.0469 22.7969C95.2552 22.9688 95.5078 23.1354 95.8047 23.2969C96.1068 23.4583 96.4531 23.6354 96.8438 23.8281C97.2448 24.026 97.625 24.2344 97.9844 24.4531C98.3438 24.6719 98.6589 24.9141 98.9297 25.1797C99.2005 25.4453 99.4141 25.7396 99.5703 26.0625C99.7318 26.3854 99.8125 26.7552 99.8125 27.1719C99.8125 27.724 99.7031 28.1927 99.4844 28.5781C99.2708 28.9583 98.9792 29.2682 98.6094 29.5078C98.2448 29.7474 97.8229 29.9193 97.3438 30.0234C96.8646 30.1328 96.3594 30.1875 95.8281 30.1875C95.651 30.1875 95.4323 30.1719 95.1719 30.1406C94.9115 30.1146 94.6458 30.0729 94.375 30.0156C94.1042 29.9635 93.8464 29.8984 93.6016 29.8203C93.362 29.737 93.1693 29.6458 93.0234 29.5469ZM105.07 29.9219C104.768 30.0885 104.37 30.1719 103.875 30.1719C102.474 30.1719 101.773 29.3906 101.773 27.8281V23.0938H100.398V22H101.773V20.0469L103.055 19.6328V22H105.07V23.0938H103.055V27.6016C103.055 28.138 103.146 28.5208 103.328 28.75C103.51 28.9792 103.812 29.0938 104.234 29.0938C104.557 29.0938 104.836 29.0052 105.07 28.8281V29.9219ZM113.25 30H111.969V28.7344H111.938C111.406 29.7031 110.583 30.1875 109.469 30.1875C107.562 30.1875 106.609 29.0521 106.609 26.7812V22H107.883V26.5781C107.883 28.2656 108.529 29.1094 109.82 29.1094C110.445 29.1094 110.958 28.8802 111.359 28.4219C111.766 27.9583 111.969 27.3542 111.969 26.6094V22H113.25V30ZM122.672 30H121.391V28.6406H121.359C120.766 29.6719 119.849 30.1875 118.609 30.1875C117.604 30.1875 116.799 29.8307 116.195 29.1172C115.596 28.3984 115.297 27.4219 115.297 26.1875C115.297 24.8646 115.63 23.8047 116.297 23.0078C116.964 22.2109 117.852 21.8125 118.961 21.8125C120.06 21.8125 120.859 22.2448 121.359 23.1094H121.391V18.1562H122.672V30ZM121.391 26.3828V25.2031C121.391 24.5573 121.177 24.0104 120.75 23.5625C120.323 23.1146 119.781 22.8906 119.125 22.8906C118.344 22.8906 117.729 23.1771 117.281 23.75C116.833 24.3229 116.609 25.1146 116.609 26.125C116.609 27.0469 116.823 27.776 117.25 28.3125C117.682 28.8438 118.26 29.1094 118.984 29.1094C119.698 29.1094 120.276 28.8516 120.719 28.3359C121.167 27.8203 121.391 27.1693 121.391 26.3828ZM125.922 19.9688C125.693 19.9688 125.497 19.8906 125.336 19.7344C125.174 19.5781 125.094 19.3802 125.094 19.1406C125.094 18.901 125.174 18.7031 125.336 18.5469C125.497 18.3854 125.693 18.3047 125.922 18.3047C126.156 18.3047 126.354 18.3854 126.516 18.5469C126.682 18.7031 126.766 18.901 126.766 19.1406C126.766 19.3698 126.682 19.5651 126.516 19.7266C126.354 19.888 126.156 19.9688 125.922 19.9688ZM126.547 30H125.266V22H126.547V30ZM132.484 30.1875C131.302 30.1875 130.357 29.8151 129.648 29.0703C128.945 28.3203 128.594 27.3281 128.594 26.0938C128.594 24.75 128.961 23.7005 129.695 22.9453C130.43 22.1901 131.422 21.8125 132.672 21.8125C133.865 21.8125 134.794 22.1797 135.461 22.9141C136.133 23.6484 136.469 24.6667 136.469 25.9688C136.469 27.2448 136.107 28.2682 135.383 29.0391C134.664 29.8047 133.698 30.1875 132.484 30.1875ZM132.578 22.8906C131.755 22.8906 131.104 23.1719 130.625 23.7344C130.146 24.2917 129.906 25.0625 129.906 26.0469C129.906 26.9948 130.148 27.7422 130.633 28.2891C131.117 28.8359 131.766 29.1094 132.578 29.1094C133.406 29.1094 134.042 28.8411 134.484 28.3047C134.932 27.7682 135.156 27.0052 135.156 26.0156C135.156 25.0156 134.932 24.2448 134.484 23.7031C134.042 23.1615 133.406 22.8906 132.578 22.8906Z" fill="#ADBAC7"/>
<rect x="1" y="1" width="156" height="45" rx="4" stroke="#444C56" stroke-width="2"/>
</svg>
