<svg width="18" height="18" viewBox="0 0 18 18" fill="none" xmlns="http://www.w3.org/2000/svg">
<path d="M3.31988 15.3006L2.05594 1.125H15.9441L14.6784 15.2983L8.99156 16.875L3.31988 15.3006Z" fill="#E44F26"/>
<path d="M9 15.6701L13.5956 14.3961L14.6767 2.2843H9V15.6701Z" fill="#F1662A"/>
<path d="M9 7.54143H6.69937L6.54075 5.76112H9V4.02243H4.64062L4.68225 4.48931L5.10919 9.28012H9V7.54143Z" fill="#EBEBEB"/>
<path d="M9 12.0566L8.99213 12.0589L7.056 11.5363L6.93225 10.1497H5.18681L5.43038 12.879L8.99213 13.8679L9 13.8656V12.0566Z" fill="#EBEBEB"/>
<path d="M8.99381 7.54144V9.28013H11.1347L10.9333 11.5352L8.99381 12.0583V13.8673L12.5584 12.879L12.5842 12.5854L12.9926 8.00832L13.0354 7.54144H8.99381Z" fill="white"/>
<path d="M8.99381 4.02243V5.76112H13.1934L13.2283 5.37074L13.3076 4.48931L13.3492 4.02243H8.99381Z" fill="white"/>
</svg>
