<svg width="19" height="18" viewBox="0 0 19 18" fill="none" xmlns="http://www.w3.org/2000/svg">
<path d="M2.12048 1.125H17.8705V16.875H2.12048V1.125Z" fill="#F5DE19"/>
<path d="M12.7006 13.4297C12.8347 13.7023 13.0432 13.9314 13.302 14.0906C13.5608 14.2499 13.8592 14.3327 14.1631 14.3297C14.7762 14.3297 15.1682 14.0231 15.1682 13.5984C15.1682 13.0922 14.7655 12.9111 14.0905 12.6158L13.7204 12.4571C12.6516 12.0021 11.9429 11.4323 11.9429 10.2274C11.9429 9.11757 12.7866 8.27213 14.1102 8.27213C14.5386 8.24119 14.9667 8.33708 15.341 8.54785C15.7154 8.75861 16.0193 9.07492 16.2151 9.45732L15.058 10.197C14.9826 10.0074 14.8514 9.84518 14.6817 9.73186C14.5121 9.61855 14.3119 9.55948 14.1079 9.56251C14.0189 9.5536 13.929 9.56332 13.844 9.59107C13.7589 9.61882 13.6806 9.66398 13.614 9.72367C13.5474 9.78337 13.4939 9.85628 13.457 9.93778C13.4201 10.0193 13.4006 10.1076 13.3997 10.197C13.3997 10.6408 13.6748 10.8208 14.3099 11.097L14.68 11.2556C15.9377 11.7951 16.6487 12.3446 16.6487 13.5804C16.6487 14.913 15.6019 15.6431 14.1962 15.6431C13.6485 15.678 13.1024 15.5537 12.6238 15.2851C12.1452 15.0165 11.7546 14.6151 11.4991 14.1294L12.7006 13.4297ZM7.47212 13.5579C7.70443 13.9703 7.91593 14.319 8.42443 14.319C8.91043 14.319 9.21755 14.1289 9.21755 13.3892V8.35651H10.6975V13.4089C10.6975 14.9411 9.79749 15.6386 8.48743 15.6386C8.02435 15.6639 7.56445 15.5485 7.16819 15.3076C6.77193 15.0666 6.45785 14.7114 6.26724 14.2886L7.47212 13.5579Z" fill="black"/>
</svg>
