<svg width="18" height="18" viewBox="0 0 18 18" fill="none" xmlns="http://www.w3.org/2000/svg">
<path d="M3.31988 15.3006L2.0565 1.125H15.9435L14.6784 15.2983L8.99157 16.875L3.31988 15.3006Z" fill="#1572B6"/>
<path d="M9 15.6701L13.5956 14.3961L14.6767 2.2843H9V15.6701Z" fill="#33A9DC"/>
<path d="M9 7.41994H11.3006L11.4592 5.63963H9V3.90094H13.3594L13.3178 4.36725L12.8908 9.15863H9V7.41994Z" fill="white"/>
<path d="M9.01069 11.9351L9.00281 11.9374L7.06669 11.4142L6.94294 10.0277H5.1975L5.44106 12.7575L9.00225 13.7464L9.01069 13.7441V11.9351Z" fill="#EBEBEB"/>
<path d="M11.1527 9.08493L10.9434 11.4131L9.0045 11.9362V13.7452L12.5685 12.7575L12.5949 12.4639L12.897 9.08493H11.1527Z" fill="white"/>
<path d="M9.00619 3.90094V5.63963H4.80656L4.77169 5.24869L4.69237 4.36725L4.65075 3.90094H9.00619Z" fill="#EBEBEB"/>
<path d="M9 7.41995V9.15864H7.08807L7.05319 8.7677L6.97444 7.88627L6.93282 7.41995H9Z" fill="#EBEBEB"/>
</svg>
