<svg width="19" height="18" viewBox="0 0 19 18" fill="none" xmlns="http://www.w3.org/2000/svg">
<path d="M10.3442 16.875L9.92179 16.7349C9.92179 16.7349 9.97804 14.5974 9.20461 14.4473C8.69836 13.8578 9.27942 -10.7196 11.13 14.3634C10.7789 14.5415 10.5103 14.8485 10.3802 15.2201C10.3105 15.769 10.2985 16.3236 10.3442 16.875Z" fill="url(#paint0_linear)"/>
<path d="M10.5726 14.8101C11.6974 13.9634 12.5587 12.8149 13.0566 11.498C13.5545 10.1812 13.6684 8.75005 13.3851 7.37101C12.5582 3.7232 10.6002 2.52395 10.3892 2.06608C10.2072 1.78096 10.0519 1.47969 9.92517 1.16608L10.081 11.3299C10.081 11.3299 9.75811 14.436 10.5726 14.8101Z" fill="url(#paint1_linear)"/>
<path d="M9.70692 14.9451C9.70692 14.9451 6.26386 12.6 6.46298 8.45156C6.48156 7.20093 6.76831 5.96884 7.30387 4.83852C7.83943 3.70821 8.61133 2.70599 9.56742 1.89956C9.67915 1.80464 9.76792 1.68563 9.82705 1.55148C9.88619 1.41732 9.91416 1.27151 9.90886 1.125C10.1232 1.58625 10.0883 8.01169 10.1108 8.76319C10.198 11.6865 9.94823 14.3933 9.70692 14.9451Z" fill="url(#paint2_linear)"/>
<defs>
<linearGradient id="paint0_linear" x1="7.50453" y1="9.14193" x2="12.3598" y2="10.7896" gradientUnits="userSpaceOnUse">
<stop offset="0.231" stop-color="#999875"/>
<stop offset="0.563" stop-color="#9B9977"/>
<stop offset="0.683" stop-color="#A09F7E"/>
<stop offset="0.768" stop-color="#A9A889"/>
<stop offset="0.837" stop-color="#B7B69A"/>
<stop offset="0.896" stop-color="#C9C7B0"/>
<stop offset="0.948" stop-color="#DEDDCB"/>
<stop offset="0.994" stop-color="#F8F6EB"/>
<stop offset="1" stop-color="#FBF9EF"/>
</linearGradient>
<linearGradient id="paint1_linear" x1="9.28502" y1="1.09345" x2="11.4315" y2="14.4972" gradientUnits="userSpaceOnUse">
<stop stop-color="#48A547"/>
<stop offset="1" stop-color="#3F9143"/>
</linearGradient>
<linearGradient id="paint2_linear" x1="6.16681" y1="8.8622" x2="11.9272" y2="6.93306" gradientUnits="userSpaceOnUse">
<stop stop-color="#41A247"/>
<stop offset="0.352" stop-color="#4BA74B"/>
<stop offset="0.956" stop-color="#67B554"/>
<stop offset="1" stop-color="#69B655"/>
</linearGradient>
</defs>
</svg>
